<svg xmlns="http://www.w3.org/2000/svg" viewBox="0 0 72 100"><linearGradient id="a" gradientUnits="userSpaceOnUse" x1="36" y1="97" x2="36" y2="-1" gradientTransform="translate(0 2)"><stop offset="0" stop-color="#c8d4db"/><stop offset=".139" stop-color="#d8e1e6"/><stop offset=".359" stop-color="#ebf0f3"/><stop offset=".617" stop-color="#f9fafb"/><stop offset="1" stop-color="#fff"/></linearGradient><path d="M45 1l27 26.7V99H0V1h45z" fill="url(#a)"/><path d="M45 1l27 26.7V99H0V1h45z" stroke="#7191a1" stroke-width="2" fill="none"/><linearGradient id="b" gradientUnits="userSpaceOnUse" x1="36.632" y1="66.231" x2="36.632" y2="24.231"><stop offset="0" stop-color="#adccdc"/><stop offset="1" stop-color="#4c6c7b"/></linearGradient><linearGradient id="c" gradientUnits="userSpaceOnUse" x1="36.632" y1="66.606" x2="36.632" y2="23.856"><stop offset="0" stop-color="#adccdc"/><stop offset="1" stop-color="#4c6c7b"/></linearGradient><path d="M30.2 40.4h12.9v3.2H30.2v-3.2zm0 6.4h12.9V50H30.2v-3.2zm0 6.5h12.9v3.2H30.2v-3.2zm22.6-29.1H26.9c-3.6 0-6.5 2.9-6.5 6.5v29.1H14c0 3.6 2.9 6.5 6.5 6.5h25.8c3.6 0 6.5-2.9 6.5-6.5V33.9h6.5v-3.2c-.1-3.6-2.9-6.5-6.5-6.5zm-3.2 35c0 2.1-1.7 3.8-3.8 3.8H22.1c1.6-1.1 1.6-3.2 1.6-3.2V30.7c0-1.8 1.4-3.2 3.2-3.2 1.8 0 3.2 1.4 3.2 3.2v3.2h19.4v25.3zM33.4 30.7v-3.2h19.4c2.9 0 3.2 1.8 3.2 3.2H33.4z" fill="url(#b)" stroke="url(#c)" stroke-width=".75" stroke-miterlimit="10"/><linearGradient id="d" gradientUnits="userSpaceOnUse" x1="45.037" y1="25.813" x2="58.537" y2="12.313" gradientTransform="translate(0 2)"><stop offset="0" stop-color="#fff"/><stop offset=".35" stop-color="#fafbfb"/><stop offset=".532" stop-color="#edf1f4"/><stop offset=".675" stop-color="#dde5e9"/><stop offset=".799" stop-color="#c7d3da"/><stop offset=".908" stop-color="#adbdc7"/><stop offset="1" stop-color="#92a5b0"/></linearGradient><path d="M45 1l27 26.7H45V1z" fill="url(#d)"/><path d="M45 1l27 26.7H45V1z" stroke="#7191a1" stroke-width="2" stroke-linejoin="bevel" fill="none"/><path d="M6.4 76.1h6.3c1.2 0 2.2.1 2.8.2.6.1 1.2.3 1.6.6s.9.8 1.2 1.3c.3.5.5 1.2.5 1.8 0 .7-.2 1.4-.6 2s-.9 1.1-1.6 1.4c1 .3 1.7.8 2.2 1.4s.8 1.5.8 2.4c0 .7-.2 1.4-.5 2.1-.3.7-.8 1.2-1.4 1.6-.6.4-1.3.7-2.1.7-.5.1-1.8.1-3.8.1H6.4V76.1zm3.2 2.7v3.6h2.1c1.2 0 2 0 2.3-.1.5-.1 1-.3 1.3-.6.3-.3.5-.7.5-1.2s-.1-.9-.4-1.2c-.3-.3-.7-.5-1.2-.6-.3 0-1.2-.1-2.7-.1H9.6zm0 6.2v4.2h2.9c1.1 0 1.9 0 2.2-.1.5-.1.9-.3 1.2-.6.3-.3.4-.8.4-1.3s-.1-.9-.3-1.2c-.2-.3-.6-.6-1-.7-.4-.2-1.4-.2-2.8-.2H9.6zm26.9 6.9H33l-1.4-3.6h-6.3L24 91.9h-3.4l6.1-15.7h3.4l6.4 15.7zm-5.8-6.2l-2.2-5.8-2.1 5.8h4.3zm6.7 1.1l3.1-.3c.2 1 .6 1.8 1.1 2.3s1.3.7 2.3.7c1 0 1.8-.2 2.3-.7.5-.4.8-.9.8-1.5 0-.4-.1-.7-.3-1-.2-.3-.6-.5-1.1-.7-.4-.1-1.2-.4-2.5-.7-1.7-.4-2.9-.9-3.6-1.6-1-.9-1.5-1.9-1.5-3.2 0-.8.2-1.6.7-2.2.5-.7 1.1-1.2 2-1.6.9-.4 1.9-.5 3.1-.5 2 0 3.5.4 4.5 1.3s1.5 2 1.6 3.5l-3.2.1c-.1-.8-.4-1.4-.9-1.7-.4-.4-1.1-.5-2-.5-.9 0-1.6.2-2.2.6-.3.2-.5.6-.5 1s.2.7.5 1c.4.3 1.4.7 2.9 1.1s2.7.7 3.4 1.1c.7.4 1.3.9 1.7 1.6.4.7.6 1.5.6 2.5 0 .9-.3 1.7-.8 2.5s-1.2 1.4-2.1 1.8c-.9.4-2.1.6-3.4.6-2 0-3.5-.5-4.6-1.4-1.1-1-1.7-2.4-1.9-4.1zm15.5 5.1V76.1h3.2v6.2h6.2v-6.2h3.2v15.7h-3.2V85h-6.2v6.9h-3.2z" fill="#4c6c7b"/></svg>