<svg xmlns="http://www.w3.org/2000/svg" viewBox="0 0 72 100"><linearGradient id="a" gradientUnits="userSpaceOnUse" x1="36.108" y1="3.003" x2="36.108" y2="101.001" gradientTransform="matrix(1 0 0 -1 0 102)"><stop offset="0" stop-color="#c8d4db"/><stop offset=".139" stop-color="#d8e1e6"/><stop offset=".359" stop-color="#ebf0f3"/><stop offset=".617" stop-color="#f9fafb"/><stop offset="1" stop-color="#fff"/></linearGradient><path d="M45.1 1L72 27.7V99H.2V1h44.9z" fill="url(#a)"/><path d="M45.1 1L72 27.7V99H.2V1h44.9z" fill-opacity="0" stroke="#7191a1" stroke-width="2"/><path d="M10.1 71.2h8c1.6 0 2.8.1 3.5.2.8.1 1.5.4 2.1.8.6.4 1.1 1 1.5 1.7s.6 1.5.6 2.3c0 .9-.3 1.8-.8 2.6s-1.2 1.4-2.1 1.7c1.2.4 2.2 1 2.8 1.8.7.8 1 1.8 1 3 0 .9-.2 1.8-.6 2.6s-1 1.5-1.7 2-1.6.8-2.7.9c-.7.1-2.3.1-4.9.1H10V71.2zm4.1 3.3v4.6h2.6c1.6 0 2.5 0 2.9-.1.7-.1 1.2-.3 1.6-.7s.6-.9.6-1.5-.2-1.1-.5-1.5c-.3-.4-.8-.6-1.5-.7-.4 0-1.5-.1-3.4-.1h-2.3zm0 7.9v5.3h3.7c1.5 0 2.4 0 2.8-.1.6-.1 1.1-.4 1.5-.8.4-.4.6-1 .6-1.7 0-.6-.1-1.1-.4-1.5-.3-.4-.7-.7-1.3-.9-.5-.2-1.7-.3-3.6-.3h-3.3zm34.1 8.7h-4.4l-1.7-4.5h-8l-1.6 4.5h-4.3L36 71.2h4.3l8 19.9zm-7.4-7.9l-2.8-7.4-2.7 7.4h5.5zm11.9 7.9V74.6h-5.9v-3.4h15.9v3.4h-5.9v16.5h-4.1z" fill="#4c6c7b"/><linearGradient id="b" gradientUnits="userSpaceOnUse" x1="36.75" y1="64" x2="36.75" y2="17.5"><stop offset="0" stop-color="#adccdc"/><stop offset="1" stop-color="#4c6c7b"/></linearGradient><path d="M60 17.5H13.5V64H60V17.5zm-37.2 9.3h-4.6v-4.6h4.6v4.6zm32.5 0H27.5v-4.6h27.9v4.6zm0 32.5H18.1V31.5h37.2v27.8z" fill="url(#b)"/><linearGradient id="c" gradientUnits="userSpaceOnUse" x1="28.109" y1="52.694" x2="28.109" y2="35.456"><stop offset="0" stop-color="#adccdc"/><stop offset="1" stop-color="#4c6c7b"/></linearGradient><path d="M25.4 35.5l-3.2 3.2 5.3 5.4-5.3 5.3 3.2 3.3 8.7-8.6z" fill="url(#c)"/><linearGradient id="d" gradientUnits="userSpaceOnUse" x1="37.75" y1="55.7" x2="37.75" y2="51.05"><stop offset="0" stop-color="#adccdc"/><stop offset="1" stop-color="#4c6c7b"/></linearGradient><path d="M33.1 51h9.3v4.7h-9.3z" fill="url(#d)"/><linearGradient id="e" gradientUnits="userSpaceOnUse" x1="45.122" y1="74.229" x2="58.575" y2="87.683" gradientTransform="matrix(1 0 0 -1 0 102)"><stop offset="0" stop-color="#fff"/><stop offset=".35" stop-color="#fafbfb"/><stop offset=".532" stop-color="#edf1f4"/><stop offset=".675" stop-color="#dde5e9"/><stop offset=".799" stop-color="#c7d3da"/><stop offset=".908" stop-color="#adbdc7"/><stop offset="1" stop-color="#92a5b0"/></linearGradient><path d="M45.1 1L72 27.7H45.1V1z" fill="url(#e)"/><path d="M45.1 1L72 27.7H45.1V1z" fill-opacity="0" stroke="#7191a1" stroke-width="2" stroke-linejoin="bevel"/></svg>