<svg xmlns="http://www.w3.org/2000/svg" viewBox="0 0 72 100"><linearGradient id="a" gradientUnits="userSpaceOnUse" x1="36" y1="2.265" x2="36" y2="100.25" gradientTransform="matrix(1 0 0 -1 0 101)"><stop offset="0" stop-color="#c8d4db"/><stop offset=".139" stop-color="#d8e1e6"/><stop offset=".359" stop-color="#ebf0f3"/><stop offset=".617" stop-color="#f9fafb"/><stop offset="1" stop-color="#fff"/></linearGradient><path d="M45 .8l27 26.7v71.3H0V.8h45z" fill="url(#a)"/><path d="M45 .8l27 26.7v71.3H0V.8h45z" fill-opacity="0" stroke="#7191a1" stroke-width="2"/><path d="M13 85.9l2.1.7c-.3 1.2-.9 2-1.6 2.6-.8.6-1.7.9-2.9.9C9.1 90 8 89.5 7 88.5c-.9-1-1.4-2.3-1.4-4 0-1.8.5-3.2 1.4-4.2.9-1 2.2-1.5 3.7-1.5 1.3 0 2.4.4 3.2 1.2.5.5.9 1.1 1.1 2l-2.2.5c-.1-.6-.4-1-.8-1.3-.4-.3-.9-.5-1.5-.5-.8 0-1.5.3-2 .9-.5.6-.8 1.5-.8 2.8 0 1.4.2 2.3.7 2.9s1.1.9 1.9.9c.6 0 1.1-.2 1.5-.5.7-.5 1-1 1.2-1.8zm3.4.4l2.1-.2c.1.7.4 1.2.8 1.6s.9.5 1.6.5c.7 0 1.2-.1 1.6-.4.4-.3.5-.6.5-1 0-.3-.1-.5-.2-.6-.2-.2-.4-.3-.8-.5-.3-.1-.8-.2-1.8-.5-1.2-.3-2-.6-2.5-1.1-.7-.6-1-1.3-1-2.2 0-.5.2-1.1.5-1.5.3-.5.8-.8 1.4-1.1.6-.2 1.3-.4 2.1-.4 1.4 0 2.4.3 3.1.9.7.6 1 1.4 1.1 2.4l-2.2.1c-.1-.6-.3-.9-.6-1.2-.3-.2-.8-.4-1.4-.4-.6 0-1.1.1-1.5.4-.2.2-.3.4-.3.7 0 .3.1.5.3.7.3.2.9.5 2 .7 1.1.2 1.9.5 2.4.8.5.3.9.6 1.2 1.1.3.5.4 1 .4 1.7 0 .6-.2 1.2-.5 1.7s-.8.9-1.5 1.2c-.6.3-1.4.4-2.4.4-1.4 0-2.4-.3-3.2-.9-.6-.8-1-1.7-1.2-2.9zm10.7 3.5V79.1h3.5c1.3 0 2.2.1 2.6.2.6.2 1.1.5 1.6 1.1.4.5.6 1.2.6 2.1 0 .7-.1 1.2-.4 1.7-.2.4-.5.8-.9 1.1-.4.3-.8.4-1.1.5-.5.1-1.3.2-2.3.2h-1.4v4.1h-2.2zm2.2-8.9v3h1.2c.9 0 1.4-.1 1.7-.2.3-.1.5-.3.7-.5.2-.2.2-.5.2-.8 0-.4-.1-.7-.3-1s-.5-.4-.9-.4c-.3 0-.8-.1-1.6-.1h-1zm7.9 8.9V79.1h4.6c1.2 0 2 .1 2.5.3.5.2.9.5 1.3 1 .3.5.5 1.1.5 1.7 0 .8-.2 1.5-.7 2-.5.5-1.2.9-2.1 1 .5.3.9.6 1.2.9.3.3.7.9 1.2 1.7l1.3 2.1h-2.6l-1.6-2.3c-.6-.8-.9-1.4-1.2-1.6-.2-.2-.4-.4-.7-.4-.2-.1-.6-.1-1.1-.1h-.4v4.5h-2.2zm2.2-6.2H41c1.1 0 1.7 0 2-.1s.5-.2.6-.5c.1-.2.2-.5.2-.8 0-.4-.1-.7-.3-.9-.2-.2-.5-.4-.8-.4h-3.3v2.7zm8.3.9c0-1.1.2-2 .5-2.8.2-.5.6-1 1-1.5.4-.4.9-.8 1.4-1 .7-.3 1.5-.4 2.3-.4 1.6 0 2.9.5 3.8 1.5 1 1 1.4 2.3 1.4 4.1 0 1.7-.5 3.1-1.4 4.1-1 1-2.2 1.5-3.8 1.5-1.6 0-2.9-.5-3.8-1.5-.9-.9-1.4-2.3-1.4-4zm2.2-.1c0 1.2.3 2.1.9 2.8.6.6 1.3.9 2.2.9s1.6-.3 2.1-.9c.6-.6.8-1.6.8-2.8 0-1.2-.3-2.1-.8-2.8-.5-.6-1.3-.9-2.2-.9-.9 0-1.6.3-2.2.9-.5.7-.8 1.6-.8 2.8zm13.9-5.3H66v6.8c0 .9-.1 1.6-.2 2.1-.2.6-.6 1.1-1.2 1.5-.6.4-1.3.6-2.2.6-1.1 0-1.9-.3-2.5-.9-.6-.6-.9-1.5-.9-2.6l2.1-.2c0 .6.1 1.1.3 1.3.2.4.6.6 1.1.6.5 0 .8-.1 1-.4.2-.3.3-.8.3-1.7v-7.1z" fill="#4c6c7b"/><linearGradient id="b" gradientUnits="userSpaceOnUse" x1="35.619" y1="64.5" x2="35.619" y2="18.906"><stop offset="0" stop-color="#adccdc"/><stop offset="1" stop-color="#4c6c7b"/></linearGradient><path d="M28.2 44.6c-1.4 1-2.7 2.1-4 3.1-2.7 2-5.3 4.1-8 6.1-.4.3-.6.3-1 .1-.5-.3-1.1-.6-1.7-.9-.3-.2-.4-.4-.4-.7V31.1c0-.2.2-.6.4-.7.6-.4 1.3-.7 1.9-1 .3-.2.6 0 .9.2 2.2 1.7 4.4 3.4 6.6 5 1.8 1.4 3.6 2.8 5.4 4.1.1-.1.3-.2.4-.3 6.6-6.4 13.2-12.8 19.7-19.2.3-.3.6-.4 1-.2 2.8 1.1 5.6 2.2 8.4 3.4.2.1.4.4.5.6.1.1 0 .3 0 .5V60c0 .9 0 .9-.9 1.2-2.7 1.1-5.3 2.1-7.9 3.2-.5.2-.8.1-1.1-.2-6.5-6.4-13-12.7-19.6-19l-.6-.6zm19 5.8V33c-3.9 2.9-7.7 5.8-11.6 8.7 3.9 2.9 7.7 5.8 11.6 8.7zm-24.3-8.7c-1.9-1.7-3.8-3.4-5.8-5.2v10.4c1.9-1.7 3.8-3.5 5.8-5.2z" fill="url(#b)"/><linearGradient id="c" gradientUnits="userSpaceOnUse" x1="45.069" y1="73.457" x2="58.569" y2="86.957" gradientTransform="matrix(1 0 0 -1 0 101)"><stop offset="0" stop-color="#fff"/><stop offset=".35" stop-color="#fafbfb"/><stop offset=".532" stop-color="#edf1f4"/><stop offset=".675" stop-color="#dde5e9"/><stop offset=".799" stop-color="#c7d3da"/><stop offset=".908" stop-color="#adbdc7"/><stop offset="1" stop-color="#92a5b0"/></linearGradient><path d="M45 .8l27 26.7H45V.8z" fill="url(#c)"/><path d="M45 .8l27 26.7H45V.8z" fill-opacity="0" stroke="#7191a1" stroke-width="2" stroke-linejoin="bevel"/></svg>