<svg xmlns="http://www.w3.org/2000/svg" viewBox="0 0 72 100"><linearGradient id="a" gradientUnits="userSpaceOnUse" x1="36" y1="97" x2="36" y2="-1" gradientTransform="translate(0 2)"><stop offset="0" stop-color="#c8d4db"/><stop offset=".139" stop-color="#d8e1e6"/><stop offset=".359" stop-color="#ebf0f3"/><stop offset=".617" stop-color="#f9fafb"/><stop offset="1" stop-color="#fff"/></linearGradient><path d="M45 1l27 26.7V99H0V1h45z" fill="url(#a)"/><path d="M45 1l27 26.7V99H0V1h45z" fill-opacity="0" stroke="#7191a1" stroke-width="2"/><g opacity=".9"><linearGradient id="b" gradientUnits="userSpaceOnUse" x1="19.014" y1="60.793" x2="19.014" y2="32.603"><stop offset="0" stop-color="#adccdc"/><stop offset=".153" stop-color="#9ab9c9"/><stop offset=".529" stop-color="#708f9f"/><stop offset=".824" stop-color="#567685"/><stop offset="1" stop-color="#4c6c7b"/></linearGradient><linearGradient id="c" gradientUnits="userSpaceOnUse" x1="19.014" y1="62.979" x2="19.014" y2="30.418"><stop offset="0" stop-color="#adccdc"/><stop offset=".153" stop-color="#9ab9c9"/><stop offset=".529" stop-color="#708f9f"/><stop offset=".824" stop-color="#567685"/><stop offset="1" stop-color="#4c6c7b"/></linearGradient><path d="M12 44.7l14-12.1v6.1l-9.5 7.9v.1l9.5 7.9v6.1l-14-12v-4z" fill="url(#b)" stroke="url(#c)" stroke-width="2" stroke-miterlimit="10"/><linearGradient id="d" gradientUnits="userSpaceOnUse" x1="36.686" y1="64.5" x2="36.686" y2="29.5"><stop offset="0" stop-color="#adccdc"/><stop offset=".153" stop-color="#9ab9c9"/><stop offset=".529" stop-color="#708f9f"/><stop offset=".824" stop-color="#567685"/><stop offset="1" stop-color="#4c6c7b"/></linearGradient><linearGradient id="e" gradientUnits="userSpaceOnUse" x1="36.688" y1="65.5" x2="36.688" y2="28.5"><stop offset="0" stop-color="#adccdc"/><stop offset=".153" stop-color="#9ab9c9"/><stop offset=".529" stop-color="#708f9f"/><stop offset=".824" stop-color="#567685"/><stop offset="1" stop-color="#4c6c7b"/></linearGradient><path d="M38.4 29.5h3.7l-7.2 35h-3.6l7.1-35z" fill="url(#d)" stroke="url(#e)" stroke-width="2" stroke-miterlimit="10"/><linearGradient id="f" gradientUnits="userSpaceOnUse" x1="54.186" y1="61.052" x2="54.186" y2="32.69"><stop offset="0" stop-color="#adccdc"/><stop offset=".153" stop-color="#9ab9c9"/><stop offset=".529" stop-color="#708f9f"/><stop offset=".824" stop-color="#567685"/><stop offset="1" stop-color="#4c6c7b"/></linearGradient><linearGradient id="g" gradientUnits="userSpaceOnUse" x1="54.186" y1="63.238" x2="54.186" y2="30.504"><stop offset="0" stop-color="#adccdc"/><stop offset=".153" stop-color="#9ab9c9"/><stop offset=".529" stop-color="#708f9f"/><stop offset=".824" stop-color="#567685"/><stop offset="1" stop-color="#4c6c7b"/></linearGradient><path d="M47.2 54.8l9.5-7.9v-.1l-9.5-7.9v-6.1l14 12.1V49l-14 12.1v-6.3z" fill="url(#f)" stroke="url(#g)" stroke-width="2" stroke-miterlimit="10"/></g><linearGradient id="h" gradientUnits="userSpaceOnUse" x1="45.037" y1="25.813" x2="58.537" y2="12.313" gradientTransform="translate(0 2)"><stop offset="0" stop-color="#fff"/><stop offset=".35" stop-color="#fafbfb"/><stop offset=".532" stop-color="#edf1f4"/><stop offset=".675" stop-color="#dde5e9"/><stop offset=".799" stop-color="#c7d3da"/><stop offset=".908" stop-color="#adbdc7"/><stop offset="1" stop-color="#92a5b0"/></linearGradient><path d="M45 1l27 26.7H45V1z" fill="url(#h)"/><path d="M45 1l27 26.7H45V1z" fill-opacity="0" stroke="#7191a1" stroke-width="2" stroke-linejoin="bevel"/><path d="M12.3 75.8h5.9c1.3 0 2.3.1 3 .3.9.3 1.7.8 2.4 1.5s1.2 1.5 1.5 2.6c.3 1 .5 2.2.5 3.7 0 1.3-.2 2.4-.5 3.4-.4 1.1-1 2.1-1.7 2.8-.6.5-1.3 1-2.3 1.3-.7.2-1.7.3-2.8.3h-6V75.8zm3.2 2.7v10.4h2.4c.9 0 1.5 0 1.9-.2.5-.1 1-.3 1.3-.7s.6-.8.8-1.5c.2-.7.3-1.7.3-2.9s-.1-2.2-.3-2.8c-.2-.7-.5-1.2-.9-1.5-.4-.4-.9-.6-1.5-.7-.4-.1-1.3-.2-2.6-.2h-1.4zm12.8 13V75.8h3.2v15.7h-3.2zm5.4-5.1l3.1-.3c.2 1 .6 1.8 1.1 2.3s1.4.7 2.3.7c1 0 1.8-.2 2.3-.7.5-.4.8-.9.8-1.5 0-.4-.1-.7-.3-1-.2-.3-.6-.5-1.2-.7-.4-.1-1.2-.4-2.6-.7-1.7-.4-2.9-.9-3.6-1.6-1-.9-1.5-1.9-1.5-3.2 0-.8.2-1.6.7-2.2.5-.7 1.1-1.2 2-1.6.9-.4 1.9-.5 3.1-.5 2 0 3.5.4 4.5 1.3s1.5 2 1.6 3.5l-3 .2c-.1-.8-.4-1.4-.9-1.7-.5-.4-1.1-.5-2-.5-.9 0-1.7.2-2.2.6-.3.2-.5.6-.5 1s.2.7.5 1c.4.3 1.4.7 3 1.1s2.7.7 3.5 1.1c.7.4 1.3.9 1.8 1.6.4.7.6 1.5.6 2.5 0 .9-.3 1.7-.8 2.5s-1.2 1.4-2.1 1.8c-.9.4-2.1.6-3.5.6-2 0-3.6-.5-4.6-1.4-1.2-1.1-1.9-2.4-2.1-4.2zm19.2 5.1v-13h-4.7v-2.7h12.6v2.7h-4.7v13.1h-3.2z" fill="#4c6c7b"/></svg>