<svg xmlns="http://www.w3.org/2000/svg" viewBox="0 0 72 100"><linearGradient id="a" gradientUnits="userSpaceOnUse" x1="36.108" y1="3.003" x2="36.108" y2="101.001" gradientTransform="matrix(1 0 0 -1 0 102)"><stop offset="0" stop-color="#c8d4db"/><stop offset=".139" stop-color="#d8e1e6"/><stop offset=".359" stop-color="#ebf0f3"/><stop offset=".617" stop-color="#f9fafb"/><stop offset="1" stop-color="#fff"/></linearGradient><path d="M45.1 1L72 27.7V99H.2V1h44.9z" fill="url(#a)"/><path d="M45.1 1L72 27.7V99H.2V1h44.9z" fill-opacity="0" stroke="#7191a1" stroke-width="2"/><path d="M9.5 71.2h7.4c1.7 0 2.9.1 3.8.4 1.2.3 2.2 1 3 1.8.8.9 1.5 1.9 1.9 3.2s.7 2.8.7 4.7c0 1.6-.2 3-.6 4.2-.5 1.4-1.2 2.6-2.1 3.5-.7.7-1.6 1.2-2.8 1.6-.9.3-2.1.4-3.6.4H9.5V71.2zm4.1 3.4v13.1h3c1.1 0 1.9-.1 2.4-.2.7-.2 1.2-.4 1.6-.8.4-.4.8-1 1.1-1.9s.4-2.1.4-3.6-.1-2.7-.4-3.5-.7-1.5-1.1-1.9c-.5-.5-1.1-.8-1.9-.9-.6-.1-1.7-.2-3.3-.2h-1.8zm20.6 16.5V74.6h-5.9v-3.4h15.9v3.4h-5.9v16.5h-4.1zm12.5-19.9h7.4c1.7 0 2.9.1 3.8.4 1.2.3 2.2 1 3 1.8s1.5 1.9 1.9 3.2c.4 1.3.7 2.8.7 4.7 0 1.6-.2 3-.6 4.2-.5 1.4-1.2 2.6-2.1 3.5-.7.7-1.6 1.2-2.8 1.6-.9.3-2.1.4-3.6.4h-7.6V71.2zm4.1 3.4v13.1h3c1.1 0 1.9-.1 2.4-.2.7-.2 1.2-.4 1.6-.8s.8-1 1.1-1.9.4-2.1.4-3.6-.1-2.7-.4-3.5-.7-1.5-1.1-1.9c-.5-.5-1.1-.8-1.9-.9-.6-.1-1.7-.2-3.3-.2h-1.8z" fill="#4c6c7b"/><linearGradient id="b" gradientUnits="userSpaceOnUse" x1="12.784" y1="34.27" x2="29.899" y2="34.27"><stop offset="0" stop-color="#ccdde7"/><stop offset=".265" stop-color="#b5ccd8"/><stop offset=".798" stop-color="#7fa0b1"/><stop offset="1" stop-color="#6a8fa1"/></linearGradient><linearGradient id="c" gradientUnits="userSpaceOnUse" x1="12.034" y1="34.27" x2="30.649" y2="34.27"><stop offset="0" stop-color="#ccdde7"/><stop offset=".265" stop-color="#b5ccd8"/><stop offset=".798" stop-color="#7fa0b1"/><stop offset="1" stop-color="#6a8fa1"/></linearGradient><path d="M29.9 40.8L17 34.3v-.1l12.9-6.4v-4.4l-17.1 9.1V36l17.1 9.1z" stroke-width="1.5" stroke-miterlimit="10" fill="url(#b)" stroke="url(#c)"/><linearGradient id="d" gradientUnits="userSpaceOnUse" x1="33.898" y1="29.46" x2="39.568" y2="29.46"><stop offset="0" stop-color="#ccdde7"/><stop offset=".265" stop-color="#b5ccd8"/><stop offset=".798" stop-color="#7fa0b1"/><stop offset="1" stop-color="#6a8fa1"/></linearGradient><linearGradient id="e" gradientUnits="userSpaceOnUse" x1="33.106" y1="29.46" x2="40.358" y2="29.46"><stop offset="0" stop-color="#ccdde7"/><stop offset=".265" stop-color="#b5ccd8"/><stop offset=".798" stop-color="#7fa0b1"/><stop offset="1" stop-color="#6a8fa1"/></linearGradient><path d="M38.8 37l.8-15h-5.7l.8 15z" fill="url(#d)" stroke="url(#e)" stroke-width="1.5" stroke-miterlimit="10"/><linearGradient id="f" gradientUnits="userSpaceOnUse" x1="33.54" y1="42.711" x2="39.924" y2="42.711"><stop offset="0" stop-color="#ccdde7"/><stop offset=".265" stop-color="#b5ccd8"/><stop offset=".798" stop-color="#7fa0b1"/><stop offset="1" stop-color="#6a8fa1"/></linearGradient><linearGradient id="g" gradientUnits="userSpaceOnUse" x1="32.79" y1="42.711" x2="40.674" y2="42.711"><stop offset="0" stop-color="#ccdde7"/><stop offset=".265" stop-color="#b5ccd8"/><stop offset=".798" stop-color="#7fa0b1"/><stop offset="1" stop-color="#6a8fa1"/></linearGradient><path d="M36.8 46.4c1.9 0 3.2-1.6 3.2-3.7 0-2.2-1.3-3.7-3.2-3.7-1.9 0-3.2 1.5-3.2 3.7-.1 2.1 1.2 3.7 3.2 3.7z" fill="url(#f)" stroke="url(#g)" stroke-width="1.5" stroke-miterlimit="10"/><linearGradient id="h" gradientUnits="userSpaceOnUse" x1="43.598" y1="34.27" x2="60.716" y2="34.27"><stop offset="0" stop-color="#ccdde7"/><stop offset=".265" stop-color="#b5ccd8"/><stop offset=".798" stop-color="#7fa0b1"/><stop offset="1" stop-color="#6a8fa1"/></linearGradient><linearGradient id="i" gradientUnits="userSpaceOnUse" x1="42.848" y1="34.27" x2="61.466" y2="34.27"><stop offset="0" stop-color="#ccdde7"/><stop offset=".265" stop-color="#b5ccd8"/><stop offset=".798" stop-color="#7fa0b1"/><stop offset="1" stop-color="#6a8fa1"/></linearGradient><path d="M43.6 23.4v4.4l13.2 6.4v.1l-13.2 6.5v4.3l17.1-9v-3.7z" fill="url(#h)" stroke="url(#i)" stroke-width="1.5" stroke-miterlimit="10"/><linearGradient id="j" gradientUnits="userSpaceOnUse" x1="15.302" y1="52.394" x2="58.23" y2="52.394"><stop offset="0" stop-color="#ccdde7"/><stop offset=".265" stop-color="#b5ccd8"/><stop offset=".798" stop-color="#7fa0b1"/><stop offset="1" stop-color="#6a8fa1"/></linearGradient><linearGradient id="k" gradientUnits="userSpaceOnUse" x1="14.552" y1="52.394" x2="58.98" y2="52.394"><stop offset="0" stop-color="#ccdde7"/><stop offset=".265" stop-color="#b5ccd8"/><stop offset=".798" stop-color="#7fa0b1"/><stop offset="1" stop-color="#6a8fa1"/></linearGradient><path d="M15.3 50.9h42.9v2.9H15.3z" fill="url(#j)" stroke="url(#k)" stroke-width="1.5" stroke-miterlimit="10"/><linearGradient id="l" gradientUnits="userSpaceOnUse" x1="15.302" y1="60.674" x2="58.23" y2="60.674"><stop offset="0" stop-color="#ccdde7"/><stop offset=".265" stop-color="#b5ccd8"/><stop offset=".798" stop-color="#7fa0b1"/><stop offset="1" stop-color="#6a8fa1"/></linearGradient><linearGradient id="m" gradientUnits="userSpaceOnUse" x1="14.552" y1="60.674" x2="58.98" y2="60.674"><stop offset="0" stop-color="#ccdde7"/><stop offset=".265" stop-color="#b5ccd8"/><stop offset=".798" stop-color="#7fa0b1"/><stop offset="1" stop-color="#6a8fa1"/></linearGradient><path d="M15.3 59.2h42.9v2.9H15.3z" fill="url(#l)" stroke="url(#m)" stroke-width="1.5" stroke-miterlimit="10"/><linearGradient id="n" gradientUnits="userSpaceOnUse" x1="45.122" y1="74.229" x2="58.575" y2="87.683" gradientTransform="matrix(1 0 0 -1 0 102)"><stop offset="0" stop-color="#fff"/><stop offset=".35" stop-color="#fafbfb"/><stop offset=".532" stop-color="#edf1f4"/><stop offset=".675" stop-color="#dde5e9"/><stop offset=".799" stop-color="#c7d3da"/><stop offset=".908" stop-color="#adbdc7"/><stop offset="1" stop-color="#92a5b0"/></linearGradient><path d="M45.1 1L72 27.7H45.1V1z" fill="url(#n)"/><path d="M45.1 1L72 27.7H45.1V1z" fill-opacity="0" stroke="#7191a1" stroke-width="2" stroke-linejoin="bevel"/></svg>