<svg xmlns="http://www.w3.org/2000/svg" viewBox="0 0 72 100"><linearGradient id="a" gradientUnits="userSpaceOnUse" x1="36" y1="101" x2="36" y2="3.004" gradientTransform="matrix(1 0 0 -1 0 102)"><stop offset="0" stop-color="#f8b0b8"/><stop offset=".211" stop-color="#f6acb5"/><stop offset=".37" stop-color="#f2a3ad"/><stop offset=".512" stop-color="#ed95a1"/><stop offset=".645" stop-color="#e78292"/><stop offset=".77" stop-color="#e06980"/><stop offset=".889" stop-color="#d7486b"/><stop offset="1" stop-color="#ce0757"/></linearGradient><path d="M45.1 1l27.2 26.7V99H-.2V1h45.3z" fill="url(#a)"/><path d="M45.1 1l27.2 26.7V99H-.2V1h45.3z" fill-opacity="0" stroke="#d41c5c" stroke-width="2"/><path d="M11 91.1V71.2h13.8v3.4H15v4.7h8.4v3.4H15v8.4h-4zm33.9 0h-4.4l-1.8-4.5h-8.1l-1.7 4.5h-4.3l7.9-19.8h4.3l8.1 19.8zm-7.5-7.9l-2.8-7.4-2.7 7.4h5.5zm7.6 7.9l6.9-10.4-6.2-9.5h4.8l4 6.4 4-6.4h4.7l-6.3 9.6L63.8 91h-4.9l-4.5-6.9-4.5 6.9H45z" fill="#fff"/><linearGradient id="b" gradientUnits="userSpaceOnUse" x1="45.178" y1="74.159" x2="58.772" y2="87.753" gradientTransform="matrix(1 0 0 -1 0 102)"><stop offset="0" stop-color="#fffeee"/><stop offset=".265" stop-color="#fffaec"/><stop offset=".402" stop-color="#fef2e6"/><stop offset=".51" stop-color="#fce7dc"/><stop offset=".604" stop-color="#fad7cf"/><stop offset=".687" stop-color="#f6c3bf"/><stop offset=".763" stop-color="#f2abac"/><stop offset=".834" stop-color="#ee8f97"/><stop offset=".901" stop-color="#ea6f82"/><stop offset=".962" stop-color="#e5446d"/><stop offset="1" stop-color="#e30e60"/></linearGradient><path d="M45.1 1l27.2 26.7H45.1V1z" fill="url(#b)"/><path d="M45.1 1l27.2 26.7H45.1V1z" fill-opacity="0" stroke="#d41c5c" stroke-width="2" stroke-linejoin="bevel"/><linearGradient id="c" gradientUnits="userSpaceOnUse" x1="57.718" y1="58.463" x2="20.542" y2="31.568" gradientTransform="matrix(-1 0 0 1 73.572 0)"><stop offset="0" stop-color="#ee2868"/><stop offset="1" stop-color="#bc024f"/></linearGradient><path d="M41.7 35.1h-2.4c-.3 0-.5-.2-.5-.5v-11H28.5v4.5c0 .9-.7 1.6-1.6 1.6h-4.5v4.9c0 .3-.2.5-.5.5h-2.4c-.3 0-.5-.2-.5-.5v-7.3l7.2-7.2H40c1.2 0 2.2 1 2.3 2.2v12.3c-.1.3-.3.5-.6.5zm.5 26c0 .5-.4.9-.9.9H20.6c-2.4 0-4.3-1.9-4.3-4.3V39.4c0-.5.4-.9.9-.9h24.2c.5 0 .9.4.9.9v21.7h-.1zm-17-16.9c0-1-.8-1.8-1.8-1.8s-1.8.8-1.8 1.8.8 1.8 1.8 1.8 1.8-.8 1.8-1.8zm0 6c0-1-.8-1.8-1.8-1.8s-1.8.8-1.8 1.8.8 1.8 1.8 1.8c1 .1 1.8-.7 1.8-1.8 0 .1 0 0 0 0zm4.2-7.8c-1 0-1.8.8-1.8 1.8s.8 1.8 1.8 1.8 1.8-.8 1.8-1.8-.8-1.8-1.8-1.8zm1.8 7.8c0-1-.8-1.8-1.8-1.8s-1.8.8-1.8 1.8.8 1.8 1.8 1.8c1 .1 1.8-.7 1.8-1.8zm0 6.1c0-1-.8-1.8-1.8-1.8s-1.8.8-1.8 1.8.8 1.8 1.8 1.8 1.8-.8 1.8-1.8zm4.2-13.9c-1 0-1.8.8-1.8 1.8s.8 1.8 1.8 1.8 1.8-.8 1.8-1.8-.8-1.8-1.8-1.8zm1.8 7.8c0-1-.8-1.8-1.8-1.8s-1.8.8-1.8 1.8.8 1.8 1.8 1.8c1 .1 1.9-.7 1.8-1.8zm.1 6.1c0-1-.8-1.8-1.8-1.8s-1.8.8-1.8 1.8.8 1.8 1.8 1.8c.9 0 1.7-.8 1.8-1.8zm19.4 1.3V38.4c0-3-2.5-5.5-5.5-5.5h-4.6c-.5 0-.9.4-.9.9v27.3c0 .5.4.9.9.9h5.8c2.4 0 4.3-2 4.3-4.4z" fill="url(#c)"/></svg>