<svg xmlns="http://www.w3.org/2000/svg" viewBox="0 0 72 100"><linearGradient id="a" gradientUnits="userSpaceOnUse" x1="36" y1="97.8" x2="36" y2="-.2" gradientTransform="translate(0 1)"><stop offset="0" stop-color="#c8d4db"/><stop offset=".139" stop-color="#d8e1e6"/><stop offset=".359" stop-color="#ebf0f3"/><stop offset=".617" stop-color="#f9fafb"/><stop offset="1" stop-color="#fff"/></linearGradient><path d="M45 .8l27 26.7v71.3H0V.8h45z" fill="url(#a)"/><path d="M45 .8l27 26.7v71.3H0V.8h45z" fill-opacity="0" stroke="#7191a1" stroke-width="2"/><linearGradient id="b" gradientUnits="userSpaceOnUse" x1="45.075" y1="26.575" x2="58.575" y2="13.075" gradientTransform="translate(0 1)"><stop offset="0" stop-color="#fff"/><stop offset=".35" stop-color="#fafbfb"/><stop offset=".532" stop-color="#edf1f4"/><stop offset=".675" stop-color="#dde5e9"/><stop offset=".799" stop-color="#c7d3da"/><stop offset=".908" stop-color="#adbdc7"/><stop offset="1" stop-color="#92a5b0"/></linearGradient><path d="M45 .8l27 26.7H45V.8z" fill="url(#b)"/><path d="M45 .8l27 26.7H45V.8z" fill-opacity="0" stroke="#7191a1" stroke-width="2" stroke-linejoin="bevel"/><g opacity=".93"><linearGradient id="c" gradientUnits="userSpaceOnUse" x1="37" y1="67.489" x2="37" y2="55.312"><stop offset="0" stop-color="#adccdc"/><stop offset="1" stop-color="#4c6c7b"/></linearGradient><path d="M30.4 55.3c1.7-.1 3.5.5 4.9 1.7.7.6 1.2 1.2 1.7 2.1.8-1.4 2.1-2.6 3.6-3.1 1.9-.7 4-.7 5.9 0 1.7.7 3.1 1.6 4.4 2.8 1 .9 2 1.9 3.1 2.7.6.5 1.2.8 1.8 1.1.9.3 2 0 2.6-.7.6-.7.6-1.7-.1-2.4-.4-.3-1-.3-1.4.1 0 0 0 .1-.1.1-.2.4-.2.9.1 1.2-.6-.3-1-1-1.1-1.7-.1-.8.5-1.6 1.2-1.8 1.5-.6 3.2-.1 4.1 1.2.7 1.2 1.1 2.7.8 4.1-.2 1.3-.9 2.6-2.1 3.4-1.6 1.1-3.5 1.6-5.4 1.4-1.8-.1-3.6-.4-5.3-1.2-2.8-1.2-5.4-2.6-8.3-3.6-1-.2-2.1-.5-3.1-.7h-2.3c-.9.1-1.9.3-2.7.7-3 .9-5.6 2.5-8.4 3.6-2.4 1-5 1.3-7.6.8-1.5-.2-2.8-1-3.8-2.1-.8-1-1.2-2.2-1.2-3.5-.1-1.2.2-2.4 1-3.4.7-.9 1.9-1.3 3.1-1.2.7 0 1.4.3 1.9.9.3.5.4 1.1.2 1.7-.2.5-.6.9-1 1.2.2-.3.3-.8.1-1.2-.3-.4-.9-.6-1.4-.2-.1 0-.1.1-.2.1-.5.6-.6 1.3-.2 2 .4.7 1.1 1.1 1.8 1.2 1.1 0 2.1-.5 2.9-1.2 1.6-1.6 3.3-3 5-4.3 1.8-1.1 3.6-1.7 5.5-1.8z" fill="url(#c)"/><linearGradient id="d" gradientUnits="userSpaceOnUse" x1="37" y1="49.488" x2="37" y2="37.311"><stop offset="0" stop-color="#adccdc"/><stop offset="1" stop-color="#4c6c7b"/></linearGradient><path d="M30.4 37.3c1.7-.1 3.5.5 4.9 1.7.7.6 1.2 1.2 1.7 2.1.8-1.4 2.1-2.6 3.6-3.1 1.9-.7 4-.7 5.9 0 1.7.7 3.1 1.6 4.4 2.8 1 .9 2 1.9 3.1 2.7.6.5 1.2.8 1.8 1.1.9.3 2 0 2.6-.7.6-.7.6-1.7-.1-2.4-.4-.3-1-.3-1.4.1 0 0 0 .1-.1.1-.2.4-.2.9.1 1.2-.6-.3-1-1-1.1-1.7-.1-.8.5-1.6 1.2-1.8 1.5-.6 3.2-.1 4.1 1.2.7 1.2 1.1 2.7.8 4.1-.2 1.3-.9 2.6-2.1 3.4-1.6 1.1-3.5 1.6-5.4 1.4-1.8-.1-3.6-.4-5.3-1.2-2.8-1.2-5.4-2.6-8.3-3.6-1-.2-2.1-.5-3.1-.7h-2.3c-.9.1-1.9.3-2.7.7-3 .9-5.6 2.5-8.4 3.6-2.4 1-5 1.3-7.6.8-1.5-.2-2.8-1-3.8-2.1-.8-1-1.2-2.2-1.2-3.5-.1-1.2.2-2.4 1-3.4.7-.9 1.9-1.3 3.1-1.2.7 0 1.4.3 1.9.9.3.5.4 1.1.2 1.7-.2.5-.6.9-1 1.2.2-.3.3-.8.1-1.2-.3-.4-.9-.6-1.4-.2-.1 0-.1.1-.2.1-.5.6-.6 1.3-.2 2 .4.7 1.1 1.1 1.8 1.2 1.1 0 2.1-.5 2.9-1.2 1.6-1.6 3.3-3 5-4.3 1.8-1.1 3.6-1.7 5.5-1.8z" fill="url(#d)"/></g></svg>