<svg xmlns="http://www.w3.org/2000/svg" viewBox="0 0 72 100"><linearGradient id="a" gradientUnits="userSpaceOnUse" x1="36.108" y1="3.003" x2="36.108" y2="101.001" gradientTransform="matrix(1 0 0 -1 0 102)"><stop offset="0" stop-color="#c8d4db"/><stop offset=".139" stop-color="#d8e1e6"/><stop offset=".359" stop-color="#ebf0f3"/><stop offset=".617" stop-color="#f9fafb"/><stop offset="1" stop-color="#fff"/></linearGradient><path d="M45.1 1L72 27.7V99H.2V1h44.9z" fill="url(#a)"/><path d="M45.1 1L72 27.7V99H.2V1h44.9z" fill-opacity="0" stroke="#7191a1" stroke-width="2"/><linearGradient id="b" gradientUnits="userSpaceOnUse" x1="36" y1="55.971" x2="36" y2="30.029"><stop offset="0" stop-color="#adccdc"/><stop offset="1" stop-color="#4c6c7b"/></linearGradient><path d="M38.3 30a2.732 2.732 0 0 0-2.7 2.7 2.732 2.732 0 0 0 2.7 2.7 2.732 2.732 0 0 0 2.7-2.7 2.732 2.732 0 0 0-2.7-2.7zm1.1 8.5l-.1.2h.1v-.2zm-.1.2c-2.4.3-4.8.5-7.2.9l-.2 1.1h.7c.4 0 .7.1 1 .3.2.2.3.4.3.7 0 .4-.1.6-.4 1.5L31 52c-.2.7-.3 1.3-.3 1.7 0 .7.2 1.3.7 1.7.5.4 2 .7 2.8.7 2.1 0 5.5-1.1 7.4-4.3l-1.5-.9c-.8 1.2-2.2 2-2.8 2.4-.7.3-1.1.3-1.3.3-.1 0-.2-.1-.3-.2-.1-.1-.2-.2-.2-.4s.1-.7.3-1.5l3.5-12.8z" fill="url(#b)"/><linearGradient id="c" gradientUnits="userSpaceOnUse" x1="36" y1="64" x2="36" y2="22"><stop offset="0" stop-color="#adccdc"/><stop offset="1" stop-color="#4c6c7b"/></linearGradient><linearGradient id="d" gradientUnits="userSpaceOnUse" x1="36" y1="65.25" x2="36" y2="20.75"><stop offset="0" stop-color="#adccdc"/><stop offset="1" stop-color="#4c6c7b"/></linearGradient><path d="M36 22c-11.6 0-21 9.4-21 21s9.4 21 21 21 21-9.4 21-21-9.4-21-21-21zm0 2.3c10.3 0 18.7 8.3 18.7 18.7 0 10.3-8.3 18.7-18.7 18.7S17.3 53.3 17.3 43c0-10.3 8.4-18.7 18.7-18.7z" fill="url(#c)" stroke="url(#d)" stroke-width="2.5" stroke-miterlimit="10"/><path d="M9 91.1V73.9h3.5v17.2H9zm6.8 0V73.9h3.4l7.1 11.5V73.9h3.2v17.2H26l-7-11.2v11.2h-3.2zm17.4 0V73.9h11.9v2.9h-8.4v4.1H44v2.9h-7.2v7.3h-3.6zm14.1-8.5c0-1.8.3-3.2.8-4.4.4-.9.9-1.7 1.6-2.4s1.4-1.2 2.2-1.5c1.1-.5 2.3-.7 3.7-.7 2.5 0 4.6.8 6.1 2.4s2.3 3.8 2.3 6.6-.8 4.9-2.3 6.5c-1.5 1.6-3.5 2.3-6.1 2.3-2.6 0-4.6-.8-6.1-2.3-1.5-1.6-2.2-3.8-2.2-6.5zm3.6-.1c0 1.9.5 3.4 1.4 4.4s2.1 1.5 3.4 1.5 2.5-.5 3.4-1.5 1.3-2.5 1.3-4.5S60 79 59.1 78s-2-1.5-3.5-1.5c-1.4 0-2.6.5-3.5 1.5-.8 1-1.2 2.5-1.2 4.5z" fill="#4c6c7b"/><linearGradient id="e" gradientUnits="userSpaceOnUse" x1="45.122" y1="74.229" x2="58.575" y2="87.683" gradientTransform="matrix(1 0 0 -1 0 102)"><stop offset="0" stop-color="#fff"/><stop offset=".35" stop-color="#fafbfb"/><stop offset=".532" stop-color="#edf1f4"/><stop offset=".675" stop-color="#dde5e9"/><stop offset=".799" stop-color="#c7d3da"/><stop offset=".908" stop-color="#adbdc7"/><stop offset="1" stop-color="#92a5b0"/></linearGradient><path d="M45.1 1L72 27.7H45.1V1z" fill="url(#e)"/><path d="M45.1 1L72 27.7H45.1V1z" fill-opacity="0" stroke="#7191a1" stroke-width="2" stroke-linejoin="bevel"/></svg>