<svg xmlns="http://www.w3.org/2000/svg" viewBox="0 0 72 100"><linearGradient id="a" gradientUnits="userSpaceOnUse" x1="36.108" y1="3.003" x2="36.108" y2="101.001" gradientTransform="matrix(1 0 0 -1 0 102)"><stop offset="0" stop-color="#c8d4db"/><stop offset=".139" stop-color="#d8e1e6"/><stop offset=".359" stop-color="#ebf0f3"/><stop offset=".617" stop-color="#f9fafb"/><stop offset="1" stop-color="#fff"/></linearGradient><path d="M45.1 1L72 27.7V99H.2V1h44.9z" fill="url(#a)"/><path d="M45.1 1L72 27.7V99H.2V1h44.9z" stroke="#7191a1" stroke-width="2" fill="none"/><linearGradient id="b" gradientUnits="userSpaceOnUse" x1="36.25" y1="21.5" x2="36.25" y2="62.5"><stop offset="0" stop-color="#adccdc"/><stop offset="1" stop-color="#4c6c7b"/></linearGradient><linearGradient id="c" gradientUnits="userSpaceOnUse" x1="36.25" y1="21.354" x2="36.25" y2="62.644"><stop offset="0" stop-color="#adccdc"/><stop offset="1" stop-color="#4c6c7b"/></linearGradient><path d="M46.5 38.6v-11l-10.3-6.2L26 27.6v11.1l-10.2 5.5v12.3l10.5 6 10-5.8 10 5.8 10.5-6V44.3l-10.3-5.7zm-2 .1l-7.4 4.1v-8.5l7.4-4.3v8.7zm-8.3-14.9l7.3 4.4-7.3 4.3-7.1-4.4 7.1-4.3zm-17.4 21l8.2-4.3 7.2 4.1-8 4.6c0-.1-7.4-4.4-7.4-4.4zm8.4 6.1l8.1-4.6v8.6l-8.1 4.7v-8.7zm11.1-6.4l7.3-4.1 8.1 4.4-7.5 4.3c.1 0-7.9-4.6-7.9-4.6zm16.5 10.8l-7.6 4.3v-8.7l7.6-4.3v8.7z" fill="url(#b)" stroke="url(#c)" stroke-width=".25" stroke-miterlimit="10"/><path d="M14.7 91.1V71.2h4V91h-4zm7.9 0V71.2h3.9l8.2 13.2V71.2h3.7V91h-4l-8.1-12.9V91h-3.7zm25.2 0l-7.1-19.8H45L50.1 86 55 71.2h4.3L52.1 91h-4.3z" fill="#4c6c7b"/><linearGradient id="d" gradientUnits="userSpaceOnUse" x1="45.122" y1="74.229" x2="58.575" y2="87.683" gradientTransform="matrix(1 0 0 -1 0 102)"><stop offset="0" stop-color="#fff"/><stop offset=".35" stop-color="#fafbfb"/><stop offset=".532" stop-color="#edf1f4"/><stop offset=".675" stop-color="#dde5e9"/><stop offset=".799" stop-color="#c7d3da"/><stop offset=".908" stop-color="#adbdc7"/><stop offset="1" stop-color="#92a5b0"/></linearGradient><path d="M45.1 1L72 27.7H45.1V1z" fill="url(#d)"/><path d="M45.1 1L72 27.7H45.1V1z" stroke="#7191a1" stroke-width="2" stroke-linejoin="bevel" fill="none"/></svg>