<svg xmlns="http://www.w3.org/2000/svg" viewBox="0 0 72 100"><linearGradient id="a" gradientUnits="userSpaceOnUse" x1="486.311" y1="644.112" x2="486.31" y2="742.085" gradientTransform="matrix(1 0 0 -1 -450.061 743.109)"><stop offset="0" stop-color="#742d2d"/><stop offset=".005" stop-color="#827100"/><stop offset="1" stop-color="#ffee91"/></linearGradient><path d="M45.3 1l27.1 26.7V99H.1V1h45.2z" fill="url(#a)"/><path d="M45.3 1l27.1 26.7V99H.1V1h45.2z" fill-opacity="0" stroke="#827100" stroke-width="2"/><path d="M17 91.6V76h3.2v6.9l6.4-6.9H31l-6 6.1 6.3 9.5h-4.1l-4.3-7.3-2.6 2.6v4.7H17zm16 0V76h10.8v2.6h-7.6v3.7h6.6V85h-6.6v6.6H33zm15.3-8.4c-.8-.3-1.4-.8-1.7-1.3-.4-.6-.5-1.2-.5-1.9 0-1.2.4-2.1 1.2-2.9.8-.8 2-1.1 3.5-1.1s2.7.4 3.5 1.1c.8.8 1.2 1.7 1.2 2.9 0 .7-.2 1.4-.6 1.9s-.9 1-1.6 1.3c.9.3 1.5.9 2 1.5s.7 1.4.7 2.3c0 1.4-.5 2.6-1.4 3.5-.9.9-2.2 1.3-3.7 1.3-1.4 0-2.6-.4-3.6-1.1-1.1-.9-1.7-2.1-1.7-3.6 0-.8.2-1.6.6-2.3.6-.7 1.2-1.2 2.1-1.6zm.4 3.6c0 .8.2 1.5.6 1.9.4.5 1 .7 1.6.7.6 0 1.1-.2 1.6-.7.4-.4.6-1.1.6-1.9 0-.7-.2-1.3-.6-1.8-.4-.4-.9-.7-1.6-.7-.7 0-1.3.3-1.7.8-.3.6-.5 1.1-.5 1.7zm.3-6.6c0 .6.2 1.1.5 1.4s.8.5 1.4.5c.6 0 1-.2 1.4-.5.3-.3.5-.8.5-1.4 0-.6-.2-1-.5-1.3-.3-.3-.8-.5-1.4-.5-.6 0-1 .2-1.4.5-.4.3-.5.7-.5 1.3z" fill="#fefefe"/><linearGradient id="b" gradientUnits="userSpaceOnUse" x1="305.171" y1="859.444" x2="305.171" y2="814.684" gradientTransform="scale(1 -1) rotate(-15.79 -2993.474 1367.872)"><stop offset="0" stop-color="#aa9400"/><stop offset="1" stop-color="#564a00"/></linearGradient><path d="M62.7 34.5c-.3-.7-.7-1.2-1.3-1.7-.1.5-.3 1.1-.6 1.6L44.4 59.6c-.6.9-2 1.2-3 .9l-26.1-7.3c-1.6-.4-3.4-1.3-3.5-3.1-.1-.7 0-.9.4-1.2.4-.3.8-.2 1.2-.1L38 55.6c3.6 1 4.6.3 7.2-3.7l15-23.1c.8-1.2 1-2.6.5-3.8-.4-1.2-1.4-2.1-2.8-2.5l-21.5-6c-.5-.1-1-.1-1.5-.2l.1-.1c-3.3-2-4.6 1.8-6.3 3.2-.6.5-1.5.9-1.7 1.4-.2.5-.1 1-.3 1.5-.6 1.4-2.5 3.8-3.4 4.5-.6.4-1.3.5-1.7 1.1-.3.4-.2 1.1-.4 1.7-.5 1.3-2.2 3.5-3.4 4.6-.4.4-1.1.7-1.4 1.2-.3.4-.2 1.1-.5 1.6-.7 1.4-2.3 3.4-3.6 4.5-.7.6-1.4.9-1.7 1.6-.2.3 0 .8-.2 1.2-.3.7-.6 1.2-.8 1.7-.7 1-1.1 2.2-1 3.6.2 3.2 2.7 6.3 5.5 7.1L40.3 64c2.4.7 5.5-.5 6.8-2.6l15-23.1c.8-1.3 1-2.6.6-3.8zm-30.2-8.3l1.1-1.6c.3-.5 1-.7 1.4-.6l17.2 4.8c.5.1.7.6.4 1.1l-1.1 1.6c-.3.5-1 .7-1.4.6l-17.2-4.8c-.5-.2-.7-.7-.4-1.1zm-4.4 6.4l1.1-1.6c.3-.5 1-.7 1.4-.6l17.2 4.8c.5.1.7.6.4 1.1l-1.1 1.6c-.3.5-1 .7-1.4.6l-17.2-4.8c-.5-.1-.7-.6-.4-1.1z" fill="url(#b)"/><linearGradient id="c" gradientUnits="userSpaceOnUse" x1="495.437" y1="715.271" x2="508.982" y2="728.818" gradientTransform="matrix(1 0 0 -1 -450.061 743.109)"><stop offset="0" stop-color="#feea86"/><stop offset="1" stop-color="#867200"/></linearGradient><path d="M45.3 1l27.1 26.7H45.3V1z" fill="url(#c)"/><path d="M45.3 1l27.1 26.7H45.3V1z" fill-opacity="0" stroke="#827100" stroke-width="2" stroke-linejoin="round"/></svg>