<svg xmlns="http://www.w3.org/2000/svg" viewBox="0 0 72 100"><linearGradient id="a" gradientUnits="userSpaceOnUse" x1="36" y1="97" x2="36" y2="-1" gradientTransform="translate(0 2)"><stop offset="0" stop-color="#c8d4db"/><stop offset=".139" stop-color="#d8e1e6"/><stop offset=".359" stop-color="#ebf0f3"/><stop offset=".617" stop-color="#f9fafb"/><stop offset="1" stop-color="#fff"/></linearGradient><path d="M45 1l27 26.7V99H0V1h45z" fill="url(#a)"/><path d="M45 1l27 26.7V99H0V1h45z" fill-opacity="0" stroke="#7191a1" stroke-width="2"/><linearGradient id="b" gradientUnits="userSpaceOnUse" x1="36.8" y1="61.589" x2="36.8" y2="20.333"><stop offset="0" stop-color="#adccdc"/><stop offset="1" stop-color="#4c6c7b"/></linearGradient><path d="M51.4 37.7h-2.9V32c0-6.4-5.2-11.7-11.7-11.7S25.1 25.6 25.1 32v5.7h-2.9c-1.1 0-2 .9-2 2v19.8c0 1.1.9 2 2 2h29.1c1.1 0 2-.9 2-2V39.8c.1-1.2-.8-2.1-1.9-2.1zM39.3 54.2c.2.7-.3 1.3-1 1.3h-3c-.7 0-1.2-.7-1-1.3l1-3.7c-1.1-.6-1.9-1.7-1.9-3.1 0-2 1.6-3.5 3.5-3.5s3.5 1.6 3.5 3.5c0 1.4-.8 2.6-1.9 3.1l.8 3.7zm3.3-16.5H31V32c0-3.2 2.6-5.8 5.8-5.8s5.8 2.6 5.8 5.8v5.7z" fill="url(#b)"/><linearGradient id="c" gradientUnits="userSpaceOnUse" x1="45.037" y1="25.813" x2="58.537" y2="12.313" gradientTransform="translate(0 2)"><stop offset="0" stop-color="#fff"/><stop offset=".35" stop-color="#fafbfb"/><stop offset=".532" stop-color="#edf1f4"/><stop offset=".675" stop-color="#dde5e9"/><stop offset=".799" stop-color="#c7d3da"/><stop offset=".908" stop-color="#adbdc7"/><stop offset="1" stop-color="#92a5b0"/></linearGradient><path d="M45 1l27 26.7H45V1z" fill="url(#c)"/><path d="M45 1l27 26.7H45V1z" fill-opacity="0" stroke="#7191a1" stroke-width="2" stroke-linejoin="bevel"/><path d="M7 91.9V76.3h3.2v13h7.9V92H7zm12.7-7.8c0-1.6.2-3 .7-4 .4-.8.8-1.5 1.5-2.2.6-.6 1.3-1.1 2-1.4 1-.4 2.1-.6 3.4-.6 2.3 0 4.2.7 5.6 2.2 1.4 1.4 2.1 3.4 2.1 6 0 2.5-.7 4.5-2.1 6-1.4 1.4-3.2 2.2-5.5 2.2s-4.2-.7-5.6-2.1c-1.4-1.6-2.1-3.6-2.1-6.1zM23 84c0 1.8.4 3.1 1.2 4.1.8.9 1.9 1.4 3.1 1.4s2.3-.5 3.1-1.4c.8-.9 1.2-2.3 1.2-4.1 0-1.8-.4-3.2-1.2-4-.8-.9-1.8-1.3-3.2-1.3s-2.2.3-3 1.2c-.8.9-1.2 2.3-1.2 4.1zm24.6 2.1l3.1 1c-.5 1.7-1.3 3-2.4 3.8-1.1.8-2.5 1.3-4.2 1.3-2.1 0-3.8-.7-5.2-2.1-1.3-1.4-2-3.4-2-5.9 0-2.6.7-4.7 2-6.1 1.4-1.4 3.1-2.2 5.3-2.2 1.9 0 3.5.6 4.7 1.7.7.7 1.3 1.6 1.6 2.9l-3.1.8c-.2-.8-.6-1.5-1.2-1.9s-1.3-.7-2.2-.7c-1.2 0-2.1.4-2.8 1.3s-1.1 2.2-1.1 4.1c0 2 .4 3.4 1.1 4.3.7.8 1.6 1.3 2.8 1.3.8 0 1.6-.3 2.2-.8.7-.8 1.1-1.7 1.4-2.8zm5.8 5.8V76.1h3.2v7l6.4-7h4.3l-5.9 6.1 6.3 9.6h-4.1l-4.3-7.4-2.6 2.6v4.8h-3.3z" fill="#4c6c7b"/></svg>