<svg id="Layer_1" xmlns="http://www.w3.org/2000/svg" viewBox="0 0 72 100"><style>.st0{opacity:.99}</style><g class="st0"><linearGradient id="SVGID_1_" gradientUnits="userSpaceOnUse" x1="36.15" y1="2.887" x2="36.15" y2="101.126" gradientTransform="matrix(1 0 0 -1 0 102)"><stop offset="0" stop-color="#595593"/><stop offset=".012" stop-color="#5b5794"/><stop offset=".182" stop-color="#7b77aa"/><stop offset=".352" stop-color="#9896bf"/><stop offset=".521" stop-color="#b2b2d2"/><stop offset=".687" stop-color="#c7c9e2"/><stop offset=".848" stop-color="#d6d9ec"/><stop offset="1" stop-color="#dbdff0"/></linearGradient><path d="M45.2.9l27.1 26.8v71.4H0V.9h45.2z" fill="url(#SVGID_1_)"/><path d="M45.2.9l27.1 26.8v71.4H0V.9h45.2z" fill-opacity="0" stroke="#2d3293" stroke-width="2"/></g><path d="M9.1 91.2V71.3h6.1l3.6 13.6 3.6-13.6h6.1v19.9h-3.8V75.5l-4 15.7h-3.9l-4-15.7v15.7H9.1zm22.4-5.3l3.7-.4c.1.9.4 1.7 1 2.2.5.5 1.2.7 1.9.7.8 0 1.5-.3 2-.9.5-.6.8-1.4.8-2.4s-.3-1.7-.8-2.3-1.2-.8-1.9-.8c-.5 0-1.1.1-1.8.3l.4-3.1c1 0 1.8-.2 2.4-.7.5-.5.8-1.1.8-1.9 0-.7-.2-1.2-.6-1.6-.4-.4-.9-.6-1.6-.6-.7 0-1.2.2-1.7.7-.5.5-.8 1.1-.9 2l-3.6-.6c.2-1.2.6-2.2 1.1-2.9s1.2-1.3 2.1-1.7c.9-.4 1.9-.6 3-.6 1.9 0 3.4.6 4.6 1.8.9 1 1.4 2.1 1.4 3.3 0 1.7-1 3.1-2.9 4.2 1.2.2 2.1.8 2.8 1.6.7.8 1 1.9 1 3.1 0 1.7-.6 3.2-1.9 4.5-1.3 1.2-2.9 1.8-4.8 1.8-1.8 0-3.3-.5-4.5-1.6-1.1-1.1-1.8-2.4-2-4.1zm16.6-14.6h4.1V82c0 1.7.1 2.8.2 3.3.2.8.6 1.5 1.2 2 .7.5 1.5.7 2.7.7 1.2 0 2-.2 2.6-.7.6-.5.9-1 1.1-1.7.1-.7.2-1.8.2-3.4v-11h4.1v10.4c0 2.4-.1 4.1-.3 5.1-.2 1-.6 1.8-1.2 2.5s-1.4 1.2-2.4 1.6-2.3.6-3.9.6c-1.9 0-3.4-.2-4.4-.7-1-.4-1.8-1-2.4-1.7s-1-1.4-1.1-2.2c-.3-1.1-.4-2.8-.4-5V71.3z" fill="#fff"/><linearGradient id="SVGID_2_" gradientUnits="userSpaceOnUse" x1="13" y1="30.927" x2="40.703" y2="30.927"><stop offset="0" stop-color="#352c7f"/><stop offset=".074" stop-color="#3e3786"/><stop offset=".266" stop-color="#544f96"/><stop offset=".457" stop-color="#6763a5"/><stop offset=".645" stop-color="#7572b1"/><stop offset=".827" stop-color="#7e7cba"/><stop offset="1" stop-color="#8180bd"/></linearGradient><path d="M15.2 33.1h23.4c1.2 0 2.2-1 2.2-2.2s-1-2.2-2.2-2.2H15.2c-1.2 0-2.2 1-2.2 2.2s1 2.2 2.2 2.2z" fill="url(#SVGID_2_)"/><linearGradient id="SVGID_3_" gradientUnits="userSpaceOnUse" x1="13" y1="42.182" x2="40.703" y2="42.182"><stop offset="0" stop-color="#352c7f"/><stop offset=".074" stop-color="#3e3786"/><stop offset=".266" stop-color="#544f96"/><stop offset=".457" stop-color="#6763a5"/><stop offset=".645" stop-color="#7572b1"/><stop offset=".827" stop-color="#7e7cba"/><stop offset="1" stop-color="#8180bd"/></linearGradient><path d="M15.2 44.3h23.4c1.2 0 2.2-1 2.2-2.2s-1-2.2-2.2-2.2H15.2C14 40 13 41 13 42.2s1 2.1 2.2 2.1z" fill="url(#SVGID_3_)"/><linearGradient id="SVGID_4_" gradientUnits="userSpaceOnUse" x1="13" y1="52.571" x2="28.583" y2="52.571"><stop offset="0" stop-color="#352c7f"/><stop offset=".074" stop-color="#3e3786"/><stop offset=".266" stop-color="#544f96"/><stop offset=".457" stop-color="#6763a5"/><stop offset=".645" stop-color="#7572b1"/><stop offset=".827" stop-color="#7e7cba"/><stop offset="1" stop-color="#8180bd"/></linearGradient><path d="M26.4 50.4H15.2c-1.2 0-2.2 1-2.2 2.2s1 2.2 2.2 2.2h11.3c1.2 0 2.2-1 2.2-2.2s-1.1-2.2-2.3-2.2z" fill="url(#SVGID_4_)"/><linearGradient id="SVGID_5_" gradientUnits="userSpaceOnUse" x1="33.935" y1="45.044" x2="60.633" y2="45.044"><stop offset="0" stop-color="#352c7f"/><stop offset=".074" stop-color="#3e3786"/><stop offset=".266" stop-color="#544f96"/><stop offset=".457" stop-color="#6763a5"/><stop offset=".645" stop-color="#7572b1"/><stop offset=".827" stop-color="#7e7cba"/><stop offset="1" stop-color="#8180bd"/></linearGradient><path d="M53.8 32.6c-1.6-.8-3.8-2.1-4.6-3.8 0-.9-.8-1.7-1.7-1.7-.9 0-1.7.8-1.7 1.7v21.9c-1.7-.9-5-.6-7.5.8-3.9 2.1-5.5 6.2-3.8 9 1.7 2.8 6.2 3.4 10.1 1.2 2.7-1.5 4.5-4 4.6-6.4V36.4c5.6 0 8.9 2.2 7.6 7.7-.2 1-.6 2-1 2.9-.2.3-.2.7.1 1 .3.3.8.2 1.2-.2 2.1-2 3.3-4.7 3.5-7.6.1-3.9-3.6-6.1-6.8-7.6z" fill="url(#SVGID_5_)"/><g class="st0"><linearGradient id="SVGID_6_" gradientUnits="userSpaceOnUse" x1="58.321" y1="87.273" x2="50.783" y2="78.839" gradientTransform="matrix(1 0 0 -1 0 102)"><stop offset="0" stop-color="#595593"/><stop offset=".07" stop-color="#706ca2"/><stop offset=".159" stop-color="#8988b5"/><stop offset=".255" stop-color="#a3a5c8"/><stop offset=".359" stop-color="#babfd9"/><stop offset=".471" stop-color="#ced5e7"/><stop offset=".598" stop-color="#dee6f2"/><stop offset=".751" stop-color="#e9f3fa"/><stop offset="1" stop-color="#ecf8fe"/></linearGradient><path d="M45.2.9l27.1 26.8H45.2V.9z" fill="url(#SVGID_6_)"/><path d="M45.2.9l27.1 26.8H45.2V.9z" fill-opacity="0" stroke="#2d3293" stroke-width="2" stroke-linejoin="bevel"/></g></svg>