<svg xmlns="http://www.w3.org/2000/svg" viewBox="0 0 72 100"><linearGradient id="a" gradientUnits="userSpaceOnUse" x1="36" y1="97.8" x2="36" y2="-.2" gradientTransform="translate(0 1)"><stop offset="0" stop-color="#c8d4db"/><stop offset=".139" stop-color="#d8e1e6"/><stop offset=".359" stop-color="#ebf0f3"/><stop offset=".617" stop-color="#f9fafb"/><stop offset="1" stop-color="#fff"/></linearGradient><path d="M45 .8l27 26.7v71.3H0V.8h45z" fill="url(#a)"/><path d="M45 .8l27 26.7v71.3H0V.8h45z" fill-opacity="0" stroke="#7191a1" stroke-width="2"/><linearGradient id="b" gradientUnits="userSpaceOnUse" x1="45.075" y1="26.575" x2="58.575" y2="13.075" gradientTransform="translate(0 1)"><stop offset="0" stop-color="#fff"/><stop offset=".35" stop-color="#fafbfb"/><stop offset=".532" stop-color="#edf1f4"/><stop offset=".675" stop-color="#dde5e9"/><stop offset=".799" stop-color="#c7d3da"/><stop offset=".908" stop-color="#adbdc7"/><stop offset="1" stop-color="#92a5b0"/></linearGradient><path d="M45 .8l27 26.7H45V.8z" fill="url(#b)"/><path d="M45 .8l27 26.7H45V.8z" fill-opacity="0" stroke="#7191a1" stroke-width="2" stroke-linejoin="bevel"/><g opacity=".9"><linearGradient id="c" gradientUnits="userSpaceOnUse" x1="15.64" y1="53.955" x2="57.36" y2="53.955"><stop offset="0" stop-color="#adccdc"/><stop offset="1" stop-color="#4c6c7b"/></linearGradient><path d="M56.6 47.5c-.6-.3-1.3-.3-1.8.1l-8.9 6.8-8.1-10.8c-.3-.3-.8-.6-1.3-.6s-1 .2-1.3.6l-8.7 10.8-8.4-6.8c-.5-.4-1.2-.5-1.8-.1-.6.3-.9 1-.7 1.7l2.8 14.4c.1.8.8 1.3 1.6 1.3h33c.8 0 1.4-.5 1.6-1.3l2.8-14.4c.1-.7-.2-1.3-.8-1.7zm-4.9 14.2H21.3l-1.7-8.9 6.2 5.1c.3.3.8.4 1.2.3.4 0 .8-.3 1.1-.6l8.4-10.5 7.8 10.4c.3.3.6.6 1.1.6.4.1.8-.1 1.2-.3l6.9-5.3-1.8 9.2z" fill="url(#c)"/><linearGradient id="d" gradientUnits="userSpaceOnUse" x1="18.4" y1="66.933" x2="54.6" y2="66.933"><stop offset="0" stop-color="#adccdc"/><stop offset="1" stop-color="#4c6c7b"/></linearGradient><path d="M51.4 63.3v4.1H21.6v-4.1h-3.2V69c0 .9.7 1.6 1.6 1.6h33c.9 0 1.6-.7 1.6-1.6v-5.7h-3.2z" fill="url(#d)"/><linearGradient id="e" gradientUnits="userSpaceOnUse" x1="31.192" y1="40.739" x2="41.808" y2="40.739"><stop offset="0" stop-color="#adccdc"/><stop offset="1" stop-color="#4c6c7b"/></linearGradient><path d="M36.5 35.4c-2.9 0-5.3 2.4-5.3 5.3s2.4 5.3 5.3 5.3 5.3-2.4 5.3-5.3-2.4-5.3-5.3-5.3zm0 7.5c-1.2 0-2.1-1-2.1-2.1s1-2.1 2.1-2.1 2.1 1 2.1 2.1-.9 2.1-2.1 2.1z" fill="url(#e)"/><linearGradient id="f" gradientUnits="userSpaceOnUse" x1="56.192" y1="39.624" x2="56.192" y2="50.24"><stop offset="0" stop-color="#adccdc"/><stop offset="1" stop-color="#4c6c7b"/></linearGradient><path d="M56.2 39.6c-2.9 0-5.3 2.4-5.3 5.3s2.4 5.3 5.3 5.3 5.3-2.4 5.3-5.3-2.4-5.3-5.3-5.3zm0 7.5c-1.2 0-2.1-1-2.1-2.1s1-2.1 2.1-2.1 2.1 1 2.1 2.1-.9 2.1-2.1 2.1z" fill="url(#f)"/><linearGradient id="g" gradientUnits="userSpaceOnUse" x1="16.808" y1="50.24" x2="16.808" y2="39.624"><stop offset="0" stop-color="#adccdc"/><stop offset="1" stop-color="#4c6c7b"/></linearGradient><path d="M16.8 39.6c-2.9 0-5.3 2.4-5.3 5.3s2.4 5.3 5.3 5.3 5.3-2.4 5.3-5.3-2.4-5.3-5.3-5.3zm0 7.5c-1.2 0-2.1-1-2.1-2.1s1-2.1 2.1-2.1 2.1 1 2.1 2.1-.9 2.1-2.1 2.1z" fill="url(#g)"/></g></svg>