<svg xmlns="http://www.w3.org/2000/svg" viewBox="0 0 72 100"><linearGradient id="a" gradientUnits="userSpaceOnUse" x1="36" y1=".8" x2="36" y2="98.8" gradientTransform="matrix(1 0 0 -1 0 100)"><stop offset="0" stop-color="#c8d4db"/><stop offset=".047" stop-color="#cfd9e0"/><stop offset=".225" stop-color="#e4eaed"/><stop offset=".424" stop-color="#f3f6f7"/><stop offset=".655" stop-color="#fcfdfd"/><stop offset="1" stop-color="#fff"/></linearGradient><path d="M45 1.2L72 28v71.2H0v-98h45z" fill="url(#a)" stroke="#7191a0" stroke-width="2"/><path d="M17 92.3V72.5h6L26.7 86l3.6-13.5h6.1v19.8h-3.8V76.7l-4 15.6h-3.9l-4-15.6v15.6H17zm23.3-19.8h7.4c1.7 0 2.9.1 3.8.4 1.2.3 2.2 1 3 1.8s1.5 1.9 1.9 3.2.7 2.8.7 4.7c0 1.6-.2 3-.6 4.2-.5 1.4-1.2 2.6-2.1 3.5-.7.7-1.6 1.2-2.8 1.6-.9.3-2.1.4-3.6.4h-7.6V72.5h-.1zm4.1 3.3V89h3c1.1 0 1.9-.1 2.4-.2.7-.2 1.2-.4 1.6-.8.4-.4.8-1 1.1-1.9s.4-2.1.4-3.6-.1-2.7-.4-3.5c-.3-.8-.7-1.5-1.1-1.9s-1.1-.8-1.9-.9c-.6-.1-1.7-.2-3.3-.2h-1.8v-.2z" fill="#4c6c7b"/><linearGradient id="b" gradientUnits="userSpaceOnUse" x1="36.25" y1="61.9" x2="36.25" y2="23"><stop offset="0" stop-color="#adccdc"/><stop offset="1" stop-color="#4c6c7b"/></linearGradient><path d="M23.7 51.8h-4.1v-5.6H25l1.8-7.6h-7.3V33h8.7l2.4-10h6.8L35 33h6.7L44 23h7.1l-2.4 10H53v5.7h-5.6l-1.8 7.6H53v5.6h-8.8l-2.4 10H35l2.3-10h-6.8l-2.4 10h-6.9l2.5-10.1zm10-13.1l-1.8 7.6h6.8l1.8-7.6h-6.8z" opacity=".9" fill="url(#b)"/><linearGradient id="c" gradientUnits="userSpaceOnUse" x1="45.05" y1="71.95" x2="58.55" y2="85.45" gradientTransform="matrix(1 0 0 -1 0 100)"><stop offset="0" stop-color="#fff"/><stop offset=".335" stop-color="#fdfdfd"/><stop offset=".51" stop-color="#f5f7f8"/><stop offset=".647" stop-color="#e7ecee"/><stop offset=".765" stop-color="#d4dce0"/><stop offset=".87" stop-color="#bcc8cf"/><stop offset=".966" stop-color="#9eafb9"/><stop offset="1" stop-color="#91a5b0"/></linearGradient><path d="M45 1.2L72 28H45V1.2z" fill="url(#c)" stroke="#7191a0" stroke-width="2" stroke-linejoin="bevel"/></svg>