<svg id="Layer_1" xmlns="http://www.w3.org/2000/svg" viewBox="0 0 72 100"><style>.st0{opacity:.99}</style><g class="st0"><linearGradient id="SVGID_1_" gradientUnits="userSpaceOnUse" x1="36.2" y1="3.005" x2="36.2" y2="101" gradientTransform="matrix(1 0 0 -1 0 102)"><stop offset="0" stop-color="#006b69"/><stop offset=".124" stop-color="#00807f"/><stop offset=".262" stop-color="#009393"/><stop offset=".41" stop-color="#00a3a3"/><stop offset=".571" stop-color="#00b0af"/><stop offset=".752" stop-color="#08b8b7"/><stop offset="1" stop-color="#14bbbb"/></linearGradient><path d="M45.2 1l26.9 26.7V99H.3V1h44.9z" fill="url(#SVGID_1_)"/><path d="M45.2 1l26.9 26.7V99H.3V1h44.9z" fill-opacity="0" stroke="#006e6c" stroke-width="2"/></g><linearGradient id="SVGID_2_" gradientUnits="userSpaceOnUse" x1="36" y1="64.243" x2="36" y2="17.243"><stop offset=".005" stop-color="#008281"/><stop offset=".343" stop-color="#006a69"/><stop offset="1" stop-color="#003836"/></linearGradient><path d="M58.3 64.2H13.7c-.6 0-1.2-.5-1.2-1.2V18.4c0-.6.5-1.2 1.2-1.2h44.7c.6 0 1.2.5 1.2 1.2v44.7c-.1.6-.6 1.1-1.3 1.1zm-43.4-2.9c0 .4.2.6.6.6h41.1c.4 0 .6-.2.6-.6V50.7c0-.4-.2-.6-.6-.6H15.4c-.4 0-.6.2-.6.6v10.6zm41.7-41.7H15.4c-.4 0-.6.2-.6.6v27c0 .1.1.2.1.3l8.7-10.9 8.8 5.3 10-11.8 14.7 11.3V20.2c.1-.4-.2-.6-.5-.6zM20.7 52.5c1.9 0 3.5 1.6 3.5 3.5s-1.6 3.5-3.5 3.5-3.5-1.5-3.5-3.5c0-1.9 1.6-3.5 3.5-3.5zm6.5 2.3h27c.4 0 .6.2.6.6v1.2c0 .4-.2.6-.6.6h-27c-.4 0-.6-.2-.6-.6v-1.2c0-.3.2-.6.6-.6z" fill="url(#SVGID_2_)"/><path d="M6.4 91.1V71.7h5.9l3.5 13.2 3.5-13.2h5.9V91h-3.6V75.9l-3.9 15.2h-3.8l-3.8-15.2v15.2H6.4zm22.8 0V71.7H33l8 12.9V71.7h3.6V91h-3.9l-7.8-12.6V91h-3.7zM57.8 84v-3.3h8.5v7.7c-.8.8-2 1.5-3.6 2.1-1.6.6-3.1.9-4.7.9-2 0-3.8-.4-5.3-1.3-1.5-.8-2.6-2.1-3.4-3.6-.8-1.6-1.1-3.3-1.1-5.1 0-2 .4-3.8 1.3-5.4.8-1.6 2.1-2.8 3.7-3.6 1.2-.6 2.8-1 4.7-1 2.4 0 4.3.5 5.7 1.5 1.4 1 2.2 2.4 2.6 4.2l-3.9.7c-.3-.9-.8-1.7-1.5-2.2-.8-.5-1.7-.8-2.8-.8-1.7 0-3.1.5-4.1 1.6-1 1.1-1.5 2.7-1.5 4.8 0 2.3.5 4 1.5 5.2 1 1.1 2.4 1.7 4 1.7.8 0 1.6-.2 2.5-.5.8-.3 1.5-.7 2.1-1.2V84h-4.7z" fill="#fff"/><g class="st0"><linearGradient id="SVGID_3_" gradientUnits="userSpaceOnUse" x1="45.214" y1="74.229" x2="58.667" y2="87.682" gradientTransform="matrix(1 0 0 -1 0 102)"><stop offset="0" stop-color="#d6ede8"/><stop offset=".297" stop-color="#d3ebe6"/><stop offset=".44" stop-color="#c7e3df"/><stop offset=".551" stop-color="#b7d8d5"/><stop offset=".645" stop-color="#a0cbc9"/><stop offset=".729" stop-color="#84bab9"/><stop offset=".804" stop-color="#62a7a7"/><stop offset=".874" stop-color="#349394"/><stop offset=".938" stop-color="#007f7f"/><stop offset=".998" stop-color="#006b6a"/><stop offset="1" stop-color="#006b69"/></linearGradient><path d="M45.2 1l26.9 26.7H45.2V1z" fill="url(#SVGID_3_)"/><path d="M45.2 1l26.9 26.7H45.2V1z" fill-opacity="0" stroke="#006e6c" stroke-width="2" stroke-linejoin="bevel"/></g></svg>