<svg xmlns="http://www.w3.org/2000/svg" viewBox="0 0 72 100"><linearGradient id="a" gradientUnits="userSpaceOnUse" x1="36" y1="3.005" x2="36" y2="101" gradientTransform="matrix(1 0 0 -1 0 102)"><stop offset=".005" stop-color="#113c60"/><stop offset=".16" stop-color="#194f7e"/><stop offset=".36" stop-color="#1c5f97"/><stop offset="1" stop-color="#1d6fb5"/></linearGradient><path d="M45 1l27 26.7V99H0V1h45z" fill="url(#a)"/><path d="M45 1l27 26.7V99H0V1h45z" fill-opacity="0" stroke="#113c60" stroke-width="2"/><path d="M7.9 91.1V72.5h5.7L17 85.1l3.4-12.7h5.7V91h-3.5V76.4l-3.7 14.7h-3.7l-3.7-14.7v14.7H7.9zm21-6.1l3.7-.4c.2 1.2.7 2.1 1.4 2.7.7.6 1.6.9 2.8.9 1.2 0 2.1-.3 2.8-.8.6-.5.9-1.1.9-1.8 0-.4-.1-.8-.4-1.1-.3-.3-.7-.6-1.4-.8-.4-.2-1.5-.4-3-.8-2-.5-3.5-1.1-4.3-1.8-1.2-1-1.7-2.3-1.7-3.7 0-.9.3-1.8.8-2.7.5-.8 1.3-1.5 2.3-1.9s2.3-.6 3.7-.6c2.4 0 4.1.5 5.3 1.5 1.2 1 1.8 2.4 1.9 4.1l-3.8.2c-.2-1-.5-1.6-1-2.1-.5-.4-1.3-.6-2.4-.6-1.1 0-2 .2-2.6.7-.4.3-.6.7-.6 1.2 0 .4.2.8.6 1.1.5.4 1.6.8 3.5 1.2 1.8.4 3.2.9 4.1 1.3.9.5 1.6 1.1 2.1 1.9.5.8.8 1.8.8 3 0 1.1-.3 2.1-.9 3s-1.4 1.6-2.5 2.1-2.5.7-4.1.7c-2.4 0-4.2-.5-5.5-1.6-1.5-1.2-2.2-2.8-2.5-4.9zm27.2-.8v-3.1h8.2v7.4c-.8.8-1.9 1.4-3.5 2-1.5.6-3 .9-4.6.9-2 0-3.7-.4-5.1-1.2-1.5-.8-2.6-2-3.3-3.5-.7-1.5-1.1-3.2-1.1-5 0-1.9.4-3.7 1.2-5.2.8-1.5 2-2.7 3.6-3.5 1.2-.6 2.7-.9 4.5-.9 2.3 0 4.2.5 5.5 1.5 1.3 1 2.2 2.3 2.5 4l-3.8.7c-.3-.9-.8-1.6-1.5-2.2-.7-.5-1.6-.8-2.7-.8-1.7 0-3 .5-4 1.6-1 1-1.5 2.6-1.5 4.6 0 2.2.5 3.9 1.5 5s2.3 1.7 3.9 1.7c.8 0 1.6-.2 2.4-.5.8-.3 1.5-.7 2.1-1.1v-2.4h-4.3z" fill="#fff"/><linearGradient id="b" gradientUnits="userSpaceOnUse" x1="36.5" y1="27.477" x2="36.5" y2="60.523"><stop offset=".005" stop-color="#113c60"/><stop offset=".824" stop-color="#194f7e"/><stop offset="1" stop-color="#1c5f97"/></linearGradient><linearGradient id="c" gradientUnits="userSpaceOnUse" x1="36.5" y1="26.477" x2="36.5" y2="61.523"><stop offset=".005" stop-color="#113c60"/><stop offset=".824" stop-color="#194f7e"/><stop offset="1" stop-color="#1c5f97"/></linearGradient><path d="M55.9 27.5H17.1c-2.3 0-4.1 1.8-4.1 4.1v24.8c0 2.3 1.9 4.1 4.1 4.1h38.7c2.3 0 4.1-1.8 4.1-4.1V31.6c.1-2.3-1.8-4.1-4-4.1zm-.7 2.7c-1.3 1.3-17 17.1-17.7 17.7-.5.5-1.6.5-2.1 0L17.8 30.2h37.4zM15.8 55.9V32.1L27.6 44 15.8 55.9zm2 1.9L29.5 46l3.9 3.9c1.6 1.6 4.4 1.6 6 0l3.9-3.9 11.8 11.8H17.8zm39.4-1.9L45.4 44l11.8-11.9v23.8z" fill="url(#b)" stroke="url(#c)" stroke-width="2" stroke-miterlimit="10"/><linearGradient id="d" gradientUnits="userSpaceOnUse" x1="45.069" y1="74.205" x2="58.569" y2="87.705" gradientTransform="matrix(1 0 0 -1 0 102)"><stop offset=".005" stop-color="#dff1fa"/><stop offset=".3" stop-color="#dceef7"/><stop offset=".443" stop-color="#d3e4ef"/><stop offset=".553" stop-color="#c4d6e3"/><stop offset=".647" stop-color="#b1c5d5"/><stop offset=".73" stop-color="#9ab0c5"/><stop offset=".805" stop-color="#819ab3"/><stop offset=".875" stop-color="#64829f"/><stop offset=".938" stop-color="#426c8c"/><stop offset=".998" stop-color="#06577a"/><stop offset="1" stop-color="#015679"/></linearGradient><path d="M45 1l27 26.7H45V1z" fill="url(#d)"/><path d="M45 1l27 26.7H45V1z" fill-opacity="0" stroke="#113c60" stroke-width="2" stroke-linejoin="bevel"/></svg>