<svg xmlns="http://www.w3.org/2000/svg" viewBox="0 0 72 100"><linearGradient id="a" gradientUnits="userSpaceOnUse" x1="36.108" y1="3.003" x2="36.108" y2="101.001" gradientTransform="matrix(1 0 0 -1 0 102)"><stop offset="0" stop-color="#c8d4db"/><stop offset=".139" stop-color="#d8e1e6"/><stop offset=".359" stop-color="#ebf0f3"/><stop offset=".617" stop-color="#f9fafb"/><stop offset="1" stop-color="#fff"/></linearGradient><path d="M45.1 1L72 27.7V99H.2V1h44.9z" fill="url(#a)"/><path d="M45.1 1L72 27.7V99H.2V1h44.9z" fill-opacity="0" stroke="#7191a1" stroke-width="2"/><path d="M8.8 91.1V71.2h3.9l8.2 13.2V71.2h3.7V91h-4l-8.1-12.9V91H8.8zm20.2 0V71.2h13.7v3.4H33v4.7h8.3v3.4H33v8.4h-4zm16.2-9.8c0-2 .3-3.7.9-5.1.5-1 1.1-1.9 1.9-2.7.8-.8 1.6-1.4 2.6-1.8 1.2-.5 2.7-.8 4.3-.8 2.9 0 5.3.9 7.1 2.7 1.8 1.8 2.7 4.3 2.7 7.6 0 3.2-.9 5.7-2.6 7.5-1.8 1.8-4.1 2.7-7 2.7-3 0-5.3-.9-7.1-2.7s-2.8-4.3-2.8-7.4zm4.1-.2c0 2.2.5 3.9 1.6 5.1 1 1.2 2.4 1.7 4 1.7s2.9-.6 4-1.7 1.5-2.9 1.5-5.2c0-2.3-.5-4-1.5-5.1s-2.3-1.7-4-1.7-3 .6-4 1.7c-1.1 1.2-1.6 2.9-1.6 5.2z" fill="#4c6c7b"/><linearGradient id="b" gradientUnits="userSpaceOnUse" x1="12.35" y1="33.75" x2="60.95" y2="33.75" gradientTransform="translate(0 2)"><stop offset="0" stop-color="#7291a1"/><stop offset="1" stop-color="#cad5db"/></linearGradient><path d="M12.4 33.7H61v4.1H12.4v-4.1z" fill="url(#b)"/><linearGradient id="c" gradientUnits="userSpaceOnUse" x1="12.35" y1="57.85" x2="60.95" y2="57.85" gradientTransform="translate(0 2)"><stop offset="0" stop-color="#7291a1"/><stop offset="1" stop-color="#cad5db"/></linearGradient><path d="M12.4 57.8H61v4.1H12.4v-4.1z" fill="url(#c)"/><linearGradient id="d" gradientUnits="userSpaceOnUse" x1="12.35" y1="46.05" x2="60.95" y2="46.05" gradientTransform="translate(0 2)"><stop offset="0" stop-color="#7291a1"/><stop offset="1" stop-color="#cad5db"/></linearGradient><path d="M12.4 46H61v4.1H12.4V46z" fill="url(#d)"/><linearGradient id="e" gradientUnits="userSpaceOnUse" x1="12.35" y1="21.65" x2="60.95" y2="21.65" gradientTransform="translate(0 2)"><stop offset="0" stop-color="#7291a1"/><stop offset="1" stop-color="#cad5db"/></linearGradient><path d="M12.4 21.6H61v4.1H12.4v-4.1z" fill="url(#e)"/><linearGradient id="f" gradientUnits="userSpaceOnUse" x1="45.122" y1="74.229" x2="58.575" y2="87.683" gradientTransform="matrix(1 0 0 -1 0 102)"><stop offset="0" stop-color="#fff"/><stop offset=".35" stop-color="#fafbfb"/><stop offset=".532" stop-color="#edf1f4"/><stop offset=".675" stop-color="#dde5e9"/><stop offset=".799" stop-color="#c7d3da"/><stop offset=".908" stop-color="#adbdc7"/><stop offset="1" stop-color="#92a5b0"/></linearGradient><path d="M45.1 1L72 27.7H45.1V1z" fill="url(#f)"/><path d="M45.1 1L72 27.7H45.1V1z" fill-opacity="0" stroke="#7191a1" stroke-width="2" stroke-linejoin="bevel"/></svg>