<svg xmlns="http://www.w3.org/2000/svg" viewBox="0 0 72 100"><linearGradient id="a" gradientUnits="userSpaceOnUse" x1="36" y1="97" x2="36" y2="-1" gradientTransform="translate(0 2)"><stop offset="0" stop-color="#c8d4db"/><stop offset=".139" stop-color="#d8e1e6"/><stop offset=".359" stop-color="#ebf0f3"/><stop offset=".617" stop-color="#f9fafb"/><stop offset="1" stop-color="#fff"/></linearGradient><path d="M45 1l27 26.7V99H0V1h45z" fill="url(#a)"/><path d="M45 1l27 26.7V99H0V1h45z" fill-opacity="0" stroke="#7191a1" stroke-width="2"/><linearGradient id="b" gradientUnits="userSpaceOnUse" x1="36" y1="64.702" x2="36" y2="25.298"><stop offset="0" stop-color="#adccdc"/><stop offset="1" stop-color="#4c6c7b"/></linearGradient><path d="M54 37.3c1.9-4.5 2-8.3-.2-10.5-2.5-2.5-8.5-1.8-14.9 1.3h-.8c-4.5 0-8.9 1.6-12.1 4.5-2.8 2.5-4.8 5.8-5.6 9.4.6-.8 4.1-4.9 8.1-7.1.1 0 1.1-.6 1.1-.6-.1 0-2 1.9-2.4 2.3-8.8 9-13.9 22.6-9.9 26.6 2.6 2.6 7.4 2 12.9-1 2.4 1.1 5 1.6 7.9 1.6 3.8 0 7.3-1 10.3-3 3.1-2 5.4-5.1 6.8-8.7h-9.8c-1.3 2.4-4.1 4-7.1 4-4.3 0-7.8-3.5-7.9-7.5v-.4h25.5v-.4c0-.6.1-1.4.1-1.9 0-3.1-.8-6-2-8.6zm-33.9 25c-2-2-1.4-5.9 1-10.5 1.1 3.1 3 5.9 5.4 7.9.8.6 1.6 1.3 2.5 1.8-4 2.1-7.2 2.4-8.9.8zm25.7-19H30.5v-.1c.2-3.9 3.9-7.3 8.1-7.3 4 0 7.3 3.1 7.5 7.3v.1h-.3zm7.6-7c-.8-1.3-1.8-2.5-2.9-3.5-1.7-1.6-3.8-2.9-6-3.8 4-1.9 7.4-2.1 9.1-.4 1.4 1.7 1.3 4.5-.2 7.7 0 .1 0 .1 0 0 0 .1 0 .1 0 0z" opacity=".9" fill="url(#b)"/><linearGradient id="c" gradientUnits="userSpaceOnUse" x1="45.037" y1="25.813" x2="58.537" y2="12.313" gradientTransform="translate(0 2)"><stop offset="0" stop-color="#fff"/><stop offset=".35" stop-color="#fafbfb"/><stop offset=".532" stop-color="#edf1f4"/><stop offset=".675" stop-color="#dde5e9"/><stop offset=".799" stop-color="#c7d3da"/><stop offset=".908" stop-color="#adbdc7"/><stop offset="1" stop-color="#92a5b0"/></linearGradient><path d="M45 1l27 26.7H45V1z" fill="url(#c)"/><path d="M45 1l27 26.7H45V1z" fill-opacity="0" stroke="#7191a1" stroke-width="2" stroke-linejoin="bevel"/><path d="M6.9 82c0-2 .3-3.8.9-5.1.5-1 1.1-1.9 1.9-2.7.8-.8 1.7-1.4 2.6-1.8 1.2-.5 2.7-.8 4.3-.8 3 0 5.3.9 7.1 2.7 1.8 1.8 2.7 4.4 2.7 7.6 0 3.2-.9 5.8-2.6 7.6-1.8 1.8-4.1 2.7-7.1 2.7s-5.4-.9-7.1-2.7c-1.8-1.8-2.7-4.3-2.7-7.5zm4.1-.2c0 2.3.5 4 1.6 5.2 1 1.2 2.4 1.8 4 1.8s2.9-.6 4-1.7c1-1.2 1.6-2.9 1.6-5.2 0-2.3-.5-4-1.5-5.1-1-1.1-2.3-1.7-4-1.7s-3 .6-4 1.7c-1.1 1-1.7 2.7-1.7 5zm31.3 2.7l3.9 1.2c-.6 2.2-1.6 3.8-3 4.9-1.4 1.1-3.2 1.6-5.3 1.6-2.7 0-4.8-.9-6.6-2.7-1.7-1.8-2.6-4.3-2.6-7.5 0-3.3.9-5.9 2.6-7.8s4-2.8 6.8-2.8c2.5 0 4.4.7 6 2.2.9.9 1.6 2.1 2.1 3.7l-4 1c-.2-1-.7-1.9-1.5-2.5S39 75 37.9 75c-1.5 0-2.7.5-3.6 1.6-.9 1.1-1.4 2.8-1.4 5.2 0 2.5.5 4.3 1.4 5.4.9 1.1 2.1 1.6 3.6 1.6 1.1 0 2-.3 2.8-1 .7-.7 1.3-1.8 1.6-3.3zm5.4 7.4l6.8-10.5-6.2-9.6H53l4 6.4 3.9-6.4h4.7l-6.2 9.7 6.8 10.3h-4.9L57 85l-4.5 6.9h-4.8z" fill="#4c6c7b"/></svg>