<svg id="Layer_1" xmlns="http://www.w3.org/2000/svg" viewBox="0 0 72 100"><style>.st0{opacity:.99}</style><g class="st0"><linearGradient id="SVGID_1_" gradientUnits="userSpaceOnUse" x1="36.15" y1="2.887" x2="36.15" y2="101.126" gradientTransform="matrix(1 0 0 -1 0 102)"><stop offset="0" stop-color="#595593"/><stop offset=".012" stop-color="#5b5794"/><stop offset=".182" stop-color="#7b77aa"/><stop offset=".352" stop-color="#9896bf"/><stop offset=".521" stop-color="#b2b2d2"/><stop offset=".687" stop-color="#c7c9e2"/><stop offset=".848" stop-color="#d6d9ec"/><stop offset="1" stop-color="#dbdff0"/></linearGradient><path d="M45.2.9l27.1 26.8v71.4H0V.9h45.2z" fill="url(#SVGID_1_)"/><path d="M45.2.9l27.1 26.8v71.4H0V.9h45.2z" fill-opacity="0" stroke="#2d3293" stroke-width="2"/></g><path d="M4.8 81.3c0-2 .3-3.7.9-5.1.5-1 1.1-1.9 1.9-2.7s1.7-1.4 2.6-1.8c1.3-.5 2.7-.8 4.3-.8 3 0 5.3.9 7.1 2.7 1.8 1.8 2.7 4.3 2.7 7.6 0 3.2-.9 5.7-2.6 7.5s-4.1 2.7-7.1 2.7-5.4-.9-7.1-2.7c-1.9-1.7-2.7-4.2-2.7-7.4zm4.1-.1c0 2.3.5 4 1.6 5.1 1.1 1.2 2.4 1.7 4 1.7s2.9-.6 4-1.7 1.6-2.9 1.6-5.2c0-2.3-.5-4-1.5-5.1s-2.4-1.7-4-1.7-3 .6-4 1.7-1.7 2.9-1.7 5.2zm27.9 2.7v-3.4h8.8v7.9c-.9.8-2.1 1.5-3.7 2.2-1.6.6-3.2.9-4.9.9-2.1 0-3.9-.4-5.5-1.3s-2.7-2.1-3.5-3.7c-.8-1.6-1.2-3.4-1.2-5.3 0-2.1.4-3.9 1.3-5.5s2.2-2.8 3.9-3.7c1.3-.7 2.9-1 4.8-1 2.5 0 4.4.5 5.9 1.6 1.4 1 2.3 2.5 2.7 4.3l-4 .7c-.3-1-.8-1.7-1.6-2.3-.8-.6-1.8-.8-2.9-.8-1.8 0-3.2.6-4.2 1.7s-1.6 2.8-1.6 5c0 2.4.5 4.1 1.6 5.3 1.1 1.2 2.5 1.8 4.2 1.8.9 0 1.7-.2 2.6-.5.9-.3 1.6-.7 2.2-1.2v-2.5h-4.9zm21.8 0v-3.4h8.8v7.9c-.8.8-2.1 1.5-3.7 2.2-1.6.6-3.2.9-4.9.9-2.1 0-3.9-.4-5.5-1.3s-2.7-2.1-3.5-3.7c-.8-1.6-1.2-3.4-1.2-5.3 0-2.1.4-3.9 1.3-5.5s2.2-2.8 3.9-3.7c1.3-.7 2.9-1 4.8-1 2.5 0 4.4.5 5.9 1.6 1.4 1 2.3 2.5 2.7 4.3l-4 .7c-.3-1-.8-1.7-1.6-2.3-.8-.6-1.8-.8-2.9-.8-1.8 0-3.2.6-4.2 1.7s-1.6 2.8-1.6 5c0 2.4.5 4.1 1.6 5.3 1.1 1.2 2.5 1.8 4.2 1.8.8 0 1.7-.2 2.6-.5.9-.3 1.6-.7 2.2-1.2v-2.5h-4.9z" fill="#fff"/><g class="st0"><linearGradient id="SVGID_2_" gradientUnits="userSpaceOnUse" x1="58.321" y1="87.273" x2="50.783" y2="78.839" gradientTransform="matrix(1 0 0 -1 0 102)"><stop offset="0" stop-color="#595593"/><stop offset=".07" stop-color="#706ca2"/><stop offset=".159" stop-color="#8988b5"/><stop offset=".255" stop-color="#a3a5c8"/><stop offset=".359" stop-color="#babfd9"/><stop offset=".471" stop-color="#ced5e7"/><stop offset=".598" stop-color="#dee6f2"/><stop offset=".751" stop-color="#e9f3fa"/><stop offset="1" stop-color="#ecf8fe"/></linearGradient><path d="M45.2.9l27.1 26.8H45.2V.9z" fill="url(#SVGID_2_)"/><path d="M45.2.9l27.1 26.8H45.2V.9z" fill-opacity="0" stroke="#2d3293" stroke-width="2" stroke-linejoin="bevel"/></g><linearGradient id="SVGID_3_" gradientUnits="userSpaceOnUse" x1="14.776" y1="56.174" x2="57.726" y2="56.174" gradientTransform="matrix(1 0 0 -1 0 102)"><stop offset="0" stop-color="#352c7f"/><stop offset=".074" stop-color="#3e3786"/><stop offset=".266" stop-color="#544f96"/><stop offset=".457" stop-color="#6763a5"/><stop offset=".645" stop-color="#7572b1"/><stop offset=".827" stop-color="#7e7cba"/><stop offset="1" stop-color="#8180bd"/></linearGradient><path d="M14.8 39.3h6.5l13-10v33l-13-10h-6.5v-13zm26.1 10.2v2.9c.1 0 1.6 0 3.2-.8s3.4-2.7 3.4-5.8c0-3.1-1.7-5-3.4-5.8-1.6-.8-3.1-.8-3.2-.8v2.9h.1c.4 0 1.4.2 2.1.7.8.5 1.4 1.2 1.4 3 0 2-.8 2.6-1.8 3.2-.5.2-1 .4-1.3.4-.2 0-.3 0-.4.1h-.1zm0 5.1v2.9c.1 0 2.8 0 5.8-1.4 2.9-1.4 6-4.6 5.9-10.1.1-5.6-3-8.7-5.9-10.1-2.9-1.4-5.6-1.4-5.8-1.4v2.9h.3c.8.1 3.1.4 4.9 1.6 1.9 1.2 3.5 3.1 3.5 7.1 0 4.6-2.1 6.5-4.3 7.5-1.1.6-2.2.8-3.1 1-.4.1-.8.1-1 .1-.2-.1-.3-.1-.3-.1zm0 5v2.9c.1 0 4.1 0 8.3-2.1 4.2-2 8.5-6.5 8.5-14.6.1-8.1-4.3-12.6-8.5-14.6-4.2-2.1-8.2-2.1-8.3-2.1V32h.6c1.3.1 4.8.6 7.7 2.5 2.9 1.9 5.5 5.1 5.6 11.3-.1 7-3.4 10.2-6.9 12-1.7.9-3.5 1.3-4.9 1.5-.7.1-1.2.2-1.6.2-.3.1-.5.1-.5.1zm0-27.5z" opacity=".99" fill="url(#SVGID_3_)"/></svg>