<svg xmlns="http://www.w3.org/2000/svg" viewBox="0 0 72 100"><linearGradient id="a" gradientUnits="userSpaceOnUse" x1="36" y1="97" x2="36" y2="-1" gradientTransform="translate(0 2)"><stop offset="0" stop-color="#c8d4db"/><stop offset=".139" stop-color="#d8e1e6"/><stop offset=".359" stop-color="#ebf0f3"/><stop offset=".617" stop-color="#f9fafb"/><stop offset="1" stop-color="#fff"/></linearGradient><path d="M45 1l27 26.7V99H0V1h45z" fill="url(#a)"/><path d="M45 1l27 26.7V99H0V1h45z" fill-opacity="0" stroke="#7191a1" stroke-width="2"/><linearGradient id="b" gradientUnits="userSpaceOnUse" x1="45.037" y1="25.813" x2="58.537" y2="12.313" gradientTransform="translate(0 2)"><stop offset="0" stop-color="#fff"/><stop offset=".35" stop-color="#fafbfb"/><stop offset=".532" stop-color="#edf1f4"/><stop offset=".675" stop-color="#dde5e9"/><stop offset=".799" stop-color="#c7d3da"/><stop offset=".908" stop-color="#adbdc7"/><stop offset="1" stop-color="#92a5b0"/></linearGradient><path d="M45 1l27 26.7H45V1z" fill="url(#b)"/><path d="M45 1l27 26.7H45V1z" fill-opacity="0" stroke="#7191a1" stroke-width="2" stroke-linejoin="bevel"/><path d="M13.3 91.9v-20h6.5c2.5 0 4.1.1 4.8.3 1.1.3 2.1 1 2.9 2 .8 1 1.2 2.3 1.2 3.9 0 1.2-.2 2.3-.7 3.1-.4.8-1 1.5-1.7 2s-1.4.8-2.1 1c-1 .2-2.4.3-4.2.3h-2.6v7.6h-4.1zm4.1-16.7v5.7h2.2c1.6 0 2.7-.1 3.2-.3.5-.2 1-.5 1.3-1 .3-.4.5-1 .5-1.6 0-.7-.2-1.3-.6-1.8-.4-.5-1-.8-1.6-.9-.5-.1-1.5-.1-2.9-.1h-2.1zM41 91.9h-3.8V77.4c-1.4 1.3-3.1 2.3-5 2.9v-3.5c1-.3 2.1-1 3.3-1.9s2-2 2.4-3.2H41v20.2zm18.7-3.6v3.6H46.2c.1-1.3.6-2.6 1.3-3.8.7-1.2 2.2-2.8 4.3-4.8 1.7-1.6 2.8-2.7 3.2-3.3.5-.8.8-1.6.8-2.4 0-.9-.2-1.5-.7-2-.5-.5-1.1-.7-1.9-.7-.8 0-1.4.2-1.9.7-.5.5-.7 1.3-.8 2.4l-3.8-.4c.2-2.1.9-3.6 2.1-4.6s2.7-1.4 4.5-1.4c2 0 3.5.5 4.7 1.6 1.1 1.1 1.7 2.4 1.7 4 0 .9-.2 1.8-.5 2.6s-.8 1.7-1.5 2.6c-.5.6-1.3 1.4-2.5 2.6-1.2 1.1-2 1.9-2.3 2.2-.3.4-.6.7-.8 1.1h7.6z" fill="#4c6c7b"/><g transform="translate(0 -952.362)" opacity=".9"><linearGradient id="c" gradientUnits="userSpaceOnUse" x1="35.444" y1="1014.327" x2="35.444" y2="975.551"><stop offset="0" stop-color="#adccdc"/><stop offset="1" stop-color="#4c6c7b"/></linearGradient><path d="M35.4 978.9c3.1 3.1 4.1 7.5 2.9 11.5l16.5 16.5.4 7.4-9.3-.8v-4.7h-4.7v-4.7h-4.7l-6-6c-3.9 1.2-8.4.2-11.5-2.9-4.5-4.5-4.5-11.8 0-16.3 4.6-4.5 11.9-4.5 16.4 0zm-8.6 3.1a3.32 3.32 0 0 0-4.7 0 3.32 3.32 0 0 0 0 4.7c1.3 1.3 3.4 1.3 4.7 0 1.3-1.3 1.3-3.4 0-4.7z" fill="url(#c)"/></g></svg>