<svg id="Layer_1" xmlns="http://www.w3.org/2000/svg" viewBox="0 0 72 100"><style>.st2{fill:#0b4466}.st3{fill-opacity:0;stroke:#0e5580;stroke-width:.6;stroke-linejoin:round;stroke-miterlimit:1}</style><linearGradient id="SVGID_1_" gradientUnits="userSpaceOnUse" x1="36" y1="3.005" x2="36" y2="101" gradientTransform="matrix(1 0 0 -1 0 102)"><stop offset=".005" stop-color="#002d44"/><stop offset=".056" stop-color="#013852"/><stop offset=".16" stop-color="#0a4d6b"/><stop offset=".274" stop-color="#0f5e82"/><stop offset=".398" stop-color="#0f6d96"/><stop offset=".539" stop-color="#0d77a4"/><stop offset=".711" stop-color="#0a7eae"/><stop offset="1" stop-color="#0881b2"/></linearGradient><path d="M45 1l27 26.7V99H0V1h45z" fill="url(#SVGID_1_)"/><path d="M45 1l27 26.7V99H0V1h45z" fill-opacity="0" stroke="#01415e" stroke-width="2"/><path class="st2" d="M63.6 67l-.1.8-.1 1.1-55.2-.1-.7-.1-.3-.4-.1-.5.1-.4.5-.4h55.9z"/><path class="st3" d="M63.6 67l-.1.8-.1 1.1-55.2-.1-.7-.1-.3-.4-.1-.5.1-.4.5-.4h55.9z"/><path class="st2" d="M11.1 60.9l2 2.1-2.7 1.9-1.4.8h-.5l-.2-.6.9-1.4 1.9-2.8z"/><path class="st3" d="M11.1 60.9l2 2.1-2.7 1.9-1.4.8h-.5l-.2-.6.9-1.4 1.9-2.8z"/><path class="st2" d="M28.9 40.6l4.4 4.5-3.9 3.9-4.3 3.9-4.3 3.8-3.4 2.9-3.6 2.6-2.1-2.1 2-2.9 2.8-3.3 2.2-2.6 2.8-3 3.5-3.7 3.9-4z"/><path class="st3" d="M28.9 40.6l4.4 4.5-3.9 3.9-4.3 3.9-4.3 3.8-3.4 2.9-3.6 2.6-2.1-2.1 2-2.9 2.8-3.3 2.2-2.6 2.8-3 3.5-3.7 3.9-4z"/><path class="st2" d="M49.2 22.3l1.1.1.7.6s.5 1 .5.9v1.2l-.4 1.1-.5.8v.9l.4.5.1.7-.2.9-9 9.6-2.5 2.7-1 1.2-.1.6.1.7-.6.7-.8-.5-.3-1 .2-1 .6-.8 6.3-6.7 5.3-5.9.1-.7-.7.1-3.8 4.1-6.2 6.4-4.4 4.5-4.5-4.2 5.1-5.4 5.8-5.6 5.3-4.9 1.4-1 1-.6h1z"/><path class="st3" d="M49.2 22.3l1.1.1.7.6s.5 1 .5.9v1.2l-.4 1.1-.5.8v.9l.4.5.1.7-.2.9-9 9.6-2.5 2.7-1 1.2-.1.6.1.7-.6.7-.8-.5-.3-1 .2-1 .6-.8 6.3-6.7 5.3-5.9.1-.7-.7.1-3.8 4.1-6.2 6.4-4.4 4.5-4.5-4.2 5.1-5.4 5.8-5.6 5.3-4.9 1.4-1 1-.6h1z"/><linearGradient id="SVGID_2_" gradientUnits="userSpaceOnUse" x1="45.069" y1="74.205" x2="58.569" y2="87.705" gradientTransform="matrix(1 0 0 -1 0 102)"><stop offset=".005" stop-color="#dff1fa"/><stop offset=".3" stop-color="#dceef7"/><stop offset=".443" stop-color="#d3e4ef"/><stop offset=".553" stop-color="#c4d6e3"/><stop offset=".647" stop-color="#b1c5d5"/><stop offset=".73" stop-color="#9ab0c5"/><stop offset=".805" stop-color="#819ab3"/><stop offset=".875" stop-color="#64829f"/><stop offset=".938" stop-color="#426c8c"/><stop offset=".998" stop-color="#06577a"/><stop offset="1" stop-color="#015679"/></linearGradient><path d="M45 1l27 26.7H45V1z" fill="url(#SVGID_2_)"/><path d="M45 1l27 26.7H45V1z" fill-opacity="0" stroke="#01415e" stroke-width="2" stroke-linejoin="bevel"/><path d="M4.9 93V79.4h4.4c1.7 0 2.8.1 3.3.2.8.2 1.4.6 2 1.3.5.7.8 1.6.8 2.6 0 .8-.2 1.5-.5 2.1-.3.6-.7 1-1.2 1.3-.5.3-.9.5-1.4.6-.7.1-1.6.2-2.8.2H7.6V93H4.9zm2.7-11.3v3.9h1.5c1.1 0 1.8-.1 2.2-.2.4-.1.7-.4.9-.7.2-.3.3-.7.3-1.1 0-.5-.1-.9-.4-1.2-.3-.3-.7-.5-1.1-.6-.3-.1-1-.1-2-.1H7.6zM28.4 93h-3l-1.2-3.1h-5.4L17.7 93h-2.9l5.3-13.6H23L28.4 93zm-5-5.4l-1.9-5-1.8 5h3.7zm12.8.4v-2.3h5.9v5.4c-.6.6-1.4 1-2.5 1.5-1.1.4-2.2.6-3.3.6-1.4 0-2.7-.3-3.7-.9s-1.9-1.5-2.4-2.6-.8-2.3-.8-3.6c0-1.4.3-2.7.9-3.8.6-1.1 1.5-1.9 2.6-2.5.9-.5 2-.7 3.3-.7 1.7 0 3 .4 4 1.1.9.7 1.6 1.7 1.8 2.9l-2.7.5c-.2-.7-.6-1.2-1.1-1.6-.5-.4-1.2-.6-2-.6-1.2 0-2.2.4-2.9 1.1-.7.8-1.1 1.9-1.1 3.4 0 1.6.4 2.8 1.1 3.6.7.8 1.7 1.2 2.8 1.2.6 0 1.2-.1 1.7-.3.6-.2 1.1-.5 1.5-.8V88h-3.1zm8.5 5V79.4h10.1v2.3h-7.3v3h6.8V87h-6.8v3.7H55V93H44.7zm11.9-4.4l2.7-.3c.2.9.5 1.6 1 2 .5.4 1.2.6 2 .6.9 0 1.6-.2 2-.6.4-.3.7-.8.7-1.3 0-.3-.1-.6-.3-.8-.2-.2-.5-.4-1-.6-.3-.1-1.1-.3-2.2-.6-1.5-.4-2.5-.8-3.1-1.3-.8-.7-1.3-1.7-1.3-2.7 0-.7.2-1.3.6-1.9.4-.6 1-1.1 1.7-1.4s1.6-.5 2.7-.5c1.7 0 3 .4 3.9 1.1.9.7 1.3 1.7 1.4 3l-2.7.1c-.1-.7-.4-1.2-.8-1.5-.4-.3-1-.5-1.7-.5-.8 0-1.4.2-1.9.5-.3.2-.4.5-.4.8 0 .3.1.6.4.8.3.3 1.2.6 2.5.9 1.3.3 2.3.6 3 1 .6.3 1.1.8 1.5 1.4.4.6.5 1.3.5 2.2 0 .8-.2 1.5-.6 2.2-.4.7-1 1.2-1.8 1.5-.8.3-1.8.5-3 .5-1.7 0-3-.4-4-1.2-1-.8-1.6-1.9-1.8-3.4z" fill="#fff"/></svg>