<svg xmlns="http://www.w3.org/2000/svg" viewBox="0 0 72 100"><linearGradient id="a" gradientUnits="userSpaceOnUse" x1="36.108" y1="3.003" x2="36.108" y2="101.001" gradientTransform="matrix(1 0 0 -1 0 102)"><stop offset="0" stop-color="#c8d4db"/><stop offset=".139" stop-color="#d8e1e6"/><stop offset=".359" stop-color="#ebf0f3"/><stop offset=".617" stop-color="#f9fafb"/><stop offset="1" stop-color="#fff"/></linearGradient><path d="M45.1 1L72 27.7V99H.2V1h44.9z" fill="url(#a)"/><path d="M45.1 1L72 27.7V99H.2V1h44.9z" stroke="#7191a1" stroke-width="2" fill="none"/><linearGradient id="b" gradientUnits="userSpaceOnUse" x1="36" y1="62.974" x2="36" y2="21.026"><stop offset="0" stop-color="#7291a1"/><stop offset="1" stop-color="#cad5db"/></linearGradient><path d="M56.3 46.1c-1.8-.6-2.9-2.2-2.9-4.1s1.2-3.5 2.9-4.1c.5-.2.9-.8.7-1.3-.5-2-1.3-3.8-2.3-5.6-.3-.5-.9-.7-1.5-.4-.6.3-1.4.5-2.1.5-2.4 0-4.3-2-4.3-4.3 0-.7.2-1.5.5-2.1.3-.5.1-1.1-.4-1.5-1.7-1-3.6-1.8-5.6-2.3-.5-.2-1.1.2-1.3.7-.6 1.8-2.2 2.9-4.1 2.9-1.9 0-3.5-1.2-4.1-2.9-.2-.5-.8-.9-1.3-.7-2 .5-3.8 1.3-5.6 2.3-.5.3-.7.9-.4 1.5.3.6.5 1.4.5 2.1 0 2.4-2 4.3-4.3 4.3-.7 0-1.5-.2-2.1-.5-.5-.3-1.1-.1-1.5.4-1 1.7-1.8 3.6-2.3 5.6-.2.5.2 1.1.7 1.3 1.8.6 2.9 2.2 2.9 4.1s-1.2 3.5-2.9 4.1c-.5.2-.9.8-.7 1.3.5 2 1.3 3.8 2.3 5.6.3.5.9.7 1.5.4.6-.3 1.4-.5 2.1-.5 2.4 0 4.3 2 4.3 4.3 0 .7-.2 1.5-.5 2.1-.3.5-.1 1.1.4 1.5 1.7 1 3.6 1.8 5.6 2.3h.3c.4 0 .9-.3 1-.8.6-1.8 2.2-2.9 4.1-2.9 1.9 0 3.5 1.2 4.1 2.9.2.5.8.9 1.3.7 2-.5 3.8-1.3 5.6-2.3.5-.3.7-.9.4-1.5-.3-.6-.5-1.4-.5-2.1 0-2.4 2-4.3 4.3-4.3.7 0 1.5.2 2.1.5.5.3 1.1.1 1.5-.4 1-1.7 1.8-3.6 2.3-5.6.1-.4-.1-1-.7-1.2zm-20.2 2.4c-3.6 0-6.5-2.9-6.5-6.5s2.9-6.5 6.5-6.5 6.5 2.9 6.5 6.5-2.9 6.5-6.5 6.5z" fill="url(#b)"/><path d="M14.5 91.1V71.2H21c2.5 0 4.1.1 4.8.3 1.1.3 2.1.9 2.9 1.9.8 1 1.2 2.3 1.2 3.9 0 1.2-.2 2.2-.7 3.1-.4.8-1 1.5-1.7 2s-1.4.8-2.1.9c-1 .2-2.4.3-4.2.3h-2.6v7.5h-4.1zm4-16.5v5.6h2.2c1.6 0 2.7-.1 3.2-.3.5-.2 1-.5 1.3-1 .3-.4.5-1 .5-1.5 0-.7-.2-1.3-.6-1.8-.4-.5-1-.8-1.6-.9-.5-.1-1.4-.1-2.9-.1h-2.1zM33 91.1V71.2h4V91h-4zm7.9-19.9h7.4c1.7 0 2.9.1 3.8.4 1.2.3 2.2 1 3 1.8.8.9 1.5 1.9 1.9 3.2s.7 2.8.7 4.7c0 1.6-.2 3-.6 4.2-.5 1.4-1.2 2.6-2.1 3.5-.7.7-1.6 1.2-2.8 1.6-.9.3-2.1.4-3.6.4H41V71.2zm4 3.4v13.1h3c1.1 0 1.9-.1 2.4-.2.7-.2 1.2-.4 1.6-.8.4-.4.8-1 1.1-1.9s.4-2.1.4-3.6-.1-2.7-.4-3.5-.7-1.5-1.1-1.9-1.1-.8-1.9-.9c-.6-.1-1.7-.2-3.3-.2h-1.8z" fill="#4c6c7b"/><linearGradient id="c" gradientUnits="userSpaceOnUse" x1="45.122" y1="74.229" x2="58.575" y2="87.683" gradientTransform="matrix(1 0 0 -1 0 102)"><stop offset="0" stop-color="#fff"/><stop offset=".35" stop-color="#fafbfb"/><stop offset=".532" stop-color="#edf1f4"/><stop offset=".675" stop-color="#dde5e9"/><stop offset=".799" stop-color="#c7d3da"/><stop offset=".908" stop-color="#adbdc7"/><stop offset="1" stop-color="#92a5b0"/></linearGradient><path d="M45.1 1L72 27.7H45.1V1z" fill="url(#c)"/><path d="M45.1 1L72 27.7H45.1V1z" stroke="#7191a1" stroke-width="2" stroke-linejoin="bevel" fill="none"/></svg>