<svg xmlns="http://www.w3.org/2000/svg" viewBox="0 0 72 100"><linearGradient id="a" gradientUnits="userSpaceOnUse" x1="36.2" y1="3.014" x2="36.2" y2="101.001" gradientTransform="matrix(1 0 0 -1 0 102)"><stop offset="0" stop-color="#c8d4db"/><stop offset=".139" stop-color="#d8e1e6"/><stop offset=".359" stop-color="#ebf0f3"/><stop offset=".617" stop-color="#f9fafb"/><stop offset="1" stop-color="#fff"/></linearGradient><path d="M45.2 1l27.1 26.7V99H.1V1h45.1z" fill="url(#a)"/><path d="M45.2 1l27.1 26.7V99H.1V1h45.1z" fill-opacity="0" stroke="#7191a1" stroke-width="2"/><path d="M6.6 90.1V70.2h6.5c2.5 0 4.1.1 4.8.3 1.2.3 2.1.9 2.9 1.9.8 1 1.2 2.3 1.2 3.9 0 1.2-.2 2.2-.7 3.1-.4.8-1 1.5-1.7 2s-1.4.8-2.1.9c-1 .2-2.4.3-4.2.3h-2.6v7.5H6.6zm4.1-16.5v5.6h2.2c1.6 0 2.7-.1 3.2-.3.5-.2 1-.5 1.3-1 .3-.4.5-1 .5-1.5 0-.7-.2-1.3-.6-1.8-.4-.5-1-.8-1.6-.9-.5-.1-1.5-.1-2.9-.1h-2.1zm13.8 6.7c0-2 .3-3.7.9-5.1.5-1 1.1-1.9 1.9-2.7.8-.8 1.7-1.4 2.6-1.8 1.3-.5 2.7-.8 4.3-.8 3 0 5.3.9 7.1 2.7 1.8 1.8 2.7 4.3 2.7 7.6 0 3.2-.9 5.7-2.6 7.5s-4.1 2.7-7.1 2.7-5.4-.9-7.1-2.7-2.7-4.3-2.7-7.4zm4.2-.2c0 2.2.5 3.9 1.6 5.1s2.4 1.7 4 1.7 2.9-.6 4-1.7 1.6-2.9 1.6-5.2c0-2.3-.5-4-1.5-5.1-1-1.1-2.4-1.7-4-1.7s-3 .6-4 1.7c-1.2 1.2-1.7 3-1.7 5.2zm18.5 10V70.2h6.1l3.6 13.5 3.6-13.5h6.1V90h-3.8V74.5l-4 15.6h-3.9l-4-15.6v15.6h-3.7z" fill="#4c6c7b"/><linearGradient id="b" gradientUnits="userSpaceOnUse" x1="31.747" y1="69.935" x2="31.747" y2="69.986" gradientTransform="matrix(1 0 0 -1 0 102)"><stop offset="0" stop-color="#adccdc"/><stop offset="1" stop-color="#4c6c7b"/></linearGradient><path d="M31.8 32c-.1.1-.1.1 0 0" fill="url(#b)"/><linearGradient id="c" gradientUnits="userSpaceOnUse" x1="45.324" y1="74.184" x2="58.871" y2="87.731" gradientTransform="matrix(1 0 0 -1 0 102)"><stop offset="0" stop-color="#fff"/><stop offset=".35" stop-color="#fafbfb"/><stop offset=".532" stop-color="#edf1f4"/><stop offset=".675" stop-color="#dde5e9"/><stop offset=".799" stop-color="#c7d3da"/><stop offset=".908" stop-color="#adbdc7"/><stop offset="1" stop-color="#92a5b0"/></linearGradient><path d="M45.2 1l27.1 26.7H45.2V1z" fill="url(#c)"/><linearGradient id="d" gradientUnits="userSpaceOnUse" x1="22.788" y1="46" x2="57.212" y2="46"><stop offset="0" stop-color="#adccdc"/><stop offset="1" stop-color="#4c6c7b"/></linearGradient><path d="M56.5 27.1s-14.4.2-23.6 11.9c-.5.7-1 1.3-1.5 2-.3.4-.6 4.4-.6 4.4s-.4-.3-.6-.8c-.3-.6-.4-1.3-.4-1.3-5.2 8.5-3.7 12.9-3.7 12.9-.4 1-1.2 1.6-2.3 3.9-1.1 2.3-1 4.5-1 4.5 0 .4.1.5.3.1 0 0 1.2-2.3 2.1-3.8.6-1 2.4-3.3 2.4-3.3s3 .1 6.6-.8c-.3-.1-1.3-.4-2-.7-.7-.3-1.1-.8-1.1-.8l12.9-3c1.8-1.1 3.4-2.4 4.7-4 6.8-8.1 8.5-20.5 8.5-20.5.1-.4-.2-.7-.7-.7zM43.7 40s-6 5.3-9 8.1-7 9.5-7 9.5l-1.5-1.4s1.1-2.7 5.5-8.1 11.8-8.6 11.8-8.6c.9-.4 1-.2.2.5z" fill="url(#d)"/><path d="M45.2 1l27.1 26.7H45.2V1z" fill-opacity="0" stroke="#7191a1" stroke-width="2" stroke-linejoin="bevel"/></svg>