<svg xmlns="http://www.w3.org/2000/svg" viewBox="0 0 72 100"><linearGradient id="a" gradientUnits="userSpaceOnUse" x1="36" y1="101" x2="36" y2="3.004" gradientTransform="matrix(1 0 0 -1 0 102)"><stop offset="0" stop-color="#f8b0b8"/><stop offset=".211" stop-color="#f6acb5"/><stop offset=".37" stop-color="#f2a3ad"/><stop offset=".512" stop-color="#ed95a1"/><stop offset=".645" stop-color="#e78292"/><stop offset=".77" stop-color="#e06980"/><stop offset=".889" stop-color="#d7486b"/><stop offset="1" stop-color="#ce0757"/></linearGradient><path d="M45.1 1l27.2 26.7V99H-.2V1h45.3z" fill="url(#a)"/><path d="M45.1 1l27.2 26.7V99H-.2V1h45.3z" fill-opacity="0" stroke="#d41c5c" stroke-width="2"/><path d="M20 91.1V71.2h6.5c2.5 0 4.1.1 4.8.3 1.2.3 2.1.9 2.9 1.9.8 1 1.2 2.3 1.2 3.9 0 1.2-.2 2.2-.7 3.1s-1 1.5-1.7 2-1.4.8-2.1.9c-1 .2-2.4.3-4.2.3H24v7.5h-4zm4.1-16.5v5.6h2.2c1.6 0 2.7-.1 3.2-.3.5-.2 1-.5 1.3-1 .3-.4.5-1 .5-1.5 0-.7-.2-1.3-.6-1.8-.4-.5-1-.8-1.6-.9-.5-.1-1.5-.1-2.9-.1h-2.1zm13.7 10l4-.4c.2 1.3.7 2.3 1.5 2.9.7.6 1.7.9 3 .9s2.3-.3 3-.8c.7-.5 1-1.2 1-1.9 0-.5-.1-.9-.4-1.2-.3-.3-.8-.6-1.5-.9-.5-.2-1.6-.5-3.3-.9-2.2-.5-3.7-1.2-4.6-2-1.2-1.1-1.9-2.4-1.9-4 0-1 .3-2 .9-2.8.6-.9 1.4-1.5 2.5-2s2.4-.7 4-.7c2.5 0 4.4.5 5.7 1.6 1.3 1.1 2 2.5 2 4.4l-4.1.2c-.2-1-.5-1.8-1.1-2.2-.6-.4-1.4-.7-2.6-.7-1.2 0-2.1.2-2.8.7-.4.3-.6.7-.6 1.2s.2.9.6 1.2c.5.4 1.8.9 3.7 1.3s3.4.9 4.4 1.4c.9.5 1.7 1.2 2.2 2 .5.9.8 1.9.8 3.2 0 1.1-.3 2.2-1 3.2-.6 1-1.6 1.7-2.7 2.2s-2.6.7-4.4.7c-2.6 0-4.5-.6-5.9-1.7-1.3-1-2.2-2.7-2.4-4.9z" fill="#fff"/><linearGradient id="b" gradientUnits="userSpaceOnUse" x1="1729.689" y1="-415.956" x2="1753.864" y2="-415.956" gradientTransform="scale(-1 1) rotate(-35.88 1555.712 2555.727)"><stop offset="0" stop-color="#ee2868"/><stop offset="1" stop-color="#bc024f"/></linearGradient><path d="M22 62.3L17.4 59s7.7-15.2 4.7-20.8l16.3-12.6s6.2 1 9.3 6.5l-7 19.1C34.3 50.3 22 62.3 22 62.3zm11.1-19.8c1.3.9 3 .6 3.9-.6.9-1.3.6-3-.6-3.9-1.3-.9-3-.6-3.9.6-1 1.2-.7 3 .6 3.9zm0 0L19.8 60.6m39.3-34.4c-6.2-11.8-19.6-14-19.6-14l-6 8.2c13.4 2.2 19.6 14 19.6 14l6-8.2z" opacity=".73" fill="url(#b)"/><path d="M19.9 60.8l13.4-18.2" fill-opacity="0" stroke="#f8b6bb"/><linearGradient id="c" gradientUnits="userSpaceOnUse" x1="45.178" y1="74.159" x2="58.772" y2="87.753" gradientTransform="matrix(1 0 0 -1 0 102)"><stop offset="0" stop-color="#fffeee"/><stop offset=".265" stop-color="#fffaec"/><stop offset=".402" stop-color="#fef2e6"/><stop offset=".51" stop-color="#fce7dc"/><stop offset=".604" stop-color="#fad7cf"/><stop offset=".687" stop-color="#f6c3bf"/><stop offset=".763" stop-color="#f2abac"/><stop offset=".834" stop-color="#ee8f97"/><stop offset=".901" stop-color="#ea6f82"/><stop offset=".962" stop-color="#e5446d"/><stop offset="1" stop-color="#e30e60"/></linearGradient><path d="M45.1 1l27.2 26.7H45.1V1z" fill="url(#c)"/><path d="M45.1 1l27.2 26.7H45.1V1z" fill-opacity="0" stroke="#d41c5c" stroke-width="2" stroke-linejoin="bevel"/></svg>