<svg id="Layer_1" xmlns="http://www.w3.org/2000/svg" viewBox="0 0 72 100"><style>.st0{opacity:.99}</style><g class="st0"><linearGradient id="SVGID_1_" gradientUnits="userSpaceOnUse" x1="36.15" y1="2.887" x2="36.15" y2="101.126" gradientTransform="matrix(1 0 0 -1 0 102)"><stop offset="0" stop-color="#595593"/><stop offset=".012" stop-color="#5b5794"/><stop offset=".182" stop-color="#7b77aa"/><stop offset=".352" stop-color="#9896bf"/><stop offset=".521" stop-color="#b2b2d2"/><stop offset=".687" stop-color="#c7c9e2"/><stop offset=".848" stop-color="#d6d9ec"/><stop offset="1" stop-color="#dbdff0"/></linearGradient><path d="M45.2.9l27.1 26.8v71.4H0V.9h45.2z" fill="url(#SVGID_1_)"/><path d="M45.2.9l27.1 26.8v71.4H0V.9h45.2z" fill-opacity="0" stroke="#2d3293" stroke-width="2"/></g><path d="M6.4 91.2V71.3h8.5c2.1 0 3.7.2 4.7.5 1 .4 1.8 1 2.3 1.9.6.9.9 2 .9 3.1 0 1.5-.4 2.7-1.3 3.7s-2.2 1.6-4 1.8c.9.5 1.6 1.1 2.2 1.7.6.6 1.3 1.7 2.3 3.2l2.5 3.9h-4.9l-2.9-4.3c-1-1.5-1.8-2.5-2.1-2.9-.4-.4-.8-.7-1.2-.8-.4-.1-1.1-.2-2-.2h-.8v8.3H6.4zm4-11.5h3c1.9 0 3.2-.1 3.6-.2.5-.2.9-.4 1.1-.8.3-.4.4-.9.4-1.5 0-.7-.2-1.2-.5-1.6-.4-.4-.9-.7-1.5-.8-.3 0-1.3-.1-3-.1h-3.2v5zm34.4 11.5h-4.4l-1.8-4.5h-8l-1.7 4.5h-4.3l7.8-19.9h4.3l8.1 19.9zm-7.5-7.9l-2.8-7.4-2.7 7.4h5.5zm9.6 7.9V71.3H53l3.7 13.6 3.6-13.6h6.1v19.9h-3.8V75.5l-4 15.7h-3.9l-4-15.7v15.7h-3.8z" fill="#fff"/><linearGradient id="SVGID_2_" gradientUnits="userSpaceOnUse" x1="10.784" y1="45.054" x2="22.307" y2="45.054"><stop offset="0" stop-color="#352c7f"/><stop offset=".074" stop-color="#3e3786"/><stop offset=".266" stop-color="#544f96"/><stop offset=".457" stop-color="#6763a5"/><stop offset=".645" stop-color="#7572b1"/><stop offset=".827" stop-color="#7e7cba"/><stop offset="1" stop-color="#8180bd"/></linearGradient><linearGradient id="SVGID_3_" gradientUnits="userSpaceOnUse" x1="10.034" y1="45.054" x2="23.057" y2="45.054"><stop offset="0" stop-color="#352c7f"/><stop offset=".074" stop-color="#3e3786"/><stop offset=".266" stop-color="#544f96"/><stop offset=".457" stop-color="#6763a5"/><stop offset=".645" stop-color="#7572b1"/><stop offset=".827" stop-color="#7e7cba"/><stop offset="1" stop-color="#8180bd"/></linearGradient><path d="M22.3 54.7l-8.7-9.6V45l8.7-9.6V29L10.8 42.5v5.1l11.5 13.5z" stroke-miterlimit="10" fill="url(#SVGID_2_)" stroke="url(#SVGID_3_)" stroke-width="1.5"/><linearGradient id="SVGID_4_" gradientUnits="userSpaceOnUse" x1="51.476" y1="45.054" x2="63" y2="45.054"><stop offset="0" stop-color="#352c7f"/><stop offset=".074" stop-color="#3e3786"/><stop offset=".266" stop-color="#544f96"/><stop offset=".457" stop-color="#6763a5"/><stop offset=".645" stop-color="#7572b1"/><stop offset=".827" stop-color="#7e7cba"/><stop offset="1" stop-color="#8180bd"/></linearGradient><linearGradient id="SVGID_5_" gradientUnits="userSpaceOnUse" x1="50.726" y1="45.054" x2="63.75" y2="45.054"><stop offset="0" stop-color="#352c7f"/><stop offset=".074" stop-color="#3e3786"/><stop offset=".266" stop-color="#544f96"/><stop offset=".457" stop-color="#6763a5"/><stop offset=".645" stop-color="#7572b1"/><stop offset=".827" stop-color="#7e7cba"/><stop offset="1" stop-color="#8180bd"/></linearGradient><path d="M51.5 29v6.4l8.9 9.6v.1l-8.9 9.6v6.4L63 47.8v-5.5z" stroke-width="1.5" fill="url(#SVGID_4_)" stroke="url(#SVGID_5_)" stroke-miterlimit="10"/><linearGradient id="SVGID_6_" gradientUnits="userSpaceOnUse" x1="25.065" y1="45.044" x2="48.935" y2="45.044"><stop offset="0" stop-color="#352c7f"/><stop offset=".074" stop-color="#3e3786"/><stop offset=".266" stop-color="#544f96"/><stop offset=".457" stop-color="#6763a5"/><stop offset=".645" stop-color="#7572b1"/><stop offset=".827" stop-color="#7e7cba"/><stop offset="1" stop-color="#8180bd"/></linearGradient><linearGradient id="SVGID_7_" gradientUnits="userSpaceOnUse" x1="24.565" y1="45.044" x2="49.435" y2="45.044"><stop offset="0" stop-color="#352c7f"/><stop offset=".074" stop-color="#3e3786"/><stop offset=".266" stop-color="#544f96"/><stop offset=".457" stop-color="#6763a5"/><stop offset=".645" stop-color="#7572b1"/><stop offset=".827" stop-color="#7e7cba"/><stop offset="1" stop-color="#8180bd"/></linearGradient><path d="M42.8 33.9c-1.5-.7-3.4-1.8-4.1-3.4 0-.8-.7-1.5-1.5-1.5s-1.5.7-1.5 1.5v19.6c-1.5-.8-4.4-.6-6.7.7-3.4 1.9-4.9 5.5-3.4 8.1 1.5 2.5 5.6 3 9 1.1 2.4-1.3 4-3.6 4.1-5.8V37.3c5 0 7.9 2 6.8 6.8-.2.9-.5 1.8-.9 2.6-.2.3-.2.6.1.9.2.2.7.2 1.1-.2 1.9-1.8 3-4.2 3.1-6.8.1-3.3-3.2-5.4-6.1-6.7z" fill="url(#SVGID_6_)" stroke="url(#SVGID_7_)" stroke-miterlimit="10"/><g class="st0"><linearGradient id="SVGID_8_" gradientUnits="userSpaceOnUse" x1="58.321" y1="87.273" x2="50.783" y2="78.839" gradientTransform="matrix(1 0 0 -1 0 102)"><stop offset="0" stop-color="#595593"/><stop offset=".07" stop-color="#706ca2"/><stop offset=".159" stop-color="#8988b5"/><stop offset=".255" stop-color="#a3a5c8"/><stop offset=".359" stop-color="#babfd9"/><stop offset=".471" stop-color="#ced5e7"/><stop offset=".598" stop-color="#dee6f2"/><stop offset=".751" stop-color="#e9f3fa"/><stop offset="1" stop-color="#ecf8fe"/></linearGradient><path d="M45.2.9l27.1 26.8H45.2V.9z" fill="url(#SVGID_8_)"/><path d="M45.2.9l27.1 26.8H45.2V.9z" fill-opacity="0" stroke="#2d3293" stroke-width="2" stroke-linejoin="bevel"/></g></svg>