<svg xmlns="http://www.w3.org/2000/svg" viewBox="0 0 72 100"><linearGradient id="a" gradientUnits="userSpaceOnUse" x1="36" y1="97" x2="36" y2="-1" gradientTransform="translate(0 2)"><stop offset="0" stop-color="#c8d4db"/><stop offset=".139" stop-color="#d8e1e6"/><stop offset=".359" stop-color="#ebf0f3"/><stop offset=".617" stop-color="#f9fafb"/><stop offset="1" stop-color="#fff"/></linearGradient><path d="M45 1l27 26.7V99H0V1h45z" fill="url(#a)"/><path d="M45 1l27 26.7V99H0V1h45z" stroke="#7191a1" stroke-width="2" fill="none"/><g opacity=".9"><linearGradient id="b" gradientUnits="userSpaceOnUse" x1="19.014" y1="60.793" x2="19.014" y2="32.603"><stop offset="0" stop-color="#adccdc"/><stop offset=".153" stop-color="#9ab9c9"/><stop offset=".529" stop-color="#708f9f"/><stop offset=".824" stop-color="#567685"/><stop offset="1" stop-color="#4c6c7b"/></linearGradient><linearGradient id="c" gradientUnits="userSpaceOnUse" x1="19.014" y1="62.979" x2="19.014" y2="30.418"><stop offset="0" stop-color="#adccdc"/><stop offset=".153" stop-color="#9ab9c9"/><stop offset=".529" stop-color="#708f9f"/><stop offset=".824" stop-color="#567685"/><stop offset="1" stop-color="#4c6c7b"/></linearGradient><path d="M12 44.7l14-12.1v6.1l-9.5 7.9v.1l9.5 7.9v6.1l-14-12v-4z" fill="url(#b)" stroke="url(#c)" stroke-width="2" stroke-miterlimit="10"/><linearGradient id="d" gradientUnits="userSpaceOnUse" x1="36.686" y1="64.5" x2="36.686" y2="29.5"><stop offset="0" stop-color="#adccdc"/><stop offset=".153" stop-color="#9ab9c9"/><stop offset=".529" stop-color="#708f9f"/><stop offset=".824" stop-color="#567685"/><stop offset="1" stop-color="#4c6c7b"/></linearGradient><linearGradient id="e" gradientUnits="userSpaceOnUse" x1="36.688" y1="65.5" x2="36.688" y2="28.5"><stop offset="0" stop-color="#adccdc"/><stop offset=".153" stop-color="#9ab9c9"/><stop offset=".529" stop-color="#708f9f"/><stop offset=".824" stop-color="#567685"/><stop offset="1" stop-color="#4c6c7b"/></linearGradient><path d="M38.4 29.5h3.7l-7.2 35h-3.6l7.1-35z" fill="url(#d)" stroke="url(#e)" stroke-width="2" stroke-miterlimit="10"/><linearGradient id="f" gradientUnits="userSpaceOnUse" x1="54.186" y1="61.052" x2="54.186" y2="32.69"><stop offset="0" stop-color="#adccdc"/><stop offset=".153" stop-color="#9ab9c9"/><stop offset=".529" stop-color="#708f9f"/><stop offset=".824" stop-color="#567685"/><stop offset="1" stop-color="#4c6c7b"/></linearGradient><linearGradient id="g" gradientUnits="userSpaceOnUse" x1="54.186" y1="63.238" x2="54.186" y2="30.504"><stop offset="0" stop-color="#adccdc"/><stop offset=".153" stop-color="#9ab9c9"/><stop offset=".529" stop-color="#708f9f"/><stop offset=".824" stop-color="#567685"/><stop offset="1" stop-color="#4c6c7b"/></linearGradient><path d="M47.2 54.8l9.5-7.9v-.1l-9.5-7.9v-6.1l14 12.1V49l-14 12.1v-6.3z" fill="url(#f)" stroke="url(#g)" stroke-width="2" stroke-miterlimit="10"/></g><linearGradient id="h" gradientUnits="userSpaceOnUse" x1="45.037" y1="25.813" x2="58.537" y2="12.313" gradientTransform="translate(0 2)"><stop offset="0" stop-color="#fff"/><stop offset=".35" stop-color="#fafbfb"/><stop offset=".532" stop-color="#edf1f4"/><stop offset=".675" stop-color="#dde5e9"/><stop offset=".799" stop-color="#c7d3da"/><stop offset=".908" stop-color="#adbdc7"/><stop offset="1" stop-color="#92a5b0"/></linearGradient><path d="M45 1l27 26.7H45V1z" fill="url(#h)"/><path d="M45 1l27 26.7H45V1z" stroke="#7191a1" stroke-width="2" stroke-linejoin="bevel" fill="none"/><path d="M10.1 91.5V72.2h8.3c2.1 0 3.6.2 4.5.5.9.3 1.7 1 2.3 1.9s.9 1.9.9 3c0 1.4-.4 2.6-1.3 3.6-.9.9-2.1 1.5-3.9 1.8.9.5 1.6 1 2.1 1.6.6.6 1.3 1.6 2.2 3.1l2.4 3.8H23l-2.9-4.2c-1-1.5-1.7-2.5-2.1-2.8-.4-.4-.8-.7-1.2-.8-.4-.1-1.1-.2-2-.2H14v8.1h-3.9zm4-11.1H17c1.9 0 3.1-.1 3.5-.2s.8-.4 1.1-.8c.3-.4.4-.9.4-1.5 0-.7-.2-1.2-.5-1.6-.4-.4-.8-.7-1.5-.8-.3 0-1.3-.1-2.9-.1H14v5zm15.7-8.2H37c1.6 0 2.9.1 3.7.4 1.1.3 2.1.9 2.9 1.8.8.9 1.4 1.9 1.9 3.1.4 1.2.6 2.8.6 4.6 0 1.6-.2 3-.6 4.1-.5 1.4-1.2 2.5-2.1 3.4-.7.7-1.6 1.2-2.8 1.5-.9.3-2 .4-3.5.4h-7.4V72.2zm3.9 3.3v12.8h2.9c1.1 0 1.9-.1 2.4-.2.6-.2 1.2-.4 1.6-.8s.8-1 1-1.9c.3-.9.4-2 .4-3.5s-.1-2.6-.4-3.4c-.3-.8-.6-1.4-1.1-1.9-.5-.4-1.1-.8-1.8-.9-.6-.1-1.6-.2-3.2-.2h-1.8zm15.9 16V72.4h3.9v15.9h9.8v3.3H49.6z" fill="#4c6c7b"/></svg>