<svg id="Layer_1" xmlns="http://www.w3.org/2000/svg" viewBox="0 0 72 100"><style>.st0{opacity:.99}</style><g class="st0"><linearGradient id="SVGID_1_" gradientUnits="userSpaceOnUse" x1="36.2" y1="3.005" x2="36.2" y2="101" gradientTransform="matrix(1 0 0 -1 0 102)"><stop offset="0" stop-color="#006b69"/><stop offset=".124" stop-color="#00807f"/><stop offset=".262" stop-color="#009393"/><stop offset=".41" stop-color="#00a3a3"/><stop offset=".571" stop-color="#00b0af"/><stop offset=".752" stop-color="#08b8b7"/><stop offset="1" stop-color="#14bbbb"/></linearGradient><path d="M45.2 1l26.9 26.7V99H.3V1h44.9z" fill="url(#SVGID_1_)"/><path d="M45.2 1l26.9 26.7V99H.3V1h44.9z" fill-opacity="0" stroke="#006e6c" stroke-width="2"/></g><linearGradient id="SVGID_2_" gradientUnits="userSpaceOnUse" x1="37.5" y1="61" x2="37.5" y2="21"><stop offset=".005" stop-color="#008281"/><stop offset=".343" stop-color="#006a69"/><stop offset="1" stop-color="#003836"/></linearGradient><path d="M17.5 56.2v-4.8H27V61h-9.6v-4.8zm14.3 0v-4.8h9.6V61h-9.6v-4.8zm14.3 0v-4.8h9.6V61h-9.6v-4.8zm1.4-10.9L44.1 42l3.3-3.4 3.4-3.3 3.4 3.3 3.3 3.4-3.3 3.3c-1.8 1.9-3.4 3.4-3.4 3.4s-1.5-1.5-3.3-3.4zm-30-3.3v-4.8H27v9.6h-9.6V42zm14.3 0v-4.8h9.6v9.6h-9.6V42zm1.4-11l-3.3-3.3 3.3-3.4 3.4-3.3 3.4 3.3 3.3 3.4-3.4 3.3c-1.8 1.9-3.4 3.4-3.4 3.4S35 32.9 33.2 31zm-15.7-3.3v-4.8H27v9.6h-9.6v-4.8z" fill="url(#SVGID_2_)"/><path d="M8 91.1V71.2h8.5c2.1 0 3.7.2 4.7.5s1.7 1 2.3 1.9c.6.9.9 2 .9 3.1 0 1.5-.4 2.7-1.3 3.7s-2.2 1.6-4 1.8c.9.5 1.6 1.1 2.2 1.7.6.6 1.3 1.7 2.3 3.2L26 91h-4.8l-2.9-4.3c-1-1.5-1.7-2.5-2.1-2.9-.4-.4-.8-.7-1.2-.8-.4-.1-1.1-.2-2-.2h-1v8.3H8zm4-11.5h3c1.9 0 3.1-.1 3.6-.2s.9-.4 1.1-.8c.3-.4.4-.9.4-1.5 0-.7-.2-1.2-.5-1.6-.4-.4-.9-.7-1.5-.8-.3 0-1.3-.1-2.9-.1H12v5zm16.1 11.5V71.2H43v3.4H32.2V79h10v3.3h-10v5.4h11.2V91H28.1zm28-7.3v-3.3h8.7v7.9c-.8.8-2.1 1.5-3.7 2.1-1.6.6-3.2.9-4.9.9-2.1 0-3.9-.4-5.5-1.3S48 88 47.2 86.4c-.8-1.6-1.2-3.4-1.2-5.3 0-2.1.4-3.9 1.3-5.5s2.1-2.8 3.8-3.7c1.3-.7 2.9-1 4.8-1 2.5 0 4.4.5 5.8 1.5s2.3 2.5 2.7 4.3l-4 .7c-.3-1-.8-1.7-1.6-2.3-.8-.6-1.7-.8-2.9-.8-1.8 0-3.2.6-4.2 1.7s-1.6 2.8-1.6 4.9c0 2.4.5 4.1 1.6 5.3s2.4 1.8 4.1 1.8c.8 0 1.7-.2 2.5-.5s1.6-.7 2.2-1.2v-2.5h-4.4z" fill="#fff"/><g class="st0"><linearGradient id="SVGID_3_" gradientUnits="userSpaceOnUse" x1="45.214" y1="74.229" x2="58.667" y2="87.682" gradientTransform="matrix(1 0 0 -1 0 102)"><stop offset="0" stop-color="#d6ede8"/><stop offset=".297" stop-color="#d3ebe6"/><stop offset=".44" stop-color="#c7e3df"/><stop offset=".551" stop-color="#b7d8d5"/><stop offset=".645" stop-color="#a0cbc9"/><stop offset=".729" stop-color="#84bab9"/><stop offset=".804" stop-color="#62a7a7"/><stop offset=".874" stop-color="#349394"/><stop offset=".938" stop-color="#007f7f"/><stop offset=".998" stop-color="#006b6a"/><stop offset="1" stop-color="#006b69"/></linearGradient><path d="M45.2 1l26.9 26.7H45.2V1z" fill="url(#SVGID_3_)"/><path d="M45.2 1l26.9 26.7H45.2V1z" fill-opacity="0" stroke="#006e6c" stroke-width="2" stroke-linejoin="bevel"/></g></svg>