<svg xmlns="http://www.w3.org/2000/svg" viewBox="0 0 72 100"><linearGradient id="a" gradientUnits="userSpaceOnUse" x1="36" y1="97" x2="36" y2="-1" gradientTransform="translate(0 2)"><stop offset="0" stop-color="#c8d4db"/><stop offset=".139" stop-color="#d8e1e6"/><stop offset=".359" stop-color="#ebf0f3"/><stop offset=".617" stop-color="#f9fafb"/><stop offset="1" stop-color="#fff"/></linearGradient><path d="M45 1l27 26.7V99H0V1h45z" fill="url(#a)"/><path d="M45 1l27 26.7V99H0V1h45z" stroke="#7191a1" stroke-width="2" fill="none"/><linearGradient id="b" gradientUnits="userSpaceOnUse" x1="45.037" y1="25.813" x2="58.537" y2="12.313" gradientTransform="translate(0 2)"><stop offset="0" stop-color="#fff"/><stop offset=".35" stop-color="#fafbfb"/><stop offset=".532" stop-color="#edf1f4"/><stop offset=".675" stop-color="#dde5e9"/><stop offset=".799" stop-color="#c7d3da"/><stop offset=".908" stop-color="#adbdc7"/><stop offset="1" stop-color="#92a5b0"/></linearGradient><path d="M45 1l27 26.7H45V1z" fill="url(#b)"/><path d="M45 1l27 26.7H45V1z" stroke="#7191a1" stroke-width="2" stroke-linejoin="bevel" fill="none"/><path d="M10.2 91.5V72.2h8.3c2.1 0 3.6.2 4.5.5.9.3 1.7 1 2.3 1.9s.9 1.9.9 3c0 1.4-.4 2.6-1.3 3.6S22.7 82.8 21 83c.9.5 1.6 1 2.1 1.6.6.6 1.3 1.6 2.2 3.1l2.4 3.8H23l-2.9-4.2c-1-1.5-1.7-2.5-2.1-2.8-.4-.4-.8-.7-1.2-.8-.4-.1-1.1-.2-2-.2H14v8.1h-3.8zm3.9-11.1H17c1.9 0 3.1-.1 3.5-.2s.8-.4 1.1-.8c.3-.4.4-.9.4-1.5 0-.7-.2-1.2-.5-1.6-.4-.4-.8-.7-1.5-.8-.3 0-1.3-.1-2.9-.1H14v5zm14.8 4.9l3.8-.4c.2 1.3.7 2.2 1.4 2.8.7.6 1.7.9 2.9.9 1.3 0 2.2-.3 2.9-.8.6-.5 1-1.2 1-1.9 0-.5-.1-.8-.4-1.2-.3-.3-.7-.6-1.4-.8-.5-.2-1.5-.4-3.2-.8-2.1-.5-3.6-1.2-4.4-1.9-1.2-1.1-1.8-2.4-1.8-3.9 0-1 .3-1.9.8-2.8.6-.9 1.4-1.5 2.4-2s2.3-.7 3.8-.7c2.5 0 4.3.5 5.5 1.6 1.2 1.1 1.9 2.5 2 4.3l-3.9.2c-.2-1-.5-1.7-1.1-2.1-.6-.4-1.4-.7-2.5-.7s-2 .2-2.7.7c-.4.3-.6.7-.6 1.2s.2.8.6 1.2c.5.4 1.7.8 3.6 1.3 1.9.4 3.3.9 4.3 1.4.9.5 1.6 1.1 2.2 2 .5.8.8 1.9.8 3.1 0 1.1-.3 2.1-.9 3.1-.6 1-1.5 1.7-2.6 2.2-1.1.5-2.6.7-4.2.7-2.5 0-4.4-.6-5.7-1.7-1.6-1.2-2.4-2.9-2.6-5zm18.2 0l3.8-.4c.2 1.3.7 2.2 1.4 2.8s1.7.9 2.9.9c1.3 0 2.2-.3 2.9-.8.6-.5 1-1.2 1-1.9 0-.5-.1-.8-.4-1.2-.3-.3-.7-.6-1.4-.8-.5-.2-1.5-.4-3.2-.8-2.1-.5-3.6-1.2-4.4-1.9-1.2-1.1-1.8-2.4-1.8-3.9 0-1 .3-1.9.8-2.8.6-.9 1.4-1.5 2.4-2 1.1-.4 2.3-.7 3.8-.7 2.5 0 4.3.5 5.5 1.6 1.2 1.1 1.9 2.5 2 4.3l-3.9.2c-.2-1-.5-1.7-1.1-2.1-.6-.4-1.4-.7-2.5-.7s-2 .2-2.7.7c-.4.3-.6.7-.6 1.2s.2.8.6 1.2c.5.4 1.7.8 3.6 1.3 1.9.4 3.3.9 4.3 1.4.9.5 1.6 1.1 2.2 2 .5.8.8 1.9.8 3.1 0 1.1-.3 2.1-.9 3.1-.6 1-1.5 1.7-2.6 2.2-1.1.5-2.6.7-4.2.7-2.5 0-4.4-.6-5.7-1.7-1.6-1.2-2.4-2.9-2.6-5z" fill="#4c6c7b"/><g opacity=".9"><linearGradient id="c" gradientUnits="userSpaceOnUse" x1="37" y1="64.5" x2="37" y2="25.5"><stop offset="0" stop-color="#adccdc"/><stop offset=".153" stop-color="#9ab9c9"/><stop offset=".529" stop-color="#708f9f"/><stop offset=".824" stop-color="#567685"/><stop offset="1" stop-color="#4c6c7b"/></linearGradient><path d="M21.2 25.5c3.2 0 6.4.4 9.4 1.3s5.8 2 8.4 3.6c2.6 1.5 5 3.4 7.1 5.5 2.1 2.1 4 4.5 5.5 7.1 1.5 2.6 2.7 5.4 3.6 8.4.8 3 1.3 6.1 1.3 9.4 0 1-.4 1.9-1.1 2.6-.7.7-1.6 1.1-2.6 1.1s-1.9-.4-2.6-1.1c-.7-.7-1.1-1.6-1.1-2.6 0-2.6-.3-5-1-7.4-.7-2.4-1.6-4.6-2.8-6.7-1.2-2.1-2.7-3.9-4.4-5.6-1.7-1.7-3.6-3.1-5.6-4.4-2.1-1.2-4.3-2.1-6.7-2.8-2.4-.7-4.8-1-7.4-1-1 0-1.9-.4-2.6-1.1-.7-.7-1.1-1.6-1.1-2.6s.4-1.9 1.1-2.6c.7-.7 1.6-1.1 2.6-1.1zm0 14c2.9 0 5.7.6 8.3 1.7 2.6 1.1 4.8 2.6 6.7 4.6 1.9 1.9 3.4 4.2 4.6 6.7 1.1 2.6 1.7 5.3 1.7 8.3 0 1-.4 1.9-1.1 2.6-.7.7-1.6 1.1-2.6 1.1s-1.9-.4-2.6-1.1c-.7-.7-1.1-1.6-1.1-2.6 0-1.9-.4-3.7-1.1-5.4-.7-1.7-1.7-3.1-3-4.4-1.3-1.3-2.7-2.2-4.4-3-1.7-.7-3.5-1.1-5.4-1.1-1 0-1.9-.4-2.6-1.1-.7-.7-1.1-1.6-1.1-2.6s.4-1.9 1.1-2.6c.7-.7 1.6-1.1 2.6-1.1zM28 59c0 .7-.1 1.4-.4 2-.3.6-.6 1.2-1.1 1.6-.5.5-1 .8-1.7 1.1-.6.3-1.3.4-2 .4s-1.4-.1-2-.4c-.6-.3-1.2-.6-1.6-1.1-.5-.5-.8-1-1.1-1.6s-.4-1.3-.4-2 .1-1.4.4-2c.3-.6.6-1.2 1.1-1.7.5-.5 1-.8 1.6-1.1.6-.3 1.3-.4 2-.4s1.4.1 2 .4c.6.3 1.2.6 1.7 1.1.5.5.8 1 1.1 1.7.3.7.4 1.3.4 2z" fill="url(#c)"/></g></svg>