<svg xmlns="http://www.w3.org/2000/svg" viewBox="0 0 72 100"><linearGradient id="a" gradientUnits="userSpaceOnUse" x1="36" y1="97" x2="36" y2="-1" gradientTransform="translate(0 2)"><stop offset="0" stop-color="#c8d4db"/><stop offset=".139" stop-color="#d8e1e6"/><stop offset=".359" stop-color="#ebf0f3"/><stop offset=".617" stop-color="#f9fafb"/><stop offset="1" stop-color="#fff"/></linearGradient><path d="M45 1l27 26.7V99H0V1h45z" fill="url(#a)"/><path d="M45 1l27 26.7V99H0V1h45z" stroke="#7191a1" stroke-width="2" fill="none"/><linearGradient id="b" gradientUnits="userSpaceOnUse" x1="45.037" y1="25.813" x2="58.537" y2="12.313" gradientTransform="translate(0 2)"><stop offset="0" stop-color="#fff"/><stop offset=".35" stop-color="#fafbfb"/><stop offset=".532" stop-color="#edf1f4"/><stop offset=".675" stop-color="#dde5e9"/><stop offset=".799" stop-color="#c7d3da"/><stop offset=".908" stop-color="#adbdc7"/><stop offset="1" stop-color="#92a5b0"/></linearGradient><path d="M45 1l27 26.7H45V1z" fill="url(#b)"/><path d="M45 1l27 26.7H45V1z" stroke="#7191a1" stroke-width="2" stroke-linejoin="bevel" fill="none"/><path d="M7.7 88.3l2.2-.2c.1.7.4 1.3.8 1.6.4.3.9.5 1.6.5.7 0 1.3-.2 1.6-.5.4-.3.5-.7.5-1.1 0-.3-.1-.5-.2-.7-.2-.2-.4-.3-.8-.5-.3-.1-.9-.3-1.8-.5-1.2-.3-2-.7-2.5-1.1-.7-.6-1-1.4-1-2.2 0-.6.2-1.1.5-1.6s.8-.9 1.4-1.1 1.3-.4 2.2-.4c1.4 0 2.4.3 3.1.9.7.6 1.1 1.4 1.1 2.4l-2.2.1c-.1-.6-.3-1-.6-1.2-.3-.2-.8-.4-1.4-.4-.7 0-1.2.1-1.5.4-.2.2-.4.4-.4.7 0 .3.1.5.3.7.3.2 1 .5 2.1.7 1.1.3 1.9.5 2.4.8.5.3.9.7 1.2 1.1.3.5.4 1.1.4 1.8 0 .6-.2 1.2-.5 1.8-.4.6-.9 1-1.5 1.2s-1.5.4-2.4.4c-1.4 0-2.5-.3-3.2-1s-1.2-1.4-1.4-2.6zm10.9 3.6V80.8h3.6c1.4 0 2.3.1 2.7.2.6.2 1.2.5 1.6 1.1.4.6.6 1.3.6 2.2 0 .7-.1 1.3-.4 1.7-.2.5-.6.8-.9 1.1-.4.3-.8.4-1.2.5-.5.1-1.3.2-2.3.2h-1.5V92h-2.2zm2.3-9.2v3.1h1.2c.9 0 1.5-.1 1.8-.2.3-.1.5-.3.7-.5s.3-.5.3-.9-.1-.7-.4-1c-.2-.3-.5-.4-.9-.5-.3-.1-.8-.1-1.6-.1h-1.1zm8.1 9.2V80.8h2.2v4.4h4.4v-4.4h2.2v11.1h-2.2V87h-4.4v4.9H29zm11.1 0V80.8h2.2v11.1h-2.2zm4.4 0V80.8h2.2l4.5 7.4v-7.4h2.1v11.1H51l-4.5-7.2v7.2h-2zm10 0l3.8-5.8-3.4-5.3h2.6l2.2 3.6 2.2-3.6h2.6L61 86.2l3.8 5.7h-2.7L59.7 88l-2.5 3.8h-2.7z" fill="#4c6c7b"/><g opacity=".85"><linearGradient id="c" gradientUnits="userSpaceOnUse" x1="36.257" y1="33.019" x2="36.257" y2="31.461"><stop offset="0" stop-color="#adccdc"/><stop offset="1" stop-color="#4c6c7b"/></linearGradient><path fill="url(#c)" d="M35.1 31.5h2.3v1.6h-2.3z"/><linearGradient id="d" gradientUnits="userSpaceOnUse" x1="48.58" y1="54.097" x2="48.58" y2="34.4"><stop offset="0" stop-color="#adccdc"/><stop offset="1" stop-color="#4c6c7b"/></linearGradient><path d="M54.4 47.3c.1-1.3 0-2.5-.3-3.7h-5.5v-2.3H53c-.4-.5-.8-1.1-1.2-1.5l-5.4-5.4-.8 8.5c-.2 2.2-1.2 4.2-2.8 5.7v3.8h3c1.7 0 3.2.6 4.4 1.7 1.7-1.1 3-2.6 3.7-4.5h-5.3v-2.3h5.8z" fill="url(#d)"/><linearGradient id="e" gradientUnits="userSpaceOnUse" x1="36.313" y1="48.976" x2="36.313" y2="33.019"><stop offset="0" stop-color="#adccdc"/><stop offset="1" stop-color="#4c6c7b"/></linearGradient><path d="M37.4 33v2.7h-2.3V33h-6.7l1 9.7c.2 1.7 1 3.3 2.2 4.5 1.3 1.2 2.9 1.8 4.7 1.8 1.7 0 3.4-.6 4.7-1.8 1.3-1.2 2.1-2.7 2.2-4.5l1-9.7h-6.8zm3.1 7.5h-3.1v3.7h-2.3v-3.7H32v-2.3h8.4l.1 2.3z" fill="url(#e)"/><linearGradient id="f" gradientUnits="userSpaceOnUse" x1="36.313" y1="70.461" x2="36.313" y2="50.296"><stop offset="0" stop-color="#adccdc"/><stop offset="1" stop-color="#4c6c7b"/></linearGradient><path d="M45.7 54.7h-5.3v-4.4c-1.3.6-2.7 1-4.1 1-1.4 0-2.9-.3-4.1-1v4.4h-5.3c-2.5 0-4.5 2-4.5 4.5v2.9c3.5.6 6.2 3.6 6.2 7.2v1.2H43v-1.2c0-4 3.2-7.3 7.2-7.3v-2.8c0-2.5-2-4.5-4.5-4.5z" fill="url(#f)"/><linearGradient id="g" gradientUnits="userSpaceOnUse" x1="50.306" y1="70.461" x2="50.306" y2="64.265"><stop offset="0" stop-color="#adccdc"/><stop offset="1" stop-color="#4c6c7b"/></linearGradient><path d="M50.3 64.3c-2.8 0-5 2.3-5 5v1.2h3.9v-3.1h2.3v3.1h3.9v-1.2c-.1-2.8-2.3-5-5.1-5z" fill="url(#g)"/><linearGradient id="h" gradientUnits="userSpaceOnUse" x1="24.047" y1="54.097" x2="24.047" y2="34.4"><stop offset="0" stop-color="#adccdc"/><stop offset="1" stop-color="#4c6c7b"/></linearGradient><path d="M27.1 42.9l-.8-8.5-5.4 5.4c-.5.5-.9 1-1.2 1.5h4.4v2.3h-5.5c-.4 1.2-.5 2.4-.3 3.7h5.8v2.3h-5.3c.7 1.9 2 3.4 3.7 4.5 1.2-1 2.7-1.7 4.4-1.7h3v-3.8c-1.6-1.4-2.6-3.5-2.8-5.7z" fill="url(#h)"/><linearGradient id="i" gradientUnits="userSpaceOnUse" x1="21.294" y1="70.461" x2="21.294" y2="64.265"><stop offset="0" stop-color="#adccdc"/><stop offset="1" stop-color="#4c6c7b"/></linearGradient><path d="M21.3 64.3c-2.8 0-5 2.3-5 5v1.2h3.9v-3.1h2.3v3.1h3.9v-1.2c-.1-2.8-2.3-5-5.1-5z" fill="url(#i)"/></g></svg>