<svg id="Layer_1" xmlns="http://www.w3.org/2000/svg" viewBox="0 0 72 100"><style>.st3{fill:#f2f2f2}</style><linearGradient id="SVGID_1_" gradientUnits="userSpaceOnUse" x1="36" y1="2.953" x2="36" y2="100.95" gradientTransform="matrix(1 0 0 -1 0 102)"><stop offset="0" stop-color="#c8d4db"/><stop offset=".139" stop-color="#d8e1e6"/><stop offset=".359" stop-color="#ebf0f3"/><stop offset=".617" stop-color="#f9fafb"/><stop offset="1" stop-color="#fff"/></linearGradient><path d="M45 1l27 26.7V99H0V1h45z" fill="url(#SVGID_1_)"/><path d="M45 1l27 26.7V99H0V1h45z" fill-opacity="0" stroke="#7191a1" stroke-width="2"/><path d="M8.7 84.7l3.9-.4c.2 1.3.7 2.3 1.4 2.9.7.6 1.7.9 2.9.9 1.3 0 2.3-.3 2.9-.8.7-.5 1-1.2 1-1.9 0-.5-.1-.9-.4-1.2-.3-.3-.8-.6-1.5-.9-.5-.2-1.6-.5-3.2-.9-2.2-.5-3.7-1.2-4.6-2-1.2-1.1-1.8-2.4-1.8-4 0-1 .3-2 .9-2.8.6-.9 1.4-1.5 2.5-2s2.4-.7 3.9-.7c2.5 0 4.4.5 5.7 1.6 1.3 1.1 1.9 2.5 2 4.4l-4 .2c-.2-1-.5-1.8-1.1-2.2-.6-.4-1.4-.7-2.6-.7-1.2 0-2.1.2-2.8.7-.4.3-.6.7-.6 1.2s.2.9.6 1.2c.5.4 1.8.9 3.7 1.3s3.4.9 4.4 1.4 1.7 1.2 2.2 2 .8 1.9.8 3.2c0 1.1-.3 2.2-1 3.2-.6 1-1.5 1.7-2.7 2.2-1.2.5-2.6.7-4.4.7-2.5 0-4.5-.6-5.8-1.7-1.3-1-2.1-2.7-2.3-4.9zm35.8 3.9c1 .7 2.1 1.3 3.2 1.7l-1.5 2.8c-.6-.2-1.2-.4-1.8-.7-.1-.1-1-.6-2.7-1.8-1.3.6-2.8.9-4.4.9-3.1 0-5.5-.9-7.2-2.7-1.7-1.8-2.6-4.3-2.6-7.6 0-3.2.9-5.8 2.6-7.6s4.1-2.7 7.1-2.7 5.3.9 7.1 2.7c1.7 1.8 2.6 4.3 2.6 7.6 0 1.7-.2 3.2-.7 4.5-.3 1-.9 2-1.7 2.9zm-3.3-2.3c.5-.6.9-1.3 1.2-2.2s.4-1.8.4-3c0-2.3-.5-4-1.5-5.1-1-1.1-2.4-1.7-4-1.7-1.7 0-3 .6-4 1.7s-1.5 2.8-1.5 5.1.5 4.1 1.5 5.2c1 1.2 2.3 1.7 3.9 1.7.6 0 1.1-.1 1.7-.3-.8-.5-1.7-.9-2.5-1.2l1.1-2.3c1.2.6 2.5 1.2 3.7 2.1zm9 4.8V71.4h4v16.3h10.1V91H50.2z" fill="#4c6c7b"/><path class="st3" d="M54 48.1c0 2.5-8.1 4.5-18 4.5s-18-2-18-4.5 8.1-4.5 18-4.5 18 2 18 4.5z"/><linearGradient id="SVGID_2_" gradientUnits="userSpaceOnUse" x1="28.972" y1="47.222" x2="43.028" y2="61.278" gradientTransform="matrix(1 0 0 -1 0 102)"><stop offset="0" stop-color="#ccdde7"/><stop offset=".212" stop-color="#b4ccd8"/><stop offset=".639" stop-color="#7da0b1"/><stop offset="1" stop-color="#4f7a8d"/></linearGradient><path d="M49.5 47.8c0 2.2-6 3.9-13.5 3.9S22.5 50 22.5 47.8s6-3.9 13.5-3.9 13.5 1.7 13.5 3.9z" fill="url(#SVGID_2_)"/><linearGradient id="SVGID_3_" gradientUnits="userSpaceOnUse" x1="18" y1="45.9" x2="54" y2="45.9" gradientTransform="matrix(1 0 0 -1 0 102)"><stop offset="0" stop-color="#ccdde7"/><stop offset=".212" stop-color="#b4ccd8"/><stop offset=".639" stop-color="#7da0b1"/><stop offset="1" stop-color="#4f7a8d"/></linearGradient><path d="M18 48.3v11.2S22.5 64 36 64s18-4.5 18-4.5V48.3s-2.2 3.9-18 4.2c-15.8.3-18-4.2-18-4.2z" fill="url(#SVGID_3_)"/><path class="st3" d="M54 32.3c0 2.5-8.1 4.5-18 4.5s-18-2-18-4.5 8.1-4.5 18-4.5 18 2 18 4.5z"/><linearGradient id="SVGID_4_" gradientUnits="userSpaceOnUse" x1="28.954" y1="63.004" x2="43.01" y2="77.06" gradientTransform="matrix(1 0 0 -1 0 102)"><stop offset="0" stop-color="#ccdde7"/><stop offset=".212" stop-color="#b4ccd8"/><stop offset=".639" stop-color="#7da0b1"/><stop offset="1" stop-color="#4f7a8d"/></linearGradient><path d="M49.5 31.9c0 2.2-6 3.9-13.5 3.9s-13.5-1.7-13.5-3.9S28.5 28 36 28c7.5.1 13.5 1.8 13.5 3.9z" fill="url(#SVGID_4_)"/><linearGradient id="SVGID_5_" gradientUnits="userSpaceOnUse" x1="18" y1="61.6" x2="54" y2="61.6" gradientTransform="matrix(1 0 0 -1 0 102)"><stop offset="0" stop-color="#ccdde7"/><stop offset=".212" stop-color="#b4ccd8"/><stop offset=".639" stop-color="#7da0b1"/><stop offset="1" stop-color="#4f7a8d"/></linearGradient><path d="M18 32.6v11.2s4.5 4.5 18 4.5 18-4.5 18-4.5V32.6s-2.2 3.9-18 4.2c-15.8.3-18-4.2-18-4.2z" fill="url(#SVGID_5_)"/><path d="M54 16.6c0 2.5-8.1 4.5-18 4.5s-18-2-18-4.5 8.1-4.5 18-4.5 18 2 18 4.5z" fill="#fff"/><linearGradient id="SVGID_6_" gradientUnits="userSpaceOnUse" x1="28.972" y1="78.722" x2="43.028" y2="92.778" gradientTransform="matrix(1 0 0 -1 0 102)"><stop offset="0" stop-color="#ccdde7"/><stop offset=".265" stop-color="#b5ccd8"/><stop offset=".798" stop-color="#7fa0b1"/><stop offset="1" stop-color="#6a8fa1"/></linearGradient><path d="M49.5 16.3c0 2.2-6 3.9-13.5 3.9s-13.5-1.7-13.5-3.9 6-3.9 13.5-3.9 13.5 1.7 13.5 3.9z" fill="url(#SVGID_6_)"/><linearGradient id="SVGID_7_" gradientUnits="userSpaceOnUse" x1="18" y1="77.4" x2="54" y2="77.4" gradientTransform="matrix(1 0 0 -1 0 102)"><stop offset="0" stop-color="#ccdde7"/><stop offset=".265" stop-color="#b5ccd8"/><stop offset=".798" stop-color="#7fa0b1"/><stop offset="1" stop-color="#6a8fa1"/></linearGradient><path d="M18 16.8V28s4.5 4.5 18 4.5S54 28 54 28V16.8s-2.2 3.9-18 4.2c-15.8.3-18-4.2-18-4.2z" fill="url(#SVGID_7_)"/><linearGradient id="SVGID_8_" gradientUnits="userSpaceOnUse" x1="45.068" y1="74.155" x2="58.568" y2="87.655" gradientTransform="matrix(1 0 0 -1 0 102)"><stop offset="0" stop-color="#fff"/><stop offset=".35" stop-color="#fafbfb"/><stop offset=".532" stop-color="#edf1f4"/><stop offset=".675" stop-color="#dde5e9"/><stop offset=".799" stop-color="#c7d3da"/><stop offset=".908" stop-color="#adbdc7"/><stop offset="1" stop-color="#92a5b0"/></linearGradient><path d="M45 1l27 26.7H45V1z" fill="url(#SVGID_8_)"/><path d="M45 1l27 26.7H45V1z" fill-opacity="0" stroke="#7191a1" stroke-width="2" stroke-linejoin="bevel"/></svg>