<svg id="Layer_1" xmlns="http://www.w3.org/2000/svg" viewBox="0 0 72 100"><style>.st4{fill:#f2f2f2}</style><linearGradient id="SVGID_1_" gradientUnits="userSpaceOnUse" x1="36" y1="2.953" x2="36" y2="100.95" gradientTransform="matrix(1 0 0 -1 0 102)"><stop offset="0" stop-color="#c8d4db"/><stop offset=".139" stop-color="#d8e1e6"/><stop offset=".359" stop-color="#ebf0f3"/><stop offset=".617" stop-color="#f9fafb"/><stop offset="1" stop-color="#fff"/></linearGradient><path d="M45 1l27 26.7V99H0V1h45z" fill="url(#SVGID_1_)"/><path d="M45 1l27 26.7V99H0V1h45z" fill-opacity="0" stroke="#7191a1" stroke-width="2"/><path d="M5.6 87.2l2.4-.3c.1.8.4 1.4.9 1.8s1 .6 1.8.6 1.4-.2 1.8-.5.6-.7.6-1.2c0-.3-.1-.5-.3-.7-.2-.2-.5-.4-.9-.5-.3-.1-1-.3-2-.5-1.3-.3-2.3-.7-2.8-1.2C6.3 84 6 83.2 6 82.3c0-.6.2-1.2.5-1.7.4-.5.9-1 1.5-1.2.7-.3 1.5-.4 2.4-.4 1.5 0 2.7.3 3.5 1 .8.7 1.2 1.6 1.2 2.7l-2.5.1c-.1-.6-.3-1.1-.7-1.3-.3-.3-.9-.4-1.6-.4-.7 0-1.3.1-1.7.4-.3.2-.4.4-.4.8 0 .3.1.5.4.7.3.3 1.1.5 2.3.8 1.2.3 2.1.6 2.7.9s1 .7 1.4 1.2c.3.5.5 1.2.5 1.9s-.2 1.4-.6 2c-.4.6-.9 1.1-1.7 1.4s-1.6.4-2.7.4c-1.6 0-2.7-.4-3.6-1.1s-1.1-2-1.3-3.3zm22 2.4c.6.4 1.3.8 2 1l-.9 1.7c-.4-.1-.7-.3-1.1-.5-.1 0-.6-.4-1.7-1.1-.8.3-1.7.5-2.7.5-1.9 0-3.4-.5-4.4-1.7S17.2 87 17.2 85s.5-3.5 1.6-4.6c1.1-1.1 2.5-1.7 4.4-1.7 1.8 0 3.3.6 4.3 1.7 1.1 1.1 1.6 2.6 1.6 4.6 0 1.1-.1 2-.4 2.8-.3.6-.6 1.2-1.1 1.8zm-2-1.4c.3-.4.6-.8.7-1.3.2-.5.2-1.1.2-1.8 0-1.4-.3-2.5-.9-3.2s-1.4-1-2.5-1-1.8.3-2.5 1-.9 1.7-.9 3.1c0 1.4.3 2.5.9 3.2.6.7 1.4 1.1 2.4 1.1.4 0 .7-.1 1-.2-.5-.3-1-.6-1.5-.8l.7-1.4c.9.3 1.6.7 2.4 1.3zm5.5 2.9V79h2.5v10h6.2v2.1h-8.7zm10.4 0V78.9H44v12.2h-2.5zm7.6 0V81h-3.6v-2.1h9.8V81h-3.6v10.1h-2.6zm7.7 0V78.9h9.1V81h-6.6v2.7h6.2v2h-6.2V89h6.9v2.1h-9.4z" fill="#4c6c7b"/><path class="st4" d="M54 53.1c0 2.5-8.1 4.5-18 4.5s-18-2-18-4.5 8.1-4.5 18-4.5 18 2 18 4.5z"/><linearGradient id="SVGID_2_" gradientUnits="userSpaceOnUse" x1="28.972" y1="42.222" x2="43.028" y2="56.278" gradientTransform="matrix(1 0 0 -1 0 102)"><stop offset="0" stop-color="#ccdde7"/><stop offset=".212" stop-color="#b4ccd8"/><stop offset=".639" stop-color="#7da0b1"/><stop offset="1" stop-color="#4f7a8d"/></linearGradient><path d="M49.5 52.8c0 2.2-6 3.9-13.5 3.9S22.5 55 22.5 52.8s6-3.9 13.5-3.9 13.5 1.7 13.5 3.9z" fill="url(#SVGID_2_)"/><linearGradient id="SVGID_3_" gradientUnits="userSpaceOnUse" x1="18" y1="40.9" x2="54" y2="40.9" gradientTransform="matrix(1 0 0 -1 0 102)"><stop offset="0" stop-color="#ccdde7"/><stop offset=".212" stop-color="#b4ccd8"/><stop offset=".639" stop-color="#7da0b1"/><stop offset="1" stop-color="#4f7a8d"/></linearGradient><path d="M18 53.3v11.2S22.5 69 36 69s18-4.5 18-4.5V53.3s-2.2 3.9-18 4.2c-15.8.3-18-4.2-18-4.2z" fill="url(#SVGID_3_)"/><path class="st4" d="M54 37.3c0 2.5-8.1 4.5-18 4.5s-18-2-18-4.5 8.1-4.5 18-4.5 18 2 18 4.5z"/><linearGradient id="SVGID_4_" gradientUnits="userSpaceOnUse" x1="28.954" y1="58.004" x2="43.01" y2="72.06" gradientTransform="matrix(1 0 0 -1 0 102)"><stop offset="0" stop-color="#ccdde7"/><stop offset=".212" stop-color="#b4ccd8"/><stop offset=".639" stop-color="#7da0b1"/><stop offset="1" stop-color="#4f7a8d"/></linearGradient><path d="M49.5 36.9c0 2.2-6 3.9-13.5 3.9s-13.5-1.7-13.5-3.9S28.5 33 36 33c7.5.1 13.5 1.8 13.5 3.9z" fill="url(#SVGID_4_)"/><linearGradient id="SVGID_5_" gradientUnits="userSpaceOnUse" x1="18" y1="56.6" x2="54" y2="56.6" gradientTransform="matrix(1 0 0 -1 0 102)"><stop offset="0" stop-color="#ccdde7"/><stop offset=".212" stop-color="#b4ccd8"/><stop offset=".639" stop-color="#7da0b1"/><stop offset="1" stop-color="#4f7a8d"/></linearGradient><path d="M18 37.6v11.2s4.5 4.5 18 4.5 18-4.5 18-4.5V37.6s-2.2 3.9-18 4.2c-15.8.3-18-4.2-18-4.2z" fill="url(#SVGID_5_)"/><path d="M54 21.6c0 2.5-8.1 4.5-18 4.5s-18-2-18-4.5 8.1-4.5 18-4.5 18 2 18 4.5z" fill="#fff"/><linearGradient id="SVGID_6_" gradientUnits="userSpaceOnUse" x1="28.972" y1="73.722" x2="43.028" y2="87.778" gradientTransform="matrix(1 0 0 -1 0 102)"><stop offset="0" stop-color="#ccdde7"/><stop offset=".265" stop-color="#b5ccd8"/><stop offset=".798" stop-color="#7fa0b1"/><stop offset="1" stop-color="#6a8fa1"/></linearGradient><path d="M49.5 21.3c0 2.2-6 3.9-13.5 3.9s-13.5-1.7-13.5-3.9 6-3.9 13.5-3.9 13.5 1.7 13.5 3.9z" fill="url(#SVGID_6_)"/><linearGradient id="SVGID_7_" gradientUnits="userSpaceOnUse" x1="18" y1="72.4" x2="54" y2="72.4" gradientTransform="matrix(1 0 0 -1 0 102)"><stop offset="0" stop-color="#ccdde7"/><stop offset=".265" stop-color="#b5ccd8"/><stop offset=".798" stop-color="#7fa0b1"/><stop offset="1" stop-color="#6a8fa1"/></linearGradient><path d="M18 21.8V33s4.5 4.5 18 4.5S54 33 54 33V21.8s-2.2 3.9-18 4.2c-15.8.3-18-4.2-18-4.2z" fill="url(#SVGID_7_)"/><linearGradient id="SVGID_8_" gradientUnits="userSpaceOnUse" x1="45.068" y1="74.155" x2="58.568" y2="87.655" gradientTransform="matrix(1 0 0 -1 0 102)"><stop offset="0" stop-color="#fff"/><stop offset=".35" stop-color="#fafbfb"/><stop offset=".532" stop-color="#edf1f4"/><stop offset=".675" stop-color="#dde5e9"/><stop offset=".799" stop-color="#c7d3da"/><stop offset=".908" stop-color="#adbdc7"/><stop offset="1" stop-color="#92a5b0"/></linearGradient><path d="M45 1l27 26.7H45V1z" fill="url(#SVGID_8_)"/><path d="M45 1l27 26.7H45V1z" fill-opacity="0" stroke="#7191a1" stroke-width="2" stroke-linejoin="bevel"/></svg>