<svg xmlns="http://www.w3.org/2000/svg" viewBox="0 0 72 100"><linearGradient id="a" gradientUnits="userSpaceOnUse" x1="36" y1="2.265" x2="36" y2="100.25" gradientTransform="matrix(1 0 0 -1 0 101)"><stop offset="0" stop-color="#c8d4db"/><stop offset=".139" stop-color="#d8e1e6"/><stop offset=".359" stop-color="#ebf0f3"/><stop offset=".617" stop-color="#f9fafb"/><stop offset="1" stop-color="#fff"/></linearGradient><path d="M45 .8l27 26.7v71.3H0V.8h45z" fill="url(#a)"/><path d="M45 .8l27 26.7v71.3H0V.8h45z" fill-opacity="0" stroke="#7191a1" stroke-width="2"/><linearGradient id="b" gradientUnits="userSpaceOnUse" x1="37" y1="64.135" x2="37" y2="20.865"><stop offset="0" stop-color="#adccdc"/><stop offset="1" stop-color="#4c6c7b"/></linearGradient><path d="M29.2 20.9c-3.3 0-6.1 2.7-6.1 6.1s2.7 6.1 6.1 6.1c1 0 2-.3 2.9-.8l2.5 2.5-7 7c-1.2 1.2-1.2 3.1 0 4.3l.3.3L42 32.3c.9.5 1.8.8 2.9.8 3.3 0 6.1-2.7 6.1-6.1s-2.7-6.1-6.1-6.1c-3.3 0-6.1 2.7-6.1 6.1 0 1 .3 2 .8 2.9L37 32.3l-2.5-2.5c.5-.9.8-1.8.8-2.9 0-3.3-2.8-6-6.1-6zm0 3.4c1.5 0 2.6 1.1 2.6 2.6s-1.1 2.6-2.6 2.6-2.6-1.1-2.6-2.6 1.2-2.6 2.6-2.6zm15.6 0c1.5 0 2.6 1.1 2.6 2.6s-1.1 2.6-2.6 2.6-2.6-1.1-2.6-2.6 1.1-2.6 2.6-2.6zM18 36.4c-.2 0-.5 0-.7.1-.2 0-.4.1-.6.2l-.6.3c-.2.1-.3.3-.5.4-.1.1-.3.3-.4.5-.1.2-.2.4-.3.5v.1c-.1.2-.1.4-.2.6v.1c0 .2-.1.4-.1.7v20.8c0 .2 0 .5.1.7 0 .2.1.4.2.6l.3.6c.1.2.3.3.4.5.1.1.3.3.5.4.2.1.4.2.5.3h.1c.2.1.4.1.6.2h.1c.2 0 .4.1.7.1H56c.2 0 .5 0 .7-.1.2 0 .4-.1.6-.2l.6-.3c.2-.1.3-.3.5-.4.1-.1.3-.3.4-.5.1-.2.2-.4.3-.5V62c.1-.2.1-.4.2-.6v-.1c0-.2.1-.4.1-.7V39.9c0-.2 0-.5-.1-.7 0-.2-.1-.4-.2-.6l-.3-.6c-.1-.2-.3-.3-.4-.5-.1-.1-.3-.3-.5-.4-.2-.1-.4-.2-.5-.3h-.1c-.2-.1-.4-.1-.6-.2h-.1c-.2 0-.4-.1-.7-.1H42.2L38.7 40h13.8c0 1.9 1.5 3.5 3.5 3.5v13.8c-1.9 0-3.5 1.5-3.5 3.5H21.4c0-1.9-1.5-3.5-3.5-3.5V43.4c1.9 0 3.5-1.5 3.5-3.5h4l3.5-3.5H18zm19 7c-3.8 0-6.9 3.5-6.9 7.8 0 2.5 1 4.6 2.6 6.1h8.6c1.6-1.4 2.6-3.6 2.6-6.1 0-4.3-3.1-7.8-6.9-7.8zm-13.8 5.2c-1 0-1.7.8-1.7 1.7 0 1 .8 1.7 1.7 1.7s1.7-.8 1.7-1.7c0-1-.8-1.7-1.7-1.7zm27.6 0c-1 0-1.7.8-1.7 1.7 0 1 .8 1.7 1.7 1.7s1.7-.8 1.7-1.7c.1-1-.7-1.7-1.7-1.7z" opacity=".9" fill="url(#b)"/><path d="M15.6 89.8V73.2h-6v-3.4h16.1v3.4h-6v16.7h-4.1zm28.9 0h-4.4l-1.8-4.6h-8.1l-1.7 4.6h-4.3l7.9-20h4.3l8.1 20zM37 81.9l-2.8-7.4-2.7 7.4H37zm7.6 7.9l6.9-10.5-6.3-9.6H50l4.1 6.4 4-6.4h4.7l-6.3 9.7 6.9 10.3h-4.9L54 82.9l-4.5 6.9h-4.9z" fill="#4c6c7b"/><linearGradient id="c" gradientUnits="userSpaceOnUse" x1="45.069" y1="73.457" x2="58.569" y2="86.957" gradientTransform="matrix(1 0 0 -1 0 101)"><stop offset="0" stop-color="#fff"/><stop offset=".35" stop-color="#fafbfb"/><stop offset=".532" stop-color="#edf1f4"/><stop offset=".675" stop-color="#dde5e9"/><stop offset=".799" stop-color="#c7d3da"/><stop offset=".908" stop-color="#adbdc7"/><stop offset="1" stop-color="#92a5b0"/></linearGradient><path d="M45 .8l27 26.7H45V.8z" fill="url(#c)"/><path d="M45 .8l27 26.7H45V.8z" fill-opacity="0" stroke="#7191a1" stroke-width="2" stroke-linejoin="bevel"/></svg>