<svg xmlns="http://www.w3.org/2000/svg" viewBox="0 0 72 100"><linearGradient id="a" gradientUnits="userSpaceOnUse" x1="36.108" y1="3.003" x2="36.108" y2="101.001" gradientTransform="matrix(1 0 0 -1 0 102)"><stop offset="0" stop-color="#c8d4db"/><stop offset=".139" stop-color="#d8e1e6"/><stop offset=".359" stop-color="#ebf0f3"/><stop offset=".617" stop-color="#f9fafb"/><stop offset="1" stop-color="#fff"/></linearGradient><path d="M45.1 1L72 27.7V99H.2V1h44.9z" fill="url(#a)"/><path d="M45.1 1L72 27.7V99H.2V1h44.9z" stroke="#7191a1" stroke-width="2" fill="none"/><path d="M13.1 91.1V74.6h-6v-3.4H23v3.4h-5.9v16.5h-4zm12.5 0V71.2h6l3.6 13.5 3.6-13.5h6V91h-3.7V75.4l-4 15.6h-3.9l-4-15.6V91h-3.6zm23.2 0V71.2h6.5c2.5 0 4.1.1 4.8.3 1.1.3 2.1.9 2.9 1.9.8 1 1.2 2.3 1.2 3.9 0 1.2-.2 2.2-.7 3.1s-1 1.5-1.7 2-1.4.8-2.1.9c-1 .2-2.4.3-4.2.3h-2.6v7.5h-4.1zm4.1-16.5v5.6h2.2c1.6 0 2.7-.1 3.2-.3.5-.2 1-.5 1.3-1 .3-.4.5-1 .5-1.5 0-.7-.2-1.3-.6-1.8-.4-.5-1-.8-1.6-.9-.5-.1-1.4-.1-2.9-.1h-2.1z" fill="#4c6c7b"/><linearGradient id="b" gradientUnits="userSpaceOnUse" x1="45.122" y1="74.229" x2="58.575" y2="87.683" gradientTransform="matrix(1 0 0 -1 0 102)"><stop offset="0" stop-color="#fff"/><stop offset=".35" stop-color="#fafbfb"/><stop offset=".532" stop-color="#edf1f4"/><stop offset=".675" stop-color="#dde5e9"/><stop offset=".799" stop-color="#c7d3da"/><stop offset=".908" stop-color="#adbdc7"/><stop offset="1" stop-color="#92a5b0"/></linearGradient><path d="M45.1 1L72 27.7H45.1V1z" fill="url(#b)"/><path d="M45.1 1L72 27.7H45.1V1z" stroke="#7191a1" stroke-width="2" stroke-linejoin="bevel" fill="none"/><linearGradient id="c" gradientUnits="userSpaceOnUse" x1="25.756" y1="26.807" x2="25.756" y2="42.164"><stop offset="0" stop-color="#7291a1"/><stop offset="1" stop-color="#cad5db"/></linearGradient><path d="M24.2 41.8l4.6-3.8c.1-.1.2-.1.2-.2.4-.4.6-.9.6-1.4v-.2l-.6-8.1V28c-.1-.7-.6-1.2-1.3-1.2-.7 0-1.3.5-1.3 1.2l-.5 7.4c0 .2-.1.4-.2.6l-3.4 4c-.4.5-.4 1.3.1 1.7.5.6 1.3.6 1.8.1z" fill="url(#c)"/><linearGradient id="d" gradientUnits="userSpaceOnUse" x1="27.127" y1="20.616" x2="27.127" y2="51.578"><stop offset="0" stop-color="#7291a1"/><stop offset="1" stop-color="#cad5db"/></linearGradient><path d="M12 36.2c0 7.9 6 14.5 13.7 15.4 0-.6-.1-1.2-.1-1.7 0-.8 0-1.5.1-2.3-5.5-.9-9.8-5.6-9.8-11.4 0-6.4 5.2-11.5 11.5-11.5 4.9 0 9.1 3.1 10.8 7.4 1.3-.4 2.6-.7 3.9-.9-2.1-6.1-7.9-10.5-14.7-10.5C19 20.6 12 27.6 12 36.2z" fill="url(#d)"/><linearGradient id="e" gradientUnits="userSpaceOnUse" x1="44.455" y1="34.275" x2="44.455" y2="65.384"><stop offset="0" stop-color="#7291a1"/><stop offset="1" stop-color="#cad5db"/></linearGradient><path d="M28.9 48.9v2c0 .7.6 1.3 1.3 1.3h2c.3 1.7 1 3.3 1.9 4.7l-1.4 1.4c-.5.5-.5 1.3 0 1.9l1.4 1.4c.5.5 1.3.5 1.9 0l1.4-1.4c1.4 1 3 1.6 4.7 2v1.9c0 .7.6 1.3 1.3 1.3h2c.7 0 1.3-.6 1.3-1.3v-1.9c1.7-.3 3.3-1 4.7-2l1.4 1.3c.5.5 1.3.5 1.9 0l1.4-1.4c.5-.5.5-1.3 0-1.9l-1.4-1.4c1-1.4 1.6-3.1 1.9-4.7h1.9c.7 0 1.3-.6 1.3-1.3v-2c0-.7-.6-1.3-1.3-1.3h-1.9c-.3-1.7-1-3.3-2-4.7l1.4-1.4c.5-.5.5-1.3 0-1.9l-1.4-1.4c-.5-.5-1.3-.5-1.9 0l-1.4 1.4c-1.4-1-3-1.6-4.7-1.9v-2c0-.7-.6-1.3-1.3-1.3h-2c-.7 0-1.3.6-1.3 1.3v2c-1.6.3-3.2 1-4.7 2L36 38.1c-.5-.5-1.3-.5-1.9 0l-1.4 1.4c-.5.5-.5 1.3 0 1.9l1.4 1.4c-1 1.4-1.6 3-1.9 4.7h-2c-.7 0-1.3.6-1.3 1.4zm10.7-3.8c2.6-2.7 6.9-2.7 9.6 0 2.7 2.6 2.7 6.9 0 9.6-2.6 2.7-6.9 2.7-9.6 0-2.6-2.7-2.6-7 0-9.6z" fill="url(#e)"/></svg>