<svg xmlns="http://www.w3.org/2000/svg" viewBox="0 0 72 100"><linearGradient id="a" gradientUnits="userSpaceOnUse" x1="35.75" y1="3.096" x2="35.75" y2="101" gradientTransform="matrix(1 0 0 -1 0 102)"><stop offset="0" stop-color="#c8d4db"/><stop offset=".139" stop-color="#d8e1e6"/><stop offset=".359" stop-color="#ebf0f3"/><stop offset=".617" stop-color="#f9fafb"/><stop offset="1" stop-color="#fff"/></linearGradient><path d="M44.8 1l27 26.7v71.2h-72V1h45z" fill="url(#a)"/><path d="M44.8 1l27 26.7v71.2h-72V1h45z" fill-opacity="0" stroke="#7191a1" stroke-width="2"/><linearGradient id="b" gradientUnits="userSpaceOnUse" x1="35.85" y1="4.085" x2="35.85" y2="38.441" gradientTransform="matrix(1 0 0 -1 0 102)"><stop offset="0" stop-color="#ef4136"/><stop offset="1" stop-color="#be1e2d"/></linearGradient><path d="M.7 63.6h70.2v34.3H.7V63.6z" fill="url(#b)"/><path d="M15.1 90.1L7.9 70.3h4.4L17.4 85l4.9-14.7h4.3l-7.2 19.8h-4.3zm26.3-7.3l3.9 1.2c-.6 2.2-1.6 3.8-3 4.8-1.4 1.1-3.2 1.6-5.3 1.6-2.7 0-4.8-.9-6.6-2.7-1.7-1.8-2.6-4.3-2.6-7.4 0-3.3.9-5.9 2.6-7.7s4-2.7 6.8-2.7c2.5 0 4.4.7 6 2.1.9.8 1.6 2.1 2.1 3.7l-4 .9c-.2-1-.7-1.8-1.5-2.4-.8-.6-1.7-.9-2.7-.9-1.5 0-2.7.5-3.6 1.6-.9 1.1-1.4 2.8-1.4 5.1 0 2.5.5 4.3 1.4 5.4.9 1.1 2.1 1.6 3.6 1.6 1.1 0 2-.3 2.8-1 .6-.7 1.2-1.8 1.5-3.2zm7.5 7.3V70.3h13.7v3.4h-9.7v4.7h8.4v3.4h-8.4v8.4h-4z" fill="#fff"/><linearGradient id="c" gradientUnits="userSpaceOnUse" x1="35.5" y1="53.273" x2="35.5" y2="20.546"><stop offset="0" stop-color="#879ca8"/><stop offset="1" stop-color="#4d6a78"/></linearGradient><path d="M51.9 53.3H19.1c-3.4 0-6.1-2.8-6.1-6.1V26.7c0-3.4 2.8-6.1 6.1-6.1h32.7c3.4 0 6.1 2.8 6.1 6.1v20.5c.1 3.3-2.7 6.1-6 6.1zM19.1 24.6c-1.1 0-2 .9-2 2v20.5c0 1.1.9 2 2 2h32.7c1.1 0 2-.9 2-2V26.7c0-1.1-.9-2-2-2H19.1z" fill="url(#c)"/><linearGradient id="d" gradientUnits="userSpaceOnUse" x1="27.318" y1="43.045" x2="27.318" y2="38.955"><stop offset="0" stop-color="#879ca8"/><stop offset="1" stop-color="#4d6a78"/></linearGradient><path d="M31.4 43h-8.2c-1.1 0-2-.9-2-2s.9-2 2-2h8.2c1.1 0 2 .9 2 2s-.9 2-2 2z" fill="url(#d)"/><linearGradient id="e" gradientUnits="userSpaceOnUse" x1="27.318" y1="34.864" x2="27.318" y2="30.773"><stop offset="0" stop-color="#879ca8"/><stop offset="1" stop-color="#4d6a78"/></linearGradient><path d="M31.4 34.9h-8.2c-1.1 0-2-.9-2-2s.9-2 2-2h8.2c1.1 0 2 .9 2 2 .1 1-.9 2-2 2z" fill="url(#e)"/><linearGradient id="f" gradientUnits="userSpaceOnUse" x1="43.682" y1="37.932" x2="43.682" y2="29.75"><stop offset="0" stop-color="#879ca8"/><stop offset="1" stop-color="#4d6a78"/></linearGradient><circle cx="43.7" cy="33.8" r="4.1" fill="url(#f)"/><linearGradient id="g" gradientUnits="userSpaceOnUse" x1="43.682" y1="44.068" x2="43.682" y2="39.683"><stop offset="0" stop-color="#879ca8"/><stop offset="1" stop-color="#4d6a78"/></linearGradient><path d="M43.7 39.7c-3.2 0-5.1 1.5-5.1 2.9 0 .7 1.9 1.5 5.1 1.5 3 0 5.1-.7 5.1-1.5 0-1.5-2-2.9-5.1-2.9z" fill="url(#g)"/><linearGradient id="h" gradientUnits="userSpaceOnUse" x1="44.825" y1="74.224" x2="58.325" y2="87.724" gradientTransform="matrix(1 0 0 -1 0 102)"><stop offset="0" stop-color="#fff"/><stop offset=".35" stop-color="#fafbfb"/><stop offset=".532" stop-color="#edf1f4"/><stop offset=".675" stop-color="#dde5e9"/><stop offset=".799" stop-color="#c7d3da"/><stop offset=".908" stop-color="#adbdc7"/><stop offset="1" stop-color="#92a5b0"/></linearGradient><path d="M44.8 1l27 26.7h-27V1z" fill="url(#h)"/><path d="M44.8 1l27 26.7h-27V1z" fill-opacity="0" stroke="#7191a1" stroke-width="2" stroke-linejoin="bevel"/></svg>