<svg id="Layer_1" xmlns="http://www.w3.org/2000/svg" viewBox="0 0 72 100"><style>.st0{opacity:.99}</style><g class="st0"><linearGradient id="SVGID_1_" gradientUnits="userSpaceOnUse" x1="36.15" y1="2.887" x2="36.15" y2="101.126" gradientTransform="matrix(1 0 0 -1 0 102)"><stop offset="0" stop-color="#595593"/><stop offset=".012" stop-color="#5b5794"/><stop offset=".182" stop-color="#7b77aa"/><stop offset=".352" stop-color="#9896bf"/><stop offset=".521" stop-color="#b2b2d2"/><stop offset=".687" stop-color="#c7c9e2"/><stop offset=".848" stop-color="#d6d9ec"/><stop offset="1" stop-color="#dbdff0"/></linearGradient><path d="M45.2.9l27.1 26.8v71.4H0V.9h45.2z" fill="url(#SVGID_1_)"/><path d="M45.2.9l27.1 26.8v71.4H0V.9h45.2z" fill-opacity="0" stroke="#2d3293" stroke-width="2"/></g><path d="M13.8 91.2L6.6 71.3H11L16.1 86 21 71.3h4.3l-7.2 19.9h-4.3zm12.8-9.9c0-2 .3-3.7.9-5.1.5-1 1.1-1.9 1.9-2.7s1.7-1.4 2.6-1.8c1.3-.5 2.7-.8 4.3-.8 3 0 5.3.9 7.1 2.7 1.8 1.8 2.7 4.3 2.7 7.6 0 3.2-.9 5.7-2.6 7.5s-4.1 2.7-7.1 2.7-5.4-.9-7.1-2.7c-1.8-1.7-2.7-4.2-2.7-7.4zm4.2-.1c0 2.3.5 4 1.6 5.1 1.1 1.2 2.4 1.7 4 1.7s2.9-.6 4-1.7 1.6-2.9 1.6-5.2c0-2.3-.5-4-1.5-5.1-1-1.1-2.4-1.7-4-1.7s-3 .6-4 1.7-1.7 2.9-1.7 5.2zm16.4 10l6.9-10.4-6.2-9.5h4.7l4 6.4 4-6.4h4.7L59 81l6.9 10.2H61l-4.5-6.9-4.5 6.9h-4.8z" fill="#fff"/><g class="st0"><linearGradient id="SVGID_2_" gradientUnits="userSpaceOnUse" x1="58.321" y1="87.273" x2="50.783" y2="78.839" gradientTransform="matrix(1 0 0 -1 0 102)"><stop offset="0" stop-color="#595593"/><stop offset=".07" stop-color="#706ca2"/><stop offset=".159" stop-color="#8988b5"/><stop offset=".255" stop-color="#a3a5c8"/><stop offset=".359" stop-color="#babfd9"/><stop offset=".471" stop-color="#ced5e7"/><stop offset=".598" stop-color="#dee6f2"/><stop offset=".751" stop-color="#e9f3fa"/><stop offset="1" stop-color="#ecf8fe"/></linearGradient><path d="M45.2.9l27.1 26.8H45.2V.9z" fill="url(#SVGID_2_)"/><path d="M45.2.9l27.1 26.8H45.2V.9z" fill-opacity="0" stroke="#2d3293" stroke-width="2" stroke-linejoin="bevel"/></g><linearGradient id="SVGID_3_" gradientUnits="userSpaceOnUse" x1="36.817" y1="25.462" x2="36.817" y2="64.538"><stop offset="0" stop-color="#352c7f"/><stop offset=".074" stop-color="#3e3786"/><stop offset=".533" stop-color="#544f96"/><stop offset=".658" stop-color="#6763a5"/><stop offset=".783" stop-color="#7572b1"/><stop offset=".896" stop-color="#7e7cba"/><stop offset="1" stop-color="#8180bd"/></linearGradient><path d="M33.6 37.8l7.4 4.9V25.5l-7.4 4.9v-2.5c0-1.4-1.1-2.5-2.5-2.5H16.3c-1.4 0-2.5 1.1-2.5 2.5v12.3c0 1.4 1.1 2.5 2.5 2.5h14.8c1.4 0 2.5-1.1 2.5-2.5v-2.4zM45 42.3v7.4c0 2.7 2.2 4.9 4.9 4.9s4.9-2.2 4.9-4.9v-7.4c0-2.7-2.2-4.9-4.9-4.9S45 39.6 45 42.3zm12.3 7.4c0 4.1-3.3 7.4-7.4 7.4s-7.4-3.3-7.4-7.4H40c0 4.6 3.2 8.4 7.4 9.5v5.3h4.9v-5.3c4.3-1.1 7.4-4.9 7.4-9.5h-2.4z" opacity=".9" fill="url(#SVGID_3_)"/></svg>