<svg xmlns="http://www.w3.org/2000/svg" viewBox="0 0 72 100"><linearGradient id="a" gradientUnits="userSpaceOnUse" x1="36" y1="97" x2="36" y2="-1" gradientTransform="translate(0 2)"><stop offset=".005" stop-color="#37539d"/><stop offset=".188" stop-color="#4a69bf"/><stop offset=".566" stop-color="#7088cd"/><stop offset="1" stop-color="#a8b7e1"/></linearGradient><path fill="url(#a)" d="M45 1l27 26.7V99H0V1h45z"/><linearGradient id="b" gradientUnits="userSpaceOnUse" y1="50" x2="72" y2="50"><stop offset="0" stop-color="#fff"/><stop offset="1"/></linearGradient><path fill="url(#b)" fill-opacity="0" stroke="#37539D" stroke-width="2" d="M45 1l27 26.7V99H0V1h45z"/><linearGradient id="c" gradientUnits="userSpaceOnUse" x1="45.075" y1="25.775" x2="58.575" y2="12.275" gradientTransform="translate(0 2)"><stop offset=".005" stop-color="#dff1fa"/><stop offset=".604" stop-color="#c6d0eb"/><stop offset="1" stop-color="#37539d"/></linearGradient><path fill="url(#c)" d="M45 1l27 26.7H45V1z"/><path fill-opacity="0" stroke="#37539D" stroke-width="2" stroke-linejoin="bevel" d="M45 1l27 26.7H45V1z"/><path d="M15.9 91.1L8.8 71.2h4.4l5.1 14.7 4.9-14.7h4.3L20.3 91h-4.4zm18.1 0V74.6h-6v-3.4h16v3.4h-6v16.5h-4zm10.6 0l6.8-10.4-6.2-9.5h4.7l4 6.4 3.9-6.4h4.7l-6.2 9.6L63.1 91h-4.9l-4.4-6.9-4.5 6.9h-4.7z" fill="#FFF"/><path fill="#37539D" d="M17.1 32.3l21.3-4.1V64l-21.3-3.9z"/><path fill="#37539D" d="M53.3 60.5H35.2c-.9 0-1.6-.7-1.6-1.6V33.4c0-.9.7-1.6 1.6-1.6h18.1c.9 0 1.6.7 1.6 1.6v25.5c0 .9-.7 1.6-1.6 1.6zM35.2 33.3c-.1 0-.2.1-.2.2V59c0 .1.1.2.2.2h18.1c.1 0 .2-.1.2-.2V33.4c0-.1-.1-.2-.2-.2l-18.1.1z"/><path fill="none" stroke="#37539D" stroke-width="2" stroke-miterlimit="10" d="M36 49h6v6h-6zm7.01-9.35l3.607-3.607 3.606 3.607-3.606 3.606zm-.01.15h-5m9 3.2v9m-5 0h6"/><path fill="#A8B7E1" stroke="#A8B7E1" stroke-width=".75" stroke-miterlimit="10" d="M23 41.2h2.1l2.3 6.9c.2.6.4 1.6.4 1.6s.2-.9.4-1.6l2.4-6.9h2.1l-3.9 10.6h-1.9L23 41.2z"/></svg>