<svg xmlns="http://www.w3.org/2000/svg" viewBox="0 0 72 100"><linearGradient id="a" gradientUnits="userSpaceOnUse" x1="36" y1="99.2" x2="36" y2=".7"><stop offset="0" stop-color="#51842a"/><stop offset=".102" stop-color="#609631"/><stop offset=".222" stop-color="#6da737"/><stop offset=".355" stop-color="#77b33b"/><stop offset=".506" stop-color="#7ebb3e"/><stop offset=".69" stop-color="#83c140"/><stop offset="1" stop-color="#85c441"/></linearGradient><path d="M45 .7l27 26.9v71.6H0V.7h45z" fill="url(#a)"/><path d="M45 .7l27 26.9v71.6H0V.7h45z" fill-opacity="0" stroke="#528228" stroke-width="2"/><linearGradient id="b" gradientUnits="userSpaceOnUse" x1="16.325" y1="62.925" x2="55.441" y2="23.809"><stop offset=".005" stop-color="#619530"/><stop offset=".267" stop-color="#60942f"/><stop offset=".443" stop-color="#5b8e2d"/><stop offset=".594" stop-color="#538429"/><stop offset=".731" stop-color="#487723"/><stop offset=".858" stop-color="#3a671b"/><stop offset=".976" stop-color="#29520f"/><stop offset="1" stop-color="#244d0b"/></linearGradient><path d="M57.8 61.4H35.2v-2c2.2-.1 3.5-.3 4.2-.6.6-.3.9-.6.9-1 0-.2-.1-.6-.3-1.1s-.5-1.1-.9-1.7c-.6-1-1.4-2.3-2.4-3.8s-2.1-3.1-3.2-4.8c-3.6 4.2-6 7-6.9 8.4-1 1.4-1.5 2.3-1.5 2.8 0 .2 0 .4.1.6.1.2.3.3.6.5.2.1.7.3 1.3.4.6.1 1.3.2 2.1.3v2H14.8v-2c.7-.1 1.3-.1 1.8-.2.4-.1.9-.2 1.3-.4 1-.5 1.9-1.1 2.7-1.8.8-.7 1.6-1.6 2.4-2.5 1.2-1.4 2.6-2.9 4.1-4.7 1.5-1.7 3.1-3.6 4.8-5.6-1.6-2.4-3.2-4.8-4.8-7-1.6-2.3-3-4.2-4.1-5.8-.6-.8-1.2-1.6-2.1-2.4-.8-.8-1.7-1.4-2.6-1.7-.5-.2-1-.4-1.5-.5-.6-.1-1.2-.2-2-.3v-2h22.6v2c-1.8.1-3.1.2-3.9.5-.8.2-1.3.6-1.3 1.1 0 .2.1.6.2.9.2.4.5 1 1 1.8.4.7 1.1 1.7 1.9 3 .9 1.3 1.9 2.9 3 4.6 3.3-3.9 5.3-6.5 6.2-7.6.8-1.2 1.3-2 1.3-2.4 0-.5-.2-.9-.7-1.1-.5-.3-1.6-.5-3.4-.6v-2h14.4v2c-.7 0-1.2.1-1.6.2-.4.1-.9.3-1.5.5-1.1.5-2 1.1-2.7 1.8-.7.7-1.5 1.5-2.4 2.5-1.3 1.4-2.5 2.8-3.7 4.2-1.2 1.3-2.6 3-4.3 4.9 2.1 3.2 3.9 5.8 5.4 7.9 1.5 2.1 2.9 4.1 4.3 6 .5.8 1.2 1.6 2 2.4.8.8 1.7 1.4 2.6 1.7.4.2.9.3 1.4.4.5.1 1.3.2 2.1.3l.1 1.9z" fill="url(#b)"/><linearGradient id="c" gradientUnits="userSpaceOnUse" x1="45.025" y1="27.625" x2="58.525" y2="14.125"><stop offset="0" stop-color="#f2f5d5"/><stop offset=".312" stop-color="#f0f4d2"/><stop offset=".458" stop-color="#e8eeca"/><stop offset=".569" stop-color="#dde7bd"/><stop offset=".663" stop-color="#cfddad"/><stop offset=".745" stop-color="#bed298"/><stop offset=".82" stop-color="#a9c481"/><stop offset=".889" stop-color="#91b566"/><stop offset=".951" stop-color="#78a647"/><stop offset="1" stop-color="#619932"/></linearGradient><path d="M45 .7l27 26.9H45V.7z" fill="url(#c)"/><path d="M45 .7l27 26.9H45V.7z" fill-opacity="0" stroke="#528228" stroke-width="2" stroke-linejoin="bevel"/><path d="M6.4 91.3L13.3 81l-6.2-9.5h4.7l4 6.4 3.9-6.4h4.7l-6.2 9.6L25 91.3h-4.9l-4.4-6.9-4.5 6.9H6.4zm20.9 0V71.6h4V88h10.1v3.3H27.3zm16.9 0V71.5h6.1L53.9 85l3.6-13.5h6.1v19.8h-3.8V75.7l-4 15.6h-3.9l-4-15.6v15.6h-3.7z" fill="#fff"/></svg>