<svg xmlns="http://www.w3.org/2000/svg" viewBox="0 0 72 100"><linearGradient id="a" gradientUnits="userSpaceOnUse" x1="36.108" y1="3.003" x2="36.108" y2="101.001" gradientTransform="matrix(1 0 0 -1 0 102)"><stop offset="0" stop-color="#c8d4db"/><stop offset=".139" stop-color="#d8e1e6"/><stop offset=".359" stop-color="#ebf0f3"/><stop offset=".617" stop-color="#f9fafb"/><stop offset="1" stop-color="#fff"/></linearGradient><path d="M45.1 1L72 27.7V99H.2V1h44.9z" fill="url(#a)"/><path d="M45.1 1L72 27.7V99H.2V1h44.9z" fill-opacity="0" stroke="#7191a1" stroke-width="2"/><path d="M12.1 91.1v-6.6l-5.8-9.1h3.8l3.7 6.2 3.7-6.2h3.7l-5.8 9.1v6.6h-3.3zm22.9 0h-3.5l-1.4-3.6h-6.3l-1.3 3.6h-3.4l6.2-15.7h3.4L35 91.1zm-5.9-6.3L26.9 79l-2.1 5.8h4.3zm7.6 6.3V75.3h4.8L44.4 86l2.8-10.7H52V91h-3V78.7l-3.1 12.4h-3.1l-3.1-12.4v12.4h-3zm18.5 0V75.4h3.2v13h8v2.7H55.2z" fill="#4c6c7b"/><linearGradient id="b" gradientUnits="userSpaceOnUse" x1="13.15" y1="22" x2="54.15" y2="22" gradientTransform="translate(0 2)"><stop offset="0" stop-color="#7291a1"/><stop offset="1" stop-color="#cad5db"/></linearGradient><path d="M13.1 22h41v4h-41v-4z" fill="url(#b)"/><linearGradient id="c" gradientUnits="userSpaceOnUse" x1="19.15" y1="33.75" x2="60.15" y2="33.75" gradientTransform="translate(0 2)"><stop offset="0" stop-color="#7291a1"/><stop offset="1" stop-color="#cad5db"/></linearGradient><path d="M19.1 33.7h41v4.1h-41v-4.1z" fill="url(#c)"/><linearGradient id="d" gradientUnits="userSpaceOnUse" x1="13.15" y1="45.75" x2="54.15" y2="45.75" gradientTransform="translate(0 2)"><stop offset="0" stop-color="#7291a1"/><stop offset="1" stop-color="#cad5db"/></linearGradient><path d="M13.1 45.7h41v4.1h-41v-4.1z" fill="url(#d)"/><linearGradient id="e" gradientUnits="userSpaceOnUse" x1="19.15" y1="58" x2="60.15" y2="58" gradientTransform="translate(0 2)"><stop offset="0" stop-color="#7291a1"/><stop offset="1" stop-color="#cad5db"/></linearGradient><path d="M19.1 58h41v4h-41v-4z" fill="url(#e)"/><linearGradient id="f" gradientUnits="userSpaceOnUse" x1="45.122" y1="74.229" x2="58.575" y2="87.683" gradientTransform="matrix(1 0 0 -1 0 102)"><stop offset="0" stop-color="#fff"/><stop offset=".35" stop-color="#fafbfb"/><stop offset=".532" stop-color="#edf1f4"/><stop offset=".675" stop-color="#dde5e9"/><stop offset=".799" stop-color="#c7d3da"/><stop offset=".908" stop-color="#adbdc7"/><stop offset="1" stop-color="#92a5b0"/></linearGradient><path d="M45.1 1L72 27.7H45.1V1z" fill="url(#f)"/><path d="M45.1 1L72 27.7H45.1V1z" fill-opacity="0" stroke="#7191a1" stroke-width="2" stroke-linejoin="bevel"/></svg>