<svg xmlns="http://www.w3.org/2000/svg" viewBox="0 0 72 100"><linearGradient id="a" gradientUnits="userSpaceOnUse" x1="36" y1=".994" x2="36" y2="99.001" gradientTransform="matrix(1 0 0 -1 0 100)"><stop offset="0" stop-color="#efc402"/><stop offset=".038" stop-color="#f1c829"/><stop offset=".147" stop-color="#f4d264"/><stop offset=".258" stop-color="#f7dc8b"/><stop offset=".372" stop-color="#f9e5ac"/><stop offset=".488" stop-color="#fbecc7"/><stop offset=".606" stop-color="#fcf3dd"/><stop offset=".728" stop-color="#fef9ee"/><stop offset=".856" stop-color="#fffdf9"/><stop offset="1" stop-color="#fff"/></linearGradient><path d="M45 1l27 26.7V99H0V1h45z" fill="url(#a)"/><path d="M45 1l27 26.7V99H0V1h45z" fill-opacity="0" stroke="#ba9c02" stroke-width="2"/><path d="M14.4 92.1v-3.6l10.5-12.9h-9.3v-3.4h14.7v3.1l-11 13.4h11.4V92H14.4zm18.7 0V72.2h4V92h-4zm7.9 0V72.2h6.5c2.5 0 4.1.1 4.8.3 1.1.3 2.1.9 2.9 1.9s1.2 2.3 1.2 3.9c0 1.2-.2 2.2-.7 3.1s-1 1.5-1.7 2-1.4.8-2.1.9c-1 .2-2.4.3-4.2.3h-2.6v7.5H41zm4.1-16.5v5.6h2.2c1.6 0 2.7-.1 3.2-.3s1-.5 1.3-1 .5-1 .5-1.5c0-.7-.2-1.3-.6-1.8-.4-.5-1-.8-1.6-.9-.5-.1-1.5-.1-2.9-.1h-2.1z" fill="#a07802"/><linearGradient id="b" gradientUnits="userSpaceOnUse" x1="45.068" y1="72.204" x2="58.568" y2="85.704" gradientTransform="matrix(1 0 0 -1 0 100)"><stop offset=".005" stop-color="#fff"/><stop offset=".234" stop-color="#fffefb"/><stop offset=".369" stop-color="#fefaf1"/><stop offset=".481" stop-color="#fdf5e4"/><stop offset=".579" stop-color="#fcf0d2"/><stop offset=".669" stop-color="#fae9bc"/><stop offset=".752" stop-color="#f9e2a2"/><stop offset=".831" stop-color="#f7da83"/><stop offset=".905" stop-color="#f4d15d"/><stop offset=".975" stop-color="#f1c827"/><stop offset="1" stop-color="#efc402"/></linearGradient><path d="M45 1l27 26.7H45V1z" fill="url(#b)"/><path d="M45 1l27 26.7H45V1z" fill-opacity="0" stroke="#ba9c02" stroke-width="2" stroke-linejoin="bevel"/><linearGradient id="c" gradientUnits="userSpaceOnUse" x1="33.6" y1="38.712" x2="33.6" y2="96.031" gradientTransform="matrix(1 0 0 -1 0 100)"><stop offset=".005" stop-color="#a47d03"/><stop offset=".533" stop-color="#debe00"/><stop offset=".639" stop-color="#cfad04"/><stop offset="1" stop-color="#a07802"/></linearGradient><path d="M38 15.8h-8.5v-4.9H38v4.9zm0 9h-8.5v4.9H38v-4.9zM38 4h-8.5v4.9H38V4zm0 13.8h-8.5v4.9H38v-4.9zm0 13.9h-8.5v4.9H38v-4.9zm.7 24.5c0 2.8-2.3 5-5.1 5s-5.1-2.3-5.1-5v-.5l1.7-14.6c0-1.9 1.5-3.4 3.4-3.4 1.8 0 3.3 1.5 3.4 3.3l1.6 14.4c.1.3.1.5.1.8zm-1.6-.2c0-1.9-1.6-3.5-3.5-3.5s-3.5 1.6-3.5 3.5 1.6 3.5 3.5 3.5c2 0 3.5-1.6 3.5-3.5z" fill="url(#c)"/><path d="M32.5 41.6l-2.3-4.5v-2.3l2.3-2.2h2.2l2.3 2.2v2.3l-2.3 4.5h-2.2z" fill="#fff"/></svg>