<svg xmlns="http://www.w3.org/2000/svg" viewBox="0 0 72 100"><linearGradient id="a" gradientUnits="userSpaceOnUse" x1="36" y1="101" x2="36" y2="3.004" gradientTransform="matrix(1 0 0 -1 0 102)"><stop offset="0" stop-color="#f8b0b8"/><stop offset=".211" stop-color="#f6acb5"/><stop offset=".37" stop-color="#f2a3ad"/><stop offset=".512" stop-color="#ed95a1"/><stop offset=".645" stop-color="#e78292"/><stop offset=".77" stop-color="#e06980"/><stop offset=".889" stop-color="#d7486b"/><stop offset="1" stop-color="#ce0757"/></linearGradient><path d="M45.1 1l27.2 26.7V99H-.2V1h45.3z" fill="url(#a)"/><path d="M45.1 1l27.2 26.7V99H-.2V1h45.3z" fill-opacity="0" stroke="#d41c5c" stroke-width="2"/><path d="M33.9 91.1h-4.4l-1.8-4.5h-8.1L18 91.1h-4.3l7.9-19.8h4.3l8 19.8zm-7.5-7.9l-2.8-7.4-2.7 7.4h5.5zm9.6 7.9V71.2h4V91h-4zm12.5 0V74.6h-6v-3.4h16v3.4h-6v16.5h-4z" fill="#fff"/><linearGradient id="b" gradientUnits="userSpaceOnUse" x1="1729.689" y1="-415.956" x2="1753.864" y2="-415.956" gradientTransform="scale(-1 1) rotate(-35.88 1555.712 2555.727)"><stop offset="0" stop-color="#ee2868"/><stop offset="1" stop-color="#bc024f"/></linearGradient><path d="M22 62.3L17.4 59s7.7-15.2 4.7-20.8l16.3-12.6s6.2 1 9.3 6.5l-7 19.1C34.3 50.3 22 62.3 22 62.3zm11.1-19.8c1.3.9 3 .6 3.9-.6.9-1.3.6-3-.6-3.9-1.3-.9-3-.6-3.9.6-1 1.2-.7 3 .6 3.9zm0 0L19.8 60.6m39.3-34.4c-6.2-11.8-19.6-14-19.6-14l-6 8.2c13.4 2.2 19.6 14 19.6 14l6-8.2z" opacity=".73" fill="url(#b)"/><path d="M19.9 60.8l13.4-18.2" fill-opacity="0" stroke="#f8b6bb"/><linearGradient id="c" gradientUnits="userSpaceOnUse" x1="45.178" y1="74.159" x2="58.772" y2="87.753" gradientTransform="matrix(1 0 0 -1 0 102)"><stop offset="0" stop-color="#fffeee"/><stop offset=".265" stop-color="#fffaec"/><stop offset=".402" stop-color="#fef2e6"/><stop offset=".51" stop-color="#fce7dc"/><stop offset=".604" stop-color="#fad7cf"/><stop offset=".687" stop-color="#f6c3bf"/><stop offset=".763" stop-color="#f2abac"/><stop offset=".834" stop-color="#ee8f97"/><stop offset=".901" stop-color="#ea6f82"/><stop offset=".962" stop-color="#e5446d"/><stop offset="1" stop-color="#e30e60"/></linearGradient><path d="M45.1 1l27.2 26.7H45.1V1z" fill="url(#c)"/><path d="M45.1 1l27.2 26.7H45.1V1z" fill-opacity="0" stroke="#d41c5c" stroke-width="2" stroke-linejoin="bevel"/></svg>