<svg xmlns="http://www.w3.org/2000/svg" viewBox="0 0 72 100"><linearGradient id="a" gradientUnits="userSpaceOnUse" x1="36" y1="2.265" x2="36" y2="100.25" gradientTransform="matrix(1 0 0 -1 0 101)"><stop offset="0" stop-color="#c8d4db"/><stop offset=".139" stop-color="#d8e1e6"/><stop offset=".359" stop-color="#ebf0f3"/><stop offset=".617" stop-color="#f9fafb"/><stop offset="1" stop-color="#fff"/></linearGradient><path d="M45 .8l27 26.7v71.3H0V.8h45z" fill="url(#a)"/><path d="M45 .8l27 26.7v71.3H0V.8h45z" fill-opacity="0" stroke="#7191a1" stroke-width="2"/><path d="M21.9 89.8h-3.5L17 86.2h-6.4l-1.3 3.6H5.9l6.2-15.7h3.4l6.4 15.7zM16 83.6l-2.2-5.8-2.1 5.8H16zm6.8 1.1l3.1-.3c.2 1 .6 1.8 1.1 2.3.6.5 1.4.7 2.3.7 1 0 1.8-.2 2.3-.7.5-.4.8-.9.8-1.5 0-.4-.1-.7-.3-1-.1-.2-.5-.4-1.1-.6-.4-.1-1.2-.4-2.6-.7-1.7-.4-2.9-.9-3.6-1.6-1-.9-1.5-1.9-1.5-3.2 0-.8.2-1.6.7-2.2.5-.7 1.1-1.2 2-1.6s1.9-.5 3.1-.5c2 0 3.5.4 4.5 1.3s1.5 2 1.6 3.5l-3.2.1c-.1-.8-.4-1.4-.9-1.7-.5-.4-1.1-.5-2-.5-.9 0-1.7.2-2.2.6-.3.2-.5.6-.5 1s.2.7.5 1c.4.3 1.4.7 3 1.1 1.6.4 2.7.7 3.5 1.1.7.4 1.3.9 1.8 1.6.4.7.6 1.5.6 2.5 0 .9-.3 1.7-.8 2.5s-1.2 1.4-2.1 1.8c-.9.4-2.1.6-3.5.6-2 0-3.6-.5-4.6-1.4-1.2-1.1-1.8-2.4-2-4.2zm15.6 5.1V74.1h5.2c2 0 3.2.1 3.8.2.9.2 1.7.8 2.3 1.5.6.8.9 1.8.9 3.1 0 1-.2 1.8-.5 2.4s-.8 1.2-1.4 1.6c-.5.4-1.1.6-1.7.7-.8.2-1.9.2-3.3.2h-2.1v5.9h-3.2zm3.2-13.1v4.5h1.8c1.3 0 2.1-.1 2.5-.2s.8-.4 1-.8.4-.8.4-1.2c0-.6-.2-1-.5-1.4-.3-.4-.8-.6-1.3-.7-.4-.1-1.2-.1-2.3-.1h-1.6zm10 13.1l5.4-8.2-4.9-7.5h3.8l3.2 5.1 3.1-5.1h3.7L61 81.7l5.4 8.1h-3.9L59 84.4l-3.5 5.4h-3.9z" fill="#4c6c7b"/><linearGradient id="b" gradientUnits="userSpaceOnUse" x1="35.619" y1="64.5" x2="35.619" y2="18.906"><stop offset="0" stop-color="#adccdc"/><stop offset="1" stop-color="#4c6c7b"/></linearGradient><path d="M28.2 44.6c-1.4 1-2.7 2.1-4 3.1-2.7 2-5.3 4.1-8 6.1-.4.3-.6.3-1 .1-.5-.3-1.1-.6-1.7-.9-.3-.2-.4-.4-.4-.7V31.1c0-.2.2-.6.4-.7.6-.4 1.3-.7 1.9-1 .3-.2.6 0 .9.2 2.2 1.7 4.4 3.4 6.6 5 1.8 1.4 3.6 2.8 5.4 4.1.1-.1.3-.2.4-.3 6.6-6.4 13.2-12.8 19.7-19.2.3-.3.6-.4 1-.2 2.8 1.1 5.6 2.2 8.4 3.4.2.1.4.4.5.6.1.1 0 .3 0 .5V60c0 .9 0 .9-.9 1.2-2.7 1.1-5.3 2.1-7.9 3.2-.5.2-.8.1-1.1-.2-6.5-6.4-13-12.7-19.6-19l-.6-.6zm19 5.8V33c-3.9 2.9-7.7 5.8-11.6 8.7 3.9 2.9 7.7 5.8 11.6 8.7zm-24.3-8.7c-1.9-1.7-3.8-3.4-5.8-5.2v10.4c1.9-1.7 3.8-3.5 5.8-5.2z" fill="url(#b)"/><linearGradient id="c" gradientUnits="userSpaceOnUse" x1="45.069" y1="73.457" x2="58.569" y2="86.957" gradientTransform="matrix(1 0 0 -1 0 101)"><stop offset="0" stop-color="#fff"/><stop offset=".35" stop-color="#fafbfb"/><stop offset=".532" stop-color="#edf1f4"/><stop offset=".675" stop-color="#dde5e9"/><stop offset=".799" stop-color="#c7d3da"/><stop offset=".908" stop-color="#adbdc7"/><stop offset="1" stop-color="#92a5b0"/></linearGradient><path d="M45 .8l27 26.7H45V.8z" fill="url(#c)"/><path d="M45 .8l27 26.7H45V.8z" fill-opacity="0" stroke="#7191a1" stroke-width="2" stroke-linejoin="bevel"/></svg>