<svg id="Layer_1" xmlns="http://www.w3.org/2000/svg" viewBox="0 0 72 100"><style>.st0{opacity:.99}</style><g class="st0"><linearGradient id="SVGID_1_" gradientUnits="userSpaceOnUse" x1="36.15" y1="97.1" x2="36.15" y2="-1.1" gradientTransform="translate(0 2)"><stop offset="0" stop-color="#595593"/><stop offset=".012" stop-color="#5b5794"/><stop offset=".182" stop-color="#7b77aa"/><stop offset=".352" stop-color="#9896bf"/><stop offset=".521" stop-color="#b2b2d2"/><stop offset=".687" stop-color="#c7c9e2"/><stop offset=".848" stop-color="#d6d9ec"/><stop offset="1" stop-color="#dbdff0"/></linearGradient><path d="M45.2.9l27.1 26.8v71.4H0V.9h45.2z" fill="url(#SVGID_1_)"/><path d="M45.2.9l27.1 26.8v71.4H0V.9h45.2z" fill-opacity="0" stroke="#2d3293" stroke-width="2"/></g><linearGradient id="surface1_1_" gradientUnits="userSpaceOnUse" x1="36.9" y1="22.602" x2="36.9" y2="61.552"><stop offset="0" stop-color="#352c7f"/><stop offset=".074" stop-color="#3e3786"/><stop offset=".266" stop-color="#544f96"/><stop offset=".457" stop-color="#6763a5"/><stop offset=".645" stop-color="#7572b1"/><stop offset=".827" stop-color="#7e7cba"/><stop offset="1" stop-color="#8180bd"/></linearGradient><path id="surface1" d="M36.9 22.6c-4.4 0-8.4 1.2-11.4 3.3-3 2.1-5 5.3-5 9v5.3c-2.4 1.8-4.1 5.7-4.1 10.1 0 6.1 3.3 11.3 7.2 11.3 1 0 2-.4 3.1-1V40c-.6-.4-1.3-.7-2-.9v-4.2c0-2.1 1.1-4.1 3.3-5.6 2.2-1.6 5.4-2.6 9-2.6 3.6 0 6.8 1 9 2.6s3.3 3.5 3.3 5.6v4.2c-.7.2-1.4.5-2 .9v20.3c1 .6 2 1 3.1 1 3.9 0 7.2-5.1 7.2-11.3 0-4.3-1.7-8.1-4.1-9.9v-5.3c0-3.6-2-6.8-5-9-3.2-2-7.2-3.2-11.6-3.2zm0 18l-4.5 8.8-2.7-3.7-1 1.4V54l1-1.2 3.5 4.5 3.7-7.6 3.7 7.6 3.5-4.5 1 1.2v-6.8l-1-1.4-2.7 3.7-4.5-8.9z" fill="url(#surface1_1_)"/><path d="M27.1 91.2h-4.4l-1.8-4.5h-8l-1.7 4.5H6.9l7.8-19.9H19l8.1 19.9zm-7.5-7.9l-2.8-7.4-2.7 7.4h5.5zm9.6-12h4.1V82c0 1.7.1 2.8.2 3.3.2.8.6 1.5 1.2 2 .7.5 1.5.7 2.7.7s2-.2 2.6-.7.9-1 1.1-1.7c.1-.7.2-1.8.2-3.4v-11h4.1v10.4c0 2.4-.1 4.1-.3 5.1s-.6 1.8-1.2 2.5-1.4 1.2-2.4 1.6-2.3.6-3.9.6c-1.9 0-3.4-.2-4.4-.7-1-.4-1.8-1-2.4-1.7s-1-1.4-1.1-2.2c-.3-1.1-.4-2.8-.4-5l-.1-10.5zm20.3 19.9V71.3H56c2.5 0 4.1.1 4.8.3 1.2.3 2.1.9 2.9 1.9.8 1 1.2 2.3 1.2 3.9 0 1.2-.2 2.2-.7 3.1-.4.8-1 1.5-1.7 2s-1.4.8-2.1.9c-1 .2-2.4.3-4.2.3h-2.6v7.5h-4.1zm4.1-16.6v5.6h2.2c1.6 0 2.7-.1 3.2-.3s1-.5 1.3-1c.3-.4.5-1 .5-1.5 0-.7-.2-1.3-.6-1.8-.4-.5-1-.8-1.6-.9-.5-.1-1.5-.1-2.9-.1h-2.1z" fill="#fff"/><g class="st0"><linearGradient id="SVGID_2_" gradientUnits="userSpaceOnUse" x1="58.347" y1="12.751" x2="50.809" y2="21.184" gradientTransform="translate(0 2)"><stop offset="0" stop-color="#595593"/><stop offset=".07" stop-color="#706ca2"/><stop offset=".159" stop-color="#8988b5"/><stop offset=".255" stop-color="#a3a5c8"/><stop offset=".359" stop-color="#babfd9"/><stop offset=".471" stop-color="#ced5e7"/><stop offset=".598" stop-color="#dee6f2"/><stop offset=".751" stop-color="#e9f3fa"/><stop offset="1" stop-color="#ecf8fe"/></linearGradient><path d="M45.2.9l27.1 26.8H45.2V.9z" fill="url(#SVGID_2_)"/><path d="M45.2.9l27.1 26.8H45.2V.9z" fill-opacity="0" stroke="#2d3293" stroke-width="2" stroke-linejoin="bevel"/></g></svg>