<svg xmlns="http://www.w3.org/2000/svg" viewBox="0 0 72 100"><linearGradient id="a" gradientUnits="userSpaceOnUse" x1="36" y1="3" x2="36" y2="101" gradientTransform="matrix(1 0 0 -1 0 102)"><stop offset="0" stop-color="#c8d4db"/><stop offset=".139" stop-color="#d8e1e6"/><stop offset=".359" stop-color="#ebf0f3"/><stop offset=".617" stop-color="#f9fafb"/><stop offset="1" stop-color="#fff"/></linearGradient><path d="M45 1l27 26.7V99H0V1h45z" fill="url(#a)"/><path d="M45 1l27 26.7V99H0V1h45z" stroke="#7191a1" stroke-width="2" fill="none"/><linearGradient id="b" gradientUnits="userSpaceOnUse" x1="45.037" y1="74.187" x2="58.537" y2="87.687" gradientTransform="matrix(1 0 0 -1 0 102)"><stop offset="0" stop-color="#fff"/><stop offset=".35" stop-color="#fafbfb"/><stop offset=".532" stop-color="#edf1f4"/><stop offset=".675" stop-color="#dde5e9"/><stop offset=".799" stop-color="#c7d3da"/><stop offset=".908" stop-color="#adbdc7"/><stop offset="1" stop-color="#92a5b0"/></linearGradient><path d="M45 1l27 26.7H45V1z" fill="url(#b)"/><path d="M45 1l27 26.7H45V1z" stroke="#7191a1" stroke-width="2" stroke-linejoin="bevel" fill="none"/><path d="M8.4 71.8h8c1.6 0 2.8.1 3.5.2s1.5.4 2.1.8 1.1 1 1.5 1.7.6 1.5.6 2.3c0 .9-.3 1.8-.8 2.6s-1.2 1.4-2.1 1.8c1.2.4 2.2 1 2.8 1.8s1 1.9 1 3c0 .9-.2 1.8-.6 2.7s-1 1.5-1.7 2.1c-.7.5-1.6.8-2.7 1-.7.1-2.3.1-4.9.1H8.4V71.8zm4 3.4v4.6h2.7c1.6 0 2.6 0 2.9-.1.7-.1 1.2-.3 1.6-.7s.6-.9.6-1.6c0-.6-.2-1.1-.5-1.5s-.9-.6-1.5-.7c-.4 0-1.6-.1-3.5-.1h-2.3zm0 7.9v5.4h3.7c1.5 0 2.4 0 2.8-.1.6-.1 1.1-.4 1.5-.8.4-.4.6-1 .6-1.7 0-.6-.1-1.1-.4-1.5-.3-.4-.7-.7-1.3-.9-.6-.2-1.7-.3-3.6-.3h-3.3zm34.2 8.8h-4.4l-1.8-4.6h-8l-1.7 4.6h-4.3l7.8-20h4.3l8.1 20zM39.2 84l-2.8-7.4-2.7 7.4h5.5zm9.6 7.9v-20h4v8.9l8.2-8.9h5.4L59 79.6l8 12.2h-5.2l-5.5-9.4-3.3 3.3v6.1h-4.2z" fill="#4c6c7b"/><g opacity=".85"><linearGradient id="c" gradientUnits="userSpaceOnUse" x1="27.2" y1="52.571" x2="27.2" y2="76" gradientTransform="matrix(1 0 0 -1 0 100)"><stop offset="0" stop-color="#adccdc"/><stop offset="1" stop-color="#4c6c7b"/></linearGradient><path d="M15.5 24v23.4h8.8V32.8h14.6V24H15.5z" fill="url(#c)"/><linearGradient id="d" gradientUnits="userSpaceOnUse" x1="41.85" y1="35" x2="41.85" y2="64.3" gradientTransform="matrix(1 0 0 -1 0 100)"><stop offset="0" stop-color="#adccdc"/><stop offset="1" stop-color="#4c6c7b"/></linearGradient><path d="M27.2 35.7V65h29.3V35.7H27.2z" fill="url(#d)"/></g></svg>