<svg xmlns="http://www.w3.org/2000/svg" viewBox="0 0 72 100"><linearGradient id="a" gradientUnits="userSpaceOnUse" x1="36" y1="2.2" x2="36" y2="100.2" gradientTransform="matrix(1 0 0 -1 0 101)"><stop offset="0" stop-color="#c8d4db"/><stop offset=".139" stop-color="#d8e1e6"/><stop offset=".359" stop-color="#ebf0f3"/><stop offset=".617" stop-color="#f9fafb"/><stop offset="1" stop-color="#fff"/></linearGradient><path d="M45 .8l27 26.7v71.3H0V.8h45z" fill="url(#a)"/><path d="M45 .8l27 26.7v71.3H0V.8h45z" stroke="#7191a1" stroke-width="2" fill="none"/><linearGradient id="b" gradientUnits="userSpaceOnUse" x1="45.075" y1="73.425" x2="58.575" y2="86.925" gradientTransform="matrix(1 0 0 -1 0 101)"><stop offset="0" stop-color="#fff"/><stop offset=".35" stop-color="#fafbfb"/><stop offset=".532" stop-color="#edf1f4"/><stop offset=".675" stop-color="#dde5e9"/><stop offset=".799" stop-color="#c7d3da"/><stop offset=".908" stop-color="#adbdc7"/><stop offset="1" stop-color="#92a5b0"/></linearGradient><path d="M45 .8l27 26.7H45V.8z" fill="url(#b)"/><path d="M45 .8l27 26.7H45V.8z" stroke="#7191a1" stroke-width="2" stroke-linejoin="bevel" fill="none"/><linearGradient id="c" gradientUnits="userSpaceOnUse" x1="36.667" y1="22.485" x2="36.667" y2="68.113" gradientTransform="matrix(1 0 0 -1 0 100)"><stop offset="0" stop-color="#adccdc"/><stop offset="1" stop-color="#4c6c7b"/></linearGradient><linearGradient id="d" gradientUnits="userSpaceOnUse" x1="36.667" y1="77.765" x2="36.667" y2="31.637"><stop offset="0" stop-color="#adccdc"/><stop offset="1" stop-color="#4c6c7b"/></linearGradient><path d="M59.8 53.1c-.5-.2-1.1-.5-1.6-.6-3.2-.7-6.3-1.4-9.5-2-2.3-.4-4.7-.7-7-1 .2-1.6.5-1.8 2.2-2.1.9 1.5.9 1.5 2.7 1.3 3.8-.4 6.2-2.6 6.9-6.5.5-2.9 1.1-5.7 3.3-7.8v-.2c-4-1.2-9.2 1.5-12.4 6.7-1.5-.2-2.4-.7-3.1-2.2-1.7-4.1-5-6.6-9.6-6.8-8.3-.3-15.8 4.5-19.1 12.2-3.2 7.6-2.2 15 1.5 22.2 1.5 2.9 3.4 5.5 6.2 7.3 2.4 1.5 4.6 1.1 6.2-1.3l.3-.3.7 1.9c.2.6.5 1.3.7 1.9.6 1.3 2 1.9 3.3 1.4.3-.1.8-.1 1.1 0 1.4.5 2.8.5 3.9-.7.2-.2.6-.2.9-.2 2 .1 3.1-.6 3.9-2.4.1-.2.2-.3.3-.4 1.3-1 1.6-2.1 1-3.7-.4-.9-.9-1.8-1.4-2.7-.3-.6-.7-1.3-1.2-2.1 2.2.7 4.1 1.5 5.9-.2.4.2.7.4 1 .5 1.8.8 4.2.5 5.3-.7.4-.5.8-.5 1.4-.5 2.3.2 4.9-.5 5.3-3.2 2.4-.5 3.5-1.5 3.7-3.6.3-2-.6-3.3-2.8-4.2zm-14-5.7c-.2 0-.6-.4-.7-.7-.2-.4-.2-.9-.4-1.7l1.9.7c.9-.6 1.7.3 3 .5-1.3.9-2.5 1.2-3.8 1.2zm8.1-11.9c-.9 3.2-1.9 6.4-2.9 9.8-1.2-1-2-1.7-3.1-2.6l3.5-5.4c-1.9 1.2-3.1 3-4.1 5l-1.6-.9c1.2-3 5.2-5.8 8.2-5.9zm-13.2 6c2.6.1 4.9 1.3 7 2.9.1.1.2.4.3.8-2.4-.8-4.4-.5-6.5.2-.6.2-1.3.1-2 .1v.3l3.8-.2v.3l-3.9 1.8c-1-1.4-.6-4.7.5-5.9.2-.1.5-.3.8-.3zm5.9 13.6v.3c4.1.8 8.1 1.6 12.2 2.4-.5 1.3-1.5 1.7-3.8 1.7-.1 2.2-1.1 2.8-4.5 2.6-.7 2-2.5 2.5-5.6 1.3-1.7 1.8-3.5 1.2-5.5.4-.4 3-1.8 5.3-4.4 6.8-2.4 1.4-5.1 1.2-7.7.7C16.8 69 10.7 58.8 13.5 48c2.1-8 8.6-13.5 16.7-13.9 3.9-.2 7.4 1.8 9 5.3.2.3.2 1 0 1.2-2.2 2.7-2.2 5.6-.8 8.6.3.7.2 1.1-.2 1.6-1.9 2.3-4.4 3.7-7.1 4.6l-.4.1c3.2-.1 6.3-.6 8.6-3.2.6-.7 1.2-.9 2-.7 4.4.7 8.7 1.4 13.1 2.1 1.1.2 2.2.5 3.3.8.8.2 1.4.8 1.6 1.8-4.3-.4-8.5-.8-12.7-1.2zM33.5 43.5c0-1.5-1.2-2.7-2.7-2.6-1.4 0-2.6 1.4-2.6 2.7.1 1.4 1.3 2.6 2.7 2.6 1.4 0 2.6-1.2 2.6-2.7zm-4.2-1.2c0-.9.9-1.1 1.7-1 .7 0 1.5.2 1.5 1 0 .9-1 1-1.9 1.3-.5-.4-1.3-.8-1.3-1.3z" opacity=".9" fill="url(#c)" stroke="url(#d)" stroke-width=".5" stroke-miterlimit="10"/></svg>