<svg xmlns="http://www.w3.org/2000/svg" viewBox="0 0 72 100"><linearGradient id="a" gradientUnits="userSpaceOnUse" x1="36" y1="97" x2="36" y2="-1" gradientTransform="translate(0 2)"><stop offset="0" stop-color="#c8d4db"/><stop offset=".139" stop-color="#d8e1e6"/><stop offset=".359" stop-color="#ebf0f3"/><stop offset=".617" stop-color="#f9fafb"/><stop offset="1" stop-color="#fff"/></linearGradient><path d="M45 1l27 26.7V99H0V1h45z" fill="url(#a)"/><path d="M45 1l27 26.7V99H0V1h45z" fill-opacity="0" stroke="#7191a1" stroke-width="2"/><linearGradient id="b" gradientUnits="userSpaceOnUse" x1="45.037" y1="25.813" x2="58.537" y2="12.313" gradientTransform="translate(0 2)"><stop offset="0" stop-color="#fff"/><stop offset=".35" stop-color="#fafbfb"/><stop offset=".532" stop-color="#edf1f4"/><stop offset=".675" stop-color="#dde5e9"/><stop offset=".799" stop-color="#c7d3da"/><stop offset=".908" stop-color="#adbdc7"/><stop offset="1" stop-color="#92a5b0"/></linearGradient><path d="M45 1l27 26.7H45V1z" fill="url(#b)"/><path d="M45 1l27 26.7H45V1z" fill-opacity="0" stroke="#7191a1" stroke-width="2" stroke-linejoin="bevel"/><path d="M6 81.6h3.7c.7 0 1.3 0 1.6.1.4.1.7.2 1 .4.3.2.5.5.7.8.2.3.3.7.3 1.1 0 .4-.1.8-.4 1.2-.2.4-.6.6-1 .8.6.2 1 .4 1.3.8s.5.9.5 1.4c0 .4-.1.8-.3 1.2-.2.4-.5.7-.8 1-.3.2-.8.4-1.3.4-.3 0-1.1.1-2.3.1H6v-9.3zm1.9 1.5v2.2h2.6c.3 0 .6-.1.8-.3.2-.2.3-.4.3-.7 0-.3-.1-.5-.2-.7-.2-.2-.4-.3-.7-.3H7.9zm0 3.7v2.5h1.7c.7 0 1.1 0 1.3-.1.3-.1.5-.2.7-.4.2-.2.3-.5.3-.8 0-.3-.1-.5-.2-.7-.1-.2-.3-.3-.6-.4-.3-.1-.8-.1-1.7-.1H7.9zm6.7 4.1v-1.7l4.9-6h-4.3v-1.6H22V83l-5.1 6.3h5.3v1.6h-7.6zm8.7 0v-9.3h6.9v1.6h-5v2.1h4.7v1.6h-4.7v2.5h5.2V91h-7.1zm8.7 0v-9.3h2.8l1.7 6.3 1.7-6.3H41v9.3h-1.7v-7.3l-1.8 7.3h-1.8l-1.8-7.3v7.3H32zm10.8 0v-9.3h3c1.1 0 1.9 0 2.2.1.5.1 1 .4 1.3.9.4.5.5 1.1.5 1.8 0 .6-.1 1.1-.3 1.4-.2.4-.5.7-.8.9-.3.2-.6.4-1 .4-.4.1-1.1.1-1.9.1h-1.2v3.5h-1.8zm1.9-7.7v2.6h1c.7 0 1.2 0 1.5-.1.2-.1.4-.2.6-.5.2-.2.2-.5.2-.7 0-.3-.1-.6-.3-.8-.2-.2-.5-.4-.8-.4-.2 0-.7-.1-1.4-.1h-.8zm8.9 7.7v-7.7h-2.8v-1.6h7.4v1.6h-2.8v7.7h-1.8zm8.3 0V87l-3.4-5.4h2.2l2.2 3.7 2.1-3.7h2.2L63.8 87v3.9h-1.9z" fill="#4c6c7b"/><g opacity=".8"><linearGradient id="c" gradientUnits="userSpaceOnUse" x1="46.713" y1="29.6" x2="46.713" y2="50" gradientTransform="matrix(1 0 0 -1 0 100)"><stop offset="0" stop-color="#adccdc"/><stop offset="1" stop-color="#4c6c7b"/></linearGradient><path d="M49.9 50c5.7 7.9 2.1 18.2-7.6 20.4-4.7-6.8 2.7-12.9 7.6-20.4z" fill="url(#c)"/><linearGradient id="d" gradientUnits="userSpaceOnUse" x1="29.653" y1="29.5" x2="29.653" y2="70.5" gradientTransform="matrix(1 0 0 -1 0 100)"><stop offset="0" stop-color="#adccdc"/><stop offset="1" stop-color="#4c6c7b"/></linearGradient><path d="M24.4 68.3l.3.2c1.8 1.2 3.8 1.8 5.9 2-1.8-3.9-1.5-8.4.9-11.9l6.8-10c3.7-5.6 2.2-13.2-3.4-16.9l-.3-.2c-1.8-1.2-3.8-1.8-5.9-2 1.8 3.9 1.5 8.4-.9 11.9l-6.8 10c-3.7 5.6-2.2 13.2 3.4 16.9z" fill="url(#d)"/><linearGradient id="e" gradientUnits="userSpaceOnUse" x1="44.231" y1="43.167" x2="44.231" y2="60.897" gradientTransform="matrix(1 0 0 -1 0 100)"><stop offset="0" stop-color="#adccdc"/><stop offset="1" stop-color="#4c6c7b"/></linearGradient><path d="M41.9 56.8s1.9-2.6 3-4.2l2.9-4.2c3.5-5.1-2.6-9.3-3.5-9.3.8 1.6 0 4.8-1 6.3l-2.9 4.2c-1.5 2.5-.9 5.7 1.5 7.2z" fill="url(#e)"/></g></svg>