<svg xmlns="http://www.w3.org/2000/svg" viewBox="0 0 72 100"><linearGradient id="a" gradientUnits="userSpaceOnUse" x1="36" y1="3" x2="36" y2="101" gradientTransform="matrix(1 0 0 -1 0 102)"><stop offset="0" stop-color="#c8d4db"/><stop offset=".139" stop-color="#d8e1e6"/><stop offset=".359" stop-color="#ebf0f3"/><stop offset=".617" stop-color="#f9fafb"/><stop offset="1" stop-color="#fff"/></linearGradient><path d="M45 1l27 26.7V99H0V1h45z" fill="url(#a)"/><path d="M45 1l27 26.7V99H0V1h45z" fill-opacity="0" stroke="#7191a1" stroke-width="2"/><g opacity=".9"><linearGradient id="b" gradientUnits="userSpaceOnUse" x1="19" y1="39.207" x2="19" y2="67.397" gradientTransform="matrix(1 0 0 -1 0 100)"><stop offset="0" stop-color="#adccdc"/><stop offset=".153" stop-color="#9ab9c9"/><stop offset=".529" stop-color="#708f9f"/><stop offset=".824" stop-color="#567685"/><stop offset="1" stop-color="#4c6c7b"/></linearGradient><linearGradient id="c" gradientUnits="userSpaceOnUse" x1="19" y1="37.568" x2="19" y2="69.036" gradientTransform="matrix(1 0 0 -1 0 100)"><stop offset="0" stop-color="#adccdc"/><stop offset=".153" stop-color="#9ab9c9"/><stop offset=".529" stop-color="#708f9f"/><stop offset=".824" stop-color="#567685"/><stop offset="1" stop-color="#4c6c7b"/></linearGradient><path d="M12 44.7l14-12.1v6.1l-9.5 7.9v.1l9.5 7.9v6.1l-14-12v-4z" fill="url(#b)" stroke="url(#c)" stroke-width="1.5" stroke-miterlimit="10"/><linearGradient id="d" gradientUnits="userSpaceOnUse" x1="36.7" y1="35.5" x2="36.7" y2="70.5" gradientTransform="matrix(1 0 0 -1 0 100)"><stop offset="0" stop-color="#adccdc"/><stop offset=".153" stop-color="#9ab9c9"/><stop offset=".529" stop-color="#708f9f"/><stop offset=".824" stop-color="#567685"/><stop offset="1" stop-color="#4c6c7b"/></linearGradient><linearGradient id="e" gradientUnits="userSpaceOnUse" x1="36.701" y1="34.75" x2="36.701" y2="71.25" gradientTransform="matrix(1 0 0 -1 0 100)"><stop offset="0" stop-color="#adccdc"/><stop offset=".153" stop-color="#9ab9c9"/><stop offset=".529" stop-color="#708f9f"/><stop offset=".824" stop-color="#567685"/><stop offset="1" stop-color="#4c6c7b"/></linearGradient><path d="M38.4 29.5h3.7l-7.2 35h-3.6l7.1-35z" fill="url(#d)" stroke="url(#e)" stroke-width="1.5" stroke-miterlimit="10"/><linearGradient id="f" gradientUnits="userSpaceOnUse" x1="54.2" y1="38.948" x2="54.2" y2="67.31" gradientTransform="matrix(1 0 0 -1 0 100)"><stop offset="0" stop-color="#adccdc"/><stop offset=".153" stop-color="#9ab9c9"/><stop offset=".529" stop-color="#708f9f"/><stop offset=".824" stop-color="#567685"/><stop offset="1" stop-color="#4c6c7b"/></linearGradient><linearGradient id="g" gradientUnits="userSpaceOnUse" x1="54.2" y1="37.307" x2="54.2" y2="68.946" gradientTransform="matrix(1 0 0 -1 0 100)"><stop offset="0" stop-color="#adccdc"/><stop offset=".153" stop-color="#9ab9c9"/><stop offset=".529" stop-color="#708f9f"/><stop offset=".824" stop-color="#567685"/><stop offset="1" stop-color="#4c6c7b"/></linearGradient><path d="M47.2 54.8l9.5-7.9v-.1l-9.5-7.9v-6.1l14 12.1V49l-14 12.1v-6.3z" fill="url(#f)" stroke="url(#g)" stroke-width="1.5" stroke-miterlimit="10"/></g><linearGradient id="h" gradientUnits="userSpaceOnUse" x1="45.037" y1="74.187" x2="58.537" y2="87.687" gradientTransform="matrix(1 0 0 -1 0 102)"><stop offset="0" stop-color="#fff"/><stop offset=".35" stop-color="#fafbfb"/><stop offset=".532" stop-color="#edf1f4"/><stop offset=".675" stop-color="#dde5e9"/><stop offset=".799" stop-color="#c7d3da"/><stop offset=".908" stop-color="#adbdc7"/><stop offset="1" stop-color="#92a5b0"/></linearGradient><path d="M45 1l27 26.7H45V1z" fill="url(#h)"/><path d="M45 1l27 26.7H45V1z" fill-opacity="0" stroke="#7191a1" stroke-width="2" stroke-linejoin="bevel"/><path d="M20.9 84.4l3.8 1.2c-.6 2.1-1.6 3.7-2.9 4.7-1.4 1-3.1 1.5-5.2 1.5-2.6 0-4.7-.9-6.4-2.6C8.5 87.4 7.7 85 7.7 82c0-3.2.8-5.7 2.5-7.5s3.9-2.7 6.6-2.7c2.4 0 4.3.7 5.8 2.1.9.8 1.6 2 2 3.6l-3.9.9c-.2-1-.7-1.8-1.4-2.4s-1.6-.9-2.7-.9c-1.4 0-2.6.5-3.5 1.5s-1.4 2.7-1.4 5c0 2.4.4 4.2 1.3 5.2s2 1.6 3.5 1.6c1 0 1.9-.3 2.7-1 .8-.5 1.3-1.5 1.7-3zm7.2 7.1V72.2h13.4v3.3H32v4.6h8.2v3.3H32v8.2l-3.9-.1zm16.6 0V72.2h5.9l3.5 13.2 3.5-13.2h5.9v19.3h-3.7V76.3L56 91.5h-3.8l-3.9-15.2v15.2h-3.6z" fill="#4c6c7b"/></svg>