<svg xmlns="http://www.w3.org/2000/svg" viewBox="0 0 72 100"><linearGradient id="a" gradientUnits="userSpaceOnUse" x1="36" y1="97" x2="36" y2="-1" gradientTransform="translate(0 2)"><stop offset="0" stop-color="#c8d4db"/><stop offset=".139" stop-color="#d8e1e6"/><stop offset=".359" stop-color="#ebf0f3"/><stop offset=".617" stop-color="#f9fafb"/><stop offset="1" stop-color="#fff"/></linearGradient><path d="M45 1l27 26.7V99H0V1h45z" fill="url(#a)"/><path d="M45 1l27 26.7V99H0V1h45z" fill-opacity="0" stroke="#7191a1" stroke-width="2"/><g opacity=".9"><linearGradient id="b" gradientUnits="userSpaceOnUse" x1="19.014" y1="60.793" x2="19.014" y2="32.603"><stop offset="0" stop-color="#adccdc"/><stop offset=".153" stop-color="#9ab9c9"/><stop offset=".529" stop-color="#708f9f"/><stop offset=".824" stop-color="#567685"/><stop offset="1" stop-color="#4c6c7b"/></linearGradient><linearGradient id="c" gradientUnits="userSpaceOnUse" x1="19.014" y1="62.432" x2="19.014" y2="30.964"><stop offset="0" stop-color="#adccdc"/><stop offset=".153" stop-color="#9ab9c9"/><stop offset=".529" stop-color="#708f9f"/><stop offset=".824" stop-color="#567685"/><stop offset="1" stop-color="#4c6c7b"/></linearGradient><path d="M12 44.7l14-12.1v6.1l-9.5 7.9v.1l9.5 7.9v6.1l-14-12v-4z" fill="url(#b)" stroke="url(#c)" stroke-width="1.5" stroke-miterlimit="10"/><linearGradient id="d" gradientUnits="userSpaceOnUse" x1="36.686" y1="64.5" x2="36.686" y2="29.5"><stop offset="0" stop-color="#adccdc"/><stop offset=".153" stop-color="#9ab9c9"/><stop offset=".529" stop-color="#708f9f"/><stop offset=".824" stop-color="#567685"/><stop offset="1" stop-color="#4c6c7b"/></linearGradient><linearGradient id="e" gradientUnits="userSpaceOnUse" x1="36.687" y1="65.25" x2="36.687" y2="28.75"><stop offset="0" stop-color="#adccdc"/><stop offset=".153" stop-color="#9ab9c9"/><stop offset=".529" stop-color="#708f9f"/><stop offset=".824" stop-color="#567685"/><stop offset="1" stop-color="#4c6c7b"/></linearGradient><path d="M38.4 29.5h3.7l-7.2 35h-3.6l7.1-35z" fill="url(#d)" stroke="url(#e)" stroke-width="1.5" stroke-miterlimit="10"/><linearGradient id="f" gradientUnits="userSpaceOnUse" x1="54.186" y1="61.052" x2="54.186" y2="32.69"><stop offset="0" stop-color="#adccdc"/><stop offset=".153" stop-color="#9ab9c9"/><stop offset=".529" stop-color="#708f9f"/><stop offset=".824" stop-color="#567685"/><stop offset="1" stop-color="#4c6c7b"/></linearGradient><linearGradient id="g" gradientUnits="userSpaceOnUse" x1="54.186" y1="62.691" x2="54.186" y2="31.05"><stop offset="0" stop-color="#adccdc"/><stop offset=".153" stop-color="#9ab9c9"/><stop offset=".529" stop-color="#708f9f"/><stop offset=".824" stop-color="#567685"/><stop offset="1" stop-color="#4c6c7b"/></linearGradient><path d="M47.2 54.8l9.5-7.9v-.1l-9.5-7.9v-6.1l14 12.1V49l-14 12.1v-6.3z" fill="url(#f)" stroke="url(#g)" stroke-width="1.5" stroke-miterlimit="10"/></g><linearGradient id="h" gradientUnits="userSpaceOnUse" x1="45.037" y1="25.813" x2="58.537" y2="12.313" gradientTransform="translate(0 2)"><stop offset="0" stop-color="#fff"/><stop offset=".35" stop-color="#fafbfb"/><stop offset=".532" stop-color="#edf1f4"/><stop offset=".675" stop-color="#dde5e9"/><stop offset=".799" stop-color="#c7d3da"/><stop offset=".908" stop-color="#adbdc7"/><stop offset="1" stop-color="#92a5b0"/></linearGradient><path d="M45 1l27 26.7H45V1z" fill="url(#h)"/><path d="M45 1l27 26.7H45V1z" fill-opacity="0" stroke="#7191a1" stroke-width="2" stroke-linejoin="bevel"/><path d="M17.4 85.8l3.1 1c-.5 1.7-1.3 3-2.4 3.8-1.1.8-2.5 1.3-4.2 1.3-2.1 0-3.8-.7-5.2-2.1-1.4-1.4-2-3.4-2-5.9 0-2.6.7-4.7 2.1-6.1 1.4-1.4 3.2-2.2 5.4-2.2 1.9 0 3.5.6 4.7 1.7.7.7 1.3 1.6 1.6 2.9l-3.2.8c-.2-.8-.6-1.5-1.2-1.9-.6-.5-1.3-.7-2.2-.7-1.2 0-2.1.4-2.9 1.3s-1 2-1 3.9c0 2 .4 3.4 1.1 4.3s1.7 1.3 2.8 1.3c.9 0 1.6-.3 2.2-.8.6-.6 1.1-1.5 1.3-2.6zm5.9 5.7V75.8h10.9v2.7h-7.7v3.7h6.6v2.7h-6.6v6.7h-3.2zm13.5 0V75.8h4.8l2.9 10.7 2.9-10.7h4.8v15.7h-3V79.1L46 91.5h-3l-3.1-12.4v12.4h-3.1zm18.7 0V75.9h3.2v13h8v2.7H55.5z" fill="#4c6c7b"/></svg>