<svg xmlns="http://www.w3.org/2000/svg" viewBox="0 0 72 100"><linearGradient id="a" gradientUnits="userSpaceOnUse" x1="36" y1="97" x2="36" y2="-1" gradientTransform="translate(0 2)"><stop offset="0" stop-color="#c8d4db"/><stop offset=".139" stop-color="#d8e1e6"/><stop offset=".359" stop-color="#ebf0f3"/><stop offset=".617" stop-color="#f9fafb"/><stop offset="1" stop-color="#fff"/></linearGradient><path d="M45 1l27 26.7V99H0V1h45z" fill="url(#a)"/><path d="M45 1l27 26.7V99H0V1h45z" stroke="#7191a1" stroke-width="2" fill="none"/><g opacity=".95"><linearGradient id="b" gradientUnits="userSpaceOnUse" x1="21.45" y1="61.55" x2="21.45" y2="21.95"><stop offset="0" stop-color="#adccdc"/><stop offset="1" stop-color="#4c6c7b"/></linearGradient><path d="M14.4 44.1v-4.9c1-.1 1.8-.2 2.3-.5.5-.2.9-.7 1.3-1.2.4-.6.6-1.3.8-2.2.1-.7.2-1.8.2-3.4 0-2.7.1-4.5.4-5.6.2-1 .7-1.9 1.3-2.5s1.6-1.1 2.8-1.5c.8-.2 2.1-.4 3.9-.4h1.1v4.9c-1.5 0-2.5.1-2.9.3-.4.2-.7.4-1 .8-.2.3-.3.9-.3 1.8s-.1 2.5-.2 4.9c-.1 1.4-.2 2.5-.5 3.4-.3.8-.7 1.5-1.1 2.1-.4.5-1.1 1.1-2 1.7.8.5 1.5 1 2 1.6s.9 1.4 1.2 2.3.5 2.1.5 3.6c.1 2.3.1 3.7.1 4.4 0 .9.1 1.5.3 1.9.2.4.6.6 1 .8.4.2 1.4.3 2.9.3v4.9h-1.1c-1.8 0-3.3-.1-4.2-.4-1-.3-1.8-.8-2.5-1.5s-1.1-1.5-1.4-2.5c-.2-1-.3-2.6-.3-4.8 0-2.5-.1-4.2-.3-4.9-.3-1.1-.8-1.9-1.4-2.4-.7-.6-1.6-1-2.9-1z" fill="url(#b)"/><linearGradient id="c" gradientUnits="userSpaceOnUse" x1="51.7" y1="61.45" x2="51.7" y2="21.95"><stop offset="0" stop-color="#adccdc"/><stop offset="1" stop-color="#4c6c7b"/></linearGradient><path d="M58.7 44.1c-1 .1-1.8.2-2.3.5-.5.2-.9.7-1.3 1.2-.4.6-.6 1.3-.8 2.2-.1.7-.2 1.8-.2 3.4 0 2.7-.1 4.5-.4 5.6-.2 1.1-.7 1.9-1.3 2.5-.6.6-1.6 1.1-2.8 1.5-.8.2-2.1.4-3.9.4h-1.1v-4.9c1.5 0 2.4-.1 2.9-.3s.8-.5 1-.8c.2-.3.3-.9.3-1.8 0-.8.1-2.4.2-4.8.1-1.4.3-2.6.6-3.4.3-.9.7-1.6 1.2-2.2s1.1-1.1 1.9-1.6c-1-.7-1.8-1.3-2.2-1.9-.6-.9-1.1-2.1-1.3-3.4-.2-1-.3-3.1-.3-6.3 0-1-.1-1.7-.3-2.1-.2-.3-.5-.6-.9-.8-.4-.2-1.4-.3-3-.3V22h1.1c1.8 0 3.3.1 4.2.4 1 .3 1.8.8 2.5 1.5s1.1 1.5 1.4 2.5c.2 1 .4 2.6.4 4.8 0 2.5.1 4.1.3 4.9.3 1.1.8 1.9 1.4 2.3.6.5 1.6.7 2.8.8l-.1 4.9z" fill="url(#c)"/></g><linearGradient id="d" gradientUnits="userSpaceOnUse" x1="45.037" y1="25.813" x2="58.537" y2="12.313" gradientTransform="translate(0 2)"><stop offset="0" stop-color="#fff"/><stop offset=".35" stop-color="#fafbfb"/><stop offset=".532" stop-color="#edf1f4"/><stop offset=".675" stop-color="#dde5e9"/><stop offset=".799" stop-color="#c7d3da"/><stop offset=".908" stop-color="#adbdc7"/><stop offset="1" stop-color="#92a5b0"/></linearGradient><path d="M45 1l27 26.7H45V1z" fill="url(#d)"/><path d="M45 1l27 26.7H45V1z" stroke="#7191a1" stroke-width="2" stroke-linejoin="bevel" fill="none"/><path d="M14.3 86.5l2.7.8c-.4 1.5-1.1 2.6-2 3.3-.9.7-2.2 1.1-3.6 1.1-1.8 0-3.3-.6-4.5-1.9-1.2-1.2-1.7-2.9-1.7-5.1 0-2.3.6-4 1.8-5.3 1.2-1.3 2.7-1.9 4.6-1.9 1.7 0 3 .5 4.1 1.5.6.6 1.1 1.4 1.4 2.5l-2.7.6c-.2-.7-.5-1.3-1-1.7-.5-.4-1.1-.6-1.9-.6-1 0-1.8.4-2.5 1.1-.7 1-1 2.1-1 3.8 0 1.7.3 2.9.9 3.7.6.7 1.4 1.1 2.4 1.1.7 0 1.4-.2 1.9-.7.5-.5.9-1.3 1.1-2.3zm5.1 5V78.1h2.7v11.2H29v2.3h-9.6zm23.8 0h-3l-1.2-3h-5.4l-1.1 3.1h-2.9L34.9 78h2.9l5.4 13.5zm-5-5.3l-1.9-5-1.8 5h3.7zm5.8.9l2.7-.3c.2.9.5 1.6 1 2 .5.4 1.2.6 2 .6.9 0 1.6-.2 2-.6.4-.4.7-.8.7-1.3 0-.3-.1-.6-.3-.8-.2-.2-.5-.4-1-.6-.3-.1-1.1-.3-2.2-.6-1.5-.4-2.5-.8-3.1-1.3-.8-.7-1.3-1.7-1.3-2.7 0-.7.2-1.3.6-1.9.4-.6 1-1.1 1.7-1.4.7-.3 1.6-.5 2.7-.5 1.7 0 3 .4 3.9 1.1.9.7 1.3 1.7 1.4 3l-2.7.1c-.1-.7-.4-1.2-.8-1.5-.4-.3-1-.5-1.7-.5-.8 0-1.4.2-1.9.5-.3.2-.4.5-.4.8 0 .3.1.6.4.8.3.3 1.2.6 2.5.9 1.3.3 2.3.6 3 1 .6.3 1.1.8 1.5 1.4.4.6.5 1.3.5 2.2 0 .8-.2 1.5-.6 2.2-.4.7-1 1.2-1.8 1.5-.8.3-1.8.5-3 .5-1.7 0-3-.4-4-1.2-1.1-.7-1.7-1.9-1.8-3.4zm12.6 0l2.7-.3c.2.9.5 1.6 1 2 .5.4 1.2.6 2 .6.9 0 1.6-.2 2-.6.4-.4.7-.8.7-1.3 0-.3-.1-.6-.3-.8-.2-.2-.5-.4-1-.6-.3-.1-1.1-.3-2.2-.6-1.5-.4-2.5-.8-3.1-1.3-.8-.7-1.3-1.7-1.3-2.7 0-.7.2-1.3.6-1.9.4-.6 1-1.1 1.7-1.4.7-.3 1.6-.5 2.7-.5 1.7 0 3 .4 3.9 1.1.9.7 1.3 1.7 1.4 3l-2.7.1c-.1-.7-.4-1.2-.8-1.5-.4-.3-1-.5-1.7-.5-.8 0-1.4.2-1.9.5-.3.2-.4.5-.4.8 0 .3.1.6.4.8.3.3 1.2.6 2.5.9 1.3.3 2.3.6 3 1 .6.3 1.1.8 1.5 1.4.4.6.5 1.3.5 2.2 0 .8-.2 1.5-.6 2.2-.4.7-1 1.2-1.8 1.5-.8.3-1.8.5-3 .5-1.7 0-3-.4-4-1.2-1-.7-1.6-1.9-1.8-3.4z" fill="#4c6c7b"/></svg>