<svg xmlns="http://www.w3.org/2000/svg" viewBox="0 0 72 100"><linearGradient id="a" gradientUnits="userSpaceOnUse" x1="36" y1="3" x2="36" y2="101" gradientTransform="matrix(1 0 0 -1 0 102)"><stop offset="0" stop-color="#c8d4db"/><stop offset=".139" stop-color="#d8e1e6"/><stop offset=".359" stop-color="#ebf0f3"/><stop offset=".617" stop-color="#f9fafb"/><stop offset="1" stop-color="#fff"/></linearGradient><path d="M45 1l27 26.7V99H0V1h45z" fill="url(#a)"/><path d="M45 1l27 26.7V99H0V1h45z" fill="none" stroke="#7191a1" stroke-width="2"/><linearGradient id="b" gradientUnits="userSpaceOnUse" x1="45.037" y1="74.187" x2="58.537" y2="87.687" gradientTransform="matrix(1 0 0 -1 0 102)"><stop offset="0" stop-color="#fff"/><stop offset=".35" stop-color="#fafbfb"/><stop offset=".532" stop-color="#edf1f4"/><stop offset=".675" stop-color="#dde5e9"/><stop offset=".799" stop-color="#c7d3da"/><stop offset=".908" stop-color="#adbdc7"/><stop offset="1" stop-color="#92a5b0"/></linearGradient><path d="M45 1l27 26.7H45V1z" fill="url(#b)"/><path d="M45 1l27 26.7H45V1z" fill="none" stroke="#7191a1" stroke-width="2" stroke-linejoin="bevel"/><path d="M12.8 87.8l2.2.7c-.3 1.2-.9 2.1-1.7 2.7-.8.6-1.8.9-2.9.9-1.5 0-2.7-.5-3.6-1.5-.9-1-1.4-2.4-1.4-4.1 0-1.8.5-3.3 1.4-4.3s2.2-1.5 3.8-1.5c1.4 0 2.5.4 3.3 1.2.5.5.9 1.2 1.1 2l-2.2.5c-.1-.6-.4-1-.8-1.4-.4-.3-.9-.5-1.5-.5-.8 0-1.5.3-2 .9-.5.6-.8 1.5-.8 2.9s.3 2.4.8 3c.5.6 1.2.9 2 .9.6 0 1.1-.2 1.5-.6.3-.4.6-1 .8-1.8zm3.6-1.4c0-1.1.2-2.1.5-2.8.3-.6.6-1.1 1-1.5.4-.4.9-.8 1.4-1 .7-.3 1.5-.4 2.4-.4 1.6 0 2.9.5 3.9 1.5s1.5 2.4 1.5 4.2c0 1.8-.5 3.2-1.5 4.2s-2.3 1.5-3.9 1.5c-1.7 0-3-.5-3.9-1.5-.9-1-1.4-2.4-1.4-4.2zm2.3-.1c0 1.3.3 2.2.9 2.9.6.6 1.3 1 2.2 1 .9 0 1.6-.3 2.2-1s.9-1.6.9-2.9c0-1.3-.3-2.2-.8-2.8-.6-.6-1.3-.9-2.2-.9-.9 0-1.7.3-2.2.9-.7.6-1 1.6-1 2.8zM29 91.9V80.8h7.6v1.9h-5.4v2.6h4.6v1.9h-4.6v4.7H29zm9.4 0V80.8H46v1.9h-5.4v2.6h4.6v1.9h-4.6v4.7h-2.2zm9.5 0V80.8h8.2v1.9h-6v2.5h5.6V87h-5.6v3h6.2v1.9h-8.4zm10.3 0V80.8h8.2v1.9h-6v2.5H66V87h-5.6v3h6.2v1.9h-8.4z" fill="#4c6c7b"/><linearGradient id="c" gradientUnits="userSpaceOnUse" x1="35.895" y1="32.203" x2="35.895" y2="67.868" gradientTransform="matrix(1 0 0 -1 0 100)"><stop offset="0" stop-color="#adccdc"/><stop offset="1" stop-color="#4c6c7b"/></linearGradient><path d="M31 37.6c4.2-.4 5.4-3 10.2-3.5 2.4-.2 3.9.3 4.1 1.1.1.8-1 1.3-2.5 1.4-2 .2-2.9-.5-3-1.2-1.5.1-1.7.8-1.6 1.2.1.9 2 1.7 5 1.4 3.5-.3 4.6-1.6 4.4-3-.4-1.8-3-3.3-7.9-2.9-6.2.6-6.1 3.4-10.3 3.7-1.7.1-2.7-.2-2.9-.9-.1-.7.7-1 1.7-1.1.9-.1 2 .1 2.6.4.4-.2.5-.4.5-.6-.1-.6-1.4-.9-3-.8-3.1.3-3.1 1.7-3 2.3.3 1.7 2.7 2.8 5.7 2.5zm20.9 7.1c-3.9.9-8.8 1.5-14.7 1.5-6 0-11-.6-14.8-1.5-3.4-.9-5.3-1.9-5.9-2.9.3 2.2.9 4.4 1.6 6.5-.9.5-1.7 1.2-2.4 2.1-1.4 1.7-2 3.7-1.9 5.7s1.1 3.6 2.6 4.8c1.6 1.2 3.3 1.6 5.3 1.2.7-.1 1.6-.5 2.4-.7-1.6 0-3-.5-4.3-1.6-1.5-1.1-2.5-2.6-2.7-4.4-.4-1.7 0-3.3 1-4.7.2-.3.4-.5.7-.7.5 1.4 1.2 2.6 1.9 3.9 1.5 2.2 3 4.2 4.4 6.3.6 1.2 1.1 2.5 1.4 3.7 1 1.4 2.4 2.3 4.1 2.8 2.1.7 4.3 1 6.6 1h.2c2.2 0 4.6-.4 6.8-1.1 1.6-.5 3-1.4 4-2.9h.1c.2-1.1.6-2.4 1.2-3.7 1.5-2.1 3-4.1 4.4-6.3 2-3.6 3.3-7.6 4.1-12-.9 1.2-2.8 2.2-6.1 3zm-29.6-3.1c3.9 1 8.8 1.5 14.7 1.5 6 0 10.9-.5 14.7-1.5 4.1-1 6-2.2 6-3.4 0-.9-.9-1.7-2.5-2.4.4.2.6.6.6 1.1 0 1.2-1.9 2.2-5.6 3.1-3.4.7-7.9 1.3-13.2 1.3-5.2 0-9.8-.5-13.1-1.2-3.6-.9-5.5-1.9-5.5-3.1 0-.5.2-1 1-1.5-2.2.9-3.4 1.6-3.4 2.7.2 1.2 2.2 2.5 6.3 3.4z" fill="url(#c)"/></svg>