<svg xmlns="http://www.w3.org/2000/svg" viewBox="0 0 72 100"><linearGradient id="a" gradientUnits="userSpaceOnUse" x1="36" y1="101" x2="36" y2="3.004" gradientTransform="matrix(1 0 0 -1 0 102)"><stop offset=".118" stop-color="#66e283"/><stop offset="1" stop-color="#24342d"/></linearGradient><path d="M45.1 1l27.2 26.7V99H-.2V1h45.3z" fill="url(#a)"/><path d="M45.1 1l27.2 26.7V99H-.2V1h45.3z" fill="none" stroke="#24342d" stroke-width="2"/><path d="M17.5 85.3l3.1 1c-.5 1.7-1.3 3-2.4 3.8-1.1.8-2.5 1.3-4.3 1.3-2.1 0-3.9-.7-5.2-2.1-1.4-1.4-2.1-3.4-2.1-5.9 0-2.6.7-4.7 2.1-6.1 1.4-1.4 3.2-2.2 5.4-2.2 2 0 3.6.6 4.8 1.7.7.7 1.3 1.6 1.6 2.9l-3.2.8c-.2-.8-.6-1.5-1.2-1.9s-1.3-.7-2.2-.7c-1.2 0-2.2.4-2.9 1.3s-1 2-1 3.9c0 2 .4 3.4 1.1 4.3.7.8 1.7 1.3 2.8 1.3.9 0 1.6-.3 2.2-.8s1.2-1.5 1.4-2.6zm5.9 5.8V75.3h5.2c2 0 3.2.1 3.8.2.9.2 1.7.8 2.3 1.5.6.8.9 1.8.9 3.1 0 1-.2 1.8-.5 2.4s-.8 1.2-1.4 1.6c-.6.4-1.1.6-1.7.7-.8.2-1.9.2-3.4.2h-2.1v5.9h-3.1zM26.7 78v4.5h1.8c1.3 0 2.1-.1 2.6-.2s.8-.4 1-.8.4-.8.4-1.2c0-.6-.2-1-.5-1.4s-.8-.6-1.3-.7c-.5-.2-1.3-.2-2.5-.2h-1.5zM42 91.1V78h-4.8v-2.7h12.7V78h-4.7v13.1H42zm8.4 0l5.5-8.2-5-7.5h3.8l3.2 5.1 3.1-5.1h3.7l-5 7.6 5.5 8.1h-3.9l-3.6-5.4-3.6 5.4h-3.7z" fill="#fff"/><g transform="translate(0 -952.362)"><linearGradient id="b" gradientUnits="userSpaceOnUse" x1="36.625" y1="1015.362" x2="36.625" y2="974.612"><stop offset=".05" stop-color="#478555"/><stop offset=".283" stop-color="#3f764c"/><stop offset=".4" stop-color="#3a6c46"/><stop offset=".969" stop-color="#1f3d26"/><stop offset=".974" stop-color="#1f3d26"/></linearGradient><linearGradient id="c" gradientUnits="userSpaceOnUse" x1="36.625" y1="1015.862" x2="36.625" y2="974.112"><stop offset=".05" stop-color="#478555"/><stop offset=".283" stop-color="#3f764c"/><stop offset=".4" stop-color="#3a6c46"/><stop offset=".969" stop-color="#1f3d26"/><stop offset=".974" stop-color="#1f3d26"/></linearGradient><path d="M36.6 974.6c-11.3 0-20.4 9.1-20.4 20.4 0 11.3 9.1 20.4 20.4 20.4S57 1006.2 57 995c0-11.3-9.1-20.4-20.4-20.4zm3.9 4.8l-3.3 12.3h8.6l-13 18.8 3.3-12.3h-8.6l13-18.8z" fill="url(#b)" stroke="url(#c)" stroke-miterlimit="10"/></g><linearGradient id="d" gradientUnits="userSpaceOnUse" x1="45.178" y1="74.159" x2="58.772" y2="87.753" gradientTransform="matrix(1 0 0 -1 0 102)"><stop offset="0" stop-color="#d2e0d5"/><stop offset=".128" stop-color="#cde0d1"/><stop offset=".274" stop-color="#bfe0c7"/><stop offset=".429" stop-color="#a8e1b5"/><stop offset=".59" stop-color="#89e19d"/><stop offset=".732" stop-color="#66e283"/><stop offset="1" stop-color="#24342d"/></linearGradient><path d="M45.1 1l27.2 26.7H45.1V1z" fill="url(#d)"/><path d="M45.1 1l27.2 26.7H45.1V1z" fill="none" stroke="#24342d" stroke-width="2" stroke-linejoin="bevel"/></svg>