<svg id="Layer_1" xmlns="http://www.w3.org/2000/svg" viewBox="0 0 72 100"><style>.st0{opacity:.99}</style><g class="st0"><linearGradient id="SVGID_1_" gradientUnits="userSpaceOnUse" x1="36.2" y1="3.005" x2="36.2" y2="101" gradientTransform="matrix(1 0 0 -1 0 102)"><stop offset="0" stop-color="#006b69"/><stop offset=".124" stop-color="#00807f"/><stop offset=".262" stop-color="#009393"/><stop offset=".41" stop-color="#00a3a3"/><stop offset=".571" stop-color="#00b0af"/><stop offset=".752" stop-color="#08b8b7"/><stop offset="1" stop-color="#14bbbb"/></linearGradient><path d="M45.2 1l26.9 26.7V99H.3V1h44.9z" fill="url(#SVGID_1_)"/><path d="M45.2 1l26.9 26.7V99H.3V1h44.9z" fill-opacity="0" stroke="#006e6c" stroke-width="2"/></g><path d="M22.7 83.8l3.9 1.2c-.6 2.2-1.6 3.8-3 4.8-1.4 1.1-3.2 1.6-5.3 1.6-2.7 0-4.8-.9-6.5-2.7s-2.6-4.3-2.6-7.4c0-3.3.9-5.9 2.6-7.7s4-2.7 6.8-2.7c2.4 0 4.4.7 6 2.2.9.8 1.6 2.1 2 3.7l-4 .9c-.2-1-.7-1.8-1.5-2.4-.7-.6-1.7-.9-2.7-.9-1.5 0-2.7.5-3.6 1.6s-1.4 2.8-1.4 5.1c0 2.5.5 4.3 1.4 5.4s2.1 1.6 3.5 1.6c1.1 0 2-.3 2.8-1s1.3-1.9 1.6-3.3zm7.4 7.3V71.2h8.5c2.1 0 3.7.2 4.7.5s1.7 1 2.3 1.9c.6.9.9 2 .9 3.1 0 1.5-.4 2.7-1.3 3.7s-2.2 1.6-4 1.8c.9.5 1.6 1.1 2.2 1.7.6.6 1.3 1.7 2.3 3.2l2.4 3.9h-4.8l-2.9-4.3c-1-1.5-1.7-2.5-2.1-2.9s-.9-.6-1.3-.8c-.4-.1-1.1-.2-2-.2h-.8v8.3h-4.1zm4-11.5h3c1.9 0 3.1-.1 3.6-.2.5-.2.9-.4 1.1-.8.3-.4.4-.9.4-1.5 0-.7-.2-1.2-.5-1.6-.4-.4-.9-.7-1.5-.8-.3 0-1.3-.1-2.9-.1h-3.1v5zm28.2 7.9V91H48.9c.1-1.3.6-2.6 1.3-3.8s2.2-2.8 4.3-4.8c1.7-1.6 2.8-2.7 3.2-3.2.5-.8.8-1.6.8-2.3 0-.8-.2-1.5-.7-2-.5-.5-1.1-.7-1.9-.7-.8 0-1.4.2-1.9.7-.5.5-.7 1.3-.8 2.4l-3.9-.3c.2-2.1.9-3.6 2.1-4.5 1.2-.9 2.7-1.4 4.5-1.4 2 0 3.5.5 4.6 1.6 1.1 1.1 1.7 2.4 1.7 3.9 0 .9-.2 1.7-.5 2.6-.3.8-.8 1.7-1.5 2.5-.5.6-1.3 1.4-2.5 2.5s-2 1.8-2.3 2.2c-.3.4-.6.7-.8 1.1h7.7z" fill="#fff"/><g class="st0"><linearGradient id="SVGID_2_" gradientUnits="userSpaceOnUse" x1="45.214" y1="74.229" x2="58.667" y2="87.682" gradientTransform="matrix(1 0 0 -1 0 102)"><stop offset="0" stop-color="#d6ede8"/><stop offset=".297" stop-color="#d3ebe6"/><stop offset=".44" stop-color="#c7e3df"/><stop offset=".551" stop-color="#b7d8d5"/><stop offset=".645" stop-color="#a0cbc9"/><stop offset=".729" stop-color="#84bab9"/><stop offset=".804" stop-color="#62a7a7"/><stop offset=".874" stop-color="#349394"/><stop offset=".938" stop-color="#007f7f"/><stop offset=".998" stop-color="#006b6a"/><stop offset="1" stop-color="#006b69"/></linearGradient><path d="M45.2 1l26.9 26.7H45.2V1z" fill="url(#SVGID_2_)"/><path d="M45.2 1l26.9 26.7H45.2V1z" fill-opacity="0" stroke="#006e6c" stroke-width="2" stroke-linejoin="bevel"/></g><linearGradient id="SVGID_3_" gradientUnits="userSpaceOnUse" x1="36.25" y1="37.353" x2="36.25" y2="85.161" gradientTransform="matrix(1 0 0 -1 0 102)"><stop offset=".005" stop-color="#008281"/><stop offset=".343" stop-color="#006a69"/><stop offset="1" stop-color="#003836"/></linearGradient><path d="M62.7 56.8c-1.6-.8-4.6-6.6-9.2-7-4-.3-9.1-1.8-11.9-2-3.5-5.8-9.5-15-14.5-19.9l13.8.7C37.2 19.8 27.7 23 27.7 23l6.4-5.3c-8.2-3.3-11.6 4.7-11.6 4.7-8.5-4.7-12.9 3.3-12.9 3.3l8.8.6C8.4 29.1 11.2 39 11.2 39l8.9-8c-1.9 4.4 2.3 7.5 2.3 7.5L25 27.7s9.3 10.6 12.2 21.4c-3.7 1.9-9.5 5-14 5.6-6.2.8-13.5 5-13.5 5v4.9h53.1l-.1-7.8z" opacity=".99" fill="url(#SVGID_3_)"/></svg>