<svg xmlns="http://www.w3.org/2000/svg" viewBox="0 0 72 100"><linearGradient id="a" gradientUnits="userSpaceOnUse" x1="36" y1="5" x2="36" y2="103" gradientTransform="matrix(1 0 0 -1 0 104)"><stop offset="0" stop-color="#c8d4db"/><stop offset=".139" stop-color="#d8e1e6"/><stop offset=".359" stop-color="#ebf0f3"/><stop offset=".617" stop-color="#f9fafb"/><stop offset="1" stop-color="#fff"/></linearGradient><path d="M45 1l27 26.7V99H0V1h45z" fill="url(#a)"/><linearGradient id="b" gradientUnits="userSpaceOnUse" x1="13.15" y1="80" x2="54.15" y2="80" gradientTransform="matrix(1 0 0 -1 0 104)"><stop offset="0" stop-color="#7291a1"/><stop offset="1" stop-color="#cad5db"/></linearGradient><path d="M13.1 22h41v4h-41v-4z" fill="url(#b)"/><linearGradient id="c" gradientUnits="userSpaceOnUse" x1="19.15" y1="68.25" x2="60.15" y2="68.25" gradientTransform="matrix(1 0 0 -1 0 104)"><stop offset="0" stop-color="#7291a1"/><stop offset="1" stop-color="#cad5db"/></linearGradient><path d="M19.1 33.7h41v4.1h-41v-4.1z" fill="url(#c)"/><linearGradient id="d" gradientUnits="userSpaceOnUse" x1="13.15" y1="56.25" x2="54.15" y2="56.25" gradientTransform="matrix(1 0 0 -1 0 104)"><stop offset="0" stop-color="#7291a1"/><stop offset="1" stop-color="#cad5db"/></linearGradient><path d="M13.1 45.7h41v4.1h-41v-4.1z" fill="url(#d)"/><linearGradient id="e" gradientUnits="userSpaceOnUse" x1="19.15" y1="44" x2="60.15" y2="44" gradientTransform="matrix(1 0 0 -1 0 104)"><stop offset="0" stop-color="#7291a1"/><stop offset="1" stop-color="#cad5db"/></linearGradient><path d="M19.1 58h41v4h-41v-4z" fill="url(#e)"/><path d="M45 1l27 26.7V99H0V1h45z" fill="none" stroke="#7191a1" stroke-width="2"/><linearGradient id="f" gradientUnits="userSpaceOnUse" x1="45.037" y1="76.187" x2="58.537" y2="89.687" gradientTransform="matrix(1 0 0 -1 0 104)"><stop offset="0" stop-color="#fff"/><stop offset=".35" stop-color="#fafbfb"/><stop offset=".532" stop-color="#edf1f4"/><stop offset=".675" stop-color="#dde5e9"/><stop offset=".799" stop-color="#c7d3da"/><stop offset=".908" stop-color="#adbdc7"/><stop offset="1" stop-color="#92a5b0"/></linearGradient><path d="M45 1l27 26.7H45V1z" fill="url(#f)"/><path d="M45 1l27 26.7H45V1z" fill="none" stroke="#7191a1" stroke-width="2" stroke-linejoin="bevel"/><path d="M16.5 86.1l3.1 1c-.5 1.7-1.3 3-2.4 3.8s-2.5 1.3-4.2 1.3c-2.1 0-3.8-.7-5.2-2.1-1.3-1.4-2-3.4-2-5.9 0-2.6.7-4.7 2-6.1 1.4-1.4 3.1-2.2 5.3-2.2 1.9 0 3.5.6 4.7 1.7.7.7 1.3 1.6 1.6 2.9l-3.1.8c-.2-.8-.6-1.5-1.2-1.9s-1.3-.7-2.2-.7c-1.2 0-2.1.4-2.8 1.3-.7.8-1.1 2.2-1.1 4.1 0 2 .4 3.4 1.1 4.3.7.8 1.6 1.3 2.8 1.3.8 0 1.6-.3 2.2-.8.7-.8 1.2-1.7 1.4-2.8zm5 .7l3.1-.3c.2 1 .6 1.8 1.1 2.3s1.3.7 2.3.7 1.8-.2 2.3-.7c.5-.4.8-.9.8-1.5 0-.4-.1-.7-.3-1-.2-.3-.6-.5-1.1-.7-.4-.1-1.2-.4-2.5-.7-1.7-.4-2.9-.9-3.6-1.6-1-.9-1.5-1.9-1.5-3.2 0-.8.2-1.6.7-2.2.5-.7 1.1-1.2 2-1.6s1.9-.5 3.1-.5c2 0 3.5.4 4.5 1.3s1.5 2 1.6 3.5l-3.2.1c-.1-.8-.4-1.4-.9-1.7-.4-.4-1.1-.5-2-.5s-1.6.2-2.2.6c-.3.2-.5.6-.5 1s.2.7.5 1c.4.3 1.4.7 2.9 1.1s2.7.7 3.4 1.1 1.3.9 1.7 1.6c.4.7.6 1.5.6 2.5 0 .9-.3 1.7-.8 2.5s-1.2 1.4-2.1 1.8-2.1.6-3.4.6c-2 0-3.5-.5-4.6-1.4-1-1-1.7-2.4-1.9-4.1zm14.9-2.7c0-1.6.2-3 .7-4 .4-.8.8-1.5 1.5-2.2.6-.6 1.3-1.1 2-1.4 1-.4 2.1-.6 3.4-.6 2.3 0 4.2.7 5.6 2.2 1.4 1.4 2.1 3.4 2.1 6 0 2.5-.7 4.5-2.1 6-1.4 1.4-3.2 2.2-5.5 2.2s-4.2-.7-5.6-2.1c-1.4-1.6-2.1-3.6-2.1-6.1zm3.2-.1c0 1.8.4 3.1 1.2 4.1.8.9 1.9 1.4 3.1 1.4s2.3-.5 3.1-1.4 1.2-2.3 1.2-4.1c0-1.8-.4-3.2-1.2-4-.8-.9-1.8-1.3-3.2-1.3s-2.4.4-3.2 1.3c-.6.8-1 2.2-1 4zm14.6 7.9V76.1h3.1l6.4 10.5V76.1h3v15.7h-3.2l-6.3-10.3v10.3h-3v.1z" fill="#4c6c7b"/></svg>