<svg xmlns="http://www.w3.org/2000/svg" viewBox="0 0 72 100"><linearGradient id="a" gradientUnits="userSpaceOnUse" x1="36.2" y1="3.014" x2="36.2" y2="101.001" gradientTransform="matrix(1 0 0 -1 0 102)"><stop offset="0" stop-color="#c8d4db"/><stop offset=".139" stop-color="#d8e1e6"/><stop offset=".359" stop-color="#ebf0f3"/><stop offset=".617" stop-color="#f9fafb"/><stop offset="1" stop-color="#fff"/></linearGradient><path d="M45.2 1l27.1 26.7V99H.1V1h45.1z" fill="url(#a)"/><path d="M45.2 1l27.1 26.7V99H.1V1h45.1z" fill-opacity="0" stroke="#7191a1" stroke-width="2"/><path d="M6.9 74.3h5.9c1.3 0 2.3.1 3 .3.9.3 1.7.8 2.4 1.5s1.2 1.5 1.5 2.6c.3 1 .5 2.2.5 3.7 0 1.3-.2 2.4-.5 3.4-.4 1.1-1 2.1-1.7 2.8-.6.5-1.3 1-2.3 1.3-.7.2-1.7.3-2.9.3H6.9V74.3zm3.2 2.7v10.4h2.4c.9 0 1.5 0 1.9-.2.5-.1 1-.3 1.3-.7.3-.3.6-.8.8-1.5.2-.7.3-1.7.3-2.9s-.1-2.2-.3-2.8-.5-1.2-.9-1.5c-.4-.4-.9-.6-1.5-.7-.4-.1-1.3-.1-2.6-.1h-1.4zm27.3 13.1h-3.5l-1.4-3.6h-6.4l-1.3 3.6h-3.4l6.2-15.7H31l6.4 15.7zm-6-6.3L29.2 78 27 83.8h4.4zm7.7 6.3V74.3h6.8c1.7 0 2.9.1 3.7.4.8.3 1.4.8 1.9 1.5s.7 1.6.7 2.5c0 1.2-.4 2.2-1.1 2.9-.7.8-1.8 1.3-3.2 1.5.7.4 1.3.8 1.7 1.3.5.5 1.1 1.3 1.8 2.6l1.9 3.1h-3.9l-2.3-3.4c-.8-1.2-1.4-2-1.7-2.3-.3-.3-.6-.5-1-.7-.3-.1-.9-.2-1.6-.2h-.7v6.6h-3zm3.2-9.1h2.4c1.5 0 2.5-.1 2.9-.2s.7-.4.9-.7.3-.7.3-1.2-.1-1-.4-1.3c-.3-.3-.7-.5-1.2-.6-.3 0-1-.1-2.4-.1h-2.5V81zm16.5 9.1V77h-4.7v-2.7h12.7V77H62v13.1h-3.2z" fill="#4c6c7b"/><linearGradient id="b" gradientUnits="userSpaceOnUse" x1="31.747" y1="69.935" x2="31.747" y2="69.986" gradientTransform="matrix(1 0 0 -1 0 102)"><stop offset="0" stop-color="#adccdc"/><stop offset="1" stop-color="#4c6c7b"/></linearGradient><path d="M31.8 32c-.1.1-.1.1 0 0" fill="url(#b)"/><linearGradient id="c" gradientUnits="userSpaceOnUse" x1="45.324" y1="74.184" x2="58.871" y2="87.731" gradientTransform="matrix(1 0 0 -1 0 102)"><stop offset="0" stop-color="#fff"/><stop offset=".35" stop-color="#fafbfb"/><stop offset=".532" stop-color="#edf1f4"/><stop offset=".675" stop-color="#dde5e9"/><stop offset=".799" stop-color="#c7d3da"/><stop offset=".908" stop-color="#adbdc7"/><stop offset="1" stop-color="#92a5b0"/></linearGradient><path d="M45.2 1l27.1 26.7H45.2V1z" fill="url(#c)"/><path d="M45.2 1l27.1 26.7H45.2V1z" fill-opacity="0" stroke="#7191a1" stroke-width="2" stroke-linejoin="bevel"/><linearGradient id="d" gradientUnits="userSpaceOnUse" x1="36.001" y1="66.001" x2="36.001" y2="25.998"><stop offset="0" stop-color="#adccdc"/><stop offset=".024" stop-color="#a9c8d8"/><stop offset=".323" stop-color="#81a1b0"/><stop offset=".595" stop-color="#648493"/><stop offset=".83" stop-color="#527281"/><stop offset="1" stop-color="#4c6c7b"/></linearGradient><path d="M22.9 27.5l7.9 6.4c-.2-2.3-1.2-4.9-2.8-6.5-1.1-1.1-2.1-1.5-3.2-1.4-.8.2-1.4.8-1.9 1.5zM17.4 38c1.6 1.6 4.2 2.6 6.5 2.8l-6.4-7.9c-.7.5-1.3 1.1-1.5 2-.1 1 .3 2 1.4 3.1zm31.8 14.1l-7.1 7.1.1.1c.9.9 2.3 1.6 3.7 1.9.4.1.8.1 1.2.1.7 0 1.4-.1 1.9-.4l4.8 4.8c.2.2.6.4.9.4s.6-.1.9-.4c.5-.5.5-1.3 0-1.8L50.8 59c1-2.2-.1-5.3-1.6-6.9zM19.1 30.8l21.3 26.5 6.9-6.9-26.5-21.3c-.5-.4-1.2-.4-1.7.1-.4.4-.4 1.1 0 1.6z" fill="url(#d)"/></svg>