<svg id="Layer_1" xmlns="http://www.w3.org/2000/svg" viewBox="0 0 72 100"><style>.st4{fill:#f2f2f2}</style><linearGradient id="SVGID_1_" gradientUnits="userSpaceOnUse" x1="36" y1="2.953" x2="36" y2="100.95" gradientTransform="matrix(1 0 0 -1 0 102)"><stop offset="0" stop-color="#c8d4db"/><stop offset=".139" stop-color="#d8e1e6"/><stop offset=".359" stop-color="#ebf0f3"/><stop offset=".617" stop-color="#f9fafb"/><stop offset="1" stop-color="#fff"/></linearGradient><path d="M45 1l27 26.7V99H0V1h45z" fill="url(#SVGID_1_)"/><path d="M45 1l27 26.7V99H0V1h45z" fill-opacity="0" stroke="#7191a1" stroke-width="2"/><path d="M18 71.3h7.4c1.7 0 2.9.1 3.8.4 1.2.3 2.2 1 3 1.8.8.9 1.5 1.9 1.9 3.2s.7 2.8.7 4.7c0 1.6-.2 3-.6 4.2-.5 1.4-1.2 2.6-2.1 3.5-.7.7-1.6 1.2-2.8 1.6-.9.3-2.1.4-3.6.4H18V71.3zm4 3.3v13.1h3c1.1 0 1.9-.1 2.4-.2.7-.2 1.2-.4 1.6-.8.4-.4.8-1 1.1-1.9s.4-2.1.4-3.6-.1-2.7-.4-3.5-.7-1.5-1.1-1.9-1.1-.8-1.9-.9c-.6-.1-1.7-.2-3.3-.2H22zm16.2-3.3h8c1.6 0 2.8.1 3.5.2s1.5.4 2.1.8c.6.4 1.1 1 1.5 1.7s.6 1.5.6 2.3c0 .9-.3 1.8-.8 2.6s-1.2 1.4-2.1 1.7c1.2.4 2.2 1 2.8 1.8.7.8 1 1.8 1 3 0 .9-.2 1.8-.6 2.6s-1 1.5-1.7 2-1.6.8-2.7.9c-.7.1-2.3.1-4.9.1h-6.8V71.3zm4.1 3.3v4.6H45c1.6 0 2.6 0 2.9-.1.7-.1 1.2-.3 1.6-.7.4-.4.6-.9.6-1.5s-.2-1.1-.5-1.5c-.3-.4-.8-.6-1.5-.7-.4 0-1.6-.1-3.5-.1h-2.3zm0 7.9v5.3H46c1.5 0 2.4 0 2.8-.1.6-.1 1.1-.4 1.5-.8.4-.4.6-1 .6-1.7 0-.6-.1-1.1-.4-1.5-.3-.4-.7-.7-1.3-.9-.6-.2-1.7-.3-3.6-.3h-3.3z" fill="#4c6c7b"/><path class="st4" d="M54 48.1c0 2.5-8.1 4.5-18 4.5s-18-2-18-4.5 8.1-4.5 18-4.5 18 2 18 4.5z"/><linearGradient id="SVGID_2_" gradientUnits="userSpaceOnUse" x1="28.972" y1="47.222" x2="43.028" y2="61.278" gradientTransform="matrix(1 0 0 -1 0 102)"><stop offset="0" stop-color="#ccdde7"/><stop offset=".212" stop-color="#b4ccd8"/><stop offset=".639" stop-color="#7da0b1"/><stop offset="1" stop-color="#4f7a8d"/></linearGradient><path d="M49.5 47.8c0 2.2-6 3.9-13.5 3.9S22.5 50 22.5 47.8s6-3.9 13.5-3.9 13.5 1.7 13.5 3.9z" fill="url(#SVGID_2_)"/><linearGradient id="SVGID_3_" gradientUnits="userSpaceOnUse" x1="18" y1="45.9" x2="54" y2="45.9" gradientTransform="matrix(1 0 0 -1 0 102)"><stop offset="0" stop-color="#ccdde7"/><stop offset=".212" stop-color="#b4ccd8"/><stop offset=".639" stop-color="#7da0b1"/><stop offset="1" stop-color="#4f7a8d"/></linearGradient><path d="M18 48.3v11.2S22.5 64 36 64s18-4.5 18-4.5V48.3s-2.2 3.9-18 4.2c-15.8.3-18-4.2-18-4.2z" fill="url(#SVGID_3_)"/><path class="st4" d="M54 32.3c0 2.5-8.1 4.5-18 4.5s-18-2-18-4.5 8.1-4.5 18-4.5 18 2 18 4.5z"/><linearGradient id="SVGID_4_" gradientUnits="userSpaceOnUse" x1="28.954" y1="63.004" x2="43.01" y2="77.06" gradientTransform="matrix(1 0 0 -1 0 102)"><stop offset="0" stop-color="#ccdde7"/><stop offset=".212" stop-color="#b4ccd8"/><stop offset=".639" stop-color="#7da0b1"/><stop offset="1" stop-color="#4f7a8d"/></linearGradient><path d="M49.5 31.9c0 2.2-6 3.9-13.5 3.9s-13.5-1.7-13.5-3.9S28.5 28 36 28c7.5.1 13.5 1.8 13.5 3.9z" fill="url(#SVGID_4_)"/><linearGradient id="SVGID_5_" gradientUnits="userSpaceOnUse" x1="18" y1="61.6" x2="54" y2="61.6" gradientTransform="matrix(1 0 0 -1 0 102)"><stop offset="0" stop-color="#ccdde7"/><stop offset=".212" stop-color="#b4ccd8"/><stop offset=".639" stop-color="#7da0b1"/><stop offset="1" stop-color="#4f7a8d"/></linearGradient><path d="M18 32.6v11.2s4.5 4.5 18 4.5 18-4.5 18-4.5V32.6s-2.2 3.9-18 4.2c-15.8.3-18-4.2-18-4.2z" fill="url(#SVGID_5_)"/><path d="M54 16.6c0 2.5-8.1 4.5-18 4.5s-18-2-18-4.5 8.1-4.5 18-4.5 18 2 18 4.5z" fill="#fff"/><linearGradient id="SVGID_6_" gradientUnits="userSpaceOnUse" x1="28.972" y1="78.722" x2="43.028" y2="92.778" gradientTransform="matrix(1 0 0 -1 0 102)"><stop offset="0" stop-color="#ccdde7"/><stop offset=".265" stop-color="#b5ccd8"/><stop offset=".798" stop-color="#7fa0b1"/><stop offset="1" stop-color="#6a8fa1"/></linearGradient><path d="M49.5 16.3c0 2.2-6 3.9-13.5 3.9s-13.5-1.7-13.5-3.9 6-3.9 13.5-3.9 13.5 1.7 13.5 3.9z" fill="url(#SVGID_6_)"/><linearGradient id="SVGID_7_" gradientUnits="userSpaceOnUse" x1="18" y1="77.4" x2="54" y2="77.4" gradientTransform="matrix(1 0 0 -1 0 102)"><stop offset="0" stop-color="#ccdde7"/><stop offset=".265" stop-color="#b5ccd8"/><stop offset=".798" stop-color="#7fa0b1"/><stop offset="1" stop-color="#6a8fa1"/></linearGradient><path d="M18 16.8V28s4.5 4.5 18 4.5S54 28 54 28V16.8s-2.2 3.9-18 4.2c-15.8.3-18-4.2-18-4.2z" fill="url(#SVGID_7_)"/><linearGradient id="SVGID_8_" gradientUnits="userSpaceOnUse" x1="45.068" y1="74.155" x2="58.568" y2="87.655" gradientTransform="matrix(1 0 0 -1 0 102)"><stop offset="0" stop-color="#fff"/><stop offset=".35" stop-color="#fafbfb"/><stop offset=".532" stop-color="#edf1f4"/><stop offset=".675" stop-color="#dde5e9"/><stop offset=".799" stop-color="#c7d3da"/><stop offset=".908" stop-color="#adbdc7"/><stop offset="1" stop-color="#92a5b0"/></linearGradient><path d="M45 1l27 26.7H45V1z" fill="url(#SVGID_8_)"/><path d="M45 1l27 26.7H45V1z" fill-opacity="0" stroke="#7191a1" stroke-width="2" stroke-linejoin="bevel"/></svg>