<svg xmlns="http://www.w3.org/2000/svg" viewBox="0 0 72 100"><linearGradient id="a" gradientUnits="userSpaceOnUse" x1="36" y1="97" x2="36" y2="-1" gradientTransform="translate(0 2)"><stop offset="0" stop-color="#c8d4db"/><stop offset=".139" stop-color="#d8e1e6"/><stop offset=".359" stop-color="#ebf0f3"/><stop offset=".617" stop-color="#f9fafb"/><stop offset="1" stop-color="#fff"/></linearGradient><path d="M45 1l27 26.7V99H0V1h45z" fill="url(#a)"/><path d="M45 1l27 26.7V99H0V1h45z" fill-opacity="0" stroke="#7191a1" stroke-width="2"/><g transform="translate(0 -952.362)" opacity=".9"><linearGradient id="b" gradientUnits="userSpaceOnUse" x1="36.275" y1="1017.196" x2="36.275" y2="973.359"><stop offset="0" stop-color="#adccdc"/><stop offset="1" stop-color="#4c6c7b"/></linearGradient><linearGradient id="c" gradientUnits="userSpaceOnUse" x1="36.275" y1="1017.946" x2="36.275" y2="972.609"><stop offset="0" stop-color="#adccdc"/><stop offset="1" stop-color="#4c6c7b"/></linearGradient><path d="M30 973.4c-.1 0-.2 0-.3.1L13 981.1c-.5.2-.7 1-.3 1.5l5.2 6.1-5.2 6c-.3.4-.2 1.2.3 1.5l5.2 2.4v10.1c0 .4.2.7.6.9l17.1 7.6c.2.1.5.1.8 0l17.2-7.6c.3-.1.6-.5.6-.9v-10.1l5.2-2.4c.5-.2.7-1 .3-1.5l-5.2-6 5.2-6.1c.4-.4.2-1.2-.3-1.5L43 973.5c-.1-.1-.3-.1-.5-.1s-.5.1-.6.3l-5.5 5.9-5.5-5.9c-.3-.2-.6-.4-.9-.3zm-.2 2.1l4.8 5.2-15.3 6.8-4.4-5.2 14.9-6.8zm12.9 0l14.9 6.8-4.4 5.2-15.3-6.8 4.8-5.2zm-6.4 6.5l14.8 6.6-14.8 6.6-14.8-6.6 14.8-6.6zm-16.9 7.8l15.3 6.8-4.8 5.2L15 995l4.4-5.2zm33.8 0l4.4 5.2-14.9 6.8-4.8-5.2 15.3-6.8zm-17.9 8.9v16.1L20 1008v-8.6l9.6 4.4c.4.2.8.1 1.1-.2l4.6-4.9zm1.9 0l4.5 4.9c.3.3.7.4 1.1.2l9.6-4.4v8.6l-15.3 6.8v-16.1z" fill="url(#b)" stroke="url(#c)" stroke-width="1.5" stroke-miterlimit="10"/></g><linearGradient id="d" gradientUnits="userSpaceOnUse" x1="45.037" y1="25.813" x2="58.537" y2="12.313" gradientTransform="translate(0 2)"><stop offset="0" stop-color="#fff"/><stop offset=".35" stop-color="#fafbfb"/><stop offset=".532" stop-color="#edf1f4"/><stop offset=".675" stop-color="#dde5e9"/><stop offset=".799" stop-color="#c7d3da"/><stop offset=".908" stop-color="#adbdc7"/><stop offset="1" stop-color="#92a5b0"/></linearGradient><path d="M45 1l27 26.7H45V1z" fill="url(#d)"/><path d="M45 1l27 26.7H45V1z" fill-opacity="0" stroke="#7191a1" stroke-width="2" stroke-linejoin="bevel"/><path d="M9.4 72.2h7.2c1.6 0 2.9.1 3.7.4 1.1.3 2.1.9 2.9 1.8.8.9 1.4 1.9 1.9 3.1.4 1.2.6 2.8.6 4.6 0 1.6-.2 3-.6 4.1-.5 1.4-1.2 2.5-2.1 3.4-.7.7-1.6 1.2-2.8 1.5-.9.3-2 .4-3.5.4H9.4V72.2zm3.9 3.3v12.8h2.9c1.1 0 1.9-.1 2.4-.2.6-.2 1.2-.4 1.6-.8.4-.4.8-1 1-1.9.3-.9.4-2 .4-3.5s-.1-2.6-.4-3.4c-.3-.8-.6-1.4-1.1-1.9-.5-.4-1.1-.8-1.8-.9-.6-.1-1.6-.2-3.2-.2h-1.8zm15.8 16V72.2h14.5v3.3H33v4.3h9.8V83H33v5.3h10.9v3.3H29.1zm18.2-19.3h7.8c1.5 0 2.7.1 3.5.2.8.1 1.4.4 2 .8.6.4 1.1.9 1.5 1.6.4.7.6 1.4.6 2.3 0 .9-.2 1.7-.7 2.5-.5.8-1.2 1.3-2 1.7 1.2.3 2.1.9 2.7 1.8.6.8 1 1.8 1 2.9 0 .9-.2 1.7-.6 2.6-.4.8-1 1.5-1.7 2s-1.6.8-2.6.9c-.7.1-2.2.1-4.8.1h-6.6V72.2zm3.9 3.2v4.5h2.6c1.5 0 2.5 0 2.9-.1.7-.1 1.2-.3 1.6-.7.4-.4.6-.9.6-1.5s-.2-1.1-.5-1.5c-.3-.4-.8-.6-1.5-.7-.4 0-1.5-.1-3.4-.1h-2.3zm0 7.7v5.2h3.6c1.4 0 2.3 0 2.7-.1.6-.1 1.1-.4 1.4-.8.4-.4.6-1 .6-1.6 0-.6-.1-1.1-.4-1.5s-.7-.7-1.2-.9-1.7-.3-3.5-.3h-3.2z" fill="#4c6c7b"/></svg>