<svg id="Layer_1" xmlns="http://www.w3.org/2000/svg" viewBox="0 0 72 100"><style>.st0{opacity:.95}</style><g class="st0"><linearGradient id="SVGID_1_" gradientUnits="userSpaceOnUse" x1="35.75" y1="2.995" x2="35.75" y2="101.001" gradientTransform="matrix(1 0 0 -1 0 102)"><stop offset="0" stop-color="#efc402"/><stop offset=".038" stop-color="#f1c829"/><stop offset=".147" stop-color="#f4d264"/><stop offset=".258" stop-color="#f7dc8b"/><stop offset=".372" stop-color="#f9e5ac"/><stop offset=".488" stop-color="#fbecc7"/><stop offset=".606" stop-color="#fcf3dd"/><stop offset=".728" stop-color="#fef9ee"/><stop offset=".856" stop-color="#fffdf9"/><stop offset="1" stop-color="#fff"/></linearGradient><path d="M44.8 1l27 26.7V99h-72V1h45z" fill="url(#SVGID_1_)"/><path d="M44.8 1l27 26.7V99h-72V1h45z" fill-opacity="0" stroke="#ba9c02" stroke-width="2"/></g><path d="M5 72.2h7.4c1.7 0 2.9.1 3.8.4 1.2.3 2.2 1 3 1.8.8.9 1.5 1.9 1.9 3.2s.7 2.8.7 4.7c0 1.6-.2 3-.6 4.2-.5 1.5-1.2 2.7-2.2 3.6-.7.7-1.6 1.2-2.8 1.6-.9.3-2.1.4-3.6.4H5V72.2zm4 3.4v13.1h3c1.1 0 1.9-.1 2.4-.2.7-.2 1.2-.4 1.6-.8.4-.4.8-1 1.1-1.9s.4-2.1.4-3.6-.1-2.7-.4-3.5c-.3-.8-.7-1.5-1.1-1.9-.5-.5-1.1-.8-1.9-.9-.6-.1-1.7-.2-3.3-.2H9zm16.2 16.5V72.2h6.1l3.6 13.5 3.6-13.5h6.1V92h-3.8V76.4l-4 15.6h-3.9l-4-15.6V92h-3.7zm32.7-7.3v-3.3h8.7v7.9c-.8.8-2.1 1.5-3.7 2.1-1.6.6-3.2.9-4.9.9-2.1 0-3.9-.4-5.5-1.3-1.5-.9-2.7-2.1-3.5-3.7-.8-1.6-1.2-3.4-1.2-5.3 0-2.1.4-3.9 1.3-5.5s2.2-2.8 3.8-3.7c1.3-.7 2.9-1 4.8-1 2.5 0 4.4.5 5.8 1.5 1.4 1 2.3 2.5 2.7 4.3l-4 .7c-.3-1-.8-1.7-1.6-2.3-.8-.6-1.8-.8-2.9-.8-1.8 0-3.2.6-4.2 1.7s-1.6 2.8-1.6 4.9c0 2.4.5 4.1 1.6 5.3 1.1 1.2 2.4 1.8 4.2 1.8.8 0 1.7-.2 2.6-.5.9-.3 1.6-.7 2.2-1.2v-2.5h-4.6z" fill="#a07802"/><g transform="translate(0 -952.362)"><linearGradient id="SVGID_2_" gradientUnits="userSpaceOnUse" x1="12.471" y1="995.277" x2="60.078" y2="995.277"><stop offset=".005" stop-color="#a47d03"/><stop offset=".533" stop-color="#debe00"/><stop offset=".639" stop-color="#cfad04"/><stop offset="1" stop-color="#a07802"/></linearGradient><linearGradient id="SVGID_3_" gradientUnits="userSpaceOnUse" x1="11.721" y1="995.277" x2="60.828" y2="995.277"><stop offset=".005" stop-color="#a47d03"/><stop offset=".533" stop-color="#debe00"/><stop offset=".639" stop-color="#cfad04"/><stop offset="1" stop-color="#a07802"/></linearGradient><path d="M30 973.4c-.1 0-.2 0-.3.1L13 981.1c-.5.2-.7 1-.3 1.5l5.2 6.1-5.2 6c-.3.4-.2 1.2.3 1.5l5.2 2.4v10.1c0 .4.2.7.6.9l17.1 7.6c.2.1.5.1.8 0l17.2-7.6c.3-.1.6-.5.6-.9v-10.1l5.2-2.4c.5-.2.7-1 .3-1.5l-5.2-6 5.2-6.1c.4-.4.2-1.2-.3-1.5L43 973.5c-.1-.1-.3-.1-.5-.1s-.5.1-.6.3l-5.5 5.9-5.5-5.9c-.3-.2-.6-.4-.9-.3zm-.2 2.1l4.8 5.2-15.3 6.8-4.4-5.2 14.9-6.8zm12.9 0l14.9 6.8-4.4 5.2-15.3-6.8 4.8-5.2zm-6.4 6.5l14.8 6.6-14.8 6.6-14.8-6.6 14.8-6.6zm-16.9 7.8l15.3 6.8-4.8 5.2L15 995l4.4-5.2zm33.8 0l4.4 5.2-14.9 6.8-4.8-5.2 15.3-6.8zm-17.9 8.9v16.1L20 1008v-8.6l9.6 4.4c.4.2.8.1 1.1-.2l4.6-4.9zm1.9 0l4.5 4.9c.3.3.7.4 1.1.2l9.6-4.4v8.6l-15.3 6.8v-16.1z" fill="url(#SVGID_2_)" stroke="url(#SVGID_3_)" stroke-width="1.5" stroke-miterlimit="10"/></g><g class="st0"><linearGradient id="SVGID_4_" gradientUnits="userSpaceOnUse" x1="45.344" y1="74.23" x2="58.844" y2="87.73" gradientTransform="matrix(1 0 0 -1 0 102)"><stop offset=".005" stop-color="#fff"/><stop offset=".234" stop-color="#fffefb"/><stop offset=".369" stop-color="#fefaf1"/><stop offset=".481" stop-color="#fdf5e4"/><stop offset=".579" stop-color="#fcf0d2"/><stop offset=".669" stop-color="#fae9bc"/><stop offset=".752" stop-color="#f9e2a2"/><stop offset=".831" stop-color="#f7da83"/><stop offset=".905" stop-color="#f4d15d"/><stop offset=".975" stop-color="#f1c827"/><stop offset="1" stop-color="#efc402"/></linearGradient><path d="M45.2 1l27 26.7h-27V1z" fill="url(#SVGID_4_)"/><path d="M45.2 1l27 26.7h-27V1z" fill-opacity="0" stroke="#ba9c02" stroke-width="2" stroke-linejoin="bevel"/></g></svg>