<svg xmlns="http://www.w3.org/2000/svg" viewBox="0 0 72 100"><linearGradient id="a" gradientUnits="userSpaceOnUse" x1="36" y1="3.005" x2="36" y2="101" gradientTransform="matrix(1 0 0 -1 0 102)"><stop offset=".005" stop-color="#002d44"/><stop offset=".056" stop-color="#013852"/><stop offset=".16" stop-color="#0a4d6b"/><stop offset=".274" stop-color="#0f5e82"/><stop offset=".398" stop-color="#0f6d96"/><stop offset=".539" stop-color="#0d77a4"/><stop offset=".711" stop-color="#0a7eae"/><stop offset="1" stop-color="#0881b2"/></linearGradient><path d="M45 1l27 26.7V99H0V1h45z" fill="url(#a)"/><path d="M45 1l27 26.7V99H0V1h45z" fill-opacity="0" stroke="#01415e" stroke-width="2"/><path d="M6.7 75.3h5.9c1.3 0 2.3.1 3 .3.9.3 1.7.8 2.4 1.5s1.2 1.5 1.5 2.6c.3 1 .5 2.2.5 3.7 0 1.3-.2 2.4-.5 3.4-.4 1.1-1 2.1-1.7 2.8-.6.5-1.3 1-2.3 1.3-.7.2-1.7.3-2.8.3h-6V75.3zM9.9 78v10.4h2.4c.9 0 1.5 0 1.9-.2.5-.1 1-.3 1.3-.7s.6-.8.8-1.5c.2-.7.3-1.7.3-2.9s-.1-2.2-.3-2.8c-.2-.7-.5-1.2-.9-1.5s-.9-.6-1.5-.7c-.4-.1-1.3-.1-2.6-.1H9.9zm12.2 5.3c0-1.6.2-3 .7-4 .4-.8.9-1.5 1.5-2.2.6-.6 1.3-1.1 2.1-1.4 1-.4 2.1-.6 3.4-.6 2.3 0 4.2.7 5.6 2.2s2.1 3.4 2.1 6c0 2.5-.7 4.5-2.1 6-1.4 1.4-3.3 2.2-5.6 2.2-2.4 0-4.2-.7-5.6-2.1-1.4-1.6-2.1-3.6-2.1-6.1zm3.3-.1c0 1.8.4 3.1 1.2 4.1.8.9 1.9 1.4 3.2 1.4 1.3 0 2.3-.5 3.2-1.4.8-.9 1.2-2.3 1.2-4.1 0-1.8-.4-3.2-1.2-4s-1.9-1.3-3.2-1.3c-1.3 0-2.4.4-3.2 1.3-.8.8-1.2 2.2-1.2 4zm18.2 7.9V78h-4.7v-2.7h12.6V78h-4.7v13.1h-3.2zm8.4 0l5.4-8.2-4.9-7.5h3.8l3.2 5.1 3.1-5.1h3.7l-5 7.6 5.4 8.1h-3.9l-3.5-5.4-3.5 5.4H52z" fill="#fff"/><linearGradient id="b" gradientUnits="userSpaceOnUse" x1="18.121" y1="50.468" x2="55.041" y2="87.389" gradientTransform="matrix(1 0 0 -1 0 102)"><stop offset=".005" stop-color="#006186"/><stop offset=".116" stop-color="#005f83"/><stop offset=".239" stop-color="#005a7d"/><stop offset=".369" stop-color="#005373"/><stop offset=".502" stop-color="#004865"/><stop offset=".639" stop-color="#003953"/><stop offset=".779" stop-color="#00253c"/><stop offset=".918" stop-color="#00031d"/><stop offset="1"/></linearGradient><path d="M64.4 25.7c-.5 0-1 .2-1.4.3-.5.2-1 .4-1.4.6-.7.4-1.2.8-1.5 1.3-.3.5-.6 1.1-.8 1.7-.9 2.4-2.2 6-4 11.3-1.8 5.1-3.6 10.5-5.6 16H45l-8.7-24.4-7.9 24.4h-4.7c-2.6-7.5-4.6-13.3-6-17.2-1.4-4.1-2.5-7.4-3.5-10.2-.3-.8-.6-1.4-1-1.8-.4-.4-.9-.8-1.4-1.2-.4-.3-.9-.5-1.3-.6-.5-.1-1-.2-1.6-.3v-1.8h17.6v1.8c-1 .1-1.8.2-2.3.4-.5.1-.9.2-1.2.4-.3.1-.5.3-.5.4-.1.1-.1.3-.1.4 0 .2 0 .4.1.6.1.2.1.4.2.7.4 1.2 1.1 3.5 2.3 6.8 1.1 3.4 2.5 7.5 4.2 12.5L36.7 24h4.9l8.7 24.5c1.3-4 2.3-7.2 3.1-9.7.8-2.5 1.4-4.7 1.9-6.4.3-1.1.6-2 .7-2.8.2-.7.3-1.4.3-1.9 0-.3-.2-.6-.5-.8-.3-.2-.7-.4-1.2-.6-.4-.1-1-.3-1.7-.3-.7-.1-1.3-.2-1.8-.2v-2h13.3v1.9z" fill="url(#b)"/><linearGradient id="c" gradientUnits="userSpaceOnUse" x1="45.069" y1="74.205" x2="58.569" y2="87.705" gradientTransform="matrix(1 0 0 -1 0 102)"><stop offset=".005" stop-color="#dff1fa"/><stop offset=".3" stop-color="#dceef7"/><stop offset=".443" stop-color="#d3e4ef"/><stop offset=".553" stop-color="#c4d6e3"/><stop offset=".647" stop-color="#b1c5d5"/><stop offset=".73" stop-color="#9ab0c5"/><stop offset=".805" stop-color="#819ab3"/><stop offset=".875" stop-color="#64829f"/><stop offset=".938" stop-color="#426c8c"/><stop offset=".998" stop-color="#06577a"/><stop offset="1" stop-color="#015679"/></linearGradient><path d="M45 1l27 26.7H45V1z" fill="url(#c)"/><path d="M45 1l27 26.7H45V1z" fill-opacity="0" stroke="#01415e" stroke-width="2" stroke-linejoin="bevel"/></svg>