<svg xmlns="http://www.w3.org/2000/svg" viewBox="0 0 72 100"><linearGradient id="a" gradientUnits="userSpaceOnUse" x1="36" y1="97" x2="36" y2="-1" gradientTransform="translate(0 2)"><stop offset="0" stop-color="#c8d4db"/><stop offset=".139" stop-color="#d8e1e6"/><stop offset=".359" stop-color="#ebf0f3"/><stop offset=".617" stop-color="#f9fafb"/><stop offset="1" stop-color="#fff"/></linearGradient><path d="M45 1l27 26.7V99H0V1h45z" fill="url(#a)"/><path d="M45 1l27 26.7V99H0V1h45z" fill-opacity="0" stroke="#7191a1" stroke-width="2"/><g opacity=".9"><linearGradient id="b" gradientUnits="userSpaceOnUse" x1="19.014" y1="60.793" x2="19.014" y2="32.603"><stop offset="0" stop-color="#adccdc"/><stop offset=".153" stop-color="#9ab9c9"/><stop offset=".529" stop-color="#708f9f"/><stop offset=".824" stop-color="#567685"/><stop offset="1" stop-color="#4c6c7b"/></linearGradient><linearGradient id="c" gradientUnits="userSpaceOnUse" x1="19.014" y1="62.979" x2="19.014" y2="30.418"><stop offset="0" stop-color="#adccdc"/><stop offset=".153" stop-color="#9ab9c9"/><stop offset=".529" stop-color="#708f9f"/><stop offset=".824" stop-color="#567685"/><stop offset="1" stop-color="#4c6c7b"/></linearGradient><path d="M12 44.7l14-12.1v6.1l-9.5 7.9v.1l9.5 7.9v6.1l-14-12v-4z" fill="url(#b)" stroke="url(#c)" stroke-width="2" stroke-miterlimit="10"/><linearGradient id="d" gradientUnits="userSpaceOnUse" x1="36.686" y1="64.5" x2="36.686" y2="29.5"><stop offset="0" stop-color="#adccdc"/><stop offset=".153" stop-color="#9ab9c9"/><stop offset=".529" stop-color="#708f9f"/><stop offset=".824" stop-color="#567685"/><stop offset="1" stop-color="#4c6c7b"/></linearGradient><linearGradient id="e" gradientUnits="userSpaceOnUse" x1="36.688" y1="65.5" x2="36.688" y2="28.5"><stop offset="0" stop-color="#adccdc"/><stop offset=".153" stop-color="#9ab9c9"/><stop offset=".529" stop-color="#708f9f"/><stop offset=".824" stop-color="#567685"/><stop offset="1" stop-color="#4c6c7b"/></linearGradient><path d="M38.4 29.5h3.7l-7.2 35h-3.6l7.1-35z" fill="url(#d)" stroke="url(#e)" stroke-width="2" stroke-miterlimit="10"/><linearGradient id="f" gradientUnits="userSpaceOnUse" x1="54.186" y1="61.052" x2="54.186" y2="32.69"><stop offset="0" stop-color="#adccdc"/><stop offset=".153" stop-color="#9ab9c9"/><stop offset=".529" stop-color="#708f9f"/><stop offset=".824" stop-color="#567685"/><stop offset="1" stop-color="#4c6c7b"/></linearGradient><linearGradient id="g" gradientUnits="userSpaceOnUse" x1="54.186" y1="63.238" x2="54.186" y2="30.504"><stop offset="0" stop-color="#adccdc"/><stop offset=".153" stop-color="#9ab9c9"/><stop offset=".529" stop-color="#708f9f"/><stop offset=".824" stop-color="#567685"/><stop offset="1" stop-color="#4c6c7b"/></linearGradient><path d="M47.2 54.8l9.5-7.9v-.1l-9.5-7.9v-6.1l14 12.1V49l-14 12.1v-6.3z" fill="url(#f)" stroke="url(#g)" stroke-width="2" stroke-miterlimit="10"/></g><linearGradient id="h" gradientUnits="userSpaceOnUse" x1="45.037" y1="25.813" x2="58.537" y2="12.313" gradientTransform="translate(0 2)"><stop offset="0" stop-color="#fff"/><stop offset=".35" stop-color="#fafbfb"/><stop offset=".532" stop-color="#edf1f4"/><stop offset=".675" stop-color="#dde5e9"/><stop offset=".799" stop-color="#c7d3da"/><stop offset=".908" stop-color="#adbdc7"/><stop offset="1" stop-color="#92a5b0"/></linearGradient><path d="M45 1l27 26.7H45V1z" fill="url(#h)"/><path d="M45 1l27 26.7H45V1z" fill-opacity="0" stroke="#7191a1" stroke-width="2" stroke-linejoin="bevel"/><path d="M8.5 91.5V72.2h3.9v7.6h7.7v-7.6H24v19.3h-3.9V83h-7.7v8.5H8.5zm24 0v-16h-5.8v-3.3h15.5v3.3h-5.8v16.1h-3.9zm12.3 0V72.2h5.9l3.5 13.2 3.5-13.2h5.9v19.3h-3.7V76.3L56 91.5h-3.8l-3.9-15.2v15.2h-3.5z" fill="#4c6c7b"/></svg>