<svg id="Layer_1" xmlns="http://www.w3.org/2000/svg" viewBox="0 0 72 100"><style>.st0{opacity:.99}</style><g class="st0"><linearGradient id="SVGID_1_" gradientUnits="userSpaceOnUse" x1="36.2" y1="3.005" x2="36.2" y2="101" gradientTransform="matrix(1 0 0 -1 0 102)"><stop offset="0" stop-color="#006b69"/><stop offset=".124" stop-color="#00807f"/><stop offset=".262" stop-color="#009393"/><stop offset=".41" stop-color="#00a3a3"/><stop offset=".571" stop-color="#00b0af"/><stop offset=".752" stop-color="#08b8b7"/><stop offset="1" stop-color="#14bbbb"/></linearGradient><path d="M45.2 1l26.9 26.7V99H.3V1h44.9z" fill="url(#SVGID_1_)"/><path d="M45.2 1l26.9 26.7V99H.3V1h44.9z" fill-opacity="0" stroke="#006e6c" stroke-width="2"/></g><path d="M13.3 91.1V71.2h4V91h-4zM34 83.8l3.9 1.2c-.6 2.2-1.6 3.8-3 4.8-1.4 1.1-3.2 1.6-5.3 1.6-2.7 0-4.8-.9-6.5-2.7s-2.6-4.3-2.6-7.4c0-3.3.9-5.9 2.6-7.7s4-2.7 6.8-2.7c2.4 0 4.4.7 6 2.2.9.8 1.6 2.1 2 3.7l-4 .9c-.2-1-.7-1.8-1.5-2.4-.7-.6-1.7-.9-2.7-.9-1.5 0-2.7.5-3.6 1.6s-1.4 2.8-1.4 5.1c0 2.5.5 4.3 1.4 5.4s2.1 1.6 3.5 1.6c1.1 0 2-.3 2.8-1s1.2-1.9 1.6-3.3zm6.5-2.5c0-2 .3-3.7.9-5.1.5-1 1.1-1.9 1.9-2.7.8-.8 1.6-1.4 2.6-1.8 1.2-.5 2.7-.8 4.3-.8 2.9 0 5.3.9 7.1 2.7 1.8 1.8 2.6 4.3 2.6 7.6 0 3.2-.9 5.7-2.6 7.5-1.8 1.8-4.1 2.7-7 2.7-3 0-5.3-.9-7.1-2.7s-2.7-4.3-2.7-7.4zm4.2-.2c0 2.2.5 4 1.6 5.1 1 1.2 2.4 1.7 4 1.7s2.9-.6 4-1.7c1-1.2 1.5-2.9 1.5-5.2 0-2.3-.5-4-1.5-5.1-1-1.1-2.3-1.7-4-1.7s-3 .6-4 1.7c-1.1 1.2-1.6 3-1.6 5.2z" fill="#fff"/><g class="st0"><linearGradient id="SVGID_2_" gradientUnits="userSpaceOnUse" x1="45.214" y1="74.229" x2="58.667" y2="87.682" gradientTransform="matrix(1 0 0 -1 0 102)"><stop offset="0" stop-color="#d6ede8"/><stop offset=".297" stop-color="#d3ebe6"/><stop offset=".44" stop-color="#c7e3df"/><stop offset=".551" stop-color="#b7d8d5"/><stop offset=".645" stop-color="#a0cbc9"/><stop offset=".729" stop-color="#84bab9"/><stop offset=".804" stop-color="#62a7a7"/><stop offset=".874" stop-color="#349394"/><stop offset=".938" stop-color="#007f7f"/><stop offset=".998" stop-color="#006b6a"/><stop offset="1" stop-color="#006b69"/></linearGradient><path d="M45.2 1l26.9 26.7H45.2V1z" fill="url(#SVGID_2_)"/><path d="M45.2 1l26.9 26.7H45.2V1z" fill-opacity="0" stroke="#006e6c" stroke-width="2" stroke-linejoin="bevel"/></g><linearGradient id="SVGID_3_" gradientUnits="userSpaceOnUse" x1="36.118" y1="63.158" x2="36.118" y2="15.82"><stop offset=".005" stop-color="#008281"/><stop offset=".343" stop-color="#006a69"/><stop offset="1" stop-color="#003836"/></linearGradient><path d="M35.8 16.2c.2-.5.4-.5.6 0l5.4 16.7c.2.5.6.9 1.2.9h17.6c.5 0 .6.2.2.5L46.5 44.6c-.4.3-.6.9-.4 1.4l5.4 16.7c.2.5-.1.6-.4.3L36.8 52.7c-.4-.3-1-.3-1.5 0L21.2 63c-.4.3-.6.1-.4-.3L26.2 46c.1-.5 0-1.1-.4-1.4L11.5 34.3c-.4-.3-.3-.5.2-.5h17.6c.5 0 1-.4 1.2-.9l5.3-16.7z" fill="url(#SVGID_3_)"/></svg>