<svg xmlns="http://www.w3.org/2000/svg" viewBox="0 0 72 100"><linearGradient id="a" gradientUnits="userSpaceOnUse" x1="36" y1="97" x2="36" y2="-1" gradientTransform="translate(0 2)"><stop offset="0" stop-color="#c8d4db"/><stop offset=".139" stop-color="#d8e1e6"/><stop offset=".359" stop-color="#ebf0f3"/><stop offset=".617" stop-color="#f9fafb"/><stop offset="1" stop-color="#fff"/></linearGradient><path d="M45 1l27 26.7V99H0V1h45z" fill="url(#a)"/><path d="M45 1l27 26.7V99H0V1h45z" fill-opacity="0" stroke="#7191a1" stroke-width="2"/><linearGradient id="b" gradientUnits="userSpaceOnUse" x1="45.037" y1="25.813" x2="58.537" y2="12.313" gradientTransform="translate(0 2)"><stop offset="0" stop-color="#fff"/><stop offset=".35" stop-color="#fafbfb"/><stop offset=".532" stop-color="#edf1f4"/><stop offset=".675" stop-color="#dde5e9"/><stop offset=".799" stop-color="#c7d3da"/><stop offset=".908" stop-color="#adbdc7"/><stop offset="1" stop-color="#92a5b0"/></linearGradient><path d="M45 1l27 26.7H45V1z" fill="url(#b)"/><path d="M45 1l27 26.7H45V1z" fill-opacity="0" stroke="#7191a1" stroke-width="2" stroke-linejoin="bevel"/><path d="M14.4 91.9v-20h4v20h-4zm8 0v-20h3.9l8.2 13.4V71.8h3.8v20h-4.1l-8.1-13.1v13.1h-3.7zm33-7.4l3.9 1.2c-.6 2.2-1.6 3.8-3 4.9-1.4 1.1-3.2 1.6-5.3 1.6-2.7 0-4.8-.9-6.6-2.7-1.7-1.8-2.6-4.3-2.6-7.5 0-3.3.9-5.9 2.6-7.8s4-2.8 6.8-2.8c2.5 0 4.4.7 6 2.2.9.9 1.6 2.1 2.1 3.7l-4 1c-.2-1-.7-1.9-1.5-2.5S52.1 75 51 75c-1.5 0-2.7.5-3.6 1.6-.9 1.1-1.4 2.8-1.4 5.2 0 2.5.5 4.3 1.4 5.4.9 1.1 2.1 1.6 3.6 1.6 1.1 0 2-.3 2.8-1 .7-.7 1.2-1.8 1.6-3.3z" fill="#4c6c7b"/><g opacity=".92"><linearGradient id="c" gradientUnits="userSpaceOnUse" x1="36" y1="65.481" x2="36" y2="24.485"><stop offset="0" stop-color="#adccdc"/><stop offset="1" stop-color="#4c6c7b"/></linearGradient><path d="M41.8 54.8c.5.5 1.2.8 1.9.8s1.4-.3 1.9-.8.8-1.3.8-1.9c0-.7-.3-1.4-.8-1.9l-.7-.7-3.7-3.7-2.5-2.5c-.4-.4-.8-.7-1.3-1-.5-.3-1-.5-1.5-.7-.3-.1-.6-.2-1-.3-.6-.1-1.1-.2-1.7-.2-2 .1-4 .9-5.3 2.4-.8.8-1.3 1.8-1.7 2.8-.2.5-.2 1.1-.3 1.7v1c.3 1.2.5 2.2 1.1 3.2.3.5.6.9 1 1.4.1.1.2.2.3.4l2.6 2.6 3.8 3.8.8.8c.6.6 1.3 1.1 1.9 1.6.7.5 1.6.9 2.4 1.2.6.3 1.3.4 2 .6.9.2 1.8.3 2.6.2.9 0 1.8-.1 2.7-.3.9-.2 1.7-.5 2.5-.9.6-.3 1.2-.6 1.8-1 .7-.5 1.4-1.1 2-1.8 1.2-1.4 2.1-2.9 2.6-4.7.3-.8.4-1.7.5-2.6.1-.7.1-1.3 0-2-.1-.9-.2-1.8-.5-2.6s-.6-1.7-1.1-2.4c-.7-1.2-1.6-2.2-2.6-3.2l-2.6-2.6-3.8-3.8-4.1-4.1-3.4-3.4-1.7-1.7c-.7-.7-1.6-1.4-2.5-1.9-.8-.5-1.6-.8-2.4-1.1-.9-.3-1.7-.4-2.6-.5-.7-.1-1.3-.1-2-.1-.9.1-1.8.2-2.7.4-.8.2-1.7.6-2.5 1s-1.5 1-2.2 1.6c-.5.4-1 .9-1.4 1.5-.6.7-1.1 1.4-1.5 2.2-.8 1.6-1.3 3.4-1.3 5.2 0 .9.1 1.8.2 2.6.1.7.3 1.3.5 1.9.3.8.7 1.7 1.2 2.4.5.8 1.1 1.5 1.7 2.2.5.5 1.2.8 1.9.8s1.4-.3 1.9-.8.8-1.3.8-1.9c0-.7-.3-1.4-.8-1.9-.3-.3-.6-.6-.8-.9.1.2.3.4.4.5-.5-.6-.9-1.3-1.2-2.1l.3.6c-.3-.8-.6-1.6-.7-2.5 0 .2.1.5.1.7-.1-.9-.1-1.7 0-2.6 0 .2-.1.5-.1.7.1-.8.3-1.7.7-2.5l-.3.6c.3-.7.7-1.5 1.2-2.1-.1.2-.3.4-.4.5.5-.7 1.1-1.3 1.8-1.8-.2.1-.4.3-.5.4.6-.5 1.3-.9 2.1-1.2l-.6.3c.8-.3 1.6-.6 2.5-.7h-1c.9-.1 1.7-.1 2.6 0-.2 0-.5-.1-.7-.1.8.1 1.7.3 2.5.7l-.6-.3c.7.3 1.5.7 2.1 1.2-.2-.1-.4-.3-.5-.4.3.3.6.5.9.8l1.8 1.8 4.2 4.2 4.9 4.9 4 4c.8.7 1.6 1.5 2.2 2.3-.1-.2-.3-.4-.4-.5.5.6.9 1.3 1.2 2.1l-.3-.6c.3.8.6 1.6.7 2.5 0-.2-.1-.5-.1-.7.1.9.1 1.7 0 2.6 0-.2.1-.5.1-.7-.1.8-.3 1.7-.7 2.5l.3-.6c-.3.7-.7 1.5-1.2 2.1.1-.2.3-.4.4-.5-.5.7-1.1 1.3-1.8 1.8.2-.1.4-.3.5-.4-.6.5-1.3.9-2.1 1.2l.6-.3c-.8.3-1.6.6-2.5.7.2 0 .5-.1.7-.1-.9.1-1.7.1-2.6 0 .2 0 .5.1.7.1-.8-.1-1.7-.3-2.5-.7l.6.3c-.7-.3-1.5-.7-2.1-1.2.2.1.4.3.5.4-.6-.4-1.1-.9-1.6-1.4l-4.1-4.1-1.8-1.8c-.4-.3-.7-.7-1-1.1.1.2.3.4.4.5-.2-.3-.4-.7-.6-1l.3.6c-.2-.4-.3-.8-.3-1.3 0 .2.1.5.1.7V49c0 .2-.1.5-.1.7.1-.4.2-.9.3-1.3l-.3.6c.2-.4.4-.7.6-1-.1.2-.3.4-.4.5.2-.3.5-.6.8-.8-.2.1-.4.3-.5.4.3-.2.7-.4 1-.6l-.6.3c.4-.2.8-.3 1.3-.3-.2 0-.5.1-.7.1h1.2c-.2 0-.5-.1-.7-.1.4.1.9.2 1.3.3l-.6-.3c.4.2.7.4 1 .6-.2-.1-.4-.3-.5-.4.4.3.8.7 1.1 1.1l3.7 3.7c1 .7 1.8 1.5 2.6 2.3z" fill="url(#c)"/></g></svg>