<svg id="Layer_1" xmlns="http://www.w3.org/2000/svg" viewBox="0 0 72 100"><style>.st0{opacity:.99}</style><g class="st0"><linearGradient id="SVGID_1_" gradientUnits="userSpaceOnUse" x1="36.15" y1="2.887" x2="36.15" y2="101.126" gradientTransform="matrix(1 0 0 -1 0 102)"><stop offset="0" stop-color="#595593"/><stop offset=".012" stop-color="#5b5794"/><stop offset=".182" stop-color="#7b77aa"/><stop offset=".352" stop-color="#9896bf"/><stop offset=".521" stop-color="#b2b2d2"/><stop offset=".687" stop-color="#c7c9e2"/><stop offset=".848" stop-color="#d6d9ec"/><stop offset="1" stop-color="#dbdff0"/></linearGradient><path d="M45.2.9l27.1 26.8v71.4H0V.9h45.2z" fill="url(#SVGID_1_)"/><path d="M45.2.9l27.1 26.8v71.4H0V.9h45.2z" fill-opacity="0" stroke="#2d3293" stroke-width="2"/></g><path d="M8.6 91.2V71.3h6.1l3.6 13.6L22 71.3h6.1v19.9h-3.8V75.5l-4 15.7h-3.9l-4-15.7v15.7H8.6zm30.2 0v-4h-8.2v-3.3l8.7-12.6h3.2v12.6H45v3.4h-2.5v4h-3.7zm0-7.4V77l-4.6 6.8h4.6zm8.9 7.4V71.3h8.5c2.2 0 3.7.2 4.7.5 1 .4 1.8 1 2.3 1.9.6.9.9 2 .9 3.1 0 1.5-.4 2.7-1.3 3.7s-2.2 1.6-4 1.8c.9.5 1.6 1.1 2.2 1.7.6.6 1.3 1.7 2.3 3.2l2.5 3.9H61l-3-4.3c-1-1.5-1.8-2.5-2.1-2.9s-.8-.7-1.2-.8c-.4-.1-1.1-.2-2-.2h-.8v8.3h-4.2zm4.1-11.5h3c1.9 0 3.2-.1 3.6-.2s.9-.4 1.1-.8c.3-.4.4-.9.4-1.5 0-.7-.2-1.2-.5-1.6-.4-.4-.9-.7-1.5-.8-.3 0-1.3-.1-3-.1h-3.2v5z" fill="#fff"/><linearGradient id="SVGID_2_" gradientUnits="userSpaceOnUse" x1="17.131" y1="43.76" x2="55.669" y2="43.76"><stop offset="0" stop-color="#352c7f"/><stop offset=".074" stop-color="#3e3786"/><stop offset=".266" stop-color="#544f96"/><stop offset=".457" stop-color="#6763a5"/><stop offset=".645" stop-color="#7572b1"/><stop offset=".827" stop-color="#7e7cba"/><stop offset="1" stop-color="#8180bd"/></linearGradient><path d="M17.3 32c-.7 1.6.7 6.6.7 6.6 2.5 7.1 8.5 13.1 8.5 13.1 5.8 6.1 11.7 9.8 16.9 11 5.2 1.2 6.2-.9 6.2-.9s4.3-4.2 5.5-5.6c1.2-1.5-.3-2.4-.3-2.4s-7.5-4.5-8.7-5c-1.2-.5-1.9.3-2.7 1-.8.7-2.3 2.1-2.3 2.1-.9.1-2.5-.6-5.2-2.7s-5.8-6.1-6.7-7.5c-.9-1.3-.9-2.8-.9-2.8s1.1-.9 2.2-2.1c1.1-1.2.8-2.3.8-2.3l-3.4-6.3c-2.1-4.4-2.6-3.5-2.6-3.5-1.4.5-2.6 1.6-3.4 2.4-.8.7-3.8 3.3-4.6 4.9z" fill="url(#SVGID_2_)"/><linearGradient id="SVGID_3_" gradientUnits="userSpaceOnUse" x1="38.051" y1="36.052" x2="48.689" y2="36.052"><stop offset="0" stop-color="#352c7f"/><stop offset=".074" stop-color="#3e3786"/><stop offset=".266" stop-color="#544f96"/><stop offset=".457" stop-color="#6763a5"/><stop offset=".645" stop-color="#7572b1"/><stop offset=".827" stop-color="#7e7cba"/><stop offset="1" stop-color="#8180bd"/></linearGradient><path d="M47 41.4c.9 0 1.7-.7 1.7-1.7 0-4.9-4-9-9-9-.9 0-1.7.7-1.7 1.7 0 .9.7 1.7 1.7 1.7 3.1 0 5.6 2.5 5.6 5.6 0 .9.8 1.7 1.7 1.7z" fill="url(#SVGID_3_)"/><linearGradient id="SVGID_4_" gradientUnits="userSpaceOnUse" x1="38.718" y1="33.124" x2="53.878" y2="33.124"><stop offset="0" stop-color="#352c7f"/><stop offset=".074" stop-color="#3e3786"/><stop offset=".266" stop-color="#544f96"/><stop offset=".457" stop-color="#6763a5"/><stop offset=".645" stop-color="#7572b1"/><stop offset=".827" stop-color="#7e7cba"/><stop offset="1" stop-color="#8180bd"/></linearGradient><path d="M40.4 25.5c-.9 0-1.7.7-1.7 1.7 0 .9.7 1.7 1.7 1.7 5.6 0 10.1 4.5 10.1 10.1 0 .9.7 1.7 1.7 1.7s1.7-.7 1.7-1.7c0-7.4-6.1-13.5-13.5-13.5z" fill="url(#SVGID_4_)"/><linearGradient id="SVGID_5_" gradientUnits="userSpaceOnUse" x1="36.478" y1="39.135" x2="44.096" y2="39.135"><stop offset="0" stop-color="#352c7f"/><stop offset=".074" stop-color="#3e3786"/><stop offset=".266" stop-color="#544f96"/><stop offset=".457" stop-color="#6763a5"/><stop offset=".645" stop-color="#7572b1"/><stop offset=".827" stop-color="#7e7cba"/><stop offset="1" stop-color="#8180bd"/></linearGradient><path d="M38.2 35.3c-.9 0-1.7.7-1.7 1.7s.7 1.7 1.7 1.7c1.4 0 2.6 1.2 2.6 2.6 0 .9.7 1.7 1.7 1.7.9 0 1.7-.7 1.7-1.7-.1-3.3-2.8-6-6-6z" fill="url(#SVGID_5_)"/><g class="st0"><linearGradient id="SVGID_6_" gradientUnits="userSpaceOnUse" x1="58.321" y1="87.273" x2="50.783" y2="78.839" gradientTransform="matrix(1 0 0 -1 0 102)"><stop offset="0" stop-color="#595593"/><stop offset=".07" stop-color="#706ca2"/><stop offset=".159" stop-color="#8988b5"/><stop offset=".255" stop-color="#a3a5c8"/><stop offset=".359" stop-color="#babfd9"/><stop offset=".471" stop-color="#ced5e7"/><stop offset=".598" stop-color="#dee6f2"/><stop offset=".751" stop-color="#e9f3fa"/><stop offset="1" stop-color="#ecf8fe"/></linearGradient><path d="M45.2.9l27.1 26.8H45.2V.9z" fill="url(#SVGID_6_)"/><path d="M45.2.9l27.1 26.8H45.2V.9z" fill-opacity="0" stroke="#2d3293" stroke-width="2" stroke-linejoin="bevel"/></g></svg>