<svg xmlns="http://www.w3.org/2000/svg" viewBox="0 0 72 100"><linearGradient id="a" gradientUnits="userSpaceOnUse" x1="36" y1="97" x2="36" y2="-1" gradientTransform="translate(0 2)"><stop offset="0" stop-color="#c8d4db"/><stop offset=".139" stop-color="#d8e1e6"/><stop offset=".359" stop-color="#ebf0f3"/><stop offset=".617" stop-color="#f9fafb"/><stop offset="1" stop-color="#fff"/></linearGradient><path d="M45 1l27 26.7V99H0V1h45z" fill="url(#a)"/><path d="M45 1l27 26.7V99H0V1h45z" fill-opacity="0" stroke="#7191a1" stroke-width="2"/><linearGradient id="b" gradientUnits="userSpaceOnUse" x1="45.037" y1="25.813" x2="58.537" y2="12.313" gradientTransform="translate(0 2)"><stop offset="0" stop-color="#fff"/><stop offset=".35" stop-color="#fafbfb"/><stop offset=".532" stop-color="#edf1f4"/><stop offset=".675" stop-color="#dde5e9"/><stop offset=".799" stop-color="#c7d3da"/><stop offset=".908" stop-color="#adbdc7"/><stop offset="1" stop-color="#92a5b0"/></linearGradient><path d="M45 1l27 26.7H45V1z" fill="url(#b)"/><path d="M45 1l27 26.7H45V1z" fill-opacity="0" stroke="#7191a1" stroke-width="2" stroke-linejoin="bevel"/><path d="M7.1 91.9v-20h6.1l3.6 13.7 3.6-13.7h6.1v20h-3.8V76.1l-4 15.8h-3.9l-4-15.8v15.8H7.1zm41.5 0h-4.4l-1.8-4.6h-8l-1.7 4.6h-4.3l7.8-20h4.3l8.1 20zM41.1 84l-2.8-7.4-2.6 7.4h5.4zm9.6 7.9v-20h6.5c2.5 0 4.1.1 4.8.3 1.1.3 2.1 1 2.9 2 .8 1 1.2 2.3 1.2 3.9 0 1.2-.2 2.3-.7 3.1-.4.8-1 1.5-1.7 2s-1.4.8-2.1 1c-1 .2-2.4.3-4.2.3h-2.6v7.6h-4.1zm4.1-16.7v5.7H57c1.6 0 2.7-.1 3.2-.3.5-.2 1-.5 1.3-1 .3-.4.5-1 .5-1.6 0-.7-.2-1.3-.6-1.8-.4-.5-1-.8-1.6-.9-.5-.1-1.5-.1-2.9-.1h-2.1z" fill="#4c6c7b"/><g opacity=".85"><linearGradient id="c" gradientUnits="userSpaceOnUse" x1="37" y1="64.932" x2="37" y2="53.766"><stop offset="0" stop-color="#adccdc"/><stop offset="1" stop-color="#4c6c7b"/></linearGradient><path d="M53.4 54.2c-.2-.3-.5-.4-.8-.4H43c-.3.7-.7 1.4-1 2.1-.8 1.6-1.7 3.4-2.5 4.8v.1c-.5.9-1.4 1.4-2.4 1.4s-1.9-.5-2.4-1.4c-.3-.5-1.3-2.4-2.6-4.9-.4-.7-.7-1.4-1-2.1h-5.2c-.3 0-.7.2-.8.5l-4.5 9.4c-.1.3-.1.6 0 .9.2.3.5.4.8.4h26.8c.3 0 .7-.2.8-.5l4.5-9.4c0-.3 0-.7-.1-.9z" fill="url(#c)"/><linearGradient id="d" gradientUnits="userSpaceOnUse" x1="37" y1="60.401" x2="37" y2="28.079"><stop offset="0" stop-color="#adccdc"/><stop offset="1" stop-color="#4c6c7b"/></linearGradient><path d="M37 28.1c-5.5 0-9.9 4.4-9.9 9.9 0 3.3 3.6 11.1 6.6 17.1 1.4 2.8 2.5 4.9 2.5 4.9.2.3.5.5.8.5.3 0 .6-.2.8-.5 0 0 1.1-2.1 2.5-4.9 3-6 6.6-13.7 6.6-17.1 0-5.5-4.4-9.9-9.9-9.9zM37 44c-2.5 0-4.6-1.9-4.8-4.4v-.5c0-2.7 2.2-4.8 4.8-4.8 2.5 0 4.6 1.9 4.8 4.3v.5c.1 2.7-2.1 4.9-4.8 4.9z" fill="url(#d)"/></g></svg>