<svg xmlns="http://www.w3.org/2000/svg" viewBox="0 0 72 100"><linearGradient id="a" gradientUnits="userSpaceOnUse" x1="36" y1="3.005" x2="36" y2="101" gradientTransform="matrix(1 0 0 -1 0 102)"><stop offset=".005" stop-color="#113c60"/><stop offset=".16" stop-color="#194f7e"/><stop offset=".36" stop-color="#1c5f97"/><stop offset="1" stop-color="#1d6fb5"/></linearGradient><path d="M45 1l27 26.7V99H0V1h45z" fill="url(#a)"/><path d="M45 1l27 26.7V99H0V1h45z" fill-opacity="0" stroke="#113c60" stroke-width="2"/><path d="M8 81.3c0-2 .3-3.7.9-5.1.5-1 1.1-1.9 1.9-2.7.8-.8 1.7-1.4 2.6-1.8 1.2-.5 2.7-.8 4.3-.8 3 0 5.3.9 7.1 2.7 1.8 1.8 2.7 4.3 2.7 7.6 0 3.2-.9 5.7-2.6 7.5-1.8 1.8-4.1 2.7-7.1 2.7s-5.4-.9-7.1-2.7C8.9 86.9 8 84.4 8 81.3zm4.2-.2c0 2.2.5 4 1.6 5.1 1 1.2 2.4 1.7 4 1.7s2.9-.6 4-1.7c1-1.2 1.6-2.9 1.6-5.2 0-2.3-.5-4-1.5-5.1-1-1.1-2.3-1.7-4-1.7s-3 .6-4 1.7c-1.2 1.2-1.7 2.9-1.7 5.2zm17.4 3.5l3.9-.4c.2 1.3.7 2.3 1.4 2.9.7.6 1.7.9 2.9.9 1.3 0 2.3-.3 2.9-.8.7-.5 1-1.2 1-1.9 0-.5-.1-.9-.4-1.2s-.8-.6-1.5-.9c-.5-.2-1.6-.5-3.2-.9-2.2-.5-3.7-1.2-4.6-2-1.2-1.1-1.8-2.4-1.8-4 0-1 .3-2 .9-2.8.6-.9 1.4-1.5 2.5-2s2.4-.7 3.9-.7c2.5 0 4.4.5 5.7 1.6s1.9 2.5 2 4.4l-4 .2c-.2-1-.5-1.8-1.1-2.2s-1.4-.7-2.6-.7c-1.2 0-2.1.2-2.8.7-.4.3-.6.7-.6 1.2s.2.9.6 1.2c.5.4 1.8.9 3.7 1.3s3.4.9 4.4 1.4c.9.5 1.7 1.2 2.2 2s.8 1.9.8 3.2c0 1.1-.3 2.2-1 3.2-.6 1-1.5 1.7-2.7 2.2-1.2.5-2.6.7-4.4.7-2.5 0-4.5-.6-5.8-1.7-1.2-1-2.1-2.7-2.3-4.9zm24.2 6.5V74.6h-5.9v-3.4h15.9v3.4h-5.9v16.5h-4.1z" fill="#fff"/><linearGradient id="b" gradientUnits="userSpaceOnUse" x1="45.069" y1="74.205" x2="58.569" y2="87.705" gradientTransform="matrix(1 0 0 -1 0 102)"><stop offset=".005" stop-color="#dff1fa"/><stop offset=".3" stop-color="#dceef7"/><stop offset=".443" stop-color="#d3e4ef"/><stop offset=".553" stop-color="#c4d6e3"/><stop offset=".647" stop-color="#b1c5d5"/><stop offset=".73" stop-color="#9ab0c5"/><stop offset=".805" stop-color="#819ab3"/><stop offset=".875" stop-color="#64829f"/><stop offset=".938" stop-color="#426c8c"/><stop offset=".998" stop-color="#06577a"/><stop offset="1" stop-color="#015679"/></linearGradient><path d="M45 1l27 26.7H45V1z" fill="url(#b)"/><path d="M45 1l27 26.7H45V1z" fill-opacity="0" stroke="#113c60" stroke-width="2" stroke-linejoin="bevel"/><linearGradient id="c" gradientUnits="userSpaceOnUse" x1="26.413" y1="38.044" x2="26.413" y2="45.156"><stop offset=".005" stop-color="#113c60"/><stop offset=".824" stop-color="#194f7e"/><stop offset="1" stop-color="#1c5f97"/></linearGradient><path d="M26.4 38.1c-1.5.2-2.7 1.8-2.7 3.5 0 1.8 1.2 3.4 2.7 3.5 1.5.2 2.7-1.4 2.7-3.5s-1.2-3.7-2.7-3.5z" fill="url(#c)"/><linearGradient id="d" gradientUnits="userSpaceOnUse" x1="26.713" y1="23.713" x2="26.713" y2="59.487"><stop offset=".005" stop-color="#113c60"/><stop offset=".824" stop-color="#194f7e"/><stop offset="1" stop-color="#1c5f97"/></linearGradient><path d="M15.9 27.9v27.7l21.7 3.9V23.7l-21.7 4.2zm10.5 19.4c-2.4-.3-4.3-2.9-4.3-5.7s1.9-5.4 4.3-5.7 4.3 2.3 4.3 5.7c0 3.5-1.9 6-4.3 5.7z" fill="url(#d)"/><linearGradient id="e" gradientUnits="userSpaceOnUse" x1="47.039" y1="31.202" x2="47.039" y2="41.997"><stop offset=".005" stop-color="#113c60"/><stop offset=".824" stop-color="#194f7e"/><stop offset="1" stop-color="#1c5f97"/></linearGradient><path d="M54.6 32.1L42.7 42l-3.2-2.6v-8.2h15.1z" fill="url(#e)"/><linearGradient id="f" gradientUnits="userSpaceOnUse" x1="47.039" y1="34.023" x2="47.039" y2="52.427"><stop offset=".005" stop-color="#113c60"/><stop offset=".824" stop-color="#194f7e"/><stop offset="1" stop-color="#1c5f97"/></linearGradient><path d="M54.6 34l-11.9 9.9-3.2-2.6v11.1h15.1z" fill="url(#f)"/></svg>