<svg xmlns="http://www.w3.org/2000/svg" viewBox="0 0 72 100"><linearGradient id="a" gradientUnits="userSpaceOnUse" x1="36" y1="1" x2="36" y2="99" gradientTransform="matrix(1 0 0 -1 0 100)"><stop offset="0" stop-color="#c8d4db"/><stop offset=".139" stop-color="#d8e1e6"/><stop offset=".359" stop-color="#ebf0f3"/><stop offset=".617" stop-color="#f9fafb"/><stop offset="1" stop-color="#fff"/></linearGradient><path d="M45 1l27 26.7V99H0V1h45z" fill="url(#a)"/><path d="M45 1l27 26.7V99H0V1h45z" fill-opacity="0" stroke="#7191a1" stroke-width="2"/><linearGradient id="b" gradientUnits="userSpaceOnUse" x1="45.062" y1="72.21" x2="58.56" y2="85.71" gradientTransform="matrix(1 0 0 -1 0 100)"><stop offset="0" stop-color="#fff"/><stop offset=".35" stop-color="#fafbfb"/><stop offset=".532" stop-color="#edf1f4"/><stop offset=".675" stop-color="#dde5e9"/><stop offset=".799" stop-color="#c7d3da"/><stop offset=".908" stop-color="#adbdc7"/><stop offset="1" stop-color="#92a5b0"/></linearGradient><path d="M45 1l27 26.7H45V1z" fill="url(#b)"/><path d="M45 1l27 26.7H45V1z" fill-opacity="0" stroke="#7191a1" stroke-width="2" stroke-linejoin="bevel"/><path d="M29.9 66.4h13.2v5.7H29.9v-5.7z" fill="#edf0f3"/><g opacity=".85"><linearGradient id="c" gradientUnits="userSpaceOnUse" x1="36.5" y1="75.753" x2="36.5" y2="32.419"><stop offset="0" stop-color="#adccdc"/><stop offset="1" stop-color="#4c6c7b"/></linearGradient><path d="M60.3 33.6c-.8-.8-1.8-1.2-2.9-1.2H15.7c-1.1 0-2.1.4-2.9 1.2-.8.8-1.2 1.8-1.2 2.9v28.3c0 1.1.4 2.1 1.2 2.9.8.8 1.8 1.2 2.9 1.2h14.2c0 .7-.1 1.3-.4 2-.3.7-.6 1.3-.8 1.8-.3.5-.4.9-.4 1.1 0 .5.2.8.5 1.2.3.3.7.5 1.2.5h13.3c.5 0 .8-.2 1.2-.5.3-.3.5-.7.5-1.2 0-.2-.1-.6-.4-1.1-.3-.5-.6-1.1-.8-1.8-.3-.7-.4-1.4-.4-2h14.2c1.1 0 2.1-.4 2.9-1.2.8-.8 1.2-1.8 1.2-2.9V36.6c-.2-1.2-.6-2.1-1.4-3zm-2.1 24.7c0 .2-.1.4-.2.6-.2.2-.4.2-.6.2H15.7c-.2 0-.4-.1-.6-.2-.2-.2-.2-.4-.2-.6V36.6c0-.2.1-.4.2-.6.2-.2.4-.2.6-.2h41.7c.2 0 .4.1.6.2.2.2.2.4.2.6v21.7z" fill="url(#c)"/><linearGradient id="d" gradientUnits="userSpaceOnUse" x1="36.5" y1="57" x2="36.5" y2="38"><stop offset="0" stop-color="#adccdc"/><stop offset="1" stop-color="#4c6c7b"/></linearGradient><path d="M32.6 56.6c-.4-.3-.7-.6-1-.9-.3-.4-.6-.8-.8-1.2-.6-.9-1.1-1.9-1.4-2.9-.4-1.2-.6-2.3-.6-3.4 0-1.2.3-2.3.8-3.2.4-.7 1-1.3 1.7-1.7.7-.4 1.5-.6 2.2-.7.3 0 .6 0 .9.1.2.1.5.2.8.3.4.2.7.3.8.3.3.1.5.1.6.1.1 0 .3 0 .5-.1.1 0 .3-.1.6-.2s.5-.2.7-.3c.3-.1.6-.2.8-.2.3 0 .6-.1.9 0 .6 0 1.1.2 1.5.3.8.3 1.5.8 1.9 1.6-.2.1-.4.3-.6.4-.4.3-.7.7-1 1.2-.3.6-.5 1.3-.5 2 0 .9.2 1.6.7 2.3.3.5.7.9 1.2 1.2.2.2.5.3.7.4l-.3.9c-.3.6-.6 1.3-1 1.8-.3.5-.6.9-.8 1.1-.3.4-.6.7-.9.9-.2.1-.6.3-1 .3-.3 0-.6 0-.8-.1-.2-.1-.5-.2-.7-.3-.2-.1-.5-.2-.7-.3-.3-.1-.6-.1-.9-.1-.3 0-.6 0-.9.1-.2.1-.5.2-.7.3-.3.1-.5.2-.7.3-.3 0-.6.1-.8.1-.4 0-.8-.1-1.2-.4zM38 42c-.5.3-1 .4-1.6.3-.1-.5 0-1 .2-1.6.2-.5.4-.9.8-1.3s.8-.8 1.3-1c.5-.3 1-.4 1.5-.4.1.5 0 1.1-.2 1.6s-.4 1-.8 1.4c-.3.4-.7.8-1.2 1z" fill="url(#d)"/></g></svg>