<svg xmlns="http://www.w3.org/2000/svg" viewBox="0 0 72 100"><linearGradient id="a" gradientUnits="userSpaceOnUse" x1="36" y1=".767" x2="36" y2="99.25" gradientTransform="matrix(1 0 0 -1 0 100)"><stop offset="0" stop-color="#cb5528"/><stop offset=".032" stop-color="#cf5b27"/><stop offset=".162" stop-color="#db7026"/><stop offset=".305" stop-color="#e68025"/><stop offset=".468" stop-color="#ee8c23"/><stop offset=".666" stop-color="#f49322"/><stop offset="1" stop-color="#f69622"/></linearGradient><path d="M45 .8l27 26.9v71.6H0V.8h45z" fill="url(#a)"/><path d="M45 .8l27 26.9v71.6H0V.8h45z" fill-opacity="0" stroke="#c15127" stroke-width="2"/><path d="M10.6 91.3v-20h6.5c2.5 0 4.1.1 4.8.3 1.1.3 2.1.9 2.9 2 .8 1 1.2 2.3 1.2 3.9 0 1.2-.2 2.3-.7 3.1-.4.8-1 1.5-1.7 2s-1.4.8-2.1.9c-1 .2-2.4.3-4.2.3h-2.6v7.5h-4.1zm4-16.6v5.7h2.2c1.6 0 2.7-.1 3.2-.3.5-.2 1-.5 1.3-1 .3-.4.5-1 .5-1.6 0-.7-.2-1.3-.6-1.8-.4-.5-1-.8-1.6-.9-.5-.1-1.5-.1-2.9-.1h-2.1zm14.7 16.6v-20h6.5c2.5 0 4.1.1 4.8.3 1.1.3 2.1.9 2.9 2 .8 1 1.2 2.3 1.2 3.9 0 1.2-.2 2.3-.7 3.1-.4.8-1 1.5-1.7 2s-1.4.8-2.1.9c-1 .2-2.4.3-4.2.3h-2.6v7.5h-4.1zm4-16.6v5.7h2.2c1.6 0 2.7-.1 3.2-.3.5-.2 1-.5 1.3-1 .3-.4.5-1 .5-1.6 0-.7-.2-1.3-.6-1.8-.4-.5-1-.8-1.6-.9-.5-.1-1.5-.1-2.9-.1h-2.1zm19.1 16.6V74.7h-5.9v-3.4h15.9v3.4h-5.9v16.6h-4.1z" fill="#fff"/><linearGradient id="b" gradientUnits="userSpaceOnUse" x1="12.829" y1="41.747" x2="49.824" y2="78.742" gradientTransform="matrix(1 0 0 -1 0 100)"><stop offset=".005" stop-color="#d65b25"/><stop offset=".418" stop-color="#d35a25"/><stop offset=".679" stop-color="#ca5624"/><stop offset=".897" stop-color="#bc4f22"/><stop offset="1" stop-color="#b34b21"/></linearGradient><path d="M56.5 32c0 2.3-.5 4.4-1.4 6-1 1.7-2.3 3.1-4 4.1-1.8 1.1-3.8 1.9-6 2.4-2.3.5-4.8.7-7.6.7H34v11.6c0 .7.1 1.3.4 1.8s.8.9 1.5 1.2c.4.2 1 .3 1.9.5.9.2 1.6.3 2.2.4V63H17.5v-2.3c.6-.1 1.3-.1 2.3-.2.9-.1 1.6-.2 2-.4.8-.3 1.3-.7 1.5-1.1s.4-1.1.4-1.9V27.9c0-.7-.1-1.3-.4-1.8-.2-.5-.7-.9-1.5-1.2-.5-.2-1.3-.4-2.2-.6-.9-.2-1.6-.3-2-.4v-2.3h22.9c5.4 0 9.4.9 12 2.6 2.6 1.7 4 4.3 4 7.8zM45 33.5c0-3.1-.6-5.4-1.9-7-1.3-1.5-3.5-2.3-6.7-2.3H34v18.1h1.2c3.2 0 5.6-.7 7.3-2.2 1.7-1.3 2.5-3.5 2.5-6.6z" fill="url(#b)"/><linearGradient id="c" gradientUnits="userSpaceOnUse" x1="45.035" y1="72.355" x2="58.535" y2="85.855" gradientTransform="matrix(1 0 0 -1 0 100)"><stop offset="0" stop-color="#fffce3"/><stop offset=".383" stop-color="#fffae0"/><stop offset=".521" stop-color="#fdf3d8"/><stop offset=".62" stop-color="#fbebcc"/><stop offset=".699" stop-color="#f8dfbb"/><stop offset=".767" stop-color="#f5d0a6"/><stop offset=".828" stop-color="#f1bf8d"/><stop offset=".882" stop-color="#ecaa72"/><stop offset=".933" stop-color="#e79354"/><stop offset=".977" stop-color="#e27c34"/><stop offset="1" stop-color="#df6f26"/></linearGradient><path d="M45 .8l27 26.9H45V.8z" fill="url(#c)"/><path d="M45 .8l27 26.9H45V.8z" fill-opacity="0" stroke="#c15127" stroke-width="2" stroke-linejoin="bevel"/></svg>