<svg xmlns="http://www.w3.org/2000/svg" viewBox="0 0 72 100"><linearGradient id="a" gradientUnits="userSpaceOnUse" x1="36.2" y1="3.014" x2="36.2" y2="101.001" gradientTransform="matrix(1 0 0 -1 0 102)"><stop offset="0" stop-color="#c8d4db"/><stop offset=".139" stop-color="#d8e1e6"/><stop offset=".359" stop-color="#ebf0f3"/><stop offset=".617" stop-color="#f9fafb"/><stop offset="1" stop-color="#fff"/></linearGradient><path d="M45.2 1l27.1 26.7V99H.1V1h45.1z" fill="url(#a)"/><path d="M45.2 1l27.1 26.7V99H.1V1h45.1z" fill-opacity="0" stroke="#7191a1" stroke-width="2"/><path d="M7.1 90.1V77.2h5.6c1.4 0 2.4.1 3 .3s1.1.6 1.5 1.2c.4.6.6 1.3.6 2 0 1-.3 1.8-.9 2.4s-1.4 1-2.6 1.2c.6.3 1 .7 1.4 1.1.4.4.9 1.1 1.5 2.1l1.6 2.5h-3.2l-1.9-2.8c-.7-1-1.1-1.6-1.4-1.9s-.5-.4-.8-.5c-.3-.1-.7-.1-1.3-.1h-.5v5.4H7.1zm2.6-7.5h2c1.3 0 2.1-.1 2.4-.2s.6-.3.7-.5.3-.6.3-1-.1-.8-.4-1.1c-.2-.3-.6-.4-1-.5h-4v3.3zm10.5 7.5V77.2h9.7v2.2h-7v2.9h6.6v2.2h-6.6V88h7.3v2.2h-10zm15.2 0V79.4h-3.9v-2.2h10.4v2.2H38v10.7h-2.6zm8.2 0V77.2h5.6c1.4 0 2.4.1 3 .3s1.1.6 1.5 1.2.6 1.3.6 2c0 1-.3 1.8-.9 2.4s-1.4 1-2.6 1.2c.6.3 1 .7 1.4 1.1s.9 1.1 1.5 2.1l1.6 2.5h-3.2l-1.9-2.8c-.7-1-1.1-1.6-1.4-1.9-.2-.3-.5-.4-.8-.5-.3-.1-.7-.1-1.3-.1h-.5v5.4h-2.6zm2.6-7.5h2c1.3 0 2.1-.1 2.4-.2s.6-.3.7-.5c.2-.3.3-.6.3-1s-.1-.8-.4-1.1c-.2-.3-.6-.4-1-.5h-4v3.3zm13.3 7.5v-5.4l-4.8-7.5h3.1l3.1 5.1 3-5.1h3l-4.8 7.5v5.4h-2.6z" fill="#4c6c7b"/><linearGradient id="b" gradientUnits="userSpaceOnUse" x1="31.747" y1="69.935" x2="31.747" y2="69.986" gradientTransform="matrix(1 0 0 -1 0 102)"><stop offset="0" stop-color="#adccdc"/><stop offset="1" stop-color="#4c6c7b"/></linearGradient><path d="M31.8 32c-.1.1-.1.1 0 0" fill="url(#b)"/><linearGradient id="c" gradientUnits="userSpaceOnUse" x1="45.324" y1="74.184" x2="58.871" y2="87.731" gradientTransform="matrix(1 0 0 -1 0 102)"><stop offset="0" stop-color="#fff"/><stop offset=".35" stop-color="#fafbfb"/><stop offset=".532" stop-color="#edf1f4"/><stop offset=".675" stop-color="#dde5e9"/><stop offset=".799" stop-color="#c7d3da"/><stop offset=".908" stop-color="#adbdc7"/><stop offset="1" stop-color="#92a5b0"/></linearGradient><path d="M45.2 1l27.1 26.7H45.2V1z" fill="url(#c)"/><path d="M45.2 1l27.1 26.7H45.2V1z" fill-opacity="0" stroke="#7191a1" stroke-width="2" stroke-linejoin="bevel"/><linearGradient id="d" gradientUnits="userSpaceOnUse" x1="18.094" y1="47" x2="55.406" y2="47"><stop offset="0" stop-color="#adccdc"/><stop offset="1" stop-color="#4c6c7b"/></linearGradient><path d="M55.4 50.3C55.4 60.6 47 69 36.7 69S18 60.6 18 50.3c0-3.6 1-6.9 2.8-9.8l6 3.5c-1.2 1.8-1.9 4-1.9 6.3 0 6.4 5.2 11.6 11.6 11.6 6.4 0 11.7-5.2 11.7-11.6 0-5.4-3.7-9.9-8.7-11.2V45L22.4 35l17.4-10v7c8.8 1.4 15.6 9.1 15.6 18.3z" fill="url(#d)"/></svg>