<svg xmlns="http://www.w3.org/2000/svg" viewBox="0 0 72 100"><linearGradient id="a" gradientUnits="userSpaceOnUse" x1="36" y1="97" x2="36" y2="-1" gradientTransform="translate(0 2)"><stop offset="0" stop-color="#c8d4db"/><stop offset=".139" stop-color="#d8e1e6"/><stop offset=".359" stop-color="#ebf0f3"/><stop offset=".617" stop-color="#f9fafb"/><stop offset="1" stop-color="#fff"/></linearGradient><path d="M45 1l27 26.7V99H0V1h45z" fill="url(#a)"/><path d="M45 1l27 26.7V99H0V1h45z" stroke="#7191a1" stroke-width="2" fill="none"/><linearGradient id="b" gradientUnits="userSpaceOnUse" x1="45.037" y1="25.813" x2="58.537" y2="12.313" gradientTransform="translate(0 2)"><stop offset="0" stop-color="#fff"/><stop offset=".35" stop-color="#fafbfb"/><stop offset=".532" stop-color="#edf1f4"/><stop offset=".675" stop-color="#dde5e9"/><stop offset=".799" stop-color="#c7d3da"/><stop offset=".908" stop-color="#adbdc7"/><stop offset="1" stop-color="#92a5b0"/></linearGradient><path d="M45 1l27 26.7H45V1z" fill="url(#b)"/><path d="M45 1l27 26.7H45V1z" stroke="#7191a1" stroke-width="2" stroke-linejoin="bevel" fill="none"/><path d="M5.4 91.9v-20h8.5c2.1 0 3.7.2 4.7.5s1.7 1 2.3 1.9c.6.9.9 2 .9 3.2 0 1.5-.4 2.7-1.3 3.7s-2.2 1.6-4 1.9c.9.5 1.6 1.1 2.2 1.7.6.6 1.3 1.7 2.3 3.3l2.4 3.9h-4.8l-2.9-4.4c-1-1.6-1.8-2.5-2.1-2.9s-.8-.7-1.2-.8c-.4-.2-1.1-.2-2-.2h-1v8.4h-4zm4-11.6h3c1.9 0 3.2-.1 3.6-.2.5-.2.9-.4 1.1-.8s.4-.9.4-1.5c0-.7-.2-1.2-.5-1.6-.4-.4-.9-.7-1.5-.8-.3 0-1.3-.1-3-.1H9.4v5zM24.8 82c0-2 .3-3.8.9-5.1.5-1 1.1-1.9 1.9-2.7.8-.8 1.7-1.4 2.6-1.8 1.2-.5 2.7-.8 4.3-.8 3 0 5.3.9 7.1 2.7 1.8 1.8 2.7 4.4 2.7 7.6 0 3.2-.9 5.8-2.6 7.6-1.8 1.8-4.1 2.7-7.1 2.7s-5.4-.9-7.1-2.7c-1.8-1.8-2.7-4.3-2.7-7.5zm4.1-.2c0 2.3.5 4 1.6 5.2 1 1.2 2.4 1.8 4 1.8s2.9-.6 4-1.7c1-1.2 1.6-2.9 1.6-5.2 0-2.3-.5-4-1.5-5.1-1-1.1-2.3-1.7-4-1.7s-3 .6-4 1.7c-1.1 1-1.7 2.7-1.7 5zm18.4 10.1v-20h6.1L57 85.5l3.6-13.7h6.1v20h-3.8V76.1l-4 15.8H55l-4-15.8v15.8h-3.7z" fill="#4c6c7b"/><linearGradient id="c" gradientUnits="userSpaceOnUse" x1="36" y1="63" x2="36" y2="31.287"><stop offset="0" stop-color="#adccdc"/><stop offset="1" stop-color="#4c6c7b"/></linearGradient><path d="M49.3 31.3H23.2v3.6h-5.4V36H15v1h2.8v1.3h5.4v6.3h-5.4v1.3H15v1h2.8V48h5.4v6.7h-5.4v1.2H15v1h2.8v1.2h5.4V63h26.1v-4.9h4.9v-1.2H57v-1h-2.8v-1.2h-4.9V48h4.9v-1.1H57v-1h-2.8v-1.3h-4.9v-6.3h4.9V37H57v-1h-2.8v-1.1h-4.9v-3.6zm-5 8.6c-1.1 0-2-.9-2-2s.9-2 2-2 2 .9 2 2-.9 2-2 2z" opacity=".9" fill="url(#c)"/></svg>