<svg xmlns="http://www.w3.org/2000/svg" viewBox="0 0 72 100"><linearGradient id="a" gradientUnits="userSpaceOnUse" x1="36" y1="97" x2="36" y2="-1" gradientTransform="translate(0 2)"><stop offset="0" stop-color="#c8d4db"/><stop offset=".139" stop-color="#d8e1e6"/><stop offset=".359" stop-color="#ebf0f3"/><stop offset=".617" stop-color="#f9fafb"/><stop offset="1" stop-color="#fff"/></linearGradient><path d="M45 1l27 26.7V99H0V1h45z" fill="url(#a)"/><path d="M45 1l27 26.7V99H0V1h45z" fill-opacity="0" stroke="#7191a1" stroke-width="2"/><linearGradient id="b" gradientUnits="userSpaceOnUse" x1="36.8" y1="61.589" x2="36.8" y2="20.333"><stop offset="0" stop-color="#869ba6"/><stop offset=".379" stop-color="#8399a4"/><stop offset=".576" stop-color="#7b929e"/><stop offset=".731" stop-color="#6d8694"/><stop offset=".863" stop-color="#5a7785"/><stop offset=".981" stop-color="#426373"/><stop offset=".99" stop-color="#416271"/></linearGradient><path d="M51.4 37.7h-2.9V32c0-6.4-5.2-11.7-11.7-11.7S25.1 25.6 25.1 32v5.7h-2.9c-1.1 0-2 .9-2 2v19.8c0 1.1.9 2 2 2h29.1c1.1 0 2-.9 2-2V39.8c.1-1.2-.8-2.1-1.9-2.1zM39.3 54.2c.2.7-.3 1.3-1 1.3h-3c-.7 0-1.2-.7-1-1.3l1-3.7c-1.1-.6-1.9-1.7-1.9-3.1 0-2 1.6-3.5 3.5-3.5s3.5 1.6 3.5 3.5c0 1.4-.8 2.6-1.9 3.1l.8 3.7zm3.3-16.5H31V32c0-3.2 2.6-5.8 5.8-5.8s5.8 2.6 5.8 5.8v5.7z" fill="url(#b)"/><linearGradient id="c" gradientUnits="userSpaceOnUse" x1="45.037" y1="25.813" x2="58.537" y2="12.313" gradientTransform="translate(0 2)"><stop offset="0" stop-color="#fff"/><stop offset=".35" stop-color="#fafbfb"/><stop offset=".532" stop-color="#edf1f4"/><stop offset=".675" stop-color="#dde5e9"/><stop offset=".799" stop-color="#c7d3da"/><stop offset=".908" stop-color="#adbdc7"/><stop offset="1" stop-color="#92a5b0"/></linearGradient><path d="M45 1l27 26.7H45V1z" fill="url(#c)"/><path d="M45 1l27 26.7H45V1z" fill-opacity="0" stroke="#7191a1" stroke-width="2" stroke-linejoin="bevel"/><path d="M9.6 91.9v-20h8.5c2.1 0 3.7.2 4.7.5s1.7 1 2.3 1.9c.6.9.9 2 .9 3.2 0 1.5-.4 2.7-1.3 3.7s-2.2 1.6-4 1.9c.9.5 1.6 1.1 2.2 1.7.6.6 1.3 1.7 2.3 3.3l2.4 3.9h-4.8l-2.9-4.4c-1-1.6-1.8-2.5-2.1-2.9s-.8-.7-1.2-.8c-.4-.2-1.1-.2-2-.2h-.8v8.4H9.6zm4.1-11.6h3c1.9 0 3.2-.1 3.6-.2.5-.2.9-.4 1.1-.8s.4-.9.4-1.5c0-.7-.2-1.2-.5-1.6-.4-.4-.9-.7-1.5-.8-.3 0-1.3-.1-3-.1h-3.2v5zm15.1 5.1l3.9-.4c.2 1.3.7 2.3 1.4 2.9s1.7.9 2.9.9c1.3 0 2.3-.3 2.9-.8.7-.6 1-1.2 1-1.9 0-.5-.1-.9-.4-1.2-.3-.3-.8-.6-1.5-.9-.5-.2-1.6-.5-3.2-.9-2.2-.5-3.7-1.2-4.6-2-1.2-1.1-1.8-2.4-1.8-4 0-1 .3-2 .9-2.9.6-.9 1.4-1.6 2.5-2 1.1-.5 2.4-.7 3.9-.7 2.5 0 4.4.6 5.7 1.7s1.9 2.6 2 4.4l-4 .2c-.2-1-.5-1.8-1.1-2.2-.6-.5-1.4-.7-2.6-.7-1.2 0-2.1.2-2.8.7-.4.3-.6.7-.6 1.2s.2.9.6 1.2c.5.4 1.8.9 3.7 1.3s3.4.9 4.4 1.4 1.7 1.2 2.2 2 .8 1.9.8 3.2c0 1.1-.3 2.2-1 3.2-.6 1-1.5 1.7-2.7 2.2-1.2.5-2.6.7-4.4.7-2.5 0-4.5-.6-5.8-1.8-1.2-.9-2-2.6-2.3-4.8zm37.8 6.5h-4.4l-1.8-4.6h-8l-1.7 4.6h-4.3l7.8-20h4.3l8.1 20zM59.1 84l-2.8-7.4-2.6 7.4h5.4z" fill="#4c6c7b"/></svg>