<svg xmlns="http://www.w3.org/2000/svg" viewBox="0 0 72 100"><linearGradient id="a" gradientUnits="userSpaceOnUse" x1="36.2" y1="3.014" x2="36.2" y2="101.001" gradientTransform="matrix(1 0 0 -1 0 102)"><stop offset="0" stop-color="#c8d4db"/><stop offset=".139" stop-color="#d8e1e6"/><stop offset=".359" stop-color="#ebf0f3"/><stop offset=".617" stop-color="#f9fafb"/><stop offset="1" stop-color="#fff"/></linearGradient><path d="M45.2 1l27.1 26.7V99H.1V1h45.1z" fill="url(#a)"/><path d="M45.2 1l27.1 26.7V99H.1V1h45.1z" fill-opacity="0" stroke="#7191a1" stroke-width="2"/><path d="M8.9 90.1V70.2h8.5c2.1 0 3.7.2 4.7.5s1.8 1 2.3 1.9c.6.9.9 2 .9 3.1 0 1.5-.4 2.7-1.3 3.7s-2.2 1.6-4 1.8c.9.5 1.6 1.1 2.2 1.7.6.6 1.3 1.7 2.3 3.2L27 90h-4.9l-2.9-4.3c-1-1.5-1.8-2.5-2.1-2.9-.4-.4-.8-.7-1.2-.8-.4-.1-1.1-.2-2-.2H13v8.3H8.9zM13 78.6h3c1.9 0 3.2-.1 3.6-.2s.9-.4 1.1-.8c.3-.4.4-.9.4-1.5 0-.7-.2-1.2-.5-1.6-.4-.4-.9-.7-1.5-.8-.3 0-1.3-.1-3-.1H13v5zm16.1-8.4h4.1V81c0 1.7.1 2.8.2 3.3.2.8.6 1.5 1.2 2 .7.5 1.5.7 2.7.7 1.2 0 2-.2 2.6-.7s.9-1 1.1-1.7.2-1.8.2-3.4v-11h4.1v10.4c0 2.4-.1 4.1-.3 5-.2 1-.6 1.8-1.2 2.5s-1.4 1.2-2.4 1.6-2.3.6-3.9.6c-1.9 0-3.4-.2-4.4-.7-1-.4-1.8-1-2.4-1.7-.6-.7-1-1.4-1.1-2.2-.3-1.1-.4-2.8-.4-5V70.2zm20.4 0h8c1.6 0 2.8.1 3.6.2.8.1 1.5.4 2.1.8.6.4 1.1 1 1.5 1.7.4.7.6 1.5.6 2.3 0 .9-.3 1.8-.8 2.6s-1.2 1.4-2.1 1.7c1.2.4 2.2 1 2.8 1.8.7.8 1 1.8 1 3 0 .9-.2 1.8-.6 2.6s-1 1.5-1.7 2-1.6.8-2.7.9c-.7.1-2.3.1-4.9.1h-6.8V70.2zm4 3.3v4.6h2.7c1.6 0 2.6 0 2.9-.1.7-.1 1.2-.3 1.6-.7s.6-.9.6-1.5-.2-1.1-.5-1.5c-.3-.4-.9-.6-1.5-.7-.4 0-1.6-.1-3.5-.1h-2.3zm0 7.9v5.3h3.8c1.5 0 2.4 0 2.8-.1.6-.1 1.1-.4 1.5-.8.4-.4.6-1 .6-1.7 0-.6-.1-1.1-.4-1.5-.3-.4-.7-.7-1.3-.9-.6-.2-1.8-.3-3.6-.3h-3.4z" fill="#4c6c7b"/><linearGradient id="b" gradientUnits="userSpaceOnUse" x1="31.747" y1="69.935" x2="31.747" y2="69.986" gradientTransform="matrix(1 0 0 -1 0 102)"><stop offset="0" stop-color="#adccdc"/><stop offset="1" stop-color="#4c6c7b"/></linearGradient><path d="M31.8 32c-.1.1-.1.1 0 0" fill="url(#b)"/><linearGradient id="c" gradientUnits="userSpaceOnUse" x1="18" y1="60.5" x2="54" y2="60.5" gradientTransform="matrix(1 0 0 -1 0 102)"><stop offset="0" stop-color="#adccdc"/><stop offset="1" stop-color="#4c6c7b"/></linearGradient><path d="M54 23.5v36l-9-27 9-9zm-36 36h36l-27-9-9 9zm9-9l27 9-18-18-9 9zm9-9l18 18-9-27-9 9zm-18 9v9l9-9h-9zm18-9h-9v9l9-9zm9-9h-9v9l9-9zm9-9h-9v9l9-9zm-27 18l-9 9h9v-9zm9-9l-9 9h9v-9zm9-9l-9 9h9v-9z" fill="url(#c)"/><path d="M54 23.5v36l-9-27 9-9zm-36 36h36l-27-9-9 9zm9-9l27 9-18-18-9 9zm9-9l18 18-9-27-9 9zm-18 9v9l9-9h-9zm18-9h-9v9l9-9zm9-9h-9v9l9-9zm9-9h-9v9l9-9zm-27 18l-9 9h9v-9zm9-9l-9 9h9v-9zm9-9l-9 9h9v-9z" fill-opacity="0" stroke="#fff"/><linearGradient id="d" gradientUnits="userSpaceOnUse" x1="45.324" y1="74.184" x2="58.871" y2="87.731" gradientTransform="matrix(1 0 0 -1 0 102)"><stop offset="0" stop-color="#fff"/><stop offset=".35" stop-color="#fafbfb"/><stop offset=".532" stop-color="#edf1f4"/><stop offset=".675" stop-color="#dde5e9"/><stop offset=".799" stop-color="#c7d3da"/><stop offset=".908" stop-color="#adbdc7"/><stop offset="1" stop-color="#92a5b0"/></linearGradient><path d="M45.2 1l27.1 26.7H45.2V1z" fill="url(#d)"/><path d="M45.2 1l27.1 26.7H45.2V1z" fill-opacity="0" stroke="#7191a1" stroke-width="2" stroke-linejoin="bevel"/></svg>