<svg xmlns="http://www.w3.org/2000/svg" viewBox="0 0 72 100"><linearGradient id="a" gradientUnits="userSpaceOnUse" x1="36" y1="95.3" x2="36" y2="-3.2" gradientTransform="translate(0 4)"><stop offset="0" stop-color="#cb5528"/><stop offset=".032" stop-color="#cf5b27"/><stop offset=".162" stop-color="#db7026"/><stop offset=".305" stop-color="#e68025"/><stop offset=".468" stop-color="#ee8c23"/><stop offset=".666" stop-color="#f49322"/><stop offset="1" stop-color="#f69622"/></linearGradient><path d="M45 .8l27 26.9v71.6H0V.8h45z" fill="url(#a)"/><path d="M45 .8l27 26.9v71.6H0V.8h45z" fill-opacity="0" stroke="#c15127" stroke-width="2"/><linearGradient id="b" gradientUnits="userSpaceOnUse" x1="12.838" y1="54.262" x2="49.833" y2="17.267" gradientTransform="translate(0 4)"><stop offset=".005" stop-color="#d65b25"/><stop offset=".418" stop-color="#d35a25"/><stop offset=".679" stop-color="#ca5624"/><stop offset=".897" stop-color="#bc4f22"/><stop offset="1" stop-color="#b34b21"/></linearGradient><path d="M56.5 32c0 2.3-.5 4.4-1.4 6-1 1.7-2.3 3.1-4 4.1-1.8 1.1-3.8 1.9-6 2.4-2.3.5-4.8.7-7.6.7H34v11.6c0 .7.1 1.3.4 1.8s.8.9 1.5 1.2c.4.2 1 .3 1.9.5s1.6.3 2.2.4V63H17.5v-2.3c.6-.1 1.3-.1 2.3-.2.9-.1 1.6-.2 2-.4.8-.3 1.3-.7 1.5-1.1s.4-1.1.4-1.9V27.9c0-.7-.1-1.3-.4-1.8-.2-.5-.7-.9-1.5-1.2-.5-.2-1.3-.4-2.2-.6-.9-.2-1.6-.3-2-.4v-2.3h22.9c5.4 0 9.4.9 12 2.6 2.6 1.7 4 4.3 4 7.8zM45 33.5c0-3.1-.6-5.4-1.9-7-1.3-1.5-3.5-2.3-6.7-2.3H34v18.1h1.2c3.2 0 5.6-.7 7.3-2.2 1.7-1.3 2.5-3.5 2.5-6.6z" fill="url(#b)"/><linearGradient id="c" gradientUnits="userSpaceOnUse" x1="45.07" y1="23.68" x2="58.57" y2="10.18" gradientTransform="translate(0 4)"><stop offset="0" stop-color="#fffce3"/><stop offset=".383" stop-color="#fffae0"/><stop offset=".521" stop-color="#fdf3d8"/><stop offset=".62" stop-color="#fbebcc"/><stop offset=".699" stop-color="#f8dfbb"/><stop offset=".767" stop-color="#f5d0a6"/><stop offset=".828" stop-color="#f1bf8d"/><stop offset=".882" stop-color="#ecaa72"/><stop offset=".933" stop-color="#e79354"/><stop offset=".977" stop-color="#e27c34"/><stop offset="1" stop-color="#df6f26"/></linearGradient><path d="M45 .8l27 26.9H45V.8z" fill="url(#c)"/><path d="M45 .8l27 26.9H45V.8z" fill-opacity="0" stroke="#c15127" stroke-width="2" stroke-linejoin="bevel"/><path d="M6.8 86.2l3.1-.3c.2 1 .6 1.8 1.1 2.3.6.5 1.3.7 2.3.7 1 0 1.8-.2 2.3-.7.5-.4.8-.9.8-1.5 0-.4-.1-.7-.3-1-.2-.3-.6-.5-1.2-.7-.4-.1-1.2-.4-2.6-.7-1.7-.4-2.9-.9-3.6-1.6-1-.9-1.5-1.9-1.5-3.2 0-.8.2-1.6.7-2.2.5-.7 1.1-1.2 2-1.6.9-.4 1.9-.5 3.1-.5 2 0 3.5.4 4.5 1.3s1.5 2 1.6 3.5l-3.2.1c-.1-.8-.4-1.4-.9-1.7-.5-.4-1.1-.5-2-.5-.9 0-1.7.2-2.2.6-.3.2-.5.6-.5 1s.2.7.5 1c.4.3 1.4.7 2.9 1.1 1.6.4 2.7.7 3.5 1.1.7.4 1.3.9 1.8 1.6.4.7.6 1.5.6 2.5 0 .9-.3 1.7-.8 2.5s-1.2 1.4-2.1 1.8c-.9.4-2.1.6-3.4.6-2 0-3.5-.5-4.6-1.4-1-1-1.7-2.4-1.9-4.1zm15.7 5.1V75.7h3.2v13h8v2.7H22.5zm13.4-15.7h5.9c1.3 0 2.3.1 3 .3.9.3 1.7.8 2.4 1.5s1.2 1.5 1.5 2.6c.3 1 .5 2.2.5 3.7 0 1.3-.2 2.4-.5 3.4-.4 1.1-1 2.1-1.7 2.8-.6.5-1.3 1-2.2 1.3-.7.2-1.7.3-2.8.3h-6V75.6zm3.2 2.6v10.4h2.4c.9 0 1.5 0 1.9-.2.5-.1 1-.3 1.3-.7s.6-.8.8-1.5c.2-.7.3-1.7.3-2.9s-.1-2.2-.3-2.8c-.2-.7-.5-1.2-.9-1.5s-.9-.6-1.5-.7c-.4-.1-1.3-.2-2.6-.2h-1.4zm11.2 13.1l5.4-8.2-4.9-7.5h3.7l3.2 5.1 3.1-5.1h3.7l-4.9 7.6 5.4 8.1h-3.9l-3.5-5.4-3.5 5.4h-3.8z" fill="#fff"/></svg>