<svg xmlns="http://www.w3.org/2000/svg" viewBox="0 0 72 100"><linearGradient id="a" gradientUnits="userSpaceOnUse" x1="36" y1="97" x2="36" y2="-1" gradientTransform="translate(0 2)"><stop offset="0" stop-color="#c8d4db"/><stop offset=".139" stop-color="#d8e1e6"/><stop offset=".359" stop-color="#ebf0f3"/><stop offset=".617" stop-color="#f9fafb"/><stop offset="1" stop-color="#fff"/></linearGradient><path d="M45 1l27 26.7V99H0V1h45z" fill="url(#a)"/><path d="M45 1l27 26.7V99H0V1h45z" fill-opacity="0" stroke="#7191a1" stroke-width="2"/><linearGradient id="b" gradientUnits="userSpaceOnUse" x1="45.037" y1="25.813" x2="58.537" y2="12.313" gradientTransform="translate(0 2)"><stop offset="0" stop-color="#fff"/><stop offset=".35" stop-color="#fafbfb"/><stop offset=".532" stop-color="#edf1f4"/><stop offset=".675" stop-color="#dde5e9"/><stop offset=".799" stop-color="#c7d3da"/><stop offset=".908" stop-color="#adbdc7"/><stop offset="1" stop-color="#92a5b0"/></linearGradient><path d="M45 1l27 26.7H45V1z" fill="url(#b)"/><path d="M45 1l27 26.7H45V1z" fill-opacity="0" stroke="#7191a1" stroke-width="2" stroke-linejoin="bevel"/><path d="M10.9 91.9V77.6H5.8v-2.9h13.7v2.9h-5.1v14.3h-3.5zm13.3 0L20 74.7h3.6l2.6 11.8 3.1-11.8h4.1l3 12 2.6-12h3.5l-4.2 17.2h-3.7L31.3 79l-3.4 12.8h-3.7zm20.1 0V74.7h3.5v17.2h-3.5zM59 85.6v-2.9h7.5v6.8c-.7.7-1.8 1.3-3.2 1.9s-2.8.8-4.2.8c-1.8 0-3.4-.4-4.7-1.1s-2.3-1.8-3-3.2-1-2.9-1-4.6c0-1.8.4-3.4 1.1-4.8s1.8-2.5 3.3-3.2c1.1-.6 2.5-.9 4.1-.9 2.1 0 3.8.4 5 1.3s2 2.1 2.3 3.7l-3.4.6c-.2-.8-.7-1.5-1.4-2s-1.4-.6-2.4-.6c-1.5 0-2.7.5-3.6 1.4S54 81.2 54 83.1c0 2 .5 3.6 1.4 4.6s2.1 1.5 3.6 1.5c.7 0 1.5-.1 2.2-.4s1.4-.6 1.9-1v-2.2H59z" fill="#4c6c7b"/><linearGradient id="c" gradientUnits="userSpaceOnUse" x1="34.8" y1="63.589" x2="34.8" y2="22.333"><stop offset="0" stop-color="#adccdc"/><stop offset="1" stop-color="#4c6c7b"/></linearGradient><path d="M54.6 63.6c-2.7-23.8 3.2-17.4 3.2-17.4-6.5-7.7-9.8.3-11.4 7.9-.8-12.1-4.6-32-19.5-31.7 8.1 0 8.6 16.4 7.8 28.2C27.6 38 11.8 39 11.8 39s11.8-.5 11.8 24.6h31z" fill="url(#c)"/></svg>