<svg xmlns="http://www.w3.org/2000/svg" viewBox="0 0 72 100"><linearGradient id="a" gradientUnits="userSpaceOnUse" x1="36" y1="97" x2="36" y2="-1" gradientTransform="translate(0 2)"><stop offset=".005" stop-color="#37539d"/><stop offset=".188" stop-color="#4a69bf"/><stop offset=".566" stop-color="#7088cd"/><stop offset="1" stop-color="#a8b7e1"/></linearGradient><path fill="url(#a)" d="M45 1l27 26.7V99H0V1h45z"/><linearGradient id="b" gradientUnits="userSpaceOnUse" y1="50" x2="72" y2="50"><stop offset="0" stop-color="#fff"/><stop offset="1"/></linearGradient><path fill="url(#b)" fill-opacity="0" stroke="#37539D" stroke-width="2" d="M45 1l27 26.7V99H0V1h45z"/><linearGradient id="c" gradientUnits="userSpaceOnUse" x1="45.075" y1="25.775" x2="58.575" y2="12.275" gradientTransform="translate(0 2)"><stop offset=".005" stop-color="#dff1fa"/><stop offset=".604" stop-color="#c6d0eb"/><stop offset="1" stop-color="#37539d"/></linearGradient><path fill="url(#c)" d="M45 1l27 26.7H45V1z"/><path fill-opacity="0" stroke="#37539D" stroke-width="2" stroke-linejoin="bevel" d="M45 1l27 26.7H45V1z"/><path d="M15.1 91.1L8 71.2h4.4l5.1 14.7 4.9-14.7h4.3L19.5 91h-4.4zm12.6-6.5l3.9-.4c.2 1.3.7 2.3 1.4 2.9.7.6 1.7.9 2.9.9 1.3 0 2.3-.3 2.9-.8.7-.5 1-1.2 1-1.9 0-.5-.1-.9-.4-1.2s-.8-.6-1.5-.9c-.5-.2-1.6-.5-3.2-.9-2.2-.5-3.7-1.2-4.6-2-1.2-1.1-1.8-2.4-1.8-4 0-1 .3-2 .9-2.8.6-.9 1.4-1.5 2.5-2s2.4-.7 3.9-.7c2.5 0 4.4.5 5.7 1.6s1.9 2.5 2 4.4l-4 .2c-.2-1-.5-1.8-1.1-2.2s-1.4-.7-2.6-.7c-1.2 0-2.1.2-2.8.7-.4.3-.6.7-.6 1.2s.2.9.6 1.2c.5.4 1.8.9 3.7 1.3s3.4.9 4.4 1.4c.9.5 1.7 1.2 2.2 2s.9 2.1.9 3.4c0 1.1-.3 2.2-1 3.2-.6 1-1.5 1.7-2.7 2.2-1.2.5-2.6.7-4.4.7-2.5 0-4.5-.6-5.8-1.7-1.4-1.2-2.2-2.9-2.4-5.1zm18.6 0l3.9-.4c.2 1.3.7 2.3 1.4 2.9.7.6 1.7.9 2.9.9 1.3 0 2.3-.3 2.9-.8.7-.5 1-1.2 1-1.9 0-.5-.1-.9-.4-1.2s-.8-.6-1.5-.9c-.5-.2-1.6-.5-3.2-.9-2.2-.5-3.7-1.2-4.6-2-1.2-1.1-1.8-2.4-1.8-4 0-1 .3-2 .9-2.8.6-.9 1.4-1.5 2.5-2s2.4-.7 3.9-.7c2.5 0 4.4.5 5.7 1.6s1.9 2.5 2 4.4l-4 .2c-.2-1-.5-1.8-1.1-2.2s-1.4-.7-2.6-.7c-1.2 0-2.1.2-2.8.7-.4.3-.6.7-.6 1.2s.2.9.6 1.2c.5.4 1.8.9 3.7 1.3s3.4.9 4.4 1.4c.9.5 1.7 1.2 2.2 2s.8 1.9.8 3.2c0 1.1-.3 2.2-1 3.2-.6 1-1.5 1.7-2.7 2.2-1.2.5-2.6.7-4.4.7-2.5 0-4.5-.6-5.8-1.7-1.2-1-2-2.7-2.3-4.9z" fill="#FFF"/><path fill="#37539D" d="M17.1 32.3l21.3-4.1V64l-21.3-3.9z"/><path fill="#37539D" d="M53.3 60.5H35.2c-.9 0-1.6-.7-1.6-1.6V33.4c0-.9.7-1.6 1.6-1.6h18.1c.9 0 1.6.7 1.6 1.6v25.5c0 .9-.7 1.6-1.6 1.6zM35.2 33.3c-.1 0-.2.1-.2.2V59c0 .1.1.2.2.2h18.1c.1 0 .2-.1.2-.2V33.4c0-.1-.1-.2-.2-.2l-18.1.1z"/><path fill="none" stroke="#37539D" stroke-width="2" stroke-miterlimit="10" d="M36 49h6v6h-6zm7.01-9.35l3.607-3.607 3.606 3.607-3.606 3.606zm-.01.15h-5m9 3.2v9m-5 0h6"/><path fill="#A8B7E1" stroke="#A8B7E1" stroke-width=".75" stroke-miterlimit="10" d="M23 41.2h2.1l2.3 6.9c.2.6.4 1.6.4 1.6s.2-.9.4-1.6l2.4-6.9h2.1l-3.9 10.6h-1.9L23 41.2z"/></svg>