<svg id="Layer_1" xmlns="http://www.w3.org/2000/svg" viewBox="0 0 72 100"><style>.st0{opacity:.99}</style><g class="st0"><linearGradient id="SVGID_1_" gradientUnits="userSpaceOnUse" x1="36.15" y1="2.887" x2="36.15" y2="101.126" gradientTransform="matrix(1 0 0 -1 0 102)"><stop offset="0" stop-color="#595593"/><stop offset=".012" stop-color="#5b5794"/><stop offset=".182" stop-color="#7b77aa"/><stop offset=".352" stop-color="#9896bf"/><stop offset=".521" stop-color="#b2b2d2"/><stop offset=".687" stop-color="#c7c9e2"/><stop offset=".848" stop-color="#d6d9ec"/><stop offset="1" stop-color="#dbdff0"/></linearGradient><path d="M45.2.9l27.1 26.8v71.4H0V.9h45.2z" fill="url(#SVGID_1_)"/><path d="M45.2.9l27.1 26.8v71.4H0V.9h45.2z" fill-opacity="0" stroke="#2d3293" stroke-width="2"/></g><path d="M8.5 91.2L4 72.6h3.9l2.8 12.8 3.4-12.8h4.5l3.3 13 2.9-13h3.8L24 91.2h-4l-3.7-13.9-3.7 13.9H8.5zm22.1 0V72.6h5.7l3.4 12.7 3.4-12.7h5.7v18.6h-3.5V76.5l-3.7 14.7h-3.7l-3.7-14.7v14.7h-3.6zm39 0h-4.1L63.9 87h-7.5l-1.6 4.2h-4L58 72.6h4l7.6 18.6zm-7-7.4L60 76.9l-2.5 6.9h5.1z" fill="#fff"/><g class="st0"><linearGradient id="SVGID_2_" gradientUnits="userSpaceOnUse" x1="58.321" y1="87.273" x2="50.783" y2="78.839" gradientTransform="matrix(1 0 0 -1 0 102)"><stop offset="0" stop-color="#595593"/><stop offset=".07" stop-color="#706ca2"/><stop offset=".159" stop-color="#8988b5"/><stop offset=".255" stop-color="#a3a5c8"/><stop offset=".359" stop-color="#babfd9"/><stop offset=".471" stop-color="#ced5e7"/><stop offset=".598" stop-color="#dee6f2"/><stop offset=".751" stop-color="#e9f3fa"/><stop offset="1" stop-color="#ecf8fe"/></linearGradient><path d="M45.2.9l27.1 26.8H45.2V.9z" fill="url(#SVGID_2_)"/><path d="M45.2.9l27.1 26.8H45.2V.9z" fill-opacity="0" stroke="#2d3293" stroke-width="2" stroke-linejoin="bevel"/></g><linearGradient id="SVGID_3_" gradientUnits="userSpaceOnUse" x1="14.776" y1="56.174" x2="57.726" y2="56.174" gradientTransform="matrix(1 0 0 -1 0 102)"><stop offset="0" stop-color="#352c7f"/><stop offset=".074" stop-color="#3e3786"/><stop offset=".266" stop-color="#544f96"/><stop offset=".457" stop-color="#6763a5"/><stop offset=".645" stop-color="#7572b1"/><stop offset=".827" stop-color="#7e7cba"/><stop offset="1" stop-color="#8180bd"/></linearGradient><path d="M14.8 39.3h6.5l13-10v33l-13-10h-6.5v-13zm26.1 10.2v2.9c.1 0 1.6 0 3.2-.8s3.4-2.7 3.4-5.8c0-3.1-1.7-5-3.4-5.8-1.6-.8-3.1-.8-3.2-.8v2.9h.1c.4 0 1.4.2 2.1.7.8.5 1.4 1.2 1.4 3 0 2-.8 2.6-1.8 3.2-.5.2-1 .4-1.3.4-.2 0-.3 0-.4.1h-.1zm0 5.1v2.9c.1 0 2.8 0 5.8-1.4 2.9-1.4 6-4.6 5.9-10.1.1-5.6-3-8.7-5.9-10.1-2.9-1.4-5.6-1.4-5.8-1.4v2.9h.3c.8.1 3.1.4 4.9 1.6 1.9 1.2 3.5 3.1 3.5 7.1 0 4.6-2.1 6.5-4.3 7.5-1.1.6-2.2.8-3.1 1-.4.1-.8.1-1 .1-.2-.1-.3-.1-.3-.1zm0 5v2.9c.1 0 4.1 0 8.3-2.1 4.2-2 8.5-6.5 8.5-14.6.1-8.1-4.3-12.6-8.5-14.6-4.2-2.1-8.2-2.1-8.3-2.1V32h.6c1.3.1 4.8.6 7.7 2.5 2.9 1.9 5.5 5.1 5.6 11.3-.1 7-3.4 10.2-6.9 12-1.7.9-3.5 1.3-4.9 1.5-.7.1-1.2.2-1.6.2-.3.1-.5.1-.5.1zm0-27.5z" opacity=".99" fill="url(#SVGID_3_)"/></svg>