<svg id="Layer_1" xmlns="http://www.w3.org/2000/svg" viewBox="0 0 72 100"><style/><linearGradient id="SVGID_1_" gradientUnits="userSpaceOnUse" x1="36" y1="3.005" x2="36" y2="101" gradientTransform="matrix(1 0 0 -1 0 102)"><stop offset="0" stop-color="#bec0db"/><stop offset=".139" stop-color="#cecde6"/><stop offset=".359" stop-color="#e1dcf3"/><stop offset=".617" stop-color="#efe6fb"/><stop offset="1" stop-color="#f5f5ff"/></linearGradient><path d="M45 1l26.9 26.7V99H.1V1H45z" fill="url(#SVGID_1_)"/><path d="M45 1l26.9 26.7V99H.1V1H45z" fill-opacity="0" stroke="#7187a1" stroke-width="2"/><linearGradient id="SVGID_2_" gradientUnits="userSpaceOnUse" x1="44.754" y1="74.234" x2="58.198" y2="87.677" gradientTransform="matrix(1 0 0 -1 0 102)"><stop offset="0" stop-color="#fff5ff"/><stop offset=".35" stop-color="#faf1fb"/><stop offset=".532" stop-color="#ede7f4"/><stop offset=".675" stop-color="#dddbe9"/><stop offset=".799" stop-color="#c7c9da"/><stop offset=".908" stop-color="#adb3c7"/><stop offset="1" stop-color="#9291b0"/></linearGradient><path d="M44.7 1l26.9 26.7H44.7V1z" fill="url(#SVGID_2_)"/><path d="M44.7 1l26.9 26.7H44.7V1z" fill-opacity="0" stroke="#7191a1" stroke-width="2" stroke-linejoin="bevel"/><path d="M26.9 49.3H16.5l-1.2 2.8c-.4.9-.6 1.7-.6 2.3 0 .8.3 1.4 1 1.8.4.2 1.4.4 2.9.5v.8H8.7v-.8c1.1-.2 1.9-.6 2.6-1.3.7-.7 1.5-2.1 2.5-4.3l10.5-22.7h.4l10.6 23.4c1 2.2 1.8 3.6 2.5 4.2.5.4 1.2.7 2.1.8v.8H25.7v-.8h.6c1.1 0 1.9-.2 2.4-.5.3-.2.5-.5.5-1 0-.3 0-.5-.1-.8 0-.1-.2-.7-.7-1.6l-1.5-3.6zm-.8-1.6l-4.4-9.8-4.5 9.8h8.9z" fill="#7291a1"/><path d="M62.1 38.6l-4.2 14-.4 1.7c0 .2-.1.4-.1.5 0 .2.1.3.2.4.1.1.2.2.4.2.3 0 .7-.2 1.3-.7.2-.2.7-.8 1.6-1.9l.8.4c-1 1.8-2.1 3.1-3.3 4-1.2.8-2.4 1.2-3.8 1.2-.8 0-1.5-.2-1.9-.6-.4-.4-.7-.9-.7-1.6 0-.5.2-1.6.7-3l.5-1.7c-1.7 2.8-3.3 4.8-4.8 5.9-.9.7-1.9 1-2.9 1-1.3 0-2.3-.5-2.9-1.6-.6-1.1-.9-2.2-.9-3.6 0-2 .6-4.2 1.9-6.8s2.9-4.6 4.9-6.2c1.7-1.3 3.2-1.9 4.7-1.9.8 0 1.5.2 2 .7s.9 1.3 1.1 2.5l.8-2.6 5-.3zm-7 4c0-1.1-.2-2-.5-2.5-.3-.4-.6-.5-1.1-.5-.4 0-.9.2-1.4.6-1 .9-2 2.6-3.1 5.3-1.1 2.7-1.7 4.9-1.7 6.9 0 .7.1 1.3.4 1.6.3.3.5.5.8.5.7 0 1.3-.4 2-1.1 1-1 1.8-2.3 2.6-3.8 1.3-2.6 2-4.9 2-7z" fill="#36454d"/><path d="M10.2 92.1L6.8 77.8h3l2.2 9.8 2.6-9.8H18l2.5 10 2.2-10h2.9l-3.5 14.3H19l-2.9-10.7-2.9 10.7h-3zM26.6 85c0-1.5.2-2.7.7-3.7.3-.7.8-1.4 1.3-2s1.2-1 1.9-1.3c.9-.4 1.9-.6 3.1-.6 2.1 0 3.8.7 5.1 2 1.3 1.3 1.9 3.1 1.9 5.5 0 2.3-.6 4.1-1.9 5.4-1.3 1.3-3 2-5.1 2-2.1 0-3.8-.6-5.1-1.9s-1.9-3.1-1.9-5.4zm3-.1c0 1.6.4 2.8 1.1 3.7.8.8 1.7 1.3 2.9 1.3s2.1-.4 2.9-1.2c.7-.8 1.1-2.1 1.1-3.7s-.4-2.9-1.1-3.7-1.7-1.3-2.9-1.3-2.2.4-2.9 1.2-1.1 2.1-1.1 3.7zm13.3 7.2V77.8h9.9v2.4h-7v3.4h6V86h-6v6.1h-2.9zm12.2 0V77.8H65v2.4h-7v3.4h6V86h-6v6.1h-2.9z" fill="#4c627b"/></svg>