<svg xmlns="http://www.w3.org/2000/svg" viewBox="0 0 72 100"><linearGradient id="a" gradientUnits="userSpaceOnUse" x1="36.2" y1="3.014" x2="36.2" y2="101.001" gradientTransform="matrix(1 0 0 -1 0 102)"><stop offset="0" stop-color="#c8d4db"/><stop offset=".139" stop-color="#d8e1e6"/><stop offset=".359" stop-color="#ebf0f3"/><stop offset=".617" stop-color="#f9fafb"/><stop offset="1" stop-color="#fff"/></linearGradient><path d="M45.2 1l27.1 26.7V99H.1V1h45.1z" fill="url(#a)"/><path d="M45.2 1l27.1 26.7V99H.1V1h45.1z" fill-opacity="0" stroke="#7191a1" stroke-width="2"/><path d="M15 90.1l-3.8-15.7h3.3l2.4 10.8 2.9-10.8h3.8l2.8 11 2.5-11h3.2l-3.9 15.7h-3.4l-3.2-11.8-3.2 11.8H15zm18.8 0V74.3H39c2 0 3.2.1 3.8.2.9.2 1.7.8 2.3 1.5.6.8.9 1.8.9 3.1 0 1-.2 1.8-.5 2.4s-.8 1.2-1.4 1.6c-.5.4-1.1.6-1.7.7-.8.2-1.9.2-3.3.2H37v5.9h-3.2zM37 77v4.5h1.8c1.3 0 2.1-.1 2.5-.2.4-.2.8-.4 1-.8s.4-.8.4-1.2c0-.6-.2-1-.5-1.4-.3-.4-.8-.6-1.3-.7-.4-.2-1.2-.2-2.3-.2H37zm10.8 7.9l3.1-.3c.2 1 .6 1.8 1.1 2.3.6.5 1.4.7 2.3.7 1 0 1.8-.2 2.3-.7.5-.4.8-.9.8-1.5 0-.4-.1-.7-.3-1-.2-.3-.6-.5-1.2-.7-.4-.1-1.2-.4-2.6-.7-1.7-.4-2.9-.9-3.6-1.6-1-.9-1.5-1.9-1.5-3.2 0-.8.2-1.6.7-2.2.5-.7 1.1-1.2 2-1.6 1.1-.2 2.1-.4 3.3-.4 2 0 3.5.4 4.5 1.3s1.5 2 1.6 3.5l-3.2.2c-.1-.8-.4-1.4-.9-1.7-.5-.4-1.1-.5-2-.5-.9 0-1.7.2-2.2.6-.3.2-.5.6-.5 1s.2.7.5 1c.4.3 1.4.7 3 1.1s2.7.7 3.5 1.1c.8.4 1.3.9 1.8 1.6.4.7.6 1.5.6 2.5 0 .9-.3 1.7-.8 2.5s-1.2 1.4-2.2 1.8c-.9.4-2.1.6-3.5.6-2 0-3.6-.5-4.7-1.4-1-1.2-1.7-2.5-1.9-4.3z" fill="#4c6c7b"/><linearGradient id="b" gradientUnits="userSpaceOnUse" x1="36.606" y1="58.927" x2="36.606" y2="25.866"><stop offset="0" stop-color="#adccdc"/><stop offset="1" stop-color="#4c6c7b"/></linearGradient><path d="M64.4 27.7c-.5 0-1 .2-1.4.3-.5.2-1 .4-1.4.6-.7.4-1.2.8-1.5 1.3-.3.5-.6 1.1-.8 1.7-.9 2.4-2.2 6-4 11.3-1.8 5.1-3.6 10.5-5.6 16H45l-8.7-24.4-7.9 24.4h-4.7c-2.6-7.5-4.6-13.3-6-17.2-1.4-4.1-2.5-7.4-3.5-10.2-.3-.8-.6-1.4-1-1.8-.4-.4-.9-.8-1.4-1.2-.4-.3-.9-.5-1.3-.6-.5-.1-1-.2-1.6-.3v-1.8h17.6v1.8c-1 .1-1.8.2-2.3.4-.5.1-.9.2-1.2.4-.3.1-.5.3-.5.4-.1.1-.1.3-.1.4 0 .2 0 .4.1.6.1.2.1.4.2.7.4 1.2 1.1 3.5 2.3 6.8 1.1 3.4 2.5 7.5 4.2 12.5L36.7 26h4.9l8.7 24.5c1.3-4 2.3-7.2 3.1-9.7.8-2.5 1.4-4.7 1.9-6.4.3-1.1.6-2 .7-2.8.2-.7.3-1.4.3-1.9 0-.3-.2-.6-.5-.8-.3-.2-.7-.4-1.2-.6-.4-.1-1-.3-1.7-.3-.7-.1-1.3-.2-1.8-.2v-2h13.3v1.9z" fill="url(#b)"/><linearGradient id="c" gradientUnits="userSpaceOnUse" x1="31.747" y1="69.935" x2="31.747" y2="69.986" gradientTransform="matrix(1 0 0 -1 0 102)"><stop offset="0" stop-color="#adccdc"/><stop offset="1" stop-color="#4c6c7b"/></linearGradient><path d="M31.8 32c-.1.1-.1.1 0 0" fill="url(#c)"/><linearGradient id="d" gradientUnits="userSpaceOnUse" x1="45.324" y1="74.184" x2="58.871" y2="87.731" gradientTransform="matrix(1 0 0 -1 0 102)"><stop offset="0" stop-color="#fff"/><stop offset=".35" stop-color="#fafbfb"/><stop offset=".532" stop-color="#edf1f4"/><stop offset=".675" stop-color="#dde5e9"/><stop offset=".799" stop-color="#c7d3da"/><stop offset=".908" stop-color="#adbdc7"/><stop offset="1" stop-color="#92a5b0"/></linearGradient><path d="M45.2 1l27.1 26.7H45.2V1z" fill="url(#d)"/><path d="M45.2 1l27.1 26.7H45.2V1z" fill-opacity="0" stroke="#7191a1" stroke-width="2" stroke-linejoin="bevel"/></svg>