<svg id="Layer_1" xmlns="http://www.w3.org/2000/svg" viewBox="0 0 100 100"><style>.st0{fill:#f33}</style><path class="st0" d="M2.8 15.1v70.2l53.6 9.3V5.3L2.8 15.1z"/><path d="M35.6 67.3l-2.1-7.9-9.8-.4-1.9 7.6-6.2-.4L25 32.7l7.3-.4L42.7 68l-7.1-.7z" fill="#fff"/><path d="M97 61.9c-.2 2.1-3.1 3.8-8.7 5.2-5.6 1.2-12.5 1.9-20.8 1.9-2.5 0-4.8 0-7.1-.2v12.9c2.3.2 4.6.2 7.1.2 8.3 0 15.2-.8 20.8-2.3s8.5-3.1 8.7-5.4V61.9zm-29.4-9.4c-2.5 0-4.6 0-7.1-.2l.2 13.3c2.3 0 4.6.2 7.1.2 8.3 0 15.2-.7 20.8-2.3 5.6-1.4 8.3-3.1 8.7-5.4V45.5c-.2 2.1-3.1 3.8-8.7 5.2-5.8 1.2-12.7 1.8-21 1.8zm0-16.2c-2.5 0-4.6 0-7.1-.2v13.1c2.3.2 4.6.2 7.1.2 8.3 0 15.2-.8 20.8-2.3s8.5-3.1 8.7-5.4V29.2c-.2 2.1-3.1 3.8-8.7 5.2-5.6 1.3-12.5 1.9-20.8 1.9zm0-18.3c-2.5 0-4.6.2-7.1.4V33c2.3.2 4.6.2 7.1.2 8.3 0 15.2-.8 20.8-2.3s8.5-3.1 8.7-5.4c-.2-2.1-3.1-4-8.7-5.4-5.6-1.4-12.5-2.1-20.8-2.1z" fill="#f66"/><path class="st0" d="M28.5 38.6c-.2.8-.7 3.3-1.5 7.5l-1.7 7.3 7.1.2-1.8-7.3c-1-4.2-1.7-6.7-1.7-7.5l-.4-.2z"/></svg>