<svg xmlns="http://www.w3.org/2000/svg" viewBox="0 0 100 100"><path d="M91.6 28.7H76.9V14.1l14.7 14.6zM52.1 14.1v53.3h39.6V32.2H73.4V13.9H52.1v.2zM58.2 0H14.5v10.4h17.2l-10.9 8.3v8.9l15.9-12.2v-5h55.7V6.1L58.2 0zM36.9 22.4L21 34.6v8.9l15.9-12.2v-8.9zm-16.1 37l15.9-12.2v-8.9L20.8 50.6v8.8zm16.1 3.7v-8.9L21 66.5v4.8h-6.3v10.4h9.8v7h-5.9c-1.1-1.9-3-3-5.2-3-3.3 0-5.9 2.6-5.9 5.9 0 3.3 2.6 5.9 5.9 5.9 2.2 0 4.1-1.1 5.2-3h5.7v5.4h8.9v-5.4H39c1.1 1.9 3 3 5.2 3 3.3 0 5.9-2.6 5.9-5.9 0-3.3-2.6-5.9-5.9-5.9-2.2 0-4.1 1.1-5.2 3h-5.7v-7h25l34.3-6.1v-4.3H26.2l10.7-8.2z" fill="#fc3"/></svg>