<svg xmlns="http://www.w3.org/2000/svg" viewBox="0 0 100 100"><path d="M80.7 31.8c0-.7.2-1 1-1h12.1c.7 0 1 .2 1 1v60.7c0 .7-.2 1-1 1h-12c-.8 0-1-.4-1-1l-.1-60.7zm-.8-17.4c0-4.9 3.5-7.8 7.8-7.8 4.7 0 7.8 3.2 7.8 7.8 0 5.1-3.3 7.8-8 7.8-4.5.1-7.6-2.7-7.6-7.8zM45.2 57.1C43.1 48.6 38 30 36 21h-.2c-1.6 9-5.7 24.2-9 36.1h18.4zM23.8 69.6l-6.1 23.1c-.2.7-.4.8-1.2.8H5.3c-.8 0-1-.2-.8-1.2l21.9-76.5c.4-1.3.7-2.6.8-6.4 0-.6.2-.8.7-.8H44c.6 0 .8.2 1 .8l24.5 83c.2.7 0 1-.7 1H56c-.7 0-1-.2-1.2-.7l-6.4-23.1c.1.1-24.6 0-24.6 0z" fill="#ff7f18"/></svg>