<svg xmlns="http://www.w3.org/2000/svg" viewBox="0 0 100 100"><path d="M24.9 75c0 2.6 1.8 4.1 4.1 4.1h4.1v14.5c0 3.3 2.9 6.3 6.3 6.3 3.3 0 6.3-2.9 6.3-6.3V79.2h8.4v14.5c0 3.3 2.9 6.3 6.3 6.3 3.3 0 6.3-2.9 6.3-6.3V79.2h4.1c2.6 0 4.1-1.8 4.1-4.1V33.4h-50V75zM14.4 33.4c-3.3 0-6.3 2.9-6.3 6.3V69c0 3.3 2.9 6.3 6.3 6.3s6.3-2.9 6.3-6.3V39.7c0-3.4-2.9-6.3-6.3-6.3zm71.2 0c-3.3 0-6.3 2.9-6.3 6.3V69c0 3.3 2.9 6.3 6.3 6.3 3.3 0 6.3-2.9 6.3-6.3V39.7c-.1-3.4-3-6.3-6.3-6.3zM64.5 9L70 3.5c.8-.8.8-2.2 0-2.9s-2.2-.8-2.9 0l-6.3 6.3c-2.9-2-6.7-2.8-10.8-2.8s-7.9.8-11.2 2.6L32.9.4c-.8-.4-2.6-.4-3.3 0-.4.8-.4 2.6 0 3.3l5.5 5.5c-5.9 4.5-10 11.8-10 20h50.1c-.1-8.4-4.4-15.8-10.7-20.2zM41.6 20.8h-4.1v-4.1h4.1v4.1zm21 0h-4.1v-4.1h4.1v4.1z" fill="#a4ca39"/></svg>