<svg xmlns="http://www.w3.org/2000/svg" viewBox="0 0 100 100"><path d="M85.2 4.1H28.8c-7.7 0-14.1 6.2-14.1 14.1v63.6H.5c0 7.7 6.2 14.1 14.1 14.1h56.6c7.7 0 14.1-6.2 14.1-14.1V25.2h14.1v-7c-.1-7.9-6.3-14.1-14.2-14.1zm-7 76.4c0 4.6-3.7 8.3-8.3 8.3H18.1c3.5-2.4 3.5-7 3.5-7V18.2c0-3.9 3.1-7 7-7s7 3.1 7 7v7H78l.2 55.3zM42.9 18.2v-7h42.4c6.4 0 7 4 7 7H42.9z" fill="#bababa" stroke="#bababa" stroke-width=".75" stroke-miterlimit="10"/><path d="M41.6 73.1c-.7-.6-1.5-1.1-2-2-.7-.7-1.3-1.7-1.8-2.4-1.3-1.8-2.4-3.9-2.9-6.1-.9-2.6-1.3-5-1.3-7.3 0-2.6.6-5 1.7-6.8.7-1.5 2-2.8 3.5-3.7 1.5-.9 3.1-1.5 4.8-1.5.6 0 1.3 0 1.8.2.6.2 1.1.4 1.8.6.9.4 1.5.6 1.7.6.6.2.9.4 1.3.4.2 0 .7 0 1.1-.2.2 0 .7-.2 1.3-.6.7-.2 1.1-.4 1.7-.6.6-.2 1.3-.4 1.8-.4.7-.2 1.3-.2 2 0 1.3 0 2.2.4 3.3.7 1.7.7 3.1 1.8 4.2 3.3-.4.2-.9.6-1.3.9-.7.7-1.5 1.7-2 2.6-.7 1.3-1.1 2.8-1.1 4.2 0 1.8.6 3.5 1.5 4.8.7.9 1.5 1.8 2.6 2.6.6.4.9.6 1.5.7-.2.6-.4 1.3-.7 1.8-.6 1.3-1.3 2.6-2 3.9-.7 1.1-1.3 1.8-1.7 2.4-.7.7-1.3 1.5-2 1.8-1.1.4-2 .7-2.8.7-.6 0-1.1 0-1.7-.2-.6-.2-.9-.4-1.5-.6s-.9-.4-1.5-.6c-.6-.2-1.3-.2-2-.2s-1.3 0-2 .2c-.6.2-1.1.4-1.5.6-.7.4-1.1.6-1.5.6-.6.2-1.1.2-1.7.4-.9 0-1.8-.2-2.6-.8zm11.6-31c-1.1.6-2.2.7-3.3.7-.2-1.1 0-2.2.4-3.5.4-1.1.9-2 1.7-2.8.7-.9 1.7-1.7 2.8-2.2 1.1-.6 2.2-.9 3.1-.9.2 1.1 0 2.2-.4 3.5-.4 1.1-.9 2-1.7 2.9-.7 1-1.7 1.8-2.6 2.3z" fill="#bababa"/></svg>