<svg xmlns="http://www.w3.org/2000/svg" viewBox="0 0 100 100"><path d="M12 25.8h12L36.1 74h-11l-2-10.2H13L11 74H0l12-48.2zm9.5 28.9l-1.8-9.5C19 42 18.2 37 18.2 37h-.3s-.7 5.2-1.3 8.2l-1.8 9.5h6.7zm20.3 5.9c1.8 2.1 4.8 4.1 7.9 4.1 3 0 4.4-1.8 4.4-4.1 0-6.6-16.1-7.2-16.1-21 0-8.2 5.6-14.4 15.2-14.4 3.9 0 8.2 1.1 11.5 3.4l-3.9 9.7c-1.6-1.5-4.9-3-7.2-3-3.1 0-4.4 1.8-4.4 4.1 0 7 16.1 6.7 16.1 20.7 0 7.9-4.9 14.8-14.9 14.8-4.8 0-9.7-1.6-13.4-4.9-.1-.1 4.8-9.4 4.8-9.4zm28.5-34.8h15.1c8.9 0 14.6 6.9 14.6 16.6s-5.9 16.7-14.6 16.7h-4.1V74h-11V25.8zm13.1 23.6c3.4 0 5.4-3 5.4-6.9s-2.3-6.7-5.2-6.7h-2.3v13.6h2.1z" fill="red"/></svg>