<svg xmlns="http://www.w3.org/2000/svg" viewBox="0 0 100 100"><path d="M79.6 93c9.9.1 18.8-10.8 18.8-24.2C98.4 58 93 47.3 85 44.6v-8.1C85 21.4 69.2 7 50 7S14.7 21.5 14.7 36.6v8C7 47.3 1.6 55.4 1.6 68.8S9.7 93 20.4 93V36.6C20.4 23.7 33 12.4 50 12.4s29.6 11.4 29.6 24.2" fill="#1493f6"/><path fill="#ffc300" stroke="#ffc300" stroke-width=".75" stroke-miterlimit="10" d="M74.2 68.8l-8.1-16.1-8 18.8L50 44.6l-8.1 26.9-8.4-18.8-7.7 16.1v5.4l7.7-13.4 8.4 21.5L50 60.8l8.1 21.5 8-21.5 8.1 13.4z"/><path d="M79.6 44.6c-1.5 0-4.3 1.3-5.4 2.7v43c1.2 1 3.9 2.4 5.4 2.7V44.6zm-59.2 0V93c1.7.1 4.4-1.3 5.4-2.7v-43c-1.2-1.1-3.9-2.5-5.4-2.7z" fill="#404cb8"/></svg>