<svg xmlns="http://www.w3.org/2000/svg" viewBox="0 0 100 100"><path d="M28.7 88.7c-4.3-4.9-8.7-10.1-11.4-16.2-2.8-6.5-3.5-14-2.2-21.1s4.5-13.8 9.1-19.5c-.4 4.9 1.4 10.1 4.7 13.8-2-9.5 1.2-19.7 7.5-27.2s15-12.4 24.1-15.8c-4.5 4.7-5.1 12.2-3.4 18.5 1.8 6.3 5.5 11.8 8.9 17.5 3.4 5.7 6.5 11.6 6.7 18.1 1.8-3.4 3.7-6.7 4.9-10.4 1.2-3.7 1.8-7.7.8-11.4 3.5 4.3 5.5 8.7 6.5 14.2s.8 11.2.2 16.8c-.8 6.1-2.4 12.4-5.7 17.5-4 6.2-10.3 10.5-17.2 12.9-12.2 2.2-24.2.4-33.5-7.7z" fill="#f3705a"/><path d="M43.7 96c16.2 6.3 32.1-12.8 23.3-27.6 0-.2-.2-.2-.2-.4.8 8.1-1.2 14-4.9 17.3 2-4.7.6-10.3-1.8-15-2.4-4.5-5.7-8.7-8.3-13-2.6-4.5-4.5-9.7-3.4-14.8-4.7 3.5-8.1 8.9-9.5 14.6s-.6 12 2 17.3c-3-2.2-5.1-5.7-5.3-9.5-3.2 3.7-5.1 8.7-4.9 13.6 0 7.8 6.1 14.7 13 17.5z" fill="#ffd15c"/></svg>