<svg xmlns="http://www.w3.org/2000/svg" viewBox="0 0 100 100"><path d="M95.6 49.1c-4.9-4.7-29.3-7.6-37-8.4.4-.9.7-1.8 1-2.7 1-.5 2.2-.9 3.3-1.2.1.4.8 2 1.2 2.8 15.6.3 16.4-11.6 17-15 .6-3.2.6-6.3 5.9-12-7.9-2.3-19.3 3.6-23.1 12.4-1.4-.5-2.8-.9-4.3-1.2-1-4.1-6.3-15.6-20.2-15.6-9 0-18.1 3.7-24.9 10.2-3.7 3.5-6.6 7.7-8.6 12.4-2.2 5-3.3 10.7-3.3 16.6 0 20.7 14.1 38.8 22.1 38.8 3.5 0 6.4-2.6 7.2-4.9.6 1.6 2.4 6.6 3 7.8.9 1.9 4.9 3.5 6.7 1.5 2.3 1.3 6.4 2 8.7-1.3 4.4.9 8.3-1.7 8.3-4.8 2.1-.1 3.2-3.1 2.7-5.5-.3-1.8-4-8.1-5.5-10.3 2.9 2.3 10.1 3 11.1 0 4.6 3.6 11.9 1.7 12.4-1.2 5.6 1.4 12.1-1.7 11.1-5.6 9-.8 7.9-10.3 5.2-12.8zM72.1 33.2c-2.4-.9-5.4-1.5-7.5-1.5-3 0-4.8 1.7-7.6 1.7-.6 0-2 0-3.1-.4.7.8 1.7 1.2 3.5 1.2 1.1 0 3.2-.5 4.9-1.1 0 .4.1.7.1 1.1-3.2.8-6.6 2.8-7.6 3.3-2.2-4.8-.3-9.3 1.4-11.5 7.8 0 14 5.4 15.9 7.2zm3.4-.4l-1.2-1.1c-1.2-1.1-2.5-2.2-3.8-3.1 1.9-3.8 4.4-8 7.4-10.7-3.4 1.4-6.7 5.4-8.7 9.8-1-.6-2-1.2-3.1-1.7 2.8-5.9 9.1-10.9 16.3-11.3-4.6 4.4-2.8 13.1-6.9 18.1zm-9.7 4c-.5-1.1-1-3-1-4.1.9 0 2.6.3 2.8.4-.1.5-.2 1.7-.2 1.8.2-.3.6-1.3.8-1.7 1.7.3 3.9.9 5.2 1.5-1.4 1-4 2.1-7.6 2.1zm-28-7.6c-1.9-.7-1.9-2.4 0-3.1 1.9-.7 4.3.2 4.3 1.5.1 1.4-2.3 2.2-4.3 1.6zm6.4.6c0-3.8-4.1-6.2-7.4-4.3-2.4 1.4-3.2 4.4-1.8 6.7.4.7 1.1 1.4 1.8 1.8 3.3 1.9 7.4-.4 7.4-4.2zm11.1-6.3c-6.2 6.2-3.7 14.2-1.5 17.8-3.2 5.3-9.5 8.9-16.9 10.7 8.2 0 13.1-2.1 15.9-4.2 1.8-1.3 2.8-2.6 3.2-3.3 12.2.8 31.4 4.7 33.4 6 .7.5 1.5 1.6 1.6 2.7-9.1-1.3-25.6-2.6-29.9-2.8 3.1.4 25.4 4.7 29.3 5.6-1.2 1.9-3.9 3.3-7.9 2.3 2.2 3-2 6.5-7.9 4.6 1.3 2.9-3.9 5.5-9.9 2.5.1 2.9-7.4 3.3-10.4 0 .1.4.4 1.1.6 1.4-.9 8.5-7.9 13.9-15.2 13.9-17.6 0-32.9-14.3-32.9-33.3 0-20.1 14.9-35.1 32.8-35.1 10 .1 14.6 8.1 15.7 11.2z" fill="#bababa" stroke="#bababa" stroke-miterlimit="10"/></svg>