<svg id="Layer_1" xmlns="http://www.w3.org/2000/svg" viewBox="0 0 100 100"><style>.st0{fill:#01579b}.st3{opacity:.2;fill:#fff;enable-background:new}</style><path class="st0" d="M22 78L5.8 61.8c-1.9-2-3.1-4.8-3.1-7.5 0-1.3.7-3.2 1.2-4.4l14.9-31.1L22 78z"/><path d="M77.4 22L61.2 5.8c-1.4-1.4-4.4-3.1-6.8-3.1-2.1 0-4.2.4-5.6 1.2l-29.9 15L77.4 22zM41.3 97.3h39.2V80.5l-29.3-9.3-26.7 9.3z" fill="#40c4ff"/><path d="M18.9 69.3c0 5 .6 6.2 3.1 8.7l2.5 2.5h56L53.1 49.4 18.9 18.9v50.4z" fill="#29b6f6"/><path class="st0" d="M68.7 18.9H18.9l61.6 61.6h16.8V41.9L77.4 22c-2.8-2.8-5.3-3.1-8.7-3.1z"/><path class="st3" d="M22.6 78.6c-2.5-2.5-3.1-5-3.1-9.3V19.5l-.6-.6v50.4c0 4.4 0 5.6 3.7 9.3l1.9 1.9-1.9-1.9z"/><path opacity=".2" fill="#263238" d="M96.7 41.3v38.6H79.9l.6.6h16.8V41.9z"/><path class="st3" d="M77.4 22c-3.1-3.1-5.6-3.1-9.3-3.1H18.9l.6.6H68c1.9 0 6.6-.3 9.4 2.5z"/><radialGradient id="SVGID_1_" cx="50.004" cy="312.467" r="47.293" gradientTransform="translate(0 -262.467)" gradientUnits="userSpaceOnUse"><stop offset="0" stop-color="#fff" stop-opacity=".1"/><stop offset="1" stop-color="#fff" stop-opacity="0"/></radialGradient><path d="M96.7 41.3L77.4 22 61.2 5.8c-1.4-1.4-4.4-3.1-6.8-3.1-2.1 0-4.2.4-5.6 1.2l-29.9 15L4 50c-.5 1.1-1.2 3.1-1.2 4.4 0 2.7 1.2 5.5 3.1 7.5l14.9 14.8c.4.4.8.9 1.3 1.4l.6.6 1.9 1.9 16.2 16.2.6.6h39.2V80.5h16.8V41.9l-.7-.6z" opacity=".2" fill="url(#SVGID_1_)"/></svg>