<svg xmlns="http://www.w3.org/2000/svg" viewBox="0 0 100 100"><path d="M20.4 9.4h-10v10h5v25.1h10v-30c0-2.8-2.2-5.1-5-5.1zm39.6 0H40c-2.8 0-5 2.2-5 5v25.1c0 2.8 2.2 5 5 5h20c2.8 0 5-2.2 5-5v-25c0-2.8-2.2-5.1-5-5.1zm-5 25.1H45v-15h10v15zM82.8 9.4h-10v10h5v25.1h10v-30c0-2.8-2.2-5.1-5-5.1zm-52.7 46H10c-2.8 0-5 2.2-5 5v25.1c0 2.8 2.2 5 5 5h20.1c2.8 0 5-2.2 5-5v-25c0-2.8-2.2-5.1-5-5.1zm-5 25.1H15v-15h10l.1 15zm26.3-25h-10v10h5v25.1h10V60.5c.1-2.8-2.2-5-5-5zm38.6 0H69.9c-2.8 0-5 2.2-5 5v25.1c0 2.8 2.2 5 5 5H90c2.8 0 5-2.2 5-5V60.5c0-2.8-2.3-5-5-5zm-5 25H75v-15h10v15z" fill="#bababa"/></svg>