<svg xmlns="http://www.w3.org/2000/svg" viewBox="0 0 100 100"><path d="M84.2 16.9c-5.5 0-4.1 5.5-5 7.9-.5 1.1-1.1 2.4-1.7 4l.5-1.1c-.3.8-.6 1.1-1.5 1.7 0 0-3.6 2.3-7.3 4.4-4-6.8-11.4-11.1-19.3-11.1S34.4 27 30.5 33.8c-3.5-2.1-7.3-4.4-7.3-4.4-.9-.6-1.2-.9-1.5-1.7l.5 1.1c-.6-1.5-1.2-2.9-1.7-4-.9-2.4.5-7.9-5-7.9s-4.6 7.5-6.1 10.3C8.3 29 5 30.8 3.6 33.3c-.2.2-.2.3-.3.5-.6 1.2-.6 2.4.2 4 2.7 4.7 6.7.8 9.3.5 1.1-.2 2.7-.3 4.3-.5L16 38c.8-.2 1.2 0 2.3.5 0 0 4.1 2.3 9.4 5.2v1.4c0 4.1 1.2 8.2 3.3 11.7-7.1 4.3-13.4 8.2-13.4 8.2-.9.6-1.4.6-2.1.6h.9-4c-2.4-.2-5.8-3-8.8 1.2s3.3 6.1 4.6 8.2c1.2 2.3-.3 8.7 4.9 8.1 5.2-.5 4.3-4.9 5.5-7.1.5-.9 1.2-2.1 2-3.5l-.6.7c.3-.6.6-.9 1.7-1.5 0 0 5.9-3.2 12.9-7.1v9.7c1.8.8 3.6 1.2 5.6 1.7v-5.3c.9.2 1.8.5 2.7.6v5.3c1.8.3 3.8.5 5.6.6V72h2.7v5.2c1.8 0 3.8-.3 5.6-.5v-5.3c1.1-.2 2-.5 2.7-.6v5.3c2-.5 3.8-1.1 5.6-1.7v-9.7c7 3.8 12.9 7.1 12.9 7.1.9.6 1.2.9 1.7 1.5.6 1.1 1.1 2 1.5 2.6 1.2 2.1.3 6.5 5.5 7.1 5.2.5 3.5-5.9 4.9-8.1 1.2-2.3 7.6-4 4.6-8.2-3-4.3-6.4-1.2-8.8-1.2h-4 .9c-.8 0-1.2-.2-2.1-.6 0 0-6.2-3.8-13.4-8.2 2.3-3.5 3.3-7.6 3.5-11.7v-1.4c5.3-2.9 9.4-5.2 9.4-5.2.9-.6 1.4-.6 2.3-.5l-1.1-.2c1.7.3 3.2.3 4.3.5 2.6.5 6.5 4.4 9.3-.5 2.7-4.7-4.3-7.6-5.9-10.5-1.1-1.8-1.1-5.6-2.3-8.1-.2-.2-.2-.3-.3-.5-1-1.1-2-1.7-3.8-1.7zM41.6 42.6c.5 0 .9 0 1.4.2 3 .8 3.8 3.6 3 6.7-.8 3-4 4.9-7 4-3-.8-4-3.6-3-6.7.6-2.5 3-4.2 5.6-4.2zm16.4 0c2.6 0 5 1.7 5.6 4.3.8 3 0 5.9-3 6.7-3 .8-6.2-.9-7-4-.8-3 0-5.9 3-6.7.5-.1.9-.3 1.4-.3zm-8.2 14.3c.8 0 4.6 4.7 4.1 5.3-.5.5-7.8.5-8.2 0-.5-.6 3.3-5.3 4.1-5.3z" fill="#bababa"/></svg>