<svg xmlns="http://www.w3.org/2000/svg" viewBox="0 0 100 100"><path d="M20.4 95c-2.6 0-3.9-1-5.2-3.2L3.6 70.2c-.8-1.6-.8-2.1-.8-3.2l18.3.8 4.2 4.2h36.8L31.5 90.9c-1.5.9-7.1 4.1-11.1 4.1z" fill="#68b4ac"/><path d="M25.3 72H9.4c-4.8 0-6.7-2.5-6.7-5 0-1.6.5-2.4 1.2-4.2L27.1 7.6l.2-.5.3-.5.7-.6 1-.5 1.4-.3 2.4.1 16.1 6-5.4 17.1L25.3 72z" fill="#96c05c"/><path d="M71.9 95L35.4 8.6c-.6-1.5-1.6-3.4-4.2-3.4-2.3 0-3.4 1.1-4.1 2.3.3-.8 1.3-2.5 4.1-2.5h25.2c2.3 0 3.4 1.4 3.9 2.6L97.2 95H71.9z" fill="#4596ec"/></svg>