<svg xmlns="http://www.w3.org/2000/svg" viewBox="0 0 100 100"><path d="M50.6 2.9v9.8H23.1c-.6 0-.8.2-.8.8v65.1h55.3V2.7c1.2 0 2.3.2 3.4.6 3.3 1.3 5.4 3.7 6.3 7.2.1.5.2 1 .2 1.6v75.8c0 2.3-.9 4.3-2.5 6-1.3 1.5-2.9 2.5-4.8 3-.8.2-1.6.4-2.4.4-18.5 0-37 .1-55.6 0-4.7 0-8.5-3.3-9.6-7.9-.1-.6-.1-1.2-.1-1.8V12.9c0-3.6 1.6-6.4 4.5-8.4 1.5-1 3.2-1.5 5.1-1.5h27.6c.3-.1.6-.1.9-.1zm-4.8 84.8c0 2.5 2 4.3 4.2 4.3 2.4 0 4.1-1.9 4.2-4.1.1-2.4-2.2-4.3-4.2-4.4-2.2-.1-4.3 2.1-4.2 4.2z" fill="#0079c1"/><path d="M72.4 2.9V36l-.1.1c-3.5-4.7-7-9.4-10.5-14.2-1.9 2.1-3.8 4.2-5.8 6.3V2.9h16.4z" fill="#ffd204"/><path d="M27.8 57.1v-7.6h44.6v7.6H27.8zm44.6 7.5v6.6H27.8v-6.6h44.6zM27.8 34.3h33.6v7.6H27.8v-7.6zm0-6.4v-7.7h22.8v7.7H27.8z" fill="#bababa"/></svg>