<svg xmlns="http://www.w3.org/2000/svg" viewBox="0 0 100 100"><path d="M36.9 35.2V6.7c0-2.9 2.4-5.1 5.1-5.1h32.3L91 18.2V35c0 .5-.5 1.1-1.1 1.1h-5.7c-.5 0-1.1-.5-1.1-1.1V23.7H72.6c-2.2 0-3.8-1.6-3.8-3.8V9.6h-24v25.6c0 .5-.5 1.1-1.1 1.1H38c-.5 0-1.1-.5-1.1-1.1zm0 61.4V46c0-1.1.7-1.8 1.8-1.8h55.9c1.1 0 1.8.7 1.8 1.8v42.4c0 5.5-4.6 10-10 10H39.1c-1.4 0-2.2-.7-2.2-1.8zm39.3-39.1c0 2.4 1.8 4 4 4s4-1.8 4-4c0-2.4-1.8-4-4-4-2-.4-4 1.4-4 4zm0 13.9c0 2.4 1.8 4 4 4 2.4 0 4-1.8 4-4s-1.8-4-4-4.4c-2 0-4 1.8-4 4.4zM62.5 57.5c0 2.2 1.8 4 4 4s4-1.8 4-4-1.8-4-4-4c-2.2-.4-4 1.4-4 4zm0 13.9c0 2.2 1.8 4 4 4 2.4 0 4-1.8 4-4 0-2.4-1.8-4-4-4.4-2.2 0-4 1.8-4 4.4zm0 13.7c0 2.2 1.8 4 4 4 2.4 0 4-1.8 4-4s-1.8-4-4-4c-2.2-.1-4 1.8-4 4zM48.6 57.5c0 2.4 1.8 4 4 4s4-1.8 4-4c0-2.4-1.8-4-4-4-2.3-.4-4 1.4-4 4zm0 13.9c0 2.4 1.8 4 4 4 2.4 0 4-1.8 4-4 0-2.4-1.8-4-4-4.4-2.1 0-4 1.8-4 4.4zm0 13.7c0 2.2 1.8 4 4 4 2.4 0 4-1.8 4-4s-1.8-4-4-4c-2.3-.1-4 1.8-4 4zm-35 13.3h13.3c1.1 0 1.8-.7 1.8-1.8V33.4c0-1.1-.7-1.8-1.8-1.8H16.3c-7.1 0-12.8 5.7-12.8 12.8v44.4c0 5 4.4 9.6 10.1 9.6z" fill="#2ebcaf"/></svg>