<svg xmlns="http://www.w3.org/2000/svg" viewBox="0 0 100 100"><path d="M49 39.3c-3.9.9-6.6 1.6-10.6 2.8-.9.1-.9.4-1.9-.6-.9-1.2-1.6-1.6-3-2.4-3.9-1.9-7.8-1.3-11.4.9-4.3 2.8-6.4 6.7-6.4 11.8 0 4.9 3.6 9.1 8.5 9.9 4.3.6 7.8-.9 10.6-4.2.6-.7 1.2-1.5 1.6-2.2H24.3c-1.3 0-1.6-.7-1.2-1.9.7-1.9 2.2-5.1 3.1-6.7.1-.4.6-.9 1.5-.9h22.9c.1 1.8.1 3.4-.1 5.1-.7 4.5-2.4 8.7-5.1 12.3-4.5 5.8-10.3 9.6-17.8 10.6-6 .7-11.8-.4-16.7-4.2-4.9-3.7-7.2-8.2-8-14-.7-6.7 1.2-13 5.2-18.2 4.5-5.8 10.3-9.4 17.5-10.8 5.8-1.2 11.5-.4 16.6 3 3.4 2.2 5.7 5.1 7.2 8.8.6.5.3.8-.4.9zm20.7 34.6c-5.7-.1-10.9-1.6-15.3-5.5-3.7-3.1-6-7.2-6.7-12.1-1.2-7 .7-13.5 5.1-18.8 4.5-6 10-9.1 17.5-10.3 6.4-1.2 12.4-.6 17.8 3.1 4.9 3.4 7.9 7.9 8.8 13.9 1.2 8.5-1.3 15.3-7.2 21.1-4.2 4.2-9.3 6.7-15 7.9-1.8.5-3.5.5-5 .7zm14.7-25.3c0-.7 0-1.5-.1-2.1-1.2-6.3-6.7-9.6-12.9-8.2-5.8 1.3-9.6 4.9-10.9 10.9-1.2 4.9 1.3 9.9 5.7 11.8 3.4 1.5 6.7 1.3 10.2-.4 5.2-2.6 7.9-6.5 8-12z" fill="#2dbcaf"/></svg>