<svg xmlns="http://www.w3.org/2000/svg" viewBox="0 0 100 100"><path d="M37.5 55.5c3.3-.2 6.5.9 9.2 3.1 1.2 1.1 2.3 2.3 3.3 3.9 1.6-2.6 4-4.8 6.8-5.9 3.6-1.2 7.4-1.2 11.2 0 3.1 1.2 5.9 2.9 8.2 5.3 1.9 1.7 3.7 3.6 5.7 5.1 1.1.9 2.2 1.6 3.4 2 1.7.6 3.7 0 5-1.2 1.1-1.2 1.1-3.3-.2-4.5-.8-.6-1.9-.6-2.6.2 0 0 0 .2-.2.2-.3.8-.3 1.7.2 2.3-1.1-.6-1.9-1.9-2-3.1-.2-1.6.9-2.9 2.3-3.4 2.8-1.1 6.1-.2 7.8 2.2 1.4 2.3 2 5.1 1.6 7.8-.3 2.5-1.7 4.8-3.9 6.4-2.9 2-6.5 2.9-10.2 2.6-3.4-.2-6.8-.8-9.9-2.2-5.3-2.2-10.2-5-15.7-6.7-1.9-.5-3.9-.9-5.7-1.2h-4.3c-1.7.2-3.6.6-5.1 1.2-5.6 1.7-10.5 4.7-15.8 6.8-4.5 1.9-9.5 2.5-14.3 1.6-2.8-.5-5.3-1.9-7.1-3.9-1.6-1.9-2.3-4.2-2.2-6.5-.2-2.3.5-4.5 1.9-6.4 1.4-1.7 3.6-2.5 5.7-2.3 1.4 0 2.6.6 3.6 1.7.6.9.8 2 .5 3.1-.5.9-1.1 1.7-1.9 2.2.5-.6.6-1.6.2-2.3-.6-.8-1.7-1.1-2.6-.5-.2 0-.2.2-.3.2-.9 1.1-1.1 2.5-.5 3.7.8 1.2 2 2 3.4 2.2 2 0 4-.9 5.4-2.3 2.9-2.9 6.2-5.6 9.5-8.1 2.8-2.1 6.2-3.2 9.6-3.3zm0-33.8c3.3-.2 6.5.9 9.2 3.1 1.2 1.1 2.3 2.3 3.3 3.9 1.6-2.6 4-4.8 6.8-5.9 3.6-1.2 7.4-1.2 11.2 0 3.1 1.2 5.9 2.9 8.2 5.3 1.9 1.7 3.7 3.6 5.7 5.1 1.1.9 2.2 1.6 3.4 2 1.7.6 3.7 0 5-1.2 1.1-1.2 1.1-3.3-.2-4.5-.8-.6-1.9-.6-2.6.2 0 0 0 .2-.2.2-.3.8-.3 1.7.2 2.3-1.1-.6-1.9-1.9-2-3.1-.2-1.6.9-2.9 2.3-3.4 2.8-1.1 6.1-.2 7.8 2.2 1.4 2.3 2 5.1 1.6 7.8-.3 2.5-1.7 4.8-3.9 6.4-2.9 2-6.5 2.9-10.2 2.6-3.4-.2-6.8-.8-9.9-2.2-5.3-2.2-10.2-5-15.7-6.7-1.9-.5-3.9-.9-5.7-1.2h-4.3c-1.7.2-3.6.6-5.1 1.2-5.6 1.7-10.5 4.7-15.8 6.8-4.5 1.9-9.5 2.5-14.3 1.6-2.8-.5-5.3-1.9-7.1-3.9-1.6-1.9-2.3-4.2-2.2-6.5-.2-2.3.5-4.5 1.9-6.4 1.4-1.7 3.6-2.5 5.7-2.3 1.4 0 2.6.6 3.6 1.7.6.9.8 2 .5 3.1-.5.9-1.1 1.7-1.9 2.2.5-.6.6-1.6.2-2.3-.6-.8-1.7-1.1-2.6-.5-.2 0-.2.2-.3.2-.9 1.1-1.1 2.5-.5 3.7.8 1.2 2 2 3.4 2.2 2 0 4-.9 5.4-2.3 2.9-2.9 6.2-5.6 9.5-8.1 2.8-2.1 6.2-3.2 9.6-3.3z" fill="#c19770"/></svg>