<svg xmlns="http://www.w3.org/2000/svg" viewBox="0 0 100 100"><path d="M81.8 60c0 5.3-4 23.3-4 23.3-.8 4.5-4.8 9.2-9.8 9.2H43.8c-3.5 0-6.7-2.2-8.2-5.3 0 0-11.8-21.8-16.5-29.7-3.1-5.5-3.1-5.5 1-7.8.7-.5 1.3-.7 2.3-.7 1.7 0 2.8 1 4 2.3l7.2 8.3 2.2 2.8V12.2c0-2.5 2.3-4.7 5.2-4.7 2.5 0 4.7 2.2 4.7 4.7l1 32.5h2.2l.5-5.5c0-2.5 2.2-4.7 4.7-4.7s4.7 2.2 4.7 4.7l.5 6.7h2.2l.5-4.3c0-2.5 2.2-4.7 4.7-4.7s4.7 2.2 4.7 4.7l.5 4.3V47h1.7l.5-2.3c0-2.5 2.2-4.7 4.7-4.7s4.7 2.2 4.7 4.7c-1.7-.2-1.7 10-1.7 15.3z" fill="#bababa"/></svg>