<svg id="Layer_1" xmlns="http://www.w3.org/2000/svg" viewBox="0 0 100 100"><style>.st0{fill:#bababa;stroke:#bababa;stroke-miterlimit:10}</style><path class="st0" d="M54.5 46.1c4.7 5.2-1.3 10.1-1.3 10.1s11.7-6 6.4-13.6c-5-7-8.9-10.5 12-22.7 0 .1-32.8 8.4-17.1 26.2"/><path class="st0" d="M59.6.5s9.9 9.9-9.4 25.2C34.8 38 46.7 45 50.2 53.1 41.1 44.9 34.6 37.7 39 31 45.3 21.1 63.6 16.3 59.6.5M70.4 74c17.9-9.3 9.6-18.4 3.9-17.1-1.5.3-2.1.5-2.1.5s.5-.8 1.6-1.1c11.5-4 20.3 11.8-3.7 18.2-.1 0 .2-.3.3-.5m-33 3.8s-3.7 2.1 2.6 2.9c7.5.8 11.5.8 19.8-.8 0 0 2.3 1.5 5.2 2.6-18.7 7.9-42.3-.5-27.6-4.7m-2.3-10.4s-4.2 3.1 2.3 3.7c8.1.8 14.6 1 25.5-1.3 0 0 1.6 1.6 4 2.4-22.6 6.7-47.9.5-31.8-4.8"/><path class="st0" d="M79.2 85.6s2.7 2.3-3.1 4c-10.9 3.4-45 4.4-54.5.2-3.4-1.5 3.1-3.5 5-4 2.1-.5 3.4-.3 3.4-.3-3.8-2.8-24.6 5.1-10.5 7.4 38.1 6.1 69.6-2.8 59.7-7.3M39.1 56.5s-17.4 4.2-6.2 5.5c4.8.6 14.3.5 23-.3 7.2-.6 14.4-1.9 14.4-1.9s-2.6 1.1-4.4 2.4c-17.7 4.7-51.8 2.6-42-2.3 8.6-3.9 15.2-3.4 15.2-3.4"/><path class="st0" d="M40.9 99.2c17.2 1.1 43.6-.6 44.3-8.8 0 0-1.3 3.1-14.3 5.5-14.7 2.7-32.9 2.4-43.6.6.2.1 2.4 2 13.6 2.7"/></svg>