<svg xmlns="http://www.w3.org/2000/svg" viewBox="0 0 100 100"><path d="M30.8 47.5L11.4 66.8c-2.4 2.4-3.6 5.6-3.6 8.8 0 3.2 1.2 6.3 3.6 8.7l.2.1c2.4 2.3 5.5 3.5 8.6 3.5 3.2 0 6.3-1.2 8.8-3.6l21.8-21.8.1-.1L74.2 39c1.1-1.1 1.6-2.5 1.6-3.9s-.5-2.8-1.6-3.8c-1.1-1.1-2.5-1.6-3.9-1.6s-2.8.5-3.8 1.6L32.8 65.1c-1.6 1.4-3.9 1.4-5.5 0-1.5-1.6-1.5-4 0-5.5l33.8-33.8c2.6-2.5 5.9-3.8 9.3-3.8 3.4 0 6.7 1.3 9.3 3.8 2.6 2.6 3.8 5.9 3.8 9.3 0 3.4-1.3 6.7-3.8 9.3L56.2 67.9l-.1.1H56L34.3 89.8c-3.9 3.9-9 5.8-14.2 5.8-5 0-10.1-1.9-13.9-5.6l-.2-.2C2.1 85.9.2 80.8.2 75.7c0-5.2 2-10.3 5.8-14.2l21.8-21.8.1-.1 27.5-27.5C60.5 7 67.2 4.4 73.8 4.4c6.8 0 13.4 2.5 18.5 7.7 5.1 5 7.6 11.7 7.6 18.4 0 6.7-2.6 13.4-7.6 18.4L54.5 86.8c-1.5 1.4-4 1.4-5.4 0-1.5-1.6-1.5-4 0-5.5l37.8-37.8c3.6-3.6 5.4-8.3 5.4-13 0-4.7-1.8-9.5-5.4-13-3.6-3.6-8.3-5.3-13-5.3-4.7 0-9.4 1.7-13 5.3l-30.1 30z" fill="#bababa" stroke="#bababa" stroke-width=".25" stroke-miterlimit="10"/></svg>