<svg xmlns="http://www.w3.org/2000/svg" viewBox="0 0 100 100"><path d="M96.6 5.2S78.4 14 63.5 15.8c-14.9 2-43.2 3.8-48.8 2.5s-9.6-3-9.6-3l1.2 4-3.6 3.3.7 1.2 1.5.2 4.6.5.7 2 2.5.2L14 31s5.5.5 6.9.5c1.5 0 4.8-.2 4.8-.2l.2 1.7H27v2l-2.5 2.3.7.2v.8s-5.8.5-8.1.2-2.8-.3-2.8-.3l-.2.2-.2.8h.5l.2 4.5 11.7-.5-.8 15.2-.2 2-9.9-.5v-4.1h2.1l.2-1.7 2-.5.3-.5-7.6-1.8L6.6 53l1 .8h1l.2 1.2 2 .2v4l-2.1.7.5.8.5.3v3H11v14.2l-2.1.3.3 4.1 1.3.2-.2 9.4 6.1.2-1.3-9.1 9.1-.2-.7 5-.8 3.5 9.3.2.2-9.1 6.3-.5-.3 5.8-.2 3.5h5.5l-.2-9.3.8.2.2-4.5h-.8l-.4-1.9-.8-5.5.2-6h1.2v-3.6l-1.5.2.2-4.3 1.7-.2v-1.3l1-.2 1-.8-6-1.3-6 1.3.7 1h1.3l.2 1.8H38v3.8l-7.1-.2.2-4 .2-3.6v-4.8l.2-5.1 14.4-.7 17.2-1 .2 3.3-.7 7.8-.3 7.3-6.3-.2v-5.1l2.3-.2.2-1.5 1-.2v-.3h1l.5-.7-7.1-1.7-7.1 1.5.5.8h.8v.3h1v1.7H51v4.5h-2.1v1l.8.2v3.8l1.5.2-.2 15.4-2.2.5v.7h.7v4h1.2l-.4 5.4-.3 4.7 7.6.2-.3-4.5-.7-3.4-.2-3 6.5-.2-.2 4.6v4.8l3.6.3 5-.2 1.5-.5-1-2.6-.2-4-.3-2.8 6.1-.2-.3 3.5v5.6l2.5.2h2.5l1.2-.3-.7-5.2-.2-4 1-.2v-3.5h.3v-.8h-1.2l-.1-2.5-.2-11.2h.8v-3.6h.3v-.7l-1.3-.2V56l2.2-.2-.2-1.5 1-.2v-.3l1.3-.7-6.6-1.3-6.7 1.3.5.8 1-.2v.3h.8v1.7h2.2l.2 4.1H70l-.8-6.3-.7-3.3-.7-6 .3-3.5 15.4-1.2v-5.1l.8-.2v-.8l-.7-.3s-8.4 1.3-11.1 1.5c-.8 0-.7 0-1.3.2v-1l-3.1-1.7v-2h1.2v-2.6s6.4-.5 8.9-1l5.8-1.2 1.7-4.5 3.1-1 .3-.7 7.3-2 .8-.7-2.8-6 .3-1.3 1.3-.7 1-3.1-.4-.1zm-34.9 23v2.1h1.7l-.2 2.1-3.1 2.1-.2.7h1.3v.5l-9.9.5v-1.5l.5-.7v-1.5l.3-.7.2-.5V31l.5-1.7c0 .2 8.9-1.1 8.9-1.1zM41.2 30l-.2 1.5.7 1v1.7l.7 1.2-.2 1.3.5.8-10.1.3v-.3l1.2-.2v-.5l-2.5-1.3-.2-2.2h1.2l.2-2.3 8.7-1zm14.9 33.9l6.1.3-.2 8.3.8 6.8-6.5-.2c.2 0-.2-15.2-.2-15.2zm-40.8.5l9.8.5-.8 5.6v4.8l.7 2.6-9.6.3c-.1.1-.1-13.8-.1-13.8zm62.5 0v14.1l-6.3.3-.2-7.4-.7-6.9c.1-.1 7.2-.1 7.2-.1zm-47 .3h7.3v13.1l-6.8.2-.3-4.4v-4.1l-.2-4.8z" fill="#b41717" stroke="#b41717" stroke-width=".25" stroke-miterlimit="10"/></svg>