<svg xmlns="http://www.w3.org/2000/svg" viewBox="0 0 100 100"><path d="M23.3 15.2H39v44C39 79.1 29.5 86 14.3 86c-3.7 0-8.5-.6-11.6-1.7l1.8-12.7c2.2.7 5 1.2 8.1 1.2 6.6 0 10.8-3 10.8-13.8V15.2h-.1zm29.4 53.5c4.1 2.2 10.8 4.3 17.5 4.3 7.2 0 11.1-3 11.1-7.7 0-4.2-3.3-6.8-11.7-9.7-11.6-4-19.3-10.5-19.3-20.7C50.3 23 60.3 14 76.7 14c8 0 13.6 1.6 17.8 3.5L91 30.1c-2.7-1.3-7.8-3.3-14.5-3.3-6.8 0-10.1 3.2-10.1 6.7 0 4.4 3.8 6.4 12.9 9.9 12.3 4.5 18 11 18 20.9 0 11.7-8.9 21.6-28 21.6-8 0-15.8-2.2-19.7-4.3l3.1-12.9z" fill="#f4de51"/></svg>