<svg xmlns="http://www.w3.org/2000/svg" viewBox="0 0 100 100"><path d="M2.3 75.6V45.4c0-2 .6-3 2.4-4C27.5 28.8 50.1 16.2 72.9 3.6 76.1 1.8 79.1 0 83.1 0c6.4.2 11.8 3.8 13.8 10 2 6 0 13.2-5.4 16.4-6 3.8-12.2 7-18.4 10.4C50.3 49.4 27.5 62 4.5 74.6c-.6.4-1 .6-2.2 1z" fill="#ed9b58"/><path d="M38.5 64c.6-.4 1.4-.8 2-1.2 7.4-4.2 14.8-8.2 22.2-12.4 1.6-1 2.8-1 4.2.4 8.4 7.8 17.2 15.4 25.6 23.2 4.6 4.2 6 9.6 4.2 15.6-1.8 5.8-6 9.2-12 10.2-4 .6-7.8-.4-10.8-3C62.1 86.2 50.5 75.6 38.7 65c.2-.2 0-.6-.2-1zm-36-29.6c0-7.4-.6-14.8.2-22C3.5 4.2 11.5-.8 20.3.2c7.4.8 13.4 8.2 12.8 16 0 .8-.6 2-1.2 2.4-9.4 5.4-19 10.6-28.6 15.8-.2 0-.4-.2-.8 0zm30.6 32.8c0 6.8.4 13.2-.2 19.4-.6 7.4-7.6 13.2-15 13.4-7.2.2-14.2-5.6-15.4-12.8-.4-2.2 0-3.6 2.2-4.8 8.6-4.6 17.2-9.4 25.8-14.2.6-.2 1.4-.6 2.6-1z" fill="#6c97d3"/></svg>