<svg xmlns="http://www.w3.org/2000/svg" viewBox="0 0 100 100"><path d="M74.8 53.6h-11v-26c0-7.6-6.2-13.8-13.8-13.8S36.2 20 36.2 27.6v26h-11v-26C25.2 13.9 36.3 2.8 50 2.8s24.8 11.1 24.8 24.8v26z" fill="#e0e2e0"/><path d="M17.9 42.1h64.3v55.2H17.9V42.1z" fill="#d8d8d8"/><path d="M49.9 42.1h32.2v55.2H49.9V42.1z" fill="#bcbcbc"/><path d="M57.5 65.4c0 2.2-1 4.2-2.5 5.6v11.8H45V71c-1.5-1.4-2.5-3.4-2.5-5.6 0-4.1 3.4-7.5 7.5-7.5s7.5 3.3 7.5 7.5z" fill="#a5a5a5"/><path d="M55 82.8h-5V57.9c4.1 0 7.5 3.4 7.5 7.5 0 2.2-1 4.2-2.5 5.6v11.8z" fill="#838483"/></svg>