<svg xmlns="http://www.w3.org/2000/svg" viewBox="0 0 100 100"><path d="M4.6 25.2h49c2.6 0 4.6-2 4.6-4.6s-2-4.6-4.6-4.6h-49C2 15.9 0 18 0 20.5s2 4.7 4.6 4.7zm0 23.4h49c2.6 0 4.6-2 4.6-4.6s-2-4.6-4.6-4.6h-49C2 39.4 0 41.4 0 44s2 4.6 4.6 4.6zm23.5 12.8H4.6C2 61.4 0 63.4 0 66c0 2.6 2 4.6 4.6 4.6h23.7c2.6 0 4.6-2 4.6-4.6-.2-2.6-2.2-4.6-4.8-4.6zm57.5-37.5c-3.3-1.7-7.9-4.3-9.6-7.9 0-1.8-1.7-3.5-3.5-3.5S69 14.2 69 16v45.8c-3.7-1.8-10.4-1.3-15.7 1.7-8.1 4.4-11.6 12.9-7.9 18.9 3.5 5.9 13.1 7 21.1 2.6 5.7-3.1 9.4-8.5 9.6-13.5V31.8c11.6 0 18.5 4.6 16.1 16.1-.6 2-1.1 4.3-2 6.1-.4.7-.4 1.5.2 2 .6.6 1.7.6 2.6-.4 4.4-4.3 7-10 7.2-15.9-.2-7.9-8-12.7-14.6-15.8z" fill="#c6f"/></svg>