<svg id="Layer_1" xmlns="http://www.w3.org/2000/svg" viewBox="0 0 100 100"><style>.st1{fill:#fff}</style><path d="M95.7 12.4h-43v75.3h43c1.6 0 2.7-1.1 2.7-2.7V15c0-1.6-1.1-2.6-2.7-2.6z" fill="#81c784"/><path class="st1" d="M90.3 47.3L79.6 58.1 68.8 47.3h8.1V31.2H58.1v-5.4h24.2v21.5h8zm-26.9 8.1L52.7 66.1l10.8 10.8 10.8-10.8-10.9-10.7z"/><path fill="#43a047" d="M58.1 98.4L1.6 87.6V12.4L58.1 1.6z"/><path class="st1" d="M30.6 31.2H17.7v37.6h8.1V55.9h4.3c4.6 0 8.1-1.1 10.8-3.5 2.7-2.4 4-5.4 4-9.1-.3-8.1-4.8-12.1-14.3-12.1zm-1.3 18.3h-3.5V37.6h3.5c4.3 0 6.7 1.9 6.7 5.9s-2.4 6-6.7 6z"/></svg>