<svg xmlns="http://www.w3.org/2000/svg" viewBox="0 0 100 100"><path d="M91.8 45.9L83.7 52 63 67.6l29 29.1V45.8l-.2.1zm-7.2-11.2v10.9l6.2-4.7-6.2-6.2zM51.4 76.4c-.8.6-1.9.6-2.8 0l-7.9-5.9L11.2 100h77.5L59.3 70.4l-7.9 6zm-36-41.7l-6.2 6.2 6.2 4.7V34.7zM50 0L37.1 13h25.8L50 0zM16.3 52.1L8.2 46l-.2-.2v50.9l29-29.1-20.7-15.5z" fill="#356fb0"/><path d="M68.4 17.1H19.9v31.5l30 22.6 30-22.6V17.1H68.4zM58.2 52.6h-28c-1.3 0-2.3-1.1-2.3-2.3 0-1.3 1-2.3 2.3-2.3h28.1c1.3 0 2.3 1 2.3 2.3s-1 2.3-2.4 2.3zm11.5-11.5H30.2c-1.3 0-2.3-1-2.3-2.3s1-2.3 2.3-2.3h39.6c1.3 0 2.3 1 2.3 2.3s-1 2.3-2.4 2.3zm0-11.5H30.2c-1.3 0-2.3-1-2.3-2.3 0-1.2 1-2.3 2.3-2.3h39.6c1.3 0 2.3 1 2.3 2.3s-1 2.3-2.4 2.3z" fill="#9cf"/></svg>