<svg id="Layer_1" xmlns="http://www.w3.org/2000/svg" viewBox="0 0 100 100"><style>.st0{fill:#0cf}</style><path class="st0" d="M4.8 61.3c0 8 20.2 14.5 45.2 14.5 24.9 0 45.1-6.5 45.2-14.5V49.8c-9.3 6.7-27.3 9.9-45.2 9.9s-35.9-3.2-45.2-10v11.6z"/><path class="st0" d="M95.2 72.3c-9.3 6.8-27.3 10-45.2 10S14.1 79 4.8 72.3v13.2c2.5 7.4 22 13 45.2 13s42.7-5.6 45.2-12.9V72.3zM4.8 38.7c0 8 20.2 14.5 45.2 14.5 24.9 0 45.1-6.5 45.2-14.5V27.2c-9.3 6.8-27.3 10-45.2 10S14.1 34 4.8 27.2v11.5z"/><path class="st0" d="M50 1.6C25 1.6 4.8 8.1 4.8 16.1S25 30.6 50 30.6s45.2-6.5 45.2-14.5S75 1.6 50 1.6zm1.5 18.2C45.5 15 34 13.7 23.4 15c3.1-2.1 6.7-3.1 11.2-3.8H38c5.2.3 9.3 1.7 13.2 3.3 7.6-3.4 18.7-.7 25.4 1.9-8.6-.9-19 0-25.1 3.4z"/></svg>