<svg xmlns="http://www.w3.org/2000/svg" viewBox="0 0 100 100"><path d="M74.2 23.9h23v15.3h-23V23.9zm0 23.7h23v15.3h-23V47.6zm0 23.3h23v15.3h-23V70.9zm-31.1 0h23v15.3h-23V70.9zm-31.2 0h23v15.3h-23V70.9zm40.2-57.1h3.3c4.9.3 8.6 1.5 12.4 3.1 7.2-3.3 17.3-.8 23.8 1.6-8.2-.8-17.8 0-23.3 3.3-5.7-4.6-16.3-5.9-26.3-4.6 2.7-2 6.1-3.1 10.1-3.4zM49.9 26c-5.9.3-10.6 2.3-13.7 4.9-9.6-4.4-26.3-2.4-32.5 3.4-.5.3-1.1.8-1 1.3 5.5-1.6 12.1-3.1 18.9-2.4 6.9.5 11.9 2.8 15.7 5.9 7-6.2 17.3-9.8 30.3-9.6-4.5-2.2-11.1-3.8-17.7-3.5zm-6.7 21.7h23V63h-23V47.7zm-31.1 0h23V63h-23V47.7z" fill="#55b767"/></svg>