<svg id="Layer_1" xmlns="http://www.w3.org/2000/svg" viewBox="0 0 100 100"><style>.st1{fill:#d3d3d3}</style><path d="M1.6 15.8v69.3l54.1 9.6V5.3L1.6 15.8z" fill="#a8a8a8"/><path class="st1" d="M98.4 26.4L68.7 51l-8.1-6.5V24h37.8v2.4z"/><path class="st1" d="M98.4 31.1L68.7 55.8l-8.1-6.6v28h37.8V31.1z"/><path d="M38.9 37.4c-2.7-3.1-6.2-4.7-10.6-4.7-4.6 0-8.4 1.6-11.2 4.9s-4.2 7.6-4.2 12.9c0 5 1.4 9.1 4.2 12.3s6.4 4.7 10.8 4.7c4.5 0 8.1-1.6 10.9-4.8 2.8-3.2 4.2-7.6 4.2-12.8 0-5.3-1.3-9.3-4.1-12.5zm-5.3 20.7c-1.4 1.9-3.3 2.8-5.7 2.8-2.2 0-4.2-1-5.6-2.9-1.5-1.9-2.1-4.6-2.1-7.8 0-3.3.8-5.9 2.1-7.9 1.4-2 3.3-3 5.8-3 2.3 0 4.2 1 5.6 2.9 1.4 1.9 2 4.6 2 8.1 0 3.3-.7 5.8-2.1 7.8z" fill="#fff"/></svg>