<svg id="Layer_1" xmlns="http://www.w3.org/2000/svg" viewBox="0 0 100 100"><style>.st2{fill:#6781b2}</style><path d="M13.2 55.7c1 .3 1.8.5 2.4.3.5-.2 1.2-.7 1.7-1.5s.7-1.3.5-1.7c-.3-.4-.8-.8-1.8-1.1l-1.5-.7-2.7 4.2c0 .2 1.4.5 1.4.5zm-7.3 3.7l-.2-.2V59l6.9-11.3c0-.2.2-.2.3-.2l5 1.8c1.5.7 2.5 1.5 3 2.7.5 1.2.2 2.5-.7 3.9-.3.5-.8 1-1.2 1.5-.5.3-1 .7-1.7 1-.7.3-1.5.5-2.2.3-.7-.2-1.7-.2-2.7-.7l-2-.8-1.8 2.9c0 .2-.2.2-.3.2.2.1-2.4-.9-2.4-.9zM26 63.5l-.2-.2v-.2l3-5c.3-.5.3-.8.3-1 0-.2-.2-.3-1-.7l-1.7-.8-3.9 6.2c0 .2-.2.2-.3.2l-2.5-1-.2-.2v-.2l6.9-11.3c0-.2.2-.2.3-.2l2.5 1 .2.2v.2l-1.7 2.7 2 .7c1.5.5 2.4 1.2 2.9 2 .3.8.3 1.8-.5 3L29 64.1c0 .2-.2.2-.3.2-.1 0-2.7-.8-2.7-.8zm10.7 1.3c1 .3 1.8.5 2.5.3s1.2-.7 1.7-1.5.7-1.3.5-1.7c-.2-.3-.7-.8-1.7-1.2l-1.5-.7-2.7 4.2 1.2.6zm-7.4 3.7l-.2-.2v-.2l7.1-11.3c0-.2.2-.2.3-.2l5.2 2c1.7.7 2.7 1.5 3 2.7.5 1.2.2 2.5-.7 3.9-.3.5-.8 1-1.2 1.5-.5.3-1 .7-1.7 1-.7.3-1.5.3-2.4.3-.7 0-1.7-.3-2.7-.7l-2-.8-1.8 2.9c0 .2-.2.2-.3.2l-2.6-1.1z" fill="#fff"/><path fill="#eaeaea" d="M50 5.2l47.2 18.9V76L50 94.8 2.8 76V24.1"/><path class="st2" d="M95.4 23.3L50 5.2l-18 7.2 45.4 18.2zM13.2 55.4c1 .3 1.8.5 2.4.3.5-.2 1.2-.7 1.7-1.5s.7-1.3.5-1.7c-.2-.5-.7-.8-1.7-1.2l-1.5-.7-2.7 4.2c-.1.3 1.3.6 1.3.6zm26 9.5c.7-.2 1.2-.7 1.7-1.5s.7-1.3.5-1.7c-.2-.3-.7-.8-1.7-1.2l-1.5-.7-2.7 4.2 1.2.5c1 .4 1.9.5 2.5.4z"/><path class="st2" d="M2.8 76l45.9 18.3V43.8L2.8 25.5V76zm33.7-19.6l5.2 2c1.7.7 2.7 1.5 3 2.7.5 1.2.2 2.5-.7 3.9-.3.5-.8 1-1.2 1.5-.5.3-1 .7-1.7 1-.7.3-1.5.3-2.4.3-.7 0-1.7-.3-2.7-.7l-2-.8-1.8 2.9c0 .2-.2.2-.3.2l-2.7-1.2-.1-.2v-.2l7.1-11.3c0-.1.2-.1.3-.1zm-9.7-7.5l2.5 1 .2.2v.2L27.8 53l2 .7c1.5.5 2.4 1.2 2.9 2 .3.8.3 1.8-.5 3L29 63.8c0 .2-.2.2-.3.2l-2.7-.8-.2-.2v-.2l3-5c.3-.5.3-.8.3-1 0-.2-.2-.3-1-.7l-1.7-.8-3.9 6.2c0 .2-.2.2-.3.2l-2.5-1-.2-.2v-.2l7-11.3c0-.1.1-.1.3-.1zm-21 9.9l6.9-11.3c0-.2.2-.2.3-.2l5 1.8c1.5.7 2.5 1.5 3 2.7.5 1.2.2 2.5-.7 3.9-.3.5-.8 1-1.2 1.5-.5.3-1 .7-1.7 1-.7.3-1.5.5-2.2.3-.7-.2-1.7-.2-2.7-.7l-2-.8-1.7 3c0 .2-.2.2-.3.2l-2.5-1-.2-.2v-.2zm14.9-41.9L4.6 23.3 50 41.5l16.1-6.4zm58.6 15.7v14.3l-1.9-1.2-1.8 2.7-2.1-1.2-1.8 2.7-1.9-1.2-1.8 2.7V37.1l-16.7 6.7v50.5L97.2 76V25.5z"/></svg>