<svg xmlns="http://www.w3.org/2000/svg" viewBox="0 0 100 100"><path d="M90.3 3.5S54.9 4 32.1 32.7c-1.3 1.6-2.6 3.3-3.6 4.9-.8.9-1.5 10.8-1.5 10.8s-.9-.7-1.3-1.8c-.7-1.5-.9-3.3-.9-3.3C12 64.1 15.7 75 15.7 75c-.9 2.6-3.1 3.8-5.7 9.5-2.7 5.7-2.6 11.1-2.6 11.1 0 1.1.4 1.1.9.2 0 0 2.9-5.5 5.3-9.3 1.5-2.4 6-8 6-8s7.3.4 16.2-2c-.7-.4-3.3-.9-4.9-1.8-1.6-.9-2.6-2-2.6-2L60 65.4c4.4-2.6 8.4-6 11.7-9.9C88.5 35.4 92.5 5.1 92.5 5.1c-.3-.9-1.1-1.6-2.2-1.6zM58.8 35.3S44 48.3 36.7 55.4c-7.3 6.9-17.2 23.4-17.2 23.4L15.7 75s2.7-6.8 13.5-19.9 29-21 29-21c2.2-1.2 2.6-.7.6 1.2z" fill="#ef712f"/></svg>