<svg xmlns="http://www.w3.org/2000/svg" viewBox="0 0 100 100"><path d="M4.5 93.2l11.9-22.1c-4-6.6-5.9-14.1-5.9-21.7-.1-23.5 19-42.6 42.5-42.6s42.5 19 42.5 42.4-19 42.6-42.5 42.6c-9.3 0-18.2-2.9-25.6-8.6l-22.9 10zm23.6-14.4l.9.8c6.8 5.5 15.2 8.5 23.9 8.5 21.3 0 38.5-17.4 38.5-38.5S74.3 10.7 53 10.7 14.3 28 14.3 49.3c0 7.4 2.1 14.5 5.9 20.5l.7.9L13.4 85l14.7-6.2z" fill="#9666ff" stroke="#9666ff" stroke-width="4" stroke-miterlimit="10"/><path d="M74.3 50L42.2 31.4v37.2L74.3 50z" fill="#9666ff" stroke="#9666ff" stroke-miterlimit="10"/></svg>