<svg xmlns="http://www.w3.org/2000/svg" viewBox="0 0 100 100"><path d="M0 7.5h15.5v12.3H0V7.5zm20.5 0v85h59.2v-85H20.5zm14.4 18.9c.5 0 1 .1 1.4.4l15 10.6 15 10.6c1.2.8 1.5 2.6.8 3.9-.2.4-.5.7-.8.9l-15 10.6-15 10.6c-1.2.8-2.7.4-3.4-.9-.3-.5-.4-1-.4-1.5V29.2c0-1.5 1-2.7 2.4-2.8zM84.8 7.5H100v12.3H84.8V7.5zM0 25.4h15.5V38H0V25.4zm84.8 0H100V38H84.8V25.4zM0 43.7h15.5v12.6H0V43.7zm84.8 0H100v12.6H84.8V43.7zM0 61.9h15.5v12.6H0V61.9zm84.8 0H100v12.6H84.8V61.9zM0 80.1h15.5v12.3H0V80.1zm84.8 0H100v12.3H84.8V80.1z" fill="#6ae5b9"/></svg>