<svg id="Layer_1" xmlns="http://www.w3.org/2000/svg" viewBox="0 0 100 100"><style>.st0{fill:#ff9800}</style><path class="st0" d="M84.8 84.8S62.4 77.3 50 77.3s-34.8 7.5-34.8 7.5 7.5-24.9 7.5-34.8-7.5-34.8-7.5-34.8 22.4 7.5 34.8 7.5 34.8-7.5 34.8-7.5-7.4 24.9-7.4 34.8 7.4 34.8 7.4 34.8z"/><path class="st0" d="M97.2 50S76.8 61.9 69.3 69.3 50 97.2 50 97.2 39.4 78 30.7 69.3 2.8 50 2.8 50s20.4-11.9 27.9-19.3S50 2.8 50 2.8s11.9 20.4 19.3 27.9S97.2 50 97.2 50z"/><path d="M25.1 50c0 13.7 11.1 24.9 24.9 24.9S74.9 63.7 74.9 50 63.7 25.1 50 25.1 25.1 36.3 25.1 50" fill="#ffeb3b"/><path d="M49.8 24.7c-.6 0-1.2 0-1.9.1 12.9.9 23 11.7 23 24.8 0 13.1-10.2 23.9-23 24.8.6 0 1.2.1 1.9.1 13.7 0 24.9-11.1 24.9-24.9 0-13.7-11.1-24.9-24.9-24.9z" fill="#ffca00"/></svg>