<svg xmlns="http://www.w3.org/2000/svg" viewBox="0 0 100 100"><path d="M86.4 2.2c-4.3-3.8-9.5-2.3-14.6 2.3-.8.7-1.5 1.4-2.3 2.2-1.2 1.3-2.4 2.7-3.5 4.2-1.2-.5-2.5-.8-3.9-.8H19.5c-5.6 0-10.2 4.6-10.2 10.2v42.6c0 5.6 4.6 10.2 10.2 10.2h30c.4 2 .6 3.4.6 3.4s0 .4.1.9c-.2 3.8-.1 7.8.2 11.4.4 4.8 1.1 8.9 2.1 11.1l.6-.3c-1.4-4.3-2-10-1.7-16.5.4-10 2.7-22 6.9-34.6 7.2-19 17.1-34.2 26.3-41.4-8.4 7.5-19.6 31.8-23 40.8-3.8 10.1-6.4 19.5-8.1 28.6 2.8-8.5 11.8-12.1 11.8-12.1s4.4-5.4 9.6-13.2c-3.1.7-8.1 1.9-9.8 2.6-2.5 1.1-3.2 1.4-3.2 1.4S70 50.3 77 48c9.4-15.1 19.9-36.5 9.4-45.8zM50 46.4c1 2 1.8 4.6 2.3 6.5.1.5.2 1 .3 1.4.2.9.3 1.6.3 1.6l-.4-1.2c-.1-.2-.1-.4-.2-.6 0-.1-.1-.2-.1-.3-.6-1.3-2.2-4.1-2.9-5.4-.6 1.8-1.1 3.4-1.6 4.9 2 3.7 3.2 10 3.2 10s-.1-.4-.6-1.8c-.4-1.3-2.7-5.2-3.2-6.1-.9 3.3-1.3 5.6-.9 6.2.5.8.9 2.1 1.4 3.5H19.5c-1.1 0-2.1-.9-2.1-2.1V20.3c0-1.1.9-2.1 2.1-2.1H61c-5.2 8.9-9.3 19.5-11 28.2z" fill="#0cf"/></svg>