<svg xmlns="http://www.w3.org/2000/svg" viewBox="0 0 100 100"><path d="M89.1 50.9c-1.2-.5-2.7 0-3.2 1.2-2.7 6.1-6.9 11.4-12.3 15.5L57.4 34.7c2.5-2 3.9-4.8 3.9-8.2 0-5.2-3.6-9.4-8.5-10.3V8c0-1.2-.9-2.5-2.5-2.5-1.2 0-2.5.9-2.5 2.5v8.2c-4.8.9-8.5 5.3-8.5 10.3 0 3.4 1.4 6.2 3.9 8.2L27 67.6c-5.3-4.1-9.6-9.3-12.3-15.5-.5-1.2-2-1.8-3.2-1.2-1.2.5-1.8 2-1.2 3.2 3.2 7.3 8.2 13 14.6 17.6l-9.6 19.4c-.5 1.2 0 2.7.9 3.2.2 0 .7.2.9.2.7 0 1.8-.5 2.1-1.2l9.3-18.9c6.6 3.6 13.5 5.3 21 5.3s14.6-2 21-5.3l9.3 18.9c.2.7 1.2 1.2 2.1 1.2.2 0 .7 0 .9-.2 1.2-.5 1.8-2 .9-3.2l-9.4-19.4c6.2-4.3 11.4-10.7 14.6-17.6 1.6-1.3 1.1-2.7.2-3.2zM50.3 20.5c3.4 0 6.1 2.7 6.1 6.1s-2.7 6.1-6.1 6.1-6.1-2.7-6.1-6.1 3.1-6.1 6.1-6.1zm0 54.6c-6.8 0-13-1.8-18.9-4.8l16.4-33.1c.7.2 1.8.2 2.7.2s1.8 0 2.7-.2l16.6 33.1c-6.1 3.2-12.7 4.8-19.5 4.8z" fill="#4992c4" stroke="#4992c4" stroke-width="3" stroke-miterlimit="10"/></svg>