<svg xmlns="http://www.w3.org/2000/svg" viewBox="0 0 100 100"><path d="M92.7 83.2L61.5 52l-.9-.9 5.6-5.8.9-.9c7.3 2.8 15.9 1.2 21.8-4.7 4.4-4.4 6.5-10.3 5.9-16.4 0-.7-.5-1.2-1.2-1.6-.7-.2-1.4 0-1.9.3l-9.9 9.9-10.1-2.6L68.8 19l9.9-9.9c.5-.5.7-1.2.3-1.9-.2-.7-.9-1-1.6-1.2-6.1-.5-12 1.6-16.4 5.9-5.9 5.9-7.5 14.5-4.7 21.8-.3.2-.5.5-.9.9l-8.2 7.8-14.7-14.6-.5-.6c.2-.3.3-.7.5-.9 3.1.5 8.9-5.6 13.8-10.5L32 1.6c-6.5 6.5-11 10.6-10.5 13.8-1.4.7-2.8 1.6-3.7 2.4l-2.1 2.1c-1.2 1.2-2.1 3-2.4 4.7-.2.2-.3.5-.5.7l-.7.9s0 .2-.2.2l-.5 1c-.3.5-.9 1.2-1.2 1.7-.2.2-.3.5-.3.7v.2l-.3.5-1 2.1v.2c-.3.9-.7 1.9-1 2.8l-.2.5c-.2.3-.2.7-.3 1l-.3 1.4c-.2.9-.3 1.7-.3 2.4v.5c-.2.7 0 1.6 0 2.1v2.1l.2 1c0 .2 0 .3.2.7 0 .5.2.9.3 1.4l.7 2.6c.2.7.9 1.2 1.7 1.2.3 0 .9-.2 1-.5.2-.2.3-.5.5-1l.3-2.6c0-.2.2-.5.2-.9 0-.2.2-.5.2-.7l.3-1c0-.2.2-.2.2-.3 0-.2.2-.2.2-.3.2-.2.2-.3.2-.7.2-.3.3-.9.5-1.2.2-.2.2-.3.3-.5.2-.5.5-.9.7-1.2l.7-.9c.2-.2.3-.3.3-.5l.3-.3c.3-.5.9-.9 1.2-1.2l.2-.2c.3-.3.7-.5 1-.9.2-.2.3-.2.5-.3.2-.2.3-.2.5-.3.3-.2.7-.3 1-.7l.7-.3.7-.3c.3-.2.5-.2.7-.3.2 0 .3-.2.3-.2.2 0 .3-.2.3-.2.2 0 .3-.2.5-.2h.2c.2.3.5.7.9 1L39 50.6 7.9 80.8c-3.8 3.8-4.5 9.6-.7 13.6 3.8 3.8 9.2 3 13.3-1L48.4 64l.5.5 31.2 31.2c3.5 3.5 9.2 3.5 12.7 0 3.4-3.4 3.4-9-.1-12.5zm-76.2 7c-1.4 1.4-3.8 1.4-5.2 0-1.4-1.4-1.4-3.8 0-5.2 1.4-1.4 3.8-1.4 5.2 0 1.4 1.4 1.4 3.8 0 5.2z" fill="#bababa"/></svg>