<svg xmlns="http://www.w3.org/2000/svg" viewBox="0 0 100 100"><path d="M91.8 77c-.5 2.1-1.9 3.5-3.5 5.1-21.4 22.3-58.3 18.1-73.7-8.6-4.2-7.2-6.5-14.6-6.3-23 .5-10.3 3.8-19.4 10.3-27.5 7.7-9.8 17.4-16.3 30-18.3 3-.5 6-.7 9.1-1.2v8.6l-6.3.7c-17.6 2.6-32.5 17.4-33.7 34.6C17 58.1 19.8 67.7 27 76c2.8 3.5 6 6.5 10 8.4 1.2.5 2.6.7 3.7.9C29.6 78.8 23.2 69 21 56.5c-1.4-8.4.2-16.5 5-23.7 11.8-18.3 32.5-21.4 46.7-15.3-1.2 2.6-2.3 5.1-3.5 7.4-2.8-.5-5.6-1.4-8.4-1.4-8.1-.5-15.3 1.4-21.4 7.2-15.3 14.2-11.4 36 3.5 45.6 4.6 3.3 9.8 5.6 15.3 6.7 1.4.5 2.8 0 4.4-.2-.2-.2-.5-.2-.7-.2-7-1.4-13.5-3.7-19-8.6s-9.7-10.9-10.4-18.6c-.8-10.8 3.5-19.6 12.8-25.2 8.1-5.1 16.7-5.1 25.3-.9 4.9 2.3 8.4 6 11.1 10.7-2.6 1.4-4.9 2.6-7.2 3.7-2.1-2.1-3.9-4.4-6.3-5.8-10.9-7.4-26.1-.5-27.4 13.2-.5 6.7 2.3 11.8 7 16.5 5.6 5.1 12.3 7 19.7 7.9 7.2.9 14.4.7 21.6-.2 1.4-.2 2.1.7 2.6 1.9.1-.3.1-.2.1-.2z" fill="#8383a6"/></svg>