<svg xmlns="http://www.w3.org/2000/svg" viewBox="0 0 100 100"><path d="M17.3 64v-2.4c5.7 0 8.6-2.5 8.6-7.4V17.3c0-2-1.3-3-3.9-3-3.5 0-6.4 1.1-8.6 3.4C11.2 20 9.5 23.5 8.5 28L6 27.4l2.2-17c1.2.2 2.4.3 3.5.4 1.1.1 2.1.2 3.2.2h30.8c1.1 0 2.3-.1 3.4-.2 1.2-.1 2.4-.2 3.6-.4v16.7l-2.2.3c-.6-8.5-4.9-12.8-12.7-12.8-2.7 0-4 .9-4 2.7v36.9c0 4.9 2.9 7.4 8.6 7.4V64H17.3z" fill="#90c9c4" stroke="#90c9c4" stroke-miterlimit="10"/><path d="M58.6 89.6v-2.4c5.7 0 8.6-2.5 8.6-7.4V43c0-2-1.3-3-3.9-3-3.5 0-6.4 1.1-8.6 3.4-2.2 2.3-3.8 5.7-4.9 10.3l-2.5-.6 2.2-17c1.2.2 2.4.3 3.5.4 1.1.1 2.1.2 3.2.2H87c1.1 0 2.3-.1 3.4-.2 1.2-.1 2.4-.2 3.6-.4v16.7l-2.2.3c-.6-8.5-4.9-12.8-12.7-12.8-2.7 0-4 .9-4 2.7v36.9c0 4.9 2.9 7.4 8.6 7.4v2.4H58.6z" fill="#4fa39a" stroke="#4fa39a" stroke-miterlimit="10"/></svg>