<svg id="Layer_1" xmlns="http://www.w3.org/2000/svg" viewBox="0 0 100 100"><style>.st0{fill:#c6f}</style><path class="st0" d="M43.2 34.8l15.6 10.3V8.9L43.2 19.3v-5.2c0-2.9-2.3-5.2-5.2-5.2H6.8c-2.9 0-5.2 2.3-5.2 5.2v26c0 2.9 2.3 5.2 5.2 5.2h31.1c2.9 0 5.2-2.3 5.2-5.2v-5.3h.1zm24.1 9.6V60c0 5.8 4.7 10.3 10.3 10.3 5.8 0 10.3-4.7 10.3-10.3V44.4c0-5.8-4.7-10.3-10.3-10.3s-10.3 4.6-10.3 10.3z"/><path class="st0" d="M93.2 60c0 8.6-6.9 15.6-15.6 15.6S61.9 68.7 61.9 60h-5.2c0 9.7 6.6 17.7 15.6 20v11.1h10.3V80c8.9-2.3 15.6-10.3 15.6-20h-5z"/></svg>