<svg id="Layer_1" xmlns="http://www.w3.org/2000/svg" viewBox="0 0 100 100"><style>.st0{fill:#84bfce;stroke:#84bfce;stroke-width:3;stroke-miterlimit:10}</style><path class="st0" d="M61.7 7.1h34.8v5.5H61.7V7.1zm0 19.8h34.8v5.4H61.7v-5.4zM3.5 67.4h93v5.5h-93v-5.5zm0 20h93v5.5h-93v-5.5z"/><path d="M19.5 37.8l-8.2-25.5c-.3-1-.5-1.4-.7-1.4-.2-.2-.3-.2-.5-.3l-3-.9-.2-3.6h15.4l.3 3.7-3 .9v.3c0 .3.2 1 .5 1.7l3.1 9.8L28.7 6l4.2-.2L38 22.2l3.5-9.8c.2-.7.5-1.4.5-1.7v-.2l-2.5-.7-.1-3.8h12.1l.3 3.7-3.2 1c-.2 0-.3.2-.5.2 0 .2-.3.3-.5 1.2l-9.1 25.4-4.5.2L29.4 22l-5.5 15.4-4.4.4z" fill="#84bfce"/><path class="st0" d="M4.5 47h93v5.5h-93V47z"/></svg>