<svg width="36pt" height="36pt" version="1.1" viewBox="0 0 36 36" xmlns="http://www.w3.org/2000/svg"><defs><clipPath><rect width="36" height="36"/></clipPath><clipPath><rect width="36" height="36"/></clipPath></defs><g transform="translate(-7.5e-5,2e-4)"><path d="m4.7148 3c-0.85938 0-1.7148 0.85547-1.7148 1.7148v26.617c0 0.8125 0.85547 1.668 1.668 1.668h26.664c0.8125 0 1.668-0.85547 1.668-1.668v-26.664c0-0.8125-0.85938-1.668-1.668-1.668z" fill="#bc9676"/><path d="M 4.7148,3 C 3.85542,3 3,3.85547 3,4.7148 V 13 H 33 V 4.668 C 33,3.8555 32.14062,3 31.332,3 Z" fill="#fff" fill-opacity=".19608"/><path d="m15.5 6.332v13.336h5v-13.336z" fill="#fff" fill-opacity=".39216"/><g stroke-width="1.3333"><path transform="scale(.75)" d="m4 39.775v2c0 1.0833 1.1413 2.2246 2.2246 2.2246h35.551c1.0833 0 2.2246-1.1413 2.2246-2.2246v-2c0 1.0833-1.1413 2.2246-2.2246 2.2246h-35.551c-1.0833 0-2.2246-1.1413-2.2246-2.2246z" opacity=".3"/><path transform="scale(.75)" d="M 6.2871,4 C 5.1413,4 4,5.1413 4,6.2871 v 2 C 4,7.1413 5.1413,6 6.2871,6 h 35.488 c 1.0781,0 2.2246,1.1413 2.2246,2.2246 v -2 C 43.9997,5.1413 42.8532,4 41.7751,4 Z" fill="#fff" opacity=".2"/></g></g></svg>
