<svg xmlns="http://www.w3.org/2000/svg" width="36pt" height="36pt" version="1.1" viewBox="0 0 36 36"> <g> <path style="fill:rgb(90.196%,90.196%,90.196%);stroke-width:0.25;stroke:rgb(80.000%,80.000%,80.000%)" d="M 24 4 C 12.953125 4 4 12.953125 4 24 C 4 35.046875 12.953125 44 24 44 C 35.046875 44 44 35.046875 44 24 C 44 12.953125 35.046875 4 24 4 Z M 24 18.546875 C 27.010417 18.546875 29.453125 20.989583 29.453125 24 C 29.453125 27.010417 27.010417 29.453125 24 29.453125 C 20.989583 29.453125 18.546875 27.010417 18.546875 24 C 18.546875 20.989583 20.989583 18.546875 24 18.546875 Z M 24 18.546875" transform="matrix(0.75,0,0,0.75,0,0)"/> <path style="fill:rgb(100.000%,100.000%,100.000%);stroke-width:0.442773;stroke:rgb(90.196%,90.196%,90.196%)" d="M 24 15.463542 C 19.286458 15.463542 15.463542 19.286458 15.463542 24 C 15.463542 28.713542 19.286458 32.536458 24 32.536458 C 28.713542 32.536458 32.536458 28.713542 32.536458 24 C 32.536458 19.286458 28.713542 15.463542 24 15.463542 Z M 24 19.46875 C 26.5 19.46875 28.53125 21.5 28.53125 24 C 28.53125 26.5 26.5 28.53125 24 28.53125 C 21.5 28.53125 19.46875 26.5 19.46875 24 C 19.46875 21.5 21.5 19.46875 24 19.46875 Z M 24 19.46875" transform="matrix(0.75,0,0,0.75,0,0)"/> </g> </svg>
