<svg width="36pt" height="36pt" version="1.1" viewBox="0 0 36 36" xmlns="http://www.w3.org/2000/svg"><defs><clipPath><rect width="384" height="384"/></clipPath><clipPath><rect width="384" height="384"/></clipPath><clipPath><rect width="384" height="384"/></clipPath><clipPath><rect width="384" height="384"/></clipPath><linearGradient id="b" x1="165.12" x2="267.84" y1="53.815" y2="394.13" gradientTransform="matrix(.75386 0 0 .69848 -.94825 5.2909)" gradientUnits="userSpaceOnUse"><stop stop-color="#262933" offset="0"/><stop stop-color="#4b4b4b" offset="1"/></linearGradient><clipPath id="a"><rect width="384" height="384"/></clipPath></defs><g transform="matrix(.0973 0 0 .0973 -.68143 -.68155)"><path d="m30.965 56.234h321.93c4.6875 0 8.4844 3.8008 8.4844 8.4844v130.03c0 4.6875-3.7969 8.4844-8.4844 8.4844h-321.93c-4.6875 0-8.4883-3.7969-8.4883-8.4844v-130.03c0-4.6836 3.8008-8.4844 8.4883-8.4844z" fill="#5f626d"/><path d="m82.832 56.012c-11.992 0-21.926 0.11719-22.07 0.26172-0.14844 0.14453 4.7852 5.2812 10.961 11.414l11.23 11.102-0.10156 12.082-0.10156 12.031-60.238 0.19531v28.348c-0.02734 0.0781-0.06641 0.15234-0.08984 0.23438v191.89c0.77734 2.3945 2.9023 4.1641 5.4844 4.4141h327.86c3.2695-0.31641 5.8086-3.0664 5.8086-6.4336v-187.85c0-0.29297-0.0234-0.58203-0.0625-0.86328l-0.20703-66.977c0-4.8359-1.9805-9.4883-9.0664-9.5664l-17.25-0.19141c-9.7852-0.10937-15.492-0.02734-15.793 0.26953-0.30469 0.30469 2.5117 3.3242 10.488 11.234 6 5.9492 11.031 11.023 11.18 11.184 0.15234 0.16016-5.1836 5.6328-11.855 12.258l-12.133 12.047h-15.094c-10.527 0-15.168-0.125-15.348-0.41406-0.14844-0.23828 4.8711-5.5039 11.844-12.426l12.098-11.465-10.629-11.125c-5.8477-5.8164-11.094-10.82-11.656-11.113-0.83594-0.44141-3.6641-0.53906-15.273-0.53906-10.137 0-14.328 0.12109-14.516 0.42188-0.15625 0.25391 4.1445 4.7969 10.609 11.207 5.9805 5.9297 10.996 10.988 11.145 11.148 0.15234 0.16016-5.1836 5.6328-11.855 12.258l-12.133 12.047h-15.094c-10.527 0-15.168-0.125-15.348-0.41406-0.14844-0.23828 4.8711-5.5039 11.844-12.426l12.098-11.465-10.629-11.125c-5.8477-5.8164-11.094-10.82-11.656-11.113-0.83594-0.44141-3.6641-0.53906-15.273-0.53906-10.137 0-14.328 0.12109-14.516 0.42188-0.15625 0.25391 4.1445 4.7969 10.609 11.207 5.9805 5.9297 10.996 10.988 11.145 11.148 0.15234 0.16016-5.1836 5.6328-11.855 12.258l-12.133 12.047h-15.094c-10.527 0-15.168-0.125-15.348-0.41406-0.14844-0.23828 4.8711-5.5039 11.844-12.426l12.191-11.465-10.723-11.125c-5.8477-5.8164-11.094-10.82-11.656-11.113-0.83594-0.44141-3.6641-0.53906-15.273-0.53906-10.137 0-14.328 0.12109-14.516 0.42188-0.15625 0.25391 4.1445 4.7969 10.609 11.207 5.9805 5.9297 10.996 10.988 11.145 11.148 0.15234 0.16016-5.1836 5.6328-11.855 12.258l-12.133 12.047h-15.094c-10.527 0-15.168-0.125-15.348-0.41406-0.14844-0.23828 4.8711-5.5039 11.844-12.426l12.098-11.465-10.629-11.125c-5.8477-5.8164-11.094-10.82-11.656-11.113-0.85547-0.44922-4.6758-0.53906-22.836-0.53906z" fill="url(#b)"/><path d="m22.422 211.36v112.23c0.78516 2.4023 2.9336 4.1719 5.543 4.3984h327.75c3.2969-0.28906 5.8633-3.0352 5.8633-6.4102v-110.21z" fill="#4b4b4b"/><path transform="scale(.75)" d="m482.1 418.77c0 4.5-3.4206 8.1615-7.8164 8.5469h-437c-3.4792-0.30208-6.3438-2.6621-7.3906-5.8652v10c1.0469 3.2031 3.9115 5.5632 7.3906 5.8652h437c4.3958-0.38541 7.8164-4.0469 7.8164-8.5469z" fill="#080000" opacity=".3" stroke-width="1.3333"/><path d="m30.978 56.279c-4.6875 0-8.4888 3.8008-8.4888 8.4844v14.338h338.91v-14.338c0-1.9908-0.69104-3.8184-1.8398-5.2661-0.57219-0.77931-1.3069-1.4504-2.2339-1.9717-1.2862-0.7857-2.7926-1.2466-4.4106-1.2466z" opacity=".3"/><g fill="#000000ff" opacity=".3"><path d="m100.87 178.56c1.6953-7.8047 8.6211-13.633 16.906-13.617l99.992 0.15625c9.5469 0.0195 17.285 7.7656 17.266 17.312l-0.0312 31.738 48.633-35.551-0.12891 70.055-48.547-33.801-0.0156 29.859c0.0312 9.5781-7.7578 17.32-17.305 17.301l-99.996-0.15234c-4.7734-0.0156-8.8477-1.7031-12.219-5.0664-3.3789-3.3867-5.0625-7.4844-5.0508-12.285l0.0898-56.527z"/></g><g clip-path="url(#a)" fill="#000000ff" opacity=".3"><path d="m100.87 173.48c1.6953-7.8047 8.6211-13.633 16.906-13.617l99.992 0.15625c9.5469 0.0195 17.285 7.7656 17.266 17.312l-0.0312 31.738 48.633-35.551-0.12891 70.055-48.547-33.801-0.0156 29.859c0.0312 9.5742-7.7578 17.32-17.305 17.301l-99.996-0.15234c-4.7734-0.0156-8.8477-1.7031-12.219-5.0664-3.3789-3.3906-5.0625-7.4844-5.0508-12.285l0.0898-56.527z"/></g></g></svg>
