<svg xmlns="http://www.w3.org/2000/svg" width="36pt" height="36pt" version="1.1" viewBox="0 0 36 36"> <g> <path style="fill:rgb(74.117%,59.215%,46.666%)" d="M 6 0.75 C 5.230469 0.75 4.5 1.480469 4.5 2.25 L 4.5 33.75 C 4.5 34.480469 5.269531 35.25 6 35.25 L 30 35.25 C 30.730469 35.25 31.5 34.480469 31.5 33.75 L 31.5 10.5 L 21.75 0.75 Z M 6 0.75"/> <path style="fill:rgb(0%,0%,0%);fill-opacity:0.196078" d="M 21.75 9 L 21.796875 9.046875 L 21.914062 9 Z M 23.25 10.5 L 31.5 18.75 L 31.5 10.5 Z M 23.25 10.5"/> <path style="fill:rgb(100.000%,100.000%,100.000%);fill-opacity:0.392157" d="M 21.75 0.75 L 31.5 10.5 L 23.25 10.5 C 22.519531 10.5 21.75 9.730469 21.75 9 Z M 21.75 0.75"/> <path style="fill:rgb(100.000%,100.000%,100.000%)" d="M 12.761719 13.15625 C 11.96875 13.15625 10.765625 14.722656 11.394531 15.28125 L 14.667969 18.210938 C 14.792969 17.960938 14.953125 17.707031 15.171875 17.46875 C 15.414062 17.207031 15.644531 17.039062 15.859375 16.894531 L 13.390625 13.625 C 13.132812 13.347656 13.089844 13.15625 12.761719 13.15625 Z M 18.792969 16.878906 C 18.621094 16.878906 18.441406 16.882812 18.269531 16.890625 C 17.554688 16.894531 16.808594 17.015625 16.144531 17.257812 C 15.671875 17.644531 15.34375 18.066406 15.03125 18.574219 C 14.402344 20.304688 15.148438 23.21875 17.890625 23.898438 C 21 24.660156 21.167969 23.835938 22.5 24.746094 C 23.835938 25.65625 23.085938 27.035156 23.722656 26.652344 C 24.046875 26.460938 25.082031 25.007812 24.695312 22.644531 C 24.28125 20.109375 23.195312 18.761719 22.105469 17.839844 C 21.257812 17.121094 20.003906 16.878906 18.792969 16.878906 Z M 18.792969 16.878906"/> </g> </svg>
