<svg xmlns="http://www.w3.org/2000/svg" width="36pt" height="36pt" version="1.1" viewBox="0 0 36 36"> <g> <path style="fill:rgb(30.980%,78.431%,80.784%);fill-opacity:0.996078" d="M 12.75 7.5 L 12.75 19.777344 C 12.277344 19.605469 11.78125 19.5 11.25 19.5 C 8.765625 19.5 6.75 21.515625 6.75 24 C 6.75 26.484375 8.765625 28.5 11.25 28.5 C 13.734375 28.5 15.75 26.484375 15.75 24 L 15.75 10.5 L 26.25 10.5 L 26.25 19.777344 C 25.777344 19.605469 25.28125 19.5 24.75 19.5 C 22.265625 19.5 20.25 21.515625 20.25 24 C 20.25 26.484375 22.265625 28.5 24.75 28.5 C 27.234375 28.5 29.25 26.484375 29.25 24 L 29.25 7.5 Z M 12.75 7.5"/> <path style="fill:rgb(100.000%,100.000%,100.000%);fill-opacity:0.2" d="M 12.75 7.5 L 12.75 8.25 L 29.25 8.25 L 29.25 7.5 Z M 11.25 19.5 C 8.765625 19.5 6.75 21.515625 6.75 24 C 6.75 24.125 6.757812 24.25 6.769531 24.375 C 6.960938 22.066406 8.894531 20.25 11.25 20.25 C 11.78125 20.25 12.277344 20.355469 12.75 20.527344 L 12.75 19.777344 C 12.277344 19.605469 11.78125 19.5 11.25 19.5 Z M 24.75 19.5 C 22.265625 19.5 20.25 21.515625 20.25 24 C 20.25 24.125 20.257812 24.25 20.269531 24.375 C 20.460938 22.066406 22.394531 20.25 24.75 20.25 C 25.28125 20.25 25.777344 20.355469 26.25 20.527344 L 26.25 19.777344 C 25.777344 19.605469 25.28125 19.5 24.75 19.5 Z M 24.75 19.5"/> <path style="fill:rgb(0%,0%,0%);fill-opacity:0.2" d="M 15.75 9.75 L 15.75 10.5 L 26.25 10.5 L 26.25 9.75 Z M 15.75 23.25 C 15.75 25.734375 13.734375 27.75 11.25 27.75 C 8.894531 27.75 6.960938 25.933594 6.769531 23.625 C 6.757812 23.75 6.75 23.875 6.75 24 C 6.75 26.484375 8.765625 28.5 11.25 28.5 C 13.734375 28.5 15.75 26.484375 15.75 24 Z M 29.25 23.25 C 29.25 25.734375 27.234375 27.75 24.75 27.75 C 22.394531 27.75 20.460938 25.933594 20.269531 23.625 C 20.257812 23.75 20.25 23.875 20.25 24 C 20.25 26.484375 22.265625 28.5 24.75 28.5 C 27.234375 28.5 29.25 26.484375 29.25 24 Z M 29.25 23.25"/> </g> </svg>
