<svg xmlns="http://www.w3.org/2000/svg" width="36pt" height="36pt" version="1.1" viewBox="0 0 36 36"> <g> <path style="fill:rgb(74.117%,59.215%,46.666%)" d="M 6 0.75 C 5.230469 0.75 4.5 1.480469 4.5 2.25 L 4.5 33.75 C 4.5 34.480469 5.269531 35.25 6 35.25 L 30 35.25 C 30.730469 35.25 31.5 34.480469 31.5 33.75 L 31.5 10.5 L 21.75 0.75 Z M 6 0.75"/> <path style="fill:rgb(0%,0%,0%);fill-opacity:0.196078" d="M 21.75 9 L 21.796875 9.046875 L 21.914062 9 Z M 23.25 10.5 L 31.5 18.75 L 31.5 10.5 Z M 23.25 10.5"/> <path style="fill:rgb(100.000%,100.000%,100.000%);fill-opacity:0.392157" d="M 21.75 0.75 L 31.5 10.5 L 23.25 10.5 C 22.519531 10.5 21.75 9.730469 21.75 9 Z M 21.75 0.75"/> <path style="fill:rgb(100.000%,100.000%,100.000%)" d="M 17.566406 11.613281 C 16.269531 12.023438 17.40625 13.949219 15.550781 14.894531 C 13.4375 15.972656 12.382812 13.25 11.113281 15.195312 C 9.839844 17.136719 12.863281 16.839844 12.78125 19.125 C 12.695312 21.410156 9.703125 20.925781 10.824219 22.941406 C 11.949219 24.960938 13.199219 22.3125 15.230469 23.519531 C 17.261719 24.726562 15.316406 26.964844 17.710938 27.039062 C 20.109375 27.117188 18.328125 24.765625 20.449219 23.6875 C 22.5625 22.609375 23.617188 25.332031 24.886719 23.390625 C 26.160156 21.449219 23.136719 21.746094 23.21875 19.460938 C 23.304688 17.175781 26.296875 17.660156 25.175781 15.640625 C 24.050781 13.621094 22.800781 16.269531 20.769531 15.0625 C 18.738281 13.855469 20.683594 11.621094 18.289062 11.542969 C 17.988281 11.535156 17.75 11.550781 17.566406 11.613281 Z M 17.585938 17.433594 C 18.660156 17.214844 19.707031 17.871094 19.933594 18.898438 C 20.160156 19.921875 19.480469 20.933594 18.414062 21.152344 C 17.339844 21.367188 16.292969 20.714844 16.066406 19.6875 C 15.839844 18.664062 16.519531 17.652344 17.585938 17.433594 Z M 17.585938 17.433594"/> </g> </svg>
