<svg id="Layer_1" xmlns="http://www.w3.org/2000/svg" viewBox="0 0 100 100"><style>.st6{fill:#7f838c}</style><path d="M90 20H45L35 10H10C4.5 10 0 14.5 0 20v20h100V30c0-5.5-4.5-10-10-10z" fill="#ffa000"/><path d="M90 20H10C4.5 20 0 24.5 0 30v50c0 5.5 4.5 10 10 10h80c5.5 0 10-4.5 10-10V30c0-5.5-4.5-10-10-10z" fill="#ffca28"/><path d="M58.2 41.4c-.7 0-1.2-.5-1.2-1.2v-2.4c0-.7-.5-1.2-1.2-1.2h-9.6c-.7 0-1.2.5-1.2 1.2v2.4c0 .7-.5 1.2-1.2 1.2s-1.2-.5-1.2-1.2v-2.4c0-2 1.6-3.6 3.6-3.6h9.6c2 0 3.6 1.6 3.6 3.6v2.4c0 .7-.5 1.2-1.2 1.2z" fill="#5c5f66"/><path d="M55.8 34.2H51v2.4h4.8c.7 0 1.2.5 1.2 1.2v2.4c0 .7.5 1.2 1.2 1.2s1.2-.5 1.2-1.2v-2.4c0-2-1.6-3.6-3.6-3.6z" fill="#53565c"/><path d="M60.8 75.2H41.2c-1.9 0-3.4-1.5-3.6-3.3l-2.2-26.8c0-.3.1-.7.3-.9.2-.2.5-.4.9-.4h28.8c.3 0 .7.1.9.4.2.2.3.6.3.9l-2.2 26.8c-.2 1.9-1.7 3.3-3.6 3.3z" fill="#bcbcbc"/><path d="M65.4 43.8H51v31.4h9.8c1.9 0 3.4-1.5 3.6-3.3l2.2-26.8c0-.3-.1-.7-.3-.9-.2-.2-.6-.4-.9-.4z" fill="#a0a0a0"/><path class="st6" d="M43.8 69.3l-1.2-19.4c0-.7.5-1.2 1.1-1.3.7 0 1.2.5 1.3 1.1l1.2 19.4c0 .7-.5 1.2-1.1 1.3-.7.1-1.3-.5-1.3-1.1zm7.2 1.1c-.7 0-1.2-.5-1.2-1.2V49.8c0-.7.5-1.2 1.2-1.2s1.2.5 1.2 1.2v19.4c0 .7-.5 1.2-1.2 1.2zm5.9 0c-.7 0-1.2-.6-1.1-1.3L57 49.8c0-.7.6-1.1 1.3-1.1.7 0 1.2.6 1.1 1.3l-1.2 19.4c0 .5-.6 1.1-1.3 1z"/><path class="st6" d="M52.2 69.2V49.8c0-.7-.5-1.2-1.2-1.2v21.8c.7 0 1.2-.5 1.2-1.2zm13.2-23H36.6c-2 0-3.6-1.6-3.6-3.6s1.6-3.6 3.6-3.6h28.8c2 0 3.6 1.6 3.6 3.6s-1.6 3.6-3.6 3.6z"/><path d="M65.4 39H51v7.2h14.4c2 0 3.6-1.6 3.6-3.6 0-1.9-1.6-3.6-3.6-3.6z" fill="#757982"/></svg>