<svg xmlns="http://www.w3.org/2000/svg" viewBox="0 0 100 100"><linearGradient id="a" gradientUnits="userSpaceOnUse" x1="49.903" y1="12.668" x2="49.903" y2="37.168"><stop offset="0" stop-color="#fcfcfd"/><stop offset="1" stop-color="#fff"/></linearGradient><path d="M3.3 37.2V15c0-1.3 1-2.3 2.3-2.3h32.7l9.3 7h46.7c1.3 0 2.3 1 2.3 2.3v15.2H3.3z" fill="url(#a)" stroke="#434242" stroke-width="2.5"/><linearGradient id="b" gradientUnits="userSpaceOnUse" x1="50" y1="81.15" x2="50" y2="31.684"><stop offset="0" stop-color="#008bff"/><stop offset="1" stop-color="#0af"/></linearGradient><path d="M5.7 87.3h88.7c1.3 0 2.3-1 2.3-2.3L99 27.8c0-1.3-1-2.3-2.3-2.3h-35l-9.3 7h-49c-1.3 0-2.4 1-2.3 2.3L3.3 85c.1 1.3 1.1 2.3 2.4 2.3z" fill="url(#b)" stroke="#434242" stroke-width="2.5"/><path d="M10.3 17.3H36c1.3 0 2.3 1 2.3 2.3s-1 2.3-2.3 2.3H10.3C9.1 22 8 21 8 19.7c0-1.3 1.1-2.4 2.3-2.4z" fill="#434242"/></svg>