<svg id="Layer_1" xmlns="http://www.w3.org/2000/svg" viewBox="0 0 100 100"><style>.st2{fill:#f57c00}</style><g id="surface1"><path d="M90 20H45L35 10H10C4.5 10 0 14.5 0 20v20h100V30c0-5.5-4.5-10-10-10z" fill="#ffa000"/><path d="M90 20H10C4.5 20 0 24.5 0 30v50c0 5.5 4.5 10 10 10h80c5.5 0 10-4.5 10-10V30c0-5.5-4.5-10-10-10z" fill="#ffca28"/><path class="st2" d="M80 40c0 4.1-3.4 7.5-7.5 7.5S65 44.1 65 40s3.4-7.5 7.5-7.5S80 35.9 80 40z"/><path d="M40 44.7L17.5 77.5h45L40 44.7z" fill="#ef6c00"/><path class="st2" d="M67.5 58.8l-15 18.8h30l-15-18.8z"/></g></svg>