<svg xmlns="http://www.w3.org/2000/svg" viewBox="0 0 100 100"><path d="M90 20H45L35 10H10C4.5 10 0 14.5 0 20v20h100V30c0-5.5-4.5-10-10-10z" fill="#ffa000"/><path d="M90 20H10C4.5 20 0 24.5 0 30v50c0 5.5 4.5 10 10 10h80c5.5 0 10-4.5 10-10V30c0-5.5-4.5-10-10-10z" fill="#ffca28"/><path d="M50.5 34c-8.3 0-14.9 6.7-14.9 14.9 0 4.4 1.9 8.3 4.9 11 .1.1.3.2.4.4 2.3 2.1 3.8 5.2 3.8 8.6h11.7c0-3.4 1.5-6.5 3.8-8.6l.4-.4c3-2.7 4.9-6.7 4.9-11-.1-8.2-6.7-14.9-15-14.9z" fill="#3ac0ef"/><path d="M50.5 39v10.8h-4.7L50.5 39zm0 19.9V48.1h4.7l-4.7 10.8z" fill="#fff"/><path d="M43.4 67.6h14.1v2.7H43.4v-2.7zm0 4.3h14.1v2.7H43.4v-2.7zm3.8 4.4h6.5V79h-6.5v-2.7z" fill="#5d5360"/></svg>