<svg id="Layer_1" xmlns="http://www.w3.org/2000/svg" viewBox="0 0 100 100"><style>.st1{fill:#999}</style><path d="M0 0h100v100H0V0z" fill="#fff"/><path class="st1" d="M100 100H0V0h100v100zM9.7 90h80.7V10H9.7"/><path d="M69.2 25H38.5c-4.2 0-7.7 3.4-7.7 7.7v34.6h-7.7c0 4.2 3.4 7.7 7.7 7.7h30.8c4.2 0 7.7-3.4 7.7-7.7V36.5H77v-3.8c-.1-4.3-3.5-7.7-7.8-7.7zm-3.8 41.6c0 2.5-2 4.5-4.5 4.5H32.7c1.9-1.3 1.9-3.8 1.9-3.8V32.7c0-2.1 1.7-3.8 3.8-3.8s3.8 1.7 3.8 3.8v3.8h23.1l.1 30.1zM46.2 32.7v-3.8h23.1c3.5 0 3.8 2.2 3.8 3.8H46.2z" fill="#999" stroke="#999" stroke-width=".75" stroke-miterlimit="10"/><path class="st1" d="M45.5 62.6c-.4-.3-.8-.6-1.1-1.1-.4-.4-.7-.9-1-1.3-.7-1-1.3-2.1-1.6-3.3-.5-1.4-.7-2.7-.7-4 0-1.4.3-2.7.9-3.7.4-.8 1.1-1.5 1.9-2 .8-.5 1.7-.8 2.6-.8.3 0 .7 0 1 .1.3.1.6.2 1 .3.5.2.8.3.9.3.3.1.5.2.7.2.1 0 .4 0 .6-.1.1 0 .4-.1.7-.3.4-.1.6-.2.9-.3.3-.1.7-.2 1-.2.4-.1.7-.1 1.1 0 .7 0 1.2.2 1.8.4.9.4 1.7 1 2.3 1.8-.2.1-.5.3-.7.5-.4.4-.8.9-1.1 1.4-.4.7-.6 1.5-.6 2.3 0 1 .3 1.9.8 2.6.4.5.8 1 1.4 1.4.3.2.5.3.8.4-.1.3-.2.7-.4 1-.3.7-.7 1.4-1.1 2.1-.4.6-.7 1-.9 1.3-.4.4-.7.8-1.1 1-.6.2-1.1.4-1.5.4-.3 0-.6 0-.9-.1-.3-.1-.5-.2-.8-.3-.3-.1-.5-.2-.8-.3-.3-.1-.7-.1-1.1-.1-.4 0-.7 0-1.1.1-.3.1-.6.2-.8.3-.4.2-.6.3-.8.3-.3.1-.6.1-.9.2-.5-.1-1-.2-1.4-.5zm6.3-16.9c-.6.3-1.2.4-1.8.4-.1-.6 0-1.2.2-1.9.2-.6.5-1.1.9-1.5.4-.5.9-.9 1.5-1.2.6-.3 1.2-.5 1.7-.5.1.6 0 1.2-.2 1.9-.2.6-.5 1.1-.9 1.6s-.9.9-1.4 1.2z"/></svg>