<svg id="Layer_1" xmlns="http://www.w3.org/2000/svg" viewBox="0 0 100 100"><style>.st1{fill:#158eef}</style><path d="M0 0h100v100H0V0z" fill="#fff"/><path class="st1" d="M100 100H0V0h100v100zM9.7 90h80.7V10H9.7"/><path id="surface1_1_" class="st1" d="M50 24.3c-5.8 0-11 1.6-15 4.4-3.9 2.8-6.6 7-6.6 11.8v6.9C25.2 49.9 23 55 23 60.8c0 8.1 4.3 14.9 9.5 14.9 1.4 0 2.7-.5 4.1-1.4v-27c-.8-.5-1.8-.9-2.7-1.2v-5.6c0-2.8 1.5-5.3 4.4-7.4 2.9-2.1 7.1-3.4 11.9-3.4s9 1.4 11.9 3.4c2.9 2 4.4 4.6 4.4 7.4v5.6c-1 .3-1.9.7-2.7 1.2v26.8c1.4.8 2.7 1.4 4.1 1.4 5.1 0 9.5-6.8 9.5-14.9 0-5.6-2.3-10.7-5.4-13.1v-6.9c0-4.8-2.7-9-6.6-11.8-4.4-2.9-9.6-4.5-15.4-4.5zm0 23.8l-6 11.6-3.5-4.9-1.4 1.9v8.9l1.4-1.6 4.6 6L50 60l4.9 10 4.6-6 1.4 1.6v-8.9l-1.4-1.9-3.5 4.9-6-11.6z"/></svg>