<svg id="Layer_1" xmlns="http://www.w3.org/2000/svg" viewBox="0 0 100 100"><style>.st1{fill:#bababa}</style><path d="M0 0h100v100H0V0z" fill="#fff"/><path class="st1" d="M100 100H0V0h100v100zM9.7 90h80.7V10H9.7"/><path class="st1" d="M67.8 50c7.3 10 2.7 23-9.6 25.8-6-8.6 3.5-16.3 9.6-25.8zM35.6 73.2l.4.2c2.2 1.5 4.8 2.3 7.5 2.5-2.3-4.9-1.9-10.6 1.1-15.1l8.6-12.6c4.7-7.1 2.8-16.7-4.3-21.4l-.3-.2c-2.2-1.5-4.8-2.3-7.5-2.5C43.4 29 43 34.7 40 39.2l-8.6 12.6c-4.8 7.1-2.9 16.7 4.2 21.4zm22.2-14.5s2.5-3.3 3.8-5.3l3.6-5.4c4.4-6.5-3.3-11.8-4.4-11.8 1 2 .1 6.1-1.3 8l-3.6 5.4c-2 3-1.2 7.1 1.9 9.1zM65.2 48"/></svg>