<svg xmlns="http://www.w3.org/2000/svg" viewBox="0 0 100 100"><path fill="#fff" d="M0 0h100v100H0z"/><path d="M100 100H0V0h100v100zM9.7 90h80.7V10H9.7" fill="#999"/><path d="M22.1 53v-5.8c1.2-.1 2.2-.2 2.9-.7.7-.2 1.1-.9 1.7-1.3.6-.8.8-1.6 1-2.7.1-.9.2-2.1.2-4 0-3.1.1-5.4.6-6.6.2-1.1.9-2.2 1.7-2.9.8-.8 2-1.2 3.6-1.8 1-.2 2.7-.6 4.9-.6h1.2v5.8c-1.9 0-3.1.1-3.7.3-.6.2-.9.6-1.2.9-.2.3-.3 1-.3 2.1s-.1 2.9-.2 5.8c-.1 1.7-.2 2.9-.7 3.9-.3.9-.9 1.8-1.3 2.6-.6.7-1.3 1.2-2.6 2 1 .7 1.9 1.1 2.6 1.9s1.1 1.7 1.6 2.7c.3 1 .7 2.6.7 4.3.1 2.7.1 4.5.1 5.2 0 1 .1 1.8.3 2.2.2.6.8.8 1.2.9.6.2 1.8.3 3.7.3v5.8h-1.3c-2.2 0-4.1-.1-5.4-.6-1.2-.3-2.2-.9-3.1-1.8-.9-.9-1.3-1.8-1.8-2.9-.2-1.1-.3-3-.3-5.7 0-2.9-.1-4.9-.3-5.8-.3-1.2-1-2.2-1.8-2.8-1.2-.2-2.3-.7-4-.7zm55.7 0c-1.2.1-2.2.2-2.9.7-.7.2-1.1.9-1.7 1.3-.6.8-.8 1.6-1 2.7-.1.9-.2 2.1-.2 4 0 3.1-.1 5.4-.6 6.6-.2 1.2-.9 2.2-1.7 2.9-.8.8-2 1.2-3.6 1.8-1 .2-2.7.6-4.9.6h-1.3v-5.8c1.9 0 3-.1 3.7-.3.7-.2 1-.7 1.2-.9.2-.3.3-1 .3-2.1 0-.9.1-2.8.2-5.7.1-1.7.3-3 .8-4 .3-1 .9-1.9 1.6-2.7.7-.8 1.3-1.2 2.5-1.9-1.2-.9-2.2-1.6-2.8-2.2-.8-1-1.3-2.6-1.7-4-.2-1.1-.3-3.7-.3-7.5 0-1.1-.1-2-.3-2.6-.2-.3-.7-.8-1.1-.9-.6-.2-1.8-.3-3.8-.3v-5.6h1.3c2.2 0 4.1.1 5.4.6 1.2.3 2.2.9 3.1 1.8s1.3 1.8 1.8 2.9c.2 1.1.6 3 .6 5.7 0 2.9.1 4.8.3 5.8.3 1.2 1 2.2 1.8 2.7.8.7 2 .9 3.6.9-.2-.4-.3 5.5-.3 5.5z" fill="#999" stroke="#999" stroke-width=".75" stroke-miterlimit="10"/></svg>