<svg xmlns="http://www.w3.org/2000/svg" viewBox="0 0 100 100"><style>.st1{fill:#999}</style><path fill="#fff" d="M0 0h100v100H0z"/><path class="st1" d="M100 100H0V0h100v100zM9.7 90h80.7V10H9.7"/><path class="st1" d="M46.9 50c0 .8.3 1.6.9 2.2 1.2 1.2 3.2 1.2 4.4 0 .6-.6.9-1.4.9-2.2s-.3-1.6-.9-2.2c-.6-.6-1.4-.9-2.2-.9s-1.6.3-2.2.9-.9 1.4-.9 2.2z"/><path class="st1" d="M32.3 32.3c-9.8 9.8-9.8 25.6 0 35.4s25.6 9.8 35.4 0 9.8-25.6 0-35.4c-9.8-9.7-25.6-9.7-35.4 0zm37 28.2c-.9 1.7-2.1 3.2-3.5 4.6-1.4 1.4-3 2.6-4.6 3.5l-5.8-11.1s.5-.2 1.6-1.2c1.1-1.1 1.3-1.6 1.3-1.6l11 5.8zM54.4 45.6c1.2 1.2 1.8 2.8 1.8 4.4 0 1.6-.6 3.2-1.8 4.4-2.4 2.4-6.4 2.4-8.8 0-1.2-1.2-1.8-2.8-1.8-4.4 0-1.6.6-3.2 1.8-4.4a6.1 6.1 0 0 1 8.8 0zm-8.5-4.4s-1.2.7-2.2 1.8c-.9 1-1 1.2-1.3 1.7l-11-5.9c.9-1.7 2.1-3.2 3.5-4.6 1.4-1.4 3-2.6 4.6-3.5l6.4 10.5z"/></svg>