<svg xmlns="http://www.w3.org/2000/svg" viewBox="0 0 100 100"><path fill="#fff" d="M0 0h100v100H0z"/><path d="M100 100H0V0h100v100zM9.7 90h80.7V10H9.7" fill="#b4bdcc"/><path d="M75.1 27.6H24.9c-1.9 0-3.4 1.5-3.4 3.4v34.8c0 1.9 1.5 3.4 3.4 3.4H75c1.9 0 3.4-1.5 3.4-3.4V31c.1-1.9-1.4-3.4-3.3-3.4z" fill="#ced2d8"/><path fill="#f2f2f2" d="M24.9 36h50.2v29.7H24.9z"/><circle cx="34" cy="32.1" r="1.1" fill="#54b845"/><circle cx="30.1" cy="32.1" r="1.1" fill="#fbd303"/><circle cx="26.3" cy="32.1" r="1.1" fill="#f0582f"/><path d="M67 58.2l-3.3-.9c-.3-1.4-.9-2.7-1.6-3.9l1.7-2.9c.2-.3.1-.8-.1-1l-2.4-2.4c-.3-.3-.7-.3-1-.1l-2.9 1.7c-1.2-.7-2.5-1.3-3.9-1.6l-.9-3.3c-.1-.4-.4-.6-.8-.6h-3.4c-.4 0-.7.3-.8.6l-1 3.2c-1.4.3-2.7.9-3.9 1.6l-3-1.6c-.3-.2-.8-.1-1 .1l-2.4 2.4c-.3.3-.3.7-.1 1l1.7 2.9c-.7 1.2-1.3 2.5-1.6 3.9l-3.3.9c-.4.1-.6.4-.6.8v3.4c0 .4.3.7.6.8l3.3.9c.3 1.4.9 2.7 1.6 3.9l-1.7 3c-.2.3-.1.8.1 1l2.4 2.4c.3.3.7.3 1 .1l2.9-1.7c1.2.7 2.5 1.3 3.9 1.6l.9 3.3c.1.4.4.6.8.6h3.4c.4 0 .7-.3.8-.6l.9-3.3c1.4-.3 2.7-.9 3.9-1.6l2.9 1.7c.3.2.8.1 1-.1l2.4-2.4c.3-.3.3-.7.1-1l-1.7-2.9c.7-1.2 1.3-2.5 1.6-3.9l3.3-.9c.4-.1.6-.4.6-.8V59c.2-.3 0-.6-.4-.8zm-17 8.9c-3.5 0-6.3-2.8-6.3-6.3s2.8-6.3 6.3-6.3 6.3 2.8 6.3 6.3-2.8 6.3-6.3 6.3z" fill="#6eb1e1"/></svg>