<svg id="Layer_1" xmlns="http://www.w3.org/2000/svg" viewBox="0 0 100 100"><style>.st1{fill:#999}</style><path d="M0 0h100v100H0V0z" fill="#fff"/><path class="st1" d="M100 100H0V0h100v100zM9.7 90h80.7V10H9.7"/><path class="st1" d="M58.7 70.6H31.4c-3 0-5.4-2.4-5.4-5.4 0-3 2.4-5.4 5.4-5.4H42c4.8 0 8.8-3.9 8.8-8.8s-3.9-8.8-8.8-8.8h-5.8c.1.5.2 1.1.2 1.7 0 .6-.1 1.1-.2 1.7H42c3 0 5.4 2.4 5.4 5.4 0 3-2.4 5.4-5.4 5.4H31.4c-4.8 0-8.8 3.9-8.8 8.8s3.9 8.8 8.8 8.8h27.3c-.1-.5-.2-1.1-.2-1.7s.1-1.1.2-1.7zm8.4-3.5c-2.9 0-5.2 2.3-5.2 5.2s2.3 5.2 5.2 5.2c2.9 0 5.2-2.3 5.2-5.2s-2.3-5.2-5.2-5.2zM38.5 24.5H27.8c-.9 0-1.7.7-1.7 1.7V39c-2.1.7-3.5 2.6-3.5 4.9 0 2.9 2.3 5.2 5.2 5.2s5.2-2.3 5.2-5.2c0-2.3-1.5-4.2-3.5-4.9v-4h9c.9 0 1.7-.7 1.7-1.7v-7.1c-.1-1-.8-1.7-1.7-1.7zM67.1 28c-6.8 0-12.3 5.5-12.3 12.3 0 3.7 1.6 7.1 4.4 9.4l6.4 12.6c.6 1.2 2.3 1.2 3 0L75 49.8c2.8-2.3 4.4-5.8 4.4-9.4 0-6.8-5.5-12.4-12.3-12.4zm0 17.6c-2.9 0-5.2-2.3-5.2-5.2s2.3-5.2 5.2-5.2c2.9 0 5.2 2.3 5.2 5.2s-2.3 5.2-5.2 5.2z"/></svg>