<svg id="Layer_1" xmlns="http://www.w3.org/2000/svg" viewBox="0 0 100 100"><style>.st0{fill:#fff}.st1{fill:#c93}</style><path class="st0" d="M0 0h100v100H0V0z"/><path class="st1" d="M100 100H0V0h100v100zM9.7 90h80.7V10H9.7"/><path class="st1" d="M72.9 25H37.5c-5.2 0-10.4 2.1-10.4 8.3V75h37.5V33.3H32.3c0-3.1 2.1-4.2 4.2-4.2h32.3v41.7l4.2-4.2V25z"/><path class="st0" d="M44.2 56.4c0-4.3 4.9-5 4.9-8.1 0-1.4-1.3-2.5-2.9-2.5-1.7 0-3.2 1.3-3.2 1.3l-2.1-2.6s2.1-2.2 5.6-2.2c3.4 0 6.5 2.1 6.5 5.6 0 4.9-5.2 5.5-5.2 8.8v1.2h-3.7v-1.5zm0 4.1h3.7V64h-3.7v-3.5z"/></svg>