<svg xmlns="http://www.w3.org/2000/svg" viewBox="0 0 100 100"><style>.st1{fill:#999}</style><path fill="#fff" d="M0 0h100v100H0z"/><path class="st1" d="M100 100H0V0h100v100zM9.7 90h80.7V10H9.7"/><path class="st1" d="M69.3 56.5c0 3.2-2.4 14-2.4 14C66.4 73.2 64 76 61 76H46.5c-2.1 0-4-1.3-4.9-3.2 0 0-7.1-13.1-9.9-17.8-1.9-3.3-1.9-3.3.6-4.7.4-.3.8-.4 1.4-.4 1 0 1.7.6 2.4 1.4l4.3 5 1.3 1.7V27.8c0-1.5 1.4-2.8 3.1-2.8 1.5 0 2.8 1.3 2.8 2.8l.6 19.5h1.3l.3-3.3c0-1.5 1.3-2.8 2.8-2.8 1.5 0 2.8 1.3 2.8 2.8l.3 4H57l.3-2.6c0-1.5 1.3-2.8 2.8-2.8 1.5 0 2.8 1.3 2.8 2.8l.3 2.6v.7h1l.3-1.4c0-1.5 1.3-2.8 2.8-2.8s2.8 1.3 2.8 2.8c-.8-.1-.8 6-.8 9.2z"/></svg>