<svg xmlns="http://www.w3.org/2000/svg" viewBox="0 0 100 100"><path d="M0 0h100v100H0V0z" fill="#fff"/><path d="M100 100H0V0h100v100zM9.7 90h80.7V10H9.7" fill="#666"/><path d="M68.3 65.3h1.3c0 3.9-.6 6.7-1.9 8.5s-2.8 2.8-4.7 2.8c-1.5 0-3.1-.6-4.5-1.7s-2.7-4.3-3.9-9.5L51.4 51l-11 25h-7l15.9-34.2c-.8-4.4-1.8-7.7-3.1-9.8-1.2-2.1-2.7-3.2-4.4-3.2-1.4 0-2.7.5-3.7 1.6-1 1-1.6 2.8-1.7 5h-1.3c.1-3.7.8-6.5 2.1-8.7 1.4-2.1 3.1-3.3 5.2-3.3 1.3 0 2.6.5 3.8 1.6 1.2 1.1 2.2 3 3.1 5.6s2.2 8.2 4.1 16.5l2.6 12c1 4.9 2.1 8.1 3.4 9.7s2.6 2.5 4.2 2.5c2.8-.1 4.4-2 4.7-6z" fill="#066" stroke="#066" stroke-width="1.5" stroke-miterlimit="10"/></svg>