<svg id="Layer_1" xmlns="http://www.w3.org/2000/svg" viewBox="0 0 100 100"><style>.st0{fill:#fff}.st1{fill:#1d6fb5}</style><path class="st0" d="M0 0h100v100H0V0z"/><path class="st1" d="M100 100H0V0h100v100zM9.7 90h80.7V10H9.7"/><path class="st1" d="M78.3 37.8L61.2 52.1l-4.6-3.7V36.5h21.7z"/><path class="st1" d="M78.3 40.6L61.2 54.8l-4.6-3.7v16h21.7V40.6zM53.8 25.8l-30.4 4.1V73l30.4 4.2z"/><path class="st0" d="M32.6 56.9l-.1-3.2c0-1-.1-2.2-.1-3.5-.2 1.1-.6 2.3-.9 3.3l-.9 3.2h-1.3l-.8-3.2c-.2-1-.5-2.1-.7-3.2 0 1.1-.1 2.3-.1 3.4l-.1 3.1-1.5-.1.4-8 2.1-.1.7 2.7c.2 1 .5 2 .6 3 .2-1 .5-2.1.7-3l.8-2.8 2.3-.1.4 8.6-1.5-.1zm5.2.3c-1 0-1.9-.3-2.4-.6l.4-1.6c.5.3 1.3.6 2.1.6.9 0 1.4-.4 1.4-.9 0-.6-.4-.9-1.4-1.3-1.4-.5-2.3-1.3-2.3-2.6 0-1.5 1.2-2.7 3.2-2.7 1 0 1.7.1 2.3.4l-.5 1.7c-.4-.2-1-.4-1.8-.4s-1.2.4-1.2.9c0 .6.5.8 1.6 1.2 1.6.6 2.3 1.4 2.3 2.7-.2 1.5-1.3 2.7-3.7 2.6zm13.2 0c-.7.2-2.1.5-3.4.4-1.8-.1-3.1-.5-3.9-1.4-.9-.8-1.3-2-1.3-3.4 0-3.1 2.3-4.9 5.5-5 1.3 0 2.3.2 2.8.4l-.6 1.8c-.6-.2-1.3-.4-2.4-.4-1.9 0-3.2 1.1-3.2 3.1 0 1.9 1.2 3.1 3.1 3.1.5 0 .9 0 1.1-.1v-2h-1.5V52H51v5.2z"/></svg>