<svg xmlns="http://www.w3.org/2000/svg" viewBox="0 0 100 100"><path fill="#fff" d="M0 0h100v100H0z"/><path d="M100 100H0V0h100v100zM9.7 90h80.7V10H9.7" fill="#666"/><path d="M72.3 25.5s-19.4.3-31.9 16c-.7.9-1.4 1.8-2 2.7-.4.5-.8 5.9-.8 5.9s-.5-.4-.7-1c-.4-.8-.5-1.8-.5-1.8-7 11.4-5 17.4-5 17.4-.5 1.4-1.7 2.1-3.1 5.2-1.5 3.1-1.4 6.1-1.4 6.1 0 .6.2.6.5.1 0 0 1.6-3 2.9-5.1.8-1.3 3.3-4.4 3.3-4.4s4 .2 8.9-1.1c-.4-.2-1.8-.5-2.7-1-.9-.5-1.4-1.1-1.4-1.1l17.3-4c2.4-1.4 4.6-3.3 6.4-5.4 9.2-11 11.4-27.6 11.4-27.6-.2-.5-.6-.9-1.2-.9zM55 42.9s-8.1 7.1-12.1 11c-4 3.8-9.4 12.8-9.4 12.8l-2.1-2s1.5-3.7 7.4-10.9 15.9-11.5 15.9-11.5c1.2-.7 1.4-.4.3.6z" fill="#ef712f"/></svg>