<svg xmlns="http://www.w3.org/2000/svg" viewBox="0 0 100 100"><style>.st0{fill:#fff}.st2{fill:#737373}.st4{fill:#517889}</style><path class="st0" d="M0 0h100v100H0z"/><path d="M100 100H0V0h100v100zM9.7 90h80.7V10H9.7" fill="#6190aa"/><path class="st2" d="M52.5 21.2L32.3 32.9v23.4L52.5 68l20.3-11.7V32.9z"/><path class="st2" d="M32.3 32.9l20.2 11.7 20.3-11.7-20.3-11.7zm0 23.4L52.5 68l20.3-11.7-20.3-11.7z"/><path class="st0" d="M31.7 57.4L51.9 69c.2.1.4.2.6.2s.4-.1.6-.2l20.3-11.7c.4-.2.6-.6.6-1.1V32.9c0-.4-.2-.8-.6-1.1L53.1 20.2c-.4-.2-.8-.2-1.2 0L31.7 31.9c-.4.2-.6.6-.6 1.1v23.4c0 .3.2.7.6 1zm20.8-34.8l17.8 10.3-17.8 10.5-17.8-10.5 17.8-10.3m2.5 22L71.6 35v20.6L53.7 65.9V45.3m-20.2 8.9V35l16.6 9.6 1.2.7v20.6L33.5 55.6"/><path class="st0" d="M37.2 53.7l-10.6 6.1V72l10.6 6.2L47.8 72V59.8z"/><path class="st0" d="M26.6 59.8l10.6 6.1 10.6-6.1-10.6-6.1zm0 12.2l10.6 6.2L47.8 72l-10.6-6.1z"/><path d="M26.3 72.6l10.6 6.1c.1.1.2.1.3.1s.2 0 .3-.1l10.6-6.1c.2-.1.3-.3.3-.5V59.8c0-.2-.1-.4-.3-.5l-10.6-6.1c-.2-.1-.4-.1-.6 0l-10.6 6.1c-.2.1-.3.3-.3.5V72c0 .2.1.5.3.6zm10.9-18.2l9.3 5.4-9.3 5.5-9.3-5.5 9.3-5.4m1.3 11.5l8.7-5v10.8L37.9 77V66.3m-10.6 4.6v-10l8.7 5 .6.4V77l-9.3-5.4" fill="#444"/><path class="st4" d="M49 63.7l-6.9 4v7.9l6.9 4 6.9-4v-7.9z"/><path class="st4" d="M42.1 67.7l6.9 3.9 6.9-3.9-6.9-4z"/><path class="st4" d="M42.1 75.6l6.9 4 6.9-4-6.9-4z"/><path class="st0" d="M41.9 76l6.9 4c.1 0 .1.1.2.1s.1 0 .2-.1l6.9-4c.1-.1.2-.2.2-.4v-8c0-.1-.1-.3-.2-.4l-6.9-4c-.1-.1-.3-.1-.4 0l-6.9 4c-.1.1-.2.2-.2.4v8c0 .2.1.3.2.4zM49 64.2l6.1 3.5-6.1 3.5-6.1-3.6 6.1-3.4m.8 7.4l5.6-3.3v7l-6.1 3.5v-7m-6.8 3.1v-6.5l5.6 3.3.4.2v7l-6.1-3.5"/></svg>