<svg xmlns="http://www.w3.org/2000/svg" viewBox="0 0 100 100"><path fill="#fff" d="M0 0h100v100H0z"/><path d="M100 100H0V0h100v100zM9.7 90h80.7V10H9.7" fill="#03c"/><path d="M34.3 54.2c-1.6 0-3.2-.2-4.4-.4v19.1h-6.1v-44c3-1.5 7.2-2.4 11.4-2.4 10.8 0 15.7 5.7 15.7 13.8 0 7.7-5 13.9-16.6 13.9zm.9-24.1c-2 0-4 .4-5.4.9v19.1c1.2.2 2.8.3 4.4.3C42.3 50.5 45 46 45 40.1c-.1-6.1-2.9-10-9.8-10zM66 73.5c-3.5 0-7.4-.9-9.7-2.4l1.6-3.7c2.1 1.3 4.8 2 7.4 2 4.2 0 7-2.6 7-6.2 0-8.8-15.1-5.2-15.1-17 0-5.5 4.4-9.8 11-9.8 3.4 0 6.6.9 9 2.4l-1.5 3.4c-1.8-1.2-4.3-2-6.7-2-4.1 0-6.1 2.5-6.1 5.6 0 8.2 15.3 4.8 15.3 17.1 0 5.9-4.9 10.6-12.2 10.6z" fill="#03c" stroke="#03c" stroke-width="3" stroke-miterlimit="10"/></svg>