<svg id="Layer_1" xmlns="http://www.w3.org/2000/svg" viewBox="0 0 100 100"><style>.st1{fill:#099}</style><path d="M0 0h100v100H0V0z" fill="#fff"/><path class="st1" d="M100 100H0V0h100v100zM9.7 90h80.7V10H9.7"/><path class="st1" d="M67.4 29.2H33.2v4.7h-7v1.5h-3.7v1.3h3.7v1.7h7v8.2h-7v1.7h-3.7v1.3h3.7v1.5h7v8.8h-7v1.6h-3.7v1.3h3.7v1.6h7v6.4h34.2v-6.4h6.4v-1.6h3.7v-1.3h-3.7v-1.6h-6.4v-8.8h6.4v-1.5h3.7v-1.3h-3.7v-1.7h-6.4v-8.2h6.4v-1.7h3.7v-1.3h-3.7v-1.5h-6.4v-4.7zm-6.5 11.3c-1.4 0-2.6-1.2-2.6-2.6s1.2-2.6 2.6-2.6c1.4 0 2.6 1.2 2.6 2.6s-1.2 2.6-2.6 2.6z"/></svg>