<svg id="Layer_1" xmlns="http://www.w3.org/2000/svg" viewBox="0 0 100 100"><style>.st1{fill:#dd7d36}</style><path d="M0 0h100v100H0V0z" fill="#fff"/><path class="st1" d="M100 100H0V0h100v100zM9.7 90h80.7V10H9.7"/><path id="RSS" class="st1" d="M38 63.4c1.2 1.2 1.9 2.8 1.9 4.6 0 1.8-.7 3.4-1.9 4.6a6.42 6.42 0 0 1-4.6 1.9c-1.8 0-3.4-.7-4.6-1.9a6.42 6.42 0 0 1-1.9-4.6c0-1.8.7-3.4 1.9-4.6 1.2-1.2 2.8-1.9 4.6-1.9 1.8 0 3.4.7 4.6 1.9zm0 0zm-9.2 9.2zm-1.9-30.5v9.4c6.1 0 11.9 2.4 16.2 6.7 4.3 4.3 6.7 10.1 6.7 16.3h9.4c0-8.9-3.6-17-9.5-22.9-5.8-5.8-13.9-9.4-22.8-9.5zm0-16.7v9.4c21.9 0 39.7 17.8 39.7 39.7H76c0-13.5-5.5-25.8-14.4-34.7-8.8-8.8-21.1-14.3-34.7-14.4z"/></svg>