<svg xmlns="http://www.w3.org/2000/svg" viewBox="0 0 100 100"><style>.st1{fill:#8383a6}</style><path fill="#fff" d="M0 0h100v100H0z"/><path class="st1" d="M100 100H0V0h100v100zM9.7 90h80.7V10H9.7"/><path class="st1" d="M73.8 65.9c-.3 1.2-1.1 2-2 2.9-12.2 12.7-33.2 10.3-42-4.9-2.4-4.1-3.7-8.3-3.6-13.1.3-5.9 2.2-11.1 5.9-15.7 4.4-5.6 9.9-9.3 17.1-10.4 1.7-.3 3.4-.4 5.2-.7v4.9l-3.6.4c-10 1.5-18.5 9.9-19.2 19.7-.4 6.1 1.2 11.6 5.3 16.3 1.6 2 3.4 3.7 5.7 4.8.7.3 1.5.4 2.1.5-6.3-3.7-10-9.3-11.2-16.4-.8-4.8.1-9.4 2.8-13.5C43 30.3 54.8 28.5 62.9 32c-.7 1.5-1.3 2.9-2 4.2-1.6-.3-3.2-.8-4.8-.8-4.6-.3-8.7.8-12.2 4.1-8.7 8.1-6.5 20.5 2 26 2.6 1.9 5.6 3.2 8.7 3.8.8.3 1.6 0 2.5-.1-.1-.1-.3-.1-.4-.1-4-.8-7.7-2.1-10.8-4.9S40.4 58 40 53.6c-.4-6.2 2-11.2 7.3-14.4 4.6-2.9 9.5-2.9 14.4-.5 2.8 1.3 4.8 3.4 6.3 6.1-1.5.8-2.8 1.5-4.1 2.1-1.2-1.2-2.2-2.5-3.6-3.3-6.2-4.2-14.9-.3-15.6 7.5-.3 3.8 1.3 6.7 4 9.4 3.2 2.9 7 4 11.2 4.5 4.1.5 8.2.4 12.3-.1.8-.1 1.2.4 1.5 1.1.1-.2.1-.1.1-.1z"/></svg>