<svg id="Layer_1" xmlns="http://www.w3.org/2000/svg" viewBox="0 0 100 100"><style>.st1{fill:#999}</style><path id="BG" fill="#fff" d="M0 0h100v100H0z"/><path id="Border" class="st1" d="M100 100H0V0h100v100zM9.7 90h80.7V10H9.7"/><path class="st1" d="M72.5 25h-39c-.5 0-1 .5-1 1v3c0 .5.5 1 1 1H70v36.5c0 .5.5 1 1 1h3c.5 0 1-.5 1-1v-39c0-1.5-1-2.5-2.5-2.5z"/><path class="st1" d="M64 35H26c-.5 0-1 .5-1 1v38c0 .5.5 1 1 1h38c.5 0 1-.5 1-1V36c0-.5-.5-1-1-1zM42.5 69c0 .5-.5 1-1 1H31c-.5 0-1-.5-1-1v-3c0-.5.5-1 1-1h10.5c.5 0 1 .5 1 1v3zm0-10c0 .5-.5 1-1 1H31c-.5 0-1-.5-1-1v-3c0-.5.5-1 1-1h10.5c.5 0 1 .5 1 1v3zM60 69c0 .5-.5 1-1 1H48.5c-.5 0-1-.5-1-1v-3c0-.5.5-1 1-1H59c.5 0 1 .5 1 1v3zm0-10c0 .5-.5 1-1 1H48.5c-.5 0-1-.5-1-1v-3c0-.5.5-1 1-1H59c.5 0 1 .5 1 1v3zm0-10c0 .5-.5 1-1 1H31c-.5 0-1-.5-1-1v-8c0-.5.5-1 1-1h28c.5 0 1 .5 1 1v8z"/></svg>