<svg xmlns="http://www.w3.org/2000/svg" viewBox="0 0 100 100"><style>.st1{fill:#37539d}</style><path fill="#fff" d="M0 0h100v100H0z"/><path class="st1" d="M100 100H0V0h100v100zM9.7 90h80.7V10H9.7"/><path class="st1" d="M23 31.3l30.5-5.8v51.2L23 71z"/><path class="st1" d="M74.7 71.7H48.9c-1.3 0-2.3-1.1-2.3-2.3V33c0-1.3 1.1-2.3 2.3-2.3h25.9c1.3 0 2.3 1.1 2.3 2.3v36.5c-.1 1.2-1.1 2.2-2.4 2.2zm-25.8-39c-.2 0-.2.1-.2.2v36.5c0 .2.1.2.2.2h25.9c.2 0 .2-.1.2-.2V33c0-.2-.1-.2-.2-.2H48.9z"/><path d="M50 55.2h8.6v8.6H50zm10.099-13.238l5.162-5.162 5.162 5.162-5.162 5.162zM60 42.2h-7.1m12.8 4.5v12.8m-7.1 0h8.5" fill="none" stroke="#37539d" stroke-width="2" stroke-miterlimit="10"/><path d="M31.4 44.1h3l3.3 9.9c.3.9.6 2.2.6 2.2s.3-1.4.6-2.2l3.4-9.9h3l-5.6 15.2H37l-5.6-15.2z" fill="#fff" stroke="#fff" stroke-width=".75" stroke-miterlimit="10"/></svg>