<svg xmlns="http://www.w3.org/2000/svg" viewBox="0 0 100 100"><style>.st1{fill:#bababa}</style><path fill="#fff" d="M0 0h100v100H0z"/><path class="st1" d="M100 100H0V0h100v100zM9.7 90h80.7V10H9.7"/><path class="st1" d="M41.6 53.3c-1.5 1.2-3 2.3-4.6 3.5l-9 6.9c-.4.3-.7.3-1.2.1-.6-.4-1.3-.7-1.9-1-.3-.2-.5-.4-.5-.8V38.1c0-.3.2-.6.5-.8.7-.4 1.4-.7 2.1-1.1.4-.2.7 0 1 .2 2.5 1.9 5 3.8 7.4 5.7 2 1.6 4.1 3.1 6.1 4.7l.4-.4c7.4-7.2 14.8-14.5 22.3-21.7.4-.4.7-.4 1.2-.2 3.1 1.3 6.3 2.5 9.4 3.8.2.1.4.4.5.7.1.2 0 .4 0 .6v41.1c0 1 0 1-1 1.4l-9 3.6c-.5.2-.9.1-1.3-.2-7.1-7.3-14.4-14.5-21.8-21.6-.2-.2-.3-.4-.6-.6zM63 59.8V40.2c-4.4 3.3-8.7 6.5-13.1 9.8 4.4 3.3 8.7 6.5 13.1 9.8zM35.6 50c-2.2-2-4.3-3.9-6.5-5.8v11.7c2.2-2 4.3-3.9 6.5-5.9z"/></svg>