<svg id="Layer_1" xmlns="http://www.w3.org/2000/svg" viewBox="0 0 100 100"><style>.st1{fill:#999}</style><path d="M0 0h100v100H0V0z" fill="#fff"/><path class="st1" d="M100 100H0V0h100v100zM9.7 90h80.7V10H9.7"/><path class="st1" d="M29.6 53l-5.9-18.2c-.2-.7-.4-1-.5-1-.1-.1-.2-.1-.4-.2l-2.1-.6-.1-2.6h11l.2 2.6-2.1.6v.2c0 .2.1.7.4 1.2l2.2 7 3.9-11.7 3-.1 3.6 11.7 2.5-7c.1-.5.4-1 .4-1.2v-.1l-1.8-.5-.1-2.7h8.6l.2 2.6-2.3.7c-.1 0-.2.1-.4.1 0 .1-.2.2-.4.9L43 52.8l-3.1.2-3.3-11.2-3.9 11-3.1.2z"/><path d="M57.8 30.2h21.7v3.4H57.8v-3.4zm0 9.2h21.7v3.4H57.8v-3.4zm0 9.4h21.7v3.4H57.8v-3.4zm-36.2 9.6h57.9v3.4H21.6v-3.4zm0 9.4h57.9v3.4H21.6v-3.4z" fill="#999" stroke="#999" stroke-width=".5" stroke-miterlimit="10"/></svg>