<svg xmlns="http://www.w3.org/2000/svg" viewBox="0 0 100 100"><style>.st1{fill:#bababa}</style><path fill="#fff" d="M0 0h100v100H0z"/><path class="st1" d="M100 100H0V0h100v100zM9.7 90h80.7V10H9.7"/><path class="st1" d="M40.2 61.2c2.6-1.1 5.4-1.8 8.3-1.9v-7.7H38.4c.1 3.2.7 6.5 1.8 9.6zm-5.6-29.6c1.2 1.2 2.6 2.2 4 3 1.2-2.8 2.8-5.4 4.7-7.8-3.3 1-6.2 2.6-8.7 4.8zm25.2 7.2c-2.6 1.1-5.4 1.8-8.3 1.9v7.7h10.1c-.1-3.2-.7-6.5-1.8-9.6zm-11.3 1.9c-2.9-.2-5.7-.8-8.3-1.9-1.1 3.1-1.7 6.4-1.8 9.7h10.1v-7.8zM41.3 36c2.3 1 4.7 1.5 7.2 1.7V25.9h-.3l-1.3 1.4c-2.4 2.6-4.2 5.6-5.6 8.7zm20.3 15.5H51.5v7.7c2.9.2 5.7.8 8.3 1.9 1.1-3 1.7-6.3 1.8-9.6zM51.5 37.7c2.5-.2 4.9-.7 7.2-1.7-1.4-3.2-3.3-6.1-5.6-8.7L52 26h-.5v11.7zm14-6.2c-2.5-2.2-5.5-3.8-8.8-4.7 1.9 2.4 3.5 5 4.7 7.8 1.4-.8 2.8-1.8 4.1-3.1zm-17 30.8c-2.5.2-4.9.7-7.2 1.7 1.4 3.1 3.3 6.1 5.5 8.7L48 74h.4l.1-11.7zM35.3 48.5c.1-3.8.9-7.5 2.1-11-1.8-1-3.4-2.2-5-3.7l-.1-.1c-3.6 4-6 9.1-6.3 14.9l9.3-.1zm29.3 3c-.1 3.8-.9 7.5-2.1 11 1.8 1 3.4 2.2 5 3.7l.2.2c3.6-4 6-9.1 6.3-14.9h-9.4zm2.9-17.7c-1.5 1.4-3.2 2.7-5 3.7 1.3 3.5 2 7.2 2.1 11H74c-.3-5.7-2.7-10.9-6.3-14.9l-.2.2zm-2.1 34.6c-1.2-1.2-2.6-2.2-4-3-1.2 2.8-2.8 5.4-4.7 7.8 3.3-1 6.3-2.6 8.7-4.8zm-32.9-2.2c1.5-1.4 3.2-2.7 4.9-3.7-1.3-3.5-2-7.2-2.1-11H26c.4 5.7 2.7 10.9 6.3 14.9l.2-.2zm6.1-.8c-1.4.8-2.8 1.9-4 3 2.5 2.2 5.5 3.8 8.8 4.7-2-2.3-3.6-4.9-4.8-7.7zM58.7 64c-2.3-1-4.7-1.5-7.2-1.7v11.8h.4l1.3-1.4c2.3-2.6 4.1-5.6 5.5-8.7z"/></svg>