<svg xmlns="http://www.w3.org/2000/svg" viewBox="0 0 100 100"><style>.st1{fill:#5b2d8d}</style><path fill="#fff" d="M0 0h100v100H0z"/><path class="st1" d="M100 100H0V0h100v100zM9.7 90h80.7V10H9.7"/><path class="st1" d="M66.3 59c.5.3 1.2.6 1.8.9 1.7 1.1 3.4 2.2 5.2 3.3.2.1.5.2.8.2 1.9-.4 4 .7 4.6 2.6.4 1.2.6 2.6.7 3.9.2 1.6.2 3.2.2 4.8-2.8-.7-5.4-1.5-7.4-3.6-.5-.5-.7-1.4-1.1-2-.1-.2-.2-.4-.4-.4-3.6-.8-7.1-2.1-10.4-3.8-.2-.1-.5-.1-.7 0-3.3 1.7-6.9 2.3-10.6 2.1-5-.3-9.6-1.9-14-4.1-.7-.4-1.5-.8-2.2-1.3 3.5-1.6 5-4.4 5-8.1-.9-.1-1.6-.2-2.4-.2-.1.8-.1 1.5-.3 2.3-.8 3.1-3.7 4.7-6.9 3.9-4.2-1.1-7.9-6-7.5-10.7.3-3.4 3.3-5.7 6.7-4.9.6.1 1.2.3 1.7.6.5.2 1 .5 1.5.8.4-.7.7-1.5 1.1-2.2.1-.2.1-.4.1-.6V31.4h.1c.1.2.2.3.3.5 1.2 1.8 2.3 3.6 3.9 5.1 1.7 1.6 3.6 3 6 3.6.7.2 1.2.1 1.9-.3 2.6-1.7 5.3-1.8 8.1-.5.2.1.5.2.7.1 3.9-1 7.5-2.6 10.4-5.5 1.3-1.3 2.3-2.8 2.9-4.5.3-.8.7-1.6 1.1-2.3.4-.6.9-1 1.7-.9.8.1 1.2.7 1.4 1.4.3 1.4.6 2.8.6 4.2.1 2.5.2 5 .1 7.5-.2 5.1-.7 10.2-2.5 15.1-.8 1.1-1.5 2.6-2.2 4.1zm-6.9-.2c.5-.8.6-1.6.1-2.4-.7-1.3-1.8-2.1-3.1-2.8 0 0-.1 0-.1.1.1.3.3.5.4.8l.3.9c.3 1.1.1 1.6-1 2-.6.2-1.3.4-2 .5-3.4.5-6.7.5-10.1.4h-1c.1.1.1.2.2.2 3.3 1.1 6.6 2 10 2.2 1.3.1 2.6.1 3.9-.3.4-.1.6 0 1 .2 3.7 2.5 7.8 4.3 12.2 5.4.9.2.9.2 1.3-.6.1-.1.1-.3.2-.5-3.8-2.6-7.9-4.6-12.3-6.1zM47.6 45.7c-.2 1.6.1 2.3 1.1 2.7.8.3 1.8 0 2.1-.7.2-.4.3-1 .2-1.5s-.5-.9-.8-1.3c1.6.1 2.6 1.1 3.2 2.6.5-1.4-.2-4.2-2.4-5.5-2.2-1.4-5.2-1-7 .9s-2 4.9-.5 7c1.4 2 4.2 2.7 5.3 2.2-1.5-.6-2.5-1.7-2.6-3.3 0-1.3.5-2.2 1.4-3.1zM37.5 51c-2.5-1.4-3.1-4.1-1.2-5.3-.2 1.1 0 1.8.8 2.2.6.3 1.5.1 1.8-.5.2-.4.4-.9.3-1.3-.1-.4-.5-.8-.8-1.2.6.2 1.2.5 1.8.7.4-1.2.4-1.3-.1-1.8-1.2-1.2-2.6-1.6-4.2-1.2-1.6.4-2.7 1.5-3.1 3.1-.2.7-.3 1.4.1 2 .4.7.8 1.4 1.3 2.1.1.2.2.4.4.5.9.5 1.8.7 2.9.7zm-14.6-1.7c0 .7.2 1.5.8 2.2.9 1 2.2 1 3.2.1 1.3-1.3 1.2-3.8-.2-5-.5-.4-1-.5-1.6-.5-1.3.2-2.2 1.5-2.2 3.2z"/></svg>