<?xml version="1.0" standalone="no"?>
<!DOCTYPE svg PUBLIC "-//W3C//DTD SVG 20010904//EN"
 "http://www.w3.org/TR/2001/REC-SVG-20010904/DTD/svg10.dtd">
<svg version="1.0" xmlns="http://www.w3.org/2000/svg"
 width="512.000000pt" height="512.000000pt" viewBox="0 0 512.000000 512.000000"
 preserveAspectRatio="xMidYMid meet">
<metadata>
Created by potrace 1.11, written by Peter Selinger 2001-2013
</metadata>
<g transform="translate(0.000000,512.000000) scale(0.100000,-0.100000)"
fill="#000000" stroke="none">
<path d="M338 4600 c-172 -29 -304 -169 -329 -348 -6 -40 -8 -747 -7 -1752 l3
-1685 22 -57 c43 -114 108 -183 220 -236 l58 -27 2255 0 2255 0 58 27 c112 53
177 122 220 236 l22 57 3 1685 c1 1005 -1 1712 -7 1752 -25 183 -157 319 -338
348 -71 12 -4366 11 -4435 0z m907 -449 c3 -5 -27 -26 -66 -47 -94 -50 -162
-112 -196 -182 l-28 -57 -6 -485 c-4 -298 -11 -506 -17 -538 -32 -148 -116
-248 -257 -306 l-55 -22 57 -18 c77 -24 107 -40 154 -83 46 -42 72 -88 95
-170 14 -49 18 -139 23 -568 6 -509 6 -510 30 -563 30 -66 115 -146 204 -192
36 -19 63 -38 60 -43 -8 -14 -203 3 -274 24 -82 23 -179 92 -219 155 -59 93
-63 137 -69 704 -6 513 -6 515 -29 558 -51 95 -139 163 -232 178 -22 4 -39 11
-38 16 2 5 33 19 70 32 79 28 113 51 167 112 27 31 43 61 50 95 7 31 11 205
11 452 0 438 9 589 40 690 48 156 166 237 370 257 113 11 148 11 155 1z m2970
-34 c132 -61 203 -142 231 -262 14 -58 18 -161 23 -585 6 -513 6 -515 29 -562
44 -90 168 -178 250 -178 39 0 20 -22 -34 -40 -104 -36 -178 -92 -217 -164
-21 -40 -22 -54 -28 -551 -7 -537 -11 -585 -58 -689 -46 -104 -150 -177 -290
-202 -85 -15 -207 -18 -215 -6 -3 5 25 23 61 41 84 41 165 118 200 190 l28 56
7 490 c4 294 11 510 17 540 28 125 107 224 226 281 38 19 76 34 85 35 8 0 -12
8 -45 18 -152 44 -231 125 -265 271 -10 39 -15 201 -19 560 l-6 505 -28 56
c-35 72 -105 138 -196 184 -40 19 -70 39 -67 43 2 4 60 4 129 1 105 -6 135
-11 182 -32z m-1391 -117 c127 -39 220 -95 325 -194 155 -149 242 -331 257
-540 l6 -81 -149 -67 -148 -67 -7 122 c-9 147 -29 228 -75 304 -102 170 -263
263 -457 263 -158 0 -262 -43 -371 -154 -78 -79 -117 -143 -140 -231 -23 -88
-23 -1362 0 -1450 43 -164 188 -314 353 -365 135 -42 313 -21 427 51 144 90
255 264 255 403 0 77 1 78 154 149 79 37 146 67 151 67 16 0 -2 -292 -23 -371
-39 -147 -122 -281 -245 -395 -164 -153 -325 -214 -562 -214 -237 0 -398 61
-562 214 -124 116 -207 251 -249 411 -18 65 -19 118 -19 775 0 656 1 710 19
775 90 339 388 597 718 623 122 9 254 -2 342 -28z"/>
</g>
</svg>
