<svg xmlns="http://www.w3.org/2000/svg" width="36pt" height="36pt" version="1.1" viewBox="0 0 36 36">
 <g>
  <path style="fill:rgb(90.196%,90.196%,90.196%)" d="M 4.714844 3 C 3.855469 3 3 3.855469 3 4.714844 L 3 31.332031 C 3 32.144531 3.855469 33 4.667969 33 L 31.332031 33 C 32.144531 33 33 32.144531 33 31.332031 L 33 4.667969 C 33 3.855469 32.140625 3 31.332031 3 Z M 4.714844 3"/>
  <path style="fill:rgb(70.196%,70.196%,70.196%)" d="M 5.082031 3 C 4.527344 3 4.027344 3.273438 3.652344 3.652344 C 3.273438 4.027344 3 4.527344 3 5.082031 L 3 30.96875 C 3 31.507812 3.253906 32.003906 3.625 32.375 C 3.996094 32.746094 4.492188 33 5.03125 33 L 30.96875 33 C 31.507812 33 32.003906 32.746094 32.375 32.375 C 32.746094 32.003906 33 31.507812 33 30.96875 L 33 5.03125 C 33 4.492188 32.746094 3.996094 32.375 3.625 C 32.003906 3.253906 31.507812 3 30.96875 3 Z M 5.082031 3.832031 L 30.96875 3.832031 C 31.214844 3.832031 31.53125 3.980469 31.773438 4.222656 C 32.019531 4.46875 32.167969 4.785156 32.167969 5.03125 L 32.167969 30.96875 C 32.167969 31.214844 32.019531 31.53125 31.777344 31.777344 C 31.53125 32.019531 31.214844 32.167969 30.96875 32.167969 L 5.03125 32.167969 C 4.785156 32.167969 4.46875 32.019531 4.222656 31.777344 C 3.980469 31.53125 3.832031 31.214844 3.832031 30.96875 L 3.832031 5.082031 C 3.832031 4.804688 3.976562 4.472656 4.222656 4.222656 C 4.472656 3.976562 4.804688 3.832031 5.082031 3.832031 Z M 5.082031 3.832031"/>
  <path style="fill:#959595" d="M 8 18 L 12.445312 13.554688 L 16.890625 18 L 12.445312 22.445312 Z M 8 18"/>
  <path style="fill:#959595" d="M 13.554688 12.445312 L 18 8 L 22.445312 12.445312 L 18 16.886719 Z M 13.554688 12.445312"/>
  <path style="fill:#959595" d="M 19.109375 18 L 23.554688 13.554688 L 28 18 L 23.554688 22.445312 Z M 19.109375 18"/>
  <path style="fill:#959595" d="M 13.554688 23.554688 L 18 19.109375 L 22.445312 23.554688 L 18 28 Z M 13.554688 23.554688"/>
 </g>
</svg>
