<svg xmlns="http://www.w3.org/2000/svg" width="36pt" height="36pt" version="1.1" viewBox="0 0 36 36"> <g> <path style="fill:rgb(74.117%,59.215%,46.666%)" d="M 6 0.75 C 5.230469 0.75 4.5 1.480469 4.5 2.25 L 4.5 33.75 C 4.5 34.480469 5.269531 35.25 6 35.25 L 30 35.25 C 30.730469 35.25 31.5 34.480469 31.5 33.75 L 31.5 10.5 L 21.75 0.75 Z M 6 0.75"/> <path style="fill:rgb(0%,0%,0%);fill-opacity:0.196078" d="M 21.75 9 L 21.796875 9.046875 L 21.914062 9 Z M 23.25 10.5 L 31.5 18.75 L 31.5 10.5 Z M 23.25 10.5"/> <path style="fill:rgb(100.000%,100.000%,100.000%);fill-opacity:0.392157" d="M 21.75 0.75 L 31.5 10.5 L 23.25 10.5 C 22.519531 10.5 21.75 9.730469 21.75 9 Z M 21.75 0.75"/> <path style="fill:rgb(100.000%,100.000%,100.000%)" d="M 17.351562 14.125 L 18.648438 14.125 C 20.585938 14.125 20.90625 16.398438 20.90625 16.398438 L 20.90625 18.660156 C 20.90625 19.421875 19.289062 20.972656 19.289062 20.972656 L 19.289062 21.734375 L 21.875 23.230469 L 21.875 24.753906 L 17.679688 24.78125 L 14.125 24.78125 L 14.125 23.261719 L 16.710938 21.738281 L 16.710938 20.976562 C 16.710938 20.976562 15.089844 19.433594 15.09375 18.667969 L 15.09375 16.410156 C 15.09375 16.410156 15.414062 14.125 17.351562 14.125 Z M 17.351562 14.125"/> </g> </svg>
