<svg id="Layer_1" xmlns="http://www.w3.org/2000/svg" viewBox="0 0 100 100"><style>.st0{fill:#bababa}</style><path class="st0" d="M0 13v74.4l56.8 9.9V2.7L0 13z"/><path d="M34.8 68.3l-2.2-8.4-10.4-.4-2 8.1-6.6-.4 10-35.5 7.7-.4 11 37.8-7.5-.8z" fill="#fff"/><path class="st0" d="M99.8 62.6c-.2 2.2-3.3 4-9.2 5.5-5.9 1.3-13.2 2-22 2-2.6 0-5.1 0-7.5-.2v13.7c2.4.2 4.9.2 7.5.2 8.8 0 16.1-.9 22-2.4s9-3.3 9.2-5.7V62.6zm-31.1-9.9c-2.6 0-4.9 0-7.5-.2l.2 14.1c2.4 0 4.9.2 7.5.2 8.8 0 16.1-.7 22-2.4 5.9-1.5 8.8-3.3 9.2-5.7V45.2c-.2 2.2-3.3 4-9.2 5.5-6.1 1.3-13.4 2-22.2 2zm0-17.2c-2.6 0-4.9 0-7.5-.2v13.9c2.4.2 4.9.2 7.5.2 8.8 0 16.1-.9 22-2.4s9-3.3 9.2-5.7V28c-.2 2.2-3.3 4-9.2 5.5-5.9 1.3-13.2 2-22 2zm0-19.4c-2.6 0-4.9.2-7.5.4V32c2.4.2 4.9.2 7.5.2 8.8 0 16.1-.9 22-2.4s9-3.3 9.2-5.7c-.2-2.2-3.3-4.2-9.2-5.7-5.9-1.6-13.2-2.3-22-2.3zM27.3 37.9c-.2.9-.7 3.5-1.6 7.9l-1.8 7.7 7.5.2-1.9-7.7c-1.1-4.4-1.8-7.1-1.8-7.9l-.4-.2z"/></svg>