<svg xmlns="http://www.w3.org/2000/svg" viewBox="0 0 100 100"><path fill="#f44336" d="M81 9.3v6.5H69.6V9.3H30.4v6.5H19V9.3H6v17.9h88V9.3z"/><path fill="#cfd8dc" d="M19 27.2H6v70h88v-70H30.4z"/><path d="M19 2.8h11.4v13H19zm50.6 0H81v13H69.6z" fill="#e8e8e8"/><path d="M19 39.8h11.3V51H19V39.8zm16.9 0h11.3V51H35.9V39.8zm16.9 0h11.3V51H52.8V39.8zm16.9 0H81V51H69.7V39.8zM19 56.7h11.3V68H19V56.7zm16.9 0h11.3V68H35.9V56.7zm16.9 0h11.3V68H52.8V56.7zm16.9 0H81V68H69.7V56.7zM19 73.5h11.3v11.3H19V73.5zm16.9 0h11.3v11.3H35.9V73.5zm16.9 0h11.3v11.3H52.8V73.5zm16.9 0H81v11.3H69.7V73.5z" fill="#90a4ae"/></svg>