<svg xmlns="http://www.w3.org/2000/svg" viewBox="0 0 100 100"><path d="M37.9 92.5c-19 0-27.5-18.2-27.5-37.9s8.5-37.7 27.5-37.7c5.9 0 10.7 1.4 14.4 4.1l-2.5 6c-2.6-1.8-6.7-3-10.8-3-13.3 0-18.4 15.4-18.4 30.8 0 15.2 5.3 30.5 18.4 30.5 4.1 0 8.1-1.4 10.8-3l2.5 6.4c-3.8 2.2-8.6 3.8-14.4 3.8zm41.6-52.8v51.8h-9.4V39.7h-6.5v-5.9h6.5v-8.1c0-11 6-18.2 17.5-18.2.8 0 .8 0 2 .2v6h-.8c-5 0-9.3 2.5-9.3 11.7v8.5h10.1v5.9c0-.1-10.1-.1-10.1-.1z" fill="#a0c0f9" stroke="#a0c0f9" stroke-width="5" stroke-miterlimit="10"/></svg>