<svg xmlns="http://www.w3.org/2000/svg" viewBox="0 0 100 100"><style>.st1{fill:#fff2e3}.st2{fill:#c93}</style><path fill="#f2dbb6" d="M13.9 16.4h61v78h-61z" id="Layer_3"/><g id="Layer_2"><path class="st1" d="M8.7 8.7h59.1v7.7H8.7z"/><circle class="st1" cx="70.7" cy="70.7" r="23.6"/></g><g id="Layer_1"><path class="st2" d="M97.2 70.7c0-11.6-7.4-21.4-17.7-25V14.6h-5.9V8.7h5.9V2.8H11.6c-.2 0-2.1 0-4.3 1-2.2 1-4.7 3.8-4.6 7.8v79.8c0 5.9 5.9 5.9 5.9 5.9h62.3c14.6-.2 26.3-12 26.3-26.6zm-86-56.2c-.5-.1-1.3-.3-1.7-.7-.4-.4-.8-.7-.8-2.2.1-1.9.6-2 1.3-2.5.4-.2.9-.3 1.2-.4.3-.1.4 0 .4-.1h56.1v5.9H11.6c0 .1-.1.1-.4 0zm3.4 76.8V20.5h59.1v23.8c-1-.1-2-.2-3-.2-6.3 0-12.1 2.2-16.7 5.9H20.5v5.9h28.1c-1.2 1.8-2.2 3.8-2.9 5.9H20.5v5.9h23.8c-.1 1-.2 2-.2 3 0 8.4 3.9 15.8 9.9 20.7H14.6zm56.1 0C59.3 91.3 50 82.1 50 70.7 50 59.3 59.3 50 70.7 50c11.4 0 20.6 9.3 20.7 20.7-.1 11.4-9.3 20.6-20.7 20.6z"/><path class="st2" d="M20.5 38.2h47.2v5.9H20.5zm46.4 36.9c0-5.9 6.7-6.8 6.7-11 0-1.9-1.8-3.4-3.9-3.4-2.3 0-4.4 1.8-4.4 1.8L62.4 59s2.9-3 7.6-3c4.6 0 8.8 2.9 8.8 7.6 0 6.7-7.1 7.5-7.1 12v1.6h-5v-2h.2zm0 5.6h5v4.8h-5v-4.8z"/></g></svg>