<svg xmlns="http://www.w3.org/2000/svg" viewBox="0 0 100 100"><path d="M14.1 19.2c22-25.6 62.8-20.5 78 9.4H55.5c-6.6 0-10.9-.1-15.5 2.3-5.4 2.9-9.5 8.1-10.9 14.4l-15-26.1z" fill="#f44336"/><path d="M34.3 50c0 8.7 7.1 15.7 15.7 15.7s15.7-7 15.7-15.7-7-15.7-15.7-15.7-15.7 7-15.7 15.7z" fill="#2196f3"/><path d="M56.1 70.6c-8.8 2.6-19.2-.3-24.8-10.1-4.3-7.4-15.7-27.3-20.9-36.3C-7.8 52 7.9 89.9 40.8 96.4l15.3-25.8z" fill="#4caf50"/><path d="M64.6 34.3c7.3 6.8 9 17.9 4 26.5-3.8 6.4-15.8 26.6-21.6 36.4 34 2.1 58.7-31.2 47.5-62.9H64.6z" fill="#ffc107"/></svg>