<svg xmlns="http://www.w3.org/2000/svg" viewBox="0 0 100 100"><path d="M85.3 4H28.7C21 4 14.6 10.2 14.6 18.1v63.7H.4C.4 89.6 6.6 96 14.6 96h56.7c7.7 0 14.2-6.3 14.2-14.2V25.1h14.2v-7C99.4 10.2 93.2 4 85.3 4zm-7 76.6c0 4.6-3.7 8.3-8.3 8.3H18.1c3.5-2.4 3.5-7 3.5-7V18.1c0-3.9 3.1-7 7-7s7 3.1 7 7v7h42.5v55.4l.2.1zM42.9 18.1v-7h42.5c6.4 0 7 4.1 7 7H42.9zm6.8 19.6c.2-.4.3-.4.5 0l4.2 13.1c.2.4.5.7.9.7h13.8c.4 0 .5.2.2.5l-11.1 8.1c-.3.2-.5.7-.4 1.1l4.2 13c.2.4-.1.5-.4.2l-11.1-8.1c-.4-.2-.8-.2-1.1 0l-11.1 8.1c-.3.2-.5.2-.4-.2l4.2-13.1c.1-.4 0-.8-.4-1.1l-11.2-8.1c-.3-.2-.2-.4.2-.4h13.8c.5 0 .8-.3.9-.7 0-.1 4.3-13.1 4.3-13.1z" fill="#bababa" stroke="#bababa" stroke-width=".75" stroke-miterlimit="10"/></svg>