<svg xmlns="http://www.w3.org/2000/svg" viewBox="0 0 100 100"><path d="M62.6 82.1H17.9c-4.9 0-8.8-3.9-8.8-8.8s3.9-8.8 8.8-8.8h17.4c7.9 0 14.4-6.4 14.4-14.4s-6.4-14.4-14.4-14.4h-9.5c.2.8.3 1.8.3 2.8 0 1-.2 1.8-.3 2.8h9.5c4.9 0 8.8 3.9 8.8 8.8s-3.9 8.8-8.8 8.8H17.9c-7.9 0-14.4 6.4-14.4 14.4s6.4 14.4 14.4 14.4h44.7c-.2-.8-.3-1.8-.3-2.8s.1-1.8.3-2.8zm13.8-5.7c-4.7 0-8.5 3.8-8.5 8.5s3.8 8.5 8.5 8.5 8.5-3.8 8.5-8.5-3.8-8.5-8.5-8.5zM29.5 6.6H12c-1.5 0-2.8 1.1-2.8 2.8v21c-3.4 1.1-5.7 4.3-5.7 8 0 4.7 3.8 8.5 8.5 8.5s8.5-3.8 8.5-8.5c0-3.8-2.5-6.9-5.7-8v-6.5h14.7c1.5 0 2.8-1.1 2.8-2.8V9.4c-.1-1.6-1.3-2.8-2.8-2.8zm46.9 5.7c-11.1 0-20.1 9-20.1 20.1 0 6.1 2.6 11.6 7.2 15.4L74 68.4c1 2 3.8 2 4.9 0L89.3 48c4.6-3.8 7.2-9.5 7.2-15.4 0-11.1-9-20.3-20.1-20.3zm0 28.9c-4.7 0-8.5-3.8-8.5-8.5s3.8-8.5 8.5-8.5 8.5 3.8 8.5 8.5-3.8 8.5-8.5 8.5z" fill="#999"/></svg>