<svg xmlns="http://www.w3.org/2000/svg" viewBox="0 0 100 100"><path d="M96.6 45.7L54.3 3.4C51.9 1 48 1 45.5 3.4l-8.8 8.8L48 23.4c2.6-.9 5.6-.4 7.6 1.9 2 2 2.6 5 1.7 7.6l10.8 10.8c2.6-.9 5.6-.4 7.6 1.7 3 3 3 7.6 0 10.4-3 3-7.6 3-10.4 0-2.2-2.2-2.8-5.4-1.7-8L53.5 37.7V64c.7.4 1.3.7 2 1.5 3 3 3 7.6 0 10.4-3 3-7.6 3-10.4 0-3-3-3.2-7.6-.2-10.4.7-.7 1.5-1.3 2.2-1.7V37.1c-.7-.4-1.5-.9-2.2-1.7-2.2-2.2-2.6-5.4-1.5-8.2L32.3 16.5l-28.9 29c-2.4 2.4-2.4 6.3 0 8.7l42.3 42.3c2.4 2.4 6.3 2.4 8.8 0l42.1-42.1c2.4-2.4 2.4-6.3 0-8.7z" fill="#bababa"/></svg>