<svg xmlns="http://www.w3.org/2000/svg" viewBox="0 0 100 100"><path fill="#fc3952" d="M81.7 8.3V15H70V8.3H30V15H18.3V8.3H4.9v18.3h90.2V8.3z"/><path fill="#edeada" d="M18.3 26.6H4.9v71.8h90.2V26.6H30z"/><path d="M66.7 38.3H18.3v48.3h63.3V38.4H66.7zm-15 3.4h11.7v11.7H51.7V41.7zm11.7 26.7H51.7V56.7h11.7v11.7zM36.6 56.7h11.7v11.7H36.6V56.7zm0-15h11.7v11.7H36.6V41.7zm-15 0h11.7v11.7H21.6V41.7zm0 15h11.7v11.7H21.6V56.7zm11.7 26.7H21.6V71.7h11.7v11.7zm15 0H36.6V71.7h11.7v11.7zm15.1 0H51.7V71.7h11.7v11.7zm15 0H66.7V71.7h11.7v11.7zm0-15H66.7V56.7h11.7v11.7zM66.7 53.3V41.7h11.7v11.7H66.7z" fill="#cec9ae"/><path d="M18.3 1.6H30V15H18.3zm51.7 0h11.7V15H70z" fill="#28384c"/><path fill="#26b99a" d="M51.7 56.7h11.7v11.7H51.7z"/></svg>