<svg xmlns="http://www.w3.org/2000/svg" viewBox="0 0 100 100"><path d="M16.6 16.6C-1.9 35-1.9 65 16.6 83.4s48.4 18.5 66.8 0 18.5-48.4 0-66.8-48.4-18.5-66.8 0zm59.2 59.2c-14.3 14.3-37.5 14.3-51.8 0S9.7 38.3 24 24s37.5-14.3 51.8 0c14.4 14.4 14.4 37.6 0 51.8zM44.6 29.9c0-4 3.3-7.2 7.3-7.2S59.1 26 59 30c0 4-3.3 7.3-7.2 7.2-4-.1-7.3-3.4-7.2-7.3zm17.5 41.4c-.2.6-.6 1.3-1 1.7-2.6 2.7-5.8 4.2-9.5 4.3-1.8 0-3.5 0-5.3-.3-2.9-.4-6.6-4-6-7.8l1.2-7.8 2.4-13.5c0-.3.1-.6.1-.9 0-1.9-.6-2.6-2.5-2.8-.8-.1-1.6-.2-2.4-.4-.9-.3-1.3-1.1-1.3-1.8.1-.8.6-1.3 1.6-1.5.5-.1 1.1-.1 1.6-.1h13.6c1.7 0 2.7.8 2.7 2.5 0 1.4-.2 2.8-.5 4.2-.9 5.2-1.9 10.3-2.8 15.5-.3 1.7-.7 3.4-.9 5.1-.1.8 0 1.7.2 2.5.3 1.1 1.1 1.7 2.2 1.5.9-.1 1.8-.4 2.7-.8.7-.3 1.3-.8 2-1 1.3-.5 2.2.3 1.9 1.4z" fill="#bababa"/></svg>