<svg xmlns="http://www.w3.org/2000/svg" viewBox="0 0 100 100"><path d="M2.8 55V45c2.2-.2 3.9-.3 4.9-1 1-.3 1.9-1.3 2.7-2.4.8-1.2 1.3-2.5 1.7-4.4.2-1.3.5-3.5.5-6.7 0-5.4.2-9.1.8-11.3.5-2 1.5-3.9 2.7-5.1 1.3-1.2 3.4-2.2 5.9-3 1.7-.3 4.4-.8 8.3-.8h2.4v9.8c-3.2 0-5.4.2-6.2.7-.8.3-1.5.8-2.2 1.7-.5.7-.7 1.9-.7 3.5 0 1.7-.2 5.1-.5 9.8-.2 2.9-.5 5.1-1 6.6-.7 1.7-1.5 3-2.4 4.2-.8 1-2.4 2.2-4.2 3.4 1.7 1 3.2 2 4.2 3.2 1 1.2 1.9 2.9 2.5 4.5.7 1.9 1 4.2 1 7.2.2 4.5.2 7.4.2 8.8 0 1.9.2 3 .7 3.9.5.8 1.3 1.2 2.2 1.7.8.3 3 .7 6.2.7v9.8H30c-3.9 0-7.1-.2-8.9-.8-2.2-.7-3.9-1.7-5.4-3-1.5-1.3-2.4-3-3-5.1-.5-2-.7-5.2-.7-9.6 0-5.1-.2-8.4-.7-9.8-.7-2.2-1.7-3.9-3-4.9-.8-1-2.9-1.6-5.5-1.6zm94.1 0c-2.2.2-3.9.3-4.9 1-1 .3-1.9 1.3-2.7 2.4-.8 1.2-1.3 2.5-1.7 4.4-.2 1.3-.5 3.5-.5 6.7 0 5.4-.2 9.1-.8 11.3-.5 2.2-1.5 3.9-2.7 5.1-1.3 1.2-3.4 2.2-5.9 3-1.7.3-4.4.8-8.3.8H67v-9.8c3.2 0 5.1-.2 6.2-.7 1-.3 1.7-1 2.2-1.7.5-.7.7-1.9.7-3.5s.2-4.9.5-9.6c.2-2.9.7-5.2 1.3-6.7.7-1.9 1.5-3.2 2.5-4.4 1-1.2 2.4-2.2 4-3.2-2.7-1.7-4.4-2.9-5.2-4-1.3-1.9-2.4-4.2-2.7-6.7-.5-2-.7-6.2-.7-12.6 0-2-.2-3.4-.7-4.2-.5-.7-1-1.2-1.9-1.7-.8-.3-3-.7-6.4-.7v-9.8h2.4c3.9 0 7.1.2 8.9.8 2.2.7 3.9 1.7 5.4 3 1.5 1.3 2.4 3 3 5.1.5 2 .8 5.2.8 9.6 0 5.1.2 8.3.7 9.8.7 2.2 1.7 3.9 3 4.5 1.3 1 3.4 1.3 5.9 1.7V55zm-28.3-1c-1.7-.5-2.7-2-2.7-3.7 0-1.7 1.2-3.2 2.7-3.7.5-.2.8-.7.7-1.2-.5-1.9-1.2-3.5-2.2-5.1-.2-.5-.8-.7-1.3-.3-.5.3-1.2.5-1.9.5-2.2 0-3.9-1.9-3.9-3.9 0-.7.2-1.3.5-1.9.2-.5 0-1-.3-1.3-1.5-1-3.4-1.7-5.1-2.2-.5-.2-1 .2-1.2.7-.5 1.7-2 2.7-3.7 2.7-1.7 0-3.2-1.2-3.7-2.7-.2-.5-.7-.8-1.2-.7-1.9.5-3.5 1.2-5.1 2.2-.5.2-.7.8-.3 1.3.3.5.5 1.2.5 1.9 0 2.2-1.9 3.9-3.9 3.9-.7 0-1.3-.2-1.9-.5-.5-.2-1 0-1.3.3-1 1.5-1.7 3.4-2.2 5.1-.2.5.2 1 .7 1.2 1.7.5 2.7 2 2.7 3.7 0 1.7-1.2 3.2-2.7 3.7-.5.2-.8.7-.7 1.2.5 1.9 1.2 3.5 2.2 5.1.2.5.8.7 1.3.3.5-.3 1.2-.5 1.9-.5 2.2 0 3.9 1.9 3.9 3.9 0 .7-.2 1.3-.5 1.9-.2.5 0 1 .3 1.3 1.5 1 3.4 1.7 5.1 2.2h.2c.3 0 .8-.2 1-.7.5-1.7 2-2.7 3.7-2.7 1.7 0 3.2 1.2 3.7 2.7.2.5.7.8 1.2.7 1.9-.5 3.5-1.2 5.1-2.2.5-.2.7-.8.3-1.3-.3-.5-.5-1.2-.5-1.9 0-2.2 1.9-3.9 3.9-3.9.7 0 1.3.2 1.9.5.5.2 1 0 1.3-.3 1-1.5 1.7-3.4 2.2-5.1.2-.6-.2-1.1-.7-1.2zm-18.7 2.1c-3.4 0-6.1-2.7-6.1-6.1 0-3.4 2.7-6.1 6.1-6.1S56 46.6 56 50c0 3.5-2.7 6.1-6.1 6.1z" fill="#bababa" stroke="#bababa" stroke-width=".5" stroke-miterlimit="10"/></svg>