<svg xmlns="http://www.w3.org/2000/svg" viewBox="0 0 100 100"><path d="M92.5 31.8c4.4-10.7 4.7-19.4-.5-24.9-6-5.8-20.2-4-35.3 3.1h-1.8C44.2 10 34 13.8 26.2 20.7c-6.5 6-11.3 13.6-13.3 22.2 1.5-1.8 9.8-11.4 19.3-16.9.4 0 2.7-1.5 2.7-1.5-.4 0-4.7 4.4-5.6 5.3C8.6 51.1-3.4 83.2 6 92.7c6.2 6.2 17.4 4.7 30.3-2.4 5.6 2.7 11.8 3.8 18.5 3.8 8.9 0 17.1-2.4 24.2-7.1 7.5-4.7 12.7-12.2 16-20.7H72.2c-2.9 5.6-9.8 9.4-16.9 9.4-10 0-18.4-8.4-18.5-17.8v-.7H97v-.9c0-1.5.4-3.3.4-4.4-.2-7.2-2-13.9-4.9-20.1zM12.6 90.9C7.8 86.1 9.3 77 14.9 66.1 17.7 73.6 22 80 27.6 84.7c1.8 1.5 3.8 2.9 6 4.2-9.6 4.9-17.2 5.8-21 2zM73.1 46h-36v-.4c.5-9.1 9.1-17.1 19.3-17.1 9.4 0 17.1 7.5 17.8 17.1v.4h-1.1zm18-16.6c-1.8-2.9-4.2-6-6.7-8.4-4.2-3.8-8.9-6.9-14.2-8.9 9.4-4.4 17.4-5.1 21.6-.9 3.1 4.1 2.7 10.6-.7 18.2 0 .4 0 .4 0 0 0 .4 0 .4 0 0z" fill="#bababa"/></svg>