<svg xmlns="http://www.w3.org/2000/svg" viewBox="0 0 100 100"><path d="M91.9 34.5c-1.1-.2-2-.5-3.1-.2-2.4.2-5.1 1.5-7.5 2-1.8.2-3.3-1.1-3.4-3.1-.5-5.7-.5-11.6 0-17.3 0-.8-.7-1.3-1.3-1.3-6.5-.2-12.9.5-19.8 2-1.8.5-3.1 2-3.1 3.4.2 3.4 2.6 7.5 1.5 11.1-.8 3.3-3.4 5.7-7 6.4-3.3.7-6.9-.8-8.5-3.4-2.1-3.1-1.1-7.5-2-11.1-.5-1.8-2.1-2.6-3.9-2.4-6.5.7-12.9 2.1-19.1 4.6-.8.2-1.3 1.1-.8 1.8 2.4 5.2 4.1 10.8 5.7 16.5.5 1.8-.7 3.4-2.4 3.9-2.4.7-5.2.2-7.7.8-1.1.2-2 .7-2.8 1.3-3.1 2-4.4 5.2-3.9 8.5.5 3.1 2.8 5.7 5.7 7 3.8 1.3 7-1.1 10.8-1.3 1.8-.2 3.3 1.1 3.4 3.1.5 5.7.5 11.6 0 17.3 0 .8.7 1.3 1.3 1.3 6.5.5 13.1-.5 19.8-2 1.8-.5 3.1-2 3.1-3.4-.2-3.8-2.8-7.5-1.8-11.4.8-3.1 3.9-5.7 7-6.2s6.9.8 8.5 3.4c2.4 3.1 1.1 7.7 2 11.4.5 1.8 2.1 2.6 3.9 2.4 6.5-.7 13.1-2 19.1-4.6.8-.2 1.3-1.1.8-1.8-2.4-5.2-4.1-10.8-5.7-16.5-.5-1.8.7-3.4 2.4-3.9 3.4-.8 7.5.2 10.8-2.1 2.4-2 3.9-5.2 3.3-8.3.3-4.1-2.3-6.9-5.3-7.9z" fill="#bababa"/></svg>