<svg xmlns="http://www.w3.org/2000/svg" viewBox="0 0 100 100"><g fill="#edbe35"><path d="M34.1 77.8c0 3-2.4 5.7-5.7 5.7s-5.7-2.4-5.7-5.7V53.3c0-3 2.4-5.7 5.7-5.7s5.7 2.4 5.7 5.7v24.5zm16.3 6.5c0 3-2.4 5.7-5.7 5.7-3.3 0-5.4-2.4-5.4-5.7V47.1c0-3 2.4-5.7 5.7-5.7 3.3 0 5.7 2.4 5.7 5.7v37.2h-.3zM17.5 72.4c0 3-2.4 5.7-5.7 5.7s-5.7-2.4-5.7-5.7V59c0-3 2.4-5.7 5.7-5.7s5.7 2.7 5.7 5.7v13.4zm49.2 17.9c0 3-2.4 5.7-5.7 5.7-3 0-5.4-2.7-5.4-5.7V40.8c0-3 2.4-5.7 5.7-5.7 3 0 5.7 2.4 5.7 5.7v49.5h-.3z"/><path d="M84.6 87.8c-1.1 0-1.9-.3-3-.5l-6.8-2.2c-1.1-.3-1.9-1.6-1.4-2.7.3-1.1 1.6-1.9 2.7-1.4l7.1 2.2c1.4.5 3 .3 4.3-.8 1.4-.8 1.9-2.4 1.9-3.8V33.2c0-2.2-1.4-4.1-3.3-4.6L19.7 8.5c-1.4-.5-3-.3-4.3.5-1.1 1.1-1.9 2.4-1.9 4.1v31.2c0 1.4-1.1 2.2-2.2 2.2-1.4 0-2.2-1.1-2.2-2.2V13.1c0-3 1.4-5.7 3.8-7.3 2.4-1.9 5.4-2.2 8.2-1.4l66.3 20.1c3.8 1.1 6.5 4.9 6.5 9v45.4c0 3-1.4 5.7-3.8 7.6-1.7.5-3.6 1.3-5.5 1.3" stroke="#edbe35" stroke-width="3" stroke-miterlimit="10"/></g></svg>