<svg xmlns="http://www.w3.org/2000/svg" viewBox="0 0 100 100"><path d="M15.8 56.5c2.7 0 4.8-.4 6-1.5 1.2-1 2.1-2.7 2.6-5.1.4-2.3.3-3.7-.4-4.7-.7-.9-2.4-1.3-5-1.3h-4.4l-2.4 12.7c0-.1 3.6-.1 3.6-.1zM1.5 72c-.1 0-.4-.1-.4-.3-.1-.1-.1-.3-.1-.6l6.3-33.4c0-.3.3-.6.6-.6h13.8c4.4 0 7.5 1.2 9.6 3.6 2.1 2.4 2.7 5.7 1.8 9.8-.3 1.7-.9 3.3-1.7 4.7-.7 1.3-1.8 2.7-3 3.9-1.5 1.3-3.1 2.4-5 3-1.8.6-4 .9-6.9.9H11l-1.7 8.4c0 .3-.3.6-.6.6H1.5zm51.9-8.9c-.1 0-.4-.1-.4-.3-.1-.1-.1-.3-.1-.6l2.9-14.7c.3-1.3.1-2.4-.1-2.9-.3-.3-.9-.7-3-.7h-5.1l-3.4 18.5c0 .3-.3.6-.6.6h-7.1c-.1 0-.4-.1-.4-.3-.1-.2-.1-.4-.1-.7l6.3-33.4c0-.3.3-.6.6-.6H50c.1 0 .4.1.4.3.1.1.1.3.1.6L49 37h5.4c4.3 0 6.9.7 8.6 2.3 1.7 1.6 2.3 4 1.5 7.5l-3.1 15.7c0 .3-.3.6-.6.6h-7.4c0-.1 0 0 0 0zm27.3-6.6c2.9 0 5-.4 6.3-1.5s2.3-2.7 2.7-5.1c.4-2.3.3-3.7-.4-4.7-.7-.9-2.6-1.3-5.1-1.3h-4.5l-2.6 12.7c-.1-.1 3.6-.1 3.6-.1zM65.9 72c-.1 0-.4-.1-.6-.3-.1-.1-.1-.3-.1-.6l6.5-33.4c0-.3.3-.6.7-.6h14.3c4.5 0 7.8 1.2 10 3.6 2.1 2.4 2.7 5.7 2 9.8-.3 1.7-.9 3.3-1.7 4.7-.7 1.3-1.8 2.7-3.1 3.9-1.5 1.3-3.3 2.4-5.3 3-1.8.6-4.3.9-7.3.9h-5.7L74 71.4c0 .3-.3.6-.7.6h-7.4z" fill="#7a9ace"/></svg>