<svg id="Layer_1" xmlns="http://www.w3.org/2000/svg" viewBox="0 0 100 100"><style>.st1{fill:#fbe9e7}</style><path d="M94.6 13.2h-42v73.5h42c1.5 0 2.6-1.2 2.6-2.6V15.9c0-1.5-1.1-2.7-2.6-2.7z" fill="#ff8a65"/><path class="st1" d="M50 63.1h36.8v5.2H50zm0 10.5h36.8v5.3H50zm15.8-47.2c-8.7 0-15.8 7.1-15.8 15.8C50 50.9 57.1 58 65.8 58s15.8-7.1 15.8-15.8H65.8V26.4z"/><path class="st1" d="M71 21.1v15.8h15.8c0-8.7-7.1-15.8-15.8-15.8z"/><path fill="#e64a19" d="M57.9 97.3L2.8 86.8V13.2L57.9 2.7z"/><path d="M31.2 32H18.8v36h7.7V55.6h4c4.3 0 7.7-1.1 10.2-3.4 2.5-2.2 3.8-5.2 3.8-8.8C44.5 35.8 40 32 31.2 32zm-1.4 17.4h-3.3V38.2h3.3c4.2 0 6.3 1.8 6.3 5.5 0 3.9-2.1 5.7-6.3 5.7z" fill="#fff"/></svg>