<svg xmlns="http://www.w3.org/2000/svg" viewBox="0 0 100 100"><path d="M80.5 40.2c-5.9 0-7.9 3-7.9 5.5 0 2.7 1.3 4.6 9.3 8.7C93.6 60 97.2 65.5 97.2 73.5c0 12-9.1 18.4-21.5 18.4-6.5 0-12.1-1.3-15.3-3.2-.5-.2-.6-.6-.6-1.2v-11c0-.8.4-1 .9-.6 4.7 3.1 10.1 4.4 15 4.4 5.9 0 8.4-2.5 8.4-5.8 0-2.7-1.7-5.1-9.3-9-10.6-5.1-15-10.2-15-18.9 0-9.6 7.6-17.7 20.7-17.7 6.4 0 10.9 1 13.4 2.1.6.4.8 1 .8 1.5v10.3c0 .6-.4 1-1.1.8-3.4-2.1-8.3-3.4-13.1-3.4zm-64.4 8.9c1.7.1 3.1.1 6 .1 8.7 0 17-3.1 17-15 0-9.5-5.9-14.3-15.9-14.3-3 0-5.8.1-7.2.2l.1 29zM2.8 9.3c0-.5 1-.9 1.7-.9C9.3 8.2 16.4 8 23.8 8c20.7 0 28.8 11.4 28.8 25.9 0 19-13.8 27.2-30.7 27.2-2.9 0-3.9-.1-5.9-.1v28.7c0 .6-.2.9-.9.9H3.6c-.6 0-.9-.2-.9-.9l.1-80.4z" fill="#31c5f0"/></svg>