<svg xmlns="http://www.w3.org/2000/svg" viewBox="0 0 100 100"><path d="M68.4 73.6c0 1.5 1.2 2.6 2.6 2.6h23.6c1.5 0 2.6-1.2 2.6-2.6V15.9c0-1.5-1.2-2.6-2.6-2.6H71c-1.5 0-2.6 1.2-2.6 2.6v57.7z" fill="#26a69a"/><path d="M68.4 15.9v16.6l10.5 1.7 4.4-.9v-8.9L69.2 14c-.5.5-.8 1.2-.8 1.9z" fill="#00796b"/><path d="M81.5 23.8h-42v63h42c1.5 0 2.6-1.2 2.6-2.6V26.4c0-1.5-1.1-2.6-2.6-2.6z" fill="#57c4b4"/><path d="M39.5 60.5h36.8v5.2H39.5zm0-10.5h36.8v5.3H39.5zm0-15.8h36.8v10.5H39.5zm0 36.8h36.8v5.2H39.5z" fill="#e0f2f1"/><path fill="#00897b" d="M57.9 97.3L2.8 86.8V13.2L57.9 2.7z"/><path d="M31.2 32H18.8v36h7.7V55.6h4c4.3 0 7.7-1.1 10.2-3.4 2.5-2.2 3.8-5.2 3.8-8.8C44.5 35.8 40 32 31.2 32zm-1.4 17.4h-3.3V38.2h3.3c4.2 0 6.3 1.8 6.3 5.5 0 3.9-2.1 5.7-6.3 5.7z" fill="#fff"/></svg>