<svg xmlns="http://www.w3.org/2000/svg" viewBox="0 0 100 100"><path d="M63.1 47.6l-2.8 6.6-14.8-17.7c-.8-.9-.6-2.3.2-3l1.6-1.4c.9-.8 2.2-.7 3 .2l12 14.3.8 1zm-18.3.4l-8.3 20.6-5.8-2.4 8.2-20.6 5.9 2.4zm-11.4 5.7l-2.8 7-5.8.9-1-6.3 9.6-1.6zm20.9-3.3l4.8 5.7-16.4 2.6 2.9-6.9 8.7-1.4zm22.1 2.9l-3 .5 1.9-6.9h.1l1 6.4zm-46.2 15l5.4 2.3c-.1.1-.1.3-.2.4l-6.5 8 .9-10.4.1-.4.3.1zm16.5-25.1l-1.2 2.9-5.8-2.5 1.1-2.9c.4-1.1 1.7-1.6 2.7-1.2l2 .8c1.1.5 1.6 1.8 1.2 2.9zm29.7 21.7c0 3.7-1 5.3-1 5.3s-.8-2.6-4.8-4c-.2-.1-.4-.1-.5-.2l2.2-8.1c1.4.7 4.1 2.6 4.1 7z" fill="#4fc2f7"/><linearGradient id="a" gradientUnits="userSpaceOnUse" x1="-161.176" y1="7.461" x2="-161.176" y2="38.065" gradientTransform="translate(294.188 20.063) scale(1.5625)"><stop offset="0" stop-color="#6dc7ff"/><stop offset="1" stop-color="#e6abff"/></linearGradient><path d="M43.1 52.1l-1.5 3.8 1.5-3.8z" fill="url(#a)"/><linearGradient id="b" gradientUnits="userSpaceOnUse" x1="-160.536" y1="7.461" x2="-160.536" y2="38.065" gradientTransform="translate(294.188 20.063) scale(1.5625)"><stop offset="0" stop-color="#6dc7ff"/><stop offset="1" stop-color="#e6abff"/></linearGradient><path d="M43.6 51l-.5 1.1.5-1.1z" fill="url(#b)"/><linearGradient id="c" gradientUnits="userSpaceOnUse" x1="-148.152" y1="12.645" x2="-148.152" y2="26.641" gradientTransform="translate(294.188 20.063) scale(1.5625)"><stop offset="0" stop-color="#6dc7ff"/><stop offset="1" stop-color="#e6abff"/></linearGradient><path d="M63.1 47.6l-.8-1 .8 1z" fill="url(#c)"/><path d="M93.3 79.7L14.2 92.3l-9.7-64 78.7-12.1 10.1 63.5z" fill="none" stroke="#0998d8" stroke-width="6" stroke-miterlimit="10"/><path d="M97.5 13.7l-3.4 10.7-4.3-1.4c.2-.8.1-1.6-.9-2.4-.5-.4-1.2-.5-2-.5s-1.5.1-2.1.3c-.2.1-.4.2-.7.2l-.6.3c-.7.4-1.3 1-1.8 1.6s-.9 1.3-1.2 1.9c-.1.1-.1.2-.2.4-1.1 3.2-2.2 6.2-2.3 6.5l-4.4 14-12.8 46c-.5 2.2-3.6 3.9-6.6 3l-2-.6c-2.9-.9-4.5-4.2-3.4-7.1l18.5-43.3L70.9 32c.9-3.1 1.5-6.7 1.3-9.9-.1-1.8-.4-3.5-.9-5V17c-.2-.5-.4-1-.7-1.4-.6-1.1-1.4-2.1-2.5-2.9-3.1-2.3-6.5-3.1-15.5-3.1V8.4s4.3-3.2 17.1-3.2c6.3 0 13.3 2.7 17 5.1 0 0 1.8 3.4 4.2 3.4 1.3 0 1.8-.6 2.2-1.4l4.4 1.4z" fill="#0998d8"/></svg>