<svg xmlns="http://www.w3.org/2000/svg" viewBox="0 0 100 100"><linearGradient id="a" gradientUnits="userSpaceOnUse" x1="71.731" y1="64.65" x2="24.876" y2="64.65" gradientTransform="matrix(1 0 0 -1 0 100)"><stop offset="0" stop-color="#fcfcfd"/><stop offset="1" stop-color="#fff"/></linearGradient><path d="M3.3 56.8V16.2c0-1.3 1-2.3 2.3-2.3h31.5l9 6.8h45.1c1.3 0 2.3 1 2.3 2.3v33.8H3.3z" fill="url(#a)" stroke="#434242" stroke-width="2.5"/><linearGradient id="b" gradientUnits="userSpaceOnUse" x1="50.008" y1="14.724" x2="50.008" y2="51.486" gradientTransform="matrix(1 0 0 -1 0 100)"><stop offset="0" stop-color="#008bff"/><stop offset="1" stop-color="#0af"/></linearGradient><path d="M5.5 86.1H91c1.3 0 2.1-1.1 2.3-2.3L99 50c.2-1.2-1-2.3-2.3-2.3h-36l-9 6.8H3.3c-1.3 0-2.4 1-2.3 2.3l2.3 27c.1 1.3.9 2.3 2.2 2.3z" fill="url(#b)" stroke="#434242" stroke-width="2.5"/><path d="M10 18.5h24.8c1.3 0 2.3 1 2.3 2.3s-1 2.3-2.3 2.3H10c-1.3 0-2.3-1-2.3-2.3.1-1.4 1.1-2.3 2.3-2.3z" fill="#434242"/></svg>