<svg xmlns="http://www.w3.org/2000/svg" viewBox="0 0 100 100"><path d="M90 20H45L35 10H10C4.5 10 0 14.5 0 20v20h100V30c0-5.5-4.5-10-10-10z" fill="#999"/><path d="M90 20H10C4.5 20 0 24.5 0 30v50c0 5.5 4.5 10 10 10h80c5.5 0 10-4.5 10-10V30c0-5.5-4.5-10-10-10z" fill="#bababa"/><path d="M78.2 34c-.7.2-1.4.5-1.9.6-19.5 3.8-38.1 8.4-54.9 15v10.8c.9-.1 14.9-1.5 17-1.7 4.5-.4 19.6-2 25.4-1.6 1.2.2 3 .4 3.1 1.5.1.6-.4 1.1-.8 1.5l-.3.3c-2.8 2-6.2 3.3-9.8 4.5-10.6 3.5-22.5 5.9-34.7 7.8V76h1.3c12.3-2 24-5.1 35.3-8 7-1.8 13.9-4.5 20.4-6.9V48.7c-1.2.2-7.2 1-23.8 2.6-13.4 1.3-17.1.9-18.2.6 0 0-.1 0-.1-.1-.1-.1-.3-.2-.3-.3-.4-.4-.1-1.2.3-1.4.1-.2.2-.3.3-.3 1.2-1.1 2.7-1.8 4.3-2.4 3.1-1.4 6.5-2.5 9.9-3.5 1.7-.5 3.5-1 5.2-1.5 7-1.9 14.8-3.6 22.4-4.8V34h-.1z" fill="#888"/></svg>