<svg id="Layer_1" xmlns="http://www.w3.org/2000/svg" viewBox="0 0 100 100"><style>.st2{fill:#03a9f4}</style><path d="M90 20H45L35 10H10C4.5 10 0 14.5 0 20v20h100V30c0-5.5-4.5-10-10-10z" fill="#ffa000"/><path d="M90 20H10C4.5 20 0 24.5 0 30v50c0 5.5 4.5 10 10 10h80c5.5 0 10-4.5 10-10V30c0-5.5-4.5-10-10-10z" fill="#ffca28"/><g id="surface1_1_"><path class="st2" d="M74 72.3c0 1.5-1.2 2.7-2.7 2.7H28.7c-1.5 0-2.7-1.2-2.7-2.7V43c0-1.5 1.2-2.7 2.7-2.7h42.7c1.5 0 2.7 1.2 2.7 2.7v29.3z"/><path class="st2" d="M62 44.3c0 1.5-1.2 2.7-2.7 2.7H40.7c-1.5 0-2.7-1.2-2.7-2.7v-6.7c0-1.5 1.2-2.7 2.7-2.7h18.7c1.5 0 2.7 1.2 2.7 2.7v6.7z"/><path d="M70 47c0 1.5-1.2 2.7-2.7 2.7-1.5 0-2.7-1.2-2.7-2.7s1.2-2.7 2.7-2.7c1.5 0 2.7 1.2 2.7 2.7z" fill="#fff"/><path d="M63.3 57.7C63.3 65 57.4 71 50 71s-13.3-6-13.3-13.3 6-13.3 13.3-13.3 13.3 5.9 13.3 13.3z" fill="#b3e5fc"/><path d="M60.7 57.7c0 5.9-4.8 10.7-10.7 10.7s-10.7-4.8-10.7-10.7S44.1 47 50 47s10.7 4.8 10.7 10.7z" fill="#01579b"/><path d="M44.7 63c0 1.6.3 3 .9 4.4 1.3.6 2.8 1 4.4 1 5.9 0 10.7-4.8 10.7-10.7 0-1.6-.3-3-1-4.4-1.3-.6-2.8-1-4.4-1-5.9 0-10.6 4.8-10.6 10.7z" fill="#0277bd"/></g></svg>