<svg id="Layer_1" xmlns="http://www.w3.org/2000/svg" viewBox="0 0 100 100"><style>.st0{fill:#90a4ae}.st1{fill:#ffa000}.st2{fill:#ffca28}</style><g id="surface1"><path class="st0" d="M63.2 92.1H15.8v-71h5.3v65.7h42.1z"/><path class="st0" d="M18.4 44.7h44.7V50H18.4z"/><path class="st1" d="M35.5 5.3h-16L14.2 0H3.9C1.8 0 0 1.8 0 3.9v23.7c0 2.1 1.8 3.9 3.9 3.9h31.6c2.1 0 3.9-1.8 3.9-3.9V9.2c.1-2.1-1.8-3.9-3.9-3.9z"/><path class="st2" d="M35.5 5.3H3.9C1.8 5.3 0 7.1 0 9.2v18.4c0 2.1 1.8 3.9 3.9 3.9h31.6c2.1 0 3.9-1.8 3.9-3.9V9.2c.1-2.1-1.8-3.9-3.9-3.9z"/><path class="st1" d="M96.1 34.2H80l-5.3-5.3H64.5c-2.1 0-3.9 1.8-3.9 3.9v23.7c0 2.1 1.8 3.9 3.9 3.9h31.6c2.1 0 3.9-1.8 3.9-3.9V38.2c0-2.1-1.8-4-3.9-4z"/><path class="st2" d="M96.1 34.2H64.5c-2.1 0-3.9 1.8-3.9 3.9v18.4c0 2.1 1.8 3.9 3.9 3.9h31.6c2.1 0 3.9-1.8 3.9-3.9V38.2c0-2.1-1.8-4-3.9-4z"/><path class="st1" d="M96.1 73.7H80l-5.3-5.3H64.5c-2.1 0-3.9 1.8-3.9 3.9V96c0 2.1 1.8 3.9 3.9 3.9h31.6c2.1 0 3.9-1.8 3.9-3.9V77.6c0-2.1-1.8-3.9-3.9-3.9z"/><path class="st2" d="M96.1 73.7H64.5c-2.1 0-3.9 1.8-3.9 3.9V96c0 2.1 1.8 3.9 3.9 3.9h31.6c2.1 0 3.9-1.8 3.9-3.9V77.6c0-2.1-1.8-3.9-3.9-3.9z"/></g></svg>