<svg xmlns="http://www.w3.org/2000/svg" viewBox="0 0 100 100"><path d="M90 20H45L35 10H10C4.5 10 0 14.5 0 20v20h100V30c0-5.5-4.5-10-10-10z" fill="#ffa000"/><path d="M90 20H10C4.5 20 0 24.5 0 30v50c0 5.5 4.5 10 10 10h80c5.5 0 10-4.5 10-10V30c0-5.5-4.5-10-10-10z" fill="#ffca28"/><path d="M25.1 35.7v42h51.7v-42H25.1zm9.8 38.8h-6.4v-6.4h6.4v6.4zm0-9.6h-6.4v-6.4h6.4v6.4zm0-9.8h-6.4v-6.4h6.4v6.4zm0-9.7h-6.4V39h6.4v6.4zm9.7 22.7V45.4l16.1 11.3c0 .1-16.1 11.4-16.1 11.4zm29 6.4h-6.4v-6.4h6.4v6.4zm0-9.6h-6.4v-6.4h6.4v6.4zm0-9.8h-6.4v-6.4h6.4v6.4zm0-9.7h-6.4V39h6.4v6.4z" fill="#23a586"/></svg>