<svg id="Layer_1" xmlns="http://www.w3.org/2000/svg" viewBox="0 0 100 100"><style>.st0{fill:#c6f}</style><path class="st0" d="M51.8 74.1c0-13.4 10.9-24.3 24.3-24.3 5.9 0 11.4 2.1 15.6 5.7 2.6-20-8.7-39.9-28.3-47.4-23-8.8-48.9 2.7-57.7 25.7s2.7 48.9 25.7 57.7c9.6 3.7 19.7 3.8 28.9 1.1-5.2-4.5-8.5-11.1-8.5-18.5zm9.5-60.4c4.1 1.6 7.8 3.9 10.9 6.7l-15 14.9c-1-.8-2.2-1.4-3.5-1.9-1.3-.5-2.6-.8-3.8-.9l-1.2-21.1c4.2 0 8.4.7 12.6 2.3zM33.6 85.8c-4.1-1.6-7.8-3.9-10.9-6.7l15-14.9c1 .8 2.2 1.4 3.5 1.9 1.3.5 2.6.8 3.8.9l1.2 21.1c-4.2 0-8.5-.7-12.6-2.3zm10.5-27.4c-4.8-1.8-7.1-7.2-5.3-11.9 1.8-4.8 7.2-7.1 11.9-5.3 4.8 1.8 7.1 7.2 5.3 11.9-1.8 4.7-7.1 7.1-11.9 5.3z"/><path class="st0" d="M76.6 53.6c-11.4 0-20.7 9.3-20.7 20.7 0 11.4 9.3 20.7 20.7 20.7s20.7-9.3 20.7-20.7c0-11.5-9.3-20.7-20.7-20.7zm0 36.3c-8.6 0-15.6-7-15.6-15.6s7-15.6 15.6-15.6 15.6 7 15.6 15.6-7 15.6-15.6 15.6z"/><path class="st0" d="M79.1 79.9c0 3.1-2.5 5.7-5.7 5.7s-5.7-2.6-5.7-5.7 2.5-5.7 5.7-5.7 5.7 2.6 5.7 5.7z"/><path class="st0" d="M85.4 65.2l-8.9-2.4v17.1H79v-12l6.3 1.8v-4.5z"/></svg>