<svg xmlns="http://www.w3.org/2000/svg" viewBox="0 0 100 100"><path d="M39.5 23.5c8.9-.7 11.5-6.4 22-7.5 5.1-.5 8.4.7 8.7 2.4.3 1.7-2.3 2.8-5.4 3.1-4.4.5-6.1-1.2-6.4-2.6-3.1.3-3.7 1.7-3.5 2.6.3 1.9 4.2 3.7 10.8 3 7.5-.7 9.9-3.5 9.2-6.4-.7-3.8-6.5-7-16.7-6.1-13.2 1.2-13.1 7.3-22.1 8-3.7.3-5.8-.5-6.1-1.9-.2-1.4 1.6-2.1 3.7-2.3 1.9-.2 4.4.2 5.6.7.9-.5 1.2-.9 1-1.4-.3-1.4-3.1-1.9-6.5-1.7-6.6.7-6.6 3.7-6.4 4.9.8 3.4 5.9 5.7 12.1 5.2zm44.9 15c-8.2 1.9-18.8 3.1-31.6 3.1-12.9 0-23.5-1.4-31.7-3.1-7.3-1.9-11.3-4-12.7-6.1.7 4.9 1.9 9.4 3.5 13.9-1.9 1.2-3.7 2.6-5.1 4.5-3 3.7-4.2 8-4 12.2.2 4.2 2.3 7.7 5.6 10.3 3.5 2.6 7.1 3.5 11.3 2.6 1.6-.2 3.5-1.2 5.1-1.6-3.5 0-6.3-1.2-9.2-3.5-3.1-2.3-5.4-5.6-5.8-9.4-.7-3.7 0-7.1 2.1-10.1.5-.7.9-1 1.4-1.6 1.2 3 2.4 5.6 4 8.4 3.1 4.9 6.3 9.1 9.4 13.6 1.4 2.6 2.3 5.4 3 8 2.1 3 5.1 4.9 8.7 6.1 4.5 1.6 9.2 2.3 14.1 2.3h.5c4.9 0 9.9-.7 14.5-2.3 3.5-1.2 6.3-3.1 8.5-6.1h.2c.5-2.3 1.4-5.2 2.6-7.8 3.1-4.5 6.3-8.7 9.4-13.6 4.2-7.7 7.1-16.4 8.7-25.6-1.4 2.1-5.4 4.2-12.5 5.8zm-63.2-6.6C29.4 34 40 35 52.8 35c12.9 0 23.2-1.2 31.6-3.1 8.7-2.1 12.9-4.9 12.9-7.3 0-1.9-1.9-3.7-5.4-5.1.7.5 1.4 1.4 1.4 2.3 0 2.6-4 4.9-11.9 6.6-7.3 1.6-16.7 2.8-28.2 2.8-11.2 0-20.9-1.2-28.1-2.6-7.7-1.9-11.7-4-11.7-6.6 0-1.2.5-2.1 2.1-3.1-4.9 1.9-7.3 3.5-7.3 5.8 0 2.6 4.2 5.2 13 7.2z" fill="#90a0ba"/></svg>