<svg xmlns="http://www.w3.org/2000/svg" viewBox="0 0 100 100"><path d="M19.1 64.5c-4.8 1.3-8.4 5.6-8.4 10.9 0 5.2 3.6 9.6 8.4 10.9V95h5.6v-8.8c4.8-1.3 8.4-5.6 8.4-10.9 0-5.2-3.6-9.6-8.4-10.9V5h-5.6v59.5zm8.4 10.8c0 3.1-2.5 5.6-5.6 5.6s-5.6-2.5-5.6-5.6 2.5-5.6 5.6-5.6 5.6 2.5 5.6 5.6zm11.3-50.6c0 5.2 3.6 9.6 8.4 10.9V95h5.6V35.5c4.8-1.3 8.4-5.6 8.4-10.9s-3.6-9.6-8.4-10.9V5h-5.6v8.8c-4.9 1.3-8.4 5.7-8.4 10.9zm16.8 0c0 3.1-2.5 5.6-5.6 5.6s-5.6-2.5-5.6-5.6 2.5-5.6 5.6-5.6 5.6 2.5 5.6 5.6zm11.3 33.7c0 5.2 3.6 9.6 8.4 10.9V95h5.6V69.3c4.8-1.3 8.4-5.6 8.4-10.9s-3.6-9.6-8.4-10.9V5h-5.6v42.6c-4.8 1.2-8.4 5.6-8.4 10.8zm16.9 0c0 3.1-2.5 5.6-5.6 5.6-3.1 0-5.6-2.5-5.6-5.6 0-3.1 2.5-5.6 5.6-5.6 3 0 5.6 2.5 5.6 5.6z" fill="#bababa" stroke="#bababa" stroke-width="2.5" stroke-miterlimit="10"/></svg>