<svg xmlns="http://www.w3.org/2000/svg" viewBox="0 0 100 100"><path d="M46.5 75.9v-8.8c0-.8-.3-.8-.7-.5-3.1 1-6 1.4-10.3 1.4-9.5 0-21-6-21-26.2 0-16.4 8.4-25.9 21-25.9 4.4 0 8.3.8 10.9 2 .3.1.8.1.8-.8V7.7c0-.6-.1-1-.7-1.2-2-1-6-1.5-11.1-1.5-20 .1-33 14.9-33 36.9 0 25.7 14.8 36.7 31.6 36.7 4.6 0 9.1-.5 11.9-1.6.4-.1.6-.5.6-1.1zm20.9-40.8c1.7-.5 3.4-.8 5.7-.8 8.2 0 12.9 5.8 12.9 16.4C85.9 63.8 78.4 69 71 69c-1.2 0-2.6-.1-3.5-.5l-.1-33.4zm6.9-11c-7.6 0-14.1 2.2-18.5 3.6-.2.1-.9.8-.9.9.2 1.5.6 4 .6 5.2v60.4c0 .5.5.7 1 .7l10.2-1c.5-.1.5-.6.5-1V78.8c1 .1 2.2 0 3 0 13.8 0 27.3-9.6 27.3-29 .2-14.7-7.9-25.7-23.2-25.7z" fill="#5fb66b"/></svg>