<svg xmlns="http://www.w3.org/2000/svg" viewBox="0 0 100 100"><path d="M44.2 49.9c0 1.5.6 3 1.7 4.1 2.3 2.3 6 2.3 8.3 0 1.1-1.1 1.7-2.6 1.7-4.1 0-1.5-.6-3-1.7-4.1-1.1-1.1-2.6-1.7-4.1-1.7s-3 .6-4.1 1.7-1.8 2.6-1.8 4.1zM16.6 16.5C-1.9 35-1.9 64.8 16.6 83.3s48.3 18.5 66.8 0 18.5-48.3 0-66.8c-18.5-18.3-48.3-18.3-66.8 0zm69.8 53.2c-1.7 3.2-4 6-6.6 8.7-2.6 2.6-5.7 4.9-8.7 6.6L60.2 64.1s.9-.4 3-2.3c2.1-2.1 2.5-3 2.5-3l20.7 10.9zM58.3 41.6c2.3 2.3 3.4 5.3 3.4 8.3 0 3-1.1 6-3.4 8.3-4.5 4.5-12.1 4.5-16.6 0-2.3-2.3-3.4-5.3-3.4-8.3 0-3 1.1-6 3.4-8.3 4.4-4.6 11.7-4.7 16.3-.3l.3.3zm-16-8.3s-2.3 1.3-4.1 3.4c-1.7 1.9-1.9 2.3-2.5 3.2L14.9 28.8c1.7-3.2 4-6 6.6-8.7 2.6-2.6 5.7-4.9 8.7-6.6l12.1 19.8z" fill="#bababa"/></svg>