<svg xmlns="http://www.w3.org/2000/svg" viewBox="0 0 100 100"><path d="M91.8 7.9H8.4c-3.2 0-5.7 2.5-5.7 5.7v57.9c0 3.2 2.5 5.7 5.7 5.7h83.3c3.2 0 5.7-2.5 5.7-5.7v-58c.1-3.1-2.4-5.6-5.6-5.6z" fill="#bababa"/><path d="M8.4 21.8h83.5v49.4H8.4V21.8z" fill="#f2f2f2"/><circle cx="23.5" cy="15.3" r="1.8" fill="#54b845"/><circle cx="17" cy="15.3" r="1.8" fill="#fbd303"/><circle cx="10.7" cy="15.3" r="1.8" fill="#f0582f"/><path d="M78.3 58.7l-5.5-1.5c-.5-2.3-1.5-4.5-2.7-6.5l2.8-4.8c.3-.5.2-1.3-.2-1.7l-4-4c-.5-.5-1.2-.5-1.7-.2l-4.8 2.8c-2-1.2-4.2-2.2-6.5-2.7l-1.5-5.5c-.2-.7-.7-1-1.3-1h-5.7c-.7 0-1.2.5-1.3 1l-1.7 5.3c-2.3.5-4.5 1.5-6.5 2.7l-5-2.7c-.5-.3-1.3-.2-1.7.2l-4 4c-.5.5-.5 1.2-.2 1.7l2.8 4.8c-1.2 2-2.2 4.2-2.7 6.5l-5.5 1.5c-.7.2-1 .7-1 1.3v5.7c0 .7.5 1.2 1 1.3l5.5 1.5c.5 2.3 1.5 4.5 2.7 6.5l-2.8 5c-.3.5-.2 1.3.2 1.7l4 4c.5.5 1.2.5 1.7.2l4.8-2.8c2 1.2 4.2 2.2 6.5 2.7l1.5 5.5c.2.7.7 1 1.3 1h5.7c.7 0 1.2-.5 1.3-1l1.5-5.5c2.3-.5 4.5-1.5 6.5-2.7l4.8 2.8c.5.3 1.3.2 1.7-.2l4-4c.5-.5.5-1.2.2-1.7l-2.8-4.8c1.2-2 2.2-4.2 2.7-6.5l5.5-1.5c.7-.2 1-.7 1-1.3V60c.4-.4.1-.9-.6-1.3zM50.1 73.5c-5.8 0-10.5-4.7-10.5-10.5s4.7-10.5 10.5-10.5S60.6 57.2 60.6 63c0 5.9-4.7 10.5-10.5 10.5z" fill="#6eb1e1"/></svg>