<svg xmlns="http://www.w3.org/2000/svg" viewBox="0 0 100 100"><path d="M19.6 36.2l40.2-6.7 1.5 6.5L21 42.9l-1.4-6.7zm5.2 23.9l20.3-3.8v-5.5c0-.5 0-1 .2-1.5l-21.8 4.1 1.3 6.7zm4 17.4l16.5-3.3v-7.1l-18.1 3.4 1.6 7zM24.6 89L11.2 27.6l52.6-8.4L68.1 38c1 0 1.9-.2 2.9-.2L63.2 2.7 4.5 11.3 22.4 93l22.9-4.8v-.3l-.2-2.9-20.5 4z" fill="#39c"/><path d="M72.3 41.7c-12.7 0-23.2 4.1-23.2 9.3v9.3c0 5.2 10.3 9.3 23.2 9.3 12.7 0 23.2-4.1 23.2-9.3V51c-.2-5.1-10.5-9.3-23.2-9.3zm0 16.2c-12.7 0-20.8-4.1-20.8-6.9 0-2.8 8.1-6.9 20.8-6.9 12.7 0 20.8 4.1 20.8 6.9 0 2.8-8.1 6.9-20.8 6.9zm23.2 20.8V88c0 5.2-10.5 9.3-23.2 9.3-12.9 0-23.2-4.1-23.2-9.3v-9.3c0 5.2 10.5 9.3 23.2 9.3s23-4.1 23.2-9.3zm0-13.9v9.3c0 5.2-10.5 9.3-23.2 9.3-12.9 0-23.2-4.1-23.2-9.3v-9.3c0 5.2 10.5 9.3 23.2 9.3s23-4.1 23.2-9.3z" fill="#0cf"/></svg>