<svg xmlns="http://www.w3.org/2000/svg" viewBox="0 0 100 100"><path d="M79.8 77.2h2.3c0 6.9-1.1 11.9-3.4 15.1s-5 5-8.3 5c-2.7 0-5.5-1.1-8-3-2.5-2-4.8-7.6-6.9-16.9l-5.7-25.6-19.5 44.4H17.8L46 35.5c-1.4-7.8-3.2-13.7-5.5-17.4-2.1-3.7-4.8-5.7-7.8-5.7-2.5 0-4.8.9-6.6 2.8-1.8 1.8-2.8 5-3 8.9h-2.3c.2-6.6 1.4-11.5 3.7-15.5C27 4.9 30 2.7 33.7 2.7c2.3 0 4.6.9 6.7 2.8s3.9 5.3 5.5 9.9 3.9 14.6 7.3 29.3L58 66.2c1.8 8.7 3.7 14.4 6 17.2 2.3 2.8 4.6 4.4 7.5 4.4 5-.1 7.8-3.5 8.3-10.6z" fill="#bababa" stroke="#bababa" stroke-width="1.5" stroke-miterlimit="10"/></svg>