<svg xmlns="http://www.w3.org/2000/svg" viewBox="0 0 100 100"><path d="M94.5 20.6c-3.3-6-9.3-8-13.5-8-5.3-.2-9.5 2.8-8.6 4.8.2.3 1.2 2.5 1.8 3.3.8 1.2 2.5.3 3 0 1.7-.8 3.3-1.2 5.3-.8 2 .2 4.3 1.3 6 4.5 3.8 7.5-8.3 23.3-23.6 12.3s-30.1-7.2-36.7-5.2c-6.7 2.2-9.8 4.3-7.2 9.5 3.7 6.8 2.5 4.8 6 10.5 5.7 9 17.8-4.2 17.8-4.2C35.6 60.6 28 57.5 25 52.8c-2.7-4.2-4.8-9.1-4.8-9.1C-2.6 51.8 3.5 87.4 3.5 87.4H15c3-13.1 13.3-12.6 15.1 0h8.6c7.8-25.6 27.3 0 27.3 0h11.3c-3.2-17.6 6.3-23.1 12.3-33.3 5.5-9.9 11.2-22.6 4.9-33.5zM65.2 54.3c-6-2-3.8-8-3.8-8s5.3 1.8 12.3 4c-.5 2-4.2 5.5-8.5 4z" fill="#74b8c4"/></svg>