<svg id="Layer_1" xmlns="http://www.w3.org/2000/svg" viewBox="0 0 100 100"><style>.st0{fill:#4a92c3}</style><path class="st0" d="M98.4 75.6c0-3.8-3.1-6.7-6.7-6.7H8.3c-3.8 0-6.7 3.1-6.7 6.7v9.6c0 3.8 3.1 6.7 6.7 6.7h83.5c3.8 0 6.7-3.1 6.7-6.7l-.1-9.6zm-36 8.7c-2 0-3.9-1.7-3.9-3.9 0-2.4 1.9-3.9 3.9-3.9s3.9 1.7 3.9 3.9c0 2.4-1.7 3.9-3.9 3.9zm11.8 0c-2 0-3.9-1.7-3.9-3.9 0-2.4 1.7-3.9 3.9-3.9 2 0 3.9 1.7 3.9 3.9 0 2.4-1.9 3.9-3.9 3.9zm11.6 0c-2 0-3.9-1.7-3.9-3.9 0-2.4 1.7-3.9 3.9-3.9 2 0 3.9 1.7 3.9 3.9 0 2.4-1.7 3.9-3.9 3.9zM8.3 64.9h83.5c1.9 0 3.8.5 5.1 1.4l-8.2-16.9c-2.4-5-6-6.7-9.7-6.7h-9L56.7 56c-.9.9-2 1.7-3.2 2-1.2.5-2.6.7-3.8.7-1.4 0-2.6-.2-3.8-.7h-.5c-.9-.5-1.9-1.2-2.7-1.9l-13-14h-9c-3.8 0-7.2 2-9.7 6.7L2.8 66c1.7-.6 3.2-1.1 5.5-1.1z"/><path class="st0" d="M69.4 36c.5-.5.7-.9 1.2-1.7.2-.7.5-1.2.5-2 0-.7-.2-1.4-.5-1.9-.2-.7-.7-1.2-1.2-1.7s-1.2-.9-1.7-1.2c-.5-.2-1.2-.5-1.9-.5s-1.4.2-1.9.5c-.7.2-1.2.7-1.7 1.2l-7.5 7.5v-23c0-.7-.2-1.4-.5-1.9-.2-.7-.7-1.2-1.2-1.7s-.9-.9-1.7-1.2c-.5-.2-1.2-.2-1.9-.2s-1.4 0-1.9.2c-.7.2-1.2.7-1.7 1.2s-.9.9-1.2 1.7c-.3.9-.5 1.2-.5 1.9v23.4L36.6 29c-.5-.5-.9-.9-1.7-1.2-.5-.2-1.2-.5-1.9-.5s-1.4.2-1.9.5c-.5.2-1.2.7-1.7 1.2s-.9.9-1.2 1.7c-.2.7-.5 1.2-.5 1.9s.2 1.4.5 2c.2.7.7 1.2 1.2 1.7l16 16.2c.5.5.9.9 1.7 1.2.5.2 1.2.5 1.9.5s1.4-.2 1.9-.5c.7-.2 1.2-.7 1.7-1.2 0 .1 16.8-16.5 16.8-16.5z"/></svg>