<svg xmlns="http://www.w3.org/2000/svg" viewBox="0 0 100 100"><path d="M58.7 77.5c-6.4-6.4-14.2.5-21.1 6.5-8.6 7.8-14.7 12.4-20 7.1-3.8-3.8-3.8-8.8 0-13.7l3.5 3.5c.9.9 2.4.9 3.3 0l41.3-37.7-17.1-16.9-38 41c-.9.9-.9 2.4 0 3.3l3.6 3.6c-6.7 8.1-4.5 16.1-.2 20.4 9 9 18.8.2 26.6-6.9 6.9-6.2 11.4-9.7 14.3-6.9 1 .9 2.6.7 3.5-.3 1-.8 1-2.2.3-3zm-12-29.1c-.9.9-2.4.9-3.5 0-.9-.9-.9-2.4 0-3.5l3.5-3.5c.9-.9 2.4-1 3.5 0 .9.9 1 2.4 0 3.5l-3.5 3.5zm22-8.8c.5.5 1 .7 1.7.7 3.5 0 6.9-.9 10-2.8L54 11.3c-1.7 2.9-2.8 6.4-2.8 10 0 .7.2 1.2.7 1.7l16.8 16.6zM84.4 7.3c-7.6-7.6-19.9-7.6-27.3 0l27.5 27.5c7.3-7.6 7.3-19.9-.2-27.5z" fill="#c6f"/></svg>