<svg xmlns="http://www.w3.org/2000/svg" viewBox="0 0 100 100"><path d="M54.4 10.7L38 27.1c4.8-1.4 10-1.4 15-.2.7.2 1.4.5 1.9.7l8.1-8.1c4.8-4.8 12.6-4.8 17.4 0 4.8 4.8 4.8 12.6 0 17.4l-11 11-6.4 6.4c-1.6 1.6-3.4 2.6-5.5 3.1-4.1 1-8.6.2-11.9-3.1-2.2-2.2-3.3-5-3.4-7.8-1 .3-1.9.9-2.6 1.7L32 55.9c1.2 2.6 2.8 5.2 5 7.2 3.1 3.1 7.1 5.3 11 6.4 6.4 1.7 13.3.9 18.9-2.6 1.7-1 3.4-2.2 4.8-3.8l17.4-17.4c9.6-9.6 9.6-25.3 0-35-9.4-9.6-25.1-9.6-34.7 0zM62 72.9c-5.5 1.6-11.4 1.4-16.9-.5L37 80.5c-4.8 4.8-12.6 4.8-17.4 0s-4.8-12.6 0-17.4L37 45.7c1.6-1.6 3.4-2.6 5.5-3.1 4.1-1 8.6-.2 11.9 3.1 2.2 2.2 3.3 5 3.4 7.9.9-.3 1.7-1 2.6-1.7l7.6-7.6c-1.2-2.6-2.8-5.2-5-7.2-3.3-3.1-7.1-5.3-11-6.4-6.4-1.7-13.3-.9-19 2.6-1.7 1-3.4 2.2-4.8 3.8L10.8 54.3c-9.6 9.6-9.6 25.3 0 35s25.3 9.6 35 0L62 72.9z" fill="#bababa"/></svg>