<svg id="Layer_1" xmlns="http://www.w3.org/2000/svg" viewBox="0 0 100 100"><style>.st1{fill:#9c27b0}.st2{fill:#fff}</style><path d="M78.9 57.9c0 1.4 1.2 2.6 2.6 2.6h13.1c1.4 0 2.6-1.2 2.6-2.6V42.1c0-1.4-1.2-2.6-2.6-2.6H81.5c-1.4 0-2.6 1.2-2.6 2.6v15.8zm0 26.2c0 1.4 1.2 2.6 2.6 2.6h13.1c1.4 0 2.6-1.2 2.6-2.6V68.4c0-1.4-1.2-2.6-2.6-2.6H81.5c-1.4 0-2.6 1.2-2.6 2.6v15.7z" fill="#ce93d8"/><path class="st1" d="M86.7 13.3H55.2v73.5h31.5c1.4 0 2.6-1.2 2.6-2.6V15.9c.1-1.5-1.1-2.6-2.6-2.6z"/><path class="st1" d="M78.9 31.6c0 1.4 1.2 2.6 2.6 2.6h13.1c1.4 0 2.6-1.2 2.6-2.6V15.9c0-1.4-1.2-2.6-2.6-2.6H81.5c-1.4 0-2.6 1.2-2.6 2.6v15.7z"/><path class="st2" d="M55.2 65.7h23.6v7.9H55.2zm0-13.1h23.6v7.9H55.2zm0-13.1h23.6v7.9H55.2zm0-13.1h23.6v7.9H55.2z"/><path fill="#7b1fa2" d="M57.9 97.3L2.8 86.8V13.3L57.9 2.8z"/><path class="st2" d="M42.5 67.9h-7.2L22.2 45.3c-.8-1.3-1.3-2.3-1.6-3h-.1c.1 1.3.2 3.2.2 5.8v19.8h-6.8v-36h7.7l12.6 21.9c.6 1 1.1 2 1.6 3h.1c-.1-.8-.2-2.5-.2-5V31.9h6.8v36z"/></svg>