<svg xmlns="http://www.w3.org/2000/svg" viewBox="0 0 100 100"><path d="M65 38.1h32.4v5.2H65v-5.2zm-63.4 14h95.9v5.7H1.6v-5.7zm0 14h95.9v5.7H1.6v-5.7zm53.8-51.6H59c5.3.3 9.5 1.7 13.5 3.3 7.9-3.5 18.9-.8 25.9 1.8-8.9-.8-19.4 0-25.4 3.5-6.4-4.8-17.9-6.4-28.7-4.8 3.1-2.1 6.8-3.3 11.1-3.8zm-2.5 13.4c-6.4.3-11.5 2.5-15 5.3-10.5-4.7-28.6-2.7-35.3 3.7-.7.3-1.2.8-1 1.5 6-1.8 13.2-3.3 20.6-2.7s12.9 3 17 6.4c7.5-6.9 18.9-10.7 33.1-10.5-5-2.2-12.2-4.1-19.4-3.7zM1.6 79.8h95.9v5.7H1.6v-5.7z" fill="#1a75ce" stroke="#1a75ce" stroke-width=".5" stroke-miterlimit="10"/></svg>