<svg id="Layer_1" xmlns="http://www.w3.org/2000/svg" viewBox="0 0 100 100"><style>.st5{fill:#e15a23}</style><path d="M79 14.8v80.6c0 1.7-1.4 3-3 3H9.5c-1.7 0-3-1.4-3-3V4.6c0-1.7 1.4-3 3-3h56.1L79 14.8z" fill="#fcfcfc"/><path d="M79 14.8H68.7c-1.7 0-3-1.4-3-3V1.6L79 14.8z" fill="#e5e5e5"/><path d="M14.8 22.2h55.8V24H14.8zm0 9.3h55.8v1.8H14.8zm0 9.4h55.8v1.8H14.8zm0 9.6h55.8v1.8H14.8zm0 9.3h55.8v1.8H14.8zm0 9.4h55.8V71H14.8zm0 9.4h55.8v1.8H14.8zm0 9.5h55.8v1.8H14.8z" fill="#ebebeb"/><path d="M87.6 36.1l-9.5-9.5 5-5c1.2-1.2 3-1.2 4.2 0l5.3 5.3c1.2 1.2 1.2 3 0 4.2l-5 5z" fill="#f7747e"/><path transform="rotate(-45.001 58.387 55.827)" fill="#ef8720" d="M28.2 49h60.3v13.6H28.2z"/><path transform="rotate(-45.001 81.189 33.079)" class="st5" d="M77 26.3h8.5v13.6H77z"/><path transform="rotate(-45.001 58.387 55.827)" class="st5" d="M28.2 53.4h60.3v4.8H28.2z"/><path fill="#fce0b9" d="M41.9 81.9L28.4 89l-6.8 3.7 2.8-5.3 7.8-15z"/><path fill="#58717f" d="M28.4 89l-6.8 3.7 2.8-5.3z"/></svg>