<svg xmlns="http://www.w3.org/2000/svg" viewBox="0 0 100 100"><path d="M48 98.4c-11.7-.4-19-3.9-20.9-10.1l-.2-.7v-12c0-13.8 0-14 .7-16.2 1.3-3.9 4.5-6.5 9.3-7.6l1.1-.2h13.6c9.7 0 13.8 0 14.2-.2 2.8-.6 4.5-1.1 6.2-2.4 2.1-1.5 3.7-4.1 4.3-6.9.6-2.1.6-1.9.6-9.1v-6.7h9.7l.9.2c5 1.5 8.8 6.2 10.3 13.4.6 2.8.6 3 .6 10.1 0 6.9 0 6.9-.6 9.3-.6 2.2-1.1 4.1-2.1 6-1.9 3.7-4.7 6.3-8.2 7.5-2.1.7-.4.6-20 .7H49.8v3.4h23.5V89c-.2.7-.4 1.7-.9 2.6-.6.9-2.1 2.4-3 3.2-3.2 2.1-8 3.4-14.4 3.7h-7zm16.2-7.5c2.2-.4 3.9-2.6 3.5-4.8-.4-1.9-1.7-3.2-3.5-3.5-2.8-.4-5.2 2.1-4.8 4.8.4 2.1 2.1 3.4 4.1 3.5h.7zM13.8 73.8c-2.6-.6-5.2-2.1-7.1-4.5-3.5-4.3-5.2-11.6-5-20.7.2-5.6.9-9.9 2.8-13.4 2.2-4.7 5.6-7.3 10.1-8.2.9-.2 1.1-.2 18.3-.2h17.5c.2 0 .2-.2.2-1.7v-1.7H27.1v-6.2c0-6.7 0-6.5.6-7.8 2.1-4.3 7.8-6.9 17.2-7.6.7 0 2.4-.2 4.1-.2C59.4 1.4 66.9 3.3 71 7c.4.4.9 1.1 1.3 1.3.6.7 1.3 2.2 1.7 3.4l.2.7v12.7c0 11.7 0 12.7-.2 13.4-.2 1.1-.7 2.6-1.1 3.4-1.5 2.8-4.1 4.8-7.6 5.8-2.2.6-1.3.6-16.2.7-14.9 0-14 0-16 .6-4.1 1.1-7.1 4.3-8.2 8.8-.6 2.1-.6 1.9-.6 9.1v6.9h-4.5c-4.3.2-5.6.2-6 0zm24.8-56.7c1.7-.7 2.8-2.8 2.4-4.5-.4-1.7-1.5-3-3-3.4-2.4-.7-5 .7-5.4 3.4-.4 2.1.7 4.1 2.8 4.7.4.2.7.2 1.5.2 1 0 1.2 0 1.7-.4z" fill="#fed142"/><path d="M13.8 73.8c-2.6-.6-5.2-2.1-7.1-4.5-3.5-4.3-5.2-11.6-5-20.7.2-5.6.9-9.9 2.8-13.4 2.2-4.7 5.6-7.3 10.1-8.2.9-.2 1.1-.2 18.3-.2h17.5c.2 0 .2-.2.2-1.7v-1.7H27.1v-6.2c0-6.7 0-6.5.6-7.8 2.1-4.3 7.8-6.9 17.2-7.6.7 0 2.4-.2 4.1-.2C59.4 1.4 66.9 3.3 71 7c.4.4.9 1.1 1.3 1.3.6.7 1.3 2.2 1.7 3.4l.2.7v12.7c0 11.7 0 12.7-.2 13.4-.2 1.1-.7 2.6-1.1 3.4-1.5 2.8-4.1 4.8-7.6 5.8-2.2.6-1.3.6-16.2.7-14.9 0-14 0-16 .6-4.1 1.1-7.1 4.3-8.2 8.8-.6 2.1-.6 1.9-.6 9.1v6.9h-4.5c-4.3.2-5.6.2-6 0zm24.8-56.7c1.7-.7 2.8-2.8 2.4-4.5-.4-1.7-1.5-3-3-3.4-2.4-.7-5 .7-5.4 3.4-.4 2.1.7 4.1 2.8 4.7.4.2.7.2 1.5.2 1 0 1.2 0 1.7-.4z" fill="#3571a3"/></svg>