<svg xmlns="http://www.w3.org/2000/svg" viewBox="0 0 100 100"><path d="M41.5 3c-1.1 0-2 .8-2.5 1.7l-2.5 4.7H19.2c-1.7 0-3.3 1.4-3.3 3.1-.2 27.1.5 54 0 81 0 1.7 1.6 3.4 3.3 3.4h61.6c1.7 0 3.3-1.6 3.3-3.3v-81c0-1.6-1.6-3.3-3.3-3.3H63.3l-2.5-4.7c-.7-1-1.8-1.6-3-1.6H41.5zM22.4 16h11.4c0 3.3.3 6.4 3.3 6.4h26c3.3 0 3.3-3.3 3.3-6.4h11.4v74.4H22.7c0-24.7-.2-49.6-.3-74.4zm8.1 17.7h38.9v6.4H30.5v-6.4zm0 13h38.9v6.4H30.5v-6.4zm0 13h38.9v6.4H30.5v-6.4zm0 13h26v6.4h-26v-6.4z" fill="#efc75e" stroke="#efc75e" stroke-miterlimit="10"/></svg>