<svg xmlns="http://www.w3.org/2000/svg" viewBox="0 0 100 100"><path d="M53.9 54.3l5.8 1.6L63 43.4l-5.6-1.6c0-2-.3-4.1-.8-6.1l5.2-3-6.4-11.3-5.4 3.2c-1.4-1.4-3.1-2.7-4.9-3.8l1.6-5.8-12.5-3.3-1.6 5.8c-2 0-4.1.3-6.1.8l-3-5.2-11.1 6.6 3 5.2c-1.4 1.4-2.7 3.1-3.8 4.9L6 28.2 2.7 40.7l5.6 1.6c0 2 .3 4.1.8 6.1l-5.2 3 6.4 11.3 5.2-3c1.4 1.4 3.1 2.7 4.9 3.8L18.9 69l12.5 3.3 1.6-5.8c2 0 4.1-.3 6.1-.8l3 5.2 11.3-6.4-3-5.2c1.3-1.6 2.6-3.3 3.5-5zm-31-6.6c-3.1-5.5-1.3-12.5 4.2-15.8 5.5-3.1 12.5-1.3 15.8 4.2 3.1 5.5 1.3 12.5-4.2 15.8-5.6 3.2-12.6 1.3-15.8-4.2zm60.7 39.8l7.4-4.2-2-3.4c.9-.9 1.7-2 2.3-3.1l3.8.9 2.2-8.1-3.8-.9c0-1.3-.2-2.7-.5-3.9l3.3-1.9-4.1-7.5-3.2 1.7c-.9-.9-2-1.7-3.1-2.3l.9-3.8-8.1-2.2-.9 3.8c-1.3 0-2.7.2-3.9.5L72 49.8 64.6 54l1.9 3.3c-.9.9-1.7 2-2.3 3.1l-4.2-.9-2.2 8.3 3.8.9c0 1.3.2 2.7.5 3.9l-3.3 1.9 4.2 7.4 3.3-1.9c.9.9 2 1.7 3.1 2.3l-.9 3.8 8.1 2.2.9-3.8c1.3 0 2.7-.2 3.9-.5.2.2 2.2 3.5 2.2 3.5zm-12.5-15c-2-3.6-.8-8.3 2.8-10.3 3.6-2 8.3-.8 10.3 2.8 2 3.6.8 8.3-2.8 10.3-3.7 2-8.2.8-10.3-2.8z" fill="#bababa"/></svg>