<svg xmlns="http://www.w3.org/2000/svg" viewBox="0 0 100 100"><path d="M18 63.9l-4.8 17.7c-.1.5-.3.9-.9.9H3.4c-.6 0-.7-.2-.6-.9L20 21.8c.3-1.1.5-2 .6-5.1 0-.4.2-.6.5-.6h12.6c.4 0 .6.1.7.6l19.3 64.9c.1.5 0 .8-.5.8h-10c-.5 0-.8-.4-.9-.7l-5-17.9H18zM34.8 54c-1.7-6.7-5.7-21.3-7.2-28.3h-.1c-1.2 7.1-4.5 19-6.9 28.3h14.2zm62.1 18.8c0 .7.1 2.8.3 6.2 0 .4-.1.6-.4.7-5.3 2-11.3 4.1-18.7 4.1-9.1 0-17.8-3.5-17.8-17.5V34.4c0-.5.2-.8.7-.8h9.7c.5 0 .7.3.7.8V65c0 5.9 2.5 9.1 8.7 9.1 2.5 0 4.6-.5 6.1-1.1V34.4c0-.5.2-.8.7-.8H96c.6 0 .7.3.7.8l.2 38.4z" fill="#00e4bb" stroke="#00e4bb" stroke-width="1.5" stroke-miterlimit="10"/></svg>