<svg xmlns="http://www.w3.org/2000/svg" viewBox="0 0 100 100"><path d="M64.1 61.6c.3-1 .8-2 1.2-3l5.5-17c.7-2.2 1.5-4.3 2.8-6.2 2.2-3 5.2-4.5 8.7-5 1.3-.2 2.8-.3 4.2-.3H100c-.2.2-.2.5-.2.5-1.5 2.8-3.2 5.5-4.7 8.3-2.8 4.8-5.7 9.7-8.5 14.3-1.8 3-3.8 6-6.2 8.7-1.7 2-3.5 4-5.7 5.3-1.5 1-3.2 1.5-5 1.5H50c-2 0-3.7-.7-5-2-2-1.8-3.3-4.3-4.3-6.8-1.8-4.7-2.8-9.5-4-14.3-.5-2.3-1.2-4.5-1.8-6.8 0-.2-.2-.3-.2-.5l-.5.5c-2.5 2.5-4.8 5.3-6.8 8.3-.5.8-.7 1.8-1 2.8-1.2 3.5-2.2 7.2-3.3 10.7-1.2 3.3-3.3 6-6.5 7.7-2 1-4 1.5-6.2 1.5-3.2 0-6.3 0-9.5.2-.8 0-.8 0-.7-.8 1.3-5 3-10 5.2-14.7 2.2-4.8 4.8-9.7 8.2-13.8 2.2-2.8 4.7-5.7 7.8-7.7 1.5-1 3.3-1.8 5.2-2H48c3.7 0 6.2 1.5 8.2 4.3 1.2 1.8 2.2 3.8 2.8 5.8 1.5 4.2 2.3 8.3 3.5 12.7.7 2.5 1.3 4.8 1.8 7.3-.5.2-.5.3-.2.5z" fill="#bababa"/></svg>