<svg xmlns="http://www.w3.org/2000/svg" viewBox="0 0 100 100"><linearGradient id="a" gradientUnits="userSpaceOnUse" x1="1.262" y1=".147" x2="1.262" y2="2.67" gradientTransform="scale(39.6201 35.5033)"><stop offset="0" stop-color="#f88a36"/><stop offset="1" stop-color="#fd2020"/></linearGradient><path d="M75.5 88.6c-11.8 6.8-28 7.5-44.3.5C17.9 83.5 7 73.7 0 62.4c3.4 2.9 7.3 5 11.5 7 16.9 7.9 33.7 7.3 45.5 0C40.2 56.7 25.8 39.8 15.2 26c-2.3-2.3-3.9-5-5.6-7.5 13 11.8 33.4 26.7 40.8 30.8C35 33 21.2 12.7 21.7 13.4 46.1 38 68.8 52.2 68.8 52.2c.7.4 1.3.7 1.8 1.1.5-1.3.9-2.5 1.3-3.9 3.9-14.4-.6-30.8-10.4-44.2C84.3 19 97.7 44.8 92.1 66.3c-.2.5-.4 1.1-.5 1.8l.2.2c11.3 14 8.1 28.9 6.8 26.2-6.1-11.9-17.4-8.3-23.1-5.9z" fill="url(#a)"/></svg>