<svg xmlns="http://www.w3.org/2000/svg" viewBox="0 0 100 100"><path d="M33.7 4.6c-7 0-12.7 5.7-12.7 12.8s5.7 12.7 12.7 12.7c2.2 0 4.1-.7 6-1.5l5.2 5.2-14.6 14.6c-2.6 2.6-2.6 6.5 0 9.1l.5.5 29.6-29.6c1.7 1 3.8 1.5 6 1.5 7.1 0 12.7-5.7 12.7-12.7S73.5 4.5 66.4 4.5s-12.7 5.7-12.7 12.7c0 2.2.7 4.1 1.5 6L50 28.4l-5.2-5.2c1-1.7 1.5-3.8 1.5-6 .2-6.9-5.7-12.6-12.6-12.6zm0 7.3c3.1 0 5.5 2.4 5.5 5.5s-2.4 5.5-5.5 5.5-5.5-2.4-5.5-5.5 2.4-5.5 5.5-5.5zm32.7 0c3.1 0 5.5 2.4 5.5 5.5s-2.4 5.5-5.5 5.5-5.5-2.4-5.5-5.5 2.4-5.5 5.5-5.5zM10 37.3c-.5 0-1 0-1.5.2s-.9.2-1.4.3c-.3.2-.9.3-1.2.7-.3.2-.7.5-1 .9-.3.3-.5.7-.9 1-.2.3-.5.7-.7 1.2v.2c-.2.3-.3.9-.3 1.2v.2c-.2.5-.2.9-.2 1.4v43.7c0 .5 0 1 .2 1.5s.2.9.3 1.4c.2.3.3.9.7 1.2.2.3.5.7.9 1 .3.3.7.5 1 .9.3.2.7.5 1.2.7h.2c.3.2.9.3 1.2.3h.2c.5.2.9.2 1.4.2h80c.5 0 1 0 1.5-.2s.9-.2 1.4-.3c.3-.2.9-.3 1.2-.7.3-.2.7-.5 1-.9.3-.3.5-.7.9-1 .2-.3.5-.7.7-1.2V91c.2-.3.3-.9.3-1.2v-.2c.2-.5.2-.9.2-1.4V44.6c0-.5 0-1-.2-1.5s-.2-.9-.3-1.4c-.2-.3-.3-.9-.7-1.2-.2-.3-.5-.7-.9-1-.3-.3-.7-.5-1-.9-.3-.2-.7-.5-1.2-.7h-.2c-.3-.2-.9-.3-1.2-.3h-.2c-.5-.2-.9-.2-1.4-.2H60.9l-7.2 7.2h29.1c0 4 3.3 7.2 7.2 7.2v29.1c-4 0-7.2 3.3-7.2 7.2H17.4c0-4-3.3-7.2-7.2-7.2V52c4 0 7.2-3.3 7.2-7.2h8.4l7.2-7.2H10v-.3zM50.1 52c-8.1 0-14.6 7.4-14.6 16.4 0 5.2 2.2 9.8 5.5 12.7h18c3.3-2.9 5.5-7.6 5.5-12.7.2-9.2-6.3-16.4-14.4-16.4zM21 62.8c-2.1 0-3.6 1.5-3.6 3.6S18.9 70 21 70s3.6-1.5 3.6-3.6-1.7-3.6-3.6-3.6zm58.2 0c-2.1 0-3.6 1.5-3.6 3.6s1.5 3.6 3.6 3.6 3.6-1.5 3.6-3.6-1.6-3.6-3.6-3.6z" opacity=".9" fill="#b5d38a" stroke="#b5d38a" stroke-width=".5" stroke-miterlimit="10"/></svg>