<svg xmlns="http://www.w3.org/2000/svg" viewBox="0 0 100 100"><path d="M91.8 3.5H19.3c-.9 0-1.9.9-1.9 1.9V11c0 .9.9 1.9 1.9 1.9h67.9v67.9c0 .9.9 1.9 1.9 1.9h5.6c.9 0 1.9-.9 1.9-1.9V8.1c-.1-2.7-2-4.6-4.8-4.6zM76 22.1H5.4c-.9 0-1.9.9-1.9 1.9v70.7c0 .9.9 1.9 1.9 1.9H76c.9 0 1.9-.9 1.9-1.9V24c0-1-.9-1.9-1.9-1.9zM36 85.3c0 .9-.9 1.9-1.9 1.9H14.7c-.9 0-1.9-.9-1.9-1.9v-5.6c0-.9.9-1.9 1.9-1.9h19.5c.9 0 1.9.9 1.9 1.9v5.6zm0-18.6c0 .9-.9 1.9-1.9 1.9H14.7c-.9 0-1.9-.9-1.9-1.9v-5.6c0-.9.9-1.9 1.9-1.9h19.5c.9 0 1.9.9 1.9 1.9v5.6zm32.6 18.6c0 .9-.9 1.9-1.9 1.9H47.2c-.9 0-1.9-.9-1.9-1.9v-5.6c0-.9.9-1.9 1.9-1.9h19.5c.9 0 1.9.9 1.9 1.9v5.6zm0-18.6c0 .9-.9 1.9-1.9 1.9H47.2c-.9 0-1.9-.9-1.9-1.9v-5.6c0-.9.9-1.9 1.9-1.9h19.5c.9 0 1.9.9 1.9 1.9v5.6zm0-18.6c0 .9-.9 1.9-1.9 1.9h-52c-.9 0-1.9-.9-1.9-1.9V33.3c0-.9.9-1.9 1.9-1.9h52.1c.9 0 1.9.9 1.9 1.9v14.8z" fill="#bababa"/></svg>