<svg xmlns="http://www.w3.org/2000/svg" viewBox="0 0 100 100"><path d="M6.1 18.2v3l-3.4 1.3v-3c.1.2 3.4-1.3 3.4-1.3zm0 28v3l-3.4 1.3v-2.9c.1.1 3.4-1.4 3.4-1.4zm0 28.4v3L2.7 79v-2.9c.1.1 3.4-1.5 3.4-1.5zm-.3-47v2.7l-2.9 1.2v-2.7c0 .2 2.9-1.2 2.9-1.2zm0 9.5v2.7l-2.7 1v-2.7l2.7-1zm0 18.9v2.7l-2.9 1.2V57c0 .2 2.9-1 2.9-1zm0 9.4v2.7l-2.9 1.2v-2.5l2.9-1.4zm8.6-45.3v3.5l-4.6 1.5v-3.4l4.6-1.6zm0 28.3v3.4l-4.6 1.7v-3.4l4.6-1.7zm0 28.5v3.4L9.8 82v-3.4l4.6-1.7zm-.2-47.1V33l-3.7 1.3v-3.2l3.7-1.3zm0 9.5v3.2l-3.7 1.4v-3.2l3.7-1.4zm0 18.9v3.2l-3.7 1.3v-3.2l3.7-1.3zm0 9.4v3.2l-3.7 1.3V69l3.7-1.4zm9-45.5v4.1l-5.9 2.2v-4.1l5.9-2.2zm0 28.3v4.1l-5.9 2.2v-4.1l5.9-2.2zm0 28v4.2l-5.9 2.2v-4.2l5.9-2.2zm-.4-46.5v3.7l-4.9 1.9V34c0 .1 4.9-2.1 4.9-2.1zm0 9.4v3.5l-4.9 1.9v-3.5l4.9-1.9zm0 18.9v3.5l-4.9 1.9v-3.5l4.9-1.9zm0 9.1V73l-4.9 1.9v-3.5l4.9-2.1zm9.6-47.4v5.2l-7.4 3v-5.2l7.4-3zm0 28.4v5.2l-7.4 3v-5.2l7.4-3zm0 28v5.2l-7.4 3v-5.2l7.4-3zm-.3-46.6v4.9L26 38.8v-4.7l6.1-2.4zm0 9.4v4.7L26 48.6v-4.9l6.1-2.6zm0 18.9v4.9L26 67.5v-4.9l6.1-2.6zm0 9.2v4.9L26 76.2v-4.7c0 .2 6.1-2.3 6.1-2.3zm10-48.1v6.8l-8.3 3.4v-6.8l8.3-3.4zm0 28.3v6.8l-8.3 3.4v-6.8l8.3-3.4zm0 28v6.8l-8.3 3.4v-6.8l8.3-3.4zm-.4-46v5.7L35 40v-5.7l6.7-2.9zm0 8.9V46L35 48.9v-5.7l6.7-2.9zm0 19.2v5.7l-7.3 2.9v-5.7l7.3-2.9zm0 9.3v5.7L35 77.4v-5.7l6.7-2.9zM52 17.5V27l-8.8 3.7v-8.8c3.1-1.7 6.1-3.4 8.8-4.4zm0 10.3v8.3l-8.6 3.7v-8.3l8.6-3.7zm0 9.3v8.3l-8.8 3.7v-8.3l8.8-3.7zm0 9.3v8.3l-8.6 3.7v-8.3l8.6-3.7zm0 9.1v8.4l-8.8 3.7V59l8.8-3.5zm0 9.4v8.3l-8.8 3.9v-8.4c.2 0 8.8-3.8 8.8-3.8zm0 9.3V83c-3.5 1.2-6.2 2.7-8.8 3.9V78c.2-.1 8.8-3.8 8.8-3.8zm45.2-56.5v66.1c-5.6-3.7-12.7-5.4-20.8-5.4-6.8 0-14.7 1.4-23.3 4.2v-8.9c4.6-1.7 9.6-3.2 15-3.9V48.6c-4.6.5-9.6 2-15 4.7v-6.1c4.7-2 9.6-3.7 15-4.4V21.7c-4.7.8-9.8 2.7-15 4.9v-9.3c7.8-3.4 15-4.9 22.4-4.9 7.9-.1 15.2 1.6 21.7 5.3zm-8.9 5.7c-3.7-1.7-7.9-2.9-13-2.9-.5 0-1 0-1.7.2v21.4h1.9c4.4 0 8.6.7 12.8 1.9V23.4zm0 27c-3.9-1.5-8.3-2.7-12.8-2.7-.5 0-1.2 0-1.7.2v21.6h1.9c4.7 0 8.9.5 12.8 1.7V50.4h-.2zM94 86.7v-1.3h-.5V85h1.4v.2h-.5v1.5H94zm1.4 0V85h.3l.5 1.2.5-1.2h.3v1.7h-.2v-1.3l-.5 1.4H96l-.5-1.2V87h-.2l.1-.3z" fill="#90c9c4"/></svg>