<svg xmlns="http://www.w3.org/2000/svg" viewBox="0 0 100 100"><path d="M50 2.738c-26.1 0-47.2 21.2-47.2 47.3s21.2 47.2 47.2 47.2 47.2-21.2 47.2-47.2-21.1-47.3-47.2-47.3zm-3.3 7.2v14.8H35.3c2.6-7.6 6.6-13.1 11.4-14.8zm6.6 0c4.9 1.7 8.8 7.3 11.4 14.8H53.3v-14.8zm-18.5 2.4c-2.4 3.4-4.5 7.6-6.1 12.4H18.2c4.3-5.5 10-9.8 16.6-12.4zm30.4 0c6.6 2.6 12.3 6.9 16.6 12.4H71.3c-1.6-4.8-3.7-9-6.1-12.4zm-51.3 18.9h12.9c-1.1 4.8-1.8 10-2 15.4H9.5c.4-5.5 2-10.7 4.4-15.4zm19.4 0h13.4v15.4H31.4c.2-5.4.8-10.6 1.9-15.4zm20 0h13.4c1.1 4.7 1.8 10 2 15.4H53.3v-15.4zm19.9 0h12.9c2.4 4.7 4 9.9 4.4 15.4H75.2c-.2-5.4-.9-10.6-2-15.4zm-63.7 22h15.3c.2 5.4.9 10.6 2 15.4H13.9c-2.4-4.7-4-9.9-4.4-15.4zm21.9 0h15.3v15.4H33.3c-1-4.7-1.7-10-1.9-15.4zm21.9 0h15.3c-.2 5.4-.9 10.6-2 15.4H53.3v-15.4zm21.9 0h15.3c-.4 5.5-2 10.7-4.4 15.4H73.2c1.1-4.8 1.8-9.9 2-15.4zm-57.1 22h10.5c1.6 4.8 3.7 9 6.1 12.5-6.5-2.7-12.2-7-16.6-12.5zm17.1 0h11.5v14.8c-4.9-1.7-8.8-7.2-11.5-14.8zm18.1 0h11.5c-2.7 7.6-6.6 13.1-11.5 14.8v-14.8zm18.1 0h10.5c-4.3 5.5-10.1 9.8-16.7 12.5 2.4-3.5 4.5-7.7 6.2-12.5z" fill="#bababa"/></svg>