<svg id="Layer_1" xmlns="http://www.w3.org/2000/svg" viewBox="0 0 100 100"><style>.st1{fill:#fff}</style><path d="M94.6 13.2h-42v73.5h42c1.5 0 2.6-1.2 2.6-2.6V15.9c0-1.5-1.1-2.7-2.6-2.7z" fill="#d3d3d3"/><path class="st1" d="M71 26.4h18.4v7.9H71v-7.9zm0 26.2h18.4v7.9H71v-7.9zm0 13.1h18.4v7.9H71v-7.9zm0-26.2h18.4v7.9H71v-7.9zM52.6 26.4h13.1v7.9H52.6v-7.9zm0 26.2h13.1v7.9H52.6v-7.9zm0 13.1h13.1v7.9H52.6v-7.9zm0-26.2h13.1v7.9H52.6v-7.9z"/><path d="M57.9 97.3L2.8 86.8V13.2L57.9 2.7v94.6z" fill="#a8a8a8"/><path class="st1" d="M37.1 68l-6.2-11.7c-.2-.4-.5-1.2-.7-2.4H30c-.1.6-.4 1.4-.8 2.5L23 68h-9.7l11.5-18-10.5-18h9.9l5.2 10.8c.4.9.8 1.9 1.1 3h.1c.2-.7.6-1.7 1.1-3.1L37.3 32h9L35.6 49.8 46.7 68h-9.6z"/></svg>