<svg xmlns="http://www.w3.org/2000/svg" viewBox="0 0 100 100"><path d="M86.3 34.1c-1.3-2.2-2.4-4.4-3.8-6.5-3-4.4-6.9-8-11.5-10.8-1.8-1.1-3.7-2-5.6-2.9-.2-.1-.5-.1-.8-.2C75 23.4 79.6 35 78 49c-1.6-4.7-4.2-8.8-8.2-11.8 5.4 9.4 5.2 18.6-1.3 27.2-6.3 8.3-15 10.8-25.1 8.3.8-.2 1.6-.3 2.4-.6 5.7-2 9.5-5.8 11.2-11.5.6-2 1-4 .4-6-.5-1.7-2.6-3.1-4.1-2.9-2.7.4-3.9 1.9-4 4-.2 3.3-1.4 6-4.4 7.7-3.2 1.9-7.1 1.6-10-1-1.8-1.6-2.9-3.6-2.9-6-.1-3.6 1.5-6.2 4.8-7.8 2.7-1.4 5.3-3 8.2-4.7-1.6-1.4-3.2-2.7-4.9-4.2 3.8-3.1 7.5-6.2 11.3-9.4-1-.2-1.8-.4-2.7-.6-3-.6-5.9-1.1-8.9-1.7-.9-.2-1.7-.3-2.6-.5-.2-.1-.6-.4-.6-.6-.3-1.8-.6-3.6-.8-5.3-.3-2.4-.7-4.8-1-7.5-1.8 2.8-3.5 5.3-5.2 8-3.3-1.2-6.7-1.5-10.3-.6-.5-1.3-1-2.7-1.5-4-.1-.2.2-.6.4-.7 1.6-1.3 3.1-2.7 4.7-3.9 4.2-3.1 8.9-5.4 14-6.8 2.7-.8 5.5-1.5 8.4-1.6.1 0 3.6-.2 3.7-.2 4 0 5.3.2 5.5.2 1.9.3 3.9.5 5.8.9 4.5 1 8.9 2.7 12.9 5.1 2.1 1.3 4.3 2.4 5.8 4.7 2.7 4.3 4.9 8.8 6.2 13.7.4 1.6.8 3.1 1.2 4.7-.1 0-.1.3-.1.5z" fill="#93cfe5" stroke="#93cfe5" stroke-width="2" stroke-miterlimit="10"/><path d="M46.3 31.4l.2.2c1.2 2.4-.8 3.2-2.1 4.3-1.2 1.1-2.5 2.1-3.8 3.2-.1.1-.3.2-.7.3v-3.2c0-.9-.3-1.7-.3-2.6 0-.3.2-.8.5-.9 2-.5 4.1-.9 6.2-1.3zm2.1 24.5c.4-3.4 2.9-5 5.1-4.8 2.7.3 4.6 1.8 4.7 4.8h-9.8z" fill="#fef7ce"/><path d="M4 45.6c.1-.8.3-1.5.4-2.3.5-4 1.7-7.9 3.2-11.6 1.7-4.1 3.4-8.2 5.2-12.4.9-2.3 1.9-4.6 2.8-6.9.1-.2.2-.4.5-.9 1.1 3.5 2.2 6.8 3.2 10.1 3.6-1 7.1-.8 10.6.6 1.6-2.5 3.2-5 5-7.7.3 2.4.6 4.5.9 6.6.3 2 .5 4 .8 5.9 0 .2.5.5.8.5 2.5.5 5.1 1 7.6 1.4.7.1 1.2.4 1.2 1.2 0 .3.1.5.2.9-2.3.5-4.6 1-6.8 1.5.2 1.7.4 3.5.6 5.2v.3c-.6 1.2.2 1.9 1 2.6 1.2 1 2.3 2 3.5 3-3.1 1.8-6.3 3.6-9.4 5.5-1.8 1-2.6 2.8-3.1 4.6-.8 3.2.1 6.1 2.4 8.3 2.5 2.4 5.5 3.1 8.8 2.1 3.3-1.1 5.2-3.5 5.9-6.9V56h7.9c.5 7-5.6 15.6-14.9 16.4 6.8 2.7 16.1 1.1 22.5-4 7.7-6.2 12-18.9 5.5-30.3 2.8 1.9 6.1 6.6 7.5 11.6 1.8-13.9-2.3-25.7-12.4-35.3 9.8 4.2 16.7 11.3 21 21.1-.7-6.3-2.5-12.8-7.4-20.8 1 .8 2 1.6 2.9 2.5 1.1 1 2.2 2 3.2 3.2 3.3 3.9 6.1 8.1 7.8 13 1.1 3.1 1.9 6.2 2.6 9.4.4 1.7.4 3.4.4 5.1.1 1.3 0 2.6 0 3.9 0 3.8-.7 7.5-1.7 11.1-1.6 5.7-4.4 10.9-8 15.6-2.7 3.5-5.9 6.4-9.5 9-3.9 2.7-8.1 4.9-12.7 6.2-2.8.8-5.7 1.2-8.6 1.8-1.2.2-2.4.3-3.7.4h-3.4c-.1-.1-.3-.2-.4-.2-2.1-.2-4.1-.3-6.2-.6-4.2-.6-8.1-1.9-11.9-3.7-3.6-1.7-6.9-3.8-9.9-6.5-2.5-2.2-4.9-4.6-6.9-7.2-2.2-2.9-4.1-6.1-5.5-9.4-1.5-3.8-2.6-7.6-3.1-11.7-.1-.8-.3-1.5-.4-2.3v-8.7z" fill="#ef8043" stroke="#ef8043" stroke-width="2" stroke-miterlimit="10"/><path d="M52.3 29.3c-2.2 1.8-4.1 3.4-6.2 5.1-.6-2.1-1.1-4.1-1.8-6.6 2.6.5 5.1 1 8 1.5z"/></svg>