<svg id="Layer_1" xmlns="http://www.w3.org/2000/svg" viewBox="0 0 72 96"><style>.st0{fill:#fff}.st2{fill:#bababa}</style><path class="st0" d="M0 2v92c0 1.1.9 2 2 2h68c1.1 0 2-.9 2-2V28H50c-1.1 0-2-.9-2-2V0H2C.9 0 0 .9 0 2z"/><path class="st0" d="M71.9 24c-.1-.4-.2-.7-.4-1L52 1.2V24h19.9z"/><path d="M8.5 74.7h2.9c1.7 0 3 .9 3 2.6 0 .8-.4 1.7-1.2 2.1 1.1.4 1.5 1.4 1.5 2.3 0 2.2-1.4 3-3.1 3H8.5v-10zm3 3.9c.4 0 .6-.4.6-1s-.2-.9-.7-.9h-.6v1.9h.7zm.1 4.1c.6 0 .8-.5.8-1.1 0-.6-.2-1.1-.7-1.1h-.8v2.2h.7zm4.5.5l2.9-5.5c.3-.6.6-.9.6-.9h-3.4v-2h6.1v1.5l-2.9 5.6c-.3.6-.6.9-.6.9h3.6v2h-6.2v-1.6zm8.2-8.5h5v2h-2.7v1.9h2.2v2h-2.2v2h2.9v2h-5.2v-9.9zm7.3 0h2.5l.9 4.2c.1.7.3 1.7.3 1.7s.2-1 .3-1.7l.9-4.2H39l.6 10h-2.1l-.3-4.5c-.1-.8 0-1.7 0-1.7h-.1s-.2 1.1-.3 1.7l-.6 2.9H34l-.6-2.9c-.2-.6-.3-1.7-.3-1.7H33s.1.9 0 1.7l-.3 4.5h-2.1l1-10zm10.2 0H45c1.8 0 3.1 1.4 3.1 3.4s-1.2 3.5-3.1 3.5h-.9v3.1h-2.3v-10zm2.7 4.9c.7 0 1.1-.6 1.1-1.4 0-.8-.5-1.4-1.1-1.4H44v2.9h.5zm6.7-2.9H49v-2h6.7v2h-2.2v8h-2.3v-8zm7.7 3.9l-2.5-5.9h2.5l.8 2.4.4 1.4h.1s.1-.8.4-1.4l.7-2.4h2.5l-2.5 5.9v4.1H59v-4.1z" fill="#666"/><path class="st2" d="M0 94V2C0 .9.9 0 2 0h48c.6 0 1.1.2 1.5.7l20 22.3c.3.4.5.8.5 1.3V94c0 1.1-.9 2-2 2H2c-1.1 0-2-.9-2-2zm68-68.9L49.1 4H4v88h64V25.1z"/><path class="st2" d="M48 26V4c0-1.1.9-2 2-2s2 .9 2 2v20h16c1.1 0 2 .9 2 2s-.9 2-2 2H50c-1.1 0-2-.9-2-2zm3.4 20c5.9 8.1 2.2 18.6-7.8 20.9-4.8-7 2.9-13.2 7.8-20.9zm-26 18.8l.3.2c1.8 1.2 3.9 1.9 6.1 2-1.9-3.9-1.5-8.6.9-12.2l7-10.2c3.8-5.7 2.3-13.5-3.4-17.3l-.4-.3c-1.8-1.2-3.9-1.9-6.1-2 1.9 4 1.5 8.6-.9 12.2l-7 10.2c-3.8 5.8-2.3 13.6 3.5 17.4zM43.3 53s2-2.7 3-4.3l2.9-4.3c3.6-5.3-2.7-9.5-3.5-9.6.8 1.6 0 4.9-1 6.5l-2.9 4.3c-1.6 2.5-1 5.8 1.5 7.4z"/></svg>