<svg id="Layer_1" xmlns="http://www.w3.org/2000/svg" viewBox="0 0 72 96"><style>.st0{fill:#999}</style><path class="st0" d="M0 2v92c0 1.1.9 2 2 2h68c1.1 0 2-.9 2-2V28H50c-1.1 0-2-.9-2-2V0H2C.9 0 0 .9 0 2z"/><path class="st0" d="M71.9 24c-.1-.4-.2-.7-.4-1L52 1.2V24h19.9z"/><path d="M6 41h60v49H6V41zm5.6-34.8c1.1 0 2.2.4 3 1.2l-.9 2.1c-.4-.5-1.3-1-2.1-1-2.2 0-3.3 2.2-3.3 4.9 0 2.8 1.2 5.2 3.3 5.2.9 0 1.7-.5 2.3-1l.9 2.1c-.8.7-1.8 1.3-3.4 1.3-3.4 0-5.3-3.2-5.3-7.4 0-4.3 2-7.4 5.5-7.4zm8.8 0c3.1 0 5 3 5 7.3s-2 7.4-5 7.4c-3.1 0-5-3.1-5-7.4-.1-4.2 1.9-7.3 5-7.3zm0 12.4c1.8 0 2.8-2 2.8-5.1 0-3-1.1-4.9-2.8-4.9-1.8 0-2.8 1.9-2.8 4.9-.1 3.1 1 5.1 2.8 5.1zm6.7-12.1h2.3l3.2 8c.3.9.6 2.2.6 2.2h.1s-.1-1.3-.1-2.2v-8h2v14.2H33l-3.2-8.1c-.3-.9-.6-2.2-.6-2.2H29s.1 1.3.1 2.2v8h-2V6.5zm10.3 0h5.8v2.2h-3.6v4.1h3V15h-3v5.8h-2.1V6.5h-.1z" fill="#fff"/><path class="st0" d="M41.4 60.3c0-2.3-1.4-4.1-3.3-4.9v-6.6c0-1.1-.8-1.9-1.9-1.9-1.1 0-1.9.8-1.9 1.9v6.6c-2 .7-3.3 2.6-3.3 4.9 0 2.3 1.4 4.1 3.3 4.9 0 .1-.1.3-.1.4v16.6c0 1.1.8 1.9 1.9 1.9 1.1 0 1.9-.8 1.9-1.9V65.5c0-.2 0-.3-.1-.4 2.1-.6 3.5-2.5 3.5-4.8zm-5.3 1.5c-.8 0-1.4-.6-1.4-1.4 0-.8.6-1.4 1.4-1.4.8 0 1.4.6 1.4 1.4.1.7-.6 1.4-1.4 1.4zM51.3 49c0-1.1-.8-1.9-1.9-1.9-1.1 0-1.9.8-1.9 1.9v15.5c-2 .7-3.3 2.6-3.3 4.9s1.4 4.1 3.3 4.9c0 .1-.1.3-.1.4v7.6c0 1.1.8 1.9 1.9 1.9 1.1 0 1.9-.8 1.9-1.9v-7.6c0-.2 0-.3-.1-.4 2-.7 3.3-2.6 3.3-4.9s-1.4-4.1-3.3-4.9V49h.2zm-1.9 21.8c-.8 0-1.4-.6-1.4-1.4s.6-1.4 1.4-1.4c.8 0 1.4.6 1.4 1.4s-.6 1.4-1.4 1.4zM21 82.1c0 1.1.8 1.9 1.9 1.9s1.9-.8 1.9-1.9v-7.6c0-.2 0-.3-.1-.4 2-.7 3.3-2.6 3.3-4.9s-1.4-4.1-3.3-4.9V49c0-1.1-.8-1.9-1.9-1.9s-1.9.8-1.9 1.9v15.5c-2 .7-3.3 2.6-3.3 4.9s1.4 4.1 3.3 4.9c0 .1-.1.3-.1.4v7.6c0-.2.2-.2.2-.2zm1.9-14.2c.8 0 1.4.6 1.4 1.4s-.6 1.4-1.4 1.4-1.4-.6-1.4-1.4.6-1.4 1.4-1.4z"/></svg>