<svg id="Layer_1" xmlns="http://www.w3.org/2000/svg" viewBox="0 0 72 96"><style>.st0{fill:#fff}.st1{fill:#b4bdcc}</style><path class="st0" d="M71.9 24c-.1-.4-.2-.7-.4-1L52 1.2V24h19.9z"/><path class="st0" d="M0 2v92c0 1.1.9 2 2 2h68c1.1 0 2-.9 2-2V28H50c-1.1 0-2-.9-2-2V0H2C.9 0 0 .9 0 2z"/><path class="st1" d="M0 94V2C0 .9.9 0 2 0h48c.6 0 1.1.2 1.5.7l20 22.3c.3.4.5.8.5 1.3V94c0 1.1-.9 2-2 2H2c-1.1 0-2-.9-2-2zm68-68.9L49.1 4H4v88h64V25.1z"/><path class="st1" d="M48 26V4c0-1.1.9-2 2-2s2 .9 2 2v20h16c1.1 0 2 .9 2 2s-.9 2-2 2H50c-1.1 0-2-.9-2-2z"/><path d="M55.2 55.5c1.7 1.6 2.8 4 2.8 6.6 0 5-4.1 9.1-9.1 9.1s-9.1-4.1-9.1-9.1c0-.3 0-.7.1-1 .5-4.5 4.4-8.1 9.1-8.1 2.4-.1 4.6 1 6.2 2.5z" opacity=".6" fill="#ef806f"/><path d="M55.9 52c0 .7-.1 1.4-.2 2.2-1.9-1.6-4.3-2.5-6.8-2.5-5.3 0-9.8 4-10.4 9.3H21.2c-4 0-7.2-3.2-7.2-7.2 0-3.1 2-5.8 4.7-6.8v-.4c0-3.7 3-6.7 6.7-6.7 1.2 0 2.3.3 3.3.8 1-4.5 5.1-8 10-8C44.4 32.7 49 37.3 49 43v.2c4 .9 6.9 4.5 6.9 8.8z" opacity=".6" fill="#1ea6c6"/><path class="st0" d="M53.7 62.2l-4.6 4.7-4.7-4.7h2.8v-6.5h3.7v6.5h2.8z"/></svg>