<svg xmlns="http://www.w3.org/2000/svg" viewBox="0 0 72 96"><path d="M0 2v92c0 1.1.9 2 2 2h68c1.1 0 2-.9 2-2V28H50c-1.1 0-2-.9-2-2V0H2C.9 0 0 .9 0 2z"/><path d="M71.9 24c-.1-.4-.2-.7-.4-1L52 1.2V24h19.9z"/><path d="M6 41h60v49H6zm.6-34.6h7.2v2.9H9.9V12H13v2.9H9.9v2.9H14v2.9H6.6V6.4zm12.8 7.2L16 6.4h3.6l1.1 2.9.6 1.8s.2-.9.6-1.8l1.2-2.9h3.6l-3.4 7.2 3.3 7.1h-3.5l-1.1-3c-.4-.9-.6-1.7-.6-1.7s-.2.8-.6 1.7l-1.1 3h-3.5l3.2-7.1zm9.9-7.2h7.2v2.9h-3.9V12h3.1v2.9h-3.1v2.9h4.1v2.9h-7.4V6.4z" fill="#fff"/><path d="M53.8 69.2c-1.6-.5-2.7-2-2.7-3.7s1.1-3.2 2.7-3.7c.5-.2.8-.7.6-1.2-.5-1.8-1.1-3.4-2.1-5-.3-.5-.8-.6-1.3-.4-.6.3-1.2.5-1.9.5-2.2 0-3.9-1.8-3.9-3.9 0-.7.2-1.3.5-1.9.3-.5.1-1-.4-1.3-1.6-.9-3.3-1.6-5-2.1-.5-.1-1 .1-1.2.6-.5 1.6-2 2.7-3.7 2.7s-3.2-1.1-3.7-2.7c-.2-.5-.7-.8-1.2-.6-1.8.5-3.4 1.1-5 2.1-.5.3-.6.8-.4 1.3.3.6.5 1.2.5 1.9 0 2.2-1.8 3.9-3.9 3.9-.7 0-1.3-.2-1.9-.5-.5-.3-1-.1-1.3.4-.9 1.6-1.6 3.3-2.1 5-.1.5.1 1 .6 1.2 1.6.5 2.7 2 2.7 3.7 0 1.7-1.1 3.2-2.7 3.7-.5.2-.8.7-.6 1.2.5 1.8 1.1 3.4 2.1 5 .3.5.8.6 1.3.4.6-.3 1.2-.5 1.9-.5 2.2 0 3.9 1.8 3.9 3.9 0 .7-.2 1.3-.5 1.9-.3.5-.1 1 .4 1.3 1.6.9 3.3 1.6 5 2.1h.2c.4 0 .8-.3.9-.7.5-1.6 2-2.7 3.7-2.7 1.7 0 3.2 1.1 3.7 2.7.2.5.7.8 1.2.6 1.8-.5 3.4-1.1 5-2.1.5-.3.6-.8.4-1.3-.3-.6-.5-1.2-.5-1.9 0-2.2 1.8-3.9 3.9-3.9.7 0 1.3.2 1.9.5.5.3 1 .1 1.3-.4.9-1.6 1.6-3.3 2.1-5 .3-.4 0-.9-.5-1.1zm-18.3 2.2c-3.2 0-5.9-2.6-5.9-5.9 0-3.2 2.6-5.9 5.9-5.9 3.2 0 5.9 2.6 5.9 5.9 0 3.2-2.7 5.9-5.9 5.9z"/></svg>