<svg xmlns="http://www.w3.org/2000/svg" viewBox="0 0 72 96"><style>.st0{fill:#2dbcaf}</style><path class="st0" d="M0 2v92c0 1.1.9 2 2 2h68c1.1 0 2-.9 2-2V28H50c-1.1 0-2-.9-2-2V0H2C.9 0 0 .9 0 2z"/><path class="st0" d="M71.9 24c-.1-.4-.2-.7-.4-1L52 1.2V24h19.9z"/><path d="M6 41h60v49H6V41zm6.4-34.9c1.4 0 2.9.4 3.9 1.3l-1.4 2.8c-.6-.6-1.4-.9-2.3-.9-2.2 0-3.2 1.9-3.2 4.2 0 2.6 1.2 4.3 2.9 4.3.6 0 1.3-.2 1.7-.6v-1.7h-1.5v-2.9h4.3v8.1h-2.6v-.9c-.5.7-1.6 1.2-2.7 1.2-2.8 0-5.6-2.7-5.6-7.3.1-4.5 2.6-7.6 6.5-7.6zm13.1 0c3.8 0 5.9 3.1 5.9 7.3s-2.1 7.5-5.9 7.5-5.8-3.2-5.8-7.5c-.1-4.1 2-7.3 5.8-7.3zm0 11.7c1.7 0 2.5-1.8 2.5-4.3s-.8-4.2-2.5-4.2S23 11 23 13.5s.8 4.3 2.5 4.3z" fill="#fff"/><path class="st0" d="M35.5 60.9c-1.9.5-3.2.9-5.1 1.4-.5.1-.5.1-.9-.2-.5-.5-.7-.9-1.4-1.1-1.9-1-3.7-.6-5.5.5-2.1 1.4-3.1 3.4-3.1 5.7s1.7 4.5 4.1 4.7c2.1.2 3.7-.5 5.1-2 .2-.4.5-.7.9-1.1h-5.9c-.6 0-.7-.4-.6-.9.4-1 1.1-2.5 1.5-3.4.1-.1.2-.5.7-.5h11.1c0 .9 0 1.6-.1 2.5-.4 2.2-1.1 4.2-2.5 6-2.2 2.9-5 4.6-8.6 5.1-3 .4-5.7-.1-8.1-2-2.2-1.7-3.5-4-3.9-6.7-.4-3.4.6-6.2 2.6-8.8 2.1-2.9 5-4.6 8.5-5.2 2.9-.5 5.6-.1 8.1 1.5 1.6 1.1 2.7 2.5 3.5 4.2 0 0 0 .1-.4.3z"/><path class="st0" d="M45.4 77.6c-2.7 0-5.2-.9-7.3-2.6-1.7-1.5-2.9-3.5-3.2-5.9-.5-3.5.4-6.5 2.5-9.2 2.2-2.9 4.9-4.5 8.5-5.1 3.1-.5 6-.2 8.6 1.5 2.4 1.6 3.9 3.9 4.2 6.7.5 4.1-.6 7.5-3.5 10.3-2 2-4.5 3.4-7.2 3.9-.9.2-1.8.4-2.6.4zm7.3-12.2c0-.4 0-.7-.1-1-.5-3-3.4-4.7-6.2-4-2.9.6-4.6 2.4-5.4 5.2-.5 2.4.6 4.7 2.7 5.7 1.6.7 3.4.6 5-.1 2.5-1.2 3.8-3.2 4-5.8z"/></svg>