<svg id="Layer_1" xmlns="http://www.w3.org/2000/svg" viewBox="0 0 72 96"><style>.st0{fill:#938886}</style><path class="st0" d="M0 2v92c0 1.1.9 2 2 2h68c1.1 0 2-.9 2-2V28H50c-1.1 0-2-.9-2-2V0H2C.9 0 0 .9 0 2z"/><path class="st0" d="M71.9 24c-.1-.4-.2-.7-.4-1L52 1.2V24h19.9z"/><path d="M6 41h60v49H6V41zm.6-34.6h3.3v14.3H6.6V6.4zm7 0H17l2.4 6.6c.4 1 .7 2.4.7 2.4h.1S20 13.9 20 13V6.4h3.1v14.3h-3.4l-2.5-6.6c-.4-1-.7-2.4-.7-2.4h-.1s.2 1.5.2 2.4v6.6h-3.1V6.4h.1zm12 0h3.6l1.6 8.1c.2.9.3 2.3.3 2.3h.1s.2-1.4.3-2.3l1.7-8.1h3.5l-3.9 14.3h-3.3L25.6 6.4z" fill="#fff"/><path class="st0" d="M45.2 62.5v-9.9L35.9 47l-9.2 5.5v10l-9.2 5v11.1L27 84l9-5.2 9 5.2 9.5-5.4v-11l-9.3-5.1zm-1.7 0l-6.7 3.7v-7.6l6.7-3.9v7.8zm-7.6-13.4l6.6 4-6.6 3.9-6.4-4 6.4-3.9zM20.3 68l7.4-3.9 6.5 3.7L27 72l-6.7-4zm7.5 5.5l7.3-4.2v7.8l-7.3 4.3v-7.9zm10.1-5.7l6.5-3.7 7.4 4L45 72l-7.1-4.2zm14.8 9.7l-6.8 3.9v-7.9l6.8-3.9v7.9z"/></svg>