<svg xmlns="http://www.w3.org/2000/svg" viewBox="0 0 72 96"><style>.st0{fill:#039}</style><path class="st0" d="M0 2v92c0 1.1.9 2 2 2h68c1.1 0 2-.9 2-2V28H50c-1.1 0-2-.9-2-2V0H2C.9 0 0 .9 0 2z"/><path class="st0" d="M71.9 24c-.1-.4-.2-.7-.4-1L52 1.2V24h19.9z"/><path d="M6 41h60v49H6V41zM7 6.5h2.3l1.6 6.9c.2.9.4 2.2.4 2.2h.1s.2-1.3.4-2.2l1.6-6.9h2.3l.8 14.2h-1.9l-.4-7.9c-.1-.9 0-2.2 0-2.2h-.1s-.2 1.4-.4 2.3l-1.3 5.4h-2L9 12.9c-.2-.8-.4-2.3-.4-2.3s.1 1.3 0 2.2l-.4 7.9h-2L7 6.5zm11.6 11.2c.4.5 1 .9 1.7.9 1 0 1.8-.7 1.8-2.3 0-1.4-.8-2.1-2.3-2.1H19l-.4-1.4 2.2-3.3c.4-.5.7-.8.7-.8H18V6.5h5.8v1.9l-2.6 3.8c1.8.3 3 1.7 3 4.1 0 2.4-1.3 4.6-3.7 4.6-1 0-2.1-.4-2.9-1.3l1-1.9zm7.3-11.2H28v9.6c0 1.8.7 2.6 1.8 2.6s1.8-.8 1.8-2.6V6.5h2.1v9.6c0 3-1.5 4.8-3.8 4.8S26 19.1 26 16.1V6.5zM37 13.1c-.8-.8-1.4-1.7-1.4-3.2 0-1.9 1-3.7 3.2-3.7S42 7.9 42 9.8c0 1.8-1 3.2-1.3 3.7.8.7 1.5 1.8 1.5 3.4 0 2.2-1.2 4-3.6 4-2.3 0-3.5-1.8-3.5-3.9.1-2.1 1.5-3.5 1.9-3.9zm1.3 1.1c-.3.3-1 1.1-1 2.5 0 1.1.5 2 1.4 2 .9 0 1.4-.8 1.4-1.8.1-1.5-.9-2.1-1.8-2.7zm1-1.7c.2-.3.7-1.1.7-2.3 0-1-.4-1.7-1.3-1.7s-1.1.6-1.1 1.4c0 1.4.9 2.1 1.7 2.6z" fill="#fff"/><path class="st0" d="M14.6 54.3h22.9c1.2 0 2.1-.9 2.1-2.1s-.9-2.1-2.1-2.1H14.6c-1.2 0-2.1.9-2.1 2.1s.9 2.1 2.1 2.1zm0 11.1h22.9c1.2 0 2.1-.9 2.1-2.1s-.9-2.1-2.1-2.1H14.6c-1.2 0-2.1.9-2.1 2.1s.9 2.1 2.1 2.1zm11 5.9h-11c-1.2 0-2.1.9-2.1 2.1s.9 2.1 2.1 2.1h11c1.2 0 2.1-.9 2.1-2.1s-.9-2.1-2.1-2.1z"/><path class="st0" d="M52.5 53.8c-1.6-.8-3.7-2-4.5-3.7 0-.9-.7-1.6-1.6-1.6-.9 0-1.6.7-1.6 1.6v21.5c-1.7-.9-4.9-.6-7.3.8-3.8 2.1-5.4 6.1-3.8 8.8s6.1 3.3 9.9 1.2c2.6-1.5 4.4-3.9 4.5-6.3V57.6c5.4 0 8.7 2.2 7.5 7.5-.2 1-.6 1.9-1 2.9-.2.3-.2.7.1 1s.8.2 1.2-.2c2-2 3.3-4.6 3.4-7.5-.1-3.8-3.7-6-6.8-7.5z"/></svg>