<svg id="Layer_1" xmlns="http://www.w3.org/2000/svg" viewBox="0 0 72 96"><style>.st0{fill:#039}</style><path class="st0" d="M0 2v92c0 1.1.9 2 2 2h68c1.1 0 2-.9 2-2V28H50c-1.1 0-2-.9-2-2V0H2C.9 0 0 .9 0 2z"/><path class="st0" d="M71.9 24c-.1-.4-.2-.7-.4-1L52 1.2V24h19.9z"/><path d="M6 41h60v49H6zM7.1 6.4h3.6l1.3 6c.2.9.4 2.4.4 2.4h.1s.2-1.5.4-2.4l1.3-6H18l.9 14.3h-3l-.4-6.4c-.1-1.1 0-2.4 0-2.4h-.1s-.2 1.5-.4 2.4l-.9 4.1H11l-.9-4.1c-.2-.9-.4-2.4-.4-2.4h-.1s.1 1.3 0 2.4l-.4 6.4h-3l.9-14.3zM21 15.2l3.7-8.8h4.2v8.1h1.2v3h-1.2v3.2h-3.2v-3.2H21v-2.3zm4.7-.7v-3.4c0-.8.1-1.3.1-1.3s-.1.6-.3 1.2L24 14.5h1.7zm7.1-8.1h4.5c.6 0 1.3.1 1.9.4 1.4.6 2.4 2.1 2.4 4 0 1.7-.8 3.3-2 4 0 0 .2.2.5.9l2.3 5h-3.6l-2-4.8H36v4.8h-3.3V6.4zm3.9 6.6c.9 0 1.6-.7 1.6-1.9 0-.7-.2-1.2-.6-1.5-.3-.2-.6-.3-.9-.3H36V13h.7z" fill="#fff"/><path class="st0" d="M18.2 55c-.6 1.5.6 6 .6 6 2.3 6.4 7.7 11.9 7.7 11.9 5.3 5.5 10.6 8.9 15.3 10 4.7 1.1 5.6-.8 5.6-.8s3.9-3.8 5-5.1c1.1-1.4-.3-2.2-.3-2.2s-6.8-4.1-7.9-4.5c-1.1-.5-1.7.3-2.4.9s-2.1 1.9-2.1 1.9c-.8.1-2.3-.5-4.7-2.4s-5.3-5.5-6.1-6.8c-.8-1.2-.8-2.5-.8-2.5s1-.8 2-1.9c1-1.1.7-2.1.7-2.1l-3.1-5.7c-1.9-4-2.4-3.2-2.4-3.2-1.3.5-2.4 1.5-3.1 2.2-.5.5-3.2 2.8-4 4.3zm27 8.5c.8 0 1.5-.6 1.5-1.5 0-4.4-3.6-8.2-8.2-8.2-.8 0-1.5.6-1.5 1.5 0 .8.6 1.5 1.5 1.5 2.8 0 5.1 2.3 5.1 5.1 0 .9.8 1.6 1.6 1.6z"/><path class="st0" d="M39.2 49.1c-.8 0-1.5.6-1.5 1.5 0 .8.6 1.5 1.5 1.5 5.1 0 9.2 4.1 9.2 9.2 0 .8.6 1.5 1.5 1.5s1.5-.6 1.5-1.5c0-6.7-5.5-12.2-12.2-12.2zm-2 8.9c-.8 0-1.5.6-1.5 1.5s.6 1.5 1.5 1.5c1.3 0 2.4 1.1 2.4 2.4 0 .8.6 1.5 1.5 1.5.8 0 1.5-.6 1.5-1.5-.1-3-2.5-5.4-5.4-5.4z"/></svg>