<svg id="Layer_1" xmlns="http://www.w3.org/2000/svg" viewBox="0 0 72 96"><style>.st0{fill:#999}</style><path class="st0" d="M0 2v92c0 1.1.9 2 2 2h68c1.1 0 2-.9 2-2V28H50c-1.1 0-2-.9-2-2V0H2C.9 0 0 .9 0 2z"/><path class="st0" d="M71.9 24c-.1-.4-.2-.7-.4-1L52 1.2V24h19.9z"/><path d="M6 41h60v49H6V41zM7.1 6.4h3.6l1.3 6c.2.9.4 2.4.4 2.4h.1s.2-1.5.4-2.4l1.3-6H18l.9 14.3h-3l-.4-6.4c-.1-1.1 0-2.4 0-2.4h-.1s-.2 1.5-.4 2.4l-.9 4.1H11l-.9-4.1c-.2-.9-.4-2.4-.4-2.4h-.1s.1 1.3 0 2.4l-.4 6.4h-3l.9-14.3zm17.5 0h3.6l3.6 14.3h-3.3l-.6-3h-3l-.6 3H21l3.6-14.3zm2.8 8.6l-.6-2.8c-.2-.9-.4-2.5-.4-2.5h-.1s-.2 1.5-.4 2.5l-.5 2.8h2zm6.9-8.6h4.5c2.6 0 4.4 2 4.4 4.9s-1.7 5-4.4 5h-1.2v4.4h-3.3V6.4zm3.9 7c1 0 1.6-.9 1.6-2.1s-.7-2-1.6-2h-.7v4.1h.7z" fill="#fff"/><path class="st0" d="M52 72.5c-.2-.3-.4-.4-.7-.4h-9.4c-.3.7-.7 1.3-1 2-.8 1.6-1.7 3.3-2.5 4.7v.1c-.5.8-1.3 1.4-2.3 1.4s-1.8-.5-2.3-1.4c-.3-.5-1.3-2.4-2.5-4.8-.4-.7-.7-1.4-1-2.1h-5.1c-.3 0-.6.2-.8.5L20 81.8c-.1.3-.1.6 0 .8.2.3.4.4.7.4h26.1c.3 0 .6-.2.8-.5l4.4-9.2c.2-.2.1-.6 0-.8z"/><path class="st0" d="M36 47c-5.3 0-9.7 4.3-9.7 9.7 0 3.2 3.5 10.8 6.4 16.7 1.4 2.7 2.5 4.7 2.5 4.8.2.3.4.5.8.5s.6-.2.8-.5c0 0 1.1-2 2.5-4.8 2.9-5.8 6.4-13.4 6.4-16.7 0-5.4-4.4-9.7-9.7-9.7zm0 15.6c-2.4 0-4.5-1.9-4.7-4.3v-.5c0-2.6 2.1-4.7 4.7-4.7 2.4 0 4.5 1.9 4.7 4.2v.5c0 2.6-2.1 4.8-4.7 4.8z"/></svg>