<svg id="Layer_1" xmlns="http://www.w3.org/2000/svg" viewBox="0 0 72 96"><style>.st0{fill:#999}</style><path class="st0" d="M0 2v92c0 1.1.9 2 2 2h68c1.1 0 2-.9 2-2V28H50c-1.1 0-2-.9-2-2V0H2C.9 0 0 .9 0 2z"/><path class="st0" d="M71.9 24c-.1-.4-.2-.7-.4-1L52 1.2V24h19.9z"/><path d="M6 41h60v49H6zM7.1 6.4h3.6l1.3 6c.2.9.4 2.4.4 2.4h.1s.2-1.5.4-2.4l1.3-6H18l.9 14.3h-3l-.4-6.4c-.1-1.1 0-2.4 0-2.4h-.1s-.2 1.5-.4 2.4l-.9 4.1H11l-.9-4.1c-.2-.9-.4-2.4-.4-2.4h-.1s.1 1.3 0 2.4l-.4 6.4h-3l.9-14.3zm15.1 0h3.3v5.5h.5l2.3-5.5h3.5L29 13.2l3 7.4h-3.7L26 14.9h-.6v5.8h-3.3V6.4z" fill="#fff"/><path class="st0" d="M38 68.1l2.8.8 1.7-6.2-2.8-.8c0-1-.1-2-.4-3l2.5-1.5-3.2-5.6-2.6 1.5c-.7-.7-1.5-1.3-2.4-1.8l.8-2.8-6.2-1.7-.8 2.8c-1 0-2 .1-3 .4l-1.5-2.5-5.6 3.2 1.5 2.5c-.7.7-1.3 1.5-1.8 2.4l-2.8-.8-1.7 6.2 2.8.8c0 1 .1 2 .4 3l-2.5 1.5 3.2 5.6 2.5-1.5c.7.7 1.5 1.3 2.4 1.8l-.8 2.8 6.2 1.7.8-2.8c1 0 2-.1 3-.4l1.5 2.5 5.6-3.2-1.5-2.5c.7-.7 1.4-1.5 1.9-2.4zm-15.5-3.3c-1.6-2.7-.6-6.2 2.1-7.8 2.7-1.6 6.2-.6 7.8 2.1 1.6 2.7.6 6.2-2.1 7.8-2.7 1.6-6.2.7-7.8-2.1zm30.2 19.8l3.6-2.1-1-1.7c.5-.5.9-1 1.2-1.6l1.9.5 1.1-4.1-1.9-.5c0-.7-.1-1.3-.3-2l1.7-1-2.1-3.6-1.7 1c-.5-.5-1-.9-1.6-1.2l.5-1.9-4.1-1.1-.5 1.9c-.7 0-1.3.1-2 .3l-1-1.7-3.4 2.2 1 1.7c-.5.5-.9 1-1.2 1.6l-1.9-.6-1.1 4.1 1.9.5c0 .7.1 1.3.3 2l-1.7 1 2.1 3.6 1.7-1c.5.5 1 .9 1.6 1.2l-.5 1.9 4.1 1.1.5-1.9c.7 0 1.3-.1 2-.3-.2 0 .8 1.7.8 1.7zm-6.2-7.5c-1-1.8-.4-4.1 1.4-5.1 1.8-1 4.1-.4 5.1 1.4 1 1.8.4 4.1-1.4 5.1-1.8 1-4.1.4-5.1-1.4z"/></svg>