<svg id="Layer_1" xmlns="http://www.w3.org/2000/svg" viewBox="0 0 72 96"><style>.st0{fill:#3c3}</style><path class="st0" d="M0 2v92c0 1.1.9 2 2 2h68c1.1 0 2-.9 2-2V28H50c-1.1 0-2-.9-2-2V0H2C.9 0 0 .9 0 2z"/><path class="st0" d="M71.9 24c-.1-.4-.2-.7-.4-1L52 1.2V24h19.9z"/><path d="M6 41h60v49H6zM7.1 6.4h3.6l1.3 6c.2.9.4 2.4.4 2.4h.1s.2-1.5.4-2.4l1.3-6H18l.9 14.3h-3l-.4-6.4c-.1-1.1 0-2.4 0-2.4h-.1s-.2 1.5-.4 2.4l-.9 4.1H11l-.9-4.1c-.2-.9-.4-2.4-.4-2.4h-.1s.1 1.3 0 2.4l-.4 6.4h-3l.9-14.3zm13.8 0h3.5l2.4 6.6c.4 1 .7 2.4.7 2.4h.1s-.2-1.5-.2-2.4V6.4h3.1v14.3H27l-2.5-6.6c-.4-1-.7-2.4-.7-2.4h-.1s.2 1.5.2 2.4v6.6h-3.1V6.4zm17.7-.3c1.4 0 2.9.4 3.9 1.3l-1.4 2.8c-.6-.6-1.4-.9-2.3-.9-2.2 0-3.2 1.9-3.2 4.2 0 2.6 1.2 4.3 2.9 4.3.6 0 1.3-.2 1.7-.6v-1.7h-1.5v-2.9H43v8.1h-2.6v-.9c-.5.7-1.6 1.2-2.7 1.2-2.8 0-5.6-2.7-5.6-7.3.2-4.5 2.6-7.6 6.5-7.6z" fill="#fff"/><path d="M52.6 83H19.4c-.5 0-.9-.4-.9-.9V48.9c0-.5.4-.9.9-.9h33.2c.5 0 .9.4.9.9v33.2c0 .5-.4.9-.9.9zm-32.4-2.2c0 .3.2.4.4.4h30.6c.3 0 .4-.2.4-.4v-7.9c0-.3-.2-.4-.4-.4H20.7c-.3 0-.4.2-.4.4v7.9zm31.1-31H20.7c-.3 0-.4.2-.4.4v20.1c0 .1 0 .2.1.2l6.5-8.1 6.6 3.9 7.4-8.8L51.8 66V50.2c0-.3-.2-.4-.5-.4zM24.6 74.2c1.4 0 2.6 1.2 2.6 2.6s-1.2 2.6-2.6 2.6-2.6-1.1-2.6-2.5 1.2-2.7 2.6-2.7zm4.8 1.8h20.1c.3 0 .4.2.4.4v.9c0 .3-.2.4-.4.4H29.4c-.3 0-.4-.2-.4-.4v-.9c0-.2.2-.4.4-.4z" fill="#3c3" stroke="#3c3" stroke-width=".25" stroke-miterlimit="10"/></svg>