<svg id="Layer_1" xmlns="http://www.w3.org/2000/svg" viewBox="0 0 72 96"><style>.st0{fill:#999}.st1{fill:#fff}</style><path class="st0" d="M0 2v92c0 1.1.9 2 2 2h68c1.1 0 2-.9 2-2V28H50c-1.1 0-2-.9-2-2V0H2C.9 0 0 .9 0 2z"/><path class="st0" d="M71.9 24c-.1-.4-.2-.7-.4-1L52 1.2V24h19.9z"/><path class="st1" d="M6 41h60v49H6zM7.1 6.4h3.6l1.3 6c.2.9.4 2.4.4 2.4h.1s.2-1.5.4-2.4l1.3-6H18l.9 14.3h-3l-.4-6.4c-.1-1.1 0-2.4 0-2.4h-.1s-.2 1.5-.4 2.4l-.9 4.1H11l-.9-4.1c-.2-.9-.4-2.4-.4-2.4h-.1s.1 1.3 0 2.4l-.4 6.4h-3l.9-14.3zm14.1 0h4.5c2.6 0 4.4 2 4.4 4.9 0 2.9-1.7 5-4.4 5h-1.2v4.4h-3.3V6.4zm3.9 7c1 0 1.6-.9 1.6-2.1s-.7-2-1.6-2h-.7v4.1h.7zm6.8-7h4.2c3.7 0 5.9 2.6 5.9 7.1s-2.2 7.2-5.9 7.2h-4.2V6.4zM36 17.8c1.7 0 2.6-1.5 2.6-4.3s-1-4.2-2.6-4.2h-.8v8.5h.8z"/><path class="st0" d="M17.1 51.3l21.3-4.1V83l-21.3-3.9z"/><path class="st0" d="M53.3 79.5H35.2c-.9 0-1.6-.7-1.6-1.6V52.4c0-.9.7-1.6 1.6-1.6h18.1c.9 0 1.6.7 1.6 1.6v25.5c0 .9-.7 1.6-1.6 1.6zM35.2 52.3c-.1 0-.2.1-.2.2V78c0 .1.1.2.2.2h18.1c.1 0 .2-.1.2-.2V52.4c0-.1-.1-.2-.2-.2 0 .1-18.1.1-18.1.1z"/><path class="st0" d="M50.7 66.4h-2.4V58H37.2v-2.4h13.5z"/><path class="st0" d="M49.4 68.5l-4.3-4.7h8.5z"/><path transform="rotate(-45.001 42.925 71.003)" class="st0" d="M39.7 67.8h6.5v6.5h-6.5z"/><path class="st1" d="M30.4 59.7c-.4-.4-.8-.6-1.4-.8-.5-.2-1.2-.1-1.8-.1-1.2 0-3.3.2-3.3.2l-.1 11.6 2.2.2v-4.1s1.3.2 2.4-.1c.6-.2 1.2-.5 1.5-.8.4-.4.7-.8.9-1.2.3-.6.4-1.2.4-2.1.2-1.1-.1-2.1-.8-2.8zm-1.7 4c-.4.9-1.5.9-1.5.9H26v-3.7s.8-.1 1.4 0c.3.1.6.2.8.3.6.5.9 1.7.5 2.5z"/></svg>