<svg xmlns="http://www.w3.org/2000/svg" viewBox="0 0 72 96"><style>.st0{fill:#bababa}</style><path class="st0" d="M0 2v92c0 1.1.9 2 2 2h68c1.1 0 2-.9 2-2V28H50c-1.1 0-2-.9-2-2V0H2C.9 0 0 .9 0 2z"/><path class="st0" d="M71.9 24c-.1-.4-.2-.7-.4-1L52 1.2V24h19.9z"/><path d="M6 41h60v49H6zm.6-34.6h3.5l2.4 6.6c.4 1 .7 2.4.7 2.4h.1s-.2-1.5-.2-2.4V6.4h3.1v14.3h-3.4l-2.5-6.6c-.4-1-.7-2.4-.7-2.4h-.1s.2 1.5.2 2.4v6.6H6.6V6.4zm13.3 0H27v2.9h-3.8v3.1h3.1v2.9h-3.1v5.4h-3.3V6.4zm15.3-.3c3.8 0 5.9 3.1 5.9 7.3 0 4.2-2.1 7.5-5.9 7.5s-5.8-3.2-5.8-7.5c0-4.1 2.1-7.3 5.8-7.3zm0 11.7c1.7 0 2.5-1.8 2.5-4.3s-.8-4.2-2.5-4.2-2.5 1.7-2.5 4.2.8 4.3 2.5 4.3z" fill="#fff"/><path d="M58 47.3v4.2H14.4v-4.2m43.2 10.1v4.2H14v-4.2M57.6 68v4.1H14V68m43.6 10.5v4.2H14v-4.2" fill="#bababa" stroke="#bababa" stroke-miterlimit="10"/><path d="M29.8 60.9v-1.8c.5-.2 1.2-.4 2.2-.7.9-.3 1.8-.4 2.8-.6 1-.2 2-.3 2.9-.4.9-.1 1.8-.2 2.6-.2l.9.6-4.8 22.8h3.7v1.9c-.4.3-1 .6-1.6.9-.6.3-1.3.5-2 .8-.7.3-1.4.4-2.1.5-.7.1-1.4.2-2 .2-1.4 0-2.2-.3-2.8-.8-.4-.5-.6-1.1-.6-1.7 0-.7.1-1.4.2-2.1.1-.7.3-1.4.4-2.2l3.6-16.4-3.4-.8zm4.5-12c0-1.2.4-2.2 1.2-2.8.8-.7 1.8-1 3.1-1 1.4 0 2.4.3 3.2 1 .8.7 1.2 1.6 1.2 2.8 0 1.1-.4 2.1-1.2 2.7-.8.7-1.9 1-3.2 1-1.2 0-2.2-.3-3.1-1-.7-.6-1.2-1.5-1.2-2.7z" fill="#bababa" stroke="#fff" stroke-width="3" stroke-miterlimit="10"/></svg>