<svg id="Layer_1" xmlns="http://www.w3.org/2000/svg" viewBox="0 0 72 96"><style>.st0,.st2,.st3{fill:#1a75ce}.st2,.st3{stroke:#1a75ce;stroke-width:.25;stroke-miterlimit:10}.st3{fill-opacity:0;stroke-linejoin:round;stroke-miterlimit:1}</style><path class="st0" d="M0 2v92c0 1.1.9 2 2 2h68c1.1 0 2-.9 2-2V28H50c-1.1 0-2-.9-2-2V0H2C.9 0 0 .9 0 2z"/><path class="st0" d="M71.9 24c-.1-.4-.2-.7-.4-1L52 1.2V24h19.9z"/><path d="M6 41h60v49H6zm.3-34.6h3.3c1.9 0 3.2 2 3.2 4.9 0 2.9-1.3 5-3.2 5h-.8v4.4H6.3V6.4zm2.9 7c.8 0 1.2-.9 1.2-2.1s-.5-2-1.2-2h-.4v4.1h.4zm6-7h2.6l2.7 14.3h-2.4l-.4-3h-2.2l-.4 3h-2.4l2.5-14.3zm2.1 8.6l-.4-2.8c-.1-.9-.3-2.5-.3-2.5h-.1s-.1 1.5-.3 2.5l-.4 2.8h1.5zm8-8.9c1 0 2.1.4 2.9 1.3l-1 2.8c-.4-.6-1-.9-1.7-.9-1.6 0-2.3 1.9-2.3 4.2 0 2.6.9 4.3 2.1 4.3.5 0 .9-.2 1.3-.6v-1.7h-1.1v-2.9h3.2v8.1h-1.9v-.9c-.4.7-1.2 1.2-2 1.2-2.1 0-4.1-2.7-4.1-7.3-.1-4.5 1.7-7.6 4.6-7.6zm4.7.3h5.3v2.9h-2.9V12h2.3v2.9h-2.3v2.9h3v2.9H30V6.4zm7.1 10.3c.4.6 1 1.2 1.7 1.2s1-.6 1-1.2c0-2-3.5-2.1-3.5-6.2 0-2.4 1.2-4.3 3.4-4.3.9 0 1.8.3 2.5 1l-.9 2.9c-.4-.4-1.1-.9-1.6-.9-.7 0-1 .6-1 1.2 0 2.1 3.5 2 3.5 6.1 0 2.3-1.1 4.4-3.3 4.4-1 0-2.1-.5-3-1.4l1.2-2.8z" fill="#fff"/><path class="st2" d="M57.4 81.5l-.1.6-.1.8-41.3-.1-.5-.1-.2-.3-.1-.4.1-.3.4-.3h41.8z"/><path class="st3" d="M57.4 81.5l-.1.6-.1.8-41.3-.1-.5-.1-.2-.3-.1-.4.1-.3.4-.3h41.8z"/><path class="st2" d="M18.1 76.9l1.5 1.6-2 1.4-1 .6h-.4l-.2-.4.7-1 1.4-2.2z"/><path class="st3" d="M18.1 76.9l1.5 1.6-2 1.4-1 .6h-.4l-.2-.4.7-1 1.4-2.2z"/><path class="st2" d="M31.4 61.7l3.3 3.4-2.9 2.9-3.2 2.9-3.2 2.8-2.5 2.2-2.7 1.9-1.6-1.6 1.5-2.2 2.1-2.5 1.6-1.9 2.1-2.2 2.6-2.8 2.9-2.9z"/><path class="st3" d="M31.4 61.7l3.3 3.4-2.9 2.9-3.2 2.9-3.2 2.8-2.5 2.2-2.7 1.9-1.6-1.6 1.5-2.2 2.1-2.5 1.6-1.9 2.1-2.2 2.6-2.8 2.9-2.9z"/><path class="st2" d="M46.6 48l.8.1.5.4.4.7v.9l-.3.8-.4.6v.7l.3.4.1.5-.1.7-6.7 7.2-1.9 2-.7.9-.1.4.1.5-.4.5-.7-.3-.2-.7.1-.7.4-.6 4.7-5 4-4.4.1-.5-.5-.1-2.8 3.1-4.6 4.8-3.3 3.4-3.4-3.1 3.8-4 4.3-4.2 4-3.7 1-.7.7-.4h.8z"/><path class="st3" d="M46.6 48l.8.1.5.4.4.7v.9l-.3.8-.4.6v.7l.3.4.1.5-.1.7-6.7 7.2-1.9 2-.7.9-.1.4.1.5-.4.5-.7-.3-.2-.7.1-.7.4-.6 4.7-5 4-4.4.1-.5-.5-.1-2.8 3.1-4.6 4.8-3.3 3.4-3.4-3.1 3.8-4 4.3-4.2 4-3.7 1-.7.7-.4h.8z"/></svg>