<svg id="Layer_1" xmlns="http://www.w3.org/2000/svg" viewBox="0 0 72 96"><style>.st0{fill:#bababa}</style><path class="st0" d="M0 2v92c0 1.1.9 2 2 2h68c1.1 0 2-.9 2-2V28H50c-1.1 0-2-.9-2-2V0H2C.9 0 0 .9 0 2z"/><path class="st0" d="M71.9 24c-.1-.4-.2-.7-.4-1L52 1.2V24h19.9z"/><path d="M6 41h60v49H6zm.7-34.5h3.8c2.4 0 4 1.9 4 4.6s-1.6 4.7-4 4.7H9.1v4.9H6.7V6.5zm3.5 7.1c1.3 0 2-1 2-2.5s-.8-2.5-2-2.5H9.1v5h1.1zm7.7-7.1h2.5L24 20.7h-2.3l-.9-3.7h-3.3l-.8 3.7h-2.3l3.5-14.2zm2.6 8.5l-.9-3.8c-.2-.8-.4-2.2-.4-2.2h-.1s-.2 1.4-.4 2.2l-.8 3.8h2.6zm4.8-8.5h3.9c.5 0 1.2.1 1.8.4 1.2.6 2 2 2 3.8 0 1.9-.9 3.3-2 3.9 0 0 .2.3.4.8l2.2 5.3h-2.5L29 15.4h-1.5v5.3h-2.3V6.5zm3.5 6.7c1 0 1.8-.9 1.8-2.3 0-.8-.3-1.5-.7-1.9-.3-.2-.7-.3-1-.3h-1.3v4.6h1.2zm8.4-4.5H34V6.5h8.8v2.2h-3.3v12h-2.3v-12z" fill="#fff"/><path class="st0" d="M55.1 58.1c-.5-.1-.9-.2-1.4-.1-1.1.1-2.3.7-3.4.9-.8.1-1.5-.5-1.6-1.4-.2-2.6-.2-5.3 0-7.9 0-.4-.3-.6-.6-.6-3-.1-5.9.2-9 .9-.8.2-1.4.9-1.4 1.6.1 1.6 1.2 3.4.7 5.1-.4 1.5-1.6 2.6-3.2 2.9-1.5.3-3.1-.4-3.9-1.6-1-1.4-.5-3.4-.9-5.1-.2-.8-1-1.2-1.8-1.1-3 .3-5.9 1-8.7 2.1-.4.1-.6.5-.4.8 1.1 2.4 1.9 4.9 2.6 7.5.2.8-.3 1.6-1.1 1.8-1.1.3-2.4.1-3.5.4-.5.1-.9.3-1.3.6-1.4.9-2 2.4-1.8 3.9.2 1.4 1.3 2.6 2.6 3.2 1.7.6 3.2-.5 4.9-.6.8-.1 1.5.5 1.6 1.4.2 2.6.2 5.3 0 7.9 0 .4.3.6.6.6 3 .2 6-.2 9-.9.8-.2 1.4-.9 1.4-1.6-.1-1.7-1.3-3.4-.8-5.2.4-1.4 1.8-2.6 3.2-2.8 1.4-.2 3.1.4 3.9 1.6 1.1 1.4.5 3.5.9 5.2.2.8 1 1.2 1.8 1.1 3-.3 6-.9 8.7-2.1.4-.1.6-.5.4-.8-1.1-2.4-1.9-4.9-2.6-7.5-.2-.8.3-1.6 1.1-1.8 1.6-.4 3.4.1 4.9-1 1.1-.9 1.8-2.4 1.5-3.8.1-1.9-1.1-3.2-2.4-3.6z"/></svg>