<svg xmlns="http://www.w3.org/2000/svg" viewBox="0 0 72 96"><style>.st0{fill:#6781b2}</style><path class="st0" d="M0 2v92c0 1.1.9 2 2 2h68c1.1 0 2-.9 2-2V28H50c-1.1 0-2-.9-2-2V0H2C.9 0 0 .9 0 2z"/><path class="st0" d="M71.9 24c-.1-.4-.2-.7-.4-1L52 1.2V24h19.9z"/><path d="M6 41h60v49H6zm.6-34.6h4.5c2.6 0 4.4 2 4.4 4.9 0 2.9-1.7 5-4.4 5H9.9v4.4H6.6V6.4zm3.9 7c1 0 1.6-.9 1.6-2.1s-.7-2-1.6-2h-.6v4.1h.6zm7.9-7h3.3v5.8h3.2V6.4h3.3v14.3h-3.3V15h-3.2v5.7h-3.3V6.4zm13.4 0h4.5c2.6 0 4.4 2 4.4 4.9 0 2.9-1.7 5-4.4 5h-1.2v4.4h-3.3V6.4zm3.9 7c1 0 1.6-.9 1.6-2.1s-.7-2-1.6-2H35v4.1h.7z" fill="#fff"/><path class="st0" d="M33.9 73c1.9.7 5 .6 7.2.3.4.9-.2 2.1.2 3.1.2.5.8.9 1.8 1.4.2.1.5.1.7.2l.2.2c.4.3 1.2.8 1.4.8.3.1.6.1.8.1h1c1.4-.1 2.8-.5 3.2-1 .7-.9.3-2.9.2-4.7-.1-1.5-.3-3.5 0-4.7.1-.4.5-.8.7-1.3.8-1.7 1.6-4.5 1.3-7.2-.2-1.2-.8-2.3-.9-3.2 1.9.2 3.7-.2 5.3 0 1 .1 1.8.8 2.7.7.2-.5.8-.8.8-1.4.1-.7-.2-1.5-.5-2-1.3-.2-2.3 1-3.6 1.1-.4 0-.9-.1-1.4-.2-1.5-.1-3.6.3-4.9 0-.9-.2-1.7-1.2-2.6-1.6-.2-.1-.6 0-.8-.2-.3-.1-.5-.3-.7-.3-1-.4-2.1-.8-3.1-.9-1.9-.5-4.5-.5-6.9-.3-.8.1-1.5.5-2.3.3-.6-.1-.7-.5-1.1-.7-1.7-.8-3.4.1-4.5.7-.8.4-1.8 1-2.6 1.1-.8.2-2 0-2.7 0-.9 0-2.1.2-3.1.3-.9.2-2.2.3-2.7.7-1.4.8-1.8 4.5-2.3 6.7-.2.8-.5 1.6-.7 2.4-.3 1.8-.5 3.7-.5 5.4-.1 3.5-.5 8.4 1.3 9.7.4.3 1.7.7 2.1.5.1 0 .6-.5.7-.7.1-.3-.2-.7-.2-1.1 0-.8-.2-1.8-.2-2.6 0-2.1.4-4.4.9-5.3 0-.1.3-.1.3-.2.1-.2 0-.4.2-.5.4-.4 1-.8 1.4-.9 1.2-.5 1.9.1 2.4.8 1 1.3 1.2 3.5 1.3 5.6v1.3c0 .5-.2 1-.2 1.3.3.8 1.7 1.2 2.3 1.6 0 .3.1.7.3.9.3.5.8.8 1.1 1 1.5.8 5.3.3 6-.7.1-.1.2-.2.2-.4.1-.3.3-.6.3-.8.6-1.8-.1-3.4.2-5.3zm-2.1-17.9c-.1.1-.1.1 0 0"/></svg>