<svg id="Layer_1" xmlns="http://www.w3.org/2000/svg" viewBox="0 0 72 96"><style>.st0,.st2{fill:#f57e00}.st2{stroke:#f57e00;stroke-miterlimit:10}</style><path class="st0" d="M0 2v92c0 1.1.9 2 2 2h68c1.1 0 2-.9 2-2V28H50c-1.1 0-2-.9-2-2V0H2C.9 0 0 .9 0 2z"/><path class="st0" d="M71.9 24c-.1-.4-.2-.7-.4-1L52 1.2V24h19.9z"/><path d="M6 41h60v49H6zm.5-34.6h4.1c2.4 0 3.9 2 3.9 4.9 0 2.9-1.6 5-3.9 5H9.5v4.4h-3V6.4zm3.5 7c.9 0 1.5-.9 1.5-2.1s-.6-2-1.4-2h-.6v4.1h.5zm5.7-7h4.1c2.4 0 3.9 2 3.9 4.9 0 2.9-1.6 5-3.9 5h-1.1v4.4h-3V6.4zm3.5 7c.9 0 1.5-.9 1.5-2.1s-.6-2-1.4-2h-.6v4.1h.5zM27 9.3h-2.8V6.4h8.6v2.9H30v11.4h-3V9.3zm9 4.3l-3.1-7.2h3.3l1 2.9c.3.9.5 1.8.5 1.8s.2-.9.5-1.8l1-2.9h3.2l-3.1 7.2 3 7.1h-3.2l-1-3c-.1-.9-.3-1.7-.3-1.7s-.2.8-.5 1.7l-1 3H33l3-7.1z" fill="#fff"/><path class="st2" d="M53 47.7H19c-1.7 0-3.1 1.4-3.1 3.1v21.8c0 1.7 1.4 3.1 3.1 3.1h14.2L31.8 81h-1.6c-.7 0-1.2.5-1.2 1.2s.5 1.2 1.2 1.2h11.5c.7 0 1.2-.5 1.2-1.2s-.5-1.2-1.2-1.2H40l-1.4-5.4H53c1.7 0 3.1-1.4 3.1-3.1V50.8c0-1.7-1.4-3.1-3.1-3.1zm.3 25.1H18.7V50.6h34.5l.1 22.2z"/><path class="st2" d="M27.6 63.9h2.8v5.6h-2.8zm4.7-1.8h2.8v7.4h-2.8zm4.6-1.9h2.8v9.3h-2.8zm4.6-1.8h2.8v11.1h-2.8zm-.2-4.1L36.4 57l-3.6-1.2-6.1 3.3.9 1 5.4-2.8 3.6 1.2 5.6-3.1.9 1 2.1-3.5-4.8.3z"/></svg>