<svg id="Layer_1" xmlns="http://www.w3.org/2000/svg" viewBox="0 0 72 96"><style>.st0{fill:#03c}</style><path class="st0" d="M0 2v92c0 1.1.9 2 2 2h68c1.1 0 2-.9 2-2V28H50c-1.1 0-2-.9-2-2V0H2C.9 0 0 .9 0 2z"/><path class="st0" d="M71.9 24c-.1-.4-.2-.7-.4-1L52 1.2V24h19.9z"/><path d="M6 41h60v49H6zm.6-34.6h4.5c2.6 0 4.4 2 4.4 4.9 0 2.9-1.7 5-4.4 5H9.9v4.4H6.6V6.4zm3.9 7c1 0 1.6-.9 1.6-2.1s-.7-2-1.6-2h-.6v4.1h.6zm8.6 3.3c.6.6 1.4 1.2 2.3 1.2.9 0 1.3-.6 1.3-1.2 0-2-4.8-2.1-4.8-6.2 0-2.4 1.7-4.3 4.5-4.3 1.2 0 2.4.3 3.4 1l-1.2 2.9c-.5-.4-1.4-.9-2.2-.9-.9 0-1.3.6-1.3 1.2 0 2.1 4.8 2 4.8 6.1 0 2.3-1.5 4.4-4.4 4.4-1.4 0-2.9-.5-4-1.4l1.6-2.8zM29 6.4h4.2c3.7 0 5.9 2.6 5.9 7.1s-2.2 7.2-5.9 7.2H29V6.4zm4.1 11.4c1.7 0 2.6-1.5 2.6-4.3s-1-4.2-2.6-4.2h-.8v8.5h.8z" fill="#fff"/><path d="M25.9 68.5c-1 0-2-.1-2.8-.3v12.1h-3.8V52.6c1.9-.9 4.5-1.6 7.2-1.6 6.8 0 9.9 3.6 9.9 8.7 0 4.9-3.2 8.8-10.5 8.8zm.6-15.2c-1.3 0-2.5.3-3.4.6V66c.8.1 1.8.2 2.8.2 5 0 6.8-2.9 6.8-6.5 0-3.9-1.8-6.4-6.2-6.4zM46 80.8c-2.2 0-4.7-.6-6.1-1.6l1-2.4c1.3.8 3.1 1.3 4.7 1.3 2.6 0 4.4-1.7 4.4-3.9 0-5.5-9.6-3.3-9.6-10.8 0-3.5 2.8-6.2 7-6.2 2.2 0 4.2.5 5.7 1.6l-1 2.2c-1.2-.8-2.7-1.3-4.2-1.3-2.6 0-3.8 1.6-3.8 3.6 0 5.2 9.7 3.1 9.7 10.8-.1 3.6-3.2 6.7-7.8 6.7z" fill="#03c" stroke="#03c" stroke-width="1.25" stroke-miterlimit="10"/></svg>