<svg id="Layer_1" xmlns="http://www.w3.org/2000/svg" viewBox="0 0 72 96"><style>.st0{fill:#039}</style><path class="st0" d="M0 2v92c0 1.1.9 2 2 2h68c1.1 0 2-.9 2-2V28H50c-1.1 0-2-.9-2-2V0H2C.9 0 0 .9 0 2z"/><path class="st0" d="M71.9 24c-.1-.4-.2-.7-.4-1L52 1.2V24h19.9z"/><path d="M6 41h60v49H6zm.6-34.6h4.5c.6 0 1.3.1 1.9.4 1.4.6 2.4 2.1 2.4 4 0 1.7-.8 3.3-2 4 0 0 .2.2.5.9l2.3 5h-3.6l-2-4.8h-.7v4.8H6.6V6.4zm3.9 6.6c.9 0 1.6-.7 1.6-1.9 0-.7-.2-1.2-.6-1.5-.3-.2-.6-.3-.9-.3h-.7V13h.6zm9.8-6.6h3.6l3.6 14.3h-3.3l-.6-3h-3l-.6 3h-3.3l3.6-14.3zm2.8 8.6l-.6-2.8c-.2-.9-.4-2.5-.4-2.5H22s-.2 1.5-.4 2.5L21 15h2.1zm6.3-8.6H33l1.3 6c.2.9.4 2.4.4 2.4h.1s.2-1.5.4-2.4l1.3-6h3.6l.9 14.3h-3l-.4-6.4c-.1-1.1 0-2.4 0-2.4h-.1s-.2 1.5-.4 2.4l-.9 4.1H33l-.9-4.1c-.2-.9-.4-2.4-.4-2.4h-.1s.1 1.3 0 2.4l-.4 6.4h-3l1.2-14.3z" fill="#fff"/><path d="M22.9 73.9l-7.7-8.5v-.1l7.7-8.5v-5.7l-10.2 12v4.5l10.2 11.9zm25.8-22.8v5.7l7.9 8.5v.1l-7.9 8.5v5.6l10.2-11.7v-4.9zM41 55.5c-1.3-.6-3-1.6-3.6-3 0-.7-.6-1.3-1.3-1.3s-1.3.6-1.3 1.3v17.3c-1.3-.7-3.9-.5-5.9.6-3 1.7-4.3 4.9-3 7.2 1.3 2.2 5 2.7 8 1 2.1-1.2 3.5-3.2 3.6-5.1v-15c4.4 0 7 1.8 6 6-.2.8-.4 1.6-.8 2.3-.2.3-.2.5.1.8.2.2.6.2 1-.2 1.7-1.6 2.7-3.7 2.7-6 0-2.9-2.9-4.8-5.5-5.9z" fill="#039" stroke="#039" stroke-width=".5" stroke-miterlimit="10"/></svg>