<svg xmlns="http://www.w3.org/2000/svg" viewBox="0 0 72 96"><style>.st0{fill:#3c3}</style><path class="st0" d="M0 2v92c0 1.1.9 2 2 2h68c1.1 0 2-.9 2-2V28H50c-1.1 0-2-.9-2-2V0H2C.9 0 0 .9 0 2z"/><path class="st0" d="M71.9 24c-.1-.4-.2-.7-.4-1L52 1.2V24h19.9z"/><path d="M6 41h60v49H6zm.6-34.6h4.5c.6 0 1.3.1 1.9.4 1.4.6 2.4 2.1 2.4 4 0 1.7-.8 3.3-2 4 0 0 .2.2.5.9l2.3 5h-3.6l-2-4.8h-.7v4.8H6.6V6.4zm3.9 6.6c.9 0 1.6-.7 1.6-1.9 0-.7-.2-1.2-.6-1.5-.3-.2-.6-.3-.9-.3h-.7V13h.6zm9.8-6.6h3.6l3.6 14.3h-3.3l-.6-3h-3l-.6 3h-3.3l3.6-14.3zm2.8 8.6l-.6-2.8c-.2-.9-.4-2.5-.4-2.5H22s-.2 1.5-.4 2.5L21 15h2.1zm4.4-8.6h3.2l1.2 8.9c.1.7.1 1.6.1 1.6h.1s0-.9.1-1.6l1.3-8.9h3.1l1.3 8.9c.1.7.1 1.6.1 1.6h.1s0-.9.1-1.6l1.2-8.9h3.2L40 20.7h-3.7l-1.1-7.2c-.1-.9-.2-1.7-.2-1.7s0 .8-.1 1.7l-1.1 7.2H30L27.5 6.4z" fill="#fff"/><path class="st0" d="M14 48.5v33.9h44V48.5H14zM55.5 51v14.8l-10.5-8-11.5 11.5-8.1-4.5-8.8 7V51h38.9z"/><circle class="st0" cx="23" cy="57.6" r="3.1"/></svg>