<svg xmlns="http://www.w3.org/2000/svg" viewBox="0 0 72 96"><style>.st0{fill:#999}</style><path class="st0" d="M0 2v92c0 1.1.9 2 2 2h68c1.1 0 2-.9 2-2V28H50c-1.1 0-2-.9-2-2V0H2C.9 0 0 .9 0 2z"/><path class="st0" d="M71.9 24c-.1-.4-.2-.7-.4-1L52 1.2V24h19.9z"/><path d="M6 41h60v49H6zm.6-34.6h4.5c.6 0 1.3.1 1.9.4 1.4.6 2.4 2.1 2.4 4 0 1.7-.8 3.3-2 4 0 0 .2.2.5.9l2.3 5h-3.6l-2-4.8h-.7v4.8H6.6V6.4zm3.9 6.6c.9 0 1.6-.7 1.6-1.9 0-.7-.2-1.2-.6-1.5-.3-.2-.6-.3-.9-.3h-.7V13h.6zm8.3-6.6H23c3.7 0 5.9 2.6 5.9 7.1s-2.2 7.2-5.9 7.2h-4.2V6.4zm4.1 11.4c1.7 0 2.6-1.5 2.6-4.3s-1-4.2-2.6-4.2h-.8v8.5h.8zm9.2-11.4h7.1v2.9h-3.8v3.1h3.1v2.9h-3.1v5.4h-3.3V6.4z" fill="#fff"/><path d="M23.7 75.5c-.5 0-1.1-.2-1.5-.6l-8.4-8.4c-.8-.8-.8-2.1 0-3l8.4-8.4c.8-.8 2.1-.8 3 0 .8.8.8 2.1 0 3L18.3 65l6.9 6.9c.8.8.8 2.1 0 3-.4.4-1 .6-1.5.6zm25.1 0c-.5 0-1.1-.2-1.5-.6-.8-.8-.8-2.1 0-3l6.9-6.9-6.9-6.9c-.8-.8-.8-2.1 0-3 .8-.8 2.1-.8 3 0l8.4 8.4c.8.8.8 2.1 0 3l-8.4 8.4c-.4.4-1 .6-1.5.6zm-16.7 4.1c-.2 0-.4 0-.7-.1-1.1-.4-1.7-1.5-1.3-2.6l8.4-25.1c.4-1.1 1.5-1.7 2.6-1.3 1.1.4 1.7 1.5 1.3 2.6L34 78.2c-.2.9-1.1 1.4-1.9 1.4z" fill="#999" stroke="#999" stroke-width="1.5" stroke-miterlimit="10"/></svg>