<svg xmlns="http://www.w3.org/2000/svg" viewBox="0 0 72 96"><style>.st0{fill:#696}</style><path class="st0" d="M0 2v92c0 1.1.9 2 2 2h68c1.1 0 2-.9 2-2V28H50c-1.1 0-2-.9-2-2V0H2C.9 0 0 .9 0 2z"/><path class="st0" d="M71.9 24c-.1-.4-.2-.7-.4-1L52 1.2V24h19.9z"/><path d="M6 41h60v49H6zm.6-34.6h4.5c.6 0 1.3.1 1.9.4 1.4.6 2.4 2.1 2.4 4 0 1.7-.8 3.3-2 4 0 0 .2.2.5.9l2.3 5h-3.6l-2-4.8h-.7v4.8H6.6V6.4zm3.9 6.6c.9 0 1.6-.7 1.6-1.9 0-.7-.2-1.2-.6-1.5-.3-.2-.6-.3-.9-.3h-.7V13h.6zm9 3.7c.6.6 1.4 1.2 2.3 1.2.9 0 1.3-.6 1.3-1.2 0-2-4.8-2.1-4.8-6.2 0-2.4 1.7-4.3 4.5-4.3 1.2 0 2.4.3 3.4 1L25 10.1c-.5-.4-1.4-.9-2.2-.9-.9 0-1.3.6-1.3 1.2 0 2.1 4.8 2 4.8 6.1 0 2.3-1.5 4.4-4.4 4.4-1.4 0-2.9-.5-4-1.4l1.6-2.8zM31.8 6.4h3.6L39 20.7h-3.3l-.6-3h-3l-.6 3h-3.3l3.6-14.3zm2.8 8.6l-.6-2.9c-.2-.9-.4-2.5-.4-2.5h-.1s-.2 1.5-.4 2.5l-.5 2.9h2z" fill="#fff"/><path class="st0" d="M49.2 62.2h-2.6v-5C46.6 51.5 42 47 36.4 47s-10.2 4.6-10.2 10.2v5h-2.6c-1 0-1.8.8-1.8 1.8v17.4c0 1 .8 1.8 1.8 1.8h25.6c1 0 1.8-.8 1.8-1.8V63.9c0-.9-.8-1.7-1.8-1.7zM38.6 76.6c.2.6-.3 1.1-.9 1.1H35c-.6 0-1-.6-.9-1.1l.8-3.2c-1-.5-1.7-1.5-1.7-2.8 0-1.7 1.4-3.1 3.1-3.1 1.7 0 3.1 1.4 3.1 3.1 0 1.2-.7 2.3-1.7 2.8l.9 3.2zm2.9-14.4H31.3v-5c0-2.8 2.3-5.1 5.1-5.1s5.1 2.3 5.1 5.1v5z"/></svg>