<svg xmlns="http://www.w3.org/2000/svg" viewBox="0 0 72 96"><style>.st0{fill:#cd6799}</style><path class="st0" d="M0 2v92c0 1.1.9 2 2 2h68c1.1 0 2-.9 2-2V28H50c-1.1 0-2-.9-2-2V0H2C.9 0 0 .9 0 2z"/><path class="st0" d="M71.9 24c-.1-.4-.2-.7-.4-1L52 1.2V24h19.9z"/><path d="M6 41h60v49H6zm1.1-24.3c.5.6 1.3 1.2 2.1 1.2s1.2-.6 1.2-1.2c0-2-4.3-2.1-4.3-6.2 0-2.4 1.5-4.3 4.1-4.3 1.1 0 2.2.3 3.1 1l-1.1 2.9c-.4-.4-1.3-.9-1.9-.9-.8 0-1.2.6-1.2 1.2 0 2.1 4.3 2 4.3 6.1 0 2.3-1.3 4.4-4 4.4-1.3 0-2.6-.5-3.6-1.4l1.3-2.8zM20.9 6.1c1.1 0 2.4.4 3.2 1.2L23 10.2c-.4-.5-1.2-.9-1.9-.9-1.9 0-2.9 1.9-2.9 4.2 0 2.3 1 4.4 2.9 4.4.9 0 1.5-.5 2.1-1l1.2 2.8c-.8.7-1.8 1.3-3.5 1.3-3.6 0-5.7-3.1-5.7-7.4-.1-4.3 2.1-7.5 5.7-7.5zM27 16.7c.5.6 1.3 1.2 2.1 1.2s1.2-.6 1.2-1.2c0-2-4.3-2.1-4.3-6.2 0-2.4 1.5-4.3 4.1-4.3 1.1 0 2.2.3 3.1 1l-1.1 2.9c-.4-.4-1.3-.9-1.9-.9-.8 0-1.2.6-1.2 1.2 0 2.1 4.3 2 4.3 6.1 0 2.3-1.3 4.4-4 4.4-1.3 0-2.6-.5-3.6-1.4l1.3-2.8zm9.2 0c.5.6 1.3 1.2 2.1 1.2s1.2-.6 1.2-1.2c0-2-4.3-2.1-4.3-6.2 0-2.4 1.5-4.3 4.1-4.3 1.1 0 2.2.3 3.1 1l-1.1 2.9c-.4-.4-1.3-.9-1.9-.9-.8 0-1.2.6-1.2 1.2 0 2.1 4.3 2 4.3 6.1 0 2.3-1.3 4.4-4 4.4-1.3 0-2.6-.5-3.6-1.4l1.3-2.8z" fill="#fff"/><path d="M53.6 69.6c-1.6 0-3.1.4-4.3 1-.4-.9-.9-1.6-1-2.2-.1-.7-.2-1-.1-1.8s.6-1.9.6-2-.1-.5-1-.5c-1 0-1.8.1-1.8.4-.1.2-.3.8-.4 1.4-.1.9-1.9 3.9-2.9 5.5-.3-.7-.6-1.2-.7-1.6-.1-.7-.2-1-.1-1.8s.6-1.9.6-2c0-.1-.1-.5-1-.5s-1.8.1-1.8.4c-.1.3-.2.8-.4 1.4-.2.6-2.5 5.6-3.1 7-.3.7-.6 1.2-.7 1.6v.1c-.1.3-.3.5-.3.5-.1.2-.3.4-.4.4s-.1-.6 0-1.5c.4-1.8 1.2-4.5 1.2-4.6 0-.1.1-.5-.5-.8-.7-.2-.9.1-1 .1-.1 0-.1.1-.1.1s.7-3.1-1.4-3.1c-1.3 0-3.2 1.5-4.2 2.8-.6.3-1.8 1-3.2 1.7-.5.3-1 .6-1.5.8l-.1-.1c-2.6-2.8-7.5-4.8-7.3-8.6.1-1.4.5-5 9.3-9.3 7.2-3.6 13-2.6 13.9-.4 1.4 3.2-3.1 9-10.6 9.8-2.9.3-4.3-.8-4.7-1.2-.4-.4-.4-.4-.6-.4-.2.1-.1.5 0 .7.2.6 1.2 1.6 2.7 2.1 1.4.4 4.7.7 8.7-.9 4.5-1.8 8.1-6.6 7-10.7-1-4.1-7.9-5.5-14.4-3.2-3.9 1.4-8.1 3.5-11.1 6.4-3.6 3.4-4.1 6.2-3.9 7.5.8 4.3 6.8 7.1 9.2 9.2-.1.1-.2.1-.3.1-1.2.6-5.7 2.9-6.9 5.5-1.3 2.9.2 4.9 1.2 5.1 3.1.9 6.2-.7 7.9-3.2 1.7-2.5 1.5-5.8.7-7.3v-.1c.3-.1.7-.4 1-.5.6-.4 1.2-.7 1.7-1-.3.8-.5 1.8-.6 3.2-.1 1.6.5 3.7 1.4 4.5.4.4.8.4 1.1.4 1 0 1.5-.8 2-1.8.6-1.2 1.2-2.6 1.2-2.6s-.7 3.8 1.2 3.8c.7 0 1.4-.9 1.7-1.3l.1-.1.1-.1c.3-.5.9-1.5 1.8-3.4 1.2-2.3 2.3-5.3 2.3-5.3s.1.7.4 1.9c.2.7.7 1.5 1 2.2-.3.4-.4.6-.4.6-.2.3-.4.6-.7 1-1 1.1-2.1 2.4-2.2 2.8-.1.4-.1.7.2 1 .2.2.7.2 1.2.2.8-.1 1.5-.3 1.7-.4.4-.1 1-.4 1.5-.8 1-.7 1.5-1.6 1.4-2.9 0-.7-.3-1.4-.5-2.1.1-.1.1-.2.2-.4 1.5-2.1 2.6-4.5 2.6-4.5s.1.7.4 1.9c.1.6.5 1.2.8 1.9-1.4 1.1-2.2 2.4-2.5 3.2-.5 1.5-.1 2.3.7 2.4.4.1.9-.1 1.2-.3.5-.1 1-.4 1.6-.8 1-.7 1.8-1.6 1.8-2.9 0-.6-.1-1.2-.4-1.7 1.2-.5 2.6-.7 4.5-.5 4.1.5 4.9 3 4.8 4.1-.1 1.1-1 1.7-1.3 1.8s-.4.2-.4.4.1.1.4.1c.4-.1 2.1-.9 2.2-2.9.2-2.2-2.2-4.9-6.4-4.9zM22.1 80.3c-1.3 1.5-3.2 2.1-4 1.5-.9-.5-.5-2.7 1.1-4.3 1-1 2.3-1.8 3.2-2.3.2-.1.5-.3.8-.5.1 0 .1-.1.1-.1.1-.1.1-.1.2-.1.6 2.2 0 4.1-1.4 5.8zm9.9-6.8c-.4 1.2-1.5 4.1-2.1 4-.5-.1-.8-2.3-.1-4.5.4-1.1 1.2-2.4 1.6-2.9.7-.8 1.5-1.1 1.8-.7.2.2-.9 3.4-1.2 4.1zm8.1 3.9c-.2.1-.4.1-.4.1l.1-.1s1-1.1 1.4-1.6c.2-.3.5-.7.8-1v.1c-.1 1.2-1.4 2.1-1.9 2.5zm6.2-1.4c-.1-.1-.1-.4.4-1.5.2-.4.7-1.1 1.4-1.8.1.3.1.5.1.8 0 1.6-1.1 2.2-1.9 2.5z" fill="#cd6799" stroke="#cd6799" stroke-width=".25" stroke-miterlimit="10"/></svg>