<svg xmlns="http://www.w3.org/2000/svg" viewBox="0 0 72 96"><style>.st0{fill:#f63}</style><path class="st0" d="M0 2v92c0 1.1.9 2 2 2h68c1.1 0 2-.9 2-2V28H50c-1.1 0-2-.9-2-2V0H2C.9 0 0 .9 0 2z"/><path class="st0" d="M71.9 24c-.1-.4-.2-.7-.4-1L52 1.2V24h19.9z"/><path fill="#fff" d="M6 41h60v49H6z"/><path d="M6.8 17.5c.5.7 1.2 1.2 2 1.2.9 0 1.4-.7 1.4-1.8 0-2.6-4.1-2.5-4.1-6.6 0-2.3 1.3-4 3.5-4 .9 0 1.8.3 2.6.9l-.7 2.2c-.4-.4-1.2-.8-1.8-.8-1 0-1.5.8-1.5 1.7 0 2.6 4.1 2.4 4.1 6.5 0 2.2-1.1 4.1-3.4 4.1-1.1 0-2.2-.5-3-1.4l.9-2zm6.2-11h2l1.3 9.8c.1.7.1 1.6.1 1.6h.1s0-.9.1-1.6L18 6.5h1.9l1.3 9.8c.1.7.1 1.6.1 1.6h.1s0-.9.1-1.6l1.3-9.8h2l-2.1 14.2h-2.3l-1.2-8.4c-.1-.9-.2-1.9-.2-1.9h-.1s0 .9-.2 1.9l-1.2 8.4h-2.3L13 6.5zm13 0h2v14.2h-2V6.5zm4.1 0h5.4v2.2h-3.4v4.1h2.8V15h-2.8v5.8h-2V6.5zm8.7 2.2H36V6.5h7.6v2.2h-2.8v12h-2v-12z" fill="#fff" stroke="#fff" stroke-width=".25" stroke-miterlimit="10"/><path d="M52.5 72.3S58.4 59 40.3 47c0 0 7.4 9.1 3.6 19.4 0 0-13.3-9.2-20-15.9 0 0 8.4 11.8 11.4 14.2 0 0-5-2.5-16.5-12.2 0 0 13.3 17 19.5 20.5 0 0-9.5 6.3-23.3-2.6 0 0 7.3 12.6 22.6 12.6 6.9 0 8.9-3.5 12.3-3.5 3.5 0 5.7 3.5 5.7 3.5 2-5-3.1-10.7-3.1-10.7z" fill="#fa2a22"/></svg>