<svg id="Layer_1" xmlns="http://www.w3.org/2000/svg" viewBox="0 0 72 96"><style>.st0{fill:#bababa}</style><path class="st0" d="M0 2v92c0 1.1.9 2 2 2h68c1.1 0 2-.9 2-2V28H50c-1.1 0-2-.9-2-2V0H2C.9 0 0 .9 0 2z"/><path class="st0" d="M71.9 24c-.1-.4-.2-.7-.4-1L52 1.2V24h19.9z"/><path d="M6 41h60v49H6zm1.3-24.3c.6.6 1.4 1.2 2.3 1.2.9 0 1.3-.6 1.3-1.2 0-2-4.8-2.1-4.8-6.2 0-2.4 1.7-4.3 4.5-4.3 1.2 0 2.4.3 3.4 1l-1 2.9c-.5-.4-1.4-.9-2.2-.9-.9 0-1.3.6-1.3 1.2 0 2.1 4.8 2 4.8 6.1 0 2.3-1.5 4.4-4.4 4.4-1.4 0-2.9-.5-4-1.4l1.4-2.8zm9-10.3h3.2l1.2 8.9c.1.7.1 1.6.1 1.6h.1s0-.9.1-1.6l1.3-8.9h3.1l1.3 8.9c.1.7.1 1.6.1 1.6h.1s0-.9.1-1.6l1.2-8.9h3.2l-2.5 14.3h-3.7L24 13.5c-.1-.9-.2-1.7-.2-1.7h-.1s0 .8-.1 1.7l-1.1 7.2h-3.8L16.3 6.4zm17.7 0h4.5c2.6 0 4.4 2 4.4 4.9 0 2.9-1.7 5-4.4 5h-1.2v4.4H34V6.4zm3.9 7c1 0 1.6-.9 1.6-2.1s-.7-2-1.6-2h-.7v4.1h.7z" fill="#fff"/><path class="st0" d="M56.5 76.6c0-1.6-1.3-2.9-2.9-2.9H17.7c-1.6 0-2.9 1.3-2.9 2.9v4.1c0 1.6 1.3 2.9 2.9 2.9h35.9c1.6 0 2.9-1.3 2.9-2.9v-4.1zM41 80.4c-.9 0-1.7-.7-1.7-1.7S40.1 77 41 77s1.7.7 1.7 1.7-.7 1.7-1.7 1.7zm5.1 0c-.9 0-1.7-.7-1.7-1.7s.7-1.7 1.7-1.7c.9 0 1.7.7 1.7 1.7s-.8 1.7-1.7 1.7zm5 0c-.9 0-1.7-.7-1.7-1.7s.7-1.7 1.7-1.7c.9 0 1.7.7 1.7 1.7s-.8 1.7-1.7 1.7zM17.7 72h35.9c.8 0 1.6.2 2.2.6l-3.5-7.3c-1-2.1-2.6-2.9-4.2-2.9h-3.9l-5.6 5.8c-.4.4-.9.7-1.4.9-.5.2-1.1.3-1.6.3-.6 0-1.1-.1-1.6-.3h-.2c-.4-.2-.8-.5-1.2-.8l-5.6-6h-3.9c-1.6 0-3.1.9-4.2 2.9l-3.5 7.3c.7-.3 1.4-.5 2.3-.5z"/><path class="st0" d="M44 59.6c.2-.2.3-.4.5-.7.1-.3.2-.5.2-.9 0-.3-.1-.6-.2-.8-.1-.3-.3-.5-.5-.7-.2-.2-.5-.4-.7-.5-.2-.1-.5-.2-.8-.2s-.6.1-.8.2c-.3.1-.5.3-.7.5l-3.2 3.2v-10c0-.3-.1-.6-.2-.8-.1-.3-.3-.5-.5-.7-.2-.2-.4-.4-.7-.5-.2-.1-.5-.1-.8-.1-.3 0-.6 0-.8.1-.3.1-.5.3-.7.5-.2.2-.4.4-.5.7-.1.3-.2.5-.2.8v10.1l-3.2-3.2c-.2-.2-.4-.4-.7-.5-.2-.1-.5-.2-.8-.2-.3 0-.6.1-.8.2-.2.1-.5.3-.7.5-.2.2-.4.4-.5.7-.1.3-.2.5-.2.8 0 .3.1.6.2.9.1.3.3.5.5.7l6.9 7c.2.2.4.4.7.5.2.1.5.2.8.2.3 0 .6-.1.8-.2.3-.1.5-.3.7-.5l6.9-7.1z"/></svg>