<svg id="Layer_1" xmlns="http://www.w3.org/2000/svg" viewBox="0 0 72 96"><style>.st0{fill:#999}</style><path class="st0" d="M0 2v92c0 1.1.9 2 2 2h68c1.1 0 2-.9 2-2V28H50c-1.1 0-2-.9-2-2V0H2C.9 0 0 .9 0 2z"/><path class="st0" d="M71.9 24c-.1-.4-.2-.7-.4-1L52 1.2V24h19.9z"/><path d="M6 41h60v49H6V41zm1.3-24.3c.6.6 1.4 1.2 2.3 1.2.9 0 1.3-.6 1.3-1.2 0-2-4.8-2.1-4.8-6.2 0-2.4 1.7-4.3 4.5-4.3 1.2 0 2.4.3 3.4 1l-1 2.9c-.5-.4-1.4-.9-2.2-.9-.9 0-1.3.6-1.3 1.2 0 2.1 4.8 2 4.8 6.1 0 2.3-1.5 4.4-4.4 4.4-1.4 0-2.9-.5-4-1.4l1.4-2.8zm12.3-1.9L16 6.4h3.6l1.1 3.4c.3 1 .5 2.1.5 2.1h.1s.2-1.1.5-2.1l1.1-3.4h3.6l-3.6 8.4v5.9h-3.3v-5.9zm9.8 1.9c.6.6 1.4 1.2 2.3 1.2s1.3-.6 1.3-1.2c0-2-4.8-2.1-4.8-6.2 0-2.4 1.7-4.3 4.5-4.3 1.2 0 2.4.3 3.4 1l-1.2 2.9c-.5-.4-1.4-.9-2.2-.9-.9 0-1.3.6-1.3 1.2 0 2.1 4.8 2 4.8 6.1 0 2.3-1.5 4.4-4.4 4.4-1.4 0-2.9-.5-4-1.4l1.6-2.8z" fill="#fff"/><path class="st0" d="M51.9 77.8L40.3 66.2l-.3-.3 2.1-2.2.3-.3c2.7 1 5.9.5 8.1-1.7 1.6-1.6 2.4-3.8 2.2-6.1 0-.3-.2-.5-.4-.6-.2-.1-.5 0-.7.2l-3.7 3.7L44 58l-1-3.9 3.7-3.7c.2-.2.2-.5.2-.7-.1-.2-.3-.4-.6-.4-2.3-.2-4.5.6-6.1 2.2-2.2 2.2-2.8 5.4-1.7 8.1l-.3.3-3 2.9-5.6-5.6-.2-.2c.1-.1.1-.2.2-.4 1.2.2 3.3-2.1 5.1-3.9l-5.3-5.3c-2.4 2.4-4.1 4-3.9 5.1-.5.3-1 .6-1.4.9l-.7.7c-.5.5-.8 1.1-.9 1.7-.1.1-.1.2-.2.3l-.3.6v.1l-.3.4c-.2.2-.3.4-.4.7 0 .1-.1.2-.2.2l-.1.1c-.1.3-.3.5-.4.8-.1.3-.3.7-.4 1.1v.2c0 .1-.1.3-.1.4l-.1.5c-.1.3-.1.6-.1.9v1.8l.1.4v.2c0 .2.1.3.1.5l.3.9c.1.3.4.5.7.5.2 0 .3-.1.4-.2.1-.1.2-.2.2-.4l.1-1c0-.1 0-.2.1-.3 0-.1 0-.2.1-.2l.1-.4s0-.1.1-.1c0 0 0-.1.1-.1 0-.1.1-.2.1-.2.1-.2.1-.3.2-.4 0-.1.1-.1.1-.2.1-.2.2-.3.3-.5l.2-.3c0-.1.1-.1.2-.2l.1-.1c.1-.2.3-.3.5-.5l.1-.1c.1-.1.3-.2.4-.3.1 0 .1-.1.2-.1s.1-.1.2-.1c.1-.1.2-.2.4-.2l.3-.2.3-.1c.1-.1.2-.1.3-.1.1 0 .1 0 .2-.1 0 0 .1 0 .1-.1.1 0 .1 0 .2-.1h.1c.1.1.2.3.3.4l5.5 5.5-12.2 11.2c-1.5 1.5-1.7 3.6-.2 5.1 1.5 1.5 3.5 1.1 4.9-.4l10.3-10.9.2.2 11.6 11.6c1.3 1.3 3.4 1.3 4.7 0 1.3-1.3 1.3-3.4 0-4.7zm-28.4 2.6c-.5.5-1.4.5-1.9 0s-.5-1.4 0-1.9 1.4-.5 1.9 0c.6.5.6 1.4 0 1.9z"/></svg>