<svg xmlns="http://www.w3.org/2000/svg" viewBox="0 0 72 96"><style>.st0{fill:#7faf4a}</style><path class="st0" d="M0 2v92c0 1.1.9 2 2 2h68c1.1 0 2-.9 2-2V28H50c-1.1 0-2-.9-2-2V0H2C.9 0 0 .9 0 2z"/><path class="st0" d="M71.9 24c-.1-.4-.2-.7-.4-1L52 1.2V24h19.9z"/><path d="M6 41h60v49H6zM8.8 8.7H5.7V6.5h8.4v2.2H11v12H8.8v-12zm5.8-2.2h2.2l1.4 9.8c.1.7.1 1.6.1 1.6h.1s0-.9.1-1.6l1.6-9.8h2.1l1.5 9.8c.1.7.1 1.6.1 1.6h.2s0-.9.1-1.6l1.4-9.8h2.2l-2.3 14.2h-2.6l-1.3-8.4c-.1-.9-.2-1.9-.2-1.9h-.1s-.1.9-.2 1.9l-1.4 8.4H17L14.6 6.5zm14.4 0h2.2v14.2H29V6.5zm9.6-.3c1.2 0 2.5.4 3.4 1.2l-.9 2.1c-.6-.6-1.5-1-2.4-1-2.2 0-3.4 2.1-3.4 5 0 3.1 1.4 5 3.2 5 .8 0 1.6-.3 2.1-1v-2.2h-1.5v-2.2h3.4v7.5h-1.7v-1c-.5.8-1.6 1.3-2.7 1.3-2.6 0-5.1-2.7-5.1-7.3.1-4.4 2.3-7.4 5.6-7.4z" fill="#fff"/><path class="st0" d="M52.4 83.1c-2.4-20.9 2.8-15.3 2.8-15.3-5.7-6.8-8.6.3-10 6.9-.7-10.6-4-28.2-17.2-27.9 7.1 0 7.5 14.4 6.8 24.8-6.2-11-20.1-10.2-20.1-10.2S25.1 61 25.1 83h27.3z"/></svg>