<svg xmlns="http://www.w3.org/2000/svg" viewBox="0 0 72 96"><style>.st0{fill:#999}</style><path class="st0" d="M0 2v92c0 1.1.9 2 2 2h68c1.1 0 2-.9 2-2V28H50c-1.1 0-2-.9-2-2V0H2C.9 0 0 .9 0 2z"/><path class="st0" d="M71.9 24c-.1-.4-.2-.7-.4-1L52 1.2V24h19.9z"/><path d="M6 41h60v49H6zm2.8-27.5l-3-7h2.5L9.5 10c.3.8.5 1.7.5 1.7s.2-.9.5-1.7L12 6.5h2.4l-3 7 3.1 7.2h-2.4l-1.4-3.8c-.3-.8-.5-1.6-.5-1.6s-.2.8-.5 1.6l-1.4 3.8H5.7l3.1-7.2zm9.3-7h2.4l3.4 14.2h-2.2l-.8-3.7h-3.2l-.8 3.7h-2.2l3.4-14.2zm2.5 8.5l-.8-3.8c-.2-.8-.4-2.2-.4-2.2h-.1s-.2 1.4-.4 2.2l-.8 3.8h2.5zm5-8.5H28l1.7 6.9c.2.9.4 2.2.4 2.2h.1s.2-1.3.4-2.2l1.7-6.9h2.4l.8 14.2h-2.1l-.4-7.9c-.1-.9 0-2.2 0-2.2h-.1s-.2 1.4-.4 2.3l-1.4 5.4h-2.2l-1.4-5.4c-.2-.8-.4-2.3-.4-2.3H27s.1 1.3 0 2.2l-.4 7.9h-2.1l1.1-14.2zm12 0h2.2v12H44v2.2h-6.4V6.5z" fill="#fff"/><path d="M23.7 76c-.5 0-1.1-.2-1.5-.6L13.9 67c-.8-.8-.8-2.1 0-3l8.4-8.4c.8-.8 2.1-.8 3 0 .8.8.8 2.1 0 3l-6.9 6.9 6.9 6.9c.8.8.8 2.1 0 3-.5.4-1.1.6-1.6.6zm25.1 0c-.5 0-1.1-.2-1.5-.6-.8-.8-.8-2.1 0-3l6.9-6.9-6.9-6.9c-.8-.8-.8-2.1 0-3 .8-.8 2.1-.8 3 0l8.4 8.4c.8.8.8 2.1 0 3l-8.4 8.4c-.4.4-1 .6-1.5.6zm-16.7 4.1c-.2 0-.4 0-.7-.1-1.1-.4-1.7-1.5-1.3-2.6l8.4-25.1c.4-1.1 1.5-1.7 2.6-1.3 1.1.4 1.7 1.5 1.3 2.6L34 78.7c-.2.9-1.1 1.4-1.9 1.4z" fill="#999" stroke="#999" stroke-width="1.5" stroke-miterlimit="10"/></svg>