<svg xmlns="http://www.w3.org/2000/svg" viewBox="0 0 72 96"><style>.st0{fill:#999}</style><path class="st0" d="M0 2v92c0 1.1.9 2 2 2h68c1.1 0 2-.9 2-2V28H50c-1.1 0-2-.9-2-2V0H2C.9 0 0 .9 0 2z"/><path class="st0" d="M71.9 24c-.1-.4-.2-.7-.4-1L52 1.2V24h19.9z"/><path d="M6 41h60v49H6zm2.9-26.2L5.3 6.4h3.6L10 9.8c.3 1 .5 2.1.5 2.1h.1s.2-1.1.5-2.1l1.1-3.4h3.6l-3.6 8.4v5.9H8.9v-5.9zm9.6-8.4h3.6l1.3 6c.2.9.4 2.4.4 2.4h.1s.2-1.5.4-2.4l1.3-6h3.6l.9 14.3h-3l-.4-6.4c-.1-1.1 0-2.4 0-2.4h-.1s-.2 1.5-.4 2.4l-.9 4.1h-3.2l-.9-4.1c-.2-.9-.4-2.4-.4-2.4h-.1s.1 1.3 0 2.4l-.4 6.4h-3l1.2-14.3zm15 0h3.3v11.4h4.3v2.9h-7.6V6.4z" fill="#fff"/><path class="st0" d="M14 48.9h37v4.3H14zm7 9.6h37v4.3H21zm-7 9.6h37v4.3H14zm7 9.6h37V82H21z"/></svg>