<svg xmlns="http://www.w3.org/2000/svg" viewBox="0 0 100 100"><path d="M90 20H45L35 10H10C4.5 10 0 14.5 0 20v20h100V30c0-5.5-4.5-10-10-10z" fill="#ffa000"/><path d="M90 20H10C4.5 20 0 24.5 0 30v50c0 5.5 4.5 10 10 10h80c5.5 0 10-4.5 10-10V30c0-5.5-4.5-10-10-10z" fill="#ffca28"/><path d="M45.3 34h9.3v4.7h-9.3V34zm0-14h9.3v4.7h-9.3V20zm0 7h9.3v4.7h-9.3V27zm0 14h9.3v4.7h-9.3V41zm9.4 7h-9.3c0 7-4.7 14-4.7 18.7 0 5.1 4.2 9.3 9.3 9.3s9.3-4.2 9.3-9.3c0-4.7-4.6-11.7-4.6-18.7zM50 71.3c-2.6 0-4.7-2.1-4.7-4.7S47.4 62 50 62s4.7 2.1 4.7 4.7-2.1 4.6-4.7 4.6z" fill="#bf360c"/></svg>