<svg id="Layer_1" xmlns="http://www.w3.org/2000/svg" viewBox="0 0 100 100"><style>.st0{fill:#5c5f66}.st1{fill:#53565c}</style><path class="st0" d="M52.9 67.6v17.8c0 1.6-1.3 2.9-2.9 2.9s-2.9-1.3-2.9-2.9V67.6c0-1.6 1.3-2.9 2.9-2.9s2.9 1.2 2.9 2.9z"/><path class="st1" d="M97.1 94.1H55.9c-1.6 0-2.9-1.3-2.9-2.9s1.3-2.9 2.9-2.9h41.2c1.6 0 2.9 1.3 2.9 2.9s-1.3 2.9-2.9 2.9z"/><path class="st0" d="M44.1 94.1H2.9c-1.6 0-2.9-1.3-2.9-2.9s1.3-2.9 2.9-2.9h41.2c1.6 0 2.9 1.3 2.9 2.9s-1.2 2.9-2.9 2.9z"/><path class="st1" d="M52.9 67.6v17.8c0 1.6-1.3 2.9-2.9 2.9V64.6c1.6 0 2.9 1.3 2.9 3z"/><path d="M50 82.4c-4.9 0-8.8 3.9-8.8 8.8s3.9 8.8 8.8 8.8 8.8-3.9 8.8-8.8-3.9-8.8-8.8-8.8z" fill="#7b8089"/><path d="M58.8 91.2c0 4.9-3.9 8.8-8.8 8.8V82.4c4.9 0 8.8 3.9 8.8 8.8z" fill="#6f747f"/><path d="M76.9 10.2H43.5l-8.4-8.4H14.4C9.8 1.8 6 5.6 6 10.2v50c0 4.6 3.8 8.4 8.4 8.4H79c3.5 0 6.2-2.7 6.2-6.2V18.5c0-4.6-3.8-8.3-8.3-8.3z" fill="#ffa000"/><path d="M85.6 22.7h-56c-4 0-7.5 2.9-8.2 6.9l-7 38.9h66c4 0 7.5-2.9 8.2-6.9l5.2-29.2c1-5-3-9.7-8.2-9.7z" fill="#ffca28"/></svg>