<svg xmlns="http://www.w3.org/2000/svg" viewBox="0 0 100 100"><path d="M90 20H45L35 10H10C4.5 10 0 14.5 0 20v20h100V30c0-5.5-4.5-10-10-10z" fill="#999"/><path d="M90 20H10C4.5 20 0 24.5 0 30v50c0 5.5 4.5 10 10 10h80c5.5 0 10-4.5 10-10V30c0-5.5-4.5-10-10-10z" fill="#bababa"/><path d="M71.2 54.8L51.9 35.5c-1.1-1.1-2.9-1.1-4 0l-4 4 5 5c1.1-.4 2.6-.1 3.5.8.9.9 1.2 2.4.8 3.5l4.9 4.9c1.2-.4 2.6-.1 3.5.8 1.3 1.3 1.3 3.5 0 4.8-1.3 1.3-3.5 1.3-4.8 0-1-1-1.2-2.5-.7-3.7l-4.5-4.5v12l.9.6c1.3 1.3 1.3 3.5 0 4.8-1.3 1.3-3.5 1.3-4.8 0-1.3-1.3-1.4-3.5-.1-4.8.3-.3.6-.6 1-.7V50.9c-.3-.2-.7-.4-1-.7-1-1-1.2-2.5-.7-3.7l-4.9-5-13.2 13.2c-1.1 1.1-1.1 2.9 0 4L48 77.9c1.1 1.1 2.9 1.1 4 0l19.1-19.1c1.2-1.2 1.2-3 .1-4z" fill="#888"/></svg>