<svg id="Layer_1" xmlns="http://www.w3.org/2000/svg" viewBox="0 0 100 100"><style>.st4{fill:#5d5360}</style><path d="M90 20H45L35 10H10C4.5 10 0 14.5 0 20v20h100V30c0-5.5-4.5-10-10-10z" fill="#ffa000"/><path d="M90 20H10C4.5 20 0 24.5 0 30v50c0 5.5 4.5 10 10 10h80c5.5 0 10-4.5 10-10V30c0-5.5-4.5-10-10-10z" fill="#ffca28"/><path d="M50.1 78.5c-8.3 0-15-6.7-15-15v-8.2c0-2.3 1.8-4.1 4.1-4.1H61c2.3 0 4.1 1.8 4.1 4.1v8.2c0 8.3-6.8 15-15 15z" fill="#a8a8a8"/><path d="M50.1 33.5c-6 0-10.9 4.9-10.9 10.9v6.8h5.5v-6.8c0-3 2.4-5.5 5.5-5.5 3 0 5.5 2.4 5.5 5.5v6.8H61v-6.8c0-6-4.9-10.9-10.9-10.9z" fill="#6f6571"/><path class="st4" d="M58.2 46.5v-1.7c0-4.5-3.5-8.4-7.9-8.5-4.6-.1-8.4 3.6-8.4 8.2v2c0 1.1-.9 2-2 2h-.7v2.7h5.5v-6.6c0-2.8 2.1-5.4 4.9-5.7 3.3-.3 6 2.2 6 5.4v6.8H61v-2.7h-.7c-1.2.1-2.1-.8-2.1-1.9z"/><path d="M52.8 77.1c-8.3 0-15-6.7-15-15V51.5c-1.6.6-2.7 2.1-2.7 3.9v8.2c0 8.3 6.7 15 15 15 3 0 5.7-.9 8-2.3-1.7.5-3.5.8-5.3.8z" fill="#8c8c8c"/><path class="st4" d="M52.8 62.1c0-1.7-1.6-3-3.3-2.7-1 .2-1.8 1-2.1 2-.3 1.1.1 2.1.9 2.7.3.2.4.6.4 1v2.4c0 .8.6 1.4 1.4 1.4s1.4-.6 1.4-1.4v-2.4c0-.4.2-.7.4-1 .5-.4.9-1.2.9-2z"/><path d="M49.5 62.2c1.2-.3 2.4.3 2.9 1.3.2-.4.4-.9.4-1.4 0-1.7-1.6-3-3.3-2.7-1 .2-1.8 1-2.1 2-.2.7-.1 1.5.3 2 .4-.6 1-1 1.8-1.2z" fill="#4b3f4e"/></svg>