<?xml version="1.0" encoding="UTF-8" standalone="no"?>
<!DOCTYPE svg PUBLIC "-//W3C//DTD SVG 1.1//EN" "http://www.w3.org/Graphics/SVG/1.1/DTD/svg11.dtd">
<svg version="1.1" width="64" height="64" viewBox="0 0 1024 1024" xmlns="http://www.w3.org/2000/svg">
	<g>
		<path d="M501.961,552.157C501.961,552.157 630.809,271.059 783.059,271.059C829.177,271.059 1024,512 1024,512L662.588,512L501.961,552.157Z" style="fill:#00903a;"/>
		<path d="M471.843,501.961C471.843,501.961 752.941,630.809 752.941,783.059C752.941,829.177 512,1024 512,1024L512,662.588L471.843,501.961Z" style="fill:#bc002b;"/>
		<path d="M522.039,471.843C522.039,471.843 393.191,752.941 240.941,752.941C194.823,752.941 0,512 0,512L361.412,512L522.039,471.843Z" style="fill:#0057bc;"/>
		<path d="M552.157,522.039C552.157,522.039 271.059,393.191 271.059,240.941C271.059,194.823 512,0 512,0L512,361.412L552.157,522.039Z" style="fill:#e68200;"/>
		<path d="M501.961,552.157C484.855,446.651 485.24,305.181 491.922,271.059L783.059,271.059C695.229,271.059 513.765,534.864 502.51,551.35L501.961,552.157Z" style="fill:#00b34d;"/>
		<path d="M471.843,501.961C577.349,484.855 718.819,485.24 752.941,491.922L752.941,783.059C752.941,695.229 489.136,513.765 472.65,502.51L471.843,501.961Z" style="fill:#d9003a;"/>
		<path d="M522.039,471.843C539.145,577.349 538.76,718.819 532.078,752.941L240.941,752.941C328.771,752.941 510.235,489.136 521.49,472.65L522.039,471.843Z" style="fill:#0073d9;"/>
		<path d="M552.157,522.039C446.651,539.145 305.181,538.76 271.059,532.078L271.059,240.941C271.059,328.771 534.864,510.235 551.35,521.49L552.157,522.039Z" style="fill:#ffa600;"/>
		<circle cx="512" cy="512" r="10.039" style="fill:#fff;"/>
		<animateTransform
			attributeName="transform"
			dur="2s"
			type="rotate"
			from="360 512 512"
			to="0 512 512"
			repeatCount="indefinite"
		/>
	</g>
</svg>
