<svg id="Layer_1" xmlns="http://www.w3.org/2000/svg" viewBox="0 0 72 96"><style>.st0{fill:#f60}</style><path class="st0" d="M0 2v92c0 1.1.9 2 2 2h68c1.1 0 2-.9 2-2V28H50c-1.1 0-2-.9-2-2V0H2C.9 0 0 .9 0 2z"/><path class="st0" d="M71.9 24c-.1-.4-.2-.7-.4-1L52 1.2V24h19.9z"/><path d="M6 41h60v49H6zm1.5-24c.4.4 1.1.7 1.7.7.9 0 1.6-.4 1.6-1.6 0-1-.7-1.5-2.3-1.5h-.9L7 12.8l2-2.5c.5-.6.9-1 .9-1s-.4.1-1.1.1H6.5v-3h7.2V9l-2.6 3.1c2 .5 3.1 2.1 3.1 4.1 0 2.4-1.4 4.8-4.7 4.8-1.3 0-2.5-.4-3.5-1.3L7.5 17zM23.1 6.1c1.4 0 2.9.4 3.9 1.3l-1.4 2.8c-.6-.6-1.4-.9-2.3-.9-2.2 0-3.2 1.9-3.2 4.2 0 2.6 1.2 4.3 2.9 4.3.6 0 1.3-.2 1.7-.6v-1.7h-1.5v-2.9h4.3v8.1h-2.6v-.9c-.5.7-1.6 1.2-2.7 1.2-2.8 0-5.6-2.7-5.6-7.3.2-4.5 2.7-7.6 6.5-7.6zm7.6 13c0-5 4.5-5.5 4.5-8.4 0-1-.5-1.4-1.2-1.4-.6 0-1.1.3-1.4.8l-2.2-1.8c.8-1.1 2.3-2.1 4.1-2.1 2.1 0 4.2 1.3 4.2 4.2 0 4.1-4.2 5.4-4.4 7.5h4.6v2.9H31c-.2-.7-.3-1.1-.3-1.7z" fill="#fff"/><path class="st0" d="M13 83.1h46V47.9H13v35.2zm8.9-2.7h-5.5v-3.9h5.5v3.9zm16.9 0h-5.5v-3.9h5.5v3.9zm11.3-30.1h5.5v4h-5.5v-4zm0 26.1h5.5v3.9h-5.5v-3.9zm-8.5-26.1H47v3.9h-5.5v-3.9zm0 26.1H47v3.9h-5.5l.1-3.9zm-8.4-26.1h5.5v3.9h-5.5v-3.9zm-.8 9.7l7.2 4.1c1.3.8 1.3 2 0 2.8L32.4 71c-1.3.8-2.4.1-2.4-1.4v-8.3c0-1.4 1.1-2.1 2.4-1.3zm-7.7-9.7h5.4v3.9h-5.4v-3.9zm0 26.1h5.4v3.9h-5.4v-3.9zm-8.3-26.1h5.5v4h-5.5v-4z"/></svg>