<svg id="Layer_1" xmlns="http://www.w3.org/2000/svg" viewBox="0 0 72 96"><style>.st0{fill:#1493f6}</style><path class="st0" d="M0 2v92c0 1.1.9 2 2 2h68c1.1 0 2-.9 2-2V28H50c-1.1 0-2-.9-2-2V0H2C.9 0 0 .9 0 2z"/><path class="st0" d="M71.9 24c-.1-.4-.2-.7-.4-1L52 1.2V24h19.9z"/><path d="M6 41h60v49H6V41zM9 6.4h3.6l3.6 14.3h-3.3l-.6-3h-3l-.6 3H5.4L9 6.4zm2.8 8.6l-.6-2.8c-.2-.9-.4-2.5-.4-2.5h-.1s-.2 1.5-.4 2.5L9.8 15h2zm6.7-8.6h3.3V16c0 1.4.6 1.9 1.5 1.9s1.5-.5 1.5-1.9V6.4H28V16c0 3-1.9 4.9-4.7 4.9-2.9 0-4.8-1.9-4.8-4.9V6.4zm13.1 0h4.5c2.6 0 4.4 2 4.4 4.9s-1.7 5-4.4 5h-1.2v4.4h-3.3V6.4zm3.9 7c1 0 1.6-.9 1.6-2.1s-.7-2-1.6-2h-.7v4.1h.7z" fill="#fff"/><path id="surface1" class="st0" d="M36 48.8c-3.6 0-6.9 1-9.4 2.8-2.5 1.8-4.2 4.4-4.2 7.4v4.4c-2 1.5-3.4 4.7-3.4 8.4 0 5.1 2.7 9.3 6 9.3.8 0 1.7-.3 2.5-.8v-17c-.5-.3-1.1-.6-1.7-.7V59c0-1.8.9-3.4 2.7-4.6 1.8-1.3 4.5-2.2 7.5-2.2s5.6.9 7.5 2.2c1.8 1.3 2.7 2.9 2.7 4.6v3.5c-.6.2-1.2.4-1.7.7V80c.8.5 1.7.8 2.5.8 3.2 0 6-4.2 6-9.3 0-3.5-1.4-6.7-3.4-8.2V59c0-3-1.7-5.7-4.2-7.4-2.5-1.7-5.8-2.8-9.4-2.8zm0 15l-3.7 7.3-2.3-3-.8 1.2v5.6l.8-1 2.9 3.7 3.1-6.3 3.1 6.3 2.9-3.7.8 1v-5.6l-.8-1.2-2.2 3.1-3.8-7.4z"/></svg>