<svg id="Layer_1" xmlns="http://www.w3.org/2000/svg" viewBox="0 0 72 96"><style>.st0{fill:#2e61f2}</style><path class="st0" d="M0 2v92c0 1.1.9 2 2 2h68c1.1 0 2-.9 2-2V28H50c-1.1 0-2-.9-2-2V0H2C.9 0 0 .9 0 2z"/><path class="st0" d="M71.9 24c-.1-.4-.2-.7-.4-1L52 1.2V24h19.9z"/><path d="M6 41h60v49H6zM9 6.4h3.6l3.6 14.3h-3.3l-.6-3h-3l-.6 3H5.4L9 6.4zm2.8 8.6l-.6-2.8c-.2-.9-.4-2.5-.4-2.5h-.1s-.2 1.5-.4 2.5L9.8 15h2zm6.3 3.5l4.2-7.9c.5-.9.8-1.3.8-1.3s-.3.1-.8.1h-4v-3H27v2.2l-4.2 8c-.5.9-.8 1.3-.8 1.3s.3-.1.8-.1H27v2.9h-8.9v-2.2zM30.2 6.4h7.2v2.9h-3.9V12h3.1v2.9h-3.1v2.9h4.1v2.9h-7.4V6.4z" fill="#fff"/><path d="M40.7 83.5c8.1-7.2 1.1-16.4-1-17.4.3 1.1.2 3-.9 4.1-.5-2.8-2.7-6.3-5.8-7.5.5 4-1.8 6.8-2.8 8.2-.8 1.3-5.6 8-.8 12.6-11.5-3.6-8.6-15.1-5.3-20.2 3.5-5.3 7.6-9.6 6.7-16.2 5.6 2 9.4 7.9 10.4 12.4 1.9-1.8 2.2-5 1.7-6.8 3.9 1.6 16.1 23.6-2.2 30.8z" fill="#ff9800"/></svg>