<svg xmlns="http://www.w3.org/2000/svg" viewBox="0 0 72 96"><style>.st0{fill:#3c3}</style><path class="st0" d="M0 2v92c0 1.1.9 2 2 2h68c1.1 0 2-.9 2-2V28H50c-1.1 0-2-.9-2-2V0H2C.9 0 0 .9 0 2z"/><path class="st0" d="M71.9 24c-.1-.4-.2-.7-.4-1L52 1.2V24h19.9z"/><path d="M6 41h60v49H6zm.6-34.6h4.2c2.5 0 4.2 1.3 4.2 3.7 0 1.2-.5 2.4-1.7 3 1.6.5 2.1 1.9 2.1 3.2 0 3.1-2 4.3-4.4 4.3H6.6V6.4zm4.2 5.6c.6 0 .9-.6.9-1.4s-.3-1.3-1-1.3h-.8V12h.9zm.2 5.8c.8 0 1.2-.7 1.2-1.6 0-.9-.3-1.5-1.1-1.5H9.9v3.1H11zm8.1-11.4h3.6l1.3 6c.2.9.4 2.4.4 2.4h.1s.2-1.5.4-2.4l1.3-6h3.6l.9 14.3h-3l-.4-6.4c-.1-1.1 0-2.4 0-2.4h-.1s-.2 1.5-.4 2.4l-.9 4.1h-3.2l-.7-4.1c-.2-.9-.4-2.4-.4-2.4h-.1s.1 1.3 0 2.4l-.4 6.4h-3l1-14.3zm15 0h4.5c2.6 0 4.4 2 4.4 4.9 0 2.9-1.7 5-4.4 5h-1.2v4.4h-3.3V6.4zm3.9 7c1 0 1.6-.9 1.6-2.1s-.7-2-1.6-2h-.7v4.1h.7z" fill="#fff"/><path class="st0" d="M14 48.5v33.9h44V48.5H14zM55.5 51v14.8l-10.5-8-11.5 11.5-8.1-4.5-8.8 7V51h38.9z"/><circle class="st0" cx="23" cy="57.6" r="3.1"/></svg>