<svg xmlns="http://www.w3.org/2000/svg" viewBox="0 0 72 96"><style>.st0{fill:#679eb2}</style><path class="st0" d="M0 2v92c0 1.1.9 2 2 2h68c1.1 0 2-.9 2-2V28H50c-1.1 0-2-.9-2-2V0H2C.9 0 0 .9 0 2z"/><path class="st0" d="M71.9 24c-.1-.4-.2-.7-.4-1L52 1.2V24h19.9z"/><path d="M6 41h60v49H6zm5.9-34.8c1.1 0 2.3.4 3.2 1.2l-.9 2.1c-.4-.5-1.4-1-2.2-1-2.3 0-3.5 2.2-3.5 4.9 0 2.8 1.3 5.2 3.5 5.2 1 0 1.8-.5 2.4-1l.9 2.1c-.8.7-1.9 1.3-3.5 1.3-3.5 0-5.6-3.2-5.6-7.4-.1-4.3 2.1-7.4 5.7-7.4zm4.8.3h6.1v2.2H19v4.1h3.2V15H19v5.8h-2.2V6.5zm8.1 0h2.5l1.8 6.9c.2.9.4 2.2.4 2.2h.1s.2-1.3.4-2.2l1.8-6.9h2.5l.8 14.2H33l-.4-7.9c-.1-.9 0-2.2 0-2.2h-.1s-.2 1.4-.4 2.3l-1.4 5.4h-2.2L27 12.9c-.2-.8-.4-2.3-.4-2.3h-.1s.1 1.3 0 2.2l-.5 7.9h-2.1l.9-14.2zm12.1 0h2.2v12h4.2v2.2h-6.5V6.5z" fill="#fff"/><path d="M31.5 81.8c-7.4 0-10.8-7.1-10.8-14.9C20.6 59.2 24 52 31.5 52c2.3 0 4.2.6 5.7 1.6l-1 2.4c-1.1-.7-2.6-1.2-4.2-1.2-5.2 0-7.3 6-7.3 12.1 0 6 2.1 12 7.2 12 1.6 0 3.2-.5 4.2-1.2l1 2.5c-1.5 1-3.3 1.6-5.6 1.6zM46.4 61v20.3h-3.7V61h-2.6v-2.3h2.6v-3.2c0-4.3 2.4-7.2 6.9-7.2h.8v2.4h-.3c-2 0-3.7 1-3.7 4.6v3.3h3.9V61h-3.9z" fill="#679eb2" stroke="#679eb2" stroke-width="1.25" stroke-miterlimit="10"/></svg>