<svg id="Layer_1" xmlns="http://www.w3.org/2000/svg" viewBox="0 0 72 96"><style>.st0{fill:#fff}.st1{fill:#bababa}</style><path class="st0" d="M0 2v92c0 1.1.9 2 2 2h68c1.1 0 2-.9 2-2V28H50c-1.1 0-2-.9-2-2V0H2C.9 0 0 .9 0 2z"/><path class="st1" d="M29.5 51.6c-1.2 1-2.4 1.8-3.5 2.7-2.4 1.8-4.7 3.5-7.1 5.4-.3.3-.6.3-.9.1-.5-.3-1-.5-1.5-.8-.3-.1-.4-.4-.4-.7V39.7c0-.2.2-.5.4-.6.6-.3 1.1-.6 1.6-.9.3-.2.6 0 .8.2 1.9 1.5 3.9 3 5.8 4.4l4.8 3.6.3-.3c5.8-5.6 11.6-11.3 17.4-16.9.3-.3.6-.3 1-.2 2.5 1 4.9 2 7.4 3 .2.1.3.3.4.5.1.1 0 .3 0 .5v32.1c0 .8 0 .8-.8 1.1-2.3 1-4.7 1.8-7 2.8-.4.2-.7.1-1-.2C41.4 63.1 35.7 57.5 30 52c-.1-.1-.3-.2-.5-.4zm16.7 5.1V41.4c-3.4 2.6-6.8 5-10.2 7.6 3.4 2.6 6.8 5.1 10.2 7.7zM24.8 49c-1.7-1.5-3.3-3.1-5.1-4.6v9.2c1.8-1.5 3.4-3 5.1-4.6z"/><path class="st0" d="M71.9 24c-.1-.4-.2-.7-.4-1L52 1.2V24h19.9z"/><path class="st1" d="M0 94V2C0 .9.9 0 2 0h48c.6 0 1.1.2 1.5.7l20 22.3c.3.4.5.8.5 1.3V94c0 1.1-.9 2-2 2H2c-1.1 0-2-.9-2-2zm68-68.9L49.1 4H4v88h64V25.1z"/><path class="st1" d="M48 26V4c0-1.1.9-2 2-2s2 .9 2 2v20h16c1.1 0 2 .9 2 2s-.9 2-2 2H50c-1.1 0-2-.9-2-2z"/></svg>