<svg id="Layer_1" xmlns="http://www.w3.org/2000/svg" viewBox="0 0 72 96"><style>.st0{fill:#fff}.st2{fill:#bababa}</style><path class="st0" d="M0 2v92c0 1.1.9 2 2 2h68c1.1 0 2-.9 2-2V28H50c-1.1 0-2-.9-2-2V0H2C.9 0 0 .9 0 2z"/><path class="st0" d="M71.9 24c-.1-.4-.2-.7-.4-1L52 1.2V24h19.9z"/><path d="M13 74.5c.9 0 1.8.3 2.5.8l-1 2c-.3-.3-.9-.6-1.5-.6-1.5 0-2.3 1.3-2.3 2.9s.8 3.1 2.2 3.1c.7 0 1.2-.3 1.6-.7l1 1.9c-.6.5-1.4.9-2.8.9-2.8 0-4.4-2.2-4.4-5.2.2-2.9 1.8-5.1 4.7-5.1zm8 0c2.6 0 4.1 2.2 4.1 5.1 0 3-1.5 5.2-4.1 5.2s-4.1-2.3-4.1-5.2c0-2.9 1.4-5.1 4.1-5.1zm0 8.2c1.2 0 1.7-1.3 1.7-3 0-1.8-.5-2.9-1.7-2.9s-1.7 1.2-1.7 2.9c-.1 1.7.5 3 1.7 3zm6.2-8h3c2.6 0 4.1 1.8 4.1 5s-1.6 5-4.1 5h-3v-10zm2.9 8c1.2 0 1.8-1 1.8-3 0-1.9-.7-3-1.8-3h-.6v6h.6zm6.4-8h5v2h-2.7v1.9H41v2h-2.2v2h2.9v2h-5.2v-9.9zm7.3 0h2.3v3.9h.4l1.6-3.9h2.5l-2 4.8 2.1 5.2h-2.6l-1.6-4.1h-.4v4.1h-2.3v-10zm8.7 0h2.3v10h-2.3v-10zm6.5 2h-2.2v-2h6.7v2h-2.2v8H59v-8z" fill="#666"/><path class="st2" d="M0 94V2C0 .9.9 0 2 0h48c.6 0 1.1.2 1.5.7l20 22.3c.3.4.5.8.5 1.3V94c0 1.1-.9 2-2 2H2c-1.1 0-2-.9-2-2zm68-68.9L49.1 4H4v88h64V25.1z"/><path class="st2" d="M48 26V4c0-1.1.9-2 2-2s2 .9 2 2v20h16c1.1 0 2 .9 2 2s-.9 2-2 2H50c-1.1 0-2-.9-2-2z"/><path d="M25.2 60.2c-.7 0-1.4-.3-1.9-.8L12.8 48.9c-1-1-1-2.7 0-3.7l10.6-10.6c1-1 2.7-1 3.7 0s1 2.7 0 3.7L18.4 47l8.7 8.7c1 1 1 2.7 0 3.7-.5.5-1.2.8-1.9.8zm21.6 0c-.7 0-1.4-.3-1.9-.8-1-1-1-2.7 0-3.7l8.7-8.7-8.7-8.7c-1-1-1-2.7 0-3.7s2.7-1 3.7 0l10.6 10.6c1 1 1 2.7 0 3.7L48.7 59.4c-.6.5-1.2.8-1.9.8z" fill="#bababa" stroke="#bababa" stroke-width=".5" stroke-miterlimit="10"/></svg>