<svg id="Layer_1" xmlns="http://www.w3.org/2000/svg" viewBox="0 0 72 96"><style>.st0{fill:#fff}.st1{fill:#bababa}</style><path class="st0" d="M0 2v92c0 1.1.9 2 2 2h68c1.1 0 2-.9 2-2V28H50c-1.1 0-2-.9-2-2V0H2C.9 0 0 .9 0 2z"/><path class="st1" d="M28.3 44.7c-1.3 1-2.5 1.9-3.7 2.8-2.5 1.9-4.9 3.7-7.4 5.6-.3.3-.6.3-.9.1-.5-.3-1-.5-1.6-.8-.3-.1-.4-.4-.4-.7V32.2c0-.2.2-.5.4-.6.6-.3 1.2-.6 1.7-.9.3-.2.6 0 .8.2 2 1.6 4.1 3.1 6.1 4.6 1.7 1.3 3.3 2.5 5 3.8l.3-.3c6.1-5.9 12.1-11.8 18.2-17.7.3-.3.6-.3 1-.2 2.6 1 5.1 2.1 7.7 3.1.2.1.3.3.4.5.1.1 0 .3 0 .5v33.6c0 .8 0 .8-.8 1.1-2.4 1-4.9 1.9-7.3 2.9-.4.2-.7.1-1-.2-6-5.9-12-11.7-18-17.5-.1-.1-.3-.2-.5-.4zM45.8 50V34c-3.6 2.7-7.1 5.3-10.7 8 3.6 2.7 7.1 5.3 10.7 8zm-22.4-8c-1.8-1.6-3.5-3.2-5.3-4.8v9.6c1.8-1.6 3.5-3.2 5.3-4.8z"/><path class="st0" d="M71.9 24c-.1-.4-.2-.7-.4-1L52 1.2V24h19.9z"/><path d="M13.6 70.2c1.1 0 2.2.4 3.1 1.2l-1.2 2.8c-.3-.5-1.1-.9-1.8-.9-1.8 0-2.7 1.9-2.7 4.2 0 2.3 1 4.4 2.7 4.4.8 0 1.4-.5 2-1l1.2 2.8c-.8.7-1.7 1.3-3.3 1.3-3.4 0-5.3-3.1-5.3-7.4-.2-4.4 1.9-7.4 5.3-7.4zm5.3 10.5c.5.6 1.2 1.2 2 1.2.7 0 1.1-.6 1.1-1.2 0-2-4-2.1-4-6.2 0-2.4 1.4-4.3 3.9-4.3 1 0 2.1.3 2.9 1l-1 2.9c-.4-.4-1.2-.9-1.8-.9-.8 0-1.1.6-1.1 1.2 0 2.1 4.1 2 4.1 6.1 0 2.3-1.3 4.4-3.8 4.4-1.2 0-2.4-.5-3.4-1.4l1.1-2.8zm7.6-10.3h3.8c2.2 0 3.7 2 3.7 4.9s-1.5 5-3.7 5h-1v4.4h-2.8V70.4zm3.3 7c.9 0 1.4-.9 1.4-2.1s-.6-2-1.3-2h-.6v4.1h.5zm5.9-7h3.8c.5 0 1.1.1 1.6.4 1.2.6 2 2.1 2 4 0 1.7-.7 3.3-1.7 4 0 0 .2.2.4.9l2 5h-3.1L39 79.9h-.7v4.8h-2.8V70.4h.2zM39 77c.7 0 1.3-.7 1.3-1.9 0-.7-.2-1.2-.5-1.5-.2-.2-.5-.3-.7-.3h-.6V77h.5zm10.7-6.8c3.2 0 5 3.1 5 7.3 0 4.2-1.8 7.5-5 7.5s-5-3.2-5-7.5c0-4.2 1.8-7.3 5-7.3zm0 11.6c1.4 0 2.1-1.8 2.1-4.3s-.6-4.2-2.1-4.2c-1.4 0-2.1 1.7-2.1 4.2s.6 4.3 2.1 4.3zm6-2.5h2.8v1.1c0 1.5.3 1.6.6 1.6.4 0 .6-.3.6-1.6v-7h-2.3v-2.9h5.1v9.9c0 3.3-1.7 4.6-3.4 4.6-1.8 0-3.4-1.4-3.4-4.6v-1.1z" fill="#666"/><path class="st1" d="M0 94V2C0 .9.9 0 2 0h48c.6 0 1.1.2 1.5.7l20 22.3c.3.4.5.8.5 1.3V94c0 1.1-.9 2-2 2H2c-1.1 0-2-.9-2-2zm68-68.9L49.1 4H4v88h64V25.1z"/><path class="st1" d="M48 26V4c0-1.1.9-2 2-2s2 .9 2 2v20h16c1.1 0 2 .9 2 2s-.9 2-2 2H50c-1.1 0-2-.9-2-2z"/></svg>