<svg id="Layer_1" xmlns="http://www.w3.org/2000/svg" viewBox="0 0 72 96"><style>.st0{fill:#1f7244}</style><path class="st0" d="M0 2v92c0 1.1.9 2 2 2h68c1.1 0 2-.9 2-2V28H50c-1.1 0-2-.9-2-2V0H2C.9 0 0 .9 0 2z"/><path class="st0" d="M71.9 24c-.1-.4-.2-.7-.4-1L52 1.2V24h19.9z"/><path d="M6 41h60v49H6zm6.5-34.9c1.3 0 2.6.4 3.6 1.2l-1.4 2.8c-.4-.5-1.3-.9-2.1-.9-2.1 0-3.2 1.9-3.2 4.2 0 2.3 1.2 4.4 3.2 4.4 1 0 1.7-.5 2.3-1l1.4 2.8c-.9.7-2 1.3-3.9 1.3-4 0-6.3-3.1-6.3-7.4-.1-4.2 2.3-7.4 6.4-7.4zm7.2 10.6c.6.6 1.4 1.2 2.3 1.2.9 0 1.3-.6 1.3-1.2 0-2-4.8-2.1-4.8-6.2 0-2.4 1.7-4.3 4.5-4.3 1.2 0 2.4.3 3.4 1l-1.2 2.9c-.5-.4-1.4-.9-2.2-.9-.9 0-1.3.6-1.3 1.2 0 2.1 4.8 2 4.8 6.1 0 2.3-1.5 4.4-4.4 4.4-1.4 0-2.9-.5-4-1.4l1.6-2.8zm8.7-10.3H32l1.6 8.1c.2.9.3 2.3.3 2.3h.1s.2-1.4.3-2.3L36 6.4h3.5l-3.9 14.3h-3.3L28.4 6.4z" fill="#fff"/><path d="M14 54h8.5m3.3 0h8.5m3.4 0h8.5m3.3 0H58m-44 5.9h8.5m3.3 0h8.5m3.4 0h8.5m3.3 0H58m-44 5.9h8.5m3.3 0h8.5m3.4 0h8.5m3.3 0H58m-44 5.9h8.5m3.3 0h8.5m3.4 0h8.5m3.3 0H58m-44 5.9h8.5m3.3 0h8.5m3.4 0h8.5m3.3 0H58" fill="none" stroke="#1f7244" stroke-width="3" stroke-miterlimit="10"/></svg>