<svg id="Layer_1" xmlns="http://www.w3.org/2000/svg" viewBox="0 0 72 96"><style>.st0{fill:#0091ea}</style><path class="st0" d="M0 2v92c0 1.1.9 2 2 2h68c1.1 0 2-.9 2-2V28H50c-1.1 0-2-.9-2-2V0H2C.9 0 0 .9 0 2z"/><path class="st0" d="M71.9 24c-.1-.4-.2-.7-.4-1L52 1.2V24h19.9z"/><path d="M6 41h60v49H6zm.5-34.6h3.8c3.3 0 5.3 2.6 5.3 7.1s-2 7.2-5.3 7.2H6.5V6.4zm3.7 11.4c1.5 0 2.3-1.5 2.3-4.3s-.9-4.2-2.3-4.2h-.7v8.5h.7zm8.9-11.4h3.2l3.2 14.3h-3l-.5-3h-2.7l-.5 3h-3l3.3-14.3zm2.5 8.6l-.5-2.8c-.2-.9-.4-2.5-.4-2.5h-.1s-.2 1.5-.4 2.5l-.4 2.8h1.8zm4.9-8.6h4.1c.5 0 1.2.1 1.7.4 1.3.6 2.2 2.1 2.2 4 0 1.7-.7 3.3-1.8 4 0 0 .2.2.4.9l2.1 5H32l-1.8-4.8h-.7v4.8h-3V6.4zm3.6 6.6c.8 0 1.4-.7 1.4-1.9 0-.7-.2-1.2-.5-1.5-.2-.2-.5-.3-.8-.3h-.7V13h.6zm8-3.7h-2.8V6.4h8.6v2.9h-2.8v11.4h-2.9V9.3z" fill="#fff"/><path class="st0" d="M23.2 49.3l7.1 5.8c-.2-2.1-1.1-4.4-2.5-5.8-1-1-1.9-1.4-2.8-1.2-.8.1-1.4.6-1.8 1.2zm-4.9 9.5c1.5 1.5 3.8 2.3 5.9 2.5l-5.8-7.1c-.7.5-1.2 1-1.3 1.8-.2.9.2 1.8 1.2 2.8zm28.6 12.7l-6.4 6.4c.8.8 2.1 1.5 3.4 1.7.4.1.7.1 1.1.1.6 0 1.2-.1 1.7-.4l4.3 4.3c.2.2.5.3.8.3.3 0 .6-.1.8-.3.4-.4.4-1.2 0-1.6l-4.3-4.3c.9-2 0-4.8-1.4-6.2zM19.8 52.4L39 76.2l6.2-6.2-23.8-19.2c-.4-.4-1.1-.3-1.5.1-.5.4-.5 1-.1 1.5z"/></svg>