<svg id="Layer_1" xmlns="http://www.w3.org/2000/svg" viewBox="0 0 72 96"><style>.st0{fill:#999}</style><path class="st0" d="M0 2v92c0 1.1.9 2 2 2h68c1.1 0 2-.9 2-2V28H50c-1.1 0-2-.9-2-2V0H2C.9 0 0 .9 0 2z"/><path class="st0" d="M71.9 24c-.1-.4-.2-.7-.4-1L52 1.2V24h19.9z"/><path d="M6 41h60v49H6V41zm.6-34.6h4.2c3.7 0 5.9 2.6 5.9 7.1s-2.2 7.2-5.9 7.2H6.6V6.4zm4.1 11.4c1.7 0 2.6-1.5 2.6-4.3s-1-4.2-2.6-4.2h-.8v8.5h.8zm9.1-11.4H24c2.5 0 4.2 1.3 4.2 3.7 0 1.2-.5 2.4-1.7 3 1.6.5 2.1 1.9 2.1 3.2 0 3.1-2 4.3-4.4 4.3h-4.4V6.4zM24 12c.6 0 .9-.6.9-1.4s-.3-1.3-1-1.3h-.8V12h.9zm.2 5.8c.8 0 1.2-.7 1.2-1.6s-.3-1.5-1.1-1.5h-1.2v3.1h1.1z" fill="#fff"/><path class="st0" d="M34.9 84.7c-4.8-.2-9.1-1.7-11.4-4-.7-.6-1.4-1.5-1.7-2.1l-.2-.4v-4.5c0-4.5 0-4.5.1-4.1.2 1 .8 2 1.7 2.8.6.5 1.8 1.4 2.8 1.9 1.7.9 3.9 1.5 6.2 1.8 1.4.2 1.9.2 3.9.2s2.5 0 3.9-.2c2.3-.3 4.4-1 6.2-1.8 1-.5 2.2-1.3 2.8-1.9.8-.8 1.5-1.8 1.7-2.8.1-.3.1-.3.1 4.1v4.4l-.2.4c-.7 1.4-1.9 2.6-3.5 3.6-3.1 1.8-7.8 2.8-12.4 2.6zm0-11.2c-4.2-.2-8.1-1.4-10.6-3.2-.6-.4-1.4-1.2-1.7-1.6-.3-.4-.6-.9-.8-1.4l-.2-.4v-4.4c0-4.4 0-4.4.1-4.1.2.7.5 1.5 1.1 2.1.3.4.8.9 1.1 1.1.1.1.4.2.6.4 2 1.4 4.8 2.4 8 2.9 1.4.2 1.9.2 3.9.2s2.5 0 3.9-.2c2.3-.3 4.4-1 6.2-1.8 1-.5 2.2-1.3 2.8-1.9.8-.8 1.4-1.8 1.7-2.8.1-.3.1-.3.1 4.1v4.4l-.3.6c-.5.9-.8 1.4-1.4 2s-1.2 1.1-2 1.5c-3.2 1.8-7.9 2.8-12.5 2.5zm-.3-11.1c-2.8-.2-5-.7-7.1-1.5-2.5-1-4.3-2.3-5.2-3.9-.2-.3-.4-.7-.5-1.2-.1-.4-.2-1.4-.1-2 .6-3.2 4.9-5.8 10.7-6.7 1.4-.2 1.9-.2 3.9-.2s2.5 0 3.9.2c2.3.3 4.4 1 6.2 1.8 2.6 1.3 4.2 3 4.5 4.8.1.5.1 1.6-.1 2-.3 1-.7 1.6-1.5 2.4-2.1 2.2-5.8 3.6-10.4 4.1-.6.2-3.7.2-4.3.2z"/></svg>