<svg id="Layer_1" xmlns="http://www.w3.org/2000/svg" viewBox="0 0 72 96"><style>.st0{fill:#fff}.st3{fill:#bababa}</style><path class="st0" d="M0 2v92c0 1.1.9 2 2 2h68c1.1 0 2-.9 2-2V28H50c-1.1 0-2-.9-2-2V0H2C.9 0 0 .9 0 2z"/><path d="M51.9 26.5H28c-3.3 0-6 2.6-6 6v26.9h-6c0 3.3 2.6 6 6 6h24c3.3 0 6-2.7 6-6v-24h6v-3c-.1-3.2-2.7-5.9-6.1-5.9zm-3 32.4c0 1.9-1.6 3.5-3.5 3.5h-22c1.5-1 1.5-3 1.5-3v-27c0-1.6 1.3-3 3-3 1.6 0 3 1.3 3 3v3h18v23.5zM34 32.5v-3h18c2.7 0 3 1.7 3 3H34zm2.8 8.3c.1-.2.1-.2.2 0l1.8 5.5c.1.2.2.3.4.3H45c.2 0 .2.1.1.2l-4.7 3.4c-.1.1-.2.3-.2.5l1.8 5.6c.1.2 0 .2-.2.1L37.1 53c-.2-.1-.3-.1-.5 0L32 56.3c-.1.1-.2.1-.2-.1l1.8-5.6c0-.2 0-.3-.2-.5l-4.7-3.4c-.1-.1-.1-.2.1-.2h5.8c.2 0 .3-.1.4-.3 0 .1 1.8-5.4 1.8-5.4z" fill="#bababa" stroke="#bababa" stroke-width=".75" stroke-miterlimit="10"/><path class="st0" d="M71.9 24c-.1-.4-.2-.7-.4-1L52 1.2V24h19.9z"/><path d="M9.9 74.7h2.9c2.6 0 4.1 1.8 4.1 5s-1.6 5-4.1 5H9.9v-10zm2.9 8c1.2 0 1.8-1 1.8-3 0-1.9-.7-3-1.8-3h-.6v6h.6zm6.4-8h5v2h-2.7v1.9h2.2v2h-2.2v2h2.9v2h-5.2v-9.9zm7.3 0h5v2h-2.7v2.2H31v2h-2.2v3.8h-2.3v-10zm8.3 0h2.5l2.5 10h-2.3l-.4-2.1H35l-.4 2.1h-2.3l2.5-10zm1.9 6l-.4-2c-.1-.7-.2-1.7-.2-1.7H36s-.1 1.1-.3 1.7l-.4 2h1.4zm4.7-6h2.3v6.7c0 1 .4 1.3 1.1 1.3.6 0 1-.4 1-1.3v-6.7h2.3v6.7c0 2.1-1.3 3.5-3.3 3.5-2.1 0-3.4-1.3-3.4-3.5v-6.7zm9.2 0h2.3v8h3v2h-5.3v-10zm7.6 2H56v-2h6.7v2h-2.2v8h-2.3v-8z" fill="#666"/><path class="st3" d="M0 94V2C0 .9.9 0 2 0h48c.6 0 1.1.2 1.5.7l20 22.3c.3.4.5.8.5 1.3V94c0 1.1-.9 2-2 2H2c-1.1 0-2-.9-2-2zm68-68.9L49.1 4H4v88h64V25.1z"/><path class="st3" d="M48 26V4c0-1.1.9-2 2-2s2 .9 2 2v20h16c1.1 0 2 .9 2 2s-.9 2-2 2H50c-1.1 0-2-.9-2-2z"/></svg>