<svg id="Layer_1" xmlns="http://www.w3.org/2000/svg" viewBox="0 0 72 96"><style>.st0{fill:#999}</style><path class="st0" d="M0 2v92c0 1.1.9 2 2 2h68c1.1 0 2-.9 2-2V28H50c-1.1 0-2-.9-2-2V0H2C.9 0 0 .9 0 2z"/><path class="st0" d="M71.9 24c-.1-.4-.2-.7-.4-1L52 1.2V24h19.9z"/><path d="M6 41h60v49H6zm.6-34.6h7.2v2.9H9.9V12H13v2.9H9.9v2.9H14v2.9H6.6V6.4zm10.5 0h3.3v11.4h4.3v2.9h-7.6V6.4z" fill="#fff"/><path id="path10" d="M47.9 75h.8c0 2.4-.4 4.2-1.2 5.3-.8 1.1-1.8 1.7-3 1.7-1 0-1.9-.4-2.8-1.1-.9-.7-1.7-2.7-2.4-5.9l-2-8.9-6.9 15.6H26l9.9-21.2c-.5-2.7-1.2-4.8-1.9-6.1s-1.7-2-2.7-2c-.9 0-1.6.3-2.3 1-.6.7-1 1.7-1.1 3.1h-.8c0-2.3.5-4.1 1.4-5.4s1.9-2 3.2-2c.8 0 1.6.3 2.3 1 .7.7 1.4 1.8 1.9 3.5.6 1.7 1.4 5.1 2.6 10.3l1.6 7.3c.7 3 1.4 5 2.1 6.1.7 1 1.6 1.5 2.6 1.5 1.9-.1 2.9-1.3 3.1-3.8z" fill="#999" stroke="#999" stroke-miterlimit="10"/></svg>