<svg id="Layer_1" xmlns="http://www.w3.org/2000/svg" viewBox="0 0 72 96"><style>.st0{fill:#af7931}</style><path class="st0" d="M0 2v92c0 1.1.9 2 2 2h68c1.1 0 2-.9 2-2V28H50c-1.1 0-2-.9-2-2V0H2C.9 0 0 .9 0 2z"/><path class="st0" d="M71.9 24c-.1-.4-.2-.7-.4-1L52 1.2V24h19.9z"/><path d="M6 41h60v49H6V41zm6.4-34.9c1.4 0 2.9.4 3.9 1.3l-1.4 2.8c-.6-.6-1.4-.9-2.3-.9-2.2 0-3.2 1.9-3.2 4.2 0 2.6 1.2 4.3 2.9 4.3.6 0 1.3-.2 1.7-.6v-1.7h-1.5v-2.9h4.3v8.1h-2.6v-.9c-.5.7-1.6 1.2-2.7 1.2-2.8 0-5.6-2.7-5.6-7.3.1-4.5 2.6-7.6 6.5-7.6zm7.8.3h4.5c2.6 0 4.4 2 4.4 4.9s-1.7 5-4.4 5h-1.2v4.4h-3.3V6.4zm3.9 7c1 0 1.6-.9 1.6-2.1s-.7-2-1.6-2h-.7v4.1h.7zm7.8-7h3.3v11.4h4.3v2.9h-7.6V6.4z" fill="#fff"/><path class="st0" d="M29.7 83.4c-.1 0-.2 0-.3-.1-7.2-2.7-12-9.7-12-17.3 0-10.2 8.3-18.5 18.5-18.5S54.4 55.8 54.4 66c0 7.6-4.8 14.6-12 17.3-.2.1-.4.1-.6 0-.2-.1-.3-.2-.4-.4l-4-10.5c-.2-.4.1-.9.5-1 2.2-.8 3.6-2.9 3.6-5.3 0-3.1-2.5-5.6-5.6-5.6s-5.6 2.5-5.6 5.6c0 2.3 1.5 4.4 3.6 5.3.4.2.6.6.5 1l-4 10.5c-.1.2-.2.4-.4.4 0 .1-.1.1-.3.1z" id="surface1"/></svg>