<svg id="Layer_1" xmlns="http://www.w3.org/2000/svg" viewBox="0 0 72 96"><style>.st0,.st2{fill:#999}.st2{stroke:#999;stroke-width:.25;stroke-miterlimit:10}</style><path class="st0" d="M0 2v92c0 1.1.9 2 2 2h68c1.1 0 2-.9 2-2V28H50c-1.1 0-2-.9-2-2V0H2C.9 0 0 .9 0 2z"/><path class="st0" d="M71.9 24c-.1-.4-.2-.7-.4-1L52 1.2V24h19.9z"/><path d="M6 41h60v49H6zm.6-34.6h3.3v5.8h3.2V6.4h3.3v14.3h-3.3V15H9.9v5.7H6.6V6.4z" fill="#fff"/><path class="st2" d="M53.1 48h-35v35h35V48zm-1.9 33h-31V54.8h31V81z"/><path class="st2" d="M23.1 57.9h25v3.5h-25zm4.1 5.7h15.3V65H27.2v-1.4zm2.2 4.3h15.3v1.5H29.4v-1.5zm-2.2 4.5h15.3v1.5H27.2v-1.5zm2.2 4.6h15.3v1.5H29.4V77z"/></svg>