<svg id="Layer_1" xmlns="http://www.w3.org/2000/svg" viewBox="0 0 72 96"><style>.st0{fill:#fff}.st1{fill:#c19770}</style><path class="st0" d="M71.9 24c-.1-.4-.2-.7-.4-1L52 1.2V24h19.9z"/><path class="st0" d="M0 2v92c0 1.1.9 2 2 2h68c1.1 0 2-.9 2-2V28H50c-1.1 0-2-.9-2-2V0H2C.9 0 0 .9 0 2z"/><path class="st1" d="M0 94V2C0 .9.9 0 2 0h48c.6 0 1.1.2 1.5.7l20 22.3c.3.4.5.8.5 1.3V94c0 1.1-.9 2-2 2H2c-1.1 0-2-.9-2-2zm68-68.9L49.1 4H4v88h64V25.1z"/><path class="st1" d="M48 26V4c0-1.1.9-2 2-2s2 .9 2 2v20h16c1.1 0 2 .9 2 2s-.9 2-2 2H50c-1.1 0-2-.9-2-2zM29.7 53.8c1.6-.1 3.3.5 4.6 1.6.6.5 1.2 1.2 1.6 2 .8-1.3 2-2.4 3.5-3 1.8-.6 3.8-.6 5.6 0 1.6.6 3 1.5 4.2 2.7.9.9 1.9 1.8 2.9 2.6.5.5 1.1.8 1.7 1 .9.3 1.9 0 2.5-.6.5-.6.5-1.6-.1-2.3-.4-.3-.9-.3-1.3.1 0 0 0 .1-.1.1-.2.4-.2.9.1 1.2-.5-.3-.9-.9-1-1.6-.1-.8.5-1.5 1.2-1.7 1.4-.5 3.1-.1 3.9 1.1.7 1.2 1 2.6.8 3.9-.2 1.3-.9 2.4-2 3.2-1.5 1-3.3 1.5-5.2 1.3-1.7-.1-3.5-.4-5-1.1-2.7-1.1-5.2-2.5-7.9-3.4-.9-.2-2-.5-2.9-.6h-2.2c-.9.1-1.8.3-2.6.6-2.8.9-5.3 2.4-8 3.5-2.3.9-4.8 1.3-7.2.8-1.4-.2-2.7-.9-3.6-2-.8-.9-1.2-2.1-1.1-3.3-.1-1.2.2-2.3.9-3.2s1.8-1.3 2.9-1.2c.7 0 1.3.3 1.8.9.3.5.4 1 .2 1.6-.2.5-.5.9-.9 1.1.2-.3.3-.8.1-1.2-.3-.4-.9-.5-1.3-.2-.1 0-.1.1-.2.1-.5.5-.5 1.3-.2 1.9.4.6 1 1 1.7 1.1 1 0 2-.5 2.7-1.2 1.5-1.5 3.1-2.8 4.8-4.1 1.6-1.1 3.4-1.6 5.1-1.7zm0-17.1c1.6-.1 3.3.5 4.6 1.6.6.5 1.2 1.2 1.6 2 .8-1.3 2-2.4 3.5-3 1.8-.6 3.8-.6 5.6 0 1.6.6 3 1.5 4.2 2.7.9.9 1.9 1.8 2.9 2.6.5.5 1.1.8 1.7 1 .9.3 1.9 0 2.5-.6.5-.6.5-1.6-.1-2.3-.4-.3-.9-.3-1.3.1 0 0 0 .1-.1.1-.2.4-.2.9.1 1.2-.5-.3-.9-.9-1-1.6-.1-.8.5-1.5 1.2-1.7 1.4-.5 3.1-.1 3.9 1.1.7 1.2 1 2.6.8 3.9-.2 1.3-.9 2.4-2 3.2-1.5 1-3.3 1.5-5.2 1.3-1.7-.1-3.5-.4-5-1.1-2.7-1.1-5.2-2.5-7.9-3.4-.9-.2-2-.5-2.9-.6h-2.2c-.9.1-1.8.3-2.6.6-2.8.9-5.3 2.4-8 3.5-2.3.9-4.8 1.3-7.2.8-1.4-.2-2.7-.9-3.6-2-.8-.9-1.2-2.1-1.1-3.3-.1-1.2.2-2.3.9-3.2s1.8-1.3 2.9-1.2c.7 0 1.3.3 1.8.9.3.5.4 1 .2 1.6-.2.5-.5.9-.9 1.1.2-.3.3-.8.1-1.2-.3-.4-.9-.5-1.3-.2-.1 0-.1.1-.2.1-.5.5-.5 1.3-.2 1.9.4.6 1 1 1.7 1.1 1 0 2-.5 2.7-1.2 1.5-1.5 3.1-2.8 4.8-4.1 1.6-1.1 3.4-1.6 5.1-1.7z"/></svg>