<svg id="Layer_1" xmlns="http://www.w3.org/2000/svg" viewBox="0 0 72 96"><style>.st0{fill:#8f4e8b}</style><path class="st0" d="M0 2v92c0 1.1.9 2 2 2h68c1.1 0 2-.9 2-2V28H50c-1.1 0-2-.9-2-2V0H2C.9 0 0 .9 0 2z"/><path class="st0" d="M71.9 24c-.1-.4-.2-.7-.4-1L52 1.2V24h19.9z"/><path d="M6 41h60v49H6zm.6-34.6h3.3v5.8h3.2V6.4h3.3v14.3h-3.3V15H9.9v5.7H6.6V6.4zm14.1 10.3c.6.6 1.4 1.2 2.3 1.2.9 0 1.3-.6 1.3-1.2 0-2-4.8-2.1-4.8-6.2 0-2.4 1.7-4.3 4.5-4.3 1.2 0 2.4.3 3.4 1l-1.2 2.9c-.5-.4-1.4-.9-2.2-.9-.9 0-1.3.6-1.3 1.2 0 2.1 4.8 2 4.8 6.1 0 2.3-1.5 4.4-4.4 4.4-1.4 0-2.9-.5-4-1.4l1.6-2.8z" fill="#fff"/><path class="st0" d="M14.6 80.5l10.1-15.1-10.1-15.1h7.5l10.1 15.1-10.1 15.1z"/><path class="st0" d="M24.7 80.5l10.1-15.1-10.1-15.1h7.5l20.2 30.2h-7.6l-6.3-9.4-6.3 9.4zM49 71.7l-3.3-5.1h11.7v5.1zm-5-7.5l-3.4-5.1h16.8v5.1z"/></svg>