<svg id="Layer_1" xmlns="http://www.w3.org/2000/svg" viewBox="0 0 72 96"><style>.st0{fill:#999}</style><path class="st0" d="M0 2v92c0 1.1.9 2 2 2h68c1.1 0 2-.9 2-2V28H50c-1.1 0-2-.9-2-2V0H2C.9 0 0 .9 0 2z"/><path class="st0" d="M71.9 24c-.1-.4-.2-.7-.4-1L52 1.2V24h19.9z"/><path d="M6 41h60v49H6zm.6-34.6h3.3v14.3H6.6V6.4zm7 0h4.2c3.7 0 5.9 2.6 5.9 7.1s-2.2 7.2-5.9 7.2h-4.2V6.4zm4.1 11.4c1.7 0 2.6-1.5 2.6-4.3s-1-4.2-2.6-4.2h-.8v8.5h.8zm11.2-4.2l-3.4-7.2h3.6l1.1 2.9.6 1.8s.2-.9.6-1.8l1.2-2.9h3.6l-3.4 7.2 3.3 7.1h-3.5l-1.1-3c-.5-.9-.7-1.7-.7-1.7s-.2.8-.6 1.7l-1.1 3h-3.5l3.3-7.1z" fill="#fff"/><path class="st0" d="M49.7 70c0 2.3-1.7 10.1-1.7 10.1-.4 1.9-2.1 3.9-4.3 3.9H33.3c-1.5 0-2.9-.9-3.5-2.3 0 0-5.1-9.4-7.1-12.8-1.4-2.4-1.4-2.4.4-3.4.3-.2.6-.3 1-.3.7 0 1.2.4 1.7 1l3.1 3.6.9 1.2V49.3c0-1.1 1-2 2.2-2 1.1 0 2 .9 2 2l.4 14h.9l.2-2.4c0-1.1.9-2 2-2s2 .9 2 2l.2 2.9h.9l.2-1.9c0-1.1.9-2 2-2s2 .9 2 2l.2 1.9v.5h.7l.2-1c0-1.1.9-2 2-2s2 .9 2 2c-.2 0-.2 4.4-.2 6.7z"/></svg>