<svg id="Layer_1" xmlns="http://www.w3.org/2000/svg" viewBox="0 0 72 96"><style>.st0{fill:#999}</style><path class="st0" d="M0 2v92c0 1.1.9 2 2 2h68c1.1 0 2-.9 2-2V28H50c-1.1 0-2-.9-2-2V0H2C.9 0 0 .9 0 2z"/><path class="st0" d="M71.9 24c-.1-.4-.2-.7-.4-1L52 1.2V24h19.9z"/><path d="M6 41h60v49H6V41zm.6-34.6h3.3v14.3H6.6V6.4zm7 0h7.1v2.9h-3.8v3.1H20v2.9h-3.1v5.4h-3.3V6.4zm15.3-.3c3.8 0 5.9 3.1 5.9 7.3s-2.1 7.5-5.9 7.5-5.8-3.2-5.8-7.5c0-4.1 2-7.3 5.8-7.3zm0 11.7c1.7 0 2.5-1.8 2.5-4.3s-.8-4.2-2.5-4.2-2.5 1.7-2.5 4.2.8 4.3 2.5 4.3z" fill="#fff"/><path d="M33.7 65.5c0 .6.2 1.2.7 1.6.9.9 2.4.9 3.3 0 .4-.4.7-1 .7-1.6s-.2-1.2-.7-1.6c-.4-.4-1-.7-1.6-.7s-1.2.2-1.6.7c-.6.4-.8 1-.8 1.6z" fill="#bababa"/><path class="st0" d="M22.9 52.4c-7.2 7.2-7.2 18.9 0 26.2 7.2 7.2 18.9 7.2 26.2 0 7.2-7.2 7.2-18.9 0-26.2-7.2-7.2-19-7.2-26.2 0zm27.4 20.9c-.7 1.2-1.6 2.4-2.6 3.4s-2.2 1.9-3.4 2.6L40 71.1s.4-.1 1.2-.9 1-1.2 1-1.2l8.1 4.3zm-11-11.1c.9.9 1.4 2.1 1.4 3.3 0 1.2-.5 2.4-1.4 3.3-1.8 1.8-4.7 1.8-6.5 0-.9-.9-1.4-2.1-1.4-3.3 0-1.2.4-2.4 1.4-3.3 1.7-1.8 4.7-1.8 6.5 0zM33 59s-.9.5-1.6 1.3c-.7.8-.7.9-1 1.3l-8.2-4.4c.7-1.2 1.6-2.4 2.6-3.4 1.1-1 2.2-1.9 3.4-2.6L33 59z"/></svg>