<svg id="Layer_1" xmlns="http://www.w3.org/2000/svg" viewBox="0 0 72 96"><style>.st0{fill:#999}</style><path class="st0" d="M0 2v92c0 1.1.9 2 2 2h68c1.1 0 2-.9 2-2V28H50c-1.1 0-2-.9-2-2V0H2C.9 0 0 .9 0 2z"/><path class="st0" d="M71.9 24c-.1-.4-.2-.7-.4-1L52 1.2V24h19.9z"/><path d="M6 41h60v49H6zm.8-34.5h2.4v14.2H6.8V6.5zm5 0h2.6l3.7 8c.4.9.7 2.2.7 2.2h.1s-.1-1.3-.1-2.2v-8H21v14.2h-2.5l-3.7-8.1c-.4-.9-.7-2.2-.7-2.2H14s.1 1.3.1 2.2v8h-2.3V6.5zm11.7 0h6.6v2.2H26v4.1h3.5V15H26v5.8h-2.4V6.5zm13.4-.3c3.5 0 5.7 3 5.7 7.3s-2.2 7.4-5.7 7.4-5.7-3.1-5.7-7.4c0-4.2 2.2-7.3 5.7-7.3zm0 12.4c2 0 3.2-2 3.2-5.1 0-3-1.2-4.9-3.2-4.9s-3.2 1.9-3.2 4.9c0 3.1 1.2 5.1 3.2 5.1z" fill="#fff"/><path class="st0" d="M37.8 55c-.6 0-1.1.2-1.5.6-.4.4-.6.9-.6 1.5s.2 1.1.6 1.5c.4.4.9.6 1.5.6s1.1-.2 1.5-.6c.4-.4.6-.9.6-1.5s-.2-1.1-.6-1.5c-.3-.4-.8-.6-1.5-.6zm1 6.8l-.1.2h.1v-.2zm-.1.2c-2 .3-3.9.4-5.9.7l-.2.9h.5c.3 0 .6.1.8.3.2.2.3.4.3.6 0 .3-.1.5-.3 1.2l-2.1 7.1c-.2.6-.3 1-.3 1.4 0 .6.2 1 .6 1.4.4.4 1.6.5 2.2.5 1.7 0 4.5-.9 6-3.5l-1.2-.7c-.6 1-1.7 1.7-2.3 2-.6.3-.9.2-1 .2-.1 0-.2 0-.3-.1-.1-.1-.1-.2-.1-.3 0-.2.1-.6.3-1.2l3-10.5z"/><path d="M36 48.5c-9.4 0-17 7.6-17 17s7.6 17 17 17 17-7.6 17-17-7.6-17-17-17zm0 1.9c8.4 0 15.1 6.8 15.1 15.1 0 8.4-6.8 15.1-15.1 15.1s-15.1-6.8-15.1-15.1c0-8.4 6.7-15.1 15.1-15.1z" fill="#999" stroke="#999" stroke-width="2" stroke-miterlimit="10"/></svg>