<svg xmlns="http://www.w3.org/2000/svg" viewBox="0 0 72 96"><style>.st0{fill:#3c3}</style><path class="st0" d="M0 2v92c0 1.1.9 2 2 2h68c1.1 0 2-.9 2-2V28H50c-1.1 0-2-.9-2-2V0H2C.9 0 0 .9 0 2z"/><path class="st0" d="M71.9 24c-.1-.4-.2-.7-.4-1L52 1.2V24h19.9z"/><path d="M6 41h60v49H6zm-.3-25.7H9v1.1c0 1.5.4 1.6.7 1.6.5 0 .7-.3.7-1.6v-7H7.7v-3h6v9.9c0 3.3-2 4.6-4 4.6-2.1 0-4-1.4-4-4.6v-1zm11.6-8.9h4.5c2.6 0 4.4 2 4.4 4.9 0 2.9-1.7 5-4.4 5h-1.2v4.4h-3.3V6.4zm3.9 7c1 0 1.6-.9 1.6-2.1s-.7-2-1.6-2h-.7v4.1h.7zm13.6-7.3c1.4 0 2.9.4 3.9 1.3l-1.4 2.8c-.6-.6-1.4-.9-2.3-.9-2.2 0-3.2 1.9-3.2 4.2 0 2.6 1.2 4.3 2.9 4.3.6 0 1.3-.2 1.7-.6v-1.7H35v-2.9h4.3v8.1h-2.6v-.9c-.5.7-1.6 1.2-2.7 1.2-2.8 0-5.6-2.7-5.6-7.3.1-4.5 2.5-7.6 6.4-7.6z" fill="#fff"/><path class="st0" d="M14 48.5v33.9h44V48.5H14zM55.5 51v14.8l-10.5-8-11.5 11.5-8.1-4.5-8.8 7V51h38.9z"/><circle class="st0" cx="23" cy="57.6" r="3.1"/></svg>