<svg id="Layer_1" xmlns="http://www.w3.org/2000/svg" viewBox="0 0 72 96"><style>.st0{fill:#c93}</style><path class="st0" d="M0 2v92c0 1.1.9 2 2 2h68c1.1 0 2-.9 2-2V28H50c-1.1 0-2-.9-2-2V0H2C.9 0 0 .9 0 2z"/><path class="st0" d="M71.9 24c-.1-.4-.2-.7-.4-1L52 1.2V24h19.9z"/><path d="M6 41h60v49H6zm.6-34.6h3.3v11.4h4.3v2.9H6.6V6.4zm10.3 0h7.2v2.9h-3.9V12h3.1v2.9h-3.1v2.9h4.1v2.9h-7.4V6.4zm12.9 7.2l-3.4-7.2H30l1.1 2.9.6 1.8s.2-.9.6-1.8l1.2-2.9H37l-3.4 7.2 3.3 7.1h-3.5l-1.1-3c-.4-.9-.6-1.7-.6-1.7s-.2.8-.6 1.7l-1.1 3h-3.5l3.3-7.1z" fill="#fff"/><path d="M34.9 68.2c-2.5-2.4-4.7-4.6-6-9.6h8.8V55H29v-4.9h-3.8v5h-8.8v3.7h9s-.1.7-.2 1.3c-1.3 4.9-2.7 8-8.8 11l1.3 3.7c5.7-3 8.7-6.9 10-11.1 1.3 3.2 3.4 5.8 5.8 8.2l1.4-3.7zm11.6-12h-5l-8.8 24.7h3.8l2.5-7.4h10l2.5 7.4h3.8l-8.8-24.7zm-6.2 13.6l3.8-9.8 3.8 9.9-7.6-.1z" fill="#c93" stroke="#c93" stroke-width=".75" stroke-miterlimit="10"/></svg>