<svg id="Layer_1" xmlns="http://www.w3.org/2000/svg" viewBox="0 0 72 96"><style>.st0{fill:#fff}.st2,.st4{fill:#bababa}.st4{stroke:#bababa;stroke-width:.5;stroke-miterlimit:10}</style><path class="st0" d="M0 2v92c0 1.1.9 2 2 2h68c1.1 0 2-.9 2-2V28H50c-1.1 0-2-.9-2-2V0H2C.9 0 0 .9 0 2z"/><path class="st0" d="M71.9 24c-.1-.4-.2-.7-.4-1L52 1.2V24h19.9z"/><path d="M7.6 70.4h3.3l1.2 6c.2.9.4 2.4.4 2.4h.1s.2-1.5.4-2.4l1.2-6h3.3l.8 14.3h-2.7l-.3-6.4c-.1-1.1 0-2.4 0-2.4h-.1s-.2 1.5-.4 2.4l-.8 4.1h-2.9l-.8-4.1c-.2-.9-.4-2.4-.4-2.4s.1 1.3 0 2.4l-.4 6.4H6.8l.8-14.3zm14.9 0h3.2l3.2 14.3h-3l-.5-3h-2.7l-.5 3h-3l3.3-14.3zM25 79l-.5-2.8c-.2-.9-.4-2.5-.4-2.5H24s-.2 1.5-.4 2.5l-.4 2.8H25zm5.9 1.7c.5.6 1.3 1.2 2.1 1.2s1.2-.6 1.2-1.2c0-2-4.3-2.1-4.3-6.2 0-2.4 1.5-4.3 4.1-4.3 1.1 0 2.2.3 3.1 1L36 74.1c-.4-.4-1.3-.9-1.9-.9-.8 0-1.2.6-1.2 1.2 0 2.1 4.3 2 4.3 6.1 0 2.3-1.3 4.4-4 4.4-1.3 0-2.6-.5-3.6-1.4l1.3-2.8zM41 73.3h-2.8v-2.9h8.6v2.9H44v11.4h-3V73.3zm7.4-2.9h6.5v2.9h-3.5V76h2.8v2.9h-2.8v2.9H55v2.9h-6.6V70.4zm8.5 0H61c.5 0 1.2.1 1.7.4 1.3.6 2.2 2.1 2.2 4 0 1.7-.7 3.3-1.8 4 0 0 .2.2.4.9l2.1 5h-3.2l-1.8-4.8h-.7v4.8h-3V70.4zm3.6 6.6c.8 0 1.4-.7 1.4-1.9 0-.7-.2-1.2-.5-1.5-.2-.2-.5-.3-.8-.3h-.7V77h.6z" fill="#666"/><path class="st2" d="M0 94V2C0 .9.9 0 2 0h48c.6 0 1.1.2 1.5.7l20 22.3c.3.4.5.8.5 1.3V94c0 1.1-.9 2-2 2H2c-1.1 0-2-.9-2-2zm68-68.9L49.1 4H4v88h64V25.1z"/><path class="st2" d="M48 26V4c0-1.1.9-2 2-2s2 .9 2 2v20h16c1.1 0 2 .9 2 2s-.9 2-2 2H50c-1.1 0-2-.9-2-2z"/><g opacity=".9"><path class="st4" d="M52.9 39.8c-.5-.3-1.1-.3-1.6.1l-7.8 6-7.1-9.5c-.3-.3-.7-.6-1.1-.6-.4 0-.8.2-1.1.5l-7.6 9.5-7.4-6c-.5-.4-1.1-.4-1.6-.1-.5.3-.8.9-.7 1.5L19.3 54c.1.7.7 1.1 1.4 1.1h29.1c.7 0 1.3-.5 1.4-1.1l2.4-12.7c.1-.6-.2-1.2-.7-1.5zm-4.3 12.5H21.9l-1.5-7.8 5.5 4.4c.3.2.7.3 1 .3.4 0 .7-.2.9-.5l7.4-9.2 6.9 9.2c.2.3.6.5.9.5.4.1.7 0 1-.3l6-4.6-1.4 8z"/><path class="st4" d="M48.3 53.7v3.6H22.1v-3.6h-2.8v5c0 .8.6 1.4 1.4 1.4h29.1c.8 0 1.4-.6 1.4-1.4v-5h-2.9zM35.2 29.2c-2.6 0-4.7 2.1-4.7 4.7s2.1 4.7 4.7 4.7 4.7-2.1 4.7-4.7-2.1-4.7-4.7-4.7zm0 6.5c-1 0-1.9-.8-1.9-1.9s.8-1.9 1.9-1.9c1 0 1.9.8 1.9 1.9s-.9 1.9-1.9 1.9zm17.3-2.8c-2.6 0-4.7 2.1-4.7 4.7s2.1 4.7 4.7 4.7 4.7-2.1 4.7-4.7-2.1-4.7-4.7-4.7zm0 6.5c-1 0-1.9-.8-1.9-1.9 0-1 .8-1.9 1.9-1.9 1 0 1.9.8 1.9 1.9 0 1.1-.8 1.9-1.9 1.9zm-34.6-6.5c-2.6 0-4.7 2.1-4.7 4.7s2.1 4.7 4.7 4.7 4.7-2.1 4.7-4.7-2.1-4.7-4.7-4.7zm0 6.5c-1 0-1.9-.8-1.9-1.9 0-1 .8-1.9 1.9-1.9 1 0 1.9.8 1.9 1.9 0 1.1-.9 1.9-1.9 1.9z"/></g></svg>