<svg xmlns="http://www.w3.org/2000/svg" viewBox="0 0 72 96"><style>.st0{fill:#55486d}</style><path class="st0" d="M0 2v92c0 1.1.9 2 2 2h68c1.1 0 2-.9 2-2V28H50c-1.1 0-2-.9-2-2V0H2C.9 0 0 .9 0 2z"/><path class="st0" d="M71.9 24c-.1-.4-.2-.7-.4-1L52 1.2V24h19.9z"/><path d="M6 41h60v49H6zM7.1 6.4h3.6l1.3 6c.2.9.4 2.4.4 2.4h.1s.2-1.5.4-2.4l1.3-6H18l.9 14.3h-3l-.4-6.4c-.1-1.1 0-2.4 0-2.4h-.1s-.2 1.5-.4 2.4l-.9 4.1H11l-.9-4.1c-.2-.9-.4-2.4-.4-2.4h-.1s.1 1.3 0 2.4l-.4 6.4h-3l.9-14.3zm15.3 10.3c.6.6 1.4 1.2 2.3 1.2.9 0 1.3-.6 1.3-1.2 0-2-4.8-2.1-4.8-6.2 0-2.4 1.7-4.3 4.5-4.3 1.2 0 2.4.3 3.4 1L28 10.1c-.5-.4-1.4-.9-2.2-.9-.9 0-1.3.6-1.3 1.2 0 2.1 4.8 2 4.8 6.1 0 2.3-1.5 4.4-4.4 4.4-1.4 0-2.9-.5-4-1.4l1.5-2.8zm9.4-10.3H35V16c0 1.4.6 1.9 1.5 1.9S38 17.4 38 16V6.4h3.3V16c0 3-1.9 4.9-4.7 4.9-2.9 0-4.8-1.9-4.8-4.9V6.4z" fill="#fff"/><path class="st0" d="M43.6 68.3l-7.3-3.4L51 58l7.3 3.4-7.3 3.5-7.4 3.4zM51 51.2l-7.3-3.4-7.3 3.4L51 58.1l7.3-3.4-7.3-3.5zM28.9 61.4L21.6 58l-7.3 3.4L29 68.3l7.3-3.4-7.4-3.5zm0-6.8l7.3-3.4-7.3-3.4-14.7 6.9 7.3 3.4 7.4-3.5zM51 66.9l-6.6 3-.8.4-.8-.4-6.6-3-6.6 3-.8.4-.8-.4-6.6-3v10.7l14.7 7.7L51 77.6V66.9z"/></svg>