<svg xmlns="http://www.w3.org/2000/svg" viewBox="0 0 72 96"><style>.st0{fill:#1f7244}</style><path class="st0" d="M0 2v92c0 1.1.9 2 2 2h68c1.1 0 2-.9 2-2V28H50c-1.1 0-2-.9-2-2V0H2C.9 0 0 .9 0 2z"/><path class="st0" d="M71.9 24c-.1-.4-.2-.7-.4-1L52 1.2V24h19.9z"/><path d="M6 41h60v49H6zm5.9-34.9c3.8 0 5.9 3.1 5.9 7.3 0 4.2-2.1 7.5-5.9 7.5s-5.8-3.2-5.8-7.5c0-4.1 2-7.3 5.8-7.3zm0 11.7c1.7 0 2.5-1.8 2.5-4.3s-.8-4.2-2.5-4.2-2.5 1.7-2.5 4.2.8 4.3 2.5 4.3zm8-11.4h4.2c3.7 0 5.9 2.6 5.9 7.1s-2.2 7.2-5.9 7.2h-4.2V6.4zM24 17.8c1.7 0 2.6-1.5 2.6-4.3s-1-4.2-2.6-4.2h-.8v8.5h.8zm8.8-1.1c.6.6 1.4 1.2 2.3 1.2.9 0 1.3-.6 1.3-1.2 0-2-4.8-2.1-4.8-6.2 0-2.4 1.7-4.3 4.5-4.3 1.2 0 2.4.3 3.4 1l-1.2 2.9c-.3-.5-1.3-.9-2-.9-.9 0-1.3.6-1.3 1.2 0 2.1 4.8 2 4.8 6.1 0 2.3-1.5 4.4-4.4 4.4-1.4 0-2.9-.5-4-1.4l1.4-2.8z" fill="#fff"/><path class="st0" d="M46 53.1h11.4v7.6H46v-7.6zm0 11.7h11.4v7.6H46v-7.6zm0 11.6h11.4V84H46v-7.6zm-15.5 0H42V84H30.5v-7.6zm-15.4 0h11.4V84H15.1v-7.6zM35 48h1.6c2.4.2 4.3.8 6.2 1.5 3.6-1.6 8.6-.4 11.8.8-4-.4-8.8 0-11.6 1.6-2.8-2.3-8.1-2.9-13-2.3 1.4-.8 3.1-1.4 5-1.6zm-1.1 6.1c-2.9.2-5.3 1.1-6.8 2.4-4.8-2.2-13-1.2-16.1 1.7-.3.2-.6.4-.5.7 2.7-.8 6-1.5 9.4-1.2s5.9 1.4 7.8 2.9c3.5-3.1 8.6-4.9 15.1-4.8-2.3-1-5.6-1.9-8.9-1.7zm-3.3 10.8H42v7.6H30.6v-7.6zm-15.4 0h11.4v7.6H15.2v-7.6z"/></svg>