<svg id="Layer_1" xmlns="http://www.w3.org/2000/svg" viewBox="0 0 72 96"><style>.st0{fill:#4d1b9b}</style><path class="st0" d="M0 2v92c0 1.1.9 2 2 2h68c1.1 0 2-.9 2-2V28H50c-1.1 0-2-.9-2-2V0H2C.9 0 0 .9 0 2z"/><path class="st0" d="M71.9 24c-.1-.4-.2-.7-.4-1L52 1.2V24h19.9z"/><path d="M6 41h60v49H6zm5.9-34.9c3.8 0 5.9 3.1 5.9 7.3 0 4.2-2.1 7.5-5.9 7.5s-5.8-3.2-5.8-7.5c0-4.1 2-7.3 5.8-7.3zm0 11.7c1.7 0 2.5-1.8 2.5-4.3s-.8-4.2-2.5-4.2-2.5 1.7-2.5 4.2.8 4.3 2.5 4.3zm7.5-11.4H23l1.6 8.1c.2.9.3 2.3.3 2.3h.1s.2-1.4.3-2.3L27 6.4h3.5l-3.9 14.3h-3.3L19.4 6.4zm15.4 0h3.6L42 20.7h-3.3l-.6-3h-3l-.6 3h-3.3l3.6-14.3zm2.8 8.6l-.6-2.9c-.2-.9-.4-2.5-.4-2.5h-.1s-.2 1.5-.4 2.5l-.6 2.9h2.1z" fill="#fff"/><path class="st0" d="M56.5 76.6c0-1.6-1.3-2.9-2.9-2.9H17.7c-1.6 0-2.9 1.3-2.9 2.9v4.1c0 1.6 1.3 2.9 2.9 2.9h35.9c1.6 0 2.9-1.3 2.9-2.9v-4.1zM41 80.4c-.9 0-1.7-.7-1.7-1.7S40.1 77 41 77s1.7.7 1.7 1.7-.7 1.7-1.7 1.7zm5.1 0c-.9 0-1.7-.7-1.7-1.7s.7-1.7 1.7-1.7c.9 0 1.7.7 1.7 1.7s-.8 1.7-1.7 1.7zm5 0c-.9 0-1.7-.7-1.7-1.7s.7-1.7 1.7-1.7c.9 0 1.7.7 1.7 1.7s-.8 1.7-1.7 1.7zM17.7 72h35.9c.8 0 1.6.2 2.2.6l-3.5-7.3c-1-2.1-2.6-2.9-4.2-2.9h-3.9l-5.6 5.8c-.4.4-.9.7-1.4.9-.5.2-1.1.3-1.6.3-.6 0-1.1-.1-1.6-.3h-.2c-.4-.2-.8-.5-1.2-.8l-5.6-6h-3.9c-1.6 0-3.1.9-4.2 2.9l-3.5 7.3c.7-.3 1.4-.5 2.3-.5z"/><path class="st0" d="M44 59.6c.2-.2.3-.4.5-.7.1-.3.2-.5.2-.9 0-.3-.1-.6-.2-.8-.1-.3-.3-.5-.5-.7-.2-.2-.5-.4-.7-.5-.2-.1-.5-.2-.8-.2s-.6.1-.8.2c-.3.1-.5.3-.7.5l-3.2 3.2v-10c0-.3-.1-.6-.2-.8-.1-.3-.3-.5-.5-.7-.2-.2-.4-.4-.7-.5-.2-.1-.5-.1-.8-.1-.3 0-.6 0-.8.1-.3.1-.5.3-.7.5-.2.2-.4.4-.5.7-.1.3-.2.5-.2.8v10.1l-3.2-3.2c-.2-.2-.4-.4-.7-.5-.2-.1-.5-.2-.8-.2-.3 0-.6.1-.8.2-.2.1-.5.3-.7.5-.2.2-.4.4-.5.7-.1.3-.2.5-.2.8 0 .3.1.6.2.9.1.3.3.5.5.7l6.9 7c.2.2.4.4.7.5.2.1.5.2.8.2.3 0 .6-.1.8-.2.3-.1.5-.3.7-.5l6.9-7.1z"/></svg>