<svg id="Layer_1" xmlns="http://www.w3.org/2000/svg" viewBox="0 0 72 96"><style>.st0{fill:#696}</style><path class="st0" d="M0 2v92c0 1.1.9 2 2 2h68c1.1 0 2-.9 2-2V28H50c-1.1 0-2-.9-2-2V0H2C.9 0 0 .9 0 2z"/><path class="st0" d="M71.9 24c-.1-.4-.2-.7-.4-1L52 1.2V24h19.9z"/><path d="M6 41h60v49H6zm.6-34.6h4.5c2.6 0 4.4 2 4.4 4.9 0 2.9-1.7 5-4.4 5H9.9v4.4H6.6V6.4zm3.9 7c1 0 1.6-.9 1.6-2.1s-.7-2-1.6-2h-.6v4.1h.6zM22 10.7c.4-1 .6-1.4.6-1.4h-4.8V6.4H26v2.4l-4.6 11.9H18l4-10zm6.9-4.3h4.2c2.5 0 4.2 1.3 4.2 3.7 0 1.2-.5 2.4-1.7 3 1.6.5 2.1 1.9 2.1 3.2 0 3.1-2 4.3-4.4 4.3h-4.4V6.4zm4.2 5.6c.6 0 .9-.6.9-1.4s-.3-1.3-1-1.3h-.8V12h.9zm.1 5.8c.8 0 1.2-.7 1.2-1.6 0-.9-.3-1.5-1.1-1.5h-1.2v3.1h1.1z" fill="#fff"/><path class="st0" d="M35.9 1003.6c2.8 2.8 3.6 6.7 2.6 10.2l14.8 14.8.3 6.6-8.3-.7v-4.2h-4.2v-4.2H37l-5.4-5.4c-3.5 1-7.5.2-10.2-2.6-4-4-4-10.6 0-14.6s10.5-4 14.5.1zm-7.6 2.8c-1.2-1.2-3-1.2-4.2 0-1.2 1.2-1.2 3 0 4.2 1.2 1.2 3 1.2 4.2 0 1.2-1.2 1.2-3.1 0-4.2z" transform="translate(0 -952.362)"/></svg>