<svg id="Layer_1" xmlns="http://www.w3.org/2000/svg" viewBox="0 0 72 96"><style>.st0{fill:#c11e07}</style><path class="st0" d="M0 2v92c0 1.1.9 2 2 2h68c1.1 0 2-.9 2-2V28H50c-1.1 0-2-.9-2-2V0H2C.9 0 0 .9 0 2z"/><path class="st0" d="M71.9 24c-.1-.4-.2-.7-.4-1L52 1.2V24h19.9z"/><path d="M6 41h60v49H6zm.6-34.6h4.5c2.6 0 4.4 2 4.4 4.9 0 2.9-1.7 5-4.4 5H9.9v4.4H6.6V6.4zm3.9 7c1 0 1.6-.9 1.6-2.1s-.7-2-1.6-2h-.6v4.1h.6zm7.9-7h4.2c3.7 0 5.9 2.6 5.9 7.1s-2.2 7.2-5.9 7.2h-4.2V6.4zm4.1 11.4c1.7 0 2.6-1.5 2.6-4.3s-1-4.2-2.6-4.2h-.8v8.5h.8zm9.1-11.4h7.1v2.9h-3.8v3.1H38v2.9h-3.1v5.4h-3.3V6.4z" fill="#fff"/><path d="M33.5 46.538c-2.3 0-4.1 1.9-4.1 4.1 0 2.8 1.6 6.3 3.2 9.6-1.3 4-2.7 8.3-4.6 11.9-3.8 1.5-7.2 2.6-9.2 4.3l-.1.1c-.7.8-1.2 1.8-1.2 2.9 0 2.3 1.9 4.1 4.1 4.1 1.1 0 2.2-.4 2.9-1.2 0 0 .1 0 .1-.1 1.5-1.8 3.3-5.1 4.9-8 3.6-1.4 7.5-2.9 11.1-3.8 2.7 2.2 6.6 3.6 9.8 3.6 2.3 0 4.1-1.9 4.1-4.1 0-2.3-1.9-4.1-4.1-4.1-2.6 0-6.3.9-9.1 1.9-2.3-2.2-4.4-4.9-6-7.8 1.1-3.4 2.4-6.7 2.4-9.3-.1-2.3-1.9-4.1-4.2-4.1zm0 2.4c.9 0 1.6.7 1.6 1.6 0 1.2-.7 3.5-1.4 5.9-1-2.4-1.9-4.7-1.9-5.9.1-.8.8-1.6 1.7-1.6zm.7 14.1c1.2 2 2.7 3.8 4.3 5.4-2.4.7-4.8 1.5-7.2 2.4 1.2-2.5 2.1-5.2 2.9-7.8zm16.2 5.3c.9 0 1.6.7 1.6 1.6 0 .9-.7 1.6-1.6 1.6-1.9 0-4.5-.8-6.6-2 2.4-.6 5.1-1.2 6.6-1.2zm-24.5 7.3c-1.2 2.1-2.3 4-3.1 5-.3.3-.6.4-1.1.4-.9 0-1.6-.7-1.6-1.6 0-.4.2-.9.4-1.1.9-.8 3-1.7 5.4-2.7z" fill="#c11e07" stroke="#c11e07" stroke-width=".75" stroke-miterlimit="10"/></svg>