<svg id="Layer_1" xmlns="http://www.w3.org/2000/svg" viewBox="0 0 72 96"><style>.st0{fill:#1d6fb5}</style><path class="st0" d="M0 2v92c0 1.1.9 2 2 2h68c1.1 0 2-.9 2-2V28H50c-1.1 0-2-.9-2-2V0H2C.9 0 0 .9 0 2z"/><path class="st0" d="M71.9 24c-.1-.4-.2-.7-.4-1L52 1.2V24h19.9z"/><path d="M6 41h60v49H6zm.6-34.6h4.5c2.6 0 4.4 2 4.4 4.9 0 2.9-1.7 5-4.4 5H9.9v4.4H6.6V6.4zm3.9 7c1 0 1.6-.9 1.6-2.1s-.7-2-1.6-2h-.6v4.1h.6zm8.6 3.3c.6.6 1.4 1.2 2.3 1.2.9 0 1.3-.6 1.3-1.2 0-2-4.8-2.1-4.8-6.2 0-2.4 1.7-4.3 4.5-4.3 1.2 0 2.4.3 3.4 1l-1.2 2.9c-.5-.4-1.4-.9-2.2-.9-.9 0-1.3.6-1.3 1.2 0 2.1 4.8 2 4.8 6.1 0 2.3-1.5 4.4-4.4 4.4-1.4 0-2.9-.5-4-1.4l1.6-2.8zm12.2-7.4h-3.1V6.4h9.6v2.9h-3.2v11.4h-3.3V9.3z" fill="#fff"/><path class="st0" d="M26.9 62.1c-1.5.2-2.7 1.8-2.7 3.5s1.2 3.4 2.7 3.5c1.5.2 2.7-1.4 2.7-3.5s-1.2-3.7-2.7-3.5z"/><path class="st0" d="M16.4 51.9v27.7L38 83.5V47.7l-21.6 4.2zm10.5 19.4c-2.4-.3-4.3-2.9-4.3-5.7 0-2.9 1.9-5.4 4.3-5.7s4.3 2.3 4.3 5.7c0 3.5-1.9 6-4.3 5.7zm28.2-15.2L43.2 66 40 63.4v-8.2h15.1z"/><path class="st0" d="M55.1 58l-11.9 9.9-3.2-2.6v11.1h15.1z"/></svg>