<svg id="Layer_1" xmlns="http://www.w3.org/2000/svg" viewBox="0 0 72 96"><style>.st0{fill:#f60}</style><path class="st0" d="M0 2v92c0 1.1.9 2 2 2h68c1.1 0 2-.9 2-2V28H50c-1.1 0-2-.9-2-2V0H2C.9 0 0 .9 0 2z"/><path class="st0" d="M71.9 24c-.1-.4-.2-.7-.4-1L52 1.2V24h19.9z"/><path d="M6 41h60v49H6zm5.9-34.9c3.7 0 5.9 3.1 5.9 7.3 0 1.8-.6 3.3-1.1 4.2l1.4 1.3-1.8 2.1-1.3-1.1c-.6.5-1.6 1.1-3.1 1.1C8.1 21 6 17.8 6 13.5c0-4.2 2.1-7.4 5.9-7.4zm0 11.8c.3 0 .5 0 .9-.3l-1.6-1.5L13 14l1.2 1.3c.2-.7.2-1.2.2-1.9 0-2.5-.7-4.2-2.5-4.2S9.4 11 9.4 13.5c0 2.6.8 4.4 2.5 4.4zm10.5-8.6h-3.1V6.4h9.6v2.9h-3.2v11.4h-3.3V9.3z" fill="#fff"/><path class="st0" d="M13 83.1h46V47.9H13v35.2zm8.9-2.7h-5.5v-3.9h5.5v3.9zm16.9 0h-5.5v-3.9h5.5v3.9zm11.3-30.1h5.5v4h-5.5v-4zm0 26.1h5.5v3.9h-5.5v-3.9zm-8.5-26.1H47v3.9h-5.5v-3.9zm0 26.1H47v3.9h-5.5l.1-3.9zm-8.4-26.1h5.5v3.9h-5.5v-3.9zm-.8 9.7l7.2 4.1c1.3.8 1.3 2 0 2.8L32.4 71c-1.3.8-2.4.1-2.4-1.4v-8.3c0-1.4 1.1-2.1 2.4-1.3zm-7.7-9.7h5.4v3.9h-5.4v-3.9zm0 26.1h5.4v3.9h-5.4v-3.9zm-8.3-26.1h5.5v4h-5.5v-4z"/></svg>