<svg id="Layer_1" xmlns="http://www.w3.org/2000/svg" viewBox="0 0 72 96"><style>.st0{fill:#3a898d}</style><path class="st0" d="M0 2v92c0 1.1.9 2 2 2h68c1.1 0 2-.9 2-2V28H50c-1.1 0-2-.9-2-2V0H2C.9 0 0 .9 0 2z"/><path class="st0" d="M71.9 24c-.1-.4-.2-.7-.4-1L52 1.2V24h19.9z"/><path d="M6 41h60v49H6zm.6-34.6h4.5c.6 0 1.3.1 1.9.4 1.4.6 2.4 2.1 2.4 4 0 1.7-.8 3.3-2 4 0 0 .2.2.5.9l2.3 5h-3.6l-2-4.8h-.7v4.8H6.6V6.4zm3.9 6.6c.9 0 1.6-.7 1.6-1.9 0-.7-.2-1.2-.6-1.5-.3-.2-.6-.3-.9-.3h-.7V13h.6zm8.3-6.6H26v2.9h-3.9V12h3.1v2.9h-3.1v2.9h4.1v2.9h-7.4V6.4zm16-.3c1.4 0 2.9.4 3.9 1.3l-1.4 2.8c-.5-.6-1.3-.9-2.3-.9-2.2 0-3.2 1.9-3.2 4.2 0 2.6 1.2 4.3 2.9 4.3.6 0 1.3-.2 1.7-.6v-1.7H35v-2.9h4.3v8.1h-2.6v-.9c-.5.7-1.6 1.2-2.7 1.2-2.8 0-5.6-2.7-5.6-7.3.1-4.5 2.6-7.6 6.4-7.6z" fill="#fff"/><path class="st0" d="M19 78.9v-4.3h8.6v8.6H19v-4.3zm12.8 0v-4.3h8.6v8.6h-8.6v-4.3zm12.9 0v-4.3h8.6v8.6h-8.6v-4.3zm1.3-9.8l-3-3 3-3 3-3 3 3 3 3-3 3c-1.6 1.7-3 3-3 3l-3-3zm-27-3v-4.3h8.6v8.6H19v-4.3zm12.8 0v-4.3h8.6v8.6h-8.6v-4.3zm1.3-9.9l-3-3 3-3 3-3 3 3 3 3-3 3c-1.6 1.7-3 3-3 3l-3-3zm-14.1-3v-4.3h8.6v8.6H19v-4.3z"/></svg>