<svg xmlns="http://www.w3.org/2000/svg" viewBox="0 0 72 96"><style>.st0{fill:#55486d}</style><path class="st0" d="M0 2v92c0 1.1.9 2 2 2h68c1.1 0 2-.9 2-2V28H50c-1.1 0-2-.9-2-2V0H2C.9 0 0 .9 0 2z"/><path class="st0" d="M71.9 24c-.1-.4-.2-.7-.4-1L52 1.2V24h19.9z"/><path d="M6 41h60v49H6zm.6-34.6h4.5c.6 0 1.3.1 1.9.4 1.4.6 2.4 2.1 2.4 4 0 1.7-.8 3.3-2 4 0 0 .2.2.5.9l2.3 5h-3.6l-2-4.8h-.7v4.8H6.6V6.4zm3.9 6.6c.9 0 1.6-.7 1.6-1.9 0-.7-.2-1.2-.6-1.5-.3-.2-.6-.3-.9-.3h-.7V13h.6zm7.8-6.6h4.5c2.6 0 4.4 2 4.4 4.9 0 2.9-1.7 5-4.4 5h-1.2v4.4h-3.3V6.4zm3.9 7c1 0 1.6-.9 1.6-2.1s-.7-2-1.6-2h-.7v4.1h.7zm7.9-7h3.6l1.3 6c.2.9.4 2.4.4 2.4h.1s.2-1.5.4-2.4l1.3-6h3.6l.9 14.3h-3l-.4-6.4c-.1-1.1 0-2.4 0-2.4h-.1s-.2 1.5-.4 2.4l-.9 4.1h-3.2l-.9-4.1c-.2-.9-.4-2.4-.4-2.4h-.1s.1 1.3 0 2.4l-.4 6.4h-3l1.2-14.3z" fill="#fff"/><path class="st0" d="M43.6 68.3l-7.3-3.4L51 58l7.3 3.4-7.3 3.5-7.4 3.4zM51 51.2l-7.3-3.4-7.3 3.4L51 58.1l7.3-3.4-7.3-3.5zM28.9 61.4L21.6 58l-7.3 3.4L29 68.3l7.3-3.4-7.4-3.5zm0-6.8l7.3-3.4-7.3-3.4-14.7 6.9 7.3 3.4 7.4-3.5zM51 66.9l-6.6 3-.8.4-.8-.4-6.6-3-6.6 3-.8.4-.8-.4-6.6-3v10.7l14.7 7.7L51 77.6V66.9z"/></svg>