<svg id="Layer_1" xmlns="http://www.w3.org/2000/svg" viewBox="0 0 72 96"><style>.st0{fill:#fff}.st2{fill:#bababa}</style><path class="st0" d="M0 2v92c0 1.1.9 2 2 2h68c1.1 0 2-.9 2-2V28H50c-1.1 0-2-.9-2-2V0H2C.9 0 0 .9 0 2z"/><path class="st0" d="M71.9 24c-.1-.4-.2-.7-.4-1L52 1.2V24h19.9z"/><path d="M9.7 80.7c.5.6 1.3 1.2 2.1 1.2s1.2-.6 1.2-1.2c0-2-4.3-2.1-4.3-6.2 0-2.4 1.5-4.3 4.1-4.3 1.1 0 2.2.3 3.1 1l-1.1 2.9c-.4-.4-1.3-.9-1.9-.9-.8 0-1.2.6-1.2 1.2 0 2.1 4.3 2 4.3 6.1 0 2.3-1.3 4.4-4 4.4-1.3 0-2.6-.5-3.6-1.4l1.3-2.8zm8.1-10.3h4.1c2.4 0 3.9 2 3.9 4.9s-1.6 5-3.9 5h-1.1v4.4h-3V70.4zm3.5 7c.9 0 1.5-.9 1.5-2.1 0-1.2-.6-2-1.4-2h-.6v4.1h.5zm6.1-7h3v5.8h2.9v-5.8h2.9v14.3h-2.9V79h-2.9v5.7h-3V70.4zm11.2 0h3v14.3h-3V70.4zm5.4 0h3.1l2.2 6.6c.4 1 .6 2.4.6 2.4h.1s-.2-1.5-.2-2.4v-6.6h2.8v14.3h-3.1l-2.2-6.6c-.3-1-.6-2.4-.6-2.4h-.1s.2 1.5.2 2.4v6.6H44V70.4zm13.1 7.2L54 70.4h3.3l1 2.9c.3.9.5 1.8.5 1.8s.2-.9.5-1.8l1-2.9h3.2l-3.1 7.2 3 7.1h-3.2l-1-3c-.3-.9-.5-1.7-.5-1.7s-.2.8-.5 1.7l-1 3H54l3.1-7.1z" fill="#666"/><path class="st2" d="M0 94V2C0 .9.9 0 2 0h48c.6 0 1.1.2 1.5.7l20 22.3c.3.4.5.8.5 1.3V94c0 1.1-.9 2-2 2H2c-1.1 0-2-.9-2-2zm68-68.9L49.1 4H4v88h64V25.1z"/><path class="st2" d="M35.8 21h2.4v1.6h-2.4zM56 37.7c.1-1.3 0-2.6-.3-3.8H50v-2.4h4.6c-.4-.6-.8-1.1-1.3-1.6l-5.7-5.7-.9 9c-.2 2.3-1.3 4.4-2.9 6v4H47c1.8 0 3.4.7 4.6 1.7 1.8-1.1 3.1-2.8 3.9-4.7H50v-2.4h6zm-17.8-15v2.9h-2.4v-2.9h-7l1 10.2c.2 1.8 1 3.5 2.4 4.7 1.3 1.2 3.1 1.9 4.9 1.9 1.8 0 3.5-.7 4.9-1.9 1.3-1.2 2.2-2.9 2.4-4.7l1-10.2h-7.2zm3.3 7.8h-3.2v3.9h-2.4v-3.9h-3.2v-2.4h8.8v2.4z"/><path class="st2" d="M46.9 45.5h-5.6v-4.7c-1.3.7-2.8 1-4.3 1s-3-.4-4.3-1v4.7h-5.6c-2.6 0-4.7 2.1-4.7 4.7v3c3.7.6 6.5 3.8 6.5 7.6V62H44v-1.2c0-4.2 3.4-7.6 7.6-7.7v-2.9c0-2.6-2.1-4.7-4.7-4.7z"/><path class="st2" d="M51.7 55.5c-2.9 0-5.3 2.4-5.3 5.3V62h4.1v-3.2h2.4V62H57v-1.2c0-3-2.4-5.3-5.3-5.3zM27.4 33.1l-.9-9-5.7 5.7c-.5.5-.9 1-1.3 1.6h4.6v2.4h-5.7c-.4 1.2-.5 2.5-.3 3.8h6.1V40h-5.5c.7 1.9 2.1 3.6 3.9 4.7 1.2-1.1 2.9-1.7 4.6-1.7h3.2v-4a8.91 8.91 0 0 1-3-5.9zm-6.1 22.4c-2.9 0-5.3 2.4-5.3 5.3V62h4.1v-3.2h2.4V62h4.1v-1.2c0-3-2.4-5.3-5.3-5.3zM48 26V4c0-1.1.9-2 2-2s2 .9 2 2v20h16c1.1 0 2 .9 2 2s-.9 2-2 2H50c-1.1 0-2-.9-2-2z"/></svg>