<svg id="Layer_1" xmlns="http://www.w3.org/2000/svg" viewBox="0 0 72 96"><style>.st0{fill:#fea500}</style><path class="st0" d="M0 2v92c0 1.1.9 2 2 2h68c1.1 0 2-.9 2-2V28H50c-1.1 0-2-.9-2-2V0H2C.9 0 0 .9 0 2z"/><path class="st0" d="M71.9 24c-.1-.4-.2-.7-.4-1L52 1.2V24h19.9z"/><path d="M6 41h60v49H6zm1.3-24.3c.6.6 1.4 1.2 2.3 1.2.9 0 1.3-.6 1.3-1.2 0-2-4.8-2.1-4.8-6.2 0-2.4 1.7-4.3 4.5-4.3 1.2 0 2.4.3 3.4 1l-1 2.9c-.5-.4-1.4-.9-2.2-.9-.9 0-1.3.6-1.3 1.2 0 2.1 4.8 2 4.8 6.1 0 2.3-1.5 4.4-4.4 4.4-1.4 0-2.9-.5-4-1.4l1.4-2.8zM16 6.4h3.6l1.6 8.1c.2.9.3 2.3.3 2.3h.1s.2-1.4.3-2.3l1.7-8.1h3.5l-3.9 14.3h-3.3L16 6.4zm19.1-.3c1.4 0 2.9.4 3.9 1.3l-1.4 2.8c-.6-.6-1.4-.9-2.3-.9-2.2 0-3.2 1.9-3.2 4.2 0 2.6 1.2 4.3 2.9 4.3.6 0 1.3-.2 1.7-.6v-1.7h-1.5v-2.9h4.3v8.1h-2.6v-.9c-.5.7-1.6 1.2-2.7 1.2-2.8 0-5.6-2.7-5.6-7.3.2-4.5 2.6-7.6 6.5-7.6z" fill="#fff"/><path class="st0" d="M27.1 60.2L18 79.4l1.7 1.7L31 69.8c-.4-.9-.3-2 .5-2.8 1-1 2.5-1 3.5 0s1 2.5 0 3.5c-.7.7-1.9.9-2.8.5L20.9 82.3l1.7 1.7 19.2-9.1L46 63.4 38.6 56l-11.5 4.2zm26.3-2.3L44 48.5c-.8-.8-2-.8-2.8 0L39 50.7c-.8.8-.8 2 0 2.8l9.4 9.4c.8.8 2 .8 2.8 0l2.2-2.2c.8-.8.8-2 0-2.8z"/></svg>