<svg id="Layer_1" xmlns="http://www.w3.org/2000/svg" viewBox="0 0 72 96"><style>.st0{fill:#36454d}</style><path class="st0" d="M0 2v92c0 1.1.9 2 2 2h68c1.1 0 2-.9 2-2V28H50c-1.1 0-2-.9-2-2V0H2C.9 0 0 .9 0 2z"/><path class="st0" d="M71.9 24c-.1-.4-.2-.7-.4-1L52 1.2V24h19.9z"/><path d="M6 41h60v49H6zM8.9 9.3H5.7V6.4h9.6v2.9h-3.2v11.4H8.9V9.3zm11.4 0h-3.1V6.4h9.6v2.9h-3.2v11.4h-3.3V9.3zm9.2-2.9h7.1v2.9h-3.8v3.1h3.1v2.9h-3.1v5.4h-3.3V6.4z" fill="#fff"/><path d="M42.4 47v7.9h-.8c-.5-1.8-1-3.1-1.5-3.9s-1.3-1.4-2.3-1.9c-.5-.3-1.5-.4-2.9-.4h-2.2v22.5c0 1.5.1 2.4.2 2.8.2.4.5.7 1 1 .5.3 1.1.4 2 .4h1v.8H21.7v-.8h1c.8 0 1.5-.2 2-.5.4-.2.7-.5.9-1 .2-.3.2-1.2.2-2.7V48.7h-2.1c-2 0-3.4.4-4.3 1.2-1.2 1.2-2 2.8-2.4 5h-.8V47h26.2z" fill="#7291a1"/><path class="st0" d="M55.6 55.6v7.9h-.8c-.5-1.8-1-3.1-1.5-3.9S52 58.2 51 57.7c-.5-.3-1.5-.4-2.9-.4h-2.2v22.5c0 1.5.1 2.4.2 2.8.2.4.5.7 1 1s1.1.4 2 .4h1v.8H34.8V84h1c.8 0 1.5-.2 2-.5.4-.2.7-.5.9-1 .2-.3.2-1.2.2-2.7V57.3h-2.1c-2 0-3.4.4-4.3 1.2-1.2 1.2-2 2.8-2.4 5h-.8v-7.9h26.3z"/></svg>