<svg id="Layer_1" xmlns="http://www.w3.org/2000/svg" viewBox="0 0 72 96"><style>.st0{fill:#eab41b}</style><path class="st0" d="M0 2v92c0 1.1.9 2 2 2h68c1.1 0 2-.9 2-2V28H50c-1.1 0-2-.9-2-2V0H2C.9 0 0 .9 0 2z"/><path class="st0" d="M71.9 24c-.1-.4-.2-.7-.4-1L52 1.2V24h19.9z"/><path d="M6 41h60v49H6zM5.4 6.4H9l1.6 8.1c.2.9.3 2.3.3 2.3h.1s.2-1.4.3-2.3L13 6.4h3.5l-3.9 14.3H9.3L5.4 6.4zm19.1-.3c1.3 0 2.6.4 3.6 1.2l-1.4 2.8c-.4-.5-1.3-.9-2.1-.9-2.1 0-3.2 1.9-3.2 4.2 0 2.3 1.2 4.4 3.2 4.4 1 0 1.7-.5 2.3-1l1.4 2.8c-.9.7-2 1.3-3.9 1.3-4 0-6.3-3.1-6.3-7.4 0-4.2 2.4-7.4 6.4-7.4zm6.6.3h4.2c3.7 0 5.9 2.6 5.9 7.1s-2.2 7.2-5.9 7.2h-4.2V6.4zm4.1 11.4c1.7 0 2.6-1.5 2.6-4.3s-1-4.2-2.6-4.2h-.8v8.5h.8z" fill="#fff"/><path class="st0" d="M33.7 65.5c0 .6.2 1.2.7 1.6.9.9 2.4.9 3.3 0 .4-.4.7-1 .7-1.6 0-.6-.2-1.2-.7-1.6-.4-.4-1-.7-1.6-.7s-1.2.2-1.6.7c-.6.4-.8 1-.8 1.6z"/><path class="st0" d="M22.9 52.4c-7.2 7.2-7.2 18.9 0 26.2 7.2 7.2 18.9 7.2 26.2 0 7.2-7.2 7.2-18.9 0-26.2-7.2-7.2-19-7.2-26.2 0zm27.4 20.9c-.7 1.2-1.6 2.4-2.6 3.4s-2.2 1.9-3.4 2.6L40 71.1s.4-.1 1.2-.9c.8-.8 1-1.2 1-1.2l8.1 4.3zm-11-11.1c.9.9 1.4 2.1 1.4 3.3 0 1.2-.5 2.4-1.4 3.3-1.8 1.8-4.7 1.8-6.5 0-.9-.9-1.4-2.1-1.4-3.3 0-1.2.4-2.4 1.4-3.3 1.7-1.8 4.7-1.8 6.5 0zM33 59s-.9.5-1.6 1.3c-.7.8-.7.9-1 1.3l-8.2-4.4c.7-1.2 1.6-2.4 2.6-3.4 1.1-1 2.2-1.9 3.4-2.6L33 59z"/></svg>