<svg xmlns="http://www.w3.org/2000/svg" viewBox="0 0 72 96"><style>.st0{fill:#3c3}</style><path class="st0" d="M0 2v92c0 1.1.9 2 2 2h68c1.1 0 2-.9 2-2V28H50c-1.1 0-2-.9-2-2V0H2C.9 0 0 .9 0 2z"/><path class="st0" d="M71.9 24c-.1-.4-.2-.7-.4-1L52 1.2V24h19.9z"/><path d="M6 41h60v49H6zM5.8 6.5H8l1.4 9.8c.1.7.1 1.6.1 1.6h.1s0-.9.1-1.6l1.5-9.8h2.1l1.5 9.8c.1.7.1 1.6.1 1.6h.1s0-.9.1-1.6l1.4-9.8h2.1l-2.3 14.2h-2.5l-1.3-8.4c-.1-.9-.2-1.9-.2-1.9h-.1s-.1.9-.2 1.9l-1.4 8.4H8.1L5.8 6.5zm14.2 0h6.1v2.2h-3.9v3.8h3.1v2.2h-3.1v3.9h4.1v2.2H20V6.5zm8 0h3.5c2 0 3.5 1.3 3.5 3.7 0 1.3-.6 2.5-1.5 3 1.3.5 1.9 1.8 1.9 3.4 0 2.8-1.6 4.1-3.9 4.1H28V6.5zm3.5 5.8c.7 0 1.2-.8 1.2-1.9s-.5-1.8-1.4-1.8h-1.2v3.7h1.4zm0 6.2c1.2 0 1.6-.9 1.6-2.1 0-1.3-.5-2.1-1.4-2.1h-1.5v4.2h1.3zm5.6-12h3.6c2.2 0 3.8 1.9 3.8 4.6s-1.5 4.7-3.8 4.7h-1.4v4.9h-2.2V6.5zm3.2 7.1c1.2 0 1.9-1 1.9-2.5s-.8-2.5-1.9-2.5h-1.1v5h1.1z" fill="#fff"/><path class="st0" d="M14 48.5v33.9h44V48.5H14zM55.5 51v14.8l-10.5-8-11.5 11.5-8.1-4.5-8.8 7V51h38.9z"/><circle class="st0" cx="23" cy="57.6" r="3.1"/></svg>