<svg id="Layer_1" xmlns="http://www.w3.org/2000/svg" viewBox="0 0 72 96"><style>.st0{fill:#d10407}</style><path class="st0" d="M0 2v92c0 1.1.9 2 2 2h68c1.1 0 2-.9 2-2V28H50c-1.1 0-2-.9-2-2V0H2C.9 0 0 .9 0 2z"/><path class="st0" d="M71.9 24c-.1-.4-.2-.7-.4-1L52 1.2V24h19.9z"/><path d="M6 41h60v49H6zm3-27.4L5.5 6.4h3.6l1.1 2.9.6 1.8s.2-.9.6-1.8l1.2-2.9h3.6l-3.4 7.2 3.3 7.1h-3.5l-1.1-3c-.4-.9-.6-1.7-.6-1.7s-.2.8-.6 1.7l-1.1 3H5.7L9 13.6zm9.8-7.2h7.1v2.9h-3.8v3.1h3.1v2.9h-3.1v5.4h-3.3V6.4zm10.1 0h3.3v11.4h4.3v2.9h-7.6V6.4z" fill="#fff"/><path d="M28.2 54v10.1h8.5v2.6h-8.5v13.7h-3.9v-29h13.3V54h-9.4zm14.4 26.3V51.6h3.7v28.7h-3.7z" fill="#d10407" stroke="#d10407" stroke-width="1.25" stroke-miterlimit="10"/></svg>