<svg id="Layer_1" xmlns="http://www.w3.org/2000/svg" viewBox="0 0 72 96"><style>.st0{fill:#1f7244}</style><path class="st0" d="M0 2v92c0 1.1.9 2 2 2h68c1.1 0 2-.9 2-2V28H50c-1.1 0-2-.9-2-2V0H2C.9 0 0 .9 0 2z"/><path class="st0" d="M71.9 24c-.1-.4-.2-.7-.4-1L52 1.2V24h19.9z"/><path d="M6 41h60v49H6zm2.4-27.4L5.5 6.4h3.1l1 2.9c.3.9.5 1.8.5 1.8s.2-.9.5-1.8l1-2.9h3.1l-2.9 7.2 2.8 7.1h-3l-.9-3c-.3-.9-.5-1.7-.5-1.7s-.2.8-.5 1.7l-1 3h-3l2.7-7.1zM16 6.4h2.8v11.4h3.7v2.9H16V6.4zm8.5 10.3c.5.6 1.2 1.2 2 1.2.7 0 1.1-.6 1.1-1.2 0-2-4-2.1-4-6.2 0-2.4 1.4-4.3 3.9-4.3 1 0 2.1.3 2.9 1l-1 2.9c-.4-.4-1.2-.9-1.8-.9-.8 0-1.1.6-1.1 1.2 0 2.1 4.1 2 4.1 6.1 0 2.3-1.3 4.4-3.8 4.4-1.2 0-2.4-.5-3.4-1.4l1.1-2.8zm8-10.3h3.1l1.1 6c.2.9.4 2.4.4 2.4h.1s.2-1.5.4-2.4l1.1-6h3.1l.8 14.3H40l-.3-6.4c-.1-1.1 0-2.4 0-2.4h-.1s-.2 1.5-.4 2.4l-.7 4.1h-2.7l-.7-4.1c-.2-.9-.4-2.4-.4-2.4h-.1s.1 1.3 0 2.4l-.3 6.4h-2.6l.8-14.3z" fill="#fff"/><path class="st0" d="M46.8 49.2H59v8.1H46.8zm0 12.5H59v8.1H46.8zm0 12.4H59v8.1H46.8zm-16.5 0h12.2v8.1H30.3zm-16.5 0H26v8.1H13.8zm27.1-4.8l-8-10.1 7.3-9.2H33l-3.8 5-3.5-5h-7.5l7.4 9.4-7.8 9.9h7.3l4.1-5.5 4.1 5.5z"/></svg>