<svg id="Layer_1" xmlns="http://www.w3.org/2000/svg" viewBox="0 0 72 96"><style>.st0{fill:#1f7244}</style><path class="st0" d="M0 2v92c0 1.1.9 2 2 2h68c1.1 0 2-.9 2-2V28H50c-1.1 0-2-.9-2-2V0H2C.9 0 0 .9 0 2z"/><path class="st0" d="M71.9 24c-.1-.4-.2-.7-.4-1L52 1.2V24h19.9z"/><path d="M6 41h60v49H6zm2.6-27.4L5.5 6.4h3.3l1 2.9c.3.9.5 1.8.5 1.8s.2-.9.5-1.8l1-2.9H15l-3.1 7.2 3 7.1h-3.2l-1-3c-.3-.9-.5-1.7-.5-1.7s-.2.8-.5 1.7l-1 3H5.6l3-7.1zm8.2-7.2h3v11.4h3.9v2.9h-6.8V6.4zm9 2.9H23V6.4h8.6v2.9h-2.8v11.4h-2.9V9.3zm9.7 4.3l-3.1-7.2h3.3l1 2.9c.3.9.5 1.8.5 1.8s.2-.9.5-1.8l1-2.9h3.2L39 13.6l3 7.1h-3.2l-1-3c-.3-.9-.5-1.7-.5-1.7s-.2.8-.5 1.7l-1 3h-3.2l2.9-7.1z" fill="#fff"/><path class="st0" d="M46.8 49.2H59v8.1H46.8zm0 12.5H59v8.1H46.8zm0 12.4H59v8.1H46.8zm-16.5 0h12.2v8.1H30.3zm-16.5 0H26v8.1H13.8zm27.1-4.8l-8-10.1 7.3-9.2H33l-3.8 5-3.5-5h-7.5l7.4 9.4-7.8 9.9h7.3l4.1-5.5 4.1 5.5z"/></svg>