<svg id="Layer_1" xmlns="http://www.w3.org/2000/svg" viewBox="0 0 72 96"><style>.st0{fill:#039}</style><path class="st0" d="M0 2v92c0 1.1.9 2 2 2h68c1.1 0 2-.9 2-2V28H50c-1.1 0-2-.9-2-2V0H2C.9 0 0 .9 0 2z"/><path class="st0" d="M71.9 24c-.1-.4-.2-.7-.4-1L52 1.2V24h19.9z"/><path d="M6 41h60v49H6zm3-27.4L5.5 6.4h3.6l1.1 2.9.6 1.8s.2-.9.6-1.8l1.2-2.9h3.6l-3.4 7.2 3.3 7.1h-3.5l-1.1-3c-.4-.9-.6-1.7-.6-1.7s-.2.8-.6 1.7l-1.1 3H5.7L9 13.6zm9 3.1c.6.6 1.4 1.2 2.3 1.2.9 0 1.3-.6 1.3-1.2 0-2-4.8-2.1-4.8-6.2 0-2.4 1.7-4.3 4.5-4.3 1.2 0 2.4.3 3.4 1l-1.2 2.9c-.5-.4-1.4-.9-2.2-.9-.9 0-1.3.6-1.3 1.2 0 2.1 4.8 2 4.8 6.1 0 2.3-1.5 4.4-4.4 4.4-1.4 0-2.9-.5-4-1.4l1.6-2.8zm8.5-10.3H31c2.6 0 4.4 2 4.4 4.9 0 2.9-1.7 5-4.4 5h-1.2v4.4h-3.3V6.4zm3.9 7c1 0 1.6-.9 1.6-2.1s-.7-2-1.6-2h-.7v4.1h.7zm6.3-7h7.1v2.9H40v3.1h3.1v2.9H40v5.4h-3.3V6.4z" fill="#fff"/><path class="st0" d="M14.6 54.3h22.9c1.2 0 2.1-.9 2.1-2.1s-.9-2.1-2.1-2.1H14.6c-1.2 0-2.1.9-2.1 2.1s.9 2.1 2.1 2.1zm0 11.1h22.9c1.2 0 2.1-.9 2.1-2.1s-.9-2.1-2.1-2.1H14.6c-1.2 0-2.1.9-2.1 2.1s.9 2.1 2.1 2.1zm11 5.9h-11c-1.2 0-2.1.9-2.1 2.1s.9 2.1 2.1 2.1h11c1.2 0 2.1-.9 2.1-2.1s-.9-2.1-2.1-2.1z"/><path class="st0" d="M52.5 53.8c-1.6-.8-3.7-2-4.5-3.7 0-.9-.7-1.6-1.6-1.6-.9 0-1.6.7-1.6 1.6v21.5c-1.7-.9-4.9-.6-7.3.8-3.8 2.1-5.4 6.1-3.8 8.8s6.1 3.3 9.9 1.2c2.6-1.5 4.4-3.9 4.5-6.3V57.6c5.4 0 8.7 2.2 7.5 7.5-.2 1-.6 1.9-1 2.9-.2.3-.2.7.1 1 .3.3.8.2 1.2-.2 2-2 3.3-4.6 3.4-7.5-.1-3.8-3.7-6-6.8-7.5z"/></svg>