<svg id="Layer_1" xmlns="http://www.w3.org/2000/svg" viewBox="0 0 72 96"><style>.st0{fill:#999}</style><path class="st0" d="M0 2v92c0 1.1.9 2 2 2h68c1.1 0 2-.9 2-2V28H50c-1.1 0-2-.9-2-2V0H2C.9 0 0 .9 0 2z"/><path class="st0" d="M71.9 24c-.1-.4-.2-.7-.4-1L52 1.2V24h19.9z"/><path d="M6 41h60v49H6zM9 6.4h3.6l3.6 14.3h-3.3l-.6-3h-3l-.6 3H5.4L9 6.4zm2.8 8.6l-.6-2.8c-.2-.9-.4-2.5-.4-2.5h-.1s-.2 1.5-.4 2.5L9.8 15h2zm12.5-8.9c1.3 0 2.6.4 3.6 1.2l-1.4 2.8c-.4-.5-1.3-.9-2.1-.9-2.1 0-3.2 1.9-3.2 4.2 0 2.3 1.2 4.4 3.2 4.4 1 0 1.7-.5 2.3-1l1.4 2.8c-.9.7-2 1.3-3.9 1.3-4 0-6.3-3.1-6.3-7.4 0-4.2 2.4-7.4 6.4-7.4z" fill="#fff"/><path class="st0" d="M50.3 72.6v10c0 .2-.2.4-.4.4H20.1c-.2 0-.4-.2-.4-.4v-.9c0-.2.2-.4.4-.4h1.3l15.5-15.5-16.1-16.1c-.1-.1-.1-.2-.1-.3v-1c0-.2.2-.4.4-.4h28.8c.2 0 .4.2.4.4v9.9c0 .2-.2.4-.4.4h-1.1c-.2 0-.4-.2-.4-.4 0-4.2-2.5-7.7-6.9-7.7H29.9L43 63.8c.2.2.2.4 0 .6L30.2 77.2h11.3c3 0 5.6-1.9 6.6-4.7.1-.2.2-.3.4-.3H50c.2 0 .3.2.3.4z"/></svg>