<svg id="Layer_1" xmlns="http://www.w3.org/2000/svg" viewBox="0 0 72 96"><style>.st0{fill:#a03537}</style><path class="st0" d="M0 2v92c0 1.1.9 2 2 2h68c1.1 0 2-.9 2-2V28H50c-1.1 0-2-.9-2-2V0H2C.9 0 0 .9 0 2z"/><path class="st0" d="M71.9 24c-.1-.4-.2-.7-.4-1L52 1.2V24h19.9z"/><path d="M6 41h60v49H6zM8.4 6.5h2l2.8 14.2h-1.8l-.7-3.7H8.1l-.6 3.7H5.6L8.4 6.5zm2 8.5l-.7-3.8c-.1-.8-.3-2.2-.3-2.2s-.2 1.4-.3 2.2L8.4 15h2zm7.4-8.8c.9 0 1.9.4 2.6 1.2l-.8 2.1c-.4-.5-1.1-1-1.8-1-1.8 0-2.9 2.2-2.9 4.9 0 2.8 1.1 5.2 2.8 5.2.8 0 1.4-.5 2-1l.8 2.1c-.7.7-1.6 1.3-2.9 1.3-2.9 0-4.6-3.2-4.6-7.4.2-4.3 1.9-7.4 4.8-7.4zm7.5 0c.9 0 1.9.4 2.6 1.2l-.8 2.1c-.4-.5-1.1-1-1.8-1-1.8 0-2.9 2.2-2.9 4.9 0 2.8 1.1 5.2 2.8 5.2.8 0 1.4-.5 2-1l.8 2.1c-.7.7-1.6 1.3-2.9 1.3-2.9 0-4.6-3.2-4.6-7.4.2-4.3 1.9-7.4 4.8-7.4zm3.6.3h3c2.6 0 4.3 2.6 4.3 7.1s-1.7 7.1-4.3 7.1h-3V6.5zm2.9 12c1.6 0 2.5-1.7 2.5-4.9s-.9-4.9-2.5-4.9h-1v9.8h1zm5.4-12h2.9c1.7 0 2.9 1.3 2.9 3.7 0 1.3-.5 2.5-1.2 3 1.1.5 1.6 1.8 1.6 3.4 0 2.8-1.3 4.1-3.2 4.1h-2.9V6.5zm3 5.8c.6 0 1-.8 1-1.9s-.4-1.8-1.1-1.8h-1v3.7h1.1zm0 6.2c1 0 1.4-.9 1.4-2.1 0-1.3-.4-2.1-1.2-2.1h-1.3v4.2h1.1z" fill="#fff"/><path class="st0" d="M54.6 70.3c-.1.9-1.2 1.6-3.4 2.1s-5 .8-8.3.8h-2.8v5.2c.9.1 1.9.1 2.8.1 3.3 0 6.1-.3 8.3-.9 2.2-.6 3.4-1.3 3.5-2.1-.1-.2-.1-5.2-.1-5.2zm-11.8-3.8c-1 0-1.9 0-2.8-.1v5.3h2.8c3.3 0 6.1-.3 8.3-.9 2.2-.6 3.4-1.3 3.4-2.1v-5.1c-.1.9-1.2 1.6-3.5 2.1-2.1.6-4.9.9-8.2.8zm0-6.5c-1 0-1.9 0-2.8-.1v5.3c.9.1 1.9.1 2.8.1 3.3 0 6.1-.3 8.4-.9 2.2-.6 3.4-1.3 3.5-2.1v-5.1c-.1.9-1.2 1.6-3.5 2.1-2.3.4-5.1.7-8.4.7zm0-7.4c-1 0-1.9 0-2.8.1v5.9c.9.1 1.9.1 2.8.1 3.3 0 6.1-.3 8.4-.9 2.2-.6 3.4-1.3 3.5-2.1-.1-.9-1.2-1.6-3.5-2.2-2.3-.6-5.1-.8-8.4-.9zm-16.1 8.3c-.1.3-.3 1.3-.7 3l-.7 2.9h2.9l-.7-2.9c-.4-1.7-.7-2.7-.7-3h-.1zm-10.3-9.5v28.3L38 83.4V47.6l-21.6 3.8zm13.2 21.1l-.8-3.2-4-.1-.8 3-2.5-.2 3.8-13.5 2.9-.2 4.2 14.3-2.8-.1z"/></svg>