<svg id="Layer_1" xmlns="http://www.w3.org/2000/svg" viewBox="0 0 72 96"><style>.st0{fill:#333}</style><path class="st0" d="M0 2v92c0 1.1.9 2 2 2h68c1.1 0 2-.9 2-2V28H50c-1.1 0-2-.9-2-2V0H2C.9 0 0 .9 0 2z"/><path class="st0" d="M71.9 24c-.1-.4-.2-.7-.4-1L52 1.2V24h19.9z"/><path d="M6 41h60v49H6zM9 6.4h3.6l3.6 14.3h-3.3l-.6-3h-3l-.6 3H5.4L9 6.4zm2.8 8.6l-.6-2.8c-.2-.9-.4-2.5-.4-2.5h-.1s-.2 1.5-.4 2.5L9.8 15h2zm6.9-8.6h4.5c2.6 0 4.4 2 4.4 4.9 0 2.9-1.7 5-4.4 5H22v4.4h-3.3V6.4zm3.9 7c1 0 1.6-.9 1.6-2.1s-.7-2-1.6-2H22v4.1h.6zm7.9-7h3.3v5.5h.6l2.3-5.5h3.5l-2.9 6.8 3 7.4h-3.7l-2.3-5.8h-.6v5.8h-3.3V6.4z" fill="#fff"/><path d="M26.7 75.1c0 .9.6 1.5 1.5 1.5h1.6V82c0 1.2 1.1 2.3 2.3 2.3 1.2 0 2.3-1.1 2.3-2.3v-5.4h3.1V82c0 1.2 1.1 2.3 2.3 2.3 1.2 0 2.3-1.1 2.3-2.3v-5.4h1.5c.9 0 1.5-.6 1.5-1.6V59.6H26.7v15.5zm-3.9-15.5c-1.2 0-2.3 1.1-2.3 2.3v10.8c0 1.2 1.1 2.3 2.3 2.3 1.2 0 2.3-1.1 2.3-2.3V61.9c0-1.2-1-2.3-2.3-2.3zm26.4 0c-1.2 0-2.3 1.1-2.3 2.3v10.8c0 1.2 1.1 2.3 2.3 2.3 1.2 0 2.3-1.1 2.3-2.3V61.9c0-1.2-1.1-2.3-2.3-2.3zm-7.8-9l2-2c.3-.3.3-.8 0-1.1-.3-.3-.8-.3-1.1 0L40 49.8c-1.1-.8-2.5-1.1-4-1.1-1.6 0-2.9.3-4.2.9l-2.2-2.3c-.3-.2-.9-.2-1.2 0-.2.3-.2.9 0 1.2l2 2c-2.2 1.7-3.7 4.3-3.7 7.4h18.6c0-3-1.5-5.7-3.9-7.3zm-8.5 4.3h-1.6v-1.5h1.6v1.5zm7.8 0h-1.6v-1.5h1.6v1.5z" id="android" fill="#a4ca39"/></svg>