<svg xmlns="http://www.w3.org/2000/svg" viewBox="0 0 72 96"><style>.st0{fill:#bababa}</style><path class="st0" d="M0 2v92c0 1.1.9 2 2 2h68c1.1 0 2-.9 2-2V28H50c-1.1 0-2-.9-2-2V0H2C.9 0 0 .9 0 2z"/><path class="st0" d="M71.9 24c-.1-.4-.2-.7-.4-1L52 1.2V24h19.9z"/><path d="M6 41h60v49H6zm.6-34.6h4.2c2.5 0 4.2 1.3 4.2 3.7 0 1.2-.5 2.4-1.7 3 1.6.5 2.1 1.9 2.1 3.2 0 3.1-2 4.3-4.4 4.3H6.6V6.4zm4.2 5.6c.6 0 .9-.6.9-1.4s-.3-1.3-1-1.3h-.8V12h.9zm.2 5.8c.8 0 1.2-.7 1.2-1.6 0-.9-.3-1.5-1.1-1.5H9.9v3.1H11zm9.8-11.4h3.6L28 20.7h-3.3l-.6-3h-3l-.6 3h-3.3l3.6-14.3zm2.8 8.6l-.6-2.8c-.2-.9-.4-2.5-.4-2.5h-.1s-.2 1.5-.4 2.5l-.5 2.8h2zm6.9-8.6h3.3v5.5h.6l2.3-5.5h3.5l-2.9 6.8 3 7.4h-3.7l-2.3-5.8h-.6v5.8h-3.3V6.4z" fill="#fff"/><path class="st0" d="M18.5 48v20H26V55.5h12.5V48z"/><path class="st0" d="M28.5 58v25h25V58H41z"/></svg>