<svg id="Layer_1" xmlns="http://www.w3.org/2000/svg" viewBox="0 0 72 96"><style>.st0{fill:#fff}.st1{fill:#b4bdcc}.st3{fill:#543828}</style><path class="st0" d="M0 2v92c0 1.1.9 2 2 2h68c1.1 0 2-.9 2-2V28H50c-1.1 0-2-.9-2-2V0H2C.9 0 0 .9 0 2z"/><path class="st0" d="M71.9 24c-.1-.4-.2-.7-.4-1L52 1.2V24h19.9z"/><path class="st1" d="M0 94V2C0 .9.9 0 2 0h48c.6 0 1.1.2 1.5.7l20 22.3c.3.4.5.8.5 1.3V94c0 1.1-.9 2-2 2H2c-1.1 0-2-.9-2-2zm68-68.9L49.1 4H4v88h64V25.1z"/><path class="st1" d="M48 26V4c0-1.1.9-2 2-2s2 .9 2 2v20h16c1.1 0 2 .9 2 2s-.9 2-2 2H50c-1.1 0-2-.9-2-2z"/><g opacity=".65"><path class="st3" d="M30.7 32.1h2.6l.1.1c.8.2 1.7.3 2.5.7 2.7 1.1 4.3 3.2 5.3 5.9 0 .1.1.3.2.4.6.2 1.2.3 1.8.5l.1-.1c1.6-3.2 4.2-5 7.7-5.6.9-.2 1.8-.1 2.7.2-.1.1-.1.2-.2.2-1.2 1.3-2.1 2.7-2.3 4.4-.1.6-.2 1.1-.3 1.7-.3 1.5-.8 3-2 4.1-1.5 1.4-3.4 1.7-5.3 1.7-.1 0-.3-.1-.3-.3-.2-.3-.3-.6-.4-1-1.3.3-1.7.6-1.8 1.7.4 0 .8.1 1.2.1 3.4.4 6.8.9 10.1 1.6 1.6.4 3.1.8 4.6 1.5.8.4 1.2 1 1.4 1.9 0 .2.1.4.2.5v1.2c-.1.1-.1.3-.2.4-.2.6-.5 1.1-1 1.5-.6.5-1.3.7-2.1.8.2 1-.4 1.6-1.1 2-.5.3-1 .5-1.5.6-.8.1-1.5 0-2.3 0-.6 1.1-1.6 1.3-2.7 1.4-1.1.1-2.1-.2-3-.8-.4.5-.8.8-1.5.8-1.2.2-2.2-.1-3.2-.5l-.1-.1.1.1c.7 1.3 1.4 2.5 2 3.8.2.4.2 1 .2 1.4 0 .9-.5 1.5-1.2 1.7-.1.7-.5 1.3-1 1.7-.7.5-1.5.6-2.4.6-.1 0-.4-.1-.4 0-.4.6-1.1.8-1.7 1.1h-.9c-.6-.1-1.1-.7-1.8-.2-.1.1-.3.1-.4.1-.7 0-2-.4-2.3-1.4s-.8-2.1-1.2-3.1l-.1.1c-.9 1.8-2.9 2.5-4.8 1.6-1-.5-1.9-1.2-2.6-2-4.8-5.5-6.7-11.9-5.4-19.1 1.2-6.8 6.5-12 13.2-13.4.4-.3 1-.4 1.5-.5zm8.2 11.3c1 .1 2.1.1 3.1-.4.9-.4 1.9-.4 2.8-.3.6.1 1.3.3 1.9.4-.3-.3-.6-.6-1-.8-1.6-1.2-3.4-2-5.5-2.2-.2 0-.5 0-.5.1-.6.9-1 1.8-1 2.9-.1.7.1 1.4.4 2 1.1-.5 2.3-1 3.4-1.5v-.3c-.6.1-1.1.3-1.7.4-.7.1-1.4.2-1.9-.3zm10.4-6.8c-1.3 1.4-2.2 3-3 4.6l2.2 1.9c.7-.9.9-1.9 1.2-2.9.4-1.8.5-3.7 1.9-5.1-2.6-.1-6.4 2.6-7.2 5l1.3.7c.1-.1.1-.3.2-.4.4-.7.8-1.4 1.3-2 .6-.7 1.2-1.4 2.1-1.8zm-4.7 14.6c.8.1 1.6.2 2.4.2l7.4.8c.4 0 .7.1 1.1.1-.2-.6-.5-1.1-1-1.3s-1.1-.3-1.6-.5c-2.2-.4-4.3-.9-6.5-1.3-2.1-.3-4.3-.5-6.4-.8-.1 0-.3 0-.4.1l-1.2 1.2c-2.2 1.6-4.6 2-7.2 2 .7-.2 1.3-.4 2-.7 2.1-.8 3.9-1.9 5.2-3.7.2-.3.2-.5.1-.8-.6-1.1-.9-2.3-.9-3.5 0-1.5.5-2.8 1.6-3.9.2-.2.2-.4.1-.6-.7-1.6-1.7-2.8-3.2-3.7-1.8-1.1-3.8-1.2-5.7-.9-4.5.7-7.9 3-10.3 6.7-2.2 3.5-2.9 7.3-2.4 11.4.2 1.3.5 2.5 1.1 3.6.1.3.2.6.4.9 2.7 4.9 6.9 7.7 12.5 8.1 3.3.2 6.2-1.6 7.2-4.7.2-.7.5-1.4.1-2.1.7.6 1.6.9 2.6 1s1.8-.2 2.2-1c.1 0 .2.1.3.1.8.4 1.6.5 2.5.4 1.1-.1 1.6-.6 1.7-1.6.5.1 1.1.2 1.6.1 1.6 0 2.3-.9 2-2.2.6 0 1.3 0 1.9-.1.6-.1 1.2-.4 1.6-1.1l-6-1.2-6-1.2c-.2.2 1.2.2 1.2.2zm-1-8.1c.2.6.3 1.1.4 1.6.1.3.2.3.5.3 1-.1 1.9-.3 2.7-.7.1-.1.2-.1.5-.3l-2.4-.6-.3.5h-.1v-.6l-1.3-.2z"/><path d="M18.6 55.8c-.6-1.1-.9-2.4-1.1-3.6-.6-4.1.1-7.9 2.4-11.4 2.4-3.8 5.9-6.1 10.3-6.7 2-.3 3.9-.2 5.7.9 1.5.9 2.5 2.1 3.2 3.7.1.2.1.4-.1.6-1 1.1-1.5 2.4-1.6 3.9 0 1.2.3 2.4.9 3.5.2.3.1.5-.1.8-1.3 1.8-3.1 3-5.2 3.7-.6.2-1.3.4-2 .7 2.6 0 5.1-.4 7.2-2-.5.8-.8 1.6-1.4 2.3-2.6 3.4-6 4.9-10.4 3.7-.4-.1-.8-.2-1.2.2l-.6.3c-1.9.5-4 .3-6-.6zm13.5-17.7c-2.1 0-3.7 1.6-3.7 3.8 0 2 1.7 3.7 3.8 3.7s3.7-1.7 3.7-3.8-1.7-3.8-3.8-3.7z" fill="#e95927"/><path d="M18.6 55.8c2 .9 4.1 1 6.2.4.2-.1.5-.1.6-.3.4-.3.8-.3 1.2-.2 4.4 1.2 7.8-.3 10.4-3.7.5-.7.9-1.5 1.4-2.3l1.2-1.2c.1-.1.3-.1.4-.1 2.1.3 4.3.5 6.4.8 2.2.4 4.3.8 6.5 1.3-.1 0-.2.1-.2.1-2.7.2-5.4.4-8 .6h-1.4l6 1.2c-.1.2-.1.6-.2.7-.3.3-.7.6-1.1.7-.5.1-1 0-1.5 0 .1.5 0 1-.4 1.4-.3.2-.6.5-1 .6-.9.4-1.8.4-2.7-.1-.2.9-1 1.2-1.7 1.3-.8.1-1.5 0-2.2-.5l-.1.1.6 1.4c.4.7.1 1.4-.1 2.1-1 3.1-3.9 5-7.2 4.7-5.6-.4-9.8-3.2-12.5-8.1-.4-.3-.5-.6-.6-.9z" fill="#fbcd00"/><path d="M46.3 53.9c.5 0 1.1.1 1.5 0s.8-.4 1.1-.7c.2-.1.2-.5.2-.7l6 1.2c-.4.6-.9 1-1.6 1.1-.6.1-1.3.1-1.9.1.3 1.3-.4 2.2-2 2.2-.5 0-1.1-.1-1.6-.1-.1 1-.6 1.5-1.7 1.6-.9.1-1.7 0-2.5-.4 0-.2-.1-.2-.2-.2-.4.8-1.2 1.1-2.2 1s-1.8-.4-2.6-1l-.6-1.4.1-.1c.7.5 1.4.7 2.2.5.8-.1 1.5-.4 1.7-1.3.9.5 1.8.5 2.7.1.3-.1.7-.4 1-.6.4-.3.5-.8.4-1.3z" fill="#3daf00"/><path d="M49.3 36.6c-.9.4-1.6 1.1-2.2 1.9-.5.6-.9 1.3-1.3 2-.1.1-.1.2-.2.4l-1.3-.7c.8-2.5 4.6-5.1 7.2-5-1.4 1.5-1.4 3.4-1.9 5.1-.2 1-.5 2-1.2 2.9l-2.2-1.9c.9-1.7 1.9-3.3 3.1-4.7.2-.1 0 0 0 0z" fill="#25a7f0"/><path d="M38.7 43.2c0-1.1.3-2.1 1-2.9.1-.1.4-.1.5-.1 2.1.1 3.8 1 5.5 2.2.3.2.7.5 1 .8-.6-.1-1.3-.3-1.9-.4-1-.2-1.9-.1-2.8.3-1 .4-2 .4-3.1.4l-.2-.3z" fill="#cbcbca"/><path d="M44.6 51.2c2.7-.2 5.4-.4 8-.6.1 0 .2 0 .2-.1.5.2 1.1.3 1.6.5.6.2.8.7 1 1.3-.4 0-.8-.1-1.1-.1l-7.3-.7-2.4-.3z" fill="#3eae00"/><path d="M43.6 43.1l1.3.2v.6h.1l.3-.6 2.4.6c-.2.1-.3.2-.5.3-.9.4-1.8.6-2.7.7-.2 0-.4 0-.5-.3-.1-.4-.3-.9-.4-1.5z" fill="#25a5ec"/><path d="M38.7 43.2l.1.2c.6.5 1.3.5 1.9.4.6-.1 1.1-.3 1.7-.4v.3L39 45.2c-.1-.6-.3-1.3-.3-2z" fill="#c9c8c7"/><path d="M32.1 38.1c2.1 0 3.8 1.6 3.8 3.7s-1.7 3.8-3.7 3.8-3.8-1.7-3.8-3.7c0-2.2 1.6-3.8 3.7-3.8zm2.2 3.7c0-1.3-1-2.3-2.2-2.3s-2.2 1-2.3 2.3c0 1.2 1 2.3 2.2 2.3 1.4-.1 2.3-1 2.3-2.3z" fill="#fbcb00"/><path class="st3" d="M49.3 36.6c.1.1 0 0 0 0z"/><path d="M34.3 41.8c0 1.3-1 2.2-2.3 2.2s-2.3-1-2.2-2.3c0-1.2 1-2.3 2.3-2.3 1.3.1 2.2 1.1 2.2 2.4zm-2.2-.1c.4-.1.7-.2 1.1-.4.4-.2.4-.7 0-1-.5-.4-1.6-.4-2.1 0-.4.3-.4.8 0 1 .3.2.6.3 1 .4z" fill="#553928"/><path class="st0" d="M32.1 41.7c-.4-.1-.7-.2-1-.4-.4-.2-.4-.7 0-1 .5-.4 1.6-.4 2.1 0 .4.3.4.8 0 1s-.7.3-1.1.4z"/></g></svg>