<svg id="Layer_1" xmlns="http://www.w3.org/2000/svg" viewBox="0 0 72 96"><style>.st0{fill:#fff}.st1{fill:#bababa}</style><path class="st0" d="M0 2v92c0 1.1.9 2 2 2h68c1.1 0 2-.9 2-2V28H50c-1.1 0-2-.9-2-2V0H2C.9 0 0 .9 0 2z"/><path class="st0" d="M71.9 24c-.1-.4-.2-.7-.4-1L52 1.2V24h19.9z"/><path class="st1" d="M26.8 50.3c2.2-.9 4.5-1.5 6.9-1.6v-6.4h-8.4c.1 2.7.6 5.5 1.5 8zm-4.6-24.6c1 1 2.2 1.8 3.3 2.5 1-2.3 2.3-4.5 3.9-6.5-2.7.8-5.1 2.1-7.2 4zm21 6c-2.2.9-4.5 1.5-6.9 1.6v6.4h8.4c-.1-2.7-.6-5.5-1.5-8zm-9.4 1.5c-2.4-.2-4.8-.7-6.9-1.6-.9 2.6-1.4 5.3-1.5 8.1h8.4v-6.5zm-6-3.9c1.9.8 3.9 1.2 6 1.4v-9.8h-.2l-1.1 1.2c-2.1 2.1-3.6 4.6-4.7 7.2zm16.9 12.9h-8.4v6.4c2.4.2 4.8.7 6.9 1.6.9-2.4 1.4-5.2 1.5-8zm-8.5-11.4c2.1-.2 4.1-.6 6-1.4-1.2-2.7-2.8-5.1-4.7-7.3l-.8-1.1h-.4l-.1 9.8zm11.7-5.2c-2.1-1.8-4.6-3.2-7.3-3.9 1.6 2 2.9 4.2 3.9 6.5 1.2-.7 2.3-1.5 3.4-2.6zM33.8 51.2c-2.1.2-4.1.6-6 1.4 1.2 2.6 2.7 5.1 4.6 7.2l1 1.1h.3l.1-9.7zm-11-11.4c.1-3.2.8-6.2 1.7-9.2-1.5-.8-2.8-1.8-4.2-3.1l-.1-.1c-3 3.3-5 7.6-5.2 12.4h7.8zm24.4 2.4c-.1 3.2-.8 6.2-1.7 9.2 1.5.8 2.8 1.8 4.2 3.1l.2.2c3-3.3 5-7.6 5.3-12.4-.2-.1-8-.1-8-.1zm2.4-14.7c-1.2 1.2-2.7 2.2-4.2 3.1 1.1 2.9 1.7 6 1.7 9.2H55c-.3-4.8-2.2-9.1-5.3-12.4l-.1.1zm-1.8 28.8c-1-1-2.2-1.8-3.3-2.5-1 2.3-2.3 4.5-3.9 6.5 2.7-.8 5.2-2.1 7.2-4zm-27.4-1.8c1.2-1.2 2.7-2.2 4.1-3.1-1.1-2.9-1.7-6-1.8-9.2H15c.3 4.8 2.2 9.1 5.2 12.4l.2-.1zm5.1-.7c-1.2.7-2.3 1.6-3.3 2.5 2.1 1.8 4.6 3.2 7.3 3.9-1.7-1.9-3-4-4-6.4zm16.7-1.1c-1.9-.8-3.9-1.2-6-1.4v9.8h.3l1.1-1.2c2-2.1 3.5-4.7 4.6-7.2z"/><path d="M7.7 70.4h3.1c1.9 0 3.2 1.3 3.2 3.7 0 1.2-.4 2.4-1.2 3 1.2.5 1.6 1.9 1.6 3.2 0 3.1-1.5 4.3-3.3 4.3H7.7V70.4zm3.1 5.6c.5 0 .7-.6.7-1.4 0-.7-.2-1.3-.7-1.3h-.6V76h.6zm.2 5.8c.6 0 .9-.7.9-1.6s-.2-1.5-.8-1.5h-.9v3.1h.8zm4.5-11.4h3.4c.4 0 1 .1 1.4.4 1.1.6 1.8 2.1 1.8 4 0 1.7-.6 3.3-1.5 4 0 0 .1.2.4.9l1.7 5H20l-1.5-4.8H18v4.8h-2.5V70.4zm3 6.6c.6 0 1.2-.7 1.2-1.9 0-.7-.2-1.2-.4-1.5-.2-.2-.5-.3-.6-.3H18V77h.5zm9-6.8c2.8 0 4.4 3.1 4.4 7.3 0 4.2-1.6 7.5-4.4 7.5s-4.4-3.2-4.4-7.5c.1-4.2 1.6-7.3 4.4-7.3zm0 11.6c1.3 0 1.8-1.8 1.8-4.3s-.6-4.2-1.8-4.2-1.9 1.7-1.9 4.2c.1 2.5.7 4.3 1.9 4.3zm4.8-11.4h2.4l.9 8.9c.1.7.1 1.6.1 1.6h.1s0-.9.1-1.6l1-8.9h2.3l1 8.9c.1.7.1 1.6.1 1.6h.1s0-.9.1-1.6l.9-8.9h2.4l-1.9 14.3h-2.8l-.8-7.2c-.3-.9-.3-1.7-.3-1.7s0 .8-.1 1.7l-.9 7.2h-2.8l-1.9-14.3zM45 80.7c.4.6 1 1.2 1.7 1.2s1-.6 1-1.2c0-2-3.6-2.1-3.6-6.2 0-2.4 1.3-4.3 3.4-4.3.9 0 1.8.3 2.6 1l-.9 2.9c-.4-.4-1.1-.9-1.6-.9-.7 0-1 .6-1 1.2 0 2.1 3.6 2 3.6 6.1 0 2.3-1.1 4.4-3.3 4.4-1 0-2.2-.5-3-1.4l1.1-2.8zm6.3-10.3h5.4v2.9h-2.9V76h2.3v2.9h-2.3v2.9h3.1v2.9h-5.5l-.1-14.3zm6.8 0h3.4c.4 0 1 .1 1.4.4 1.1.6 1.8 2.1 1.8 4 0 1.7-.6 3.3-1.5 4 0 0 .2.2.4.9l1.7 5h-2.7l-1.5-4.8h-.6v4.8H58l.1-14.3zM61 77c.6 0 1.2-.7 1.2-1.9 0-.7-.2-1.2-.4-1.5-.2-.2-.4-.3-.6-.3h-.6V77h.4z" fill="#666"/><path class="st1" d="M0 94V2C0 .9.9 0 2 0h48c.6 0 1.1.2 1.5.7l20 22.3c.3.4.5.8.5 1.3V94c0 1.1-.9 2-2 2H2c-1.1 0-2-.9-2-2zm68-68.9L49.1 4H4v88h64V25.1z"/><path class="st1" d="M48 26V4c0-1.1.9-2 2-2s2 .9 2 2v20h16c1.1 0 2 .9 2 2s-.9 2-2 2H50c-1.1 0-2-.9-2-2z"/></svg>