<svg id="Layer_1" xmlns="http://www.w3.org/2000/svg" viewBox="0 0 72 96"><style>.st0{fill:#c11e07}</style><path class="st0" d="M0 2v92c0 1.1.9 2 2 2h68c1.1 0 2-.9 2-2V28H50c-1.1 0-2-.9-2-2V0H2C.9 0 0 .9 0 2z"/><path class="st0" d="M71.9 24c-.1-.4-.2-.7-.4-1L52 1.2V24h19.9z"/><path d="M6 41h60v49H6zm6.5-34.9c1.3 0 2.6.4 3.6 1.2l-1.4 2.8c-.4-.5-1.3-.9-2.1-.9-2.1 0-3.2 1.9-3.2 4.2 0 2.3 1.2 4.4 3.2 4.4 1 0 1.7-.5 2.3-1l1.4 2.8c-.9.7-2 1.3-3.9 1.3-4 0-6.3-3.1-6.3-7.4-.1-4.2 2.3-7.4 6.4-7.4zm8.9.3H25l3.6 14.3h-3.3l-.6-3h-3l-.6 3h-3.3l3.6-14.3zm2.8 8.6l-.6-2.8c-.2-.9-.4-2.5-.4-2.5h-.1s-.2 1.5-.4 2.5l-.5 2.8h2zm6.9-8.6h3.3v11.4h4.3v2.9h-7.6V6.4z" fill="#fff"/><path id="path1156" d="M20 80.5v-5.7h6.6v5.7H20zm8 0v-5.7h7.3v5.7H28zm-8-7v-6.4h6.6v6.4H20zm8 0v-6.4h7.3v6.4H28zm-8-7.7v-5.7h6.6v5.7H20zm16.8 14.7v-5.7h7.3v5.7h-7.3zM28 65.8v-5.7h7.3v5.7H28zm17.6 14.7v-5.7h6.6v5.7h-6.6zm-8.8-7v-6.4h7.3v6.4h-7.3zm-8-17.2c0 .3-.3.6-.7.6h-1.5c-.4 0-.7-.3-.7-.6v-5.7c0-.3.3-.6.7-.6H28c.4 0 .7.3.7.6v5.7zm16.8 17.2v-6.4h6.6v6.4h-6.6zm-8.8-7.7v-5.7h7.3v5.7h-7.3zm8.8 0v-5.7h6.6v5.7h-6.6zm.8-9.5c0 .3-.3.6-.7.6h-1.5c-.4 0-.7-.3-.7-.6v-5.7c0-.3.3-.6.7-.6h1.5c.4 0 .7.3.7.6v5.7zm8.8-1.3c0-1.4-1.3-2.5-2.9-2.5h-2.9v-1.9c0-1.7-1.6-3.2-3.7-3.2h-1.5c-2 0-3.7 1.4-3.7 3.2v1.9h-8.8v-1.9c0-1.7-1.6-3.2-3.7-3.2h-1.5c-2 0-3.7 1.4-3.7 3.2v1.9H20c-1.6 0-2.9 1.2-2.9 2.5v25.4c0 1.4 1.3 2.5 2.9 2.5h32.2c1.6 0 2.9-1.2 2.9-2.5V55z" fill="#111"/></svg>