<svg id="Layer_1" xmlns="http://www.w3.org/2000/svg" viewBox="0 0 72 96"><style>.st0{fill:#999}</style><path class="st0" d="M0 2v92c0 1.1.9 2 2 2h68c1.1 0 2-.9 2-2V28H50c-1.1 0-2-.9-2-2V0H2C.9 0 0 .9 0 2z"/><path class="st0" d="M71.9 24c-.1-.4-.2-.7-.4-1L52 1.2V24h19.9z"/><path d="M6 41h60v49H6zm6.5-34.9c1.3 0 2.6.4 3.6 1.2l-1.4 2.8c-.4-.5-1.3-.9-2.1-.9-2.1 0-3.2 1.9-3.2 4.2 0 2.3 1.2 4.4 3.2 4.4 1 0 1.7-.5 2.3-1l1.4 2.8c-.9.7-2 1.3-3.9 1.3-4 0-6.3-3.1-6.3-7.4-.1-4.2 2.3-7.4 6.4-7.4zm6.5.3h4.2c3.7 0 5.9 2.6 5.9 7.1s-2.2 7.2-5.9 7.2H19V6.4zm4.1 11.4c1.7 0 2.6-1.5 2.6-4.3s-1-4.2-2.6-4.2h-.8v8.5h.8z" fill="#fff"/><path class="st0" d="M42.7 70.8c.2-.5.4-.9.5-1.4l2.5-7.8c.3-1 .7-2 1.3-2.8 1-1.4 2.4-2.1 4-2.3.6-.1 1.3-.2 1.9-.2h6.2c-.1.1-.1.2-.1.2-.7 1.3-1.5 2.5-2.1 3.8-1.3 2.2-2.6 4.5-3.9 6.6-.8 1.4-1.8 2.8-2.8 4-.8.9-1.6 1.8-2.6 2.5-.7.5-1.5.7-2.3.7h-9.1c-.9 0-1.7-.3-2.3-.9-.9-.8-1.5-2-2-3.1-.8-2.1-1.3-4.4-1.8-6.6-.2-1.1-.5-2.1-.8-3.1 0-.1-.1-.2-.1-.2l-.2.2c-1.2 1.2-2.2 2.5-3.1 3.8-.2.4-.3.8-.5 1.3-.5 1.6-1 3.3-1.5 4.9-.5 1.5-1.5 2.8-3 3.5-.9.5-1.8.7-2.8.7-1.5 0-2.9 0-4.4.1-.4 0-.4 0-.3-.4.6-2.3 1.4-4.6 2.4-6.8s2.2-4.5 3.8-6.4c1-1.3 2.1-2.6 3.6-3.5.7-.5 1.5-.8 2.4-.9h9.8c1.7 0 2.8.7 3.8 2 .5.8 1 1.8 1.3 2.7.7 1.9 1.1 3.8 1.6 5.8.3 1.2.6 2.2.8 3.4-.3 0-.3.1-.2.2z"/></svg>