<svg id="Layer_1" xmlns="http://www.w3.org/2000/svg" viewBox="0 0 72 96"><style>.st0{fill:#039}</style><path class="st0" d="M0 2v92c0 1.1.9 2 2 2h68c1.1 0 2-.9 2-2V28H50c-1.1 0-2-.9-2-2V0H2C.9 0 0 .9 0 2z"/><path class="st0" d="M71.9 24c-.1-.4-.2-.7-.4-1L52 1.2V24h19.9z"/><path d="M6 41h60v49H6zm5.4-34.8c1 0 2.2.4 2.9 1.2l-.9 2.1c-.4-.5-1.3-1-2-1-2.1 0-3.2 2.2-3.2 4.9 0 2.8 1.2 5.2 3.2 5.2.9 0 1.6-.5 2.2-1l.9 2.1c-.8.7-1.8 1.3-3.2 1.3-3.3 0-5.2-3.2-5.2-7.4 0-4.3 1.9-7.4 5.3-7.4zm4.5.3h3.3c3 0 4.9 2.6 4.9 7.1s-1.9 7.1-4.9 7.1h-3.3V6.5zm3.2 12c1.8 0 2.8-1.7 2.8-4.9s-1.1-4.9-2.8-4.9h-1.2v9.8h1.2zm6.6-12H29c3 0 4.9 2.6 4.9 7.1S32 20.7 29 20.7h-3.3V6.5zm3.3 12c1.8 0 2.8-1.7 2.8-4.9S30.7 8.7 29 8.7h-1.2v9.8H29zm8.6-12h2.2L43 20.7h-2.1l-.7-3.7h-3l-.7 3.7h-2.1l3.2-14.2zm2.3 8.5l-.8-3.8c-.2-.8-.4-2.2-.4-2.2h-.1s-.2 1.4-.3 2.2l-.7 3.8h2.3z" fill="#fff"/><path class="st0" d="M41 77.6V64.1l7.9-1.3C47.7 56.1 41.8 51 34.7 51c-8 0-14.5 6.5-14.5 14.5S26.7 80 34.7 80c.8 0 1.5-.1 2.3-.2.6-1 1.6-1.7 2.9-2.1.4-.1.8-.1 1.1-.1zm-3.6-25.4L35.8 59h-1.5l-1.1-6.8c1.6-.8 4.2 0 4.2 0zm-2.7 18.7c-3 0-5.4-2.4-5.4-5.4s2.4-5.4 5.4-5.4c3 0 5.4 2.4 5.4 5.4 0 3-2.4 5.4-5.4 5.4zm0-9.5c-2.3 0-4.1 1.8-4.1 4.1s1.8 4.1 4.1 4.1 4.1-1.8 4.1-4.1-1.8-4.1-4.1-4.1zm0 7c-1.6 0-2.9-1.3-2.9-2.9 0-1.6 1.3-2.9 2.9-2.9 1.6 0 2.9 1.3 2.9 2.9.1 1.6-1.3 2.9-2.9 2.9zm1.9 13.9c.1.4.2.7.4 1.1-.8.1-1.5.2-2.3.2-9.9 0-18-8.1-18-18s8.1-18 18-18c8.8 0 16.2 6.4 17.7 14.7l-1.7.3c-1.4-7.5-8-13.3-16-13.3-8.9 0-16.2 7.3-16.2 16.2 0 8.9 7.3 16.2 16.2 16.2.6 0 1.2 0 1.8-.1 0 .2 0 .5.1.7zm17.7-19.1v15.6c0 1.3-1 2.3-2.5 2.7-1.6.4-3.2-.3-3.6-1.5-.3-1.3.8-2.6 2.4-3 .7-.2 1.5-.1 2.1.1v-9.4l-8.4 1.5v11.7c0 1.1-1 2.2-2.4 2.6-1.6.4-3.3-.4-3.5-1.5-.3-1.3.8-2.6 2.4-3 .7-.2 1.5-.1 2.1.1v-14l11.4-1.9z"/></svg>