<svg id="Layer_1" xmlns="http://www.w3.org/2000/svg" viewBox="0 0 72 96"><style>.st0{fill:#999}</style><path class="st0" d="M0 2v92c0 1.1.9 2 2 2h68c1.1 0 2-.9 2-2V28H50c-1.1 0-2-.9-2-2V0H2C.9 0 0 .9 0 2z"/><path class="st0" d="M71.9 24c-.1-.4-.2-.7-.4-1L52 1.2V24h19.9z"/><path d="M6 41h60v49H6V41zm6.5-34.9c1.3 0 2.6.4 3.6 1.2l-1.4 2.8c-.4-.5-1.3-.9-2.1-.9-2.1 0-3.2 1.9-3.2 4.2s1.2 4.4 3.2 4.4c1 0 1.7-.5 2.3-1l1.4 2.8c-.9.7-2 1.3-3.9 1.3-4 0-6.3-3.1-6.3-7.4-.1-4.2 2.3-7.4 6.4-7.4zm6.5.3h7.1v2.9h-3.8v3.1h3.1v2.9h-3.1v5.4H19V6.4zm15.8-.3c1.4 0 2.9.4 3.9 1.3l-1.4 2.8c-.6-.6-1.4-.9-2.3-.9-2.2 0-3.2 1.9-3.2 4.2 0 2.6 1.2 4.3 2.9 4.3.6 0 1.3-.2 1.7-.6v-1.7H35v-2.9h4.3v8.1h-2.6v-.9c-.5.7-1.6 1.2-2.7 1.2-2.8 0-5.6-2.7-5.6-7.3.1-4.5 2.5-7.6 6.4-7.6z" fill="#fff"/><path class="st0" d="M41.4 60.3c0-2.3-1.4-4.1-3.3-4.9v-6.6c0-1.1-.8-1.9-1.9-1.9-1.1 0-1.9.8-1.9 1.9v6.6c-2 .7-3.3 2.6-3.3 4.9 0 2.3 1.4 4.1 3.3 4.9 0 .1-.1.3-.1.4v16.6c0 1.1.8 1.9 1.9 1.9 1.1 0 1.9-.8 1.9-1.9V65.5c0-.2 0-.3-.1-.4 2.1-.6 3.5-2.5 3.5-4.8zm-5.3 1.5c-.8 0-1.4-.6-1.4-1.4 0-.8.6-1.4 1.4-1.4.8 0 1.4.6 1.4 1.4.1.7-.6 1.4-1.4 1.4zM51.3 49c0-1.1-.8-1.9-1.9-1.9-1.1 0-1.9.8-1.9 1.9v15.5c-2 .7-3.3 2.6-3.3 4.9s1.4 4.1 3.3 4.9c0 .1-.1.3-.1.4v7.6c0 1.1.8 1.9 1.9 1.9 1.1 0 1.9-.8 1.9-1.9v-7.6c0-.2 0-.3-.1-.4 2-.7 3.3-2.6 3.3-4.9s-1.4-4.1-3.3-4.9V49h.2zm-1.9 21.8c-.8 0-1.4-.6-1.4-1.4s.6-1.4 1.4-1.4c.8 0 1.4.6 1.4 1.4s-.6 1.4-1.4 1.4zM21 82.1c0 1.1.8 1.9 1.9 1.9s1.9-.8 1.9-1.9v-7.6c0-.2 0-.3-.1-.4 2-.7 3.3-2.6 3.3-4.9s-1.4-4.1-3.3-4.9V49c0-1.1-.8-1.9-1.9-1.9s-1.9.8-1.9 1.9v15.5c-2 .7-3.3 2.6-3.3 4.9s1.4 4.1 3.3 4.9c0 .1-.1.3-.1.4v7.6c0-.2.2-.2.2-.2zm1.9-14.2c.8 0 1.4.6 1.4 1.4s-.6 1.4-1.4 1.4-1.4-.6-1.4-1.4.6-1.4 1.4-1.4z"/></svg>