<svg id="Layer_1" xmlns="http://www.w3.org/2000/svg" viewBox="0 0 72 96"><style>.st0{fill:#c93}.st1{fill:#fff}</style><path class="st0" d="M0 2v92c0 1.1.9 2 2 2h68c1.1 0 2-.9 2-2V28H50c-1.1 0-2-.9-2-2V0H2C.9 0 0 .9 0 2z"/><path class="st0" d="M71.9 24c-.1-.4-.2-.7-.4-1L52 1.2V24h19.9z"/><path class="st1" d="M6 41h60v49H6zm6.5-34.9c1.3 0 2.6.4 3.6 1.2l-1.4 2.8c-.4-.5-1.3-.9-2.1-.9-2.1 0-3.2 1.9-3.2 4.2 0 2.3 1.2 4.4 3.2 4.4 1 0 1.7-.5 2.3-1l1.4 2.8c-.9.7-2 1.3-3.9 1.3-4 0-6.3-3.1-6.3-7.4-.1-4.2 2.3-7.4 6.4-7.4zm5.2.3H21v5.8h3.2V6.4h3.3v14.3h-3.3V15H21v5.7h-3.3V6.4zm12.6 0H34l1.3 6c.2.9.4 2.4.4 2.4h.1s.2-1.5.4-2.4l1.3-6h3.6l.9 14.3h-3l-.4-6.4c-.1-1.1 0-2.4 0-2.4h-.1s-.2 1.5-.4 2.4l-.9 4.1H34l-.9-4.1c-.2-.9-.4-2.4-.4-2.4h-.1s.1 1.3 0 2.4l-.4 6.4h-3l1.1-14.3z"/><path class="st0" d="M52.5 47H27c-3.8 0-7.5 1.5-7.5 6v30h27V53H23.2c0-2.2 1.5-3 3-3h23.2v30l3-3V47z"/><path class="st1" d="M31.8 69.6c0-3.1 3.6-3.6 3.6-5.9 0-1-.9-1.8-2.1-1.8-1.3.1-2.3 1-2.3 1L29.5 61s1.5-1.6 4.1-1.6c2.4 0 4.7 1.5 4.7 4.1 0 3.6-3.8 4-3.8 6.3v.8h-2.7v-1zm0 2.9h2.7V75h-2.7v-2.5z"/></svg>