<svg id="Layer_1" xmlns="http://www.w3.org/2000/svg" viewBox="0 0 72 96"><style>.st0{fill:#fff}.st2{fill:#28334c}</style><path class="st0" d="M0 2v92c0 1.1.9 2 2 2h68c1.1 0 2-.9 2-2V28H50c-1.1 0-2-.9-2-2V0H2C.9 0 0 .9 0 2z"/><path class="st0" d="M71.9 24c-.1-.4-.2-.7-.4-1L52 1.2V24h19.9z"/><path d="M14.9 70.2c1.1 0 2.4.4 3.2 1.2l-1.2 2.8c-.4-.5-1.2-.9-1.9-.9-1.9 0-2.9 1.9-2.9 4.2 0 2.3 1 4.4 2.9 4.4.9 0 1.5-.5 2.1-1l1.2 2.8c-.8.7-1.8 1.3-3.5 1.3-3.6 0-5.7-3.1-5.7-7.4 0-4.4 2.2-7.4 5.8-7.4zm9.3 0c3.4 0 5.3 3.1 5.3 7.3 0 4.2-1.9 7.5-5.3 7.5s-5.3-3.2-5.3-7.5c.1-4.2 2-7.3 5.3-7.3zm0 11.6c1.5 0 2.2-1.8 2.2-4.3s-.7-4.2-2.2-4.2S22 75 22 77.5s.7 4.3 2.2 4.3zm7.2-11.4h6.4v2.9h-3.5v3.1h2.9v2.9h-2.8v5.4h-3V70.4zm8.2 0H46v2.9h-3.5v3.1h2.8v2.9h-2.8v5.4h-3l.1-14.3zm8.1 0h6.5v2.9h-3.5V76h2.8v2.9h-2.8v2.9h3.7v2.9h-6.6V70.4h-.1zm8.5 0h6.5v2.9h-3.5V76H62v2.9h-2.8v2.9h3.7v2.9h-6.7V70.4z" fill="#666"/><path class="st2" d="M0 94V2C0 .9.9 0 2 0h48c.6 0 1.1.2 1.5.7l20 22.3c.3.4.5.8.5 1.3V94c0 1.1-.9 2-2 2H2c-1.1 0-2-.9-2-2zm68-68.9L49.1 4H4v88h64V25.1z"/><path class="st2" d="M48 26V4c0-1.1.9-2 2-2s2 .9 2 2v20h16c1.1 0 2 .9 2 2s-.9 2-2 2H50c-1.1 0-2-.9-2-2zm-17.1 7.5c4-.3 5.1-2.9 9.8-3.3 2.3-.2 3.7.3 3.9 1.1.1.7-1 1.3-2.4 1.4-1.9.2-2.7-.5-2.9-1.2-1.4.1-1.6.7-1.6 1.2.1.8 1.9 1.6 4.8 1.3 3.3-.3 4.4-1.6 4.2-2.9-.3-1.7-2.9-3.1-7.5-2.7-5.9.5-5.9 3.2-9.8 3.6-1.6.1-2.6-.2-2.7-.9-.1-.6.7-1 1.6-1 .9-.1 1.9.1 2.5.3.4-.2.5-.4.4-.6-.1-.6-1.4-.9-2.9-.7-3 .3-3 1.6-2.9 2.2.4 1.4 2.6 2.4 5.5 2.2zm19.9 6.7c-3.7.9-8.4 1.4-14 1.4-5.8 0-10.5-.6-14.1-1.4-3.3-.9-5-1.8-5.7-2.7.3 2.1.9 4.2 1.6 6.2-.8.5-1.6 1.2-2.3 2-1.3 1.6-1.9 3.5-1.8 5.4.1 1.9 1 3.4 2.5 4.6 1.5 1.2 3.2 1.5 5 1.2.7-.1 1.5-.5 2.2-.7-1.5 0-2.8-.5-4.1-1.5-1.4-1-2.4-2.5-2.6-4.2-.3-1.6 0-3.2.9-4.5.2-.3.4-.5.6-.7.5 1.3 1.1 2.5 1.8 3.7 1.4 2.1 2.8 4 4.2 6 .6 1.2 1 2.4 1.3 3.5.9 1.3 2.2 2.2 3.9 2.7 2 .7 4.1 1 6.3 1h.2c2.1 0 4.4-.3 6.5-1 1.5-.5 2.8-1.4 3.8-2.7h.1c.2-1 .6-2.3 1.2-3.5 1.4-2 2.8-3.9 4.2-6 1.9-3.4 3.2-7.3 3.9-11.5-.6 1.1-2.4 2-5.6 2.7zm-28.1-2.9c3.7.9 8.4 1.4 14 1.4 5.8 0 10.4-.5 14-1.4 3.9-.9 5.8-2.1 5.8-3.3 0-.9-.9-1.6-2.4-2.2.3.2.6.6.6 1 0 1.2-1.8 2.1-5.3 2.9-3.3.7-7.5 1.2-12.6 1.2-4.9 0-9.3-.5-12.5-1.2-3.4-.9-5.2-1.8-5.2-2.9 0-.5.2-.9.9-1.4-2.1.9-3.3 1.5-3.3 2.6.1 1.2 2 2.4 6 3.3z"/></svg>