<svg id="Layer_1" xmlns="http://www.w3.org/2000/svg" viewBox="0 0 72 96"><style>.st0{fill:#999}</style><path class="st0" d="M0 2v92c0 1.1.9 2 2 2h68c1.1 0 2-.9 2-2V28H50c-1.1 0-2-.9-2-2V0H2C.9 0 0 .9 0 2z"/><path class="st0" d="M71.9 24c-.1-.4-.2-.7-.4-1L52 1.2V24h19.9z"/><path d="M6 41h60v49H6zm6.5-34.9c1.3 0 2.6.4 3.6 1.2l-1.4 2.8c-.4-.5-1.3-.9-2.1-.9-2.1 0-3.2 1.9-3.2 4.2 0 2.3 1.2 4.4 3.2 4.4 1 0 1.7-.5 2.3-1l1.4 2.8c-.9.7-2 1.3-3.9 1.3-4 0-6.3-3.1-6.3-7.4-.1-4.2 2.3-7.4 6.4-7.4zm10.3 0c3.8 0 5.9 3.1 5.9 7.3 0 4.2-2.1 7.5-5.9 7.5S17 17.7 17 13.4c-.1-4.1 2-7.3 5.8-7.3zm0 11.7c1.7 0 2.5-1.8 2.5-4.3s-.8-4.2-2.5-4.2-2.5 1.7-2.5 4.2.8 4.3 2.5 4.3zm8.4-11.4h3.6l1.3 6c.2.9.4 2.4.4 2.4h.1s.2-1.5.4-2.4l1.3-6H42l.9 14.3h-3l-.4-6.4c-.1-1.1 0-2.4 0-2.4h-.1s-.2 1.5-.4 2.4l-.9 4.1H35l-.9-4.1c-.2-.9-.4-2.4-.4-2.4h-.1s.1 1.3 0 2.4l-.4 6.4h-3l1-14.3z" fill="#fff"/><path class="st0" d="M54.8 46.8h-38v38h38v-38zm-30.4 7.5h-3.8v-3.8h3.8v3.8zm26.6 0H28.1v-3.8H51v3.8zm0 26.6H20.5V58.2H51v22.7z"/><path class="st0" d="M26.5 61.4l-2.7 2.7 4.4 4.4-4.4 4.3 2.7 2.7 7.1-7zm6.3 12.8h7.6V78h-7.6z"/></svg>