<svg id="Layer_1" xmlns="http://www.w3.org/2000/svg" viewBox="0 0 72 96"><style>.st0{fill:#fff}.st2{fill:#bababa}</style><path class="st0" d="M0 2v92c0 1.1.9 2 2 2h68c1.1 0 2-.9 2-2V28H50c-1.1 0-2-.9-2-2V0H2C.9 0 0 .9 0 2z"/><path class="st0" d="M71.9 24c-.1-.4-.2-.7-.4-1L52 1.2V24h19.9z"/><path d="M12.8 70.2c1 0 2.1.4 2.9 1.2l-1.1 2.8c-.3-.5-1-.9-1.7-.9-1.7 0-2.6 1.9-2.6 4.2 0 2.3.9 4.4 2.5 4.4.8 0 1.3-.5 1.8-1l1.1 2.8c-.7.7-1.6 1.3-3.2 1.3-3.2 0-5-3.1-5-7.4.1-4.4 2-7.4 5.3-7.4zm7.9 0c3 0 4.7 3.1 4.7 7.3 0 4.2-1.7 7.5-4.7 7.5S16 81.7 16 77.5s1.7-7.3 4.7-7.3zm0 11.6c1.4 0 2-1.8 2-4.3s-.6-4.2-2-4.2-2 1.7-2 4.2.6 4.3 2 4.3zm6.4-11.4H30l1.1 6c.2.9.3 2.4.3 2.4s.2-1.5.3-2.4l1.1-6h2.9l.7 14.3H34l-.3-6.4c-.1-1.1 0-2.4 0-2.4h-.1s-.2 1.5-.4 2.4l-.7 4.1H30l-.7-4.1c-.2-.9-.4-2.4-.4-2.4h.1s.1 1.3 0 2.4l-.3 6.4h-2.4l.8-14.3zm10.8 0h3.6c2.1 0 3.5 2 3.5 4.9s-1.4 5-3.5 5h-1v4.4h-2.6V70.4zm3.1 7c.8 0 1.3-.9 1.3-2.1s-.5-2-1.2-2h-.5v4.1h.4zm5.1-7h2.6v14.3h-2.6V70.4zm4.4 0h2.6v11.4h3.4v2.9h-6.1l.1-14.3zm7 0h5.7v2.9h-3.1V76h2.5v2.9h-2.5v2.9h3.3v2.9h-5.9V70.4z" fill="#666"/><path class="st2" d="M0 94V2C0 .9.9 0 2 0h48c.6 0 1.1.2 1.5.7l20 22.3c.3.4.5.8.5 1.3V94c0 1.1-.9 2-2 2H2c-1.1 0-2-.9-2-2zm68-68.9L49.1 4H4v88h64V25.1z"/><path class="st2" d="M48 26V4c0-1.1.9-2 2-2s2 .9 2 2v20h16c1.1 0 2 .9 2 2s-.9 2-2 2H50c-1.1 0-2-.9-2-2zm4 27.4H15m37.5 4.5V35.2H57v27.3H16V35.2h4.5v22.7h32zM25.3 23.7h22.3L36.4 34.9c-3.6-3.6-7.4-7.4-11.1-11.2z"/><path class="st2" d="M29.7 44.2v-4.5h4.5v4.5h-4.5zm13.6 0h-4.5v-4.5h4.5v4.5zm-18.2 4.6h4.5v4.5h-4.5v-4.5zm18.3 4.5v-4.5h4.5v4.5h-4.5zm-4.7-4.5v4.5h-4.5v-4.5h4.5z"/></svg>