<svg xmlns="http://www.w3.org/2000/svg" viewBox="0 0 72 96"><style>.st0{fill:#3c3}</style><path class="st0" d="M0 2v92c0 1.1.9 2 2 2h68c1.1 0 2-.9 2-2V28H50c-1.1 0-2-.9-2-2V0H2C.9 0 0 .9 0 2z"/><path class="st0" d="M71.9 24c-.1-.4-.2-.7-.4-1L52 1.2V24h19.9z"/><path d="M6 41h60v49H6zm6.5-34.9c1.3 0 2.6.4 3.6 1.2l-1.4 2.8c-.4-.5-1.3-.9-2.1-.9-2.1 0-3.2 1.9-3.2 4.2 0 2.3 1.2 4.4 3.2 4.4 1 0 1.7-.5 2.3-1l1.4 2.8c-.9.7-2 1.3-3.9 1.3-4 0-6.3-3.1-6.3-7.4-.1-4.2 2.3-7.4 6.4-7.4zm6.5.3h4.5c.6 0 1.3.1 1.9.4 1.4.6 2.4 2.1 2.4 4 0 1.7-.8 3.3-2 4 0 0 .2.2.5.9l2.3 5H25l-2-4.8h-.8v4.8H19V6.4zm3.9 6.6c.9 0 1.6-.7 1.6-1.9 0-.7-.2-1.2-.6-1.5-.3-.2-.6-.3-.9-.3h-.7V13h.6zm8.1 6.1c0-5 4.5-5.5 4.5-8.4 0-1-.5-1.4-1.2-1.4-.6 0-1.1.3-1.4.8l-2.2-1.8c.8-1.1 2.3-2.1 4.1-2.1 2.1 0 4.2 1.3 4.2 4.2 0 4.1-4.2 5.4-4.4 7.5h4.6v2.9h-7.9c-.3-.7-.3-1.1-.3-1.7z" fill="#fff"/><path class="st0" d="M14 48.5v33.9h44V48.5H14zM55.5 51v14.8l-10.5-8-11.5 11.5-8.1-4.5-8.8 7V51h38.9z"/><circle class="st0" cx="23" cy="57.6" r="3.1"/></svg>