<svg id="Layer_1" xmlns="http://www.w3.org/2000/svg" viewBox="0 0 72 96"><style>.st0{fill:#999}</style><path class="st0" d="M0 2v92c0 1.1.9 2 2 2h68c1.1 0 2-.9 2-2V28H50c-1.1 0-2-.9-2-2V0H2C.9 0 0 .9 0 2z"/><path class="st0" d="M71.9 24c-.1-.4-.2-.7-.4-1L52 1.2V24h19.9z"/><path d="M6 41h60v49H6V41zm5.4-34.7c1 0 2.2.4 2.9 1.2l-.9 2.1c-.4-.5-1.3-1-2-1-2.1 0-3.2 2.2-3.2 4.9 0 2.8 1.2 5.2 3.2 5.2.9 0 1.6-.5 2.2-1l.9 2.1c-.8.7-1.8 1.3-3.2 1.3-3.3 0-5.2-3.2-5.2-7.4 0-4.4 1.9-7.4 5.3-7.4zm4.7 11.2c.5.7 1.3 1.2 2.1 1.2.9 0 1.5-.7 1.5-1.8 0-2.6-4.2-2.5-4.2-6.6 0-2.3 1.3-4 3.6-4 .9 0 1.9.3 2.7.9l-.7 2.2c-.4-.4-1.3-.8-1.9-.8-1 0-1.5.8-1.5 1.7 0 2.6 4.3 2.4 4.3 6.5 0 2.2-1.2 4.1-3.5 4.1-1.1 0-2.3-.5-3.1-1.4l.7-2zM27.7 6.3c3 0 4.9 3 4.9 7.3S30.7 21 27.7 21s-4.9-3.1-4.9-7.4c.1-4.3 1.9-7.3 4.9-7.3zm0 12.3c1.7 0 2.7-2 2.7-5.1 0-3-1-4.9-2.7-4.9S25 10.5 25 13.5c0 3.1 1 5.1 2.7 5.1zm6.5-12.1h2.2l3.1 8c.3.9.6 2.2.6 2.2h.1s-.1-1.3-.1-2.2v-8H42v14.2h-2.2l-3.1-8.1c-.3-.9-.6-2.2-.6-2.2H36s.1 1.3.1 2.2v8h-2V6.5h.1z" fill="#fff"/><path class="st0" d="M14 48.9h37v4.3H14v-4.3zm7 9.6h37v4.3H21v-4.3zm-7 9.6h37v4.3H14v-4.3zm7 9.6h37V82H21v-4.3z"/></svg>