<svg xmlns="http://www.w3.org/2000/svg" viewBox="0 0 72 96"><style>.st0{fill:#4d1b9b}</style><path class="st0" d="M0 2v92c0 1.1.9 2 2 2h68c1.1 0 2-.9 2-2V28H50c-1.1 0-2-.9-2-2V0H2C.9 0 0 .9 0 2z"/><path class="st0" d="M71.9 24c-.1-.4-.2-.7-.4-1L52 1.2V24h19.9z"/><path d="M6 41h60v49H6zm.6-34.6h4.2c3.7 0 5.9 2.6 5.9 7.1s-2.2 7.2-5.9 7.2H6.6V6.4zm4.1 11.4c1.7 0 2.6-1.5 2.6-4.3s-1-4.2-2.6-4.2h-.8v8.5h.8zm9.1-11.4H27v2.9h-3.9V12h3.1v2.9h-3.1v2.9h4.1v2.9h-7.4V6.4zm10.5 0h4.2c2.5 0 4.2 1.3 4.2 3.7 0 1.2-.5 2.4-1.7 3 1.6.5 2.1 1.9 2.1 3.2 0 3.1-2 4.3-4.4 4.3h-4.4V6.4zm4.2 5.6c.6 0 .9-.6.9-1.4s-.3-1.3-1-1.3h-.8V12h.9zm.2 5.8c.8 0 1.2-.7 1.2-1.6 0-.9-.3-1.5-1.1-1.5h-1.2v3.1h1.1z" fill="#fff"/><path class="st0" d="M43.6 68.3l-7.3-3.4L51 58l7.3 3.4-7.3 3.5-7.4 3.4zM51 51.2l-7.3-3.4-7.3 3.4L51 58.1l7.3-3.4-7.3-3.5zM28.9 61.4L21.6 58l-7.3 3.4L29 68.3l7.3-3.4-7.4-3.5zm0-6.8l7.3-3.4-7.3-3.4-14.7 6.9 7.3 3.4 7.4-3.5zM51 66.9l-6.6 3-.8.4-.8-.4-6.6-3-6.6 3-.8.4-.8-.4-6.6-3v10.7l14.7 7.7L51 77.6V66.9z"/></svg>