<svg id="Layer_1" xmlns="http://www.w3.org/2000/svg" viewBox="0 0 72 96"><style>.st0{fill:#666}</style><path class="st0" d="M0 2v92c0 1.1.9 2 2 2h68c1.1 0 2-.9 2-2V28H50c-1.1 0-2-.9-2-2V0H2C.9 0 0 .9 0 2z"/><path class="st0" d="M71.9 24c-.1-.4-.2-.7-.4-1L52 1.2V24h19.9z"/><path d="M6 41h60v49H6zm.6-34.6h4.2c3.7 0 5.9 2.6 5.9 7.1s-2.2 7.2-5.9 7.2H6.6V6.4zm4.1 11.4c1.7 0 2.6-1.5 2.6-4.3s-1-4.2-2.6-4.2h-.8v8.5h.8zm9.1-11.4h3.3v11.4h4.3v2.9h-7.6V6.4zm10.4 0h3.3v11.4h4.3v2.9h-7.6V6.4z" fill="#fff"/><path class="st0" d="M54.2 1083.7l-17.1 2.3v13.5h17.1v-15.8zm-20.1 2.6l-17.1 2.3v10.9h17.1v-13.2zm-17 16.3v10.9l17.1 2.3v-13.1l-17.1-.1zm20 0v13.5l17.1 2.3v-15.8H37.1z" transform="translate(0 -1036.362)"/></svg>