<svg xmlns="http://www.w3.org/2000/svg" viewBox="0 0 72 96"><style>.st0{fill:#4d1b9b}</style><path class="st0" d="M0 2v92c0 1.1.9 2 2 2h68c1.1 0 2-.9 2-2V28H50c-1.1 0-2-.9-2-2V0H2C.9 0 0 .9 0 2z"/><path class="st0" d="M71.9 24c-.1-.4-.2-.7-.4-1L52 1.2V24h19.9z"/><path d="M6 41h60v49H6V41zm.6-34.6h4.2c3.7 0 5.9 2.6 5.9 7.1s-2.2 7.2-5.9 7.2H6.6V6.4zm4.1 11.4c1.7 0 2.6-1.5 2.6-4.3s-1-4.2-2.6-4.2h-.8v8.5h.8zm8.1-11.4h3.6l1.3 6c.2.9.4 2.4.4 2.4h.1s.2-1.5.4-2.4l1.3-6h3.6l.9 14.3h-3l-.4-6.4c-.1-1.1 0-2.4 0-2.4h-.1s-.2 1.5-.4 2.4l-.9 4.1h-3.2l-.9-4.1c-.2-.9-.4-2.4-.4-2.4H21s.1 1.3 0 2.4l-.4 6.4h-3l1.2-14.3zm19.3-.3c1.4 0 2.9.4 3.9 1.3l-1.4 2.8c-.6-.6-1.4-.9-2.3-.9-2.2 0-3.2 1.9-3.2 4.2 0 2.6 1.2 4.3 2.9 4.3.6 0 1.3-.2 1.7-.6v-1.7h-1.5v-2.9h4.3v8.1h-2.6v-.9c-.5.7-1.6 1.2-2.7 1.2-2.8 0-5.6-2.7-5.6-7.3.2-4.5 2.7-7.6 6.5-7.6z" fill="#fff"/><path class="st0" d="M50.9 70.8c1.4 0 2.6.6 3.5 1.4l-3-21.8c-.2-1.8-1.8-3-3.5-3H25.1c-1.8 0-3.3 1.2-3.6 3l-3 21.8c1-.8 2.2-1.4 3.6-1.4h28.8zm0 1.7H22.1c-2 0-3.6 1.6-3.6 3.6v3.6c0 2 1.6 3.6 3.6 3.6h28.8c2 0 3.6-1.6 3.6-3.6v-3.6c0-2-1.6-3.6-3.6-3.6zm-3.1 6.9h-2.2c-.6 0-1.1-.5-1.1-1.1 0-.6.5-1.1 1.1-1.1h2.2c.6 0 1.1.5 1.1 1.1 0 .6-.5 1.1-1.1 1.1zm2.9 0c-.6 0-1.1-.5-1.1-1.1 0-.6.5-1.1 1.1-1.1s1.1.5 1.1 1.1c.1.6-.4 1.1-1.1 1.1z"/></svg>