<svg id="Layer_1" xmlns="http://www.w3.org/2000/svg" viewBox="0 0 72 96"><style>.st0{fill:#fff}.st1{fill:#b4bdcc}</style><path class="st0" d="M71.9 24c-.1-.4-.2-.7-.4-1L52 1.2V24h19.9z"/><path class="st0" d="M0 2v92c0 1.1.9 2 2 2h68c1.1 0 2-.9 2-2V28H50c-1.1 0-2-.9-2-2V0H2C.9 0 0 .9 0 2z"/><path class="st1" d="M0 94V2C0 .9.9 0 2 0h48c.6 0 1.1.2 1.5.7l20 22.3c.3.4.5.8.5 1.3V94c0 1.1-.9 2-2 2H2c-1.1 0-2-.9-2-2zm68-68.9L49.1 4H4v88h64V25.1z"/><path class="st1" d="M48 26V4c0-1.1.9-2 2-2s2 .9 2 2v20h16c1.1 0 2 .9 2 2s-.9 2-2 2H50c-1.1 0-2-.9-2-2z"/><path d="M55.4 32.3H16.6c-1.5 0-2.6 1.2-2.6 2.6v26.9c0 1.5 1.2 2.6 2.6 2.6h38.7c1.5 0 2.6-1.2 2.6-2.6V35c.2-1.5-1-2.7-2.5-2.7z" fill="#ced2d8"/><path d="M16.6 38.8h38.8v23H16.6v-23z" fill="#f2f2f2"/><circle cx="23.7" cy="35.8" r=".9" fill="#54b845"/><circle cx="20.6" cy="35.8" r=".9" fill="#fbd303"/><circle cx="17.7" cy="35.8" r=".9" fill="#f0582f"/><path d="M49.2 56l-2.6-.7c-.2-1.1-.7-2.1-1.2-3l1.3-2.2c.2-.2.1-.6-.1-.8l-1.9-1.9c-.2-.2-.5-.2-.8-.1l-2.2 1.3c-.9-.5-1.9-1-3-1.2l-.7-2.5c-.1-.3-.3-.5-.6-.5h-2.6c-.3 0-.5.2-.6.5l-.8 2.5c-1.1.2-2.1.7-3 1.2l-2.3-1.2c-.2-.2-.6-.1-.8.1l-1.9 1.9c-.2.2-.2.5-.1.8l1.3 2.2c-.5.9-1 1.9-1.2 3l-2.5.6c-.3.1-.5.3-.5.6v2.6c0 .3.2.5.5.6l2.6.7c.2 1.1.7 2.1 1.2 3l-1.3 2.3c-.2.2-.1.6.1.8l1.9 1.9c.2.2.5.2.8.1l2.2-1.3c.9.5 1.9 1 3 1.2l.7 2.6c.1.3.3.5.6.5h2.6c.3 0 .5-.2.6-.5l.7-2.6c1.1-.2 2.1-.7 3-1.2l2.2 1.3c.2.2.6.1.8-.1l1.9-1.9c.2-.2.2-.5.1-.8l-1.3-2.2c.5-.9 1-1.9 1.2-3L49 60c.3-.1.5-.3.5-.6v-2.7c.1-.3 0-.5-.3-.7zM36 62.9c-2.7 0-4.9-2.2-4.9-4.9s2.2-4.9 4.9-4.9 4.9 2.2 4.9 4.9-2.2 4.9-4.9 4.9z" fill="#6eb1e1"/></svg>