<svg id="Layer_1" xmlns="http://www.w3.org/2000/svg" viewBox="0 0 72 96"><style>.st0{fill:#999}</style><path class="st0" d="M0 2v92c0 1.1.9 2 2 2h68c1.1 0 2-.9 2-2V28H50c-1.1 0-2-.9-2-2V0H2C.9 0 0 .9 0 2z"/><path class="st0" d="M71.9 24c-.1-.4-.2-.7-.4-1L52 1.2V24h19.9z"/><path d="M6 41h60v49H6zm.6-34.6h4.2c3.7 0 5.9 2.6 5.9 7.1s-2.2 7.2-5.9 7.2H6.6V6.4zm4.1 11.4c1.7 0 2.6-1.5 2.6-4.3s-1-4.2-2.6-4.2h-.8v8.5h.8zm9.8-1.1c.6.6 1.4 1.2 2.3 1.2.9 0 1.3-.6 1.3-1.2 0-2-4.8-2.1-4.8-6.2 0-2.4 1.7-4.3 4.5-4.3 1.2 0 2.4.3 3.4 1L26 10.1c-.5-.4-1.4-.9-2.2-.9-.9 0-1.3.6-1.3 1.2 0 2.1 4.8 2 4.8 6.1 0 2.3-1.5 4.4-4.4 4.4-1.4 0-2.9-.5-4-1.4l1.6-2.8zm10-10.3H34l2.4 6.6c.4 1 .7 2.4.7 2.4h.1S37 13.9 37 13V6.4h3.1v14.3h-3.4l-2.5-6.6c-.4-1-.7-2.4-.7-2.4h-.1s.2 1.5.2 2.4v6.6h-3.1V6.4z" fill="#fff"/><path class="st0" d="M24.7 63L41 60.3l-.6-2.6-16.3 2.7.6 2.6zm2.5 11.1l.6 2.8 6.6-1.3v-2.8l-7.2 1.3zm-.9-4.2l8.1-1.5v-2.2c0-.2 0-.4.1-.6l-8.8 1.6.6 2.7zm8.1 10l-8.2 1.7L20.8 57 42 53.6l1.7 7.5c.4 0 .8 0 1.1-.1l-3.2-14.1-23.5 3.4 7.2 32.9 9.2-1.9v-.1l-.1-1.3zm10.9-4.3c-5.1 0-9.3-1.7-9.3-3.7v3.7c0 2.1 4.2 3.7 9.3 3.7 5.1 0 9.3-1.7 9.3-3.7v-3.7c0 2-4.2 3.7-9.3 3.7zm0 5.5c-5.1 0-9.3-1.7-9.3-3.7v3.7c0 2.1 4.2 3.7 9.3 3.7 5.1 0 9.3-1.7 9.3-3.7v-3.7c0 2.1-4.2 3.7-9.3 3.7zm0-18.6c-5.1 0-9.3 1.7-9.3 3.7V70c0 2.1 4.2 3.7 9.3 3.7 5.1 0 9.3-1.7 9.3-3.7v-3.7c0-2.1-4.2-3.8-9.3-3.8z"/><path class="st0" d="M45.3 69.1c-5.1 0-8.4-1.7-8.4-2.8 0-1.1 3.3-2.8 8.4-2.8 5.1 0 8.4 1.7 8.4 2.8 0 1.1-3.3 2.8-8.4 2.8z"/></svg>