<svg id="Layer_1" xmlns="http://www.w3.org/2000/svg" viewBox="0 0 72 96"><style>.st0{fill:#fff}.st1{fill:#bababa}</style><path class="st0" d="M0 2v92c0 1.1.9 2 2 2h68c1.1 0 2-.9 2-2V28H50c-1.1 0-2-.9-2-2V0H2C.9 0 0 .9 0 2z"/><path class="st1" d="M42.3 44.7c0-2.5-1.5-4.5-3.7-5.4V32c0-1.2-.9-2.1-2.1-2.1s-2.1.9-2.1 2.1v7.3c-2.2.8-3.7 2.9-3.7 5.4s1.5 4.6 3.7 5.4c0 .1-.1.3-.1.4v18.4c0 1.2.9 2.1 2.1 2.1s2.1-.9 2.1-2.1V50.5c0-.2 0-.3-.1-.4 2.4-.8 3.9-2.9 3.9-5.4zm-5.8 1.6c-.9 0-1.6-.7-1.6-1.6s.7-1.6 1.6-1.6 1.6.7 1.6 1.6-.7 1.6-1.6 1.6zm16.8-14.2c0-1.2-.9-2.1-2.1-2.1s-2.1.9-2.1 2.1v17.2c-2.2.8-3.7 2.9-3.7 5.4s1.5 4.6 3.7 5.4c0 .1-.1.3-.1.4v8.4c0 1.2.9 2.1 2.1 2.1s2.1-.9 2.1-2.1v-8.4c0-.2 0-.3-.1-.4 2.2-.8 3.7-2.9 3.7-5.4s-1.5-4.5-3.7-5.4V32.1h.2zm-2.1 24.2c-.9 0-1.6-.7-1.6-1.6s.7-1.6 1.6-1.6 1.6.7 1.6 1.6-.7 1.6-1.6 1.6zM19.7 68.9c0 1.2.9 2.1 2.1 2.1s2.1-.9 2.1-2.1v-8.4c0-.2 0-.3-.1-.4 2.2-.8 3.7-2.9 3.7-5.4s-1.5-4.5-3.7-5.4V32.1c0-1.2-.9-2.1-2.1-2.1s-2.1.9-2.1 2.1v17.2c-2.2.8-3.7 2.9-3.7 5.4s1.5 4.6 3.7 5.4c0 .1-.1.3-.1.4v8.4h.2zm2.1-15.8c.9 0 1.6.7 1.6 1.6s-.7 1.6-1.6 1.6-1.6-.7-1.6-1.6.7-1.6 1.6-1.6z"/><path class="st0" d="M71.9 24c-.1-.4-.2-.7-.4-1L52 1.2V24h19.9z"/><path class="st1" d="M0 94V2C0 .9.9 0 2 0h48c.6 0 1.1.2 1.5.7l20 22.3c.3.4.5.8.5 1.3V94c0 1.1-.9 2-2 2H2c-1.1 0-2-.9-2-2zm68-68.9L49.1 4H4v88h64V25.1z"/><path class="st1" d="M48 26V4c0-1.1.9-2 2-2s2 .9 2 2v20h16c1.1 0 2 .9 2 2s-.9 2-2 2H50c-1.1 0-2-.9-2-2z"/></svg>