<svg id="Layer_1" xmlns="http://www.w3.org/2000/svg" viewBox="0 0 72 96"><style>.st0{fill:#36454d}</style><path class="st0" d="M0 2v92c0 1.1.9 2 2 2h68c1.1 0 2-.9 2-2V28H50c-1.1 0-2-.9-2-2V0H2C.9 0 0 .9 0 2z"/><path class="st0" d="M71.9 24c-.1-.4-.2-.7-.4-1L52 1.2V24h19.9z"/><path d="M6 41h60v49H6zm.6-34.6h7.2v2.9H9.9V12H13v2.9H9.9v2.9H14v2.9H6.6V6.4zm15.5-.3c3.8 0 5.9 3.1 5.9 7.3 0 4.2-2.1 7.5-5.9 7.5s-5.8-3.2-5.8-7.5c0-4.1 2.1-7.3 5.8-7.3zm0 11.7c1.7 0 2.5-1.8 2.5-4.3s-.8-4.2-2.5-4.2-2.5 1.7-2.5 4.2c.1 2.5.8 4.3 2.5 4.3zm10.6-8.5h-3.1V6.4h9.6v2.9H36v11.4h-3.3V9.3z" fill="#fff"/><path d="M28.1 68.3h-8.9l-1.1 2.4c-.3.8-.5 1.4-.5 2 0 .7.3 1.2.9 1.5.3.2 1.2.3 2.5.4v.7h-8.4v-.7c.9-.1 1.6-.5 2.2-1.1.6-.6 1.3-1.8 2.1-3.7l9-19.4h.4l9.1 19.9c.9 1.9 1.6 3.1 2.1 3.6.4.4 1 .6 1.8.6v.7H27.2v-.7h.5c1 0 1.7-.1 2.1-.4.3-.2.4-.5.4-.8 0-.2 0-.4-.1-.7 0-.1-.2-.6-.6-1.3l-1.4-3zm-.6-1.3l-3.7-8.4-3.9 8.4h7.6z" fill="#7291a1"/><path class="st0" d="M58.2 59.2l-3.6 11.9-.4 1.5c0 .2-.1.3-.1.4 0 .1.1.3.2.4.1.1.2.2.3.2.3 0 .6-.2 1.1-.6.2-.2.6-.7 1.3-1.6l.6.3c-.9 1.6-1.8 2.7-2.8 3.4-1 .7-2.1 1.1-3.2 1.1-.7 0-1.2-.2-1.6-.5-.4-.4-.6-.8-.6-1.3s.2-1.3.6-2.6l.4-1.5c-1.4 2.4-2.8 4.1-4.1 5.1-.8.6-1.6.9-2.4.9-1.1 0-2-.5-2.5-1.4s-.8-1.9-.8-3.1c0-1.7.5-3.6 1.6-5.8 1.1-2.2 2.5-3.9 4.2-5.3 1.4-1.1 2.8-1.6 4-1.6.7 0 1.2.2 1.7.6.4.4.7 1.1.9 2.1l.7-2.2 4.5-.4zm-5.9 3.5c0-1-.2-1.7-.5-2.1-.2-.3-.5-.4-.9-.4s-.8.2-1.2.5c-.8.7-1.7 2.2-2.7 4.5-1 2.3-1.4 4.2-1.4 5.9 0 .6.1 1.1.3 1.4.2.3.5.4.7.4.6 0 1.1-.3 1.7-.9.8-.9 1.6-2 2.2-3.2 1.2-2.4 1.8-4.4 1.8-6.1z"/></svg>