<svg xmlns="http://www.w3.org/2000/svg" viewBox="0 0 72 96"><style>.st0{fill:#fea500}</style><path class="st0" d="M0 2v92c0 1.1.9 2 2 2h68c1.1 0 2-.9 2-2V28H50c-1.1 0-2-.9-2-2V0H2C.9 0 0 .9 0 2z"/><path class="st0" d="M71.9 24c-.1-.4-.2-.7-.4-1L52 1.2V24h19.9z"/><path d="M6 41h60v49H6V41zm.6-34.6h7.1v2.9H9.9v3.1H13v2.9H9.9v5.4H6.6V6.4zm11.4 0h3.6l3.6 14.3h-3.3l-.6-3h-3l-.6 3h-3.3L18 6.4zm2.8 8.6l-.6-2.8c-.2-.9-.4-2.5-.4-2.5h-.1s-.2 1.5-.4 2.5l-.6 2.8h2.1zm8.7-1.4L26 6.4h3.6l1.1 2.9.6 1.8s.2-.9.6-1.8l1.2-2.9h3.6l-3.4 7.2 3.3 7.1h-3.5l-1.1-3c-.4-.9-.6-1.7-.6-1.7s-.2.8-.6 1.7l-1.1 3h-3.5l3.3-7.1z" fill="#fff"/><path class="st0" d="M30.9 60.7V50.2c0-1.1.9-1.9 1.9-1.9h11.9l6.1 6.1v6.2c0 .2-.2.4-.4.4h-2.1c-.2 0-.4-.2-.4-.4v-4.2H44c-.8 0-1.4-.6-1.4-1.4v-3.8h-8.8v9.4c0 .2-.2.4-.4.4h-2.1c-.2.1-.4-.1-.4-.3zm0 22.6V64.7c0-.4.3-.7.7-.7h20.6c.4 0 .7.3.7.7v15.6c0 2-1.7 3.7-3.7 3.7H31.7c-.5 0-.8-.3-.8-.7zm14.5-14.4c0 .9.7 1.5 1.5 1.5s1.5-.7 1.5-1.5c0-.9-.7-1.5-1.5-1.5-.8-.1-1.5.6-1.5 1.5zm0 5.1c0 .9.7 1.5 1.5 1.5.9 0 1.5-.7 1.5-1.5s-.7-1.5-1.5-1.6c-.8 0-1.5.7-1.5 1.6zm-5.1-5.1c0 .8.7 1.5 1.5 1.5s1.5-.7 1.5-1.5-.7-1.5-1.5-1.5c-.8-.1-1.5.6-1.5 1.5zm0 5.1c0 .8.7 1.5 1.5 1.5.9 0 1.5-.7 1.5-1.5 0-.9-.7-1.5-1.5-1.6-.8 0-1.5.7-1.5 1.6zm0 5.1c0 .8.7 1.5 1.5 1.5.9 0 1.5-.7 1.5-1.5s-.7-1.5-1.5-1.5-1.5.7-1.5 1.5zm-5.1-10.2c0 .9.7 1.5 1.5 1.5s1.5-.7 1.5-1.5c0-.9-.7-1.5-1.5-1.5-.9-.1-1.5.6-1.5 1.5zm0 5.1c0 .9.7 1.5 1.5 1.5.9 0 1.5-.7 1.5-1.5 0-.9-.7-1.5-1.5-1.6-.8 0-1.5.7-1.5 1.6zm0 5.1c0 .8.7 1.5 1.5 1.5.9 0 1.5-.7 1.5-1.5s-.7-1.5-1.5-1.5c-.9 0-1.5.7-1.5 1.5zM22.3 84h4.9c.4 0 .7-.3.7-.7V60c0-.4-.3-.7-.7-.7h-3.9c-2.6 0-4.7 2.1-4.7 4.7v16.4c0 1.9 1.6 3.6 3.7 3.6z"/></svg>