<svg id="Layer_1" xmlns="http://www.w3.org/2000/svg" viewBox="0 0 72 96"><style>.st0{fill:#d10407}</style><path class="st0" d="M0 2v92c0 1.1.9 2 2 2h68c1.1 0 2-.9 2-2V28H50c-1.1 0-2-.9-2-2V0H2C.9 0 0 .9 0 2z"/><path class="st0" d="M71.9 24c-.1-.4-.2-.7-.4-1L52 1.2V24h19.9z"/><path d="M6 41h60v49H6zm.6-34.6h7.1v2.9H9.9v3.1H13v2.9H9.9v5.4H6.6V6.4zm10.1 0H20v11.4h4.3v2.9h-7.6V6.4zm12.7 0H33l3.6 14.3h-3.3l-.6-3h-3l-.6 3h-3.3l3.6-14.3zm2.8 8.6l-.6-2.8c-.2-.9-.4-2.5-.4-2.5h-.1s-.2 1.5-.4 2.5l-.5 2.8h2z" fill="#fff"/><path d="M28.2 54v10.1h8.5v2.6h-8.5v13.7h-3.9v-29h13.3V54h-9.4zm14.4 26.3V51.6h3.7v28.7h-3.7z" fill="#d10407" stroke="#d10407" stroke-width="1.25" stroke-miterlimit="10"/></svg>