<svg id="Layer_1" xmlns="http://www.w3.org/2000/svg" viewBox="0 0 72 96"><style>.st0{fill:#36454d}</style><path class="st0" d="M0 2v92c0 1.1.9 2 2 2h68c1.1 0 2-.9 2-2V28H50c-1.1 0-2-.9-2-2V0H2C.9 0 0 .9 0 2z"/><path class="st0" d="M71.9 24c-.1-.4-.2-.7-.4-1L52 1.2V24h19.9z"/><path d="M6 41h60v49H6zm.6-34.6h7.1v2.9H9.9v3.1H13v2.9H9.9v5.4H6.6V6.4zm10.1 0h3.5l2.4 6.6c.4 1 .7 2.4.7 2.4h.1s-.2-1.5-.2-2.4V6.4h3.1v14.3h-3.4l-2.5-6.6c-.4-1-.7-2.4-.7-2.4h-.1s.2 1.5.2 2.4v6.6h-3.1V6.4zm15.5 2.9H29V6.4h9.6v2.9h-3.2v11.4h-3.3V9.3h.1z" fill="#fff"/><path d="M28.1 68.3h-8.9l-1.1 2.4c-.3.8-.5 1.4-.5 2 0 .7.3 1.2.9 1.5.3.2 1.2.3 2.5.4v.7h-8.4v-.7c.9-.1 1.6-.5 2.2-1.1s1.3-1.8 2.1-3.7l9-19.4h.4l9.1 19.9c.9 1.9 1.6 3.1 2.1 3.6.4.4 1 .6 1.8.6v.7H27.2v-.7h.5c1 0 1.7-.1 2.1-.4.3-.2.4-.5.4-.8 0-.2 0-.4-.1-.7 0-.1-.2-.6-.6-1.3l-1.4-3zm-.6-1.3l-3.7-8.4-3.9 8.4h7.6z" fill="#7291a1"/><path class="st0" d="M58.2 59.2l-3.6 11.9-.4 1.5c0 .2-.1.3-.1.4 0 .1.1.3.2.4s.2.2.3.2c.3 0 .6-.2 1.1-.6.2-.2.6-.7 1.3-1.6l.6.3c-.9 1.6-1.8 2.7-2.8 3.4s-2.1 1.1-3.2 1.1c-.7 0-1.2-.2-1.6-.5-.4-.4-.6-.8-.6-1.3s.2-1.3.6-2.6l.4-1.5c-1.4 2.4-2.8 4.1-4.1 5.1-.8.6-1.6.9-2.4.9-1.1 0-2-.5-2.5-1.4-.5-.9-.8-1.9-.8-3.1 0-1.7.5-3.6 1.6-5.8 1.1-2.2 2.5-3.9 4.2-5.3 1.4-1.1 2.8-1.6 4-1.6.7 0 1.2.2 1.7.6.4.4.7 1.1.9 2.1l.7-2.2 4.5-.4zm-5.9 3.5c0-1-.2-1.7-.5-2.1-.2-.3-.5-.4-.9-.4s-.8.2-1.2.5c-.8.7-1.7 2.2-2.7 4.5-1 2.3-1.4 4.2-1.4 5.9 0 .6.1 1.1.3 1.4.2.3.5.4.7.4.6 0 1.1-.3 1.7-.9.8-.9 1.6-2 2.2-3.2 1.2-2.4 1.8-4.4 1.8-6.1z"/></svg>