<svg id="Layer_1" xmlns="http://www.w3.org/2000/svg" viewBox="0 0 72 96"><style>.st0{fill:#999}</style><path class="st0" d="M0 2v92c0 1.1.9 2 2 2h68c1.1 0 2-.9 2-2V28H50c-1.1 0-2-.9-2-2V0H2C.9 0 0 .9 0 2z"/><path class="st0" d="M71.9 24c-.1-.4-.2-.7-.4-1L52 1.2V24h19.9z"/><path d="M6 41h60v49H6zm6.4-34.9c1.4 0 2.9.4 3.9 1.3l-1.4 2.8c-.6-.6-1.4-.9-2.3-.9-2.2 0-3.2 1.9-3.2 4.2 0 2.6 1.2 4.3 2.9 4.3.6 0 1.3-.2 1.7-.6v-1.7h-1.5v-2.9h4.3v8.1h-2.6v-.9c-.5.7-1.6 1.2-2.7 1.2-2.8 0-5.6-2.7-5.6-7.3.1-4.5 2.6-7.6 6.5-7.6zm7.8.3h4.2c3.7 0 5.9 2.6 5.9 7.1s-2.2 7.2-5.9 7.2h-4.2V6.4zm4.1 11.4c1.7 0 2.6-1.5 2.6-4.3s-1-4.2-2.6-4.2h-.8v8.5h.8zm9.1-11.4h4.5c2.6 0 4.4 2 4.4 4.9 0 2.9-1.7 5-4.4 5h-1.2v4.4h-3.3V6.4zm3.9 7c1 0 1.6-.9 1.6-2.1s-.7-2-1.6-2h-.7v4.1h.7z" fill="#fff"/><path class="st0" d="M41.9 79.8H22.7c-2.1 0-3.8-1.7-3.8-3.8s1.7-3.8 3.8-3.8h7.5c3.4 0 6.2-2.8 6.2-6.2 0-3.4-2.8-6.2-6.2-6.2h-4.1c.1.4.1.8.1 1.2s0 .8-.1 1.2h4.1c2.1 0 3.8 1.7 3.8 3.8 0 2.1-1.7 3.8-3.8 3.8h-7.5c-3.4 0-6.2 2.8-6.2 6.2s2.8 6.2 6.2 6.2H42c-.1-.4-.1-.8-.1-1.2v-1.2zm5.9-2.5c-2 0-3.7 1.6-3.7 3.7s1.6 3.7 3.7 3.7 3.7-1.6 3.7-3.7-1.6-3.7-3.7-3.7zm-20.1-30h-7.5c-.6 0-1.2.5-1.2 1.2v9c-1.5.5-2.5 1.9-2.5 3.5 0 2 1.6 3.7 3.7 3.7s3.7-1.6 3.7-3.7c0-1.6-1-3-2.5-3.5v-2.8h6.3c.6 0 1.2-.5 1.2-1.2v-5c-.1-.6-.6-1.2-1.2-1.2zm20.1 2.5c-4.8 0-8.7 3.9-8.7 8.7 0 2.6 1.1 5 3.1 6.6l4.5 8.9c.4.9 1.7.9 2.1 0l4.5-8.9c2-1.7 3.1-4.1 3.1-6.6.1-4.8-3.8-8.7-8.6-8.7zm0 12.4c-2 0-3.7-1.6-3.7-3.7s1.6-3.7 3.7-3.7 3.7 1.6 3.7 3.7-1.6 3.7-3.7 3.7z"/></svg>