<svg id="Layer_1" xmlns="http://www.w3.org/2000/svg" viewBox="0 0 72 96"><style>.st0{fill:#fff}.st2{fill:#02303a}</style><path class="st0" d="M0 2v92c0 1.1.9 2 2 2h68c1.1 0 2-.9 2-2V28H50c-1.1 0-2-.9-2-2V0H2C.9 0 0 .9 0 2z"/><path class="st0" d="M71.9 24c-.1-.4-.2-.7-.4-1L52 1.2V24h19.9z"/><path d="M12.8 73.1c1.1 0 2.3.4 3.2 1l-1.1 2.2c-.4-.4-1.1-.7-1.9-.7-1.8 0-2.5 1.5-2.5 3.4 0 2 1 3.4 2.3 3.4.5 0 1-.2 1.4-.5v-1.3H13v-2.3h3.5v6.5h-2v-.7c-.4.6-1.3.9-2.2.9-2.2 0-4.5-2.1-4.5-5.9-.1-3.6 1.9-6 5-6zm6.3.1h3.6c.4 0 1 .1 1.5.3 1.1.5 1.9 1.7 1.9 3.2 0 1.4-.7 2.6-1.6 3.2 0 0 .2.2.4.7l1.8 4h-2.9l-1.6-3.9h-.6v3.9H19V73.2h.1zm3.1 5.3c.7 0 1.2-.5 1.2-1.5 0-.5-.2-1-.5-1.2-.2-.2-.5-.2-.7-.2h-.6v3h.6v-.1zm8.6-5.3h2.8l2.9 11.4h-2.6l-.5-2.4H31l-.5 2.4h-2.6l2.9-11.4zm2.2 6.9l-.4-2.3c-.2-.7-.3-2-.3-2h-.1s-.2 1.2-.3 2l-.4 2.3H33zm5.5-6.9h3.3c2.9 0 4.7 2.1 4.7 5.7s-1.8 5.7-4.7 5.7h-3.3V73.2zm3.3 9.2c1.3 0 2.1-1.2 2.1-3.4s-.8-3.4-2.1-3.4h-.7v6.8h.7zm7.3-9.2h2.6v9.1h3.4v2.3H49l.1-11.4zm8.2 0H63v2.3h-3v2.2h2.5V80H60v2.3h3.3v2.3h-5.9l-.1-11.4z" fill="#666"/><path class="st2" d="M56.9 34.1c-1.5-2.7-4.1-3.5-6-3.5-2.3 0-4.2 1.2-3.8 2.1.1.2.5 1.1.8 1.5.4.6 1.1.1 1.3 0 .7-.4 1.5-.5 2.3-.4s1.9.6 2.7 2c1.7 3.3-3.6 10.2-10.3 5.4-6.8-4.7-13.3-3.2-16.3-2.2s-4.3 1.9-3.1 4.1c1.6 3 1.1 2.1 2.6 4.6 2.4 4 7.8-1.8 7.8-1.8-4 5.9-7.4 4.5-8.7 2.4-1.2-1.8-2.1-4-2.1-4-10.1 3.6-7.4 19.3-7.4 19.3h5c1.3-5.8 5.8-5.6 6.6 0h3.8c3.4-11.3 11.9 0 11.9 0h5c-1.4-7.7 2.8-10.1 5.4-14.6 2.8-4.6 5.3-10.1 2.5-14.9zM44 49c-2.6-.9-1.7-3.5-1.7-3.5s2.3.7 5.4 1.8c-.1.7-1.7 2.3-3.7 1.7z"/><path class="st2" d="M0 94V2C0 .9.9 0 2 0h48c.6 0 1.1.2 1.5.7l20 22.3c.3.4.5.8.5 1.3V94c0 1.1-.9 2-2 2H2c-1.1 0-2-.9-2-2zm68-68.9L49.1 4H4v88h64V25.1z"/><path d="M48 26V4c0-1.1.9-2 2-2s2 .9 2 2v20h16c1.1 0 2 .9 2 2s-.9 2-2 2H50c-1.1 0-2-.9-2-2z" fill="#143b56"/></svg>