<svg id="Layer_1" xmlns="http://www.w3.org/2000/svg" viewBox="0 0 72 96"><style>.st0{fill:#c93}.st1{fill:#fff}</style><path class="st0" d="M0 2v92c0 1.1.9 2 2 2h68c1.1 0 2-.9 2-2V28H50c-1.1 0-2-.9-2-2V0H2C.9 0 0 .9 0 2z"/><path class="st0" d="M71.9 24c-.1-.4-.2-.7-.4-1L52 1.2V24h19.9z"/><path class="st1" d="M6 41h60v49H6zm.6-34.6h3.3v5.8h3.2V6.4h3.3v14.3h-3.3V15H9.9v5.7H6.6V6.4zm13.4 0h3.3v11.4h4.3v2.9H20V6.4zm10.4 0h4.5c2.6 0 4.4 2 4.4 4.9 0 2.9-1.7 5-4.4 5h-1.2v4.4h-3.3V6.4zm3.9 7c1 0 1.6-.9 1.6-2.1s-.7-2-1.6-2h-.7v4.1h.7z"/><path class="st0" d="M52.5 47H27c-3.8 0-7.5 1.5-7.5 6v30h27V53H23.2c0-2.2 1.5-3 3-3h23.2v30l3-3V47z"/><path class="st1" d="M31.8 69.6c0-3.1 3.6-3.6 3.6-5.9 0-1-.9-1.8-2.1-1.8-1.3.1-2.3 1-2.3 1L29.5 61s1.5-1.6 4.1-1.6c2.4 0 4.7 1.5 4.7 4.1 0 3.6-3.8 4-3.8 6.3v.8h-2.7v-1zm0 2.9h2.7V75h-2.7v-2.5z"/></svg>