<svg id="Layer_1" xmlns="http://www.w3.org/2000/svg" viewBox="0 0 72 96"><style>.st0{fill:#8ed200}</style><path class="st0" d="M0 2v92c0 1.1.9 2 2 2h68c1.1 0 2-.9 2-2V28H50c-1.1 0-2-.9-2-2V0H2C.9 0 0 .9 0 2z"/><path class="st0" d="M71.9 24c-.1-.4-.2-.7-.4-1L52 1.2V24h19.9z"/><path d="M6 41h60v49H6zm.6-34.6h3.3v14.3H6.6V6.4zm11.5-.3c1.3 0 2.6.4 3.6 1.2l-1.4 2.8c-.4-.5-1.3-.9-2.1-.9-2.1 0-3.2 1.9-3.2 4.2 0 2.3 1.2 4.4 3.2 4.4 1 0 1.7-.5 2.3-1l1.4 2.8c-.9.7-2 1.3-3.9 1.3-4 0-6.3-3.1-6.3-7.4 0-4.2 2.4-7.4 6.4-7.4zm5.3.3h3.5l2.4 6.6c.4 1 .7 2.4.7 2.4s-.2-1.5-.2-2.4V6.4h3.1v14.3h-3.4L27 14.1c-.4-1-.7-2.4-.7-2.4h-.1s.2 1.5.2 2.4v6.6h-3.1V6.4zM36 16.7c.6.6 1.4 1.2 2.3 1.2.9 0 1.3-.6 1.3-1.2 0-2-4.8-2.1-4.8-6.2 0-2.4 1.7-4.3 4.5-4.3 1.2 0 2.4.3 3.4 1l-1.2 2.9c-.5-.4-1.4-.9-2.2-.9-.9 0-1.3.6-1.3 1.2 0 2.1 4.8 2 4.8 6.1 0 2.3-1.5 4.4-4.4 4.4-1.4 0-2.9-.5-4-1.4l1.6-2.8z" fill="#fff"/><path class="st0" d="M36.3 47c.1-.4.3-.4.4 0l4.1 12.8c.1.4.5.7.9.7h13.4c.4 0 .4.2.1.4l-10.9 7.8c-.3.3-.4.7-.3 1.1l4.1 12.8c.1.4 0 .5-.3.2l-10.9-7.9c-.3-.2-.8-.2-1.1 0l-10.9 7.9c-.3.2-.5.1-.3-.2l4.1-12.8c.1-.4 0-.8-.3-1.1l-10.9-7.9c-.3-.2-.2-.4.1-.4H31c.4 0 .8-.3.9-.7L36.3 47z"/><path d="M36.3 47c.1-.4.3-.4.4 0l4.1 12.8c.1.4.5.7.9.7h13.4c.4 0 .4.2.1.4l-10.9 7.8c-.3.3-.4.7-.3 1.1l4.1 12.8c.1.4 0 .5-.3.2l-10.9-7.9c-.3-.2-.8-.2-1.1 0l-10.9 7.9c-.3.2-.5.1-.3-.2l4.1-12.8c.1-.4 0-.8-.3-1.1l-10.9-7.9c-.3-.2-.2-.4.1-.4H31c.4 0 .8-.3.9-.7L36.3 47z" fill="none"/></svg>