<svg id="Layer_1" xmlns="http://www.w3.org/2000/svg" viewBox="0 0 72 96"><style>.st0{fill:#eab41b}</style><path class="st0" d="M0 2v92c0 1.1.9 2 2 2h68c1.1 0 2-.9 2-2V28H50c-1.1 0-2-.9-2-2V0H2C.9 0 0 .9 0 2z"/><path class="st0" d="M71.9 24c-.1-.4-.2-.7-.4-1L52 1.2V24h19.9z"/><path d="M6 41h60v49H6zm.6-34.6h3.3v14.3H6.6V6.4zm7.5 0h3.6l1.3 6c.2.9.4 2.4.4 2.4h.1s.2-1.5.4-2.4l1.3-6h3.6l.9 14.3h-3l-.4-6.4c-.1-1.1 0-2.4 0-2.4h-.1s-.2 1.5-.4 2.4l-.9 4.1h-3.2l-.9-4.1c-.2-.9-.4-2.4-.4-2.4h-.1s.1 1.3 0 2.4l-.4 6.4h-3l1.2-14.3zm20.8-.3c1.4 0 2.9.4 3.9 1.3l-1.4 2.8c-.6-.6-1.4-.9-2.3-.9-2.2 0-3.2 1.9-3.2 4.2 0 2.6 1.2 4.3 2.9 4.3.6 0 1.3-.2 1.7-.6v-1.7H35v-2.9h4.3v8.1h-2.6v-.9c-.5.7-1.6 1.2-2.7 1.2-2.8 0-5.6-2.7-5.6-7.3.2-4.5 2.6-7.6 6.5-7.6z" fill="#fff"/><path class="st0" d="M33.7 65.5c0 .6.2 1.2.7 1.6.9.9 2.4.9 3.3 0 .4-.4.7-1 .7-1.6 0-.6-.2-1.2-.7-1.6-.4-.4-1-.7-1.6-.7s-1.2.2-1.6.7c-.6.4-.8 1-.8 1.6z"/><path class="st0" d="M22.9 52.4c-7.2 7.2-7.2 18.9 0 26.2 7.2 7.2 18.9 7.2 26.2 0 7.2-7.2 7.2-18.9 0-26.2-7.2-7.2-19-7.2-26.2 0zm27.4 20.9c-.7 1.2-1.6 2.4-2.6 3.4s-2.2 1.9-3.4 2.6L40 71.1s.4-.1 1.2-.9c.8-.8 1-1.2 1-1.2l8.1 4.3zm-11-11.1c.9.9 1.4 2.1 1.4 3.3 0 1.2-.5 2.4-1.4 3.3-1.8 1.8-4.7 1.8-6.5 0-.9-.9-1.4-2.1-1.4-3.3 0-1.2.4-2.4 1.4-3.3 1.7-1.8 4.7-1.8 6.5 0zM33 59s-.9.5-1.6 1.3c-.7.8-.7.9-1 1.3l-8.2-4.4c.7-1.2 1.6-2.4 2.6-3.4 1.1-1 2.2-1.9 3.4-2.6L33 59z"/></svg>