<svg id="Layer_1" xmlns="http://www.w3.org/2000/svg" viewBox="0 0 72 96"><style>.st0{fill:#999}</style><path class="st0" d="M0 2v92c0 1.1.9 2 2 2h68c1.1 0 2-.9 2-2V28H50c-1.1 0-2-.9-2-2V0H2C.9 0 0 .9 0 2z"/><path class="st0" d="M71.9 24c-.1-.4-.2-.7-.4-1L52 1.2V24h19.9z"/><path d="M6 41h60v49H6zm.6-34.6h3.3v14.3H6.6V6.4zm7 0H17l2.4 6.6c.4 1 .7 2.4.7 2.4h.1S20 13.9 20 13V6.4h3.1v14.3h-3.4l-2.5-6.6c-.4-1-.7-2.4-.7-2.4h-.1s.2 1.5.2 2.4v6.6h-3.1V6.4zm19.1-.3c1.3 0 2.6.4 3.6 1.2L35 10.2c-.4-.5-1.3-.9-2.1-.9-2.1 0-3.2 1.9-3.2 4.2 0 2.3 1.2 4.4 3.2 4.4 1 0 1.7-.5 2.3-1l1.4 2.8c-.9.7-2 1.3-3.9 1.3-4 0-6.3-3.1-6.3-7.4-.1-4.3 2.3-7.5 6.3-7.5z" fill="#fff"/><path d="M28.4 65l-7.7 7.6c-.9 1-1.4 2.2-1.4 3.5 0 1.2.5 2.5 1.4 3.4l.1.1c.9.9 2.2 1.4 3.4 1.4 1.3 0 2.5-.5 3.5-1.4l8.6-8.6 9.3-9.3c.4-.4.6-1 .6-1.5s-.2-1.1-.6-1.5c-.4-.4-1-.6-1.5-.6s-1.1.2-1.5.6L29.2 72c-.6.6-1.5.6-2.2 0-.6-.6-.6-1.6 0-2.2l13.3-13.3c1-1 2.3-1.5 3.7-1.5 1.3 0 2.7.5 3.7 1.5s1.5 2.3 1.5 3.7c0 1.3-.5 2.7-1.5 3.7l-9.3 9.3-8.6 8.6c-1.5 1.5-3.6 2.3-5.6 2.3-2 0-4-.7-5.5-2.2l-.1-.1c-1.5-1.5-2.3-3.5-2.3-5.6 0-2 .8-4.1 2.3-5.6l8.6-8.6 10.9-11c2-2 4.6-3 7.3-3s5.3 1 7.3 3 3 4.6 3 7.3c0 2.6-1 5.3-3 7.3L37.8 80.5c-.6.6-1.6.6-2.2 0-.6-.6-.6-1.6 0-2.2l14.9-14.9c1.4-1.4 2.1-3.3 2.1-5.1 0-1.8-.7-3.7-2.1-5.1-1.4-1.4-3.3-2.1-5.2-2.1-1.9 0-3.7.7-5.1 2.1L28.4 65z" fill="#999" stroke="#999" stroke-width=".25" stroke-miterlimit="10"/></svg>