<svg xmlns="http://www.w3.org/2000/svg" viewBox="0 0 72 96"><style>.st0{fill:#b41717}</style><path class="st0" d="M0 2v92c0 1.1.9 2 2 2h68c1.1 0 2-.9 2-2V28H50c-1.1 0-2-.9-2-2V0H2C.9 0 0 .9 0 2z"/><path class="st0" d="M71.9 24c-.1-.4-.2-.7-.4-1L52 1.2V24h19.9z"/><path d="M6 41h60v49H6zm-.3-25.7H9v1.1c0 1.5.4 1.6.7 1.6.5 0 .7-.3.7-1.6v-7H7.7v-3h6v9.9c0 3.3-2 4.6-4 4.6-2.1 0-4-1.4-4-4.6v-1zm11.4 3.8c0-5 4.5-5.5 4.5-8.4 0-1-.5-1.4-1.2-1.4-.6 0-1.1.3-1.4.8l-2.2-1.8c.8-1.1 2.3-2.1 4.1-2.1 2.1 0 4.2 1.3 4.2 4.2 0 4.1-4.2 5.4-4.4 7.5h4.6v2.9h-7.9c-.3-.7-.3-1.1-.3-1.7z" fill="#fff"/><path d="M55.8 47s-7.6 3.6-13.7 4.4c-6.1.8-17.9 1.6-20.2 1s-4-1.2-4-1.2l.5 1.6-1.5 1.3.3.5h.6l1.9.2.3.8 1.1.1.5 1.8s2.2.2 2.9.2c.7 0 2-.1 2-.1v.7l.5.1v.8l-1.1.9h.3v.3s-2.4.2-3.3 0c-1-.1-1.1-.1-1.1-.1l-.1.1v.4h.2l.1 1.8 4.9-.2-.5 6.6v.8l-4.1-.2v-1.7h.9l.1-.7.8-.2.1-.2-3.2-.7-2.4.7.4.3h.4v.6h.8v1.6l-.9.2.2.4.2.1v1.3h.6v5.9l-.9.1.1 1.7.6.1-.1 4h2.5l-.5-3.8 3.8-.1-.3 2.1-.4 1.5h3.8v-3.7l2.6-.2-.1 2.4-.1 1.4h2.2l-.1-3.8h.3L34 77h-.4l-.1-.8-.2-2.2.1-2.5h.5V70h-.6l.1-1.8.7-.1v-.6l.4-.1.4-.3-2.5-.5-2.5.6.2.4h.6l.1.7h.7v1.6l-3-.1.1-1.7.1-1.5v-2l.1-2.1 6-.3 7.1-.4.1 1.3-.3 3.2-.1 3H39v-2.1h1v-.6l.4-.1v-.1h.4l.2-.3-3-.7-2.9.6.2.4h.3v.2h.4v.7h.9v1.9H36v.4h.3v1.6h.6l-.1 6.4-.8.2v.3h.3v1.6h.5l-.2 2.3-.2 1.9 3.1.1-.1-1.7-.2-1.4v-1.2h2.6l-.1 1.9v2l1.5.1 2-.1.6-.2-.4-1.1-.1-1.7-.2-1.2 2.5-.1-.1 1.5v2.3l1 .1h1l.5-.2-.3-2.2-.1-1.6h.4v-1.5h.1v-.3h-.5l-.1-1.1v-4.7h.4V70h.2v-.3h-.6v-1.8l.9-.1-.1-.6h.4v-.1l.5-.3-2.7-.6-2.5.6.2.3h.4v.1h.4v.7h.9l.1 1.7h-3.2l-.4-2.6-.3-1.4-.2-2.5.1-1.4 6.3-.5v-2.1l.3-.1v-.3l-.2-.1s-3.5.5-4.6.6c-.3 0-.3 0-.5.1v-.4l-1.3-.7v-.8h.5v-1.1s2.7-.2 3.7-.4 2.4-.5 2.4-.5l.7-1.8 1.3-.4.1-.3 3-.8.3-.3-1.1-2.5.1-.6.6-.3.4-1.3-.2-.1zm-14.4 9.5v.9h.7v.9l-1.3.9-.1.3h.5v.2l-4.2.2v-.6l.2-.3v-.6l.1-.3v-.4l.2-.7 3.9-.5zm-8.5.8l-.1.6.3.4v.7l.3.5-.1.5.2.3-4.2.2v-.1l.5-.1v-.2l-1.1-.6-.1-.9h.5v-1l3.8-.3zM39 71.4l2.5.2-.1 3.4.3 2.8-2.7-.1v-6.3zm-16.9.1l4 .2-.3 2.3v2l.3 1.1-4 .2v-5.8zm25.9 0v5.8l-2.6.2-.1-3.1-.3-2.8 3-.1zm-19.5.1h3V77h-2.8l-.1-1.7v-1.7l-.1-2z" fill="#b41717" stroke="#b41717" stroke-width=".25" stroke-miterlimit="10"/></svg>