<svg xmlns="http://www.w3.org/2000/svg" viewBox="0 0 72 96"><style>.st0{fill:#3c3}</style><path class="st0" d="M0 2v92c0 1.1.9 2 2 2h68c1.1 0 2-.9 2-2V28H50c-1.1 0-2-.9-2-2V0H2C.9 0 0 .9 0 2z"/><path class="st0" d="M71.9 24c-.1-.4-.2-.7-.4-1L52 1.2V24h19.9z"/><path d="M6 41h60v49H6zm-.2-25.3h2.3v.9c0 1.9.6 2.1 1.1 2.1.6 0 1.1-.4 1.1-2.1V8.7H7.9V6.5h4.8v10c0 3.2-1.7 4.4-3.4 4.4s-3.4-1.2-3.4-4.4v-.8zm9.3-9.2h3.8c2.4 0 4 1.9 4 4.6s-1.6 4.7-4 4.7h-1.5v4.9h-2.3V6.5zm3.4 7.1c1.3 0 2-1 2-2.5s-.8-2.5-2-2.5h-1.2v5h1.2zm6-7.1h6.4v2.2h-4.1v3.8h3.3v2.2h-3.3v3.9h4.3v2.2h-6.6V6.5zm13.4-.3c1.3 0 2.6.4 3.6 1.2l-1 2.1c-.6-.6-1.5-1-2.5-1-2.3 0-3.6 2.1-3.6 5 0 3.1 1.4 5 3.4 5 .8 0 1.7-.3 2.2-1v-2.2h-1.5v-2.2H42v7.5h-1.8v-1c-.6.8-1.6 1.3-2.8 1.3-2.7 0-5.3-2.7-5.3-7.3 0-4.4 2.3-7.4 5.8-7.4z" fill="#fff"/><path class="st0" d="M14 48.5v33.9h44V48.5H14zM55.5 51v14.8l-10.5-8-11.5 11.5-8.1-4.5-8.8 7V51h38.9z"/><circle class="st0" cx="23" cy="57.6" r="3.1"/></svg>