<svg id="Layer_1" xmlns="http://www.w3.org/2000/svg" viewBox="0 0 72 96"><style>.st0{fill:#999}.st1{fill:#fff}.st2{fill:#999;stroke:#999;stroke-width:.5;stroke-miterlimit:10}</style><path class="st0" d="M0 2v92c0 1.1.9 2 2 2h68c1.1 0 2-.9 2-2V28H50c-1.1 0-2-.9-2-2V0H2C.9 0 0 .9 0 2z"/><path class="st0" d="M71.9 24c-.1-.4-.2-.7-.4-1L52 1.2V24h19.9z"/><path class="st1" d="M6 41h60v49H6V41z"/><path class="st2" d="M16.4 67.5v-4.1c.9-.1 1.6-.2 2-.4.4-.2.8-.6 1.2-1 .4-.5.5-1.1.7-1.9.1-.6.2-1.5.2-2.8 0-2.2.1-3.7.4-4.6.2-.8.6-1.6 1.2-2 .5-.5 1.4-.9 2.5-1.2.7-.2 1.9-.4 3.5-.4h.9V53c-1.3 0-2.2.1-2.6.3s-.6.4-.9.6c-.2.3-.3.7-.3 1.5s-.1 2-.2 4.1c-.1 1.2-.2 2-.4 2.8-.3.6-.6 1.2-1 1.8-.4.4-1 .9-1.8 1.4.7.4 1.3.8 1.8 1.3s.8 1.2 1.1 1.9c.3.7.4 1.8.4 3 .1 1.9.1 3.1.1 3.6 0 .7.1 1.2.3 1.6.2.4.5.5.9.6.4.2 1.2.3 2.6.3v4.1h-1c-1.6 0-2.9-.1-3.7-.4-.9-.3-1.6-.6-2.2-1.2-.6-.6-1-1.2-1.2-2-.2-.8-.3-2.1-.3-4 0-2-.1-3.5-.3-4.1-.3-.9-.7-1.6-1.2-2-.7-.5-1.5-.7-2.7-.7zm39.1 0c-.9.1-1.6.2-2 .4-.4.2-.8.6-1.2 1-.4.5-.5 1.1-.7 1.9-.1.6-.2 1.5-.2 2.8 0 2.2-.1 3.7-.4 4.6-.2.9-.6 1.6-1.2 2-.5.5-1.4.9-2.5 1.2-.7.2-1.9.4-3.5.4h-1v-4.1c1.3 0 2.1-.1 2.6-.3s.7-.4.9-.6c.2-.3.3-.7.3-1.5 0-.6.1-2 .2-4 .1-1.2.3-2.1.5-2.8.3-.7.6-1.3 1.1-1.9.4-.5 1-.9 1.7-1.3-.9-.6-1.6-1.1-2-1.6-.5-.7-1-1.8-1.2-2.8-.2-.8-.3-2.6-.3-5.2 0-.8-.1-1.4-.3-1.8-.2-.3-.4-.5-.8-.6-.2-.3-1-.3-2.5-.3v-4h1c1.6 0 2.9.1 3.7.4.9.3 1.6.6 2.2 1.2s1 1.2 1.2 2c.2.8.4 2.1.4 4 0 2 .1 3.4.3 4.1.3.9.7 1.6 1.2 1.9.5.4 1.4.6 2.5.6.1.1 0 4.3 0 4.3z"/><path class="st1" d="M5.8 15.7H8v.9c0 1.9.6 2.1 1.1 2.1.6 0 1.1-.4 1.1-2.1V8.7H7.8V6.5h4.6v10c0 3.2-1.6 4.4-3.3 4.4s-3.3-1.2-3.3-4.4v-.8zm9 1.8c.6.7 1.4 1.2 2.2 1.2 1 0 1.6-.7 1.6-1.8 0-2.6-4.5-2.5-4.5-6.6 0-2.3 1.4-4 3.8-4 1 0 2 .3 2.8.9L20 9.4c-.5-.4-1.3-.8-2-.8-1.1 0-1.6.8-1.6 1.7 0 2.6 4.5 2.4 4.5 6.5 0 2.2-1.3 4.1-3.7 4.1-1.2 0-2.4-.5-3.3-1.4l.9-2zM27.1 6.2c3.2 0 5.1 3 5.1 7.3s-2 7.4-5.1 7.4c-3.2 0-5.1-3.1-5.1-7.4 0-4.2 2-7.3 5.1-7.3zm0 12.4c1.8 0 2.9-2 2.9-5.1 0-3-1.1-4.9-2.9-4.9s-2.9 1.9-2.9 4.9c0 3.1 1.1 5.1 2.9 5.1zM34 6.5h2.3l3.3 8c.3.9.6 2.2.6 2.2h.1s-.1-1.3-.1-2.2v-8h2.1v14.2H40l-3.3-8.1c-.3-.9-.6-2.2-.6-2.2H36s.1 1.3.1 2.2v8H34V6.5z"/><path class="st2" d="M44.1 67.1c-.7-.3-1.2-.9-1.2-1.6s.5-1.4 1.2-1.6c.3-.1.4-.3.3-.5-.3-.8-.5-1.6-1-2.2-.1-.3-.4-.3-.6-.2s-.5.3-.8.3c-1 0-1.7-.8-1.7-1.7 0-.3.1-.6.3-.8.1-.3 0-.4-.2-.6-.7-.4-1.5-.7-2.2-1-.3-.1-.4.1-.5.3-.3.7-.9 1.2-1.6 1.2s-1.4-.5-1.6-1.2c-.1-.3-.3-.4-.5-.3-.8.3-1.6.5-2.2 1-.3.1-.3.4-.2.6.2.3.3.5.3.8 0 1-.8 1.7-1.7 1.7-.3 0-.6-.1-.8-.3-.3-.1-.4 0-.6.2-.4.7-.7 1.5-1 2.2-.1.3.1.4.3.5.7.3 1.2.9 1.2 1.6s-.5 1.4-1.2 1.6c-.3.1-.4.3-.3.5.3.8.5 1.6 1 2.2.1.3.4.3.6.2.3-.2.5-.3.8-.3 1 0 1.7.8 1.7 1.7 0 .3-.1.6-.3.8-.1.3 0 .4.2.6.7.4 1.5.7 2.2 1 .2 0 .4-.1.4-.3.3-.7.9-1.2 1.6-1.2s1.4.5 1.6 1.2c.1.3.3.4.5.3.8-.3 1.6-.5 2.2-1 .3-.1.3-.4.2-.6-.1-.3-.3-.5-.3-.8 0-1 .8-1.7 1.7-1.7.3 0 .6.1.8.3.3.1.4 0 .6-.2.4-.7.7-1.5 1-2.2.2-.1.1-.4-.2-.5zm-8.3 1c-1.5 0-2.7-1.2-2.7-2.7 0-1.5 1.2-2.7 2.7-2.7s2.7 1.2 2.7 2.7c.1 1.5-1.2 2.7-2.7 2.7z"/></svg>