<svg xmlns="http://www.w3.org/2000/svg" viewBox="0 0 72 96"><style>.st0,.st2{fill:#72bed3}.st2{stroke:#72bed3;stroke-width:.75;stroke-miterlimit:10}</style><path class="st0" d="M0 2v92c0 1.1.9 2 2 2h68c1.1 0 2-.9 2-2V28H50c-1.1 0-2-.9-2-2V0H2C.9 0 0 .9 0 2z"/><path class="st0" d="M71.9 24c-.1-.4-.2-.7-.4-1L52 1.2V24h19.9z"/><path d="M6 41h60v49H6zm-.3-25.7H9v1.1c0 1.5.4 1.6.7 1.6.5 0 .7-.3.7-1.6v-7H7.7v-3h6v9.9c0 3.3-2 4.6-4 4.6-2.1 0-4-1.4-4-4.6v-1zM18 16.7c.6.6 1.4 1.2 2.3 1.2.9 0 1.3-.6 1.3-1.2 0-2-4.8-2.1-4.8-6.2 0-2.4 1.7-4.3 4.5-4.3 1.2 0 2.4.3 3.4 1l-1.2 2.9c-.5-.4-1.4-.9-2.2-.9-.9 0-1.3.6-1.3 1.2 0 2.1 4.8 2 4.8 6.1 0 2.3-1.5 4.4-4.4 4.4-1.4 0-2.9-.5-4-1.4l1.6-2.8zm12.3-3.1l-3.4-7.2h3.6l1.1 2.9.6 1.8s.2-.9.6-1.8L34 6.4h3.6l-3.4 7.2 3.3 7.1H34l-1.1-3c-.4-.9-.6-1.7-.6-1.7s-.2.8-.6 1.7l-1.1 3H27l3.3-7.1z" fill="#fff"/><path class="st2" d="M56.4 65.6c0-2.7-3.4-5.3-8.5-6.9 1.2-5.3.7-9.5-1.7-10.9-.6-.3-1.2-.4-1.9-.4v1.9c.4 0 .7.1.9.2 1.1.7 1.7 3.1 1.2 6.3-.1.8-.2 1.6-.4 2.4-1.7-.4-3.4-.7-5.3-.9-1.1-1.6-2.3-2.9-3.4-4.2 2.8-2.5 5.3-3.9 7-3.9v-1.9C42 47.3 39 49 36 51.8c-3.1-2.8-6.1-4.4-8.3-4.4v1.9c1.8 0 4.2 1.3 7 3.9-1.2 1.2-2.3 2.6-3.4 4.2-1.9.2-3.7.4-5.3.9-.1-.9-.3-1.7-.4-2.4-.4-3.1.1-5.7 1.2-6.3.2-.1.6-.2.9-.2v-1.9c-.7 0-1.3.1-1.9.4-2.3 1.3-2.8 5.5-1.7 10.9-5.3 1.6-8.7 4.2-8.7 6.9s3.4 5.3 8.5 6.9c-1.2 5.3-.7 9.5 1.7 10.9.6.3 1.2.4 1.9.4 2.3 0 5.3-1.7 8.3-4.5 3.1 2.8 6.1 4.4 8.3 4.4.7 0 1.3-.1 1.9-.4 2.3-1.3 2.8-5.5 1.7-10.9 5.4-1.7 8.7-4.2 8.7-6.9zM45.6 60c-.3 1.1-.7 2.2-1.1 3.3-.3-.7-.7-1.3-1.1-2-.4-.7-.8-1.3-1.2-2 1.2.2 2.3.4 3.4.7zm-3.8 8.9c-.7 1.1-1.3 2.2-2 3.1-1.2.1-2.4.2-3.7.2s-2.5-.1-3.8-.1c-.7-1-1.3-2-2-3.1s-1.2-2.2-1.8-3.3c.6-1.1 1.1-2.2 1.8-3.3.7-1.1 1.3-2.2 2-3.1 1.2-.1 2.5-.1 3.8-.1s2.5.1 3.8.1c.7 1 1.3 2 2 3.1s1.2 2.2 1.8 3.3c-.7 1-1.3 2.1-1.9 3.2zm2.7-1.1c.4 1.1.9 2.2 1.2 3.3-1.1.2-2.3.4-3.4.7.4-.7.8-1.3 1.2-2 .3-.6.6-1.3 1-2zM36 76.7c-.8-.8-1.6-1.8-2.3-2.7.8 0 1.5.1 2.3.1s1.6 0 2.3-.1c-.7 1-1.5 1.9-2.3 2.7zm-6.2-4.9c-1.2-.1-2.3-.4-3.4-.7.3-1.1.7-2.2 1.1-3.3.3.7.7 1.3 1.1 2 .4.7.8 1.3 1.2 2zM36 54.5c.8.8 1.6 1.8 2.3 2.7-.8 0-1.5-.1-2.3-.1s-1.6 0-2.3.1c.7-1 1.5-1.9 2.3-2.7zm-6.2 4.9c-.4.7-.8 1.3-1.2 2s-.7 1.3-1.1 2c-.4-1.1-.9-2.2-1.2-3.3 1.2-.4 2.3-.6 3.5-.7zm-7.5 10.4c-3-1.2-4.9-2.9-4.9-4.2 0-1.3 1.9-3 4.9-4.2.7-.3 1.5-.6 2.3-.9.4 1.7 1.1 3.3 1.9 5.1-.8 1.8-1.4 3.4-1.9 5-.8-.2-1.6-.4-2.3-.8zm4.4 11.9c-1.1-.7-1.7-3.1-1.2-6.3.1-.8.2-1.6.4-2.4 1.7.4 3.4.7 5.3.9 1.1 1.6 2.3 2.9 3.4 4.2-2.8 2.5-5.3 3.9-7 3.9-.2-.1-.6-.1-.9-.3zm19.8-6.3c.4 3.1-.1 5.7-1.2 6.3-.2.1-.6.2-.9.2-1.8 0-4.2-1.3-7-3.9 1.2-1.2 2.3-2.6 3.4-4.2 1.9-.2 3.7-.4 5.3-.9.2.8.3 1.7.4 2.5zm3.2-5.6c-.7.3-1.5.6-2.3.9-.4-1.7-1.1-3.3-1.9-5.1.8-1.8 1.4-3.4 1.9-5 .8.2 1.6.6 2.3.9 3 1.2 4.9 2.9 4.9 4.2-.1 1.2-2 2.9-4.9 4.1z"/><circle class="st2" cx="36" cy="65.6" r="3.8"/></svg>