<svg id="Layer_1" xmlns="http://www.w3.org/2000/svg" viewBox="0 0 72 96"><style>.st0{fill:#696}</style><path class="st0" d="M0 2v92c0 1.1.9 2 2 2h68c1.1 0 2-.9 2-2V28H50c-1.1 0-2-.9-2-2V0H2C.9 0 0 .9 0 2z"/><path class="st0" d="M71.9 24c-.1-.4-.2-.7-.4-1L52 1.2V24h19.9z"/><path d="M6 41h60v49H6zm.6-34.6h3.3v5.5h.6l2.3-5.5h3.5l-2.9 6.8 3 7.4h-3.7l-2.3-5.8h-.5v5.8H6.6V6.4zm12.5 0h7.2v2.9h-3.9V12h3.1v2.9h-3.1v2.9h4.1v2.9h-7.4V6.4zm12.8 8.4l-3.6-8.4h3.6L33 9.8c.3 1 .5 2.1.5 2.1h.1s.2-1.1.5-2.1l1.1-3.4h3.6l-3.6 8.4v5.9h-3.3v-5.9z" fill="#fff"/><path class="st0" d="M35.9 1003.6c2.8 2.8 3.6 6.7 2.6 10.2l14.8 14.8.3 6.6-8.3-.7v-4.2h-4.2v-4.2H37l-5.4-5.4c-3.5 1-7.5.2-10.2-2.6-4-4-4-10.6 0-14.6s10.5-4 14.5.1zm-7.6 2.8c-1.2-1.2-3-1.2-4.2 0-1.2 1.2-1.2 3 0 4.2 1.2 1.2 3 1.2 4.2 0 1.2-1.2 1.2-3.1 0-4.2z" transform="translate(0 -952.362)"/></svg>