<svg id="Layer_1" xmlns="http://www.w3.org/2000/svg" viewBox="0 0 72 96"><style>.st0{fill:#5171a5}</style><path class="st0" d="M0 2v92c0 1.1.9 2 2 2h68c1.1 0 2-.9 2-2V28H50c-1.1 0-2-.9-2-2V0H2C.9 0 0 .9 0 2z"/><path class="st0" d="M71.9 24c-.1-.4-.2-.7-.4-1L52 1.2V24h19.9z"/><path d="M6 41h60v49H6zm.6-34.6h3.3v5.5h.6l2.3-5.5h3.5l-2.9 6.8 3 7.4h-3.7l-2.3-5.8h-.5v5.8H6.6V6.4zm14.7 2.9h-3.1V6.4h9.6v2.9h-3.2v11.4h-3.3V9.3zm9.9 7.4c.6.6 1.4 1.2 2.3 1.2.9 0 1.3-.6 1.3-1.2 0-2-4.8-2.1-4.8-6.2 0-2.4 1.7-4.3 4.5-4.3 1.2 0 2.4.3 3.4 1l-1.2 2.9c-.5-.4-1.4-.9-2.2-.9-.9 0-1.3.6-1.3 1.2 0 2.1 4.8 2 4.8 6.1 0 2.3-1.5 4.4-4.4 4.4-1.4 0-2.9-.5-4-1.4l1.6-2.8z" fill="#fff"/><path d="M20.3 74.4v-10c0-.6.2-1 .8-1.3 7.5-4.1 15-8.3 22.5-12.5 1.1-.5 2.1-1.2 3.4-1.2 2.1.1 3.9 1.3 4.5 3.3.6 2 0 4.3-1.7 5.4-1.9 1.2-4 2.3-6 3.5-7.5 4.1-15 8.3-22.6 12.5-.3.1-.5.2-.9.3z" fill="#e88e3d"/><path class="st0" d="M32.2 70.7c.3-.2.5-.3.6-.5 2.5-1.4 5-2.7 7.3-4 .5-.3.9-.3 1.4.1 2.8 2.6 5.7 5 8.4 7.6 1.6 1.4 2 3.2 1.4 5.1-.5 1.9-1.9 3-3.9 3.3-1.3.2-2.6-.2-3.6-1-3.8-3.5-7.6-7-11.6-10.6.1.2.1.1 0 0zm-11.9-9.8c0-2.5-.2-4.9.1-7.2.3-2.7 2.9-4.3 5.8-4 2.4.3 4.4 2.8 4.2 5.2 0 .3-.2.6-.5.7-3.1 1.7-6.2 3.5-9.4 5.2.1.1 0 0-.2.1zm10.1 10.8c0 2.3.1 4.3 0 6.4-.2 2.5-2.5 4.4-4.9 4.4-2.4 0-4.7-1.8-5.1-4.2-.1-.7 0-1.2.7-1.6 2.8-1.6 5.7-3.1 8.5-4.7.2 0 .4-.1.8-.3z"/></svg>