<svg id="Layer_1" xmlns="http://www.w3.org/2000/svg" viewBox="0 0 72 96"><style>.st0{fill:#bababa}</style><path class="st0" d="M0 2v92c0 1.1.9 2 2 2h68c1.1 0 2-.9 2-2V28H50c-1.1 0-2-.9-2-2V0H2C.9 0 0 .9 0 2z"/><path class="st0" d="M71.9 24c-.1-.4-.2-.7-.4-1L52 1.2V24h19.9z"/><path d="M6 41h60v49H6zm.6-34.6h3.3v11.4h4.3v2.9H6.6V6.4zm10.3 0h3.5l2.4 6.6c.4 1 .7 2.4.7 2.4h.1s-.2-1.5-.2-2.4V6.4h3.1v14.3h-3.4l-2.5-6.6c-.4-1-.7-2.4-.7-2.4h-.1s.2 1.5.2 2.4v6.6h-3.1V6.4zm13.3 0h3.3v5.5h.6l2.3-5.5h3.5L37 13.2l3 7.4h-3.7L34 14.8h-.6v5.8h-3.3V6.4z" fill="#fff"/><path class="st0" d="M37.6 51.2l-6.1 6.1c1.8-.5 3.8-.5 5.6 0 .3.1.5.2.7.2l3.1-3.1c1.8-1.8 4.8-1.8 6.6 0 1.8 1.8 1.8 4.8 0 6.6l-4.1 4.1-2.4 2.4c-.6.6-1.3 1-2.1 1.2-1.5.4-3.3 0-4.5-1.2-.8-.8-1.3-1.9-1.3-2.9-.4.2-.7.4-1 .6l-2.9 2.9c.4 1 1.1 1.9 1.9 2.7 1.2 1.2 2.6 2 4.2 2.4 2.4.6 5 .3 7.1-1 .7-.4 1.3-.9 1.8-1.4l6.6-6.6c3.6-3.6 3.6-9.5 0-13.1-3.7-3.5-9.5-3.5-13.2.1z"/><path class="st0" d="M40.5 74.6c-2.1.6-4.3.5-6.4-.2l-3 3c-1.8 1.8-4.8 1.8-6.6 0-1.8-1.8-1.8-4.8 0-6.6l6.6-6.6c.6-.6 1.3-1 2.1-1.2 1.5-.4 3.3 0 4.5 1.2.8.8 1.3 1.9 1.3 3 .3-.2.7-.4 1-.6l2.9-2.9c-.4-1-1.1-1.9-1.9-2.7-1.2-1.2-2.6-2-4.2-2.4-2.4-.6-5-.3-7.1 1-.7.4-1.3.9-1.8 1.4l-6.6 6.6c-3.6 3.6-3.6 9.5 0 13.1 3.6 3.6 9.5 3.6 13.1 0l6.1-6.1z"/></svg>