<svg xmlns="http://www.w3.org/2000/svg" viewBox="0 0 72 96"><style>.st0{fill:navy}</style><path class="st0" d="M0 2v92c0 1.1.9 2 2 2h68c1.1 0 2-.9 2-2V28H50c-1.1 0-2-.9-2-2V0H2C.9 0 0 .9 0 2z"/><path class="st0" d="M71.9 24c-.1-.4-.2-.7-.4-1L52 1.2V24h19.9z"/><path d="M6 41h60v49H6V41zm.6-34.6h3.3v11.4h4.3v2.9H6.6V6.4zm9.8 0h3.3V16c0 1.4.6 1.9 1.5 1.9s1.5-.5 1.5-1.9V6.4H26V16c0 3-1.9 4.9-4.7 4.9-2.9 0-4.8-1.9-4.8-4.9V6.4h-.1zm15.4 0h3.6L39 20.7h-3.3l-.6-3h-3l-.6 3h-3.3l3.6-14.3zm2.8 8.6l-.6-2.9c-.2-.9-.4-2.5-.4-2.5h-.1s-.2 1.5-.4 2.5l-.5 2.9h2z" fill="#fff"/><path class="st0" d="M33.7 84C25 84 18 77 18 68.3s7-15.8 16-15.7c8.5.2 15.3 7 15.3 15.7S42.3 84 33.7 84zm6.4-26.8c-2.5 0-4.7 2.2-4.7 4.7s2 4.7 4.7 4.7c2.5 0 4.7-2 4.7-4.7 0-2.6-2-4.7-4.7-4.7zm9.2 0c-2.5 0-4.7-2-4.5-4.7 0-2.5 2-4.5 4.7-4.5 2.5 0 4.5 2.2 4.5 4.7s-2.2 4.5-4.7 4.5z"/></svg>