<svg id="Layer_1" xmlns="http://www.w3.org/2000/svg" viewBox="0 0 72 96"><style>.st0{fill:#999}</style><path class="st0" d="M0 2v92c0 1.1.9 2 2 2h68c1.1 0 2-.9 2-2V28H50c-1.1 0-2-.9-2-2V0H2C.9 0 0 .9 0 2z"/><path class="st0" d="M71.9 24c-.1-.4-.2-.7-.4-1L52 1.2V24h19.9z"/><path d="M6 41h60v49H6zM7.1 6.4h3.6l1.3 6c.2.9.4 2.4.4 2.4h.1s.2-1.5.4-2.4l1.3-6H18l.9 14.3h-3l-.4-6.4c-.1-1.1 0-2.4 0-2.4h-.1s-.2 1.5-.4 2.4l-.9 4.1H11l-.9-4.1c-.2-.9-.4-2.4-.4-2.4h-.1s.1 1.3 0 2.4l-.4 6.4h-3l.9-14.3zm14.4 8.8l3.7-8.8h4.2v8.1h1.2v3h-1.2v3.2h-3.2v-3.2h-4.7v-2.3zm4.7-.7v-3.4c0-.8.1-1.3.1-1.3s-.1.6-.3 1.2l-1.4 3.5h1.6z" fill="#fff"/><path d="M51.7 70.3l-.1-.2-.2-.2c0-3-1.8-5.6-4.3-6.9-.3-1.1-.1-1.5-.1-1.5.1-.1.1-.3.2-.4h2.6c.6 0 1.2-.2 1.6-.7 1.4-1.4 2.1-3.2 2.1-5.2 0-3.7-2.6-6.7-6.2-7.2-.2 0-.4-.1-.6-.1H25.8c-4 0-7.3 3.3-7.3 7.3 0 .3 0 .6.1 1 .2 6.8 5.3 12.3 8 14.8h-5.2c-.8 0-1.6.4-1.9 1.2-.6 1.1-1 2.3-1 3.5 0 4 3.3 7.3 7.3 7.3h21.1c3.8-.4 6.7-3.6 6.7-7.3-.1-1.9-.8-4-1.9-5.4m-5-20.1c2.6.3 4.7 2.4 4.7 5.2 0 1.5-.6 2.7-1.6 3.7h-19c.8-1.1 1.3-2.3 1.3-3.7 0-2.1-1.1-4-2.6-5.2h17.2zM20.6 75.7c0-.9.3-1.8.7-2.4h8.8c.4.8.7 1.6.7 2.4 0 2.8-2.3 5.1-5.2 5.1s-5-2.4-5-5.1m26.1 5.1H29.3c1.7-1.2 2.7-3 2.7-5.2 0-2.1-1.1-4-2.6-5.2h.1s-8.6-6.4-8.7-14.5c0-.3-.1-.5-.1-.8 0-2.8 2.3-5.2 5.2-5.2s5.2 2.3 5.2 5.2v.3c0 .5-.1 1-.3 1.4-.2.6-.5 1.1-.9 1.6l-1.3 1.8h16.7c0 .1-.1.2-.2.3-.3.6-.4 1.2-.4 1.8-.3 0-.7-.1-1.1-.1-4.2 0-7.7 3.4-7.7 7.7s3.4 7.7 7.7 7.7c3.1 0 5.8-1.8 7-4.6.4.9.7 1.8.7 2.7.1 2.6-2 4.9-4.6 5.1m.3-10.9l-5.1 3.8V66l5.1 3.9z" fill="#999" stroke="#999" stroke-width=".5" stroke-miterlimit="10"/></svg>