<svg xmlns="http://www.w3.org/2000/svg" viewBox="0 0 72 96"><style>.st0{fill:#999}</style><path class="st0" d="M0 2v92c0 1.1.9 2 2 2h68c1.1 0 2-.9 2-2V28H50c-1.1 0-2-.9-2-2V0H2C.9 0 0 .9 0 2z"/><path class="st0" d="M71.9 24c-.1-.4-.2-.7-.4-1L52 1.2V24h19.9z"/><path d="M6 41h60v49H6zM7.1 6.4h3.6l1.3 6c.2.9.4 2.4.4 2.4h.1s.2-1.5.4-2.4l1.3-6H18l.9 14.3h-3l-.4-6.4c-.1-1.1 0-2.4 0-2.4h-.1s-.2 1.5-.4 2.4l-.9 4.1H11l-.9-4.1c-.2-.9-.4-2.4-.4-2.4h-.1s.1 1.3 0 2.4l-.4 6.4h-3l.9-14.3zm14.6 0h4.2c3.7 0 5.9 2.6 5.9 7.1s-2.2 7.2-5.9 7.2h-4.2V6.4zm4.1 11.4c1.7 0 2.6-1.5 2.6-4.3s-1-4.2-2.6-4.2H25v8.5h.8z" fill="#fff"/><path class="st0" d="M13.5 76.4V54.6h6.4l6.4 8 6.4-8h6.4v21.8h-6.4V63.9l-6.4 8-6.4-8v12.5h-6.4zm38.4 0l-9.6-10.6h6.4V54.6h6.4v11.2h6.4l-9.6 10.6z"/></svg>