<svg id="Layer_1" xmlns="http://www.w3.org/2000/svg" viewBox="0 0 72 96"><style>.st0{fill:#039}</style><path class="st0" d="M0 2v92c0 1.1.9 2 2 2h68c1.1 0 2-.9 2-2V28H50c-1.1 0-2-.9-2-2V0H2C.9 0 0 .9 0 2z"/><path class="st0" d="M71.9 24c-.1-.4-.2-.7-.4-1L52 1.2V24h19.9z"/><path d="M6 41h60v49H6zM7.3 6.5H10l1.9 6.9c.2.9.4 2.2.4 2.2h.1s.2-1.3.4-2.2l1.9-6.9h2.7l.9 14.2H16l-.5-7.9c-.1-.9 0-2.2 0-2.2h-.1s-.3 1.4-.5 2.3l-1.5 5.4H11l-1.5-5.4c-.2-.8-.5-2.3-.5-2.3h.1s.1 1.3 0 2.2l-.5 7.9H6.4l.9-14.2zm18.2-.3c3.5 0 5.7 3 5.7 7.3s-2.2 7.4-5.7 7.4-5.7-3.1-5.7-7.4c0-4.2 2.2-7.3 5.7-7.3zm0 12.4c2 0 3.2-2 3.2-5.1 0-3-1.2-4.9-3.2-4.9s-3.2 1.9-3.2 4.9c0 3.1 1.2 5.1 3.2 5.1zm7.6-12.1H37c3.5 0 5.7 2.6 5.7 7.1s-2.2 7.1-5.7 7.1h-3.9V6.5zm3.8 12c2.1 0 3.3-1.7 3.3-4.9s-1.3-4.9-3.3-4.9h-1.4v9.8h1.4z" fill="#fff"/><path class="st0" d="M47 66c-3.1-1.2-6.7.3-8 3.4-1.2 3.1.3 6.7 3.4 8 .6.3 1.3.4 2 .4 3.5.1 6.4-2.6 6.4-6V47.9c-.2 0-.3.1-.5.1-6.8 1.9-13.5 3.9-20.3 5.8-.6.2-.6.5-.6 1v16.8c-.5-.2-.7-.3-1.1-.4-2.5-.9-4.7-.4-6.5 1.4-1.8 1.7-2.3 4.3-1.3 6.6 1.3 3.1 4.9 4.6 8 3.4 2.3-1 3.8-3.2 3.8-5.7V61.3c0-.7.2-.9.9-1.1 3.3-.9 6.6-1.9 10-2.8L48 56v10.4c-.5-.2-.7-.3-1-.4z"/></svg>