<svg id="Layer_1" xmlns="http://www.w3.org/2000/svg" viewBox="0 0 72 96"><style>.st0{fill:#039}</style><path class="st0" d="M0 2v92c0 1.1.9 2 2 2h68c1.1 0 2-.9 2-2V28H50c-1.1 0-2-.9-2-2V0H2C.9 0 0 .9 0 2z"/><path class="st0" d="M71.9 24c-.1-.4-.2-.7-.4-1L52 1.2V24h19.9z"/><path d="M6 41h60v49H6zM7 6.5h2.2l1.6 6.9c.2.9.4 2.2.4 2.2s.2-1.3.4-2.2l1.6-6.9h2.2l.7 14.2h-1.9l-.4-7.9v-2.2s-.2 1.4-.4 2.3l-1.3 5.4h-2L9 12.9c-.2-.8-.4-2.3-.4-2.3h-.1s.1 1.3 0 2.2l-.4 7.9H6.2L7 6.5zm11 0h3.4c2.1 0 3.5 1.9 3.5 4.6s-1.4 4.7-3.5 4.7H20v4.9h-2V6.5zm3 7.1c1.1 0 1.8-1 1.8-2.5s-.7-2.5-1.7-2.5h-1v5h.9zm9.8-7.4c1.1 0 2.3.4 3.1 1.2L33 9.6c-.5-.6-1.3-1-2.2-1-2 0-3.1 2.1-3.1 5 0 3.1 1.3 5 2.9 5 .7 0 1.4-.3 1.9-1v-2.2h-1.3v-2.2h3.1v7.5h-1.6v-1c-.5.8-1.4 1.3-2.5 1.3-2.4 0-4.6-2.7-4.6-7.3.1-4.5 2.1-7.5 5.2-7.5zm7.4.3h2.2l3.1 14.2h-2l-.7-3.7h-2.9l-.7 3.7h-2l3-14.2zm2.2 8.5l-.7-3.8c-.2-.8-.4-2.2-.4-2.2s-.2 1.4-.3 2.2l-.8 3.8h2.2z" fill="#fff"/><path class="st0" d="M47 66c-3.1-1.2-6.7.3-8 3.4-1.2 3.1.3 6.7 3.4 8 .6.3 1.3.4 2 .4 3.5.1 6.4-2.6 6.4-6V47.9c-.2 0-.3.1-.5.1-6.8 1.9-13.5 3.9-20.3 5.8-.6.2-.6.5-.6 1v16.8c-.5-.2-.7-.3-1.1-.4-2.5-.9-4.7-.4-6.5 1.4-1.8 1.7-2.3 4.3-1.3 6.6 1.3 3.1 4.9 4.6 8 3.4 2.3-1 3.8-3.2 3.8-5.7V61.3c0-.7.2-.9.9-1.1 3.3-.9 6.6-1.9 10-2.8L48 56v10.4c-.5-.2-.7-.3-1-.4z"/></svg>