<svg id="Layer_1" xmlns="http://www.w3.org/2000/svg" viewBox="0 0 72 96"><style>.st0{fill:#999}</style><path class="st0" d="M0 2v92c0 1.1.9 2 2 2h68c1.1 0 2-.9 2-2V28H50c-1.1 0-2-.9-2-2V0H2C.9 0 0 .9 0 2z"/><path class="st0" d="M71.9 24c-.1-.4-.2-.7-.4-1L52 1.2V24h19.9z"/><path d="M6 41h60v49H6zm5.9-34.9c3.8 0 5.9 3.1 5.9 7.3 0 4.2-2.1 7.5-5.9 7.5s-5.8-3.2-5.8-7.5c0-4.1 2-7.3 5.8-7.3zm0 11.7c1.7 0 2.5-1.8 2.5-4.3s-.8-4.2-2.5-4.2-2.5 1.7-2.5 4.2.8 4.3 2.5 4.3zM26.2 6.1c1.3 0 2.6.4 3.6 1.2l-1.4 2.8c-.4-.5-1.3-.9-2.1-.9-2.1 0-3.2 1.9-3.2 4.2 0 2.3 1.2 4.4 3.2 4.4 1 0 1.7-.5 2.3-1l1.4 2.8c-.9.7-2 1.3-3.9 1.3-4 0-6.3-3.1-6.3-7.4 0-4.2 2.4-7.4 6.4-7.4zm8.4 7.5l-3.4-7.2h3.6l1.1 2.9.6 1.8s.2-.9.6-1.8l1.2-2.9h3.6l-3.4 7.2 3.3 7.1h-3.5l-1.1-3c-.4-.9-.6-1.7-.6-1.7s-.2.8-.6 1.7l-1.1 3h-3.5l3.2-7.1z" fill="#fff"/><path class="st0" d="M52.4 58.4c1.7-4.2 1.9-7.6-.2-9.7-2.3-2.3-7.9-1.6-13.8 1.2h-.7c-4.2 0-8.2 1.5-11.2 4.2-2.5 2.3-4.4 5.3-5.2 8.7.6-.7 3.8-4.5 7.5-6.6.1 0 1-.6 1-.6-.1 0-1.9 1.7-2.2 2.1-8.1 8.3-12.8 20.9-9.1 24.6 2.4 2.4 6.8 1.9 11.9-.9 2.2 1 4.6 1.5 7.3 1.5 3.5 0 6.7-.9 9.5-2.8 2.9-1.9 5-4.7 6.2-8.1h-9c-1.2 2.2-3.8 3.7-6.6 3.7-3.9 0-7.2-3.2-7.3-6.9v-.3h23.6V68c0-.6.1-1.3.1-1.7 0-2.8-.6-5.5-1.8-7.9zM21.1 81.5c-1.9-1.9-1.3-5.4.9-9.7 1 2.9 2.8 5.4 5 7.3.7.6 1.5 1.2 2.3 1.6-3.7 2-6.7 2.3-8.2.8zm23.7-17.6H30.7v-.1c.2-3.6 3.6-6.7 7.5-6.7 3.7 0 6.7 2.9 6.9 6.7v.1h-.3zm7-6.4c-.7-1.2-1.6-2.3-2.7-3.2-1.6-1.5-3.5-2.7-5.6-3.5 3.7-1.7 6.8-2 8.4-.3 1.4 1.4 1.3 3.9-.1 7 0 .1 0 .1 0 0 0 .1 0 .1 0 0z"/></svg>