<svg id="Layer_1" xmlns="http://www.w3.org/2000/svg" viewBox="0 0 72 96"><style>.st0{fill:#696}</style><path class="st0" d="M0 2v92c0 1.1.9 2 2 2h68c1.1 0 2-.9 2-2V28H50c-1.1 0-2-.9-2-2V0H2C.9 0 0 .9 0 2z"/><path class="st0" d="M71.9 24c-.1-.4-.2-.7-.4-1L52 1.2V24h19.9z"/><path d="M6 41h60v49H6zm.6-34.6h4.5c2.6 0 4.4 2 4.4 4.9 0 2.9-1.7 5-4.4 5H9.9v4.4H6.6V6.4zm3.9 7c1 0 1.6-.9 1.6-2.1s-.7-2-1.6-2h-.6v4.1h.6zm7.9-7h7.2v2.9h-3.9V12h3.1v2.9h-3.1v2.9h4.1v2.9h-7.4V6.4zm10.9 0H33l1.3 6c.2.9.4 2.4.4 2.4h.1s.2-1.5.4-2.4l1.3-6h3.6l.9 14.3h-3l-.4-6.4c-.1-1.1 0-2.4 0-2.4h-.1s-.2 1.5-.4 2.4l-.9 4.1H33l-.9-4.1c-.2-.9-.4-2.4-.4-2.4h-.1s.1 1.3 0 2.4l-.4 6.4h-3l1.1-14.3z" fill="#fff"/><path class="st0" d="M49.2 62.2h-2.6v-5C46.6 51.5 42 47 36.4 47s-10.2 4.6-10.2 10.2v5h-2.6c-1 0-1.8.8-1.8 1.8v17.4c0 1 .8 1.8 1.8 1.8h25.6c1 0 1.8-.8 1.8-1.8V63.9c0-.9-.8-1.7-1.8-1.7zM38.6 76.6c.2.6-.3 1.1-.9 1.1H35c-.6 0-1-.6-.9-1.1l.8-3.2c-1-.5-1.7-1.5-1.7-2.8 0-1.7 1.4-3.1 3.1-3.1 1.7 0 3.1 1.4 3.1 3.1 0 1.2-.7 2.3-1.7 2.8l.9 3.2zm2.9-14.4H31.3v-5c0-2.8 2.3-5.1 5.1-5.1s5.1 2.3 5.1 5.1v5z"/></svg>