<svg id="Layer_1" xmlns="http://www.w3.org/2000/svg" viewBox="0 0 72 96"><style>.st0{fill:#696}</style><path class="st0" d="M0 2v92c0 1.1.9 2 2 2h68c1.1 0 2-.9 2-2V28H50c-1.1 0-2-.9-2-2V0H2C.9 0 0 .9 0 2z"/><path class="st0" d="M71.9 24c-.1-.4-.2-.7-.4-1L52 1.2V24h19.9z"/><path d="M6 41h60v49H6zm.6-34.6h4.5c2.6 0 4.4 2 4.4 4.9 0 2.9-1.7 5-4.4 5H9.9v4.4H6.6V6.4zm3.9 7c1 0 1.6-.9 1.6-2.1s-.7-2-1.6-2h-.6v4.1h.6zm13.6-7.3c1.4 0 2.9.4 3.9 1.3l-1.4 2.8c-.6-.6-1.4-.9-2.3-.9-2.2 0-3.2 1.9-3.2 4.2 0 2.6 1.2 4.3 2.9 4.3.6 0 1.3-.2 1.7-.6v-1.7h-1.5v-2.9h4.3v8.1h-2.6v-.9c-.5.7-1.6 1.2-2.7 1.2-2.8 0-5.6-2.7-5.6-7.3.2-4.5 2.6-7.6 6.5-7.6zm7.8.3h4.5c2.6 0 4.4 2 4.4 4.9 0 2.9-1.7 5-4.4 5h-1.2v4.4h-3.3V6.4zm3.9 7c1 0 1.6-.9 1.6-2.1s-.7-2-1.6-2h-.7v4.1h.7z" fill="#fff"/><path class="st0" d="M35.9 1003.6c2.8 2.8 3.6 6.7 2.6 10.2l14.8 14.8.3 6.6-8.3-.7v-4.2h-4.2v-4.2H37l-5.4-5.4c-3.5 1-7.5.2-10.2-2.6-4-4-4-10.6 0-14.6s10.5-4 14.5.1zm-7.6 2.8c-1.2-1.2-3-1.2-4.2 0-1.2 1.2-1.2 3 0 4.2 1.2 1.2 3 1.2 4.2 0 1.2-1.2 1.2-3.1 0-4.2z" transform="translate(0 -952.362)"/></svg>