<svg id="Layer_1" xmlns="http://www.w3.org/2000/svg" viewBox="0 0 72 96"><style>.st0{fill:#6781b2}.st1{fill:#fff}</style><path class="st0" d="M0 2v92c0 1.1.9 2 2 2h68c1.1 0 2-.9 2-2V28H50c-1.1 0-2-.9-2-2V0H2C.9 0 0 .9 0 2z"/><path class="st0" d="M71.9 24c-.1-.4-.2-.7-.4-1L52 1.2V24h19.9z"/><path class="st1" d="M6 41h60v49H6zm.7-33.8h3.7c2.3 0 3.8 1.8 3.8 4.4S12.6 16 10.4 16H8.9v4.7H6.7V7.2zM10 14c1.2 0 2-.9 2-2.4 0-1.4-.8-2.4-1.9-2.4H8.9V14H10zm5.3-6.8h2.2v5.7h4V7.2h2.2v13.5h-2.2V15h-4v5.7h-2.2V7.2zm12.6 0h2.4l3.4 13.5h-2.2l-.8-3.5h-3.2l-.8 3.5h-2.2l3.4-13.5zm2.4 8.1l-.8-3.6c-.2-.8-.4-2.1-.4-2.1H29s-.2 1.3-.4 2.1l-.8 3.6h2.5zm4.2-8.1h3.8c.5 0 1.1.1 1.7.4 1.1.6 2 1.9 2 3.6 0 1.8-.9 3.1-1.9 3.7 0 0 .2.2.4.7l2.2 5h-2.4l-2-5h-1.4v5h-2.2V7.2zm3.4 6.4c.9 0 1.7-.8 1.7-2.2 0-.8-.3-1.5-.7-1.8-.3-.2-.7-.3-1-.3h-1.2v4.3h1.2z"/><path class="st0" d="M55.2 54.8L36 47.1l-7.6 3.1 19.2 7.6zm-31.6-2.7l-6.8 2.7L36 62.5l6.8-2.7zm-7.6 25l19.4 7.8V63.5L16 55.7zm32.4-18.3v6l-.8-.5-.8 1.1-.8-.4-.8 1.1-.8-.5-.8 1.1v-6l-7 2.8v21.4L56 77.1V55.7z"/><path class="st1" d="M20.4 68.5c.4.2.8.2 1 .1.2-.1.5-.3.7-.6.2-.3.3-.6.2-.7s-.3-.4-.7-.5l-.6-.4-1.1 1.8.5.3zM17.3 70s-.1 0 0 0c-.1-.1-.1-.1 0-.2l2.9-4.8.1-.1 2.1.8c.7.3 1.1.6 1.3 1.1.2.5.1 1-.3 1.6-.1.2-.3.5-.5.6-.2.2-.4.3-.7.4-.3.1-.6.2-.9.2-.3 0-.7-.1-1.1-.3l-.9-.3-.8 1.2-.1.1-1.1-.3zm8.5 1.7c-.1-.1-.1-.1 0-.2l1.3-2.1c.1-.2.2-.4.1-.4 0-.1-.1-.2-.4-.3l-.8-.3-1.6 2.6-.1.1-1.1-.4s-.1 0-.1-.1v-.1l2.9-4.8.1-.1 1.1.4s.1 0 .1.1v.1l-.7 1.2.8.3c.6.2 1 .5 1.2.9.2.3.1.8-.2 1.2L27 72l-.1.1-1.1-.4zm4.6.6c.4.2.8.2 1.1.1.3-.1.5-.3.7-.6.2-.3.3-.6.2-.7-.1-.2-.3-.4-.7-.5l-.7-.3-1.1 1.8.5.2zm-3.2 1.5c-.1-.1-.1-.1-.1-.2l3-4.8s.1-.1.2 0l2.2.8c.7.3 1.1.6 1.3 1.1.2.5.1 1-.3 1.6-.1.2-.3.5-.5.6-.2.2-.4.3-.7.4-.3.1-.7.2-1 .2-.3 0-.7-.1-1.2-.3l-.8-.2-.8 1.2s-.1.1-.2 0l-1.1-.4z"/></svg>