<svg id="Layer_1" xmlns="http://www.w3.org/2000/svg" viewBox="0 0 72 96"><style>.st0,.st2{fill:#f57e00}.st2{stroke:#f57e00;stroke-miterlimit:10}</style><path class="st0" d="M0 2v92c0 1.1.9 2 2 2h68c1.1 0 2-.9 2-2V28H50c-1.1 0-2-.9-2-2V0H2C.9 0 0 .9 0 2z"/><path class="st0" d="M71.9 24c-.1-.4-.2-.7-.4-1L52 1.2V24h19.9z"/><path d="M6 41h60v49H6zm.4-34.6H10c2.1 0 3.5 2 3.5 4.9 0 2.9-1.4 5-3.5 5H9v4.4H6.4V6.4zm3.1 7c.8 0 1.3-.9 1.3-2.1s-.5-2-1.2-2H9v4.1h.5zm5.5-7h3.6c2.1 0 3.5 2 3.5 4.9 0 2.9-1.4 5-3.5 5h-1v4.4H15V6.4zm3.1 7c.8 0 1.3-.9 1.3-2.1s-.5-2-1.2-2h-.5v4.1h.4zm7.3-4.1h-2.5V6.4h7.7v2.9H28v11.4h-2.6V9.3zm6.9-2.9h2.9l1.1 6c.2.9.3 2.4.3 2.4s.2-1.5.3-2.4l1.1-6h3l.7 14.3h-2.4l-.3-6.4c-.1-1.1 0-2.4 0-2.4h-.1s-.2 1.5-.4 2.4l-.7 4.1h-2.5l-.7-4.1c-.2-.9-.4-2.4-.4-2.4h-.1s.1 1.3 0 2.4l-.1 6.4h-2.4l.7-14.3z" fill="#fff"/><path class="st2" d="M53 47.7H19c-1.7 0-3.1 1.4-3.1 3.1v21.8c0 1.7 1.4 3.1 3.1 3.1h14.2L31.8 81h-1.6c-.7 0-1.2.5-1.2 1.2s.5 1.2 1.2 1.2h11.5c.7 0 1.2-.5 1.2-1.2s-.5-1.2-1.2-1.2H40l-1.4-5.4H53c1.7 0 3.1-1.4 3.1-3.1V50.8c0-1.7-1.4-3.1-3.1-3.1zm.3 25.1H18.7V50.6h34.5l.1 22.2z"/><path class="st2" d="M27.6 63.9h2.8v5.6h-2.8zm4.7-1.8h2.8v7.4h-2.8zm4.6-1.9h2.8v9.3h-2.8zm4.6-1.8h2.8v11.1h-2.8zm-.2-4.1L36.4 57l-3.6-1.2-6.1 3.3.9 1 5.4-2.8 3.6 1.2 5.6-3.1.9 1 2.1-3.5-4.8.3z"/></svg>