<svg id="Layer_1" xmlns="http://www.w3.org/2000/svg" viewBox="0 0 72 96"><style>.st0{fill:#999}</style><path class="st0" d="M0 2v92c0 1.1.9 2 2 2h68c1.1 0 2-.9 2-2V28H50c-1.1 0-2-.9-2-2V0H2C.9 0 0 .9 0 2z"/><path class="st0" d="M71.9 24c-.1-.4-.2-.7-.4-1L52 1.2V24h19.9z"/><path d="M6 41h60v49H6zm.6-34.5h3.5c2.2 0 3.7 1.9 3.7 4.6s-1.5 4.7-3.7 4.7H8.8v4.9H6.6V6.5zm3.2 7.1c1.1 0 1.9-1 1.9-2.5s-.8-2.5-1.8-2.5H8.8v5h1zm5.4-7.1h3.6c.5 0 1.1.1 1.6.4 1.1.6 1.9 2 1.9 3.8 0 1.9-.9 3.3-1.8 3.9 0 0 .2.3.4.8l2.1 5.3h-2.3l-1.9-5.3h-1.3v5.3h-2.1V6.5zm3.3 6.7c.9 0 1.7-.9 1.7-2.3 0-.8-.2-1.5-.7-1.9-.3-.2-.7-.3-1-.3h-1.2v4.6h1.2zm10.2-7c3 0 5 3 5 7.3s-1.9 7.4-5 7.4-5-3.1-5-7.4c0-4.2 1.9-7.3 5-7.3zm0 12.4c1.7 0 2.8-2 2.8-5.1 0-3-1-4.9-2.8-4.9-1.8 0-2.8 1.9-2.8 4.9 0 3.1 1 5.1 2.8 5.1zm6.7-12.1h3.5c2.2 0 3.7 1.9 3.7 4.6s-1.5 4.7-3.7 4.7h-1.4v4.9h-2.1V6.5zm3.1 7.1c1.1 0 1.9-1 1.9-2.5s-.8-2.5-1.8-2.5h-1.1v5h1z" fill="#fff"/><path class="st0" d="M26.7 75.1c0 .9.6 1.5 1.5 1.5h1.6V82c0 1.2 1.1 2.3 2.3 2.3 1.2 0 2.3-1.1 2.3-2.3v-5.4h3.1V82c0 1.2 1.1 2.3 2.3 2.3 1.2 0 2.3-1.1 2.3-2.3v-5.4h1.5c.9 0 1.5-.6 1.5-1.6V59.6H26.7v15.5zm-3.9-15.5c-1.2 0-2.3 1.1-2.3 2.3v10.8c0 1.2 1.1 2.3 2.3 2.3 1.2 0 2.3-1.1 2.3-2.3V61.9c0-1.2-1-2.3-2.3-2.3zm26.4 0c-1.2 0-2.3 1.1-2.3 2.3v10.8c0 1.2 1.1 2.3 2.3 2.3 1.2 0 2.3-1.1 2.3-2.3V61.9c0-1.2-1.1-2.3-2.3-2.3zm-7.8-9l2-2c.3-.3.3-.8 0-1.1-.3-.3-.8-.3-1.1 0L40 49.8c-1.1-.8-2.5-1.1-4-1.1-1.6 0-2.9.3-4.2.9l-2.2-2.3c-.3-.2-.9-.2-1.2 0-.2.3-.2.9 0 1.2l2 2c-2.2 1.7-3.7 4.3-3.7 7.4h18.6c0-3-1.5-5.7-3.9-7.3zm-8.5 4.3h-1.6v-1.5h1.6v1.5zm7.8 0h-1.6v-1.5h1.6v1.5z" id="android"/></svg>