<svg xmlns="http://www.w3.org/2000/svg" viewBox="0 0 72 96"><style>.st0{fill:#666}</style><path class="st0" d="M0 2v92c0 1.1.9 2 2 2h68c1.1 0 2-.9 2-2V28H50c-1.1 0-2-.9-2-2V0H2C.9 0 0 .9 0 2z"/><path class="st0" d="M71.9 24c-.1-.4-.2-.7-.4-1L52 1.2V24h19.9z"/><path d="M6 41h60v49H6zm.6-34.6h4.5c2.6 0 4.4 2 4.4 4.9 0 2.9-1.7 5-4.4 5H9.9v4.4H6.6V6.4zm3.9 7c1 0 1.6-.9 1.6-2.1s-.7-2-1.6-2h-.6v4.1h.6zm10 1.4l-3.6-8.4h3.6l1.1 3.4c.3 1 .5 2.1.5 2.1h.1s.2-1.1.5-2.1l1.1-3.4h3.6l-3.6 8.4v5.9h-3.3v-5.9zm14.6-8.7c1.3 0 2.6.4 3.6 1.2l-1.4 2.8c-.4-.5-1.3-.9-2.1-.9-2.1 0-3.2 1.9-3.2 4.2 0 2.3 1.2 4.4 3.2 4.4 1 0 1.7-.5 2.3-1l1.4 2.8c-.9.7-2 1.3-3.9 1.3-4 0-6.3-3.1-6.3-7.4 0-4.2 2.4-7.4 6.4-7.4z" fill="#fff"/><path class="st0" d="M34.5 83.4c-4.4-.1-7.2-1.5-7.9-3.8l-.1-.3v-4.5c0-5.2 0-5.3.3-6.1.5-1.5 1.7-2.5 3.5-2.9l.4-.1h5.1c3.7 0 5.2 0 5.4-.1 1.1-.2 1.7-.4 2.3-.9.8-.6 1.4-1.6 1.6-2.6.2-.8.2-.7.2-3.5v-2.5h3.6l.4.1c1.9.6 3.3 2.3 3.9 5.1.2 1.1.2 1.1.2 3.8 0 2.6 0 2.6-.2 3.5-.2.8-.4 1.6-.8 2.3-.7 1.4-1.8 2.4-3.1 2.8-.8.3-.1.2-7.5.3h-6.7v1.2h8.8v4.6c-.1.3-.1.6-.4 1s-.8.9-1.1 1.2c-1.2.8-3 1.3-5.4 1.4h-2.5zm6.1-2.8c.8-.1 1.5-1 1.3-1.8-.1-.7-.6-1.2-1.3-1.3-1.1-.1-2 .8-1.8 1.8.1.8.8 1.3 1.6 1.3h.2zm-19-6.5c-1-.2-2-.8-2.7-1.7-1.3-1.6-2-4.4-1.9-7.8.1-2.1.4-3.7 1.1-5.1.8-1.8 2.1-2.7 3.8-3.1.4-.1.4-.1 6.9-.1h6.6c.1 0 .1-.1.1-.6v-.6h-8.8v-2.3c0-2.5 0-2.5.2-3 .8-1.6 3-2.6 6.5-2.9.3 0 .9-.1 1.6-.1 3.9-.1 6.8.6 8.3 2l.5.5c.2.3.5.8.6 1.3l.1.3v4.8c0 4.4 0 4.8-.1 5.1-.1.4-.3 1-.4 1.3-.6 1.1-1.6 1.8-2.9 2.2-.8.2-.5.2-6.1.3-5.6 0-5.3 0-6.1.2-1.6.4-2.7 1.6-3.1 3.3-.2.8-.2.7-.2 3.5v2.6h-1.7c-1.7 0-2.2 0-2.3-.1zM31 52.7c.6-.3 1.1-1.1.9-1.7s-.6-1.1-1.1-1.3c-.9-.3-1.9.3-2 1.3-.1.8.3 1.6 1.1 1.8.1.1.3.1.6.1.2-.1.2-.1.5-.2z"/><path class="st0" d="M21.6 74.1c-1-.2-2-.8-2.7-1.7-1.3-1.6-2-4.4-1.9-7.8.1-2.1.4-3.7 1.1-5.1.8-1.8 2.1-2.7 3.8-3.1.4-.1.4-.1 6.9-.1h6.6c.1 0 .1-.1.1-.6v-.6h-8.8v-2.3c0-2.5 0-2.5.2-3 .8-1.6 3-2.6 6.5-2.9.3 0 .9-.1 1.6-.1 3.9-.1 6.8.6 8.3 2l.5.5c.2.3.5.8.6 1.3l.1.3v4.8c0 4.4 0 4.8-.1 5.1-.1.4-.3 1-.4 1.3-.6 1.1-1.6 1.8-2.9 2.2-.8.2-.5.2-6.1.3-5.6 0-5.3 0-6.1.2-1.6.4-2.7 1.6-3.1 3.3-.2.8-.2.7-.2 3.5v2.6h-1.7c-1.7 0-2.2 0-2.3-.1zM31 52.7c.6-.3 1.1-1.1.9-1.7s-.6-1.1-1.1-1.3c-.9-.3-1.9.3-2 1.3-.1.8.3 1.6 1.1 1.8.1.1.3.1.6.1.2-.1.2-.1.5-.2z"/></svg>