<svg id="Layer_1" xmlns="http://www.w3.org/2000/svg" viewBox="0 0 72 96"><style>.st0{fill:#fff}.st2{fill:#bababa}</style><path class="st0" d="M0 2v92c0 1.1.9 2 2 2h68c1.1 0 2-.9 2-2V28H50c-1.1 0-2-.9-2-2V0H2C.9 0 0 .9 0 2z"/><path class="st0" d="M71.9 24c-.1-.4-.2-.7-.4-1L52 1.2V24h19.9z"/><path d="M10.1 70.4h4.5c.6 0 1.3.1 1.9.4 1.4.6 2.4 2.1 2.4 4 0 1.7-.8 3.3-2 4 0 0 .2.2.5.9l2.3 5h-3.6l-2-4.8h-.8v4.8h-3.2V70.4zM14 77c.9 0 1.6-.7 1.6-1.9 0-.7-.2-1.2-.6-1.5-.3-.2-.6-.3-.9-.3h-.7V77h.6zm7.8-6.6H29v2.9h-3.9V76h3.1v2.9h-3.1v2.9h4.1v2.9h-7.4V70.4zM34 73.3h-3.1v-2.9h9.6v2.9h-3.2v11.4H34V73.3zm8.8-2.9h4.5c.6 0 1.3.1 1.9.4 1.4.6 2.4 2.1 2.4 4 0 1.7-.8 3.3-2 4 0 0 .2.2.5.9l2.3 5h-3.6l-2-4.8H46v4.8h-3.3l.1-14.3zm3.9 6.6c.9 0 1.6-.7 1.6-1.9 0-.7-.2-1.2-.6-1.5-.3-.2-.6-.3-.9-.3H46V77h.7zm9.9 1.8L53 70.4h3.6l1.1 3.4c.3 1 .5 2.1.5 2.1h.1s.2-1.1.5-2.1l1.1-3.4h3.6l-3.6 8.4v5.9h-3.3c-.1 0-.1-5.9 0-5.9z" fill="#666"/><path class="st2" d="M0 94V2C0 .9.9 0 2 0h48c.6 0 1.1.2 1.5.7l20 22.3c.3.4.5.8.5 1.3V94c0 1.1-.9 2-2 2H2c-1.1 0-2-.9-2-2zm68-68.9L49.1 4H4v88h64V25.1z"/><path class="st2" d="M48 26V4c0-1.1.9-2 2-2s2 .9 2 2v20h16c1.1 0 2 .9 2 2s-.9 2-2 2H50c-1.1 0-2-.9-2-2zm4.7 20.8c0 8.7-7 15.7-15.7 15.7s-15.7-7-15.7-15.7c0-3 .9-5.8 2.4-8.2l5.1 2.9c-1 1.5-1.6 3.3-1.6 5.3 0 5.4 4.4 9.8 9.8 9.8s9.8-4.4 9.8-9.8c0-4.5-3.1-8.3-7.3-9.5v5l-14.6-8.4 14.6-8.4v5.8C47 32.5 52.7 39 52.7 46.8z"/></svg>