<svg id="Layer_1" xmlns="http://www.w3.org/2000/svg" viewBox="0 0 72 96"><style>.st0{fill:#f60}</style><path class="st0" d="M0 2v92c0 1.1.9 2 2 2h68c1.1 0 2-.9 2-2V28H50c-1.1 0-2-.9-2-2V0H2C.9 0 0 .9 0 2z"/><path class="st0" d="M71.9 24c-.1-.4-.2-.7-.4-1L52 1.2V24h19.9z"/><path d="M6 41h60v49H6zm.6-34.6h4.5c.6 0 1.3.1 1.9.4 1.4.6 2.4 2.1 2.4 4 0 1.7-.8 3.3-2 4 0 0 .2.2.5.9l2.3 5h-3.6l-2-4.8h-.7v4.8H6.6V6.4zm3.9 6.6c.9 0 1.6-.7 1.6-1.9 0-.7-.2-1.2-.6-1.5-.3-.2-.6-.3-.9-.3h-.7V13h.6zm8.8-6.6H23l1.3 6c.2.9.4 2.4.4 2.4h.1s.2-1.5.4-2.4l1.3-6h3.6l.9 14.3h-3l-.4-6.4c-.1-1.1 0-2.4 0-2.4h-.1s-.2 1.5-.4 2.4l-.9 4.1H23l-.9-4.1c-.2-.9-.4-2.4-.4-2.4h-.1s.1 1.3 0 2.4l-.4 6.4h-3l1.1-14.3z" fill="#fff"/><path class="st0" d="M13 83.1h46V47.9H13v35.2zm8.9-2.7h-5.5v-3.9h5.5v3.9zm16.9 0h-5.5v-3.9h5.5v3.9zm11.3-30.1h5.5v4h-5.5v-4zm0 26.1h5.5v3.9h-5.5v-3.9zm-8.5-26.1H47v3.9h-5.5v-3.9zm0 26.1H47v3.9h-5.5l.1-3.9zm-8.4-26.1h5.5v3.9h-5.5v-3.9zm-.8 9.7l7.2 4.1c1.3.8 1.3 2 0 2.8L32.4 71c-1.3.8-2.4.1-2.4-1.4v-8.3c0-1.4 1.1-2.1 2.4-1.3zm-7.7-9.7h5.4v3.9h-5.4v-3.9zm0 26.1h5.4v3.9h-5.4v-3.9zm-8.3-26.1h5.5v4h-5.5v-4z"/></svg>