<svg id="Layer_1" xmlns="http://www.w3.org/2000/svg" viewBox="0 0 72 96"><style>.st0{fill:#099}</style><path class="st0" d="M0 2v92c0 1.1.9 2 2 2h68c1.1 0 2-.9 2-2V28H50c-1.1 0-2-.9-2-2V0H2C.9 0 0 .9 0 2z"/><path class="st0" d="M71.9 24c-.1-.4-.2-.7-.4-1L52 1.2V24h19.9z"/><path d="M6 41h60v49H6zm.6-34.6h4.5c.6 0 1.3.1 1.9.4 1.4.6 2.4 2.1 2.4 4 0 1.7-.8 3.3-2 4 0 0 .2.2.5.9l2.3 5h-3.6l-2-4.8h-.7v4.8H6.6V6.4zm3.9 6.6c.9 0 1.6-.7 1.6-1.9 0-.7-.2-1.2-.6-1.5-.3-.2-.6-.3-.9-.3h-.7V13h.6zm12.1-6.9c3.8 0 5.9 3.1 5.9 7.3 0 4.2-2.1 7.5-5.9 7.5s-5.8-3.2-5.8-7.5c0-4.1 2.1-7.3 5.8-7.3zm0 11.7c1.7 0 2.5-1.8 2.5-4.3s-.8-4.2-2.5-4.2-2.5 1.7-2.5 4.2.8 4.3 2.5 4.3zm8-11.4h3.6l1.3 6c.2.9.4 2.4.4 2.4h.1s.2-1.5.4-2.4l1.3-6h3.6l.9 14.3h-3l-.2-6.4c-.1-1.1 0-2.4 0-2.4h-.1s-.2 1.5-.4 2.4l-.9 4.1h-3.2l-.9-4.1c-.2-.9-.4-2.4-.4-2.4H33s.1 1.3 0 2.4l-.4 6.4h-3l1-14.3z" fill="#fff"/><path class="st0" d="M49 49.8H23.5v3.5h-5.2v1.1h-2.8v1h2.8v1.3h5.2v6.1h-5.2V64h-2.8v1h2.8v1.1h5.2v6.6h-5.2v1.2h-2.8v1h2.8V76h5.2v4.7H49V76h4.7v-1.2h2.8v-1h-2.8v-1.2H49V66h4.7v-1h2.8v-1h-2.8v-1.3H49v-6.1h4.7v-1.3h2.8v-1h-2.8v-1.1H49v-3.4zm-4.9 8.3c-1.1 0-2-.9-2-2s.9-2 2-2 2 .9 2 2c0 1.2-.9 2-2 2z"/></svg>