<svg id="Layer_1" xmlns="http://www.w3.org/2000/svg" viewBox="0 0 72 96"><style>.st0{fill:#666}</style><path class="st0" d="M0 2v92c0 1.1.9 2 2 2h68c1.1 0 2-.9 2-2V28H50c-1.1 0-2-.9-2-2V0H2C.9 0 0 .9 0 2z"/><path class="st0" d="M71.9 24c-.1-.4-.2-.7-.4-1L52 1.2V24h19.9z"/><path d="M6 41h60v49H6zm.6-34.6h4.5c.6 0 1.3.1 1.9.4 1.4.6 2.4 2.1 2.4 4 0 1.7-.8 3.3-2 4 0 0 .2.2.5.9l2.3 5h-3.6l-2-4.8h-.7v4.8H6.6V6.4zm3.9 6.6c.9 0 1.6-.7 1.6-1.9 0-.7-.2-1.2-.6-1.5-.3-.2-.6-.3-.9-.3h-.7V13h.6zm10.4-3.7h-3.1V6.4h9.6v2.9h-3.2v11.4h-3.3V9.3zm9.2-2.9h7.1v2.9h-3.8v3.1h3.1v2.9h-3.1v5.4h-3.3V6.4z" fill="#fff"/><path class="st0" d="M14.6 77.2h42.8v6.2H14.6zm0-14.8h42.8v6.2H14.6zm0-15h42.8v6.2H14.6z"/></svg>