<svg id="Layer_1" xmlns="http://www.w3.org/2000/svg" viewBox="0 0 72 96"><style>.st0{fill:#90c}</style><path class="st0" d="M0 2v92c0 1.1.9 2 2 2h68c1.1 0 2-.9 2-2V28H50c-1.1 0-2-.9-2-2V0H2C.9 0 0 .9 0 2z"/><path class="st0" d="M71.9 24c-.1-.4-.2-.7-.4-1L52 1.2V24h19.9z"/><path d="M6 41h60v49H6zm1.3-24.3c.6.6 1.4 1.2 2.3 1.2.9 0 1.3-.6 1.3-1.2 0-2-4.8-2.1-4.8-6.2 0-2.4 1.7-4.3 4.5-4.3 1.2 0 2.4.3 3.4 1l-1 2.9c-.5-.4-1.4-.9-2.2-.9-.9 0-1.3.6-1.3 1.2 0 2.1 4.8 2 4.8 6.1 0 2.3-1.5 4.4-4.4 4.4-1.4 0-2.9-.5-4-1.4l1.4-2.8zm10-10.3h3.3v14.3h-3.3V6.4zm9.2 2.9h-3.1V6.4H33v2.9h-3.2v11.4h-3.3V9.3z" fill="#fff"/><path class="st0" d="M51.1 57.5h-5.7v-5.7l5.7 5.7zm-15.3-5.7v20.7h15.4V58.9H44v-7.1h-8.2zm2.4-5.4h-17v4h6.7l-4.2 3.3v3.5l6.2-4.8v-1.9h21.6v-1.6l-13.3-2.5zm-8.3 8.7l-6.2 4.8v3.5l6.2-4.8v-3.5zm-6.3 14.4l6.2-4.8v-3.5L23.6 66v3.5zm6.3 1.4v-3.5l-6.2 4.8V74h-2.5v4H25v2.8h-2.2c-.4-.7-1.1-1.2-2-1.2-1.3 0-2.3 1-2.3 2.3 0 1.3 1 2.3 2.3 2.3.9 0 1.6-.5 2-1.2H25v2.1h3.4V83h2.2c.4.7 1.1 1.2 2 1.2 1.3 0 2.3-1 2.3-2.3 0-1.3-1-2.3-2.3-2.3-.9 0-1.6.5-2 1.2h-2.2V78h9.7l13.3-2.4V74H25.7l4.2-3.1z"/></svg>