<svg id="Layer_1" xmlns="http://www.w3.org/2000/svg" viewBox="0 0 72 96"><style>.st0,.st2{fill:#c60}.st2{stroke:#c60;stroke-miterlimit:10}</style><path class="st0" d="M0 2v92c0 1.1.9 2 2 2h68c1.1 0 2-.9 2-2V28H50c-1.1 0-2-.9-2-2V0H2C.9 0 0 .9 0 2z"/><path class="st0" d="M71.9 24c-.1-.4-.2-.7-.4-1L52 1.2V24h19.9z"/><path d="M6 41h60v49H6V41zm1-24.3c.4.6 1.1 1.2 1.9 1.2.7 0 1-.6 1-1.2 0-2-3.8-2.1-3.8-6.2C6 8 7.4 6.1 9.7 6.1c.9 0 2 .3 2.7 1l-.9 2.9c-.4-.4-1.2-.9-1.7-.9-.8 0-1.1.6-1.1 1.2 0 2.1 3.8 2 3.8 6.1 0 2.3-1.2 4.4-3.6 4.4-1.1 0-2.3-.5-3.2-1.4L7 16.7zm7.1-10.3h2.6v11.4h3.4v2.9H14V6.4h.1zm7.5 0h3.3c2.9 0 4.7 2.6 4.7 7.1s-1.8 7.2-4.7 7.2h-3.3V6.4zm3.3 11.4c1.3 0 2.1-1.5 2.1-4.3s-.8-4.2-2.1-4.2h-.7v8.5h.7zm8.1-4.2l-2.8-7.2h2.9l.9 2.9c.3.9.4 1.8.4 1.8s.2-.9.5-1.8L36 6.4h2.9l-2.8 7.2 2.7 7.1H36l-.9-3c-.3-.9-.5-1.7-.5-1.7s-.2.8-.4 1.7l-.9 3h-2.8l2.5-7.1z" fill="#fff"/><path class="st2" d="M53 47.7H19c-1.7 0-3.1 1.4-3.1 3.1v21.8c0 1.7 1.4 3.1 3.1 3.1h14.2L31.8 81h-1.6c-.7 0-1.2.5-1.2 1.2s.5 1.2 1.2 1.2h11.5c.7 0 1.2-.5 1.2-1.2s-.5-1.2-1.2-1.2H40l-1.4-5.4H53c1.7 0 3.1-1.4 3.1-3.1V50.8c0-1.7-1.4-3.1-3.1-3.1zm.3 25.1H18.7V50.6h34.5l.1 22.2z"/><path class="st2" d="M27.6 63.9h2.8v5.6h-2.8v-5.6zm4.7-1.8h2.8v7.4h-2.8v-7.4zm4.6-1.9h2.8v9.3h-2.8v-9.3zm4.6-1.8h2.8v11.1h-2.8V58.4zm-.2-4.1L36.4 57l-3.6-1.2-6.1 3.3.9 1 5.4-2.8 3.6 1.2 5.6-3.1.9 1 2.1-3.5-4.8.3.9 1.1z"/></svg>