<svg xmlns="http://www.w3.org/2000/svg" viewBox="0 0 72 96"><style>.st0{fill:#fea500}</style><path class="st0" d="M0 2v92c0 1.1.9 2 2 2h68c1.1 0 2-.9 2-2V28H50c-1.1 0-2-.9-2-2V0H2C.9 0 0 .9 0 2z"/><path class="st0" d="M71.9 24c-.1-.4-.2-.7-.4-1L52 1.2V24h19.9z"/><path d="M6 41h60v49H6zm1.3-24.3c.6.6 1.4 1.2 2.3 1.2.9 0 1.3-.6 1.3-1.2 0-2-4.8-2.1-4.8-6.2 0-2.4 1.7-4.3 4.5-4.3 1.2 0 2.4.3 3.4 1l-1 2.9c-.5-.4-1.4-.9-2.2-.9-.9 0-1.3.6-1.3 1.2 0 2.1 4.8 2 4.8 6.1 0 2.3-1.5 4.4-4.4 4.4-1.4 0-2.9-.5-4-1.4l1.4-2.8zM22.6 6.1c3.8 0 5.9 3.1 5.9 7.3 0 4.2-2.1 7.5-5.9 7.5s-5.8-3.2-5.8-7.5c-.1-4.1 2-7.3 5.8-7.3zm0 11.7c1.7 0 2.5-1.8 2.5-4.3s-.8-4.2-2.5-4.2-2.5 1.7-2.5 4.2.8 4.3 2.5 4.3zm9-11.4h3.3v11.4h4.3v2.9h-7.6V6.4z" fill="#fff"/><circle class="st0" cx="36" cy="65.5" r="10.4"/><path class="st0" d="M35.3 53.9h1.5c.5 0 .8-.4.8-.8v-5.2c0-.5-.4-.8-.8-.8h-1.5c-.5 0-.8.4-.8.8V53c-.1.5.3.9.8.9zm12.3 10.9v1.5c0 .5.4.8.8.8h5.2c.5 0 .8-.4.8-.8v-1.5c0-.5-.4-.8-.8-.8h-5.2c-.4-.1-.8.3-.8.8zM36.7 84c.5 0 .8-.4.8-.8V78c0-.5-.4-.8-.8-.8h-1.5c-.5 0-.8.4-.8.8v5.2c0 .5.4.8.8.8h1.5zM18.3 67.1h5.2c.5 0 .8-.4.8-.8v-1.5c0-.5-.4-.8-.8-.8h-5.2c-.5 0-.8.4-.8.8v1.5c0 .4.4.8.8.8zm26.4-9.3c.3.3.9.3 1.2 0l3.7-3.7c.3-.3.3-.9 0-1.2l-1-1c-.3-.3-.9-.3-1.2 0l-3.7 3.7c-.3.3-.3.9 0 1.2l1 1zm3.9 21.3l1-1c.3-.3.3-.9 0-1.2l-3.7-3.7c-.3-.3-.9-.3-1.2 0l-1 1c-.3.3-.3.9 0 1.2l3.7 3.7c.3.3.8.3 1.2 0zm-24 0l3.7-3.7c.3-.3.3-.9 0-1.2l-1-1c-.3-.3-.9-.3-1.2 0l-3.7 3.7c-.3.3-.3.9 0 1.2l1 1c.4.3.9.3 1.2 0zm1.5-21.3c.3.3.9.3 1.2 0l1-1c.3-.3.3-.9 0-1.2l-3.7-3.7c-.3-.3-.9-.3-1.2 0l-1 1c-.3.3-.3.9 0 1.2l3.7 3.7z"/></svg>