<svg xmlns="http://www.w3.org/2000/svg" viewBox="0 0 72 96"><style>.st0{fill:#4d1b9b}</style><path class="st0" d="M0 2v92c0 1.1.9 2 2 2h68c1.1 0 2-.9 2-2V28H50c-1.1 0-2-.9-2-2V0H2C.9 0 0 .9 0 2z"/><path class="st0" d="M71.9 24c-.1-.4-.2-.7-.4-1L52 1.2V24h19.9z"/><path d="M6 41h60v49H6zM8.9 9.3H5.7V6.4h9.6v2.9h-3.2v11.4H8.9V9.3zm10.5-2.9H23l3.6 14.3h-3.3l-.6-3h-3l-.6 3h-3.3l3.6-14.3zm2.8 8.6l-.6-2.8c-.2-.9-.4-2.5-.4-2.5h-.1s-.2 1.5-.4 2.5l-.5 2.8h2zm6.9-8.6h4.5c.6 0 1.3.1 1.9.4 1.4.6 2.4 2.1 2.4 4 0 1.7-.8 3.3-2 4 0 0 .2.2.5.9l2.3 5h-3.6l-2-4.8h-.8v4.8H29V6.4zM33 13c.9 0 1.6-.7 1.6-1.9 0-.7-.2-1.2-.6-1.5-.3-.2-.6-.3-.9-.3h-.7V13h.6z" fill="#fff"/><path class="st0" d="M43.6 68.3l-7.3-3.4L51 58l7.3 3.4-7.3 3.5-7.4 3.4zM51 51.2l-7.3-3.4-7.3 3.4L51 58.1l7.3-3.4-7.3-3.5zM28.9 61.4L21.6 58l-7.3 3.4L29 68.3l7.3-3.4-7.4-3.5zm0-6.8l7.3-3.4-7.3-3.4-14.7 6.9 7.3 3.4 7.4-3.5zM51 66.9l-6.6 3-.8.4-.8-.4-6.6-3-6.6 3-.8.4-.8-.4-6.6-3v10.7l14.7 7.7L51 77.6V66.9z"/></svg>