<svg id="Layer_1" xmlns="http://www.w3.org/2000/svg" viewBox="0 0 72 96"><style>.st0{fill:#83ad51}</style><path class="st0" d="M0 2v92c0 1.1.9 2 2 2h68c1.1 0 2-.9 2-2V28H50c-1.1 0-2-.9-2-2V0H2C.9 0 0 .9 0 2z"/><path class="st0" d="M71.9 24c-.1-.4-.2-.7-.4-1L52 1.2V24h19.9z"/><path d="M6 41h60v49H6V41zM8.9 9.3H5.7V6.4h9.6v2.9h-3.2v11.4H8.9V9.3zm10-2.9h3.6l3.6 14.3h-3.3l-.6-3h-3l-.6 3h-3.3l3.6-14.3zm2.8 8.6l-.6-2.8c-.2-.9-.4-2.5-.4-2.5h-.1s-.2 1.5-.4 2.5l-.5 2.8h2zm8.8-1.4L27 6.4h3.6l1.1 2.9.6 1.8s.2-.9.6-1.8l1.2-2.9h3.6l-3.4 7.2 3.3 7.1h-3.5l-1.1-3c-.4-.9-.6-1.7-.6-1.7s-.2.8-.6 1.7l-1.1 3h-3.5l3.3-7.1z" fill="#fff"/><path d="M29.7 46.6c-2.8 0-5.2 2.3-5.2 5.2 0 2.8 2.3 5.2 5.2 5.2.9 0 1.7-.2 2.4-.6l2.1 2.1-6 6c-1 1-1 2.7 0 3.7l.2.2 12.1-12.1c.7.4 1.6.6 2.4.6 2.8 0 5.2-2.3 5.2-5.2 0-2.8-2.3-5.2-5.2-5.2-2.8 0-5.2 2.3-5.2 5.2 0 .9.2 1.7.6 2.4l-2.1 2.1-2.1-2.1c.4-.7.6-1.6.6-2.4.2-2.8-2.2-5.1-5-5.1zm0 3c1.2 0 2.2 1 2.2 2.2s-1 2.2-2.2 2.2-2.2-1-2.2-2.2c0-1.3 1-2.2 2.2-2.2zm13.3 0c1.2 0 2.2 1 2.2 2.2S44.2 54 43 54s-2.2-1-2.2-2.2c0-1.3 1-2.2 2.2-2.2zM20.1 59.9c-.2 0-.4 0-.6.1-.2 0-.4.1-.6.2-.2.1-.3.2-.5.3-.1.1-.3.2-.4.3s-.2.3-.3.4c-.1.1-.2.3-.3.5-.1.2-.1.3-.2.5v.1c0 .2-.1.4-.1.6v17.8c0 .2 0 .4.1.6 0 .2.1.4.2.6s.2.3.3.5c.1.1.2.3.3.4.1.1.3.2.4.3.1.1.3.2.5.3.2.1.3.1.5.2h.1c.2 0 .4.1.6.1h32.6c.2 0 .4 0 .6-.1.2 0 .4-.1.6-.2.2-.1.3-.2.5-.3.1-.1.3-.2.4-.3.1-.1.2-.3.3-.4s.2-.3.3-.5.1-.3.2-.5v-.1c0-.2.1-.4.1-.6V62.9c0-.2 0-.4-.1-.6 0-.2-.1-.4-.2-.6-.1-.2-.2-.3-.3-.5-.1-.1-.2-.3-.3-.4-.1-.1-.3-.2-.4-.3-.1-.1-.3-.2-.5-.3s-.3-.1-.5-.2h-.1c-.2 0-.4-.1-.6-.1H40.8l-3 3h11.8c0 1.6 1.3 3 3 3v11.8c-1.6 0-3 1.3-3 3H23c0-1.6-1.3-3-3-3V65.8c1.6 0 3-1.3 3-3h3.4l3-3-9.3.1zm16.3 5.9c-3.3 0-5.9 3-5.9 6.7 0 2.1.9 4 2.2 5.2H40c1.4-1.2 2.2-3.1 2.2-5.2.1-3.7-2.6-6.7-5.8-6.7zm-11.9 4.5c-.8 0-1.5.7-1.5 1.5s.7 1.5 1.5 1.5 1.5-.7 1.5-1.5-.7-1.5-1.5-1.5zm23.7 0c-.8 0-1.5.7-1.5 1.5s.7 1.5 1.5 1.5 1.5-.7 1.5-1.5-.7-1.5-1.5-1.5z" fill="#83ad51" stroke="#83ad51" stroke-width=".25" stroke-miterlimit="10"/></svg>