<svg id="Layer_1" xmlns="http://www.w3.org/2000/svg" viewBox="0 0 72 96"><style>.st0{fill:#90c}</style><path class="st0" d="M0 2v92c0 1.1.9 2 2 2h68c1.1 0 2-.9 2-2V28H50c-1.1 0-2-.9-2-2V0H2C.9 0 0 .9 0 2z"/><path class="st0" d="M71.9 24c-.1-.4-.2-.7-.4-1L52 1.2V24h19.9z"/><path d="M6 41h60v49H6zM8.9 9.3H5.7V6.4h9.6v2.9h-3.2v11.4H8.9V9.3zm14.2-3.2c1.4 0 2.9.4 3.9 1.3l-1.4 2.8c-.6-.6-1.4-.9-2.3-.9-2.2 0-3.2 1.9-3.2 4.2 0 2.6 1.2 4.3 2.9 4.3.6 0 1.3-.2 1.7-.6v-1.7h-1.5v-2.9h4.3v8.1h-2.6v-.9c-.5.7-1.6 1.2-2.7 1.2-2.8 0-5.6-2.7-5.6-7.3.2-4.5 2.7-7.6 6.5-7.6zm7.3 12.4l4.2-7.9c.5-.9.8-1.3.8-1.3s-.3.1-.8.1h-4v-3h8.7v2.2l-4.2 8c-.5.9-.8 1.3-.8 1.3s.3-.1.8-.1h4.3v2.9h-8.9v-2.2z" fill="#fff"/><path class="st0" d="M51.1 57.5h-5.7v-5.7l5.7 5.7zm-15.3-5.7v20.7h15.4V58.9H44v-7.1h-8.2zm2.4-5.4h-17v4h6.7l-4.2 3.3v3.5l6.2-4.8v-1.9h21.6v-1.6l-13.3-2.5zm-8.3 8.7l-6.2 4.8v3.5l6.2-4.8v-3.5zm-6.3 14.4l6.2-4.8v-3.5L23.6 66v3.5zm6.3 1.4v-3.5l-6.2 4.8V74h-2.5v4H25v2.8h-2.2c-.4-.7-1.1-1.2-2-1.2-1.3 0-2.3 1-2.3 2.3 0 1.3 1 2.3 2.3 2.3.9 0 1.6-.5 2-1.2H25v2.1h3.4V83h2.2c.4.7 1.1 1.2 2 1.2 1.3 0 2.3-1 2.3-2.3 0-1.3-1-2.3-2.3-2.3-.9 0-1.6.5-2 1.2h-2.2V78h9.7l13.3-2.4V74H25.7l4.2-3.1z"/></svg>