<svg xmlns="http://www.w3.org/2000/svg" viewBox="0 0 72 96"><style>.st0{fill:#3c3}</style><path class="st0" d="M0 2v92c0 1.1.9 2 2 2h68c1.1 0 2-.9 2-2V28H50c-1.1 0-2-.9-2-2V0H2C.9 0 0 .9 0 2z"/><path class="st0" d="M71.9 24c-.1-.4-.2-.7-.4-1L52 1.2V24h19.9z"/><path d="M6 41h60v49H6zM8.9 9.3H5.7V6.4h9.6v2.9h-3.2v11.4H8.9V9.3zm9.2-2.9h3.3v14.3h-3.3V6.4zm6.9 0h7.1v2.9h-3.8v3.1h3.1v2.9h-3.1v5.4H25V6.4zm10.1 0h7.1v2.9h-3.8v3.1h3.1v2.9h-3.1v5.4h-3.3V6.4z" fill="#fff"/><path class="st0" d="M14 48.5v33.9h44V48.5H14zM55.5 51v14.8l-10.5-8-11.5 11.5-8.1-4.5-8.8 7V51h38.9z"/><circle class="st0" cx="23" cy="57.6" r="3.1"/></svg>