<svg id="Layer_1" xmlns="http://www.w3.org/2000/svg" viewBox="0 0 72 96"><style>.st0{fill:#1f7244}</style><path class="st0" d="M0 2v92c0 1.1.9 2 2 2h68c1.1 0 2-.9 2-2V28H50c-1.1 0-2-.9-2-2V0H2C.9 0 0 .9 0 2z"/><path class="st0" d="M71.9 24c-.1-.4-.2-.7-.4-1L52 1.2V24h19.9z"/><path d="M6 41h60v49H6zM8.9 9.3H5.7V6.4h9.6v2.9h-3.2v11.4H8.9V9.3zm9.9 7.4c.6.6 1.4 1.2 2.3 1.2.9 0 1.3-.6 1.3-1.2 0-2-4.8-2.1-4.8-6.2 0-2.4 1.7-4.3 4.5-4.3 1.2 0 2.4.3 3.4 1l-1.2 2.9c-.5-.4-1.4-.9-2.2-.9-.9 0-1.3.6-1.3 1.2 0 2.1 4.8 2 4.8 6.1 0 2.3-1.5 4.4-4.4 4.4-1.4 0-2.9-.5-4-1.4l1.6-2.8zm8.7-10.3h3.6l1.6 8.1c.2.9.3 2.3.3 2.3h.1s.2-1.4.3-2.3l1.7-8.1h3.5l-3.9 14.3h-3.3L27.5 6.4z" fill="#fff"/><path d="M14 54h8.5m3.3 0h8.5m3.4 0h8.5m3.3 0H58m-44 5.9h8.5m3.3 0h8.5m3.4 0h8.5m3.3 0H58m-44 5.9h8.5m3.3 0h8.5m3.4 0h8.5m3.3 0H58m-44 5.9h8.5m3.3 0h8.5m3.4 0h8.5m3.3 0H58m-44 5.9h8.5m3.3 0h8.5m3.4 0h8.5m3.3 0H58" fill="none" stroke="#1f7244" stroke-width="3" stroke-miterlimit="10"/></svg>