<svg id="Layer_1" xmlns="http://www.w3.org/2000/svg" viewBox="0 0 72 96"><style>.st0{fill:#666}</style><path class="st0" d="M0 2v92c0 1.1.9 2 2 2h68c1.1 0 2-.9 2-2V28H50c-1.1 0-2-.9-2-2V0H2C.9 0 0 .9 0 2z"/><path class="st0" d="M71.9 24c-.1-.4-.2-.7-.4-1L52 1.2V24h19.9z"/><path d="M6 41h60v49H6zM8.9 9.3H5.7V6.4h9.6v2.9h-3.2v11.4H8.9V9.3zm11.5 4.3L17 6.4h3.6l1.1 2.9.6 1.8s.2-.9.6-1.8l1.2-2.9h3.6l-3.4 7.2 3.3 7.1H24l-1.1-3c-.4-.9-.6-1.7-.6-1.7s-.2.8-.6 1.7l-1.1 3h-3.5l3.3-7.1zm12.1-4.3h-3.1V6.4H39v2.9h-3.2v11.4h-3.3V9.3z" fill="#fff"/><path class="st0" d="M14.6 77.2h42.8v6.2H14.6zm0-14.8h42.8v6.2H14.6zm0-15h42.8v6.2H14.6z"/></svg>