<svg id="Layer_1" xmlns="http://www.w3.org/2000/svg" viewBox="0 0 72 96"><style>.st0{fill:#4d1b9b}</style><path class="st0" d="M0 2v92c0 1.1.9 2 2 2h68c1.1 0 2-.9 2-2V28H50c-1.1 0-2-.9-2-2V0H2C.9 0 0 .9 0 2z"/><path class="st0" d="M71.9 24c-.1-.4-.2-.7-.4-1L52 1.2V24h19.9z"/><path d="M6 41h60v49H6zM5.7 6.5h1.8l1.2 9.8c.1.7.1 1.6.1 1.6h.1s0-.9.1-1.6l1.3-9.8H12l1.2 9.8c.1.7.1 1.6.1 1.6h.1s0-.9.1-1.6l1.2-9.8h1.8l-1.9 14.2h-2.1l-1.1-8.4c-.1-.9-.1-1.9-.1-1.9h-.1s0 .9-.2 1.9l-1.1 8.4H7.7l-2-14.2zm12.3 0h2l1.4 6.9c.2.9.3 2.2.3 2.2s.2-1.3.3-2.2l1.4-6.9h2l.7 14.2h-1.7l-.4-7.9v-2.2s-.2 1.4-.4 2.3l-1.1 5.4h-1.8l-1.1-5.4c-.2-.8-.3-2.3-.3-2.3h-.1s.1 1.3 0 2.2l-.2 7.9h-1.7L18 6.5zm9.9 0h3c2.6 0 4.3 2.6 4.3 7.1s-1.7 7.1-4.3 7.1h-3V6.5zm2.8 12c1.6 0 2.5-1.7 2.5-4.9s-.9-4.9-2.5-4.9h-1v9.8h1zm5.9-12h1.8v5.8h.8l1.9-5.8h2l-2.3 6.8 2.4 7.4h-2.1l-2-6.2h-.8v6.2h-1.8V6.5z" fill="#fff"/><path class="st0" d="M56.5 76.6c0-1.6-1.3-2.9-2.9-2.9H17.7c-1.6 0-2.9 1.3-2.9 2.9v4.1c0 1.6 1.3 2.9 2.9 2.9h35.9c1.6 0 2.9-1.3 2.9-2.9v-4.1zM41 80.4c-.9 0-1.7-.7-1.7-1.7S40.1 77 41 77s1.7.7 1.7 1.7-.7 1.7-1.7 1.7zm5.1 0c-.9 0-1.7-.7-1.7-1.7s.7-1.7 1.7-1.7c.9 0 1.7.7 1.7 1.7s-.8 1.7-1.7 1.7zm5 0c-.9 0-1.7-.7-1.7-1.7s.7-1.7 1.7-1.7c.9 0 1.7.7 1.7 1.7s-.8 1.7-1.7 1.7zM17.7 72h35.9c.8 0 1.6.2 2.2.6l-3.5-7.3c-1-2.1-2.6-2.9-4.2-2.9h-3.9l-5.6 5.8c-.4.4-.9.7-1.4.9-.5.2-1.1.3-1.6.3-.6 0-1.1-.1-1.6-.3h-.2c-.4-.2-.8-.5-1.2-.8l-5.6-6h-3.9c-1.6 0-3.1.9-4.2 2.9l-3.5 7.3c.7-.3 1.4-.5 2.3-.5z"/><path class="st0" d="M44 59.6c.2-.2.3-.4.5-.7.1-.3.2-.5.2-.9 0-.3-.1-.6-.2-.8-.1-.3-.3-.5-.5-.7-.2-.2-.5-.4-.7-.5-.2-.1-.5-.2-.8-.2s-.6.1-.8.2c-.3.1-.5.3-.7.5l-3.2 3.2v-10c0-.3-.1-.6-.2-.8-.1-.3-.3-.5-.5-.7-.2-.2-.4-.4-.7-.5-.2-.1-.5-.1-.8-.1-.3 0-.6 0-.8.1-.3.1-.5.3-.7.5-.2.2-.4.4-.5.7-.1.3-.2.5-.2.8v10.1l-3.2-3.2c-.2-.2-.4-.4-.7-.5-.2-.1-.5-.2-.8-.2-.3 0-.6.1-.8.2-.2.1-.5.3-.7.5-.2.2-.4.4-.5.7-.1.3-.2.5-.2.8 0 .3.1.6.2.9.1.3.3.5.5.7l6.9 7c.2.2.4.4.7.5.2.1.5.2.8.2.3 0 .6-.1.8-.2.3-.1.5-.3.7-.5l6.9-7.1z"/></svg>