<svg id="Layer_1" xmlns="http://www.w3.org/2000/svg" viewBox="0 0 72 96"><style>.st0{fill:#f60}</style><path class="st0" d="M0 2v92c0 1.1.9 2 2 2h68c1.1 0 2-.9 2-2V28H50c-1.1 0-2-.9-2-2V0H2C.9 0 0 .9 0 2z"/><path class="st0" d="M71.9 24c-.1-.4-.2-.7-.4-1L52 1.2V24h19.9z"/><path d="M6 41h60v49H6zM5.4 6.4H9l1.6 8.1c.2.9.3 2.3.3 2.3h.1s.2-1.4.3-2.3L13 6.4h3.5l-3.9 14.3H9.3L5.4 6.4zM24 6.1c3.8 0 5.9 3.1 5.9 7.3 0 4.2-2.1 7.5-5.9 7.5s-5.8-3.2-5.8-7.5c-.1-4.1 2-7.3 5.8-7.3zm0 11.7c1.7 0 2.5-1.8 2.5-4.3s-.8-4.2-2.5-4.2-2.5 1.7-2.5 4.2.8 4.3 2.5 4.3zm8.9-11.4h4.2c2.5 0 4.2 1.3 4.2 3.7 0 1.2-.5 2.4-1.7 3 1.6.5 2.1 1.9 2.1 3.2 0 3.1-2 4.3-4.4 4.3h-4.4V6.4zm4.2 5.6c.6 0 .9-.6.9-1.4s-.3-1.3-1-1.3h-.8V12h.9zm.2 5.8c.8 0 1.2-.7 1.2-1.6 0-.9-.3-1.5-1.1-1.5h-1.2v3.1h1.1z" fill="#fff"/><path class="st0" d="M13 83.1h46V47.9H13v35.2zm8.9-2.7h-5.5v-3.9h5.5v3.9zm16.9 0h-5.5v-3.9h5.5v3.9zm11.3-30.1h5.5v4h-5.5v-4zm0 26.1h5.5v3.9h-5.5v-3.9zm-8.5-26.1H47v3.9h-5.5v-3.9zm0 26.1H47v3.9h-5.5l.1-3.9zm-8.4-26.1h5.5v3.9h-5.5v-3.9zm-.8 9.7l7.2 4.1c1.3.8 1.3 2 0 2.8L32.4 71c-1.3.8-2.4.1-2.4-1.4v-8.3c0-1.4 1.1-2.1 2.4-1.3zm-7.7-9.7h5.4v3.9h-5.4v-3.9zm0 26.1h5.4v3.9h-5.4v-3.9zm-8.3-26.1h5.5v4h-5.5v-4z"/></svg>