<svg id="Layer_1" xmlns="http://www.w3.org/2000/svg" viewBox="0 0 72 96"><style>.st0{fill:#37539d}.st2{fill:none;stroke:#37539d;stroke-width:2;stroke-miterlimit:10}</style><path class="st0" d="M0 2v92c0 1.1.9 2 2 2h68c1.1 0 2-.9 2-2V28H50c-1.1 0-2-.9-2-2V0H2C.9 0 0 .9 0 2z"/><path class="st0" d="M71.9 24c-.1-.4-.2-.7-.4-1L52 1.2V24h19.9z"/><path d="M6 41h60v49H6zM5.4 6.4H9l1.6 8.1c.2.9.3 2.3.3 2.3h.1s.2-1.4.3-2.3L13 6.4h3.5l-3.9 14.3H9.3L5.4 6.4zm14.1 10.3c.6.6 1.4 1.2 2.3 1.2.9 0 1.3-.6 1.3-1.2 0-2-4.8-2.1-4.8-6.2 0-2.4 1.7-4.3 4.5-4.3 1.2 0 2.4.3 3.4 1L25 10.1c-.5-.4-1.4-.9-2.2-.9-.9 0-1.3.6-1.3 1.2 0 2.1 4.8 2 4.8 6.1 0 2.3-1.5 4.4-4.4 4.4-1.4 0-2.9-.5-4-1.4l1.6-2.8zm10-10.3h4.2c3.7 0 5.9 2.6 5.9 7.1s-2.2 7.2-5.9 7.2h-4.2V6.4zm4.1 11.4c1.7 0 2.6-1.5 2.6-4.3s-1-4.2-2.6-4.2h-.8v8.5h.8z" fill="#fff"/><path class="st0" d="M17.1 51.3l21.3-4.1V83l-21.3-3.9z"/><path class="st0" d="M53.3 79.5H35.2c-.9 0-1.6-.7-1.6-1.6V52.4c0-.9.7-1.6 1.6-1.6h18.1c.9 0 1.6.7 1.6 1.6v25.5c0 .9-.7 1.6-1.6 1.6zM35.2 52.3c-.1 0-.2.1-.2.2V78c0 .1.1.2.2.2h18.1c.1 0 .2-.1.2-.2V52.4c0-.1-.1-.2-.2-.2l-18.1.1z"/><path class="st2" d="M36 68h6v6h-6z"/><path transform="rotate(-45.001 46.689 58.69)" class="st2" d="M44.1 56.1h5.1v5.1h-5.1z"/><path class="st2" d="M43 58.8h-5m9 3.2v9m-5 0h6"/><path d="M23 60.2h2.1l2.3 6.9c.2.6.4 1.6.4 1.6s.2-.9.4-1.6l2.4-6.9h2.1l-3.9 10.6h-1.9L23 60.2z" fill="#fff" stroke="#fff" stroke-width=".75" stroke-miterlimit="10"/></svg>