<svg xmlns="http://www.w3.org/2000/svg" viewBox="0 0 72 96"><style>.st0{fill:#666}.st2,.st3{fill:#265db4;stroke:#265db4;stroke-width:.5;stroke-miterlimit:10}.st3{fill:#c00;stroke:#c00}</style><path class="st0" d="M0 2v92c0 1.1.9 2 2 2h68c1.1 0 2-.9 2-2V28H50c-1.1 0-2-.9-2-2V0H2C.9 0 0 .9 0 2z"/><path class="st0" d="M71.9 24c-.1-.4-.2-.7-.4-1L52 1.2V24h19.9z"/><path d="M6 41h60v49H6zM5.6 6.4h3.2l1.2 8.9c.1.7.1 1.6.1 1.6h.1s0-.9.1-1.6l1.3-8.9h3.1l1.3 8.9c.1.7.1 1.6.1 1.6h.1s0-.9.1-1.6l1.2-8.9h3.2l-2.5 14.3h-3.7l-1.1-7.2c-.1-.9-.2-1.7-.2-1.7h-.1s0 .8-.1 1.7l-1.1 7.2H8.1L5.6 6.4zm18.7 0h3.6l3.6 14.3h-3.3l-.6-3h-3l-.6 3h-3.3l3.6-14.3zm2.8 8.6l-.6-2.8c-.2-.9-.4-2.5-.4-2.5H26s-.2 1.5-.4 2.5l-.5 2.8h2zM33 6.4h4.5c.6 0 1.3.1 1.9.4 1.4.6 2.4 2.1 2.4 4 0 1.7-.8 3.3-2 4 0 0 .2.2.5.9l2.3 5H39l-2-4.8h-.8v4.8H33V6.4zm3.9 6.6c.9 0 1.6-.7 1.6-1.9 0-.7-.2-1.2-.6-1.5-.3-.2-.6-.3-.9-.3h-.7V13h.6z" fill="#fff"/><path class="st2" d="M44.2 75.3c7.2-3.7 3.9-7.3 1.5-6.8-.6.1-.8.2-.8.2s.2-.3.6-.5c4.6-1.6 8.1 4.8-1.5 7.3l.2-.2"/><path class="st3" d="M37.8 64.8c1.8 2.1-.5 4-.5 4s4.7-2.4 2.5-5.5c-2-2.8-3.6-4.2 4.8-9.1 0 .1-13.1 3.4-6.8 10.6"/><path class="st3" d="M39.8 46.5s4 4-3.8 10.1c-6.2 4.9-1.4 7.7 0 10.9-3.6-3.3-6.3-6.2-4.5-8.8 2.7-4 9.9-5.9 8.3-12.2"/><path class="st2" d="M31 76.8s-1.5.9 1 1.1c3 .3 4.6.3 7.9-.3 0 0 .9.6 2.1 1-7.4 3.3-16.9-.1-11-1.8m-.9-4.2s-1.6 1.2.9 1.5c3.2.3 5.8.4 10.2-.5 0 0 .6.6 1.6 1-9.1 2.6-19.2.2-12.7-2"/><path class="st2" d="M47.7 79.9s1.1.9-1.2 1.6c-4.3 1.3-18 1.7-21.8.1-1.4-.6 1.2-1.4 2-1.6.8-.2 1.3-.1 1.3-.1-1.5-1.1-9.8 2.1-4.2 3 15.3 2.4 27.9-1.2 23.9-3m-16-11.6s-7 1.7-2.5 2.3c1.9.3 5.7.2 9.2-.1 2.9-.2 5.8-.8 5.8-.8s-1 .4-1.8.9c-7.1 1.9-20.7 1-16.8-.9 3.4-1.6 6.1-1.4 6.1-1.4"/><path class="st2" d="M32.4 85.4c6.9.4 17.5-.2 17.7-3.5 0 0-.5 1.2-5.7 2.2-5.9 1.1-13.1 1-17.5.3.1 0 1 .7 5.5 1"/></svg>