<svg xmlns="http://www.w3.org/2000/svg" viewBox="0 0 72 96"><style>.st0{fill:#3c3}</style><path class="st0" d="M0 2v92c0 1.1.9 2 2 2h68c1.1 0 2-.9 2-2V28H50c-1.1 0-2-.9-2-2V0H2C.9 0 0 .9 0 2z"/><path class="st0" d="M71.9 24c-.1-.4-.2-.7-.4-1L52 1.2V24h19.9z"/><path d="M6 41h60v49H6V41zm3-27.4L5.5 6.4h3.6l1.1 2.9.6 1.8s.2-.9.6-1.8l1.2-2.9h3.6l-3.4 7.2 3.3 7.1h-3.5l-1.1-3c-.4-.9-.6-1.7-.6-1.7s-.2.8-.6 1.7l-1.1 3H5.7L9 13.6zm15.4-7.5c1.3 0 2.6.4 3.6 1.2l-1.4 2.8c-.4-.5-1.3-.9-2.1-.9-2.1 0-3.2 1.9-3.2 4.2s1.2 4.4 3.2 4.4c1 0 1.7-.5 2.3-1l1.4 2.8c-.9.7-2 1.3-3.9 1.3-4 0-6.3-3.1-6.3-7.4 0-4.2 2.4-7.4 6.4-7.4zm6.5.3H38v2.9h-3.8v3.1h3.1v2.9h-3.1v5.4h-3.3V6.4z" fill="#fff"/><path class="st0" d="M47.6 71.7c.4.2.9.4 1.3.7 1.3.8 2.5 1.6 3.7 2.4.2.1.4.2.6.1 1.4-.3 2.9.5 3.3 1.9.3.9.4 1.8.5 2.8.1 1.1.1 2.3.2 3.5-2-.5-3.9-1.1-5.3-2.6-.4-.4-.5-1-.8-1.5-.1-.1-.2-.3-.3-.3-2.6-.6-5.1-1.5-7.5-2.7-.1-.1-.4-.1-.5 0-2.4 1.2-5 1.7-7.7 1.5-3.6-.2-6.9-1.4-10.1-2.9-.5-.3-1.1-.6-1.6-.9 2.5-1.2 3.6-3.2 3.6-5.9-.6-.1-1.2-.1-1.7-.2-.1.5-.1 1.1-.2 1.7-.6 2.2-2.7 3.4-5 2.8-3-.8-5.7-4.3-5.4-7.7.2-2.5 2.4-4.1 4.8-3.5.4.1.8.2 1.2.4.4.2.7.4 1.1.6.3-.5.5-1.1.8-1.6.1-.1 0-.3 0-.4v-8h.1c.1.1.2.2.3.4.9 1.3 1.7 2.6 2.8 3.7 1.3 1.2 2.6 2.2 4.3 2.6.5.1.9.1 1.4-.2 1.9-1.2 3.8-1.3 5.8-.3.1.1.3.1.5.1 2.8-.7 5.4-1.9 7.5-4 .9-.9 1.6-2 2.1-3.3.2-.6.5-1.1.8-1.7.3-.5.7-.8 1.2-.7.6.1.9.5 1 1 .2 1 .4 2 .5 3 .1 1.8.1 3.6.1 5.4-.1 3.7-.5 7.4-1.8 10.9-.6.7-1.1 1.8-1.6 2.9zm-5-.2c.4-.6.4-1.2.1-1.8-.5-.9-1.3-1.6-2.3-2h-.1l.3.6c.1.2.2.4.2.7.2.8.1 1.2-.7 1.5-.5.2-1 .3-1.4.4-2.4.4-4.9.4-7.3.3h-.7c0 .1.1.1.1.1 2.4.8 4.8 1.4 7.3 1.6.9.1 1.9.1 2.8-.2.3-.1.5 0 .7.1 2.7 1.8 5.6 3.1 8.8 3.9.6.2.6.2.9-.4.1-.1.1-.2.2-.3-2.7-2-5.7-3.4-8.9-4.5zm-8.5-9.4c-.1 1.2.1 1.7.8 1.9.6.2 1.3 0 1.5-.5.2-.3.2-.7.2-1.1-.1-.3-.4-.6-.6-.9 1.2.1 1.9.8 2.3 1.9.3-1-.2-3-1.7-4-1.6-1-3.8-.8-5.1.6-1.3 1.4-1.4 3.5-.4 5.1 1 1.5 3 2 3.9 1.6-1.1-.4-1.8-1.2-1.9-2.4 0-.9.3-1.6 1-2.2zm-7.3 3.8c-1.8-1-2.2-2.9-.9-3.8-.2.8 0 1.3.6 1.6.4.2 1.1.1 1.3-.4.2-.3.3-.7.2-1-.1-.3-.4-.5-.6-.9.5.2.9.3 1.3.5.3-.9.3-.9 0-1.3-.9-.8-1.9-1.1-3-.8-1.2.3-1.9 1.1-2.2 2.3-.1.5-.2 1 .1 1.5l.9 1.5c.1.1.1.3.3.3.5.4 1.2.5 2 .5zm-10.5-1.2c0 .5.2 1.1.6 1.6.6.7 1.6.7 2.3 0 1-1 .9-2.7-.2-3.6-.3-.3-.7-.4-1.1-.3-1 .1-1.7 1-1.6 2.3z"/></svg>