<svg xmlns="http://www.w3.org/2000/svg" viewBox="0 0 72 96"><style>.st0{fill:#999}</style><path class="st0" d="M0 2v92c0 1.1.9 2 2 2h68c1.1 0 2-.9 2-2V28H50c-1.1 0-2-.9-2-2V0H2C.9 0 0 .9 0 2z"/><path class="st0" d="M71.9 24c-.1-.4-.2-.7-.4-1L52 1.2V24h19.9z"/><path d="M6 41h60v49H6zm3-27.4L5.5 6.4h3.6l1.1 2.9.6 1.8s.2-.9.6-1.8l1.2-2.9h3.6l-3.4 7.2 3.3 7.1h-3.5l-1.1-3c-.4-.9-.6-1.7-.6-1.7s-.2.8-.6 1.7l-1.1 3H5.7L9 13.6zm9.8-7.2h4.5c2.6 0 4.4 2 4.4 4.9 0 2.9-1.7 5-4.4 5h-1.2v4.4h-3.3V6.4zm3.9 7c1 0 1.6-.9 1.6-2.1s-.7-2-1.6-2H22v4.1h.7zm8.6 3.3c.6.6 1.4 1.2 2.3 1.2.9 0 1.3-.6 1.3-1.2 0-2-4.8-2.1-4.8-6.2 0-2.4 1.7-4.3 4.5-4.3 1.2 0 2.4.3 3.4 1l-1.2 2.9c-.5-.4-1.4-.9-2.2-.9-.9 0-1.3.6-1.3 1.2 0 2.1 4.8 2 4.8 6.1 0 2.3-1.5 4.4-4.4 4.4-1.4 0-2.9-.5-4-1.4l1.6-2.8z" fill="#fff"/><path d="M23.7 76c-.5 0-1.1-.2-1.5-.6L13.9 67c-.8-.8-.8-2.1 0-3l8.4-8.4c.8-.8 2.1-.8 3 0 .8.8.8 2.1 0 3l-6.9 6.9 6.9 6.9c.8.8.8 2.1 0 3-.5.4-1.1.6-1.6.6zm25.1 0c-.5 0-1.1-.2-1.5-.6-.8-.8-.8-2.1 0-3l6.9-6.9-6.9-6.9c-.8-.8-.8-2.1 0-3 .8-.8 2.1-.8 3 0l8.4 8.4c.8.8.8 2.1 0 3l-8.4 8.4c-.4.4-1 .6-1.5.6zm-16.7 4.1c-.2 0-.4 0-.7-.1-1.1-.4-1.7-1.5-1.3-2.6l8.4-25.1c.4-1.1 1.5-1.7 2.6-1.3 1.1.4 1.7 1.5 1.3 2.6L34 78.7c-.2.9-1.1 1.4-1.9 1.4z" fill="#999" stroke="#999" stroke-width="1.5" stroke-miterlimit="10"/></svg>