<svg xmlns="http://www.w3.org/2000/svg" viewBox="0 0 72 96"><style>.st0{fill:#55486d}</style><path class="st0" d="M0 2v92c0 1.1.9 2 2 2h68c1.1 0 2-.9 2-2V28H50c-1.1 0-2-.9-2-2V0H2C.9 0 0 .9 0 2z"/><path class="st0" d="M71.9 24c-.1-.4-.2-.7-.4-1L52 1.2V24h19.9z"/><path d="M6 41h60v49H6zm3-27.4L5.5 6.4h3.6l1.1 2.9.6 1.8s.2-.9.6-1.8l1.2-2.9h3.6l-3.4 7.2 3.3 7.1h-3.5l-1.1-3c-.4-.9-.6-1.7-.6-1.7s-.2.8-.6 1.7l-1.1 3H5.7L9 13.6zm9.8-7.2h4.5c.6 0 1.3.1 1.9.4 1.4.6 2.4 2.1 2.4 4 0 1.7-.8 3.3-2 4 0 0 .2.2.5.9l2.3 5h-3.6l-2-4.8H22v4.8h-3.3V6.4zm3.9 6.6c.9 0 1.6-.7 1.6-1.9 0-.7-.2-1.2-.6-1.5-.3-.2-.6-.3-.9-.3h-.7V13h.6zM31 6.4h4.2c2.5 0 4.2 1.3 4.2 3.7 0 1.2-.5 2.4-1.7 3 1.6.5 2.1 1.9 2.1 3.2 0 3.1-2 4.3-4.4 4.3H31V6.4zm4.2 5.6c.6 0 .9-.6.9-1.4s-.3-1.3-1-1.3h-.8V12h.9zm.2 5.8c.8 0 1.2-.7 1.2-1.6 0-.9-.3-1.5-1.1-1.5h-1.2v3.1h1.1z" fill="#fff"/><path class="st0" d="M43.6 68.3l-7.3-3.4L51 58l7.3 3.4-7.3 3.5-7.4 3.4zM51 51.2l-7.3-3.4-7.3 3.4L51 58.1l7.3-3.4-7.3-3.5zM28.9 61.4L21.6 58l-7.3 3.4L29 68.3l7.3-3.4-7.4-3.5zm0-6.8l7.3-3.4-7.3-3.4-14.7 6.9 7.3 3.4 7.4-3.5zM51 66.9l-6.6 3-.8.4-.8-.4-6.6-3-6.6 3-.8.4-.8-.4-6.6-3v10.7l14.7 7.7L51 77.6V66.9z"/></svg>