<svg id="Layer_1" xmlns="http://www.w3.org/2000/svg" viewBox="0 0 72 96"><style>.st0{fill:#999}</style><path class="st0" d="M0 2v92c0 1.1.9 2 2 2h68c1.1 0 2-.9 2-2V28H50c-1.1 0-2-.9-2-2V0H2C.9 0 0 .9 0 2z"/><path class="st0" d="M71.9 24c-.1-.4-.2-.7-.4-1L52 1.2V24h19.9z"/><path d="M6 41h60v49H6zM8.3 6.5h2l2.8 14.2h-1.8l-.7-3.7H8l-.6 3.7H5.6L8.3 6.5zm2 8.5l-.7-3.8c-.1-.8-.2-2.2-.2-2.2s-.2 1.4-.3 2.2L8.3 15h2zM18 6.2c.9 0 1.9.4 2.6 1.2l-.8 2.1c-.4-.5-1.1-1-1.7-1-1.8 0-2.8 2.2-2.8 4.9 0 2.8 1.1 5.2 2.8 5.2.8 0 1.4-.5 2-1l.7 2.1c-.7.7-1.5 1.3-2.8 1.3-2.8 0-4.5-3.2-4.5-7.4-.1-4.3 1.6-7.4 4.5-7.4zm7.8 0c.9 0 1.9.4 2.6 1.2l-.8 2.1c-.4-.5-1.1-1-1.7-1-1.8 0-2.8 2.2-2.8 4.9 0 2.8 1.1 5.2 2.8 5.2.8 0 1.4-.5 2-1l.7 2.1c-.7.7-1.5 1.3-2.8 1.3-2.8 0-4.5-3.2-4.5-7.4-.1-4.3 1.6-7.4 4.5-7.4zm3.9.3h2.9c2.6 0 4.2 2.6 4.2 7.1s-1.6 7.1-4.2 7.1h-2.9V6.5zm2.8 12c1.5 0 2.4-1.7 2.4-4.9s-.9-4.9-2.4-4.9h-1v9.8h1zm7-9.8H37V6.5h6.9v2.2h-2.5v12h-1.8v-12z" fill="#fff"/><path class="st0" d="M54.6 70.3c-.1.9-1.2 1.6-3.4 2.1s-5 .8-8.3.8h-2.8v5.2c.9.1 1.9.1 2.8.1 3.3 0 6.1-.3 8.3-.9 2.2-.6 3.4-1.3 3.5-2.1-.1-.2-.1-5.2-.1-5.2zm-11.8-3.8c-1 0-1.9 0-2.8-.1v5.3h2.8c3.3 0 6.1-.3 8.3-.9 2.2-.6 3.4-1.3 3.4-2.1v-5.1c-.1.9-1.2 1.6-3.5 2.1-2.1.6-4.9.9-8.2.8zm0-6.5c-1 0-1.9 0-2.8-.1v5.3c.9.1 1.9.1 2.8.1 3.3 0 6.1-.3 8.4-.9 2.2-.6 3.4-1.3 3.5-2.1v-5.1c-.1.9-1.2 1.6-3.5 2.1-2.3.4-5.1.7-8.4.7zm0-7.4c-1 0-1.9 0-2.8.1v5.9c.9.1 1.9.1 2.8.1 3.3 0 6.1-.3 8.4-.9 2.2-.6 3.4-1.3 3.5-2.1-.1-.9-1.2-1.6-3.5-2.2-2.3-.6-5.1-.8-8.4-.9zm-16.1 8.3c-.1.3-.3 1.3-.7 3l-.7 2.9h2.9l-.7-2.9c-.4-1.7-.7-2.7-.7-3h-.1zm-10.3-9.5v28.3L38 83.4V47.6l-21.6 3.8zm13.2 21.1l-.8-3.2-4-.1-.8 3-2.5-.2 3.8-13.5 2.9-.2 4.2 14.3-2.8-.1z"/></svg>