<svg id="Layer_1" xmlns="http://www.w3.org/2000/svg" viewBox="0 0 72 96"><style>.st0{fill:#999}</style><path class="st0" d="M0 2v92c0 1.1.9 2 2 2h68c1.1 0 2-.9 2-2V28H50c-1.1 0-2-.9-2-2V0H2C.9 0 0 .9 0 2z"/><path class="st0" d="M71.9 24c-.1-.4-.2-.7-.4-1L52 1.2V24h19.9z"/><path d="M6 41h60v49H6zM9 6.4h3.6l3.6 14.3h-3.3l-.6-3h-3l-.6 3H5.4L9 6.4zm2.8 8.6l-.6-2.8c-.2-.9-.4-2.5-.4-2.5h-.1s-.2 1.5-.4 2.5L9.8 15h2zm6.9-8.6h4.2c3.7 0 5.9 2.6 5.9 7.1s-2.2 7.2-5.9 7.2h-4.2V6.4zm4.1 11.4c1.7 0 2.6-1.5 2.6-4.3s-1-4.2-2.6-4.2H22v8.5h.8zm9.1-11.4h3.5l2.4 6.6c.4 1 .7 2.4.7 2.4h.1s-.2-1.5-.2-2.4V6.4h3.1v14.3h-3.4l-2.5-6.6c-.4-1-.7-2.4-.7-2.4h-.1s.2 1.5.2 2.4v6.6h-3.1V6.4z" fill="#fff"/><path class="st0" d="M54.6 70.3c-.1.9-1.2 1.6-3.4 2.1s-5 .8-8.3.8h-2.8v5.2c.9.1 1.9.1 2.8.1 3.3 0 6.1-.3 8.3-.9 2.2-.6 3.4-1.3 3.5-2.1-.1-.2-.1-5.2-.1-5.2zm-11.8-3.8c-1 0-1.9 0-2.8-.1v5.3h2.8c3.3 0 6.1-.3 8.3-.9 2.2-.6 3.4-1.3 3.4-2.1v-5.1c-.1.9-1.2 1.6-3.5 2.1-2.1.6-4.9.9-8.2.8zm0-6.5c-1 0-1.9 0-2.8-.1v5.3c.9.1 1.9.1 2.8.1 3.3 0 6.1-.3 8.4-.9 2.2-.6 3.4-1.3 3.5-2.1v-5.1c-.1.9-1.2 1.6-3.5 2.1-2.3.4-5.1.7-8.4.7zm0-7.4c-1 0-1.9 0-2.8.1v5.9c.9.1 1.9.1 2.8.1 3.3 0 6.1-.3 8.4-.9 2.2-.6 3.4-1.3 3.5-2.1-.1-.9-1.2-1.6-3.5-2.2-2.3-.6-5.1-.8-8.4-.9zm-16.1 8.3c-.1.3-.3 1.3-.7 3l-.7 2.9h2.9l-.7-2.9c-.4-1.7-.7-2.7-.7-3h-.1zm-10.3-9.5v28.3L38 83.4V47.6l-21.6 3.8zm13.2 21.1l-.8-3.2-4-.1-.8 3-2.5-.2 3.8-13.5 2.9-.2 4.2 14.3-2.8-.1z"/></svg>