<svg id="Layer_1" xmlns="http://www.w3.org/2000/svg" viewBox="0 0 72 96"><style>.st0{fill:#fea500}</style><path class="st0" d="M0 2v92c0 1.1.9 2 2 2h68c1.1 0 2-.9 2-2V28H50c-1.1 0-2-.9-2-2V0H2C.9 0 0 .9 0 2z"/><path class="st0" d="M71.9 24c-.1-.4-.2-.7-.4-1L52 1.2V24h19.9z"/><path d="M6 41h60v49H6zM9 6.4h3.6l3.6 14.3h-3.3l-.6-3h-3l-.6 3H5.4L9 6.4zm2.8 8.6l-.6-2.8c-.2-.9-.4-2.5-.4-2.5h-.1s-.2 1.5-.4 2.5L9.8 15h2zm6.9-8.6H22v14.3h-3.3V6.4z" fill="#fff"/><path d="M37.8 80.3l-2.7-8.7H25l-2.7 8.7h-3.7l9.7-28.9H32l9.8 28.9h-4zM31 58.4c-.3-1.1-.7-2.6-.8-3.7h-.1c-.2 1-.5 2.5-.9 3.7l-3.4 10.9h8.6L31 58.4zm16.7-5c-1.2 0-2.2-.9-2.2-2.1s1-2.1 2.2-2.1 2.2.9 2.2 2.1-1 2.1-2.2 2.1zm-1.8 26.9V57.7h3.7v22.6h-3.7z" fill="#fea500" stroke="#fea500" stroke-width="1.25" stroke-miterlimit="10"/></svg>