<svg id="Layer_1" xmlns="http://www.w3.org/2000/svg" viewBox="0 0 72 96"><style>.st0{fill:#8ed200}</style><path class="st0" d="M0 2v92c0 1.1.9 2 2 2h68c1.1 0 2-.9 2-2V28H50c-1.1 0-2-.9-2-2V0H2C.9 0 0 .9 0 2z"/><path class="st0" d="M71.9 24c-.1-.4-.2-.7-.4-1L52 1.2V24h19.9z"/><path d="M6 41h60v49H6zM9 6.4h3.6l3.6 14.3h-3.3l-.6-3h-3l-.6 3H5.4L9 6.4zm2.8 8.6l-.6-2.8c-.2-.9-.4-2.5-.4-2.5h-.1s-.2 1.5-.4 2.5L9.8 15h2zm6.9-8.6h3.5l2.4 6.6c.4 1 .7 2.4.7 2.4h.1s-.2-1.5-.2-2.4V6.4h3.1v14.3h-3.4l-2.5-6.6c-.4-1-.7-2.4-.7-2.4h-.1s.2 1.5.2 2.4v6.6h-3.1V6.4zm13.3 0h3.3v14.3H32V6.4z" fill="#fff"/><path class="st0" d="M47.9 48.5H24.1c-1.2 0-2.1.9-2.1 2.1 0 1.2.9 2.1 2.1 2.1h.1v2.1c0 4.4 2.7 8.3 6.7 9.9.2.1.4.3.4.5v.2c0 .2-.2.4-.4.5-4.1 1.6-6.8 5.5-6.7 9.9v2.1h-.1c-1.2 0-2.1.9-2.1 2.1 0 1.2.9 2.1 2.1 2.1h23.8c1.2 0 2.1-.9 2.1-2.1 0-1.2-.9-2.1-2.1-2.1h-.1v-2.1c0-4.4-2.7-8.3-6.7-9.9-.2-.1-.4-.3-.4-.5v-.2c0-.2.2-.4.4-.5 4.1-1.6 6.8-5.5 6.7-9.9v-2.1h.1c1.2 0 2.1-.9 2.1-2.1 0-1.2-.9-2.1-2.1-2.1zM45 54.8c0 3.2-2 6.1-5 7.3-1.3.5-2.2 1.7-2.2 3.1v.2c0 1.4.9 2.6 2.2 3.1 3 1.2 5 4.1 5 7.3v2.1H27v-2.1c0-3.2 2-6.1 5-7.3 1.3-.5 2.2-1.7 2.2-3.1v-.2c0-1.4-.9-2.6-2.2-3.1-3-1.2-5-4.1-5-7.3v-2.1h18v2.1zm-15.2 3.6c-.2-.3-.1-.7.2-.9.1-.1.2-.1.4-.1h11.3c.3 0 .6.3.6.6 0 .1 0 .3-.1.4-.7 1-1.6 1.7-2.7 2.1-1.2.4-2.1 1.3-2.7 2.4-.2.4-.7.6-1.1.3-.1-.1-.3-.2-.3-.3-.6-1.1-1.5-2-2.7-2.4-1.2-.5-2.2-1.2-2.9-2.1zm8 12.6c.6.5 1.4.8 2.2.8 1.5 0 2.8 1 3.1 2.5v.1c.1.3.1.6.1 1s-.3.7-.7.7H29.4c-.4 0-.7-.3-.7-.7 0-.3.1-.7.1-1v-.1c.4-1.4 1.7-2.4 3.2-2.4.8 0 1.6-.3 2.2-.8.4-.4.8-.8 1-1.3.2-.3.5-.5.9-.4.3.1.5.2.6.4.3.4.6.8 1.1 1.2z"/></svg>