<svg id="Layer_1" xmlns="http://www.w3.org/2000/svg" viewBox="0 0 72 96"><style>.st0{fill:#fff}.st1{fill:#999}</style><path class="st0" d="M0 2v92c0 1.1.9 2 2 2h68c1.1 0 2-.9 2-2V28H50c-1.1 0-2-.9-2-2V0H2C.9 0 0 .9 0 2z"/><path class="st0" d="M71.9 24c-.1-.4-.2-.7-.4-1L52 1.2V24h19.9z"/><path class="st1" d="M0 94V2C0 .9.9 0 2 0h48c.6 0 1.1.2 1.5.7l20 22.3c.3.4.5.8.5 1.3V94c0 1.1-.9 2-2 2H2c-1.1 0-2-.9-2-2zm68-68.9L49.1 4H4v88h64V25.1z"/><path class="st1" d="M48 26V4c0-1.1.9-2 2-2s2 .9 2 2v20h16c1.1 0 2 .9 2 2s-.9 2-2 2H50c-1.1 0-2-.9-2-2z"/><path d="M51.6 33H28.3c-3.2 0-5.9 2.6-5.9 5.9v26.3h-5.9c0 3.2 2.6 5.9 5.9 5.9h23.4c3.2 0 5.9-2.6 5.9-5.9V41.7h5.9v-2.9c-.1-3.2-2.7-5.8-6-5.8zm-2.9 31.6c0 1.9-1.5 3.4-3.4 3.4H23.9c1.4-1 1.4-2.9 1.4-2.9V38.9c0-1.6 1.3-2.9 2.9-2.9s2.9 1.3 2.9 2.9v2.9h17.6v22.8zM34.1 38.9V36h17.6c2.7 0 2.9 1.7 2.9 2.9H34.1z" fill="#999" stroke="#999" stroke-width=".75" stroke-miterlimit="10"/><path class="st1" d="M33.8 60.6c-.3-.2-.6-.5-.9-.8-.3-.3-.5-.7-.7-1-.5-.8-1-1.6-1.2-2.5-.3-1-.5-2-.5-3 0-1.1.2-2 .7-2.8.3-.6.8-1.2 1.5-1.5.6-.4 1.3-.6 2-.6.2 0 .5 0 .8.1.2.1.4.1.7.3.4.1.6.2.7.3.2.1.4.1.6.1.1 0 .3 0 .4-.1.1 0 .3-.1.6-.2s.5-.2.7-.2c.3-.1.5-.1.7-.2.3 0 .5-.1.8 0 .5 0 .9.1 1.4.3.7.3 1.3.7 1.7 1.4-.2.1-.3.2-.5.4-.3.3-.6.7-.9 1-.3.5-.5 1.1-.4 1.8 0 .8.2 1.4.6 2 .3.4.6.8 1.1 1.1l.6.3c-.1.3-.2.5-.3.8-.2.6-.5 1.1-.9 1.6-.3.4-.5.8-.7 1l-.8.8c-.3.2-.7.3-1 .3-.2 0-.5 0-.7-.1s-.4-.1-.6-.2c-.2-.1-.4-.2-.6-.2-.3-.1-.5-.1-.8-.1s-.6 0-.8.1-.4.1-.6.2c-.3.1-.5.2-.6.2-.2.1-.5.1-.7.1-.8-.4-1.1-.5-1.4-.7zm4.7-12.9c-.5.2-.9.3-1.4.3-.1-.4 0-.9.2-1.4.2-.4.4-.8.7-1.2s.7-.7 1.1-.9c.5-.2.9-.4 1.3-.4.1.5 0 .9-.2 1.4-.2.4-.4.9-.7 1.2-.2.5-.5.8-1 1z"/></svg>