<svg id="Layer_1" xmlns="http://www.w3.org/2000/svg" viewBox="0 0 72 96"><style>.st0{fill:#c33}</style><path class="st0" d="M0 2v92c0 1.1.9 2 2 2h68c1.1 0 2-.9 2-2V28H50c-1.1 0-2-.9-2-2V0H2C.9 0 0 .9 0 2z"/><path class="st0" d="M71.9 24c-.1-.4-.2-.7-.4-1L52 1.2V24h19.9z"/><path d="M6 41h60v49H6V41zM9 6.4h3.6l3.6 14.3h-3.3l-.6-3h-3l-.6 3H5.4L9 6.4zm2.8 8.6l-.6-2.8c-.2-.9-.4-2.5-.4-2.5h-.1s-.2 1.5-.4 2.5L9.8 15h2zm7.6 1.7c.6.6 1.4 1.2 2.3 1.2s1.3-.6 1.3-1.2c0-2-4.8-2.1-4.8-6.2 0-2.4 1.7-4.3 4.5-4.3 1.2 0 2.4.3 3.4 1l-1.2 2.9c-.5-.4-1.4-.9-2.2-.9-.9 0-1.3.6-1.3 1.2 0 2.1 4.8 2 4.8 6.1 0 2.3-1.5 4.4-4.4 4.4-1.4 0-2.9-.5-4-1.4l1.6-2.8zm10-10.3h4.5c2.6 0 4.4 2 4.4 4.9s-1.7 5-4.4 5h-1.2v4.4h-3.3V6.4zm3.9 7c1 0 1.6-.9 1.6-2.1s-.7-2-1.6-2h-.7v4.1h.7z" fill="#fff"/><path class="st0" d="M30.1 67.5c-1.1.9-2.2 1.7-3.3 2.5l-6.6 5.1c-.3.2-.5.3-.8.1-.5-.3-.9-.5-1.4-.7-.3-.1-.4-.3-.4-.6V56.3c0-.2.2-.5.3-.6.5-.3 1-.5 1.6-.8.3-.1.5 0 .7.1 1.8 1.4 3.6 2.8 5.5 4.2 1.5 1.1 3 2.3 4.5 3.4l.3-.3C36 57 41.4 51.7 46.9 46.4c.3-.3.5-.3.9-.2 2.3.9 4.6 1.9 6.9 2.8.2.1.3.3.4.5.1.1 0 .3 0 .4v30.2c0 .7 0 .7-.7 1-2.2.9-4.4 1.7-6.6 2.6-.4.2-.6.1-.9-.2-5.5-5-10.9-10.3-16.4-15.5-.1-.2-.2-.3-.4-.5zm15.7 4.8V57.9l-9.6 7.2 9.6 7.2zm-20.1-7.2c-1.6-1.4-3.2-2.8-4.8-4.3v8.6c1.6-1.4 3.2-2.8 4.8-4.3z"/></svg>