<svg id="Layer_1" xmlns="http://www.w3.org/2000/svg" viewBox="0 0 72 96"><style>.st0{fill:#999}</style><path class="st0" d="M0 2v92c0 1.1.9 2 2 2h68c1.1 0 2-.9 2-2V28H50c-1.1 0-2-.9-2-2V0H2C.9 0 0 .9 0 2z"/><path class="st0" d="M71.9 24c-.1-.4-.2-.7-.4-1L52 1.2V24h19.9z"/><path d="M6 41h60v49H6zm.6-34.6h4.2c2.5 0 4.2 1.3 4.2 3.7 0 1.2-.5 2.4-1.7 3 1.6.5 2.1 1.9 2.1 3.2 0 3.1-2 4.3-4.4 4.3H6.6V6.4zm4.2 5.6c.6 0 .9-.6.9-1.4s-.3-1.3-1-1.3h-.8V12h.9zm.2 5.8c.8 0 1.2-.7 1.2-1.6 0-.9-.3-1.5-1.1-1.5H9.9v3.1H11zm9.8-11.4h3.6L28 20.7h-3.3l-.6-3h-3l-.6 3h-3.3l3.6-14.3zm2.8 8.6l-.6-2.8c-.2-.9-.4-2.5-.4-2.5h-.1s-.2 1.5-.4 2.5l-.5 2.8h2zm8.1-5.7h-3.1V6.4h9.6v2.9H35v11.4h-3.3V9.3z" fill="#fff"/><path class="st0" d="M54.8 46.8h-38v38h38v-38zm-30.4 7.5h-3.8v-3.8h3.8v3.8zm26.6 0H28.1v-3.8H51v3.8zm0 26.6H20.5V58.2H51v22.7z"/><path class="st0" d="M26.5 61.4l-2.7 2.7 4.4 4.4-4.4 4.3 2.7 2.7 7.1-7zm6.3 12.8h7.6V78h-7.6z"/></svg>