<svg xmlns="http://www.w3.org/2000/svg" viewBox="0 0 72 96"><style>.st0{fill:#999}</style><path class="st0" d="M0 2v92c0 1.1.9 2 2 2h68c1.1 0 2-.9 2-2V28H50c-1.1 0-2-.9-2-2V0H2C.9 0 0 .9 0 2z"/><path class="st0" d="M71.9 24c-.1-.4-.2-.7-.4-1L52 1.2V24h19.9z"/><path d="M6 41h60v49H6zm.6-34.6h4.2c2.5 0 4.2 1.3 4.2 3.7 0 1.2-.5 2.4-1.7 3 1.6.5 2.1 1.9 2.1 3.2 0 3.1-2 4.3-4.4 4.3H6.6V6.4zm4.2 5.6c.6 0 .9-.6.9-1.4s-.3-1.3-1-1.3h-.8V12h.9zm.2 5.8c.8 0 1.2-.7 1.2-1.6 0-.9-.3-1.5-1.1-1.5H9.9v3.1H11zm7.6-11.4h3.3v14.3h-3.3V6.4zm6.9 0H29l2.4 6.6c.4 1 .7 2.4.7 2.4h.1S32 13.9 32 13V6.4h3.1v14.3h-3.4l-2.5-6.6c-.4-1-.7-2.4-.7-2.4h-.1s.2 1.5.2 2.4v6.6h-3.1V6.4z" fill="#fff"/><path d="M35.8 49.7c-2.9 0-5.4 2.8-5.4 6.2 0 3.4 2.4 6.2 5.4 6.2 2.9 0 5.4-2.8 5.4-6.2 0-3.4-2.4-6.2-5.4-6.2zm0 10.1c-1.6 0-3-1.7-3-3.9 0-2.1 1.3-3.9 3-3.9s3 1.7 3 3.9-1.3 3.9-3 3.9zM25 61V50.9c0-.7-.5-1.2-1.2-1.2s-1.2.5-1.2 1.2V61c0 .7.5 1.2 1.2 1.2S25 61.6 25 61zm-1.1 6.9c-2.9 0-5.4 2.8-5.4 6.2 0 3.4 2.4 6.2 5.4 6.2s5.4-2.8 5.4-6.2c-.1-3.3-2.5-6.2-5.4-6.2zm0 10.2c-1.6 0-3-1.7-3-3.9 0-2.1 1.3-3.9 3-3.9s3 1.7 3 3.9c-.1 2.1-1.4 3.9-3 3.9zM37 79.2V69.1c0-.7-.5-1.2-1.2-1.2s-1.2.5-1.2 1.2v10.1c0 .7.5 1.2 1.2 1.2s1.2-.5 1.2-1.2zm12.3-17.3V51.8c0-.7-.5-1.2-1.2-1.2s-1.1.5-1.1 1.2v10.1c0 .7.5 1.2 1.2 1.2s1.1-.6 1.1-1.2zm-1.2 6.9c-2.9 0-5.4 2.8-5.4 6.2 0 3.4 2.4 6.2 5.4 6.2 2.9 0 5.4-2.8 5.4-6.2 0-3.4-2.4-6.2-5.4-6.2zm0 10.1c-1.6 0-3-1.7-3-3.9 0-2.1 1.3-3.9 3-3.9s3 1.7 3 3.9-1.3 3.9-3 3.9z" fill="#999" stroke="#999" stroke-miterlimit="10"/></svg>