<svg xmlns="http://www.w3.org/2000/svg" viewBox="0 0 72 96"><style>.st0{fill:#679eb2}</style><path class="st0" d="M0 2v92c0 1.1.9 2 2 2h68c1.1 0 2-.9 2-2V28H50c-1.1 0-2-.9-2-2V0H2C.9 0 0 .9 0 2z"/><path class="st0" d="M71.9 24c-.1-.4-.2-.7-.4-1L52 1.2V24h19.9z"/><path d="M6 41h60v49H6zm6.5-34.9c1.3 0 2.6.4 3.6 1.2l-1.4 2.8c-.4-.5-1.3-.9-2.1-.9-2.1 0-3.2 1.9-3.2 4.2 0 2.3 1.2 4.4 3.2 4.4 1 0 1.7-.5 2.3-1l1.4 2.8c-.9.7-2 1.3-3.9 1.3-4 0-6.3-3.1-6.3-7.4-.1-4.2 2.3-7.4 6.4-7.4zm6.5.3h7.1v2.9h-3.8v3.1h3.1v2.9h-3.1v5.4H19V6.4zm10.5 0h3.6l1.3 6c.2.9.4 2.4.4 2.4h.2s.2-1.5.4-2.4l1.3-6h3.6l.9 14.3h-3l-.4-6.4c-.1-1.1 0-2.4 0-2.4h-.1s-.2 1.5-.4 2.4l-.9 4.1h-3.2l-.9-4.1c-.2-.9-.4-2.4-.4-2.4h.1s.1 1.3 0 2.4l-.4 6.4h-3l.9-14.3z" fill="#fff"/><path d="M31.5 81.8c-7.4 0-10.8-7.1-10.8-14.9C20.6 59.2 24 52 31.5 52c2.3 0 4.2.6 5.7 1.6l-1 2.4c-1.1-.7-2.6-1.2-4.2-1.2-5.2 0-7.3 6-7.3 12.1 0 6 2.1 12 7.2 12 1.6 0 3.2-.5 4.2-1.2l1 2.5c-1.5 1-3.3 1.6-5.6 1.6zM46.4 61v20.3h-3.7V61h-2.6v-2.3h2.6v-3.2c0-4.3 2.4-7.2 6.9-7.2h.8v2.4h-.3c-2 0-3.7 1-3.7 4.6v3.3h3.9V61h-3.9z" fill="#679eb2" stroke="#679eb2" stroke-width="1.25" stroke-miterlimit="10"/></svg>