<svg id="Layer_1" xmlns="http://www.w3.org/2000/svg" viewBox="0 0 72 96"><style>.st0{fill:#fff}.st3{fill:#bababa}</style><path class="st0" d="M0 2v92c0 1.1.9 2 2 2h68c1.1 0 2-.9 2-2V28H50c-1.1 0-2-.9-2-2V0H2C.9 0 0 .9 0 2z"/><path d="M15.1 43v-4.7c1-.1 1.7-.2 2.2-.5.5-.2.9-.7 1.2-1.1.4-.6.6-1.2.8-2.1.1-.7.2-1.7.2-3.3 0-2.6.1-4.3.4-5.4.2-1 .7-1.8 1.2-2.4.6-.6 1.5-1.1 2.7-1.4.8-.2 2-.4 3.7-.4h1.1v4.7c-1.4 0-2.4.1-2.8.3-.4.2-.7.4-1 .8-.2.3-.3.9-.3 1.7 0 .9-.1 2.4-.2 4.7-.1 1.3-.2 2.4-.5 3.3-.3.8-.7 1.4-1.1 2-.4.5-1.1 1.1-1.9 1.6.8.5 1.4 1 1.9 1.5.5.6.9 1.3 1.1 2.2s.5 2 .5 3.4c.1 2.2.1 3.5.1 4.2 0 .9.1 1.4.3 1.8.2.4.6.6 1 .8s1.3.3 2.8.3v4.7h-1.1c-1.7 0-3.2-.1-4-.4-1-.3-1.7-.8-2.4-1.4-.7-.7-1.1-1.4-1.3-2.4-.2-1-.3-2.5-.3-4.6 0-2.4-.1-4-.3-4.7-.3-1.1-.8-1.8-1.3-2.3-.6-.5-1.5-.9-2.7-.9zm42.4 0c-1 .1-1.7.2-2.2.5-.5.2-.9.7-1.2 1.1-.4.6-.6 1.2-.8 2.1-.1.7-.2 1.7-.2 3.3 0 2.6-.1 4.3-.4 5.4-.2 1.1-.7 1.8-1.2 2.4s-1.5 1.1-2.7 1.4c-.8.2-2 .4-3.7.4H44v-4.7c1.4 0 2.3-.1 2.8-.3.5-.2.8-.5 1-.8.2-.3.3-.9.3-1.7 0-.8.1-2.3.2-4.6.1-1.3.3-2.5.6-3.3.3-.9.7-1.5 1.1-2.1.5-.6 1.1-1.1 1.8-1.5-1-.7-1.7-1.2-2.1-1.8-.6-.9-1.1-2-1.2-3.3-.2-1-.3-3-.3-6 0-1-.1-1.6-.3-2-.2-.3-.5-.6-.9-.8-.4-.2-1.3-.3-2.9-.3v-4.6h1.1c1.7 0 3.2.1 4 .4 1 .3 1.7.8 2.4 1.4.7.7 1.1 1.4 1.3 2.4.2 1 .4 2.5.4 4.6 0 2.4.1 3.9.3 4.7.3 1.1.8 1.8 1.3 2.2.6.5 1.5.7 2.7.8-.1 0-.1 4.7-.1 4.7z" fill="#bababa" stroke="#bababa" stroke-miterlimit="10"/><path class="st0" d="M71.9 24c-.1-.4-.2-.7-.4-1L52 1.2V24h19.9z"/><path d="M15.1 70.2c1.3 0 2.6.4 3.6 1.2l-1.4 2.8c-.4-.5-1.3-.9-2.1-.9-2.1 0-3.2 1.9-3.2 4.2 0 2.3 1.2 4.4 3.2 4.4 1 0 1.7-.5 2.3-1l1.4 2.8c-.9.7-2 1.3-3.9 1.3-4 0-6.3-3.1-6.3-7.4 0-4.4 2.4-7.4 6.4-7.4zm6.6.2H25v11.4h4.3v2.9h-7.6V70.4zm12.7 0H38l3.6 14.3h-3.3l-.6-3h-3l-.6 3h-3.3l3.6-14.3zm2.8 8.6l-.6-2.8c-.2-.9-.4-2.5-.4-2.5h-.1s-.2 1.5-.4 2.5l-.5 2.8h2zm7.6 1.7c.6.6 1.4 1.2 2.3 1.2.9 0 1.3-.6 1.3-1.2 0-2-4.8-2.1-4.8-6.2 0-2.4 1.7-4.3 4.5-4.3 1.2 0 2.4.3 3.4 1l-1.2 2.9c-.5-.4-1.4-.9-2.2-.9-.9 0-1.3.6-1.3 1.2 0 2.1 4.8 2 4.8 6.1 0 2.3-1.5 4.4-4.4 4.4-1.4 0-2.9-.5-4-1.4l1.6-2.8zm10.7 0c.6.6 1.4 1.2 2.3 1.2.9 0 1.3-.6 1.3-1.2 0-2-4.8-2.1-4.8-6.2 0-2.4 1.7-4.3 4.5-4.3 1.2 0 2.4.3 3.4 1L61 74.1c-.5-.4-1.4-.9-2.2-.9-.9 0-1.3.6-1.3 1.2 0 2.1 4.8 2 4.8 6.1 0 2.3-1.5 4.4-4.4 4.4-1.4 0-2.9-.5-4-1.4l1.6-2.8z" fill="#666"/><path class="st3" d="M0 94V2C0 .9.9 0 2 0h48c.6 0 1.1.2 1.5.7l20 22.3c.3.4.5.8.5 1.3V94c0 1.1-.9 2-2 2H2c-1.1 0-2-.9-2-2zm68-68.9L49.1 4H4v88h64V25.1z"/><path class="st3" d="M48 26V4c0-1.1.9-2 2-2s2 .9 2 2v20h16c1.1 0 2 .9 2 2s-.9 2-2 2H50c-1.1 0-2-.9-2-2z"/></svg>