<svg id="Layer_1" xmlns="http://www.w3.org/2000/svg" viewBox="0 0 72 96"><style>.st0{fill:#999}</style><path class="st0" d="M0 2v92c0 1.1.9 2 2 2h68c1.1 0 2-.9 2-2V28H50c-1.1 0-2-.9-2-2V0H2C.9 0 0 .9 0 2z"/><path class="st0" d="M71.9 24c-.1-.4-.2-.7-.4-1L52 1.2V24h19.9z"/><path d="M6 41h60v49H6zm6.1-34.9c1.2 0 2.5.4 3.4 1.2l-1.3 2.8c-.4-.5-1.2-.9-2-.9-2 0-3.1 1.9-3.1 4.2 0 2.3 1.1 4.4 3 4.4.9 0 1.6-.5 2.2-1l1.3 2.8c-.9.7-1.9 1.3-3.7 1.3-3.8 0-6-3.1-6-7.4.1-4.2 2.4-7.4 6.2-7.4zm6.2.3h3.5l1.3 6c.2.9.4 2.4.4 2.4h.1s.2-1.5.4-2.4l1.3-6h3.5l.9 14.3h-2.9l-.4-6.4c-.1-1.1 0-2.4 0-2.4h-.1s-.2 1.5-.4 2.4l-.9 4.1h-3l-.8-4.1c-.2-.9-.4-2.4-.4-2.4h-.1s.1 1.3 0 2.4l-.4 6.4h-2.9l.9-14.3zm13.9 0h4c3.5 0 5.6 2.6 5.6 7.1s-2.1 7.2-5.6 7.2h-4V6.4zM36 17.8c1.6 0 2.5-1.5 2.5-4.3s-.9-4.2-2.5-4.2h-.8v8.5h.8z" fill="#fff"/><path class="st0" d="M54.8 46.8h-38v38h38v-38zm-30.4 7.5h-3.8v-3.8h3.8v3.8zm26.6 0H28.1v-3.8H51v3.8zm0 26.6H20.5V58.2H51v22.7z"/><path class="st0" d="M26.5 61.4l-2.7 2.7 4.4 4.4-4.4 4.3 2.7 2.7 7.1-7zm6.3 12.8h7.6V78h-7.6z"/></svg>