<svg xmlns="http://www.w3.org/2000/svg" viewBox="0 0 72 96"><g fill="#999"><path d="M0 2v92c0 1.1.9 2 2 2h68c1.1 0 2-.9 2-2V28H50c-1.1 0-2-.9-2-2V0H2C.9 0 0 .9 0 2z"/><path d="M71.9 24c-.1-.4-.2-.7-.4-1L52 1.2V24h19.9z"/></g><path fill="#FFF" d="M6 41h60v49H6zm6.5-34.9c1.3 0 2.6.4 3.6 1.2l-1.4 2.8c-.4-.5-1.3-.9-2.1-.9-2.1 0-3.2 1.9-3.2 4.2s1.2 4.4 3.2 4.4c1 0 1.7-.5 2.3-1l1.4 2.8c-.9.7-2 1.3-3.9 1.3-4 0-6.3-3.1-6.3-7.4-.1-4.2 2.3-7.4 6.4-7.4zm6.5.3h4.5c2.6 0 4.4 2 4.4 4.9s-1.7 5-4.4 5h-1.2v4.4H19V6.4zm3.9 7c1 0 1.6-.9 1.6-2.1s-.7-2-1.6-2h-.7v4.1h.7zm7.8-7h4.5c2.6 0 4.4 2 4.4 4.9s-1.7 5-4.4 5H34v4.4h-3.3V6.4zm3.9 7c1 0 1.6-.9 1.6-2.1s-.7-2-1.6-2H34v4.1h.6z"/><path fill="#999" d="M24.6 54c5.6 0 8.3 3.1 8.3 3.1l-2.5 5.4s-2.2-2.2-5.3-2.2c-3.8 0-5.6 2.6-5.6 5.6 0 3 1.9 5.8 5.6 5.8 3.5 0 5.5-2.7 5.5-2.7l3 5.2s-2.9 3.7-8.9 3.7c-7.1 0-11.8-5-11.8-11.9-.1-6.8 4.7-12 11.7-12zm10.8 10.3h4v-4.5h3.3v4.5h4v3.4h-4v4.5h-3.3v-4.5h-4v-3.4zm12.7 0h4v-4.5h3.3v4.5h4v3.4h-4v4.5H52v-4.5h-4l.1-3.4z"/></svg>