<svg id="Layer_1" xmlns="http://www.w3.org/2000/svg" viewBox="0 0 72 96"><style>.st0{fill:#63b763}</style><path class="st0" d="M0 2v92c0 1.1.9 2 2 2h68c1.1 0 2-.9 2-2V28H50c-1.1 0-2-.9-2-2V0H2C.9 0 0 .9 0 2z"/><path class="st0" d="M71.9 24c-.1-.4-.2-.7-.4-1L52 1.2V24h19.9z"/><path d="M6 41h60v49H6V41zm5.8-34.9c1.1 0 2.4.4 3.2 1.2l-1.2 2.8c-.4-.5-1.2-.9-1.9-.9-1.9.1-2.9 2-2.9 4.2 0 2.3 1 4.4 2.9 4.4.9 0 1.5-.5 2.1-1l1.2 2.8c-.8.7-1.8 1.3-3.5 1.3-3.6 0-5.7-3.1-5.7-7.4 0-4.2 2.1-7.4 5.8-7.4zm4.6.3h4.1c2.4 0 3.9 2 3.9 4.9s-1.6 5-3.9 5h-1.1v4.4h-3V6.4zm3.5 7c.9 0 1.5-.9 1.5-2.1s-.6-2-1.4-2h-.6v4.1h.5zm7.8-4.1h-2.8V6.4h8.6v2.9h-2.8v11.4h-2.9V9.3h-.1zm9.2 4.3l-3.1-7.2H37l1 2.9c.3.9.5 1.8.5 1.8s.2-.9.5-1.8l1-2.9h3.2l-3.1 7.2 3 7.1h-3.2l-1-3c-.3-.9-.5-1.7-.5-1.7s-.2.8-.5 1.7l-1 3h-3.2l3.2-7.1z" fill="#fff"/><path d="M27.9 76.2c-7.4 0-10.9-6.5-10.9-13.5s3.4-13.5 10.9-13.5c2.3 0 4.2.6 5.6 1.4l-1 2.1c-1-.6-2.7-1.1-4.2-1.1-5.2 0-7.2 5.5-7.2 11 0 5.4 2.1 10.9 7.2 10.9 1.6 0 3.1-.5 4.2-1.1l1 2.3c-1.4 1.1-3.2 1.5-5.6 1.5zm17.2 0c-1.3 0-2.7-.2-3.5-.5v8.4H38V56.4c1.9-1 4.4-1.4 7-1.4 6.5 0 10 4 10 10.3 0 6.8-3.9 10.9-9.9 10.9zM44.8 57c-1.1 0-2.4.2-3.2.6v16.1c.7.2 1.6.4 2.8.4 4.6 0 7-3.1 7-8.6-.1-5.2-1.9-8.5-6.6-8.5z" fill="#63b763" stroke="#63b763" stroke-width="2" stroke-miterlimit="10"/></svg>