<svg id="Layer_1" xmlns="http://www.w3.org/2000/svg" viewBox="0 0 72 96"><style>.st0{fill:#fff}.st1{fill:#b4bdcc}</style><path class="st0" d="M71.9 24c-.1-.4-.2-.7-.4-1L52 1.2V24h19.9z"/><path class="st0" d="M0 2v92c0 1.1.9 2 2 2h68c1.1 0 2-.9 2-2V28H50c-1.1 0-2-.9-2-2V0H2C.9 0 0 .9 0 2z"/><path class="st1" d="M0 94V2C0 .9.9 0 2 0h48c.6 0 1.1.2 1.5.7l20 22.3c.3.4.5.8.5 1.3V94c0 1.1-.9 2-2 2H2c-1.1 0-2-.9-2-2zm68-68.9L49.1 4H4v88h64V25.1z"/><path class="st1" d="M48 26V4c0-1.1.9-2 2-2s2 .9 2 2v20h16c1.1 0 2 .9 2 2s-.9 2-2 2H50c-1.1 0-2-.9-2-2z"/><path d="M19.7 36c10-11.6 28.5-9.3 35.5 4.3H38.5c-3 0-4.9-.1-7 1-2.5 1.3-4.3 3.7-5 6.5L19.7 36z" opacity=".55" fill="#f44336"/><path d="M28.8 50c0 3.9 3.2 7.1 7.1 7.1S43 53.9 43 50s-3.2-7.1-7.1-7.1c-3.8-.1-7.1 3.2-7.1 7.1z" opacity=".55" fill="#2196f3"/><path d="M38.8 59.4c-4 1.2-8.7-.1-11.3-4.6-2-3.4-7.1-12.4-9.5-16.5C9.7 51 16.9 68.2 31.8 71.1l7-11.7z" opacity=".55" fill="#4caf50"/><path d="M42.6 42.8c3.3 3.1 4.1 8.1 1.8 12-1.7 2.9-7.1 12.1-9.8 16.6 15.4 1 26.7-14.2 21.6-28.6H42.6z" opacity=".55" fill="#ffc107"/></svg>