<svg id="Layer_1" xmlns="http://www.w3.org/2000/svg" viewBox="0 0 72 96"><style>.st0{fill:#999}</style><path class="st0" d="M0 2v92c0 1.1.9 2 2 2h68c1.1 0 2-.9 2-2V28H50c-1.1 0-2-.9-2-2V0H2C.9 0 0 .9 0 2z"/><path class="st0" d="M71.9 24c-.1-.4-.2-.7-.4-1L52 1.2V24h19.9z"/><path d="M6 41h60v49H6zm.5-34.6h3.9c3.4 0 5.5 2.6 5.5 7.1s-2.1 7.2-5.5 7.2H6.5V6.4zm3.9 11.4c1.6 0 2.4-1.5 2.4-4.3s-.9-4.2-2.4-4.2h-.8v8.5h.8zm9-11.4h3.3L26 20.7h-3.1l-.6-3h-2.8l-.5 3h-3.1l3.5-14.3zm2.7 8.6l-.5-2.8c-.2-.9-.4-2.5-.4-2.5h-.1s-.2 1.5-.4 2.5l-.5 2.8h1.9zm6.1-5.7h-2.9V6.4h8.9v2.9h-2.9v11.4h-3V9.3zm8.4-2.9h3.3l3.3 14.3h-3.1l-.6-3h-2.8l-.5 3h-3.1l3.5-14.3zm2.6 8.6l-.5-2.8c-.2-.9-.4-2.5-.4-2.5h-.1s-.2 1.5-.4 2.5l-.5 2.8h1.9z" fill="#fff"/><path d="M35.8 49.7c-2.9 0-5.4 2.8-5.4 6.2 0 3.4 2.4 6.2 5.4 6.2 2.9 0 5.4-2.8 5.4-6.2 0-3.4-2.4-6.2-5.4-6.2zm0 10.1c-1.6 0-3-1.7-3-3.9 0-2.1 1.3-3.9 3-3.9s3 1.7 3 3.9-1.3 3.9-3 3.9zM25 61V50.9c0-.7-.5-1.2-1.2-1.2s-1.2.5-1.2 1.2V61c0 .7.5 1.2 1.2 1.2S25 61.6 25 61zm-1.1 6.9c-2.9 0-5.4 2.8-5.4 6.2 0 3.4 2.4 6.2 5.4 6.2s5.4-2.8 5.4-6.2c-.1-3.3-2.5-6.2-5.4-6.2zm0 10.2c-1.6 0-3-1.7-3-3.9 0-2.1 1.3-3.9 3-3.9s3 1.7 3 3.9c-.1 2.1-1.4 3.9-3 3.9zM37 79.2V69.1c0-.7-.5-1.2-1.2-1.2s-1.2.5-1.2 1.2v10.1c0 .7.5 1.2 1.2 1.2s1.2-.5 1.2-1.2zm12.3-17.3V51.8c0-.7-.5-1.2-1.2-1.2s-1.1.5-1.1 1.2v10.1c0 .7.5 1.2 1.2 1.2s1.1-.6 1.1-1.2zm-1.2 6.9c-2.9 0-5.4 2.8-5.4 6.2 0 3.4 2.4 6.2 5.4 6.2 2.9 0 5.4-2.8 5.4-6.2 0-3.4-2.4-6.2-5.4-6.2zm0 10.1c-1.6 0-3-1.7-3-3.9 0-2.1 1.3-3.9 3-3.9s3 1.7 3 3.9-1.3 3.9-3 3.9z" fill="#999" stroke="#999" stroke-miterlimit="10"/></svg>