<svg id="Layer_1" xmlns="http://www.w3.org/2000/svg" viewBox="0 0 72 96"><style>.st0{fill:#bababa}</style><path class="st0" d="M0 2v92c0 1.1.9 2 2 2h68c1.1 0 2-.9 2-2V28H50c-1.1 0-2-.9-2-2V0H2C.9 0 0 .9 0 2z"/><path class="st0" d="M71.9 24c-.1-.4-.2-.7-.4-1L52 1.2V24h19.9z"/><path d="M6 41h60v49H6zm.6-34.6h4.2c3.7 0 5.9 2.6 5.9 7.1s-2.2 7.2-5.9 7.2H6.6V6.4zm4.1 11.4c1.7 0 2.6-1.5 2.6-4.3s-1-4.2-2.6-4.2h-.8v8.5h.8zm9.1-11.4h3.3v14.3h-3.3V6.4zm6.4 12.1l4.2-7.9c.5-.9.8-1.3.8-1.3s-.3.1-.8.1h-4v-3H35v2.2l-4.2 8c-.5.9-.8 1.3-.8 1.3s.3-.1.8-.1h4.3v2.9h-8.9v-2.2z" fill="#fff"/><path class="st0" d="M52 50.2c-2.6 0-1.9 2.6-2.4 3.7-.2.4-.5 1.2-.8 1.9l.2-.4c-.2.4-.3.5-.7.8 0 0-1.8 1.1-3.4 2-1.9-3.3-5.3-5.2-9-5.2s-7.2 2-9 5.2c-1.7-1-3.5-2-3.5-2-.4-.3-.6-.4-.7-.8l.2.4c-.3-.7-.6-1.4-.8-1.9-.4-1.2.3-3.7-2.4-3.7-2.6 0-2.1 3.5-2.9 4.9-.5.9-2 1.8-2.7 2.8-.1.1-.1.2-.1.3-.3.5-.4 1.2.1 1.9 1.3 2.2 3.2.4 4.4.2.5-.1 1.2-.1 2-.3l-.5.1c.4-.1.6 0 1.1.3 0 0 1.9 1.1 4.4 2.5v.6c0 1.9.5 3.9 1.6 5.5-3.4 2-6.3 3.8-6.3 3.8-.4.3-.6.4-1 .3h.4-1.9c-1.2 0-2.7-1.4-4.2.5-1.4 1.9 1.5 2.8 2.1 3.9.6 1.1-.2 4.1 2.3 3.8 2.4-.3 2-2.3 2.6-3.4.3-.4.6-1 .9-1.6l-.2.4c.2-.3.4-.4.8-.7 0 0 2.8-1.5 6-3.4v4.6c.9.4 1.8.6 2.7.8v-2.5l1.3.3v2.5c.9.2 1.8.3 2.7.3v-2.5h1.2v2.4c.9 0 1.8-.1 2.7-.3v-2.5l1.3-.3V78c.9-.2 1.8-.4 2.7-.8v-4.6c3.3 1.8 6 3.4 6 3.4.4.3.6.4.8.7.3.4.5.9.7 1.2.5 1 .2 3.1 2.6 3.4s1.7-2.7 2.3-3.8c.6-1.1 3.5-1.9 2.1-3.9-1.4-1.9-3-.6-4.2-.5h-1.9.4c-.4 0-.5 0-1-.3 0 0-2.9-1.8-6.3-3.8 1.1-1.7 1.6-3.5 1.6-5.5v-.6c2.5-1.4 4.4-2.5 4.4-2.5.4-.3.7-.3 1.1-.3l-.3-.1c.8.1 1.5.2 2 .3 1.2.2 3.1 2 4.4-.2 1.3-2.2-1.9-3.6-2.7-5-.5-.9-.4-2.7-1.1-3.8 0-.1-.1-.2-.1-.2-.7-.6-1.2-.8-2-.9zM31.9 62.3c.3 0 .4 0 .7.1 1.4.4 1.8 1.7 1.4 3.2-.4 1.4-1.9 2.3-3.3 1.9-1.4-.4-1.9-1.8-1.4-3.2.3-1.2 1.4-2 2.6-2zm7.8 0c1.2 0 2.4.8 2.7 1.9.4 1.4 0 2.7-1.4 3.2-1.4.4-2.9-.4-3.3-1.9-.4-1.4 0-2.7 1.4-3.2.2.1.4.1.6 0zM35.8 69c.4 0 2.1 2.2 1.9 2.5s-3.6.3-3.8 0c-.2-.3 1.6-2.5 1.9-2.5z"/></svg>