<svg id="Layer_1" xmlns="http://www.w3.org/2000/svg" viewBox="0 0 72 96"><style>.st0{fill:#999}</style><path class="st0" d="M0 2v92c0 1.1.9 2 2 2h68c1.1 0 2-.9 2-2V28H50c-1.1 0-2-.9-2-2V0H2C.9 0 0 .9 0 2z"/><path class="st0" d="M71.9 24c-.1-.4-.2-.7-.4-1L52 1.2V24h19.9z"/><path d="M6 41h60v49H6zm.6-34.6h4.2c3.7 0 5.9 2.6 5.9 7.1s-2.2 7.2-5.9 7.2H6.6V6.4zm4.1 11.4c1.7 0 2.6-1.5 2.6-4.3s-1-4.2-2.6-4.2h-.8v8.5h.8zm10.7-8.5h-3.1V6.4h9.6v2.9h-3.2v11.4h-3.3V9.3zm9.2-2.9h4.2c3.7 0 5.9 2.6 5.9 7.1s-2.2 7.2-5.9 7.2h-4.2V6.4zm4.1 11.4c1.7 0 2.6-1.5 2.6-4.3s-1-4.2-2.6-4.2h-.8v8.5h.8z" fill="#fff"/><path d="M30.2 64.4l-11-5.5v-.1l11-5.4v-3.8l-14.6 7.8v3l14.6 7.7zm7.5-3.2l.7-12.8h-4.8l.7 12.8zm-1.7 8c1.6 0 2.7-1.4 2.7-3.1 0-1.9-1.1-3.1-2.7-3.1s-2.7 1.3-2.7 3.1c-.1 1.7 1 3.1 2.7 3.1zm5.8-19.6v3.8L53 58.8v.1l-11.2 5.5v3.7l14.6-7.7v-3.1zM17.8 73h36.5v2.5H17.8zm0 7.1h36.5v2.5H17.8z" fill="#999" stroke="#999" stroke-width=".75" stroke-miterlimit="10"/></svg>