<svg id="Layer_1" xmlns="http://www.w3.org/2000/svg" viewBox="0 0 72 96"><style>.st0{fill:#7e57c2}</style><path class="st0" d="M0 2v92c0 1.1.9 2 2 2h68c1.1 0 2-.9 2-2V28H50c-1.1 0-2-.9-2-2V0H2C.9 0 0 .9 0 2z"/><path class="st0" d="M71.9 24c-.1-.4-.2-.7-.4-1L52 1.2V24h19.9z"/><path d="M6 41h60v49H6V41zm.6-34.6h7.2v2.9H9.9V12H13v2.9H9.9v2.9H14v2.9H6.6V6.4zm11 0h3.6l1.3 6c.2.9.4 2.4.4 2.4h.1s.2-1.5.4-2.4l1.3-6h3.6l.9 14.3h-3l-.2-6.4c-.1-1.1 0-2.4 0-2.4h-.1s-.2 1.5-.4 2.4l-.9 4.1h-3.2l-.9-4.1c-.2-.9-.4-2.4-.4-2.4H20s.1 1.3 0 2.4l-.4 6.4h-3l1-14.3zm15.1 0H36v11.4h4.3v2.9h-7.6V6.4z" fill="#fff"/><path d="M21.9 77.2h28.3l-9.7-9.3-4.5 3.8-4.5-3.8-9.6 9.3zM56 52v28H16V52h40zM42.6 66.2l10.7 10.3V57.2l-10.7 9zM18.4 76.5l10.7-10.3-10.7-9v19.3zm1.4-21.7l15.9 13.4 15.9-13.4H19.8z" fill="#7e57c2" stroke="#7e57c2" stroke-width=".75" stroke-miterlimit="10"/></svg>