<svg xmlns="http://www.w3.org/2000/svg" viewBox="0 0 72 96"><style>.st0{fill:#696}</style><path class="st0" d="M0 2v92c0 1.1.9 2 2 2h68c1.1 0 2-.9 2-2V28H50c-1.1 0-2-.9-2-2V0H2C.9 0 0 .9 0 2z"/><path class="st0" d="M71.9 24c-.1-.4-.2-.7-.4-1L52 1.2V24h19.9z"/><path d="M6 41h60v49H6zm.6-34.6h7.2v2.9H9.9V12H13v2.9H9.9v2.9H14v2.9H6.6V6.4zm10.5 0h3.5L23 13c.4 1 .7 2.4.7 2.4h.1s-.2-1.5-.2-2.4V6.4h3.1v14.3h-3.4l-2.5-6.6c-.4-1-.7-2.4-.7-2.4H20s.2 1.5.2 2.4v6.6h-3.1V6.4zm19.1-.3c1.3 0 2.6.4 3.6 1.2l-1.4 2.8c-.4-.5-1.3-.9-2.1-.9-2.1 0-3.2 1.9-3.2 4.2 0 2.3 1.2 4.4 3.2 4.4 1 0 1.7-.5 2.3-1l1.4 2.8c-.9.7-2 1.3-3.9 1.3-4 0-6.3-3.1-6.3-7.4 0-4.2 2.4-7.4 6.4-7.4z" fill="#fff"/><path class="st0" d="M49.2 62.2h-2.6v-5C46.6 51.5 42 47 36.4 47s-10.2 4.6-10.2 10.2v5h-2.6c-1 0-1.8.8-1.8 1.8v17.4c0 1 .8 1.8 1.8 1.8h25.6c1 0 1.8-.8 1.8-1.8V63.9c0-.9-.8-1.7-1.8-1.7zM38.6 76.6c.2.6-.3 1.1-.9 1.1H35c-.6 0-1-.6-.9-1.1l.8-3.2c-1-.5-1.7-1.5-1.7-2.8 0-1.7 1.4-3.1 3.1-3.1 1.7 0 3.1 1.4 3.1 3.1 0 1.2-.7 2.3-1.7 2.8l.9 3.2zm2.9-14.4H31.3v-5c0-2.8 2.3-5.1 5.1-5.1s5.1 2.3 5.1 5.1v5z"/></svg>