<svg id="Layer_1" xmlns="http://www.w3.org/2000/svg" viewBox="0 0 72 96"><style>.st0{fill:#d10407}</style><path class="st0" d="M0 2v92c0 1.1.9 2 2 2h68c1.1 0 2-.9 2-2V28H50c-1.1 0-2-.9-2-2V0H2C.9 0 0 .9 0 2z"/><path class="st0" d="M71.9 24c-.1-.4-.2-.7-.4-1L52 1.2V24h19.9z"/><path d="M6 41h60v49H6zm.6-34.6h7.1v2.9H9.9v3.1H13v2.9H9.9v5.4H6.6V6.4zm9.3 8.8l3.7-8.8h4.2v8.1H25v3h-1.2v3.2h-3.2v-3.2h-4.7v-2.3zm4.7-.7v-3.4c0-.8.1-1.3.1-1.3s-.1.6-.3 1.2L19 14.5h1.6zm6.1-8.1h3.6l1.6 8.1c.2.9.3 2.3.3 2.3h.1s.2-1.4.3-2.3l1.7-8.1h3.5l-3.9 14.3h-3.3L26.7 6.4z" fill="#fff"/><path class="st0" d="M47.2 55.6c1-.4 2.1-.5 3.2-.5V48c-4.8-.1-9.4 2-12.4 5.8-1.2 1.6-2.3 3.3-3.1 5.2l-2.3 5.7c-.6 1.7-1.3 3.5-2.1 5.1-.6 1.4-1.3 2.6-2.2 3.8-.7 1-1.7 1.8-2.8 2.3-1.2.6-2.6.9-4 .9V84c4.8.1 9.4-2 12.4-5.8.9-1.3 1.8-2.7 2.5-4.1l1.9-4.5h8.3v-7.1h-5.5c.4-1.1 1-2.1 1.7-3.1.5-.9 1.2-1.6 1.9-2.2.9-.8 1.7-1.3 2.5-1.6z"/></svg>