<svg id="Layer_1" xmlns="http://www.w3.org/2000/svg" viewBox="0 0 72 96"><style>.st0{fill:#fff}.st1{fill:#bababa}</style><path class="st0" d="M0 2v92c0 1.1.9 2 2 2h68c1.1 0 2-.9 2-2V28H50c-1.1 0-2-.9-2-2V0H2C.9 0 0 .9 0 2z"/><path class="st1" d="M57.2 22.7l-19.3 2.6v15.3h19.3V22.7zm-22.8 3l-19.3 2.6v12.3h19.3V25.7zM15.2 44.1v12.3L34.5 59V44.2l-19.3-.1zm22.7 0v15.3L57.2 62V44.1H37.9z"/><path class="st0" d="M71.9 24c-.1-.4-.2-.7-.4-1L52 1.2V24h19.9z"/><path d="M13 70.2c1.1 0 2.3.4 3.2 1.3l-1.1 2.8c-.4-.6-1.1-.9-1.9-.9-1.8 0-2.5 1.9-2.5 4.2 0 2.6 1 4.3 2.3 4.3.5 0 1-.2 1.4-.6v-1.7h-1.2v-2.9h3.5v8.1h-2v-.9c-.4.7-1.3 1.2-2.2 1.2-2.2 0-4.5-2.7-4.5-7.3s1.9-7.6 5-7.6zm7.8.2h2.8l2.9 14.3h-2.6l-.5-3H21l-.5 3H18l2.8-14.3zm2.3 8.6l-.4-2.8c-.2-.9-.3-2.5-.3-2.5h-.1s-.2 1.5-.3 2.5l-.5 2.8h1.6zm5.1-8.6h3.3c2.9 0 4.7 2.6 4.7 7.1s-1.8 7.2-4.7 7.2h-3.3V70.4zm3.3 11.4c1.3 0 2.1-1.5 2.1-4.3s-.8-4.2-2.1-4.2h-.7v8.5h.7zM43 70.2c1.1 0 2.3.4 3.2 1.3L45 74.2c-.4-.6-1.1-.9-1.9-.9-1.8 0-2.5 1.9-2.5 4.2 0 2.6 1 4.3 2.3 4.3.5 0 1-.2 1.4-.6v-1.7h-1.2v-2.9h3.5v8.1h-2v-.9c-.4.7-1.3 1.2-2.2 1.2-2.2 0-4.5-2.7-4.5-7.3 0-4.5 2-7.5 5.1-7.5zm5.8.2h5.7v2.9h-3.1V76h2.5v2.9h-2.5v2.9h3.3v2.9h-5.9V70.4zm9.8 2.9h-2.5v-2.9h7.7v2.9h-2.5v11.4h-2.6V73.3h-.1z" fill="#666"/><path class="st1" d="M0 94V2C0 .9.9 0 2 0h48c.6 0 1.1.2 1.5.7l20 22.3c.3.4.5.8.5 1.3V94c0 1.1-.9 2-2 2H2c-1.1 0-2-.9-2-2zm68-68.9L49.1 4H4v88h64V25.1z"/><path class="st1" d="M48 26V4c0-1.1.9-2 2-2s2 .9 2 2v20h16c1.1 0 2 .9 2 2s-.9 2-2 2H50c-1.1 0-2-.9-2-2z"/></svg>