<svg id="Layer_1" xmlns="http://www.w3.org/2000/svg" viewBox="0 0 72 96"><style>.st0{fill:#c19770}</style><path class="st0" d="M0 2v92c0 1.1.9 2 2 2h68c1.1 0 2-.9 2-2V28H50c-1.1 0-2-.9-2-2V0H2C.9 0 0 .9 0 2z"/><path class="st0" d="M71.9 24c-.1-.4-.2-.7-.4-1L52 1.2V24h19.9z"/><path d="M6 41h60v49H6zm.6-34.6h3.3v5.8h3.2V6.4h3.3v14.3h-3.3V15H9.9v5.7H6.6V6.4zm12.4 0h4.2c2.5 0 4.2 1.3 4.2 3.7 0 1.2-.5 2.4-1.7 3 1.6.5 2.1 1.9 2.1 3.2 0 3.1-2 4.3-4.4 4.3H19V6.4zm4.2 5.6c.6 0 .9-.6.9-1.4s-.3-1.3-1-1.3h-.8V12h.9zm.2 5.8c.8 0 1.2-.7 1.2-1.6 0-.9-.3-1.5-1.1-1.5h-1.2v3.1h1.1zm7.3-1.1c.6.6 1.4 1.2 2.3 1.2.9 0 1.3-.6 1.3-1.2 0-2-4.8-2.1-4.8-6.2 0-2.4 1.7-4.3 4.5-4.3 1.2 0 2.4.3 3.4 1l-1.2 2.9c-.5-.4-1.4-.9-2.2-.9-.9 0-1.3.6-1.3 1.2 0 2.1 4.8 2 4.8 6.1 0 2.3-1.5 4.4-4.4 4.4-1.4 0-2.9-.5-4-1.4l1.6-2.8z" fill="#fff"/><path class="st0" d="M29.8 69c1.6-.1 3.3.5 4.6 1.6.6.5 1.2 1.2 1.6 2 .8-1.3 2-2.4 3.5-3 1.8-.6 3.8-.6 5.6 0 1.6.6 3 1.5 4.2 2.7.9.9 1.9 1.8 2.9 2.6.5.5 1.1.8 1.7 1 .9.3 1.9 0 2.5-.6.5-.6.5-1.6-.1-2.3-.4-.3-.9-.3-1.3.1 0 0 0 .1-.1.1-.2.4-.2.9.1 1.2-.5-.3-.9-.9-1-1.6-.1-.8.5-1.5 1.2-1.7 1.4-.5 3.1-.1 3.9 1.1.7 1.2 1 2.6.8 3.9-.2 1.3-.9 2.4-2 3.2-1.5 1-3.3 1.5-5.2 1.3-1.7-.1-3.5-.4-5-1.1-2.7-1.1-5.2-2.5-7.9-3.4-.9-.2-2-.5-2.9-.6h-2.2c-.9.1-1.8.3-2.6.6-2.8.9-5.3 2.4-8 3.5-2.3.9-4.8 1.3-7.2.8-1.4-.2-2.7-.9-3.6-2-.8-.9-1.2-2.1-1.1-3.3-.1-1.2.2-2.3.9-3.2.7-.9 1.8-1.3 2.9-1.2.7 0 1.3.3 1.8.9.3.5.4 1 .2 1.6-.2.5-.5.9-.9 1.1.2-.3.3-.8.1-1.2-.3-.4-.9-.5-1.3-.2-.1 0-.1.1-.2.1-.5.5-.5 1.3-.2 1.9.4.6 1 1 1.7 1.1 1 0 2-.5 2.7-1.2 1.5-1.5 3.1-2.8 4.8-4.1 1.6-1 3.4-1.6 5.1-1.7zm0-17.1c1.6-.1 3.3.5 4.6 1.6.6.5 1.2 1.2 1.6 2 .8-1.3 2-2.4 3.5-3 1.8-.6 3.8-.6 5.6 0 1.6.6 3 1.5 4.2 2.7.9.9 1.9 1.8 2.9 2.6.5.5 1.1.8 1.7 1 .9.3 1.9 0 2.5-.6.5-.6.5-1.6-.1-2.3-.4-.3-.9-.3-1.3.1 0 0 0 .1-.1.1-.2.4-.2.9.1 1.2-.5-.3-.9-.9-1-1.6-.1-.8.5-1.5 1.2-1.7 1.4-.5 3.1-.1 3.9 1.1.7 1.2 1 2.6.8 3.9-.2 1.3-.9 2.4-2 3.2-1.5 1-3.3 1.5-5.2 1.3-1.7-.1-3.5-.4-5-1.1-2.7-1.1-5.2-2.5-7.9-3.4-.9-.2-2-.5-2.9-.6h-2.2c-.9.1-1.8.3-2.6.6-2.8.9-5.3 2.4-8 3.5-2.3.9-4.8 1.3-7.2.8-1.4-.2-2.7-.9-3.6-2-.8-.9-1.2-2.1-1.1-3.3-.1-1.2.2-2.3.9-3.2.7-.9 1.8-1.3 2.9-1.2.7 0 1.3.3 1.8.9.3.5.4 1 .2 1.6-.2.5-.5.9-.9 1.1.2-.3.3-.8.1-1.2-.3-.4-.9-.5-1.3-.2-.1 0-.1.1-.2.1-.5.5-.5 1.3-.2 1.9.4.6 1 1 1.7 1.1 1 0 2-.5 2.7-1.2 1.5-1.5 3.1-2.8 4.8-4.1 1.6-1 3.4-1.6 5.1-1.7z"/></svg>