<svg id="Layer_1" xmlns="http://www.w3.org/2000/svg" viewBox="0 0 72 96"><style>.st0{fill:#db007b}</style><path class="st0" d="M0 2v92c0 1.1.9 2 2 2h68c1.1 0 2-.9 2-2V28H50c-1.1 0-2-.9-2-2V0H2C.9 0 0 .9 0 2z"/><path class="st0" d="M71.9 24c-.1-.4-.2-.7-.4-1L52 1.2V24h19.9z"/><path d="M6 41h60v49H6zm.5-34.6h2.9v14.3H6.5V6.4zm5.2 0h3l2.1 6.6c.4 1 .6 2.4.6 2.4h.1s-.2-1.5-.2-2.4V6.4H20v14.3h-3l-2-6.6c-.3-1-.6-2.4-.6-2.4h-.1s.2 1.5.2 2.4v6.6h-2.7V6.4zm10.8 0h3.7c3.2 0 5.2 2.6 5.2 7.1s-2 7.2-5.2 7.2h-3.7V6.4zm3.6 11.4c1.5 0 2.3-1.5 2.3-4.3s-.8-4.2-2.3-4.2h-.7v8.5h.7zm7.2-11.4H37c3.2 0 5.2 2.6 5.2 7.1s-2 7.2-5.2 7.2h-3.7V6.4zm3.6 11.4c1.5 0 2.3-1.5 2.3-4.3s-.8-4.2-2.3-4.2h-.7v8.5h.7z" fill="#fff"/><path d="M22.3 79.3V50.4h3.9v28.9h-3.9zm19.3.4c-6.5 0-9.9-4-9.9-9.9s3.4-10.6 9.9-10.6c1.1 0 2.3.1 3.5.4v-9.3h3.7v28c-1.6.8-4.2 1.4-7.2 1.4zm3.5-18.2c-.9-.2-1.9-.4-2.9-.4-5.1 0-6.8 4-6.8 8.3 0 4.7 1.8 8.1 6.4 8.1 1.5 0 2.5-.2 3.3-.6V61.5z" fill="#db007b" stroke="#db007b" stroke-width="1.25" stroke-miterlimit="10"/></svg>