<svg id="Layer_1" xmlns="http://www.w3.org/2000/svg" viewBox="0 0 72 96"><style>.st0{fill:#666}</style><path class="st0" d="M0 2v92c0 1.1.9 2 2 2h68c1.1 0 2-.9 2-2V28H50c-1.1 0-2-.9-2-2V0H2C.9 0 0 .9 0 2z"/><path class="st0" d="M71.9 24c-.1-.4-.2-.7-.4-1L52 1.2V24h19.9z"/><path d="M6 41h60v49H6zm-.3-25.7H9v1.1c0 1.5.4 1.6.7 1.6.5 0 .7-.3.7-1.6v-7H7.7v-3h6v9.9c0 3.3-2 4.6-4 4.6-2.1 0-4-1.4-4-4.6v-1zM18 16.7c.6.6 1.4 1.2 2.3 1.2.9 0 1.3-.6 1.3-1.2 0-2-4.8-2.1-4.8-6.2 0-2.4 1.7-4.3 4.5-4.3 1.2 0 2.4.3 3.4 1l-1.2 2.9c-.5-.4-1.4-.9-2.2-.9-.9 0-1.3.6-1.3 1.2 0 2.1 4.8 2 4.8 6.1 0 2.3-1.5 4.4-4.4 4.4-1.4 0-2.9-.5-4-1.4l1.6-2.8zM28 6.4h4.5c2.6 0 4.4 2 4.4 4.9 0 2.9-1.7 5-4.4 5h-1.2v4.4H28V6.4zm3.9 7c1 0 1.6-.9 1.6-2.1s-.7-2-1.6-2h-.7v4.1h.7z" fill="#fff"/><path d="M45 67.1c2.2-.7 4.4.7 4.2 2.8-.2 2.4-3.3 3.6-5.1 4.2l.1-.1-.1-.1c1.3-1 3.9-2.2 3.7-4.6-.1-1.2-1-2.1-2.7-2v-.2H45zm-16.1.4l.1-.1c-1 0-1.9.4-2.7.7-.8.3-1.8.4-2.2 1.3.4.7 1.4.7 2.4.8 3.4.5 8.3.4 11.7 0 1.8-.2 3.4-.4 4.2-1.2l-.1-.1.1-.1c-3.4.4-7.8 1-11.9.8-1.3-.1-3-.1-3.7-.8.4-.7 1.4-.9 2.1-1.3zm19.9 14.1v-.1c-5.1 2.5-13.2 2.8-20.5 2.2l.1.1-.1.2c3 .5 6.9.7 10.7.4 3.7-.2 8.2-.7 9.9-2.7l-.1-.1zM34.4 66.2h.1c-.8-1.8-2.3-2.6-2.5-4.7-.2-1.9.7-3.1 1.6-4 1.1-1.2 2.7-2.2 3.9-3.5 1.6-1.8 3.4-4.5 1.9-7.1l-.1.1-.3-.1c.4 2.5-.6 4.1-1.9 5.4-1 1.2-2.6 2.2-4 3.3-1.6 1.3-3.7 2.9-3.1 5.3.5 2.3 2.8 3.9 4.1 5.4l.3-.1zm8-11.6l-.1-.1c-2.7 1-6.7 2.6-7.1 5.7-.1 1.5.4 2.6.9 3.4.4.6 1.1 1 1.3 1.9.2.8 0 1.6-.2 2.2h.1l.1.1c1.1-.8 2.2-1.9 1.9-3.4-.2-1.5-1.9-2.5-2.1-3.9-.1-.8.1-1.5.4-1.9 1.1-1.7 3.5-2.9 4.8-4zM28.6 72l-.1-.1c-.5.3-1.5.4-1.4 1.2s1.5 1 2.2 1.2c3.7.8 9.2.3 11.9-.6l-.1-.1.1-.1c-.3-.1-.7-.7-1.3-.7-.5-.1-1.6.3-2.6.4-1.6.2-3.3.3-4.8.2-1.1-.1-4.5-.1-3.9-1.4zm.9 4.1l.1-.1c-.6.2-1.3.4-1.3 1.1 0 .6 1.2 1 1.9 1.3 3.3 1 8.5.4 10.9-.7-.2-.3-.6-.4-.9-.6-.4-.1-.7-.3-1.1-.5-2 .5-5.1.7-7.5.4-.7-.1-1.7-.1-1.9-.8l-.2-.1zm17.7 3.2l-.1-.1c-.1 1-1.3 1.1-2.1 1.3-.9.2-1.9.4-3 .5-4.9.6-11.5.9-16.3 0-.9-.1-2.2-.4-2.5-1.1.4-.7 1.5-.8 2.4-1.2l-.1-.1.1-.1c-1.2.1-2.1.4-3 .7-.7.3-1.7.7-1.9 1.5.6.8 1.8.8 2.8 1 6.6 1 15.7 1.2 21.4-.7 1-.4 3.1-1 2.1-1.9l.2.2zm-3.7-5.1c.2 0 .4-.1.7-.2m.9-6.8c-.2 0-.4.1-.7.1M42.2 69c.1 0 .2-.1.4-.1m-12.5-1.6c-.4.1-.8.1-1.3.2m-2.2 15.9c.5.2 1.1.2 1.7.4m20.5-2.2c.1-.1.2-.2.3-.4m-9.9-34.3c0-.1-.1-.3-.1-.4m-4.7 19.7c.1.1.3.4.4.5m2.3 1.2c.1-.1.2-.2.3-.4m5.7-13.2c-.3.1-.5.2-.7.4m-1.2 18.8h.2m-12.6-1.8c0 .1-.2.1-.2.2m.9 4.2l.1-.1m-2.8 2.7c-.4 0-.7.1-1 .1m21.4.5c0-.1-.1-.1-.1-.1H47" fill="#666" stroke="#666" stroke-miterlimit="10"/></svg>