<svg id="Layer_1" xmlns="http://www.w3.org/2000/svg" viewBox="0 0 72 96"><style>.st0{fill:#039}</style><path class="st0" d="M0 2v92c0 1.1.9 2 2 2h68c1.1 0 2-.9 2-2V28H50c-1.1 0-2-.9-2-2V0H2C.9 0 0 .9 0 2z"/><path class="st0" d="M71.9 24c-.1-.4-.2-.7-.4-1L52 1.2V24h19.9z"/><path d="M6 41h60v49H6zm.6-34.6h3.3v5.5h.6l2.3-5.5h3.5l-2.9 6.8 3 7.4h-3.7l-2.3-5.8h-.5v5.8H6.6V6.4zm12.4 0h3.3V16c0 1.4.6 1.9 1.5 1.9s1.5-.5 1.5-1.9V6.4h3.3V16c0 3-1.9 4.9-4.7 4.9-3.1 0-4.9-1.9-4.9-4.9V6.4zm13.1 0h4.5c2.6 0 4.4 2 4.4 4.9 0 2.9-1.7 5-4.4 5h-1.2v4.4h-3.3V6.4zm3.9 7c1 0 1.6-.9 1.6-2.1s-.7-2-1.6-2h-.7v4.1h.7z" fill="#fff"/><path class="st0" d="M40.3 76.5c-2.4-2.4-5.4.2-8 2.5-3.3 3-5.6 4.7-7.7 2.7-1.5-1.5-1.4-3.3 0-5.2l1.4 1.3c.4.3.9.3 1.3 0L43 63.3l-6.5-6.5L22 72.6c-.3.4-.3.9 0 1.3l1.4 1.4c-2.6 3.1-1.7 6.1 0 7.8 3.4 3.4 7.2.1 10.2-2.6 2.7-2.4 4.4-3.7 5.5-2.6.4.3 1 .3 1.3-.1.2-.4.2-.9-.1-1.3zm-4.6-11.1c-.4.4-.9.4-1.3 0s-.4-.9 0-1.3l1.3-1.3c.4-.4.9-.4 1.3 0s.4.9 0 1.3l-1.3 1.3zm8.5-3.4c.2.2.4.3.6.3 1.3 0 2.7-.3 3.8-1L38.5 51.2c-.7 1.2-1 2.5-1 3.8 0 .2.1.5.3.6l6.4 6.4zm5.9-12.3c-2.9-2.9-7.6-2.9-10.5 0l10.5 10.5c2.9-2.9 2.9-7.6 0-10.5z"/></svg>