<svg id="Layer_1" xmlns="http://www.w3.org/2000/svg" viewBox="0 0 72 96"><style>.st0{fill:#7058c6}.st1{fill:#fff}</style><path class="st0" d="M0 2v92c0 1.1.9 2 2 2h68c1.1 0 2-.9 2-2V28H50c-1.1 0-2-.9-2-2V0H2C.9 0 0 .9 0 2z"/><path class="st0" d="M71.9 24c-.1-.4-.2-.7-.4-1L52 1.2V24h19.9z"/><path class="st1" d="M6 41h60v49H6V41z"/><path d="M16.4 67.5v-4.1c.9-.1 1.6-.2 2-.4.4-.2.8-.6 1.2-1 .4-.5.5-1.1.7-1.9.1-.6.2-1.5.2-2.8 0-2.2.1-3.7.4-4.6.2-.8.6-1.6 1.2-2 .5-.5 1.4-.9 2.5-1.2.7-.2 1.9-.4 3.5-.4h.9V53c-1.3 0-2.2.1-2.6.3s-.6.4-.9.6c-.2.3-.3.7-.3 1.5s-.1 2-.2 4.1c-.1 1.2-.2 2-.4 2.8-.3.6-.6 1.2-1 1.8-.4.4-1 .9-1.8 1.4.7.4 1.3.8 1.8 1.3s.8 1.2 1.1 1.9c.3.7.4 1.8.4 3 .1 1.9.1 3.1.1 3.6 0 .7.1 1.2.3 1.6.2.4.5.5.9.6.4.2 1.2.3 2.6.3v4.1h-1c-1.6 0-2.9-.1-3.7-.4-.9-.3-1.6-.6-2.2-1.2-.6-.6-1-1.2-1.2-2-.2-.8-.3-2.1-.3-4 0-2-.1-3.5-.3-4.1-.3-.9-.7-1.6-1.2-2-.7-.5-1.5-.7-2.7-.7zm39.1 0c-.9.1-1.6.2-2 .4-.4.2-.8.6-1.2 1-.4.5-.5 1.1-.7 1.9-.1.6-.2 1.5-.2 2.8 0 2.2-.1 3.7-.4 4.6-.2.9-.6 1.6-1.2 2-.5.5-1.4.9-2.5 1.2-.7.2-1.9.4-3.5.4h-1v-4.1c1.3 0 2.1-.1 2.6-.3s.7-.4.9-.6c.2-.3.3-.7.3-1.5 0-.6.1-2 .2-4 .1-1.2.3-2.1.5-2.8.3-.7.6-1.3 1.1-1.9.4-.5 1-.9 1.7-1.3-.9-.6-1.6-1.1-2-1.6-.5-.7-1-1.8-1.2-2.8-.2-.8-.3-2.6-.3-5.2 0-.8-.1-1.4-.3-1.8-.2-.3-.4-.5-.8-.6-.2-.3-1-.3-2.5-.3v-4h1c1.6 0 2.9.1 3.7.4.9.3 1.6.6 2.2 1.2s1 1.2 1.2 2c.2.8.4 2.1.4 4 0 2 .1 3.4.3 4.1.3.9.7 1.6 1.2 1.9.5.4 1.4.6 2.5.6.1.1 0 4.3 0 4.3z" fill="#7058c6" stroke="#7058c6" stroke-miterlimit="10"/><path class="st1" d="M6.5 6.4h3v11.4h3.9v2.9H6.5V6.4zm9.3 0h6.5v2.9h-3.5V12h2.8v2.9h-2.8v2.9h3.7v2.9h-6.6l-.1-14.3zm10.1 10.3c.5.6 1.3 1.2 2.1 1.2s1.2-.6 1.2-1.2c0-2-4.3-2.1-4.3-6.2 0-2.4 1.5-4.3 4.1-4.3 1.1 0 2.2.3 3.1 1L31 10.1c-.4-.4-1.3-.9-1.9-.9-.8 0-1.2.6-1.2 1.2 0 2.1 4.3 2 4.3 6.1 0 2.3-1.3 4.4-4 4.4-1.3 0-2.6-.5-3.6-1.4l1.3-2.8zm9.6 0c.5.6 1.3 1.2 2.1 1.2s1.2-.6 1.2-1.2c0-2-4.3-2.1-4.3-6.2 0-2.4 1.5-4.3 4.1-4.3 1.1 0 2.2.3 3.1 1l-1.1 2.9c-.4-.4-1.3-.9-1.9-.9-.8 0-1.2.6-1.2 1.2 0 2.1 4.3 2 4.3 6.1 0 2.3-1.3 4.4-4 4.4-1.3 0-2.6-.5-3.6-1.4l1.3-2.8z"/></svg>