<svg xmlns="http://www.w3.org/2000/svg" viewBox="0 0 72 96"><style>.st0{fill:#999}</style><path class="st0" d="M0 2v92c0 1.1.9 2 2 2h68c1.1 0 2-.9 2-2V28H50c-1.1 0-2-.9-2-2V0H2C.9 0 0 .9 0 2z"/><path class="st0" d="M71.9 24c-.1-.4-.2-.7-.4-1L52 1.2V24h19.9z"/><path d="M6 41h60v49H6zm.4-34.6H9v11.4h3.4v2.9h-6V6.4zM18 6.1c2.9 0 4.6 3.1 4.6 7.3 0 4.2-1.6 7.5-4.6 7.5s-4.6-3.2-4.6-7.5c.1-4.1 1.7-7.3 4.6-7.3zm0 11.7c1.3 0 1.9-1.8 1.9-4.3s-.6-4.2-1.9-4.2-1.9 1.7-1.9 4.2.6 4.3 1.9 4.3zM29.6 6.1c1 0 2.1.4 2.8 1.2l-1.1 2.8c-.3-.5-1-.9-1.6-.9-1.7 0-2.5 1.9-2.5 4.2 0 2.3.9 4.4 2.5 4.4.8 0 1.3-.5 1.8-1l1.1 2.8c-.7.7-1.5 1.3-3.1 1.3-3.1 0-4.9-3.1-4.9-7.4 0-4.2 1.9-7.4 5-7.4zm5.1.3h2.6v5.5h.5l1.8-5.5h2.8L40 13.2l2.4 7.4h-2.9l-1.8-5.8h-.5v5.8h-2.6V6.4z" fill="#fff"/><path class="st0" d="M49.2 62.2h-2.6v-5C46.6 51.5 42 47 36.4 47s-10.2 4.6-10.2 10.2v5h-2.6c-1 0-1.8.8-1.8 1.8v17.4c0 1 .8 1.8 1.8 1.8h25.6c1 0 1.8-.8 1.8-1.8V63.9c0-.9-.8-1.7-1.8-1.7zM38.6 76.6c.2.6-.3 1.1-.9 1.1H35c-.6 0-1-.6-.9-1.1l.8-3.2c-1-.5-1.7-1.5-1.7-2.8 0-1.7 1.4-3.1 3.1-3.1 1.7 0 3.1 1.4 3.1 3.1 0 1.2-.7 2.3-1.7 2.8l.9 3.2zm2.9-14.4H31.3v-5c0-2.8 2.3-5.1 5.1-5.1s5.1 2.3 5.1 5.1v5z"/></svg>