<svg id="Layer_1" xmlns="http://www.w3.org/2000/svg" viewBox="0 0 72 96"><style>.st0{fill:#039}</style><path class="st0" d="M0 2v92c0 1.1.9 2 2 2h68c1.1 0 2-.9 2-2V28H50c-1.1 0-2-.9-2-2V0H2C.9 0 0 .9 0 2z"/><path class="st0" d="M71.9 24c-.1-.4-.2-.7-.4-1L52 1.2V24h19.9z"/><path d="M6 41h60v49H6zM7.1 6.4h3.6l1.3 6c.2.9.4 2.4.4 2.4h.1s.2-1.5.4-2.4l1.3-6H18l.9 14.3h-3l-.4-6.4c-.1-1.1 0-2.4 0-2.4h-.1s-.2 1.5-.4 2.4l-.9 4.1H11l-.9-4.1c-.2-.9-.4-2.4-.4-2.4h-.1s.1 1.3 0 2.4l-.4 6.4h-3l.9-14.3zM22.5 17c.4.4 1.1.7 1.7.7.9 0 1.6-.4 1.6-1.6 0-1-.7-1.5-2.3-1.5h-.9l-.6-1.8 2-2.5c.5-.6.9-1 .9-1s-.4.1-1.1.1h-2.3v-3h7.2V9l-2.6 3.1c2 .5 3.1 2.1 3.1 4.1 0 2.4-1.4 4.8-4.7 4.8-1.3 0-2.5-.4-3.5-1.3l1.5-2.7zm9.3-10.6h3.3V16c0 1.4.6 1.9 1.5 1.9s1.5-.5 1.5-1.9V6.4h3.3V16c0 3-1.9 4.9-4.7 4.9-2.9 0-4.8-1.9-4.8-4.9V6.4z" fill="#fff"/><path class="st0" d="M14.6 54.3h22.9c1.2 0 2.1-.9 2.1-2.1s-.9-2.1-2.1-2.1H14.6c-1.2 0-2.1.9-2.1 2.1s.9 2.1 2.1 2.1zm0 11.1h22.9c1.2 0 2.1-.9 2.1-2.1s-.9-2.1-2.1-2.1H14.6c-1.2 0-2.1.9-2.1 2.1s.9 2.1 2.1 2.1zm11 5.9h-11c-1.2 0-2.1.9-2.1 2.1s.9 2.1 2.1 2.1h11c1.2 0 2.1-.9 2.1-2.1s-.9-2.1-2.1-2.1z"/><path class="st0" d="M52.5 53.8c-1.6-.8-3.7-2-4.5-3.7 0-.9-.7-1.6-1.6-1.6-.9 0-1.6.7-1.6 1.6v21.5c-1.7-.9-4.9-.6-7.3.8-3.8 2.1-5.4 6.1-3.8 8.8s6.1 3.3 9.9 1.2c2.6-1.5 4.4-3.9 4.5-6.3V57.6c5.4 0 8.7 2.2 7.5 7.5-.2 1-.6 1.9-1 2.9-.2.3-.2.7.1 1 .3.3.8.2 1.2-.2 2-2 3.3-4.6 3.4-7.5-.1-3.8-3.7-6-6.8-7.5z"/></svg>