<svg xmlns="http://www.w3.org/2000/svg" viewBox="0 0 72 96"><style>.st0{fill:#999}.st1{fill:#fff}</style><path class="st0" d="M0 2v92c0 1.1.9 2 2 2h68c1.1 0 2-.9 2-2V28H50c-1.1 0-2-.9-2-2V0H2C.9 0 0 .9 0 2z"/><path class="st0" d="M71.9 24c-.1-.4-.2-.7-.4-1L52 1.2V24h19.9z"/><path class="st1" d="M6 41h60v49H6zM7.1 6.4h3.6l1.3 6c.2.9.4 2.4.4 2.4h.1s.2-1.5.4-2.4l1.3-6H18l.9 14.3h-3l-.4-6.4c-.1-1.1 0-2.4 0-2.4h-.1s-.2 1.5-.4 2.4l-.9 4.1H11l-.9-4.1c-.2-.9-.4-2.4-.4-2.4h-.1s.1 1.3 0 2.4l-.4 6.4h-3l.9-14.3zm15.1 0h3.3v14.3h-3.3V6.4z"/><path class="st0" d="M54.5 65.5C54.5 75.7 46.2 84 36 84s-18.5-8.3-18.5-18.5S25.8 47 36 47s18.5 8.3 18.5 18.5"/><path class="st1" d="M48.9 66.9c-.6-3.9-4.7-6.5-7.8-8.4-1.3-.8-3.5-1.9-3.8-3.7-.1-.7-.1-1.5-.1-2.2v-.9c0-.4-.4.1-.6-.2-.5-.8-.3.2-.3.7.1 1 .3 2 .3 3 0 1.9-.3 3.8-.8 5.6-1.1 4.3-2 8.8-.9 13.2.2.9.5 1.8.9 2.7.1.3.3 1 .7 1.1 1.2.3 2.1.4 3 1.3.6.5 1 .2 1.7 0 2.1-.8 3.9-1.9 5.4-3.6 1.9-2.6 2.8-5.5 2.3-8.6m-2.2 3.9c-.2 1.6-1.2 3.1-2.2 4.3-.8.9-1.8 2-2.9 2.4-.4.1.1-.7.1-.7.3-.5.8-1 1.2-1.5.6-.7 1.1-1.5 1.4-2.3 1.1-2.9.9-6.3-.8-8.9-.9-1.4-2.2-2.6-3.4-3.7-.6-.5-1.2-1-1.7-1.6-.1-.1-1.2-1.5-.8-1.7.1-.1 2.4 2.3 2.6 2.5.9.7 1.9 1.4 2.8 2.2 1.2 1.1 2.4 2.3 3.1 3.8.7 1.6.8 3.5.6 5.2"/><path class="st1" d="M35.3 47.5c.3.2.4 1.6.4 2.8 0 1.2.1 6.5-.3 7.9-.4 1.4-1.3 3-2.2 4.4-1 1.4-2.1 4.3-2 6.1 0 1.8 1.1 4.7 1.9 6 .8 1.2 2.2 2.9 1.9 3.3-.5.7-2.7-1.7-3.9-3.1-1.1-1.4-2.3-4.2-2.3-6.4s1.2-4.2 2.1-5.4c.9-1.2 2.6-3.3 3.1-4.3s1-2 1.1-3.3c.2-1.3 0-6.1 0-6.1s-.1-2.1.2-1.9"/><path class="st1" d="M34.4 49.8c.3.2.4.6.4 1s-.1 2.1-.2 3.8c-.1 1.7-1.5 3.1-2.4 4.1-1 1-3.9 4.1-4.9 5.6-1.1 1.5-1.6 3.5-1.5 5.2.1 1.7.5 3.4 2.1 5.2 1.6 1.8 2.7 2.6 3.6 3.1.8.4 1.7.7 1.5 1.1-.2.4-1 .1-1.9-.2-.9-.3-3.9-1.5-5.6-3.5-1.7-2-2.6-4.6-2.5-7 .1-2.5.8-3.5 1.9-5.1 1.1-1.6 4.3-4 5.3-4.6 1-.6 2.3-1.6 3-2.5.7-.8 1-1.5 1-2.7 0-1.1.1-2.2 0-2.6-.1-.3-.1-1.1.2-.9m.1 30c.2 0 .1.7-.2 1-.3.3-.7.5-.8.4-.1-.1.3-.2.6-.5.3-.4.2-.9.4-.9m3.1-.1c-.2 0-.1.7.2 1 .3.3.7.5.8.4.1-.1-.3-.2-.6-.5s-.2-.9-.4-.9m-1.4.8c0 .6 0 1.1-.1 1.1-.2 0-.1-.5-.1-1.1 0-.6-.1-1.1.1-1.1s.1.5.1 1.1"/></svg>