<svg id="Layer_1" xmlns="http://www.w3.org/2000/svg" viewBox="0 0 72 96"><style>.st0{fill:#f60}</style><path class="st0" d="M0 2v92c0 1.1.9 2 2 2h68c1.1 0 2-.9 2-2V28H50c-1.1 0-2-.9-2-2V0H2C.9 0 0 .9 0 2z"/><path class="st0" d="M71.9 24c-.1-.4-.2-.7-.4-1L52 1.2V24h19.9z"/><path d="M6 41h60v49H6zM7 6.4h3.3l1.2 6c.2.9.4 2.4.4 2.4h.1s.2-1.5.4-2.4l1.2-6h3.3l.8 14.3H15l-.3-6.4c-.1-1.1 0-2.4 0-2.4h-.1s-.2 1.5-.4 2.4l-.8 4.1h-2.9l-.8-4.1c-.2-.9-.4-2.4-.4-2.4h-.1s.1 1.3 0 2.4l-.4 6.4H6.1L7 6.4zm18.3-.3c3.4 0 5.3 3.1 5.3 7.3 0 4.2-1.9 7.5-5.3 7.5S20 17.7 20 13.4c0-4.1 1.9-7.3 5.3-7.3zm0 11.7c1.5 0 2.2-1.8 2.2-4.3s-.7-4.2-2.2-4.2S23 11 23 13.5s.7 4.3 2.3 4.3zM32 6.4h3.2l1.5 8.1c.2.9.3 2.3.3 2.3s.1-1.4.3-2.3l1.5-8.1H42l-3.5 14.3h-3L32 6.4z" fill="#fff"/><path class="st0" d="M13 83.1h46V47.9H13v35.2zm8.9-2.7h-5.5v-3.9h5.5v3.9zm16.9 0h-5.5v-3.9h5.5v3.9zm11.3-30.1h5.5v4h-5.5v-4zm0 26.1h5.5v3.9h-5.5v-3.9zm-8.5-26.1H47v3.9h-5.5v-3.9zm0 26.1H47v3.9h-5.5l.1-3.9zm-8.4-26.1h5.5v3.9h-5.5v-3.9zm-.8 9.7l7.2 4.1c1.3.8 1.3 2 0 2.8L32.4 71c-1.3.8-2.4.1-2.4-1.4v-8.3c0-1.4 1.1-2.1 2.4-1.3zm-7.7-9.7h5.4v3.9h-5.4v-3.9zm0 26.1h5.4v3.9h-5.4v-3.9zm-8.3-26.1h5.5v4h-5.5v-4z"/></svg>