<svg id="Layer_1" xmlns="http://www.w3.org/2000/svg" viewBox="0 0 72 96"><style>.st0{fill:#f60}</style><path class="st0" d="M0 2v92c0 1.1.9 2 2 2h68c1.1 0 2-.9 2-2V28H50c-1.1 0-2-.9-2-2V0H2C.9 0 0 .9 0 2z"/><path class="st0" d="M71.9 24c-.1-.4-.2-.7-.4-1L52 1.2V24h19.9z"/><path d="M6 41h60v49H6zm.8-34.6h2.9l1.1 6c.2.9.3 2.4.3 2.4s.2-1.5.3-2.4l1.1-6h2.9l.7 14.3h-2.4l-.3-6.4c-.1-1.1 0-2.4 0-2.4h-.1s-.2 1.5-.4 2.4l-.7 4.1H9.9l-.7-4.1c-.2-.9-.4-2.4-.4-2.4s.1 1.3 0 2.4l-.3 6.4H6l.8-14.3zm11.2 0h3.6c2.1 0 3.5 2 3.5 4.9 0 2.9-1.4 5-3.5 5h-1v4.4H18V6.4zm3.2 7c.8 0 1.3-.9 1.3-2.1s-.5-2-1.2-2h-.5v4.1h.4zm5.4-7h5.7v2.9h-3.1V12h2.5v2.9h-2.5v2.9h3.3v2.9h-5.9V6.4zm12-.3c1.1 0 2.3.4 3.2 1.3l-1.1 2.8c-.4-.6-1.1-.9-1.9-.9-1.8 0-2.5 1.9-2.5 4.2 0 2.6 1 4.3 2.3 4.3.5 0 1-.2 1.4-.6v-1.7h-1.2v-2.9h3.5v8.1h-2v-.9c-.4.7-1.3 1.2-2.2 1.2-2.2 0-4.5-2.7-4.5-7.3 0-4.5 1.9-7.6 5-7.6z" fill="#fff"/><path class="st0" d="M13 83.1h46V47.9H13v35.2zm8.9-2.7h-5.5v-3.9h5.5v3.9zm16.9 0h-5.5v-3.9h5.5v3.9zm11.3-30.1h5.5v4h-5.5v-4zm0 26.1h5.5v3.9h-5.5v-3.9zm-8.5-26.1H47v3.9h-5.5v-3.9zm0 26.1H47v3.9h-5.5l.1-3.9zm-8.4-26.1h5.5v3.9h-5.5v-3.9zm-.8 9.7l7.2 4.1c1.3.8 1.3 2 0 2.8L32.4 71c-1.3.8-2.4.1-2.4-1.4v-8.3c0-1.4 1.1-2.1 2.4-1.3zm-7.7-9.7h5.4v3.9h-5.4v-3.9zm0 26.1h5.4v3.9h-5.4v-3.9zm-8.3-26.1h5.5v4h-5.5v-4z"/></svg>