<svg id="Layer_1" xmlns="http://www.w3.org/2000/svg" viewBox="0 0 72 96"><style>.st0{fill:#ff141f}.st2{fill:#ff0021}</style><path class="st0" d="M0 2v92c0 1.1.9 2 2 2h68c1.1 0 2-.9 2-2V28H50c-1.1 0-2-.9-2-2V0H2C.9 0 0 .9 0 2z"/><path class="st0" d="M71.9 24c-.1-.4-.2-.7-.4-1L52 1.2V24h19.9z"/><path d="M6 41h60v49H6V41zm.6-34.6h3.5l2.4 6.6c.4 1 .7 2.4.7 2.4h.1s-.2-1.5-.2-2.4V6.4h3.1v14.3h-3.4l-2.5-6.6c-.4-1-.7-2.4-.7-2.4h-.1s.2 1.5.2 2.4v6.6H6.6V6.4zm13.3 0h7.2v2.9h-3.9V12h3.1v2.9h-3.1v2.9h4.1v2.9h-7.4V6.4zm11.2 10.3c.6.6 1.4 1.2 2.3 1.2.9 0 1.3-.6 1.3-1.2 0-2-4.8-2.1-4.8-6.2 0-2.4 1.7-4.3 4.5-4.3 1.2 0 2.4.3 3.4 1l-1.2 2.9c-.5-.4-1.4-.9-2.2-.9-.9 0-1.3.6-1.3 1.2 0 2.1 4.8 2 4.8 6.1 0 2.3-1.5 4.4-4.4 4.4-1.4 0-2.9-.5-4-1.4l1.6-2.8z" fill="#fff"/><path class="st2" d="M45.3 48.8h-7.7v34h7.7c4.2 0 7.7-3.4 7.7-7.7V56.4c0-4.2-3.4-7.6-7.7-7.6zm0 22c-2.2 0-4-1.8-4-4s1.8-4 4-4 4 1.8 4 4-1.8 4-4 4zm-9.6 12h-9c-4.2 0-7.7-3.4-7.7-7.7V56.4c0-4.3 3.4-7.7 7.7-7.7h9v34.1zm-9-32c-3.1 0-5.7 2.5-5.7 5.7v18.7c0 3.1 2.5 5.7 5.7 5.7h7.1V50.8h-7.1z"/><path class="st2" d="M27.3 62.8c-2.2 0-4-1.8-4-4s1.8-4 4-4 4 1.8 4 4-1.8 4-4 4z"/></svg>