<svg id="Layer_1" xmlns="http://www.w3.org/2000/svg" viewBox="0 0 72 96"><style>.st0,.st2{fill:#1a75ce}.st2{stroke:#1a75ce;stroke-width:.5;stroke-miterlimit:10}</style><path class="st0" d="M0 2v92c0 1.1.9 2 2 2h68c1.1 0 2-.9 2-2V28H50c-1.1 0-2-.9-2-2V0H2C.9 0 0 .9 0 2z"/><path class="st0" d="M71.9 24c-.1-.4-.2-.7-.4-1L52 1.2V24h19.9z"/><path d="M6 41h60v49H6zm5.9-34.9c3.8 0 5.9 3.1 5.9 7.3 0 4.2-2.1 7.5-5.9 7.5s-5.8-3.2-5.8-7.5c0-4.1 2-7.3 5.8-7.3zm0 11.7c1.7 0 2.5-1.8 2.5-4.3s-.8-4.2-2.5-4.2-2.5 1.7-2.5 4.2.8 4.3 2.5 4.3zm10.5-8.5h-3.1V6.4h9.6v2.9h-3.2v11.4h-3.3V9.3zm11.5 0h-3.1V6.4h9.6v2.9h-3.2v11.4h-3.3V9.3z" fill="#fff"/><path class="st2" d="M43.4 59.6h15.8v2.5H43.4zm-30.9 6.9h46.7v2.8H12.5zm0 6.8h46.7v2.8H12.5z"/><path class="st0" d="M38.7 48.2h1.7c2.6.2 4.6.8 6.6 1.6 3.8-1.7 9.2-.4 12.6.9-4.3-.4-9.4 0-12.4 1.7-3-2.4-8.6-3.1-13.9-2.4 1.5-1 3.3-1.6 5.4-1.8zm-1.2 6.5c-3.1.2-5.6 1.2-7.3 2.6C25.1 55 16.3 56 13 59.1c-.3.2-.6.4-.5.7 2.9-.9 6.4-1.6 10-1.3 3.6.3 6.3 1.5 8.3 3.1 3.7-3.3 9.2-5.2 16.1-5.1-2.4-1.1-5.9-2-9.4-1.8z"/><path class="st2" d="M12.5 80h46.7v2.8H12.5z"/></svg>