<svg id="Layer_1" xmlns="http://www.w3.org/2000/svg" viewBox="0 0 72 96"><style>.st0{fill:#fff}.st1{fill:#b4bdcc}</style><path class="st0" d="M71.9 24c-.1-.4-.2-.7-.4-1L52 1.2V24h19.9z"/><path class="st0" d="M0 2v92c0 1.1.9 2 2 2h68c1.1 0 2-.9 2-2V28H50c-1.1 0-2-.9-2-2V0H2C.9 0 0 .9 0 2z"/><path class="st1" d="M0 94V2C0 .9.9 0 2 0h48c.6 0 1.1.2 1.5.7l20 22.3c.3.4.5.8.5 1.3V94c0 1.1-.9 2-2 2H2c-1.1 0-2-.9-2-2zm68-68.9L49.1 4H4v88h64V25.1z"/><path class="st1" d="M48 26V4c0-1.1.9-2 2-2s2 .9 2 2v20h16c1.1 0 2 .9 2 2s-.9 2-2 2H50c-1.1 0-2-.9-2-2z"/><path d="M55.4 32.3H16.6c-1.5 0-2.6 1.2-2.6 2.6v26.9c0 1.5 1.2 2.6 2.6 2.6h38.7c1.5 0 2.6-1.2 2.6-2.6V35c.2-1.5-1-2.7-2.5-2.7z" fill="#ced2d8"/><path d="M16.6 38.8h38.8v23H16.6v-23z" fill="#f2f2f2"/><circle cx="23.7" cy="35.8" r=".9" fill="#54b845"/><circle cx="20.6" cy="35.8" r=".9" fill="#fbd303"/><circle cx="17.7" cy="35.8" r=".9" fill="#f0582f"/><path d="M30.4 70.1c-.5-.4-1-.8-1.4-1.3-.4-.5-.8-1.1-1.2-1.6-.9-1.3-1.5-2.7-2-4.1-.6-1.7-.8-3.3-.8-4.9 0-1.8.4-3.3 1.1-4.6.6-1 1.4-1.9 2.4-2.5 1-.6 2.1-.9 3.2-1 .4 0 .8.1 1.3.2.3.1.7.2 1.2.4.6.2 1 .4 1.1.4.4.1.7.2.9.2.2 0 .4-.1.7-.1.2-.1.5-.2.9-.4s.8-.3 1.1-.4l1.2-.3c.4-.1.9-.1 1.3-.1.8.1 1.5.2 2.2.5 1.2.5 2.1 1.2 2.8 2.2-.3.2-.6.4-.8.6-.6.5-1 1.1-1.4 1.7-.5.9-.7 1.9-.7 2.9 0 1.2.3 2.3 1 3.2.4.7 1 1.3 1.7 1.7.4.2.7.4 1 .5-.1.4-.3.8-.5 1.2-.4.9-.9 1.8-1.4 2.6-.5.7-.9 1.2-1.2 1.6-.5.5-.9 1-1.3 1.2-.5.3-1.1.5-1.6.5-.4 0-.8 0-1.2-.1-.3-.1-.7-.2-1-.4-.3-.2-.7-.3-1-.4-.4-.1-.9-.2-1.3-.2-.5 0-.9.1-1.3.2s-.7.2-1 .4c-.5.2-.8.3-1 .4-.4.1-.7.2-1.1.2-.8.1-1.4-.1-1.9-.4zm7.8-20.9c-.8.4-1.5.5-2.2.5-.1-.7 0-1.5.3-2.3.3-.7.6-1.3 1.1-1.9.5-.6 1.1-1.1 1.8-1.4.7-.4 1.5-.6 2.1-.6.1.8 0 1.5-.3 2.3-.3.7-.6 1.4-1.1 2-.5.5-1.1 1-1.7 1.4z" fill="#c6a8e5"/></svg>