<svg xmlns="http://www.w3.org/2000/svg" viewBox="0 0 72 96"><style>.st0{fill:#a87c2d}</style><path class="st0" d="M0 2v92c0 1.1.9 2 2 2h68c1.1 0 2-.9 2-2V28H50c-1.1 0-2-.9-2-2V0H2C.9 0 0 .9 0 2z"/><path class="st0" d="M71.9 24c-.1-.4-.2-.7-.4-1L52 1.2V24h19.9z"/><path d="M6 41h60v49H6V41zm.6-34.6h4.5c2.6 0 4.4 2 4.4 4.9s-1.7 5-4.4 5H9.9v4.4H6.6V6.4zm3.9 7c1 0 1.6-.9 1.6-2.1s-.7-2-1.6-2h-.6v4.1h.6zm13.1-7.3c3.8 0 5.9 3.1 5.9 7.3s-2.1 7.5-5.9 7.5-5.8-3.2-5.8-7.5c0-4.1 2.1-7.3 5.8-7.3zm0 11.7c1.7 0 2.5-1.8 2.5-4.3s-.8-4.2-2.5-4.2-2.5 1.7-2.5 4.2c.1 2.5.8 4.3 2.5 4.3z" fill="#fff"/><path d="M34.9 68.2c-2.5-2.4-4.7-4.6-6-9.6h8.8V55H29v-4.9h-3.8v5h-8.8v3.7h9s-.1.7-.2 1.3c-1.3 4.9-2.7 8-8.8 11l1.3 3.7c5.7-3 8.7-6.9 10-11.1 1.3 3.2 3.4 5.8 5.8 8.2l1.4-3.7zm11.6-12h-5l-8.8 24.7h3.8l2.5-7.4h10l2.5 7.4h3.8l-8.8-24.7zm-6.2 13.6l3.8-9.8 3.8 9.9-7.6-.1z" fill="#a87c2d" stroke="#a87c2d" stroke-width=".75" stroke-miterlimit="10"/></svg>