<svg xmlns="http://www.w3.org/2000/svg" viewBox="0 0 72 96"><style>.st0{fill:#ef712f}</style><path class="st0" d="M0 2v92c0 1.1.9 2 2 2h68c1.1 0 2-.9 2-2V28H50c-1.1 0-2-.9-2-2V0H2C.9 0 0 .9 0 2z"/><path class="st0" d="M71.9 24c-.1-.4-.2-.7-.4-1L52 1.2V24h19.9z"/><path d="M6 41h60v49H6zm.6-34.6h4.5c2.6 0 4.4 2 4.4 4.9s-1.7 5-4.4 5H9.9v4.4H6.6V6.4zm3.9 7c1 0 1.6-.9 1.6-2.1s-.7-2-1.6-2h-.6v4.1h.6zm11.6-7.3c3.8 0 5.9 3.1 5.9 7.3 0 4.2-2.1 7.5-5.9 7.5s-5.8-3.2-5.8-7.5c0-4.1 2.1-7.3 5.8-7.3zm0 11.7c1.7 0 2.5-1.8 2.5-4.3s-.8-4.2-2.5-4.2-2.5 1.7-2.5 4.2c.1 2.5.8 4.3 2.5 4.3zm8-11.4h3.6l1.3 6c.2.9.4 2.4.4 2.4h.1s.2-1.5.4-2.4l1.3-6H41l.9 14.3h-3l-.4-6.4c-.1-1.1 0-2.4 0-2.4h-.1s-.2 1.5-.4 2.4l-.9 4.1H34l-.9-4.1c-.2-.9-.4-2.4-.4-2.4h-.1s.1 1.3 0 2.4l-.4 6.4h-3l.9-14.3z" fill="#fff"/><path class="st0" d="M52.5 47.1s-14.4.2-23.6 11.9c-.5.7-1 1.3-1.5 2-.3.4-.6 4.4-.6 4.4s-.4-.3-.6-.8c-.3-.6-.4-1.3-.4-1.3-5.2 8.5-3.7 12.9-3.7 12.9-.4 1-1.2 1.6-2.3 3.9-1.1 2.3-1 4.5-1 4.5 0 .4.1.5.3.1 0 0 1.2-2.3 2.1-3.8.6-1 2.4-3.3 2.4-3.3s3 .1 6.6-.8c-.3-.1-1.3-.4-2-.7-.7-.3-1.1-.8-1.1-.8l12.9-3c1.8-1.1 3.4-2.4 4.7-4 6.8-8.1 8.5-20.5 8.5-20.5.1-.4-.2-.7-.7-.7zM39.7 60s-6 5.3-9 8.1-7 9.5-7 9.5l-1.5-1.4s1.1-2.7 5.5-8.1c4.3-5.3 11.8-8.6 11.8-8.6.9-.4 1-.2.2.5z"/></svg>