<svg id="Layer_1" xmlns="http://www.w3.org/2000/svg" viewBox="0 0 72 96"><style>.st0{fill:#fea500}</style><path class="st0" d="M0 2v92c0 1.1.9 2 2 2h68c1.1 0 2-.9 2-2V28H50c-1.1 0-2-.9-2-2V0H2C.9 0 0 .9 0 2z"/><path class="st0" d="M71.9 24c-.1-.4-.2-.7-.4-1L52 1.2V24h19.9z"/><path d="M6 41h60v49H6zm.6-34.6h4.5c2.6 0 4.4 2 4.4 4.9 0 2.9-1.7 5-4.4 5H9.9v4.4H6.6V6.4zm3.9 7c1 0 1.6-.9 1.6-2.1s-.7-2-1.6-2h-.6v4.1h.6zm8.6 3.3c.6.6 1.4 1.2 2.3 1.2.9 0 1.3-.6 1.3-1.2 0-2-4.8-2.1-4.8-6.2 0-2.4 1.7-4.3 4.5-4.3 1.2 0 2.4.3 3.4 1l-1.2 2.9c-.5-.4-1.4-.9-2.2-.9-.9 0-1.3.6-1.3 1.2 0 2.1 4.8 2 4.8 6.1 0 2.3-1.5 4.4-4.4 4.4-1.4 0-2.9-.5-4-1.4l1.6-2.8z" fill="#fff"/><path class="st0" d="M27.1 60.2L18 79.4l1.7 1.7L31 69.8c-.4-.9-.3-2 .5-2.8 1-1 2.5-1 3.5 0s1 2.5 0 3.5c-.7.7-1.9.9-2.8.5L20.9 82.3l1.7 1.7 19.2-9.1L46 63.4 38.6 56l-11.5 4.2zm26.3-2.3L44 48.5c-.8-.8-2-.8-2.8 0L39 50.7c-.8.8-.8 2 0 2.8l9.4 9.4c.8.8 2 .8 2.8 0l2.2-2.2c.8-.8.8-2 0-2.8z"/></svg>