<svg xmlns="http://www.w3.org/2000/svg" viewBox="0 0 72 96"><style>.st0{fill:#6190aa}.st1{fill:#fff}.st2{fill:#737373}.st4{fill:#517889}</style><path class="st0" d="M0 2v92c0 1.1.9 2 2 2h68c1.1 0 2-.9 2-2V28H50c-1.1 0-2-.9-2-2V0H2C.9 0 0 .9 0 2z"/><path class="st0" d="M71.9 24c-.1-.4-.2-.7-.4-1L52 1.2V24h19.9z"/><path class="st1" d="M6 41h60v49H6zm.6-34.6h4.5c2.6 0 4.4 2 4.4 4.9 0 2.9-1.7 5-4.4 5H9.9v4.4H6.6V6.4zm3.9 7c1 0 1.6-.9 1.6-2.1s-.7-2-1.6-2h-.6v4.1h.6zm8.6 3.3c.6.6 1.4 1.2 2.3 1.2.9 0 1.3-.6 1.3-1.2 0-2-4.8-2.1-4.8-6.2 0-2.4 1.7-4.3 4.5-4.3 1.2 0 2.4.3 3.4 1l-1.2 2.9c-.5-.4-1.4-.9-2.2-.9-.9 0-1.3.6-1.3 1.2 0 2.1 4.8 2 4.8 6.1 0 2.3-1.5 4.4-4.4 4.4-1.4 0-2.9-.5-4-1.4l1.6-2.8zm9.8 1.2h2.3v-6.2c0-.5.1-1 .1-1s-.1.3-.4.7l-.6.6-1.9-1.9 3.2-3.7h2.8v11.5h2.3v2.8h-7.9v-2.8z"/><path class="st2" d="M37.7 45.8l-13.5 7.8v15.5l13.5 7.8 13.5-7.8V53.6z"/><path class="st2" d="M24.2 53.6l13.5 7.8 13.5-7.8-13.5-7.8z"/><path class="st2" d="M24.2 69.1l13.5 7.8 13.5-7.8-13.5-7.7z"/><path class="st1" d="M23.8 69.9l13.5 7.7c.1.1.3.1.4.1s.3-.1.4-.1l13.5-7.8c.3-.1.4-.4.4-.7V53.6c0-.3-.1-.5-.4-.7l-13.5-7.7c-.3-.1-.5-.1-.8 0L23.8 53c-.3.1-.4.4-.4.7v15.6c0 .1.1.4.4.6zm13.9-23.2l11.9 6.9-11.9 7-11.9-7 11.9-6.9m1.6 14.7L50.4 55v13.7l-11.9 6.9V61.9M25 67.7V55l11.1 6.4.8.5v13.7L25 68.7"/><path class="st1" d="M27.5 67.4l-7.1 4.1v8.1l7.1 4.1 7-4.1v-8.1z"/><path class="st1" d="M20.4 71.5l7.1 4 7-4-7-4.1zm0 8.1l7.1 4.1 7-4.1-7-4.1z"/><path d="M20.2 80l7.1 4.1c.1.1.1.1.2.1s.1 0 .2-.1l7.1-4.1c.1-.1.2-.2.2-.3v-8.2c0-.1-.1-.3-.2-.3l-7.1-4.1c-.1-.1-.3-.1-.4 0l-7.1 4.1c-.1.1-.2.2-.2.3v8.1c0 .1.1.3.2.4zm7.3-12.1l6.2 3.6-6.2 3.7-6.2-3.7 6.2-3.6m.8 7.6l5.8-3.3v7.2l-6.2 3.5v-7.2m-7 3.2v-6.7l5.8 3.3.4.3V83l-6.2-3.6" fill="#444"/><path class="st4" d="M35.3 74.1l-4.6 2.6V82l4.6 2.7 4.6-2.7v-5.3z"/><path class="st4" d="M30.7 76.7l4.6 2.6 4.6-2.6-4.6-2.6zm0 5.3l4.6 2.7 4.6-2.7-4.6-2.7z"/><path class="st1" d="M30.6 82.3l4.6 2.7c.1 0 .1.1.1.1s.1 0 .1-.1l4.6-2.7c.1-.1.1-.1.1-.3v-5.3c0-.1-.1-.2-.1-.3l-4.6-2.7c-.1-.1-.2-.1-.3 0l-4.6 2.7c-.1.1-.1.1-.1.3V82c.1.1.1.2.2.3zm4.7-7.9l4.1 2.3-4.1 2.3-4.1-2.4 4.1-2.2m.6 4.9l3.7-2.2v4.7l-4.1 2.3v-4.6m-4.5 2v-4.3l3.7 2.2.3.1v4.6l-4.1-2.3"/></svg>