<svg id="Layer_1" xmlns="http://www.w3.org/2000/svg" viewBox="0 0 72 96"><style>.st0{fill:#077265}</style><path class="st0" d="M0 2v92c0 1.1.9 2 2 2h68c1.1 0 2-.9 2-2V28H50c-1.1 0-2-.9-2-2V0H2C.9 0 0 .9 0 2z"/><path class="st0" d="M71.9 24c-.1-.4-.2-.7-.4-1L52 1.2V24h19.9z"/><path d="M6 41h60v49H6zm.6-34.6h4.5c2.6 0 4.4 2 4.4 4.9 0 2.9-1.7 5-4.4 5H9.9v4.4H6.6V6.4zm3.9 7c1 0 1.6-.9 1.6-2.1s-.7-2-1.6-2h-.6v4.1h.6zm7.8-7h3.3V16c0 1.4.6 1.9 1.5 1.9s1.5-.5 1.5-1.9V6.4h3.3V16c0 3-1.9 4.9-4.7 4.9-2.9 0-4.8-1.9-4.8-4.9V6.4zm13.1 0h4.2c2.5 0 4.2 1.3 4.2 3.7 0 1.2-.5 2.4-1.7 3 1.6.5 2.1 1.9 2.1 3.2 0 3.1-2 4.3-4.4 4.3h-4.4V6.4zm4.2 5.6c.6 0 .9-.6.9-1.4s-.3-1.3-1-1.3h-.8V12h.9zm.2 5.8c.8 0 1.2-.7 1.2-1.6 0-.9-.3-1.5-1.1-1.5h-1.2v3.1h1.1z" fill="#fff"/><path class="st0" d="M31.2 61.2c0-2.7-1.3-4-3.4-4-.8 0-1.4.1-1.8.3v8c.4.2.9.3 1.5.3 2.4-.2 3.7-1.7 3.7-4.6z"/><path class="st0" d="M17.6 77.3l22 5.6V47l-22 5.6v24.7zm6.6-21.9c.9-.3 2.1-.4 3.5-.4 1.9 0 3.2.6 4 1.7.8 1 1.3 2.4 1.3 4.3s-.4 3.4-1.1 4.4c-1 1.5-2.6 2.3-4.4 2.3-.6 0-1.1 0-1.5-.2v8.2h-1.9V55.4zm17.3-3.9v2.2h7.4v6.2h-7.4v2.3h7.4v2.7h-7.4v2.2h7.4v2.8h-7.4v2.4h7.4v2.8h-7.4v4.6H54V51.5z"/></svg>