<svg id="Layer_1" xmlns="http://www.w3.org/2000/svg" viewBox="0 0 72 96"><style>.st0{fill:#666}.st1{fill:#fff}</style><path class="st0" d="M0 2v92c0 1.1.9 2 2 2h68c1.1 0 2-.9 2-2V28H50c-1.1 0-2-.9-2-2V0H2C.9 0 0 .9 0 2z"/><path class="st0" d="M71.9 24c-.1-.4-.2-.7-.4-1L52 1.2V24h19.9z"/><path class="st1" d="M6 41h60v49H6zm.6-34.6h4.5c.6 0 1.3.1 1.9.4 1.4.6 2.4 2.1 2.4 4 0 1.7-.8 3.3-2 4 0 0 .2.2.5.9l2.3 5h-3.6l-2-4.8h-.7v4.8H6.6V6.4zm3.9 6.6c.9 0 1.6-.7 1.6-1.9 0-.7-.2-1.2-.6-1.5-.3-.2-.6-.3-.9-.3h-.7V13h.6zm7.8-6.6h4.5c2.6 0 4.4 2 4.4 4.9 0 2.9-1.7 5-4.4 5h-1.2v4.4h-3.3V6.4zm3.9 7c1 0 1.6-.9 1.6-2.1s-.7-2-1.6-2h-.7v4.1h.7zm9.6-4.1h-3.1V6.4h9.6v2.9h-3.2v11.4h-3.3V9.3z"/><path d="M32.7 46.8c-.4 0-.8.3-1 .7l-1 1.9h-6.8c-.7 0-1.3.6-1.3 1.2-.1 10.6.2 21.3 0 31.9 0 .7.6 1.3 1.3 1.3h24.2c.7 0 1.3-.6 1.3-1.3V50.6c0-.6-.6-1.3-1.3-1.3h-6.8l-1-1.9c-.2-.4-.7-.7-1.2-.7-2.2.1-4.5.1-6.4.1z" fill="#666" stroke="#666" stroke-miterlimit="10"/><path class="st1" d="M25.2 51.9h4.5c0 1.3.1 2.5 1.3 2.5h10.2c1.3 0 1.3-1.3 1.3-2.5H47v29.3H25.3c-.1-9.8-.1-19.6-.1-29.3z"/><path class="st0" d="M28.4 58.9h15.3v2.6H28.4zm0 5.1h15.3v2.6H28.4zm0 5.1h15.3v2.5H28.4zm0 5.1h10.2v2.6H28.4z"/></svg>