<svg id="Layer_1" xmlns="http://www.w3.org/2000/svg" viewBox="0 0 72 96"><style>.st0{fill:#dd7d36}</style><path class="st0" d="M0 2v92c0 1.1.9 2 2 2h68c1.1 0 2-.9 2-2V28H50c-1.1 0-2-.9-2-2V0H2C.9 0 0 .9 0 2z"/><path class="st0" d="M71.9 24c-.1-.4-.2-.7-.4-1L52 1.2V24h19.9z"/><path d="M6 41h60v49H6zm.6-34.6h4.5c.6 0 1.3.1 1.9.4 1.4.6 2.4 2.1 2.4 4 0 1.7-.8 3.3-2 4 0 0 .2.2.5.9l2.3 5h-3.6l-2-4.8h-.7v4.8H6.6V6.4zm3.9 6.6c.9 0 1.6-.7 1.6-1.9 0-.7-.2-1.2-.6-1.5-.3-.2-.6-.3-.9-.3h-.7V13h.6zm9 3.7c.6.6 1.4 1.2 2.3 1.2.9 0 1.3-.6 1.3-1.2 0-2-4.8-2.1-4.8-6.2 0-2.4 1.7-4.3 4.5-4.3 1.2 0 2.4.3 3.4 1L25 10.1c-.5-.4-1.4-.9-2.2-.9-.9 0-1.3.6-1.3 1.2 0 2.1 4.8 2 4.8 6.1 0 2.3-1.5 4.4-4.4 4.4-1.4 0-2.9-.5-4-1.4l1.6-2.8zm10.7 0c.6.6 1.4 1.2 2.3 1.2.9 0 1.3-.6 1.3-1.2 0-2-4.8-2.1-4.8-6.2 0-2.4 1.7-4.3 4.5-4.3 1.2 0 2.4.3 3.4 1l-1.2 2.9c-.5-.4-1.4-.9-2.2-.9-.9 0-1.3.6-1.3 1.2 0 2.1 4.8 2 4.8 6.1 0 2.3-1.5 4.4-4.4 4.4-1.4 0-2.9-.5-4-1.4l1.6-2.8z" fill="#fff"/><path id="RSS" class="st0" d="M27.4 75.2c.9.9 1.4 2.1 1.4 3.4 0 1.3-.5 2.5-1.4 3.4-.9.9-2.1 1.4-3.4 1.4-1.3 0-2.5-.5-3.4-1.4-.9-.9-1.4-2-1.4-3.4 0-1.3.5-2.5 1.4-3.4.9-.9 2.1-1.4 3.4-1.4 1.4 0 2.5.6 3.4 1.4zm0 0zM20.7 82zm-1.4-22.4v6.9c4.5 0 8.7 1.8 11.9 4.9 3.2 3.2 4.9 7.4 4.9 11.9H43c0-6.5-2.7-12.5-7-16.8-4.3-4.2-10.2-6.9-16.7-6.9zm0-12.2v6.9c16 0 29.1 13.1 29.1 29.1h6.9c0-9.9-4-18.9-10.6-25.4-6.5-6.6-15.5-10.6-25.4-10.6z"/></svg>