<svg id="Layer_1" xmlns="http://www.w3.org/2000/svg" viewBox="0 0 72 96"><style>.st0{fill:#999}</style><path class="st0" d="M0 2v92c0 1.1.9 2 2 2h68c1.1 0 2-.9 2-2V28H50c-1.1 0-2-.9-2-2V0H2C.9 0 0 .9 0 2z"/><path class="st0" d="M71.9 24c-.1-.4-.2-.7-.4-1L52 1.2V24h19.9z"/><path d="M6 41h60v49H6zm1.3-24.3c.6.6 1.4 1.2 2.3 1.2.9 0 1.3-.6 1.3-1.2 0-2-4.8-2.1-4.8-6.2 0-2.4 1.7-4.3 4.5-4.3 1.2 0 2.4.3 3.4 1l-1 2.9c-.5-.4-1.4-.9-2.2-.9-.9 0-1.3.6-1.3 1.2 0 2.1 4.8 2 4.8 6.1 0 2.3-1.5 4.4-4.4 4.4-1.4 0-2.9-.5-4-1.4l1.4-2.8zm10-10.3h7.2v2.9h-3.9V12h3.1v2.9h-3.1v2.9h4.1v2.9h-7.4V6.4zm10.5 0H32c3.7 0 5.9 2.6 5.9 7.1s-2.2 7.2-5.9 7.2h-4.2V6.4zm4.1 11.4c1.7 0 2.6-1.5 2.6-4.3s-1-4.2-2.6-4.2h-.8v8.5h.8z" fill="#fff"/><path class="st0" d="M38 68.1l2.8.8 1.7-6.2-2.8-.8c0-1-.1-2-.4-3l2.5-1.5-3.2-5.6-2.6 1.5c-.7-.7-1.5-1.3-2.4-1.8l.8-2.8-6.2-1.7-.8 2.8c-1 0-2 .1-3 .4l-1.5-2.5-5.6 3.2 1.5 2.5c-.7.7-1.3 1.5-1.8 2.4l-2.8-.8-1.7 6.2 2.8.8c0 1 .1 2 .4 3l-2.5 1.5 3.2 5.6 2.5-1.5c.7.7 1.5 1.3 2.4 1.8l-.8 2.8 6.2 1.7.8-2.8c1 0 2-.1 3-.4l1.5 2.5 5.6-3.2-1.5-2.5c.7-.7 1.4-1.5 1.9-2.4zm-15.5-3.3c-1.6-2.7-.6-6.2 2.1-7.8 2.7-1.6 6.2-.6 7.8 2.1 1.6 2.7.6 6.2-2.1 7.8-2.7 1.6-6.2.7-7.8-2.1zm30.2 19.8l3.6-2.1-1-1.7c.5-.5.9-1 1.2-1.6l1.9.5 1.1-4.1-1.9-.5c0-.7-.1-1.3-.3-2l1.7-1-2.1-3.6-1.7 1c-.5-.5-1-.9-1.6-1.2l.5-1.9-4.1-1.1-.5 1.9c-.7 0-1.3.1-2 .3l-1-1.7-3.4 2.2 1 1.7c-.5.5-.9 1-1.2 1.6l-1.9-.6-1.1 4.1 1.9.5c0 .7.1 1.3.3 2l-1.7 1 2.1 3.6 1.7-1c.5.5 1 .9 1.6 1.2l-.5 1.9 4.1 1.1.5-1.9c.7 0 1.3-.1 2-.3-.2 0 .8 1.7.8 1.7zm-6.2-7.5c-1-1.8-.4-4.1 1.4-5.1 1.8-1 4.1-.4 5.1 1.4 1 1.8.4 4.1-1.4 5.1-1.8 1-4.1.4-5.1-1.4z"/></svg>