<svg id="Layer_1" xmlns="http://www.w3.org/2000/svg" viewBox="0 0 72 96"><style>.st0{fill:#fff}.st2{fill:#369}</style><path class="st0" d="M0 2v92c0 1.1.9 2 2 2h68c1.1 0 2-.9 2-2V28H50c-1.1 0-2-.9-2-2V0H2C.9 0 0 .9 0 2z"/><path class="st0" d="M71.9 24c-.1-.4-.2-.7-.4-1L52 1.2V24h19.9z"/><path d="M9.4 81.1c.5.6 1.3 1.1 2.1 1.1s1.2-.5 1.2-1.1c0-1.8-4.3-1.9-4.3-5.6 0-2.2 1.5-3.9 4.1-3.9 1.1 0 2.2.3 3.1.9l-1.1 2.6c-.4-.4-1.3-.8-1.9-.8-.8 0-1.2.5-1.2 1.1 0 1.9 4.3 1.8 4.3 5.5 0 2.1-1.3 3.9-4 3.9-1.3 0-2.6-.4-3.6-1.3l1.3-2.4zm13.7-9.5c3.4 0 5.3 2.8 5.3 6.6 0 1.7-.5 2.9-1 3.8l1.3 1.2-1.7 1.9-1.2-1.2c-.5.5-1.4 1-2.8 1-3.4 0-5.3-2.9-5.3-6.7.1-3.8 2.1-6.6 5.4-6.6zm0 10.6c.3 0 .5 0 .8-.2l-1.4-1.4 1.6-1.9 1.1 1.2c.1-.7.1-1.1.1-1.7 0-2.3-.7-3.8-2.2-3.8s-2.2 1.5-2.2 3.7c0 2.4.7 4.1 2.2 4.1zm8.1-10.4h3v10.3h3.9v2.6h-6.8V71.8h-.1zm9.3 0h3v12.9h-3V71.8zm8.3 2.6H46v-2.6h8.6v2.6h-2.8v10.3h-2.9l-.1-10.3zm8.3-2.6h6.5v2.6h-3.5v2.5h2.8v2.6h-2.8v2.6h3.7v2.6h-6.6V71.8h-.1z" fill="#666"/><path class="st2" d="M0 94V2C0 .9.9 0 2 0h48c.6 0 1.1.2 1.5.7l20 22.3c.3.4.5.8.5 1.3V94c0 1.1-.9 2-2 2H2c-1.1 0-2-.9-2-2zm68-68.9L49.1 4H4v88h64V25.1z"/><path class="st2" d="M48 26V4c0-1.1.9-2 2-2s2 .9 2 2v20h16c1.1 0 2 .9 2 2s-.9 2-2 2H50c-1.1 0-2-.9-2-2zM33.9 65.7c-4.8-.2-9.1-1.7-11.4-4-.7-.6-1.4-1.5-1.7-2.1l-.2-.4v-4.5c0-4.5 0-4.5.1-4.1.2 1 .8 2 1.7 2.8.6.5 1.8 1.4 2.8 1.9 1.7.9 3.9 1.5 6.2 1.8 1.4.2 1.9.2 3.9.2s2.5 0 3.9-.2c2.3-.3 4.4-1 6.2-1.8 1-.5 2.2-1.3 2.8-1.9.8-.8 1.5-1.8 1.7-2.8.1-.3.1-.3.1 4.1v4.4l-.2.4c-.7 1.4-1.9 2.6-3.5 3.6-3.1 1.8-7.8 2.8-12.4 2.6zm0-11.2c-4.2-.2-8.1-1.4-10.6-3.2-.6-.4-1.4-1.2-1.7-1.6-.3-.4-.6-.9-.8-1.4l-.2-.4v-4.4c0-4.4 0-4.4.1-4.1.2.7.5 1.5 1.1 2.1.3.4.8.9 1.1 1.1.1.1.4.2.6.4 2 1.4 4.8 2.4 8 2.9 1.4.2 1.9.2 3.9.2s2.5 0 3.9-.2c2.3-.3 4.4-1 6.2-1.8 1-.5 2.2-1.3 2.8-1.9.8-.8 1.4-1.8 1.7-2.8.1-.3.1-.3.1 4.1v4.4l-.3.6c-.5.9-.8 1.4-1.4 2s-1.2 1.1-2 1.5c-3.2 1.8-7.9 2.8-12.5 2.5zm-.3-11.1c-2.8-.2-5-.7-7.1-1.5-2.5-1-4.3-2.3-5.2-3.9-.2-.3-.4-.7-.5-1.2-.1-.4-.2-1.4-.1-2 .6-3.2 4.9-5.8 10.7-6.7 1.4-.2 1.9-.2 3.9-.2s2.5 0 3.9.2c2.3.3 4.4 1 6.2 1.8 2.6 1.3 4.2 3 4.5 4.8.1.5.1 1.6-.1 2-.3 1-.7 1.6-1.5 2.4-2.1 2.2-5.8 3.6-10.4 4.1-.6.2-3.7.2-4.3.2z"/></svg>