<svg xmlns="http://www.w3.org/2000/svg" viewBox="0 0 72 96"><style>.st0{fill:#999}</style><path class="st0" d="M0 2v92c0 1.1.9 2 2 2h68c1.1 0 2-.9 2-2V28H50c-1.1 0-2-.9-2-2V0H2C.9 0 0 .9 0 2z"/><path class="st0" d="M71.9 24c-.1-.4-.2-.7-.4-1L52 1.2V24h19.9z"/><path d="M6 41h60v49H6zM8.9 8.7H5.7V6.5h8.6v2.2h-3.2v12H8.9v-12zm11.5-2.5c1.1 0 2.4.4 3.2 1.2l-.9 2.1c-.4-.5-1.4-1-2.2-1-2.3 0-3.5 2.2-3.5 4.9 0 2.8 1.3 5.2 3.5 5.2 1 0 1.8-.5 2.5-1l.9 2.1c-.8.7-1.9 1.3-3.6 1.3-3.6 0-5.7-3.2-5.7-7.4 0-4.3 2.1-7.4 5.8-7.4zm5.1 11.3c.6.7 1.4 1.2 2.3 1.2 1 0 1.6-.7 1.6-1.8 0-2.6-4.6-2.5-4.6-6.6 0-2.3 1.5-4 3.9-4 1 0 2.1.3 2.9.9l-.8 2.2c-.5-.4-1.4-.8-2.1-.8-1.1 0-1.7.8-1.7 1.7 0 2.6 4.7 2.4 4.7 6.5 0 2.2-1.3 4.1-3.8 4.1-1.2 0-2.5-.5-3.4-1.4l1-2zm8-11h2.3v6h4.1v-6h2.3v14.2h-2.3v-6h-4.1v6h-2.3V6.5z" fill="#fff"/><path d="M30.8 61.4h10.9v2.7H30.8v-2.7zm0 5.4h10.9v2.7H30.8v-2.7zm0 5.5h10.9V75H30.8v-2.7zm19-24.4H28.1c-3 0-5.4 2.4-5.4 5.4v24.4h-5.4c0 3 2.4 5.4 5.4 5.4h21.7c3 0 5.4-2.4 5.4-5.4V56h5.4v-2.7c0-3-2.4-5.4-5.4-5.4zm-2.7 29.3c0 1.8-1.4 3.2-3.2 3.2H24c1.3-.9 1.3-2.7 1.3-2.7V53.3c0-1.5 1.2-2.7 2.7-2.7s2.7 1.2 2.7 2.7V56H47l.1 21.2zM33.5 53.3v-2.7h16.3c2.5 0 2.7 1.6 2.7 2.7h-19z" fill="#999" stroke="#999" stroke-width=".75" stroke-miterlimit="10"/></svg>