<svg id="Layer_1" xmlns="http://www.w3.org/2000/svg" viewBox="0 0 72 96"><style>.st0{fill:#bababa}</style><path class="st0" d="M0 2v92c0 1.1.9 2 2 2h68c1.1 0 2-.9 2-2V28H50c-1.1 0-2-.9-2-2V0H2C.9 0 0 .9 0 2z"/><path class="st0" d="M71.9 24c-.1-.4-.2-.7-.4-1L52 1.2V24h19.9z"/><path d="M6 41h60v49H6zM8.9 9.3H5.7V6.4h9.6v2.9h-3.2v11.4H8.9V9.3zm9.6-2.9h3.6l1.3 6c.2.9.4 2.4.4 2.4h.1s.2-1.5.4-2.4l1.3-6h3.6l.9 14.3h-3l-.4-6.4c-.1-1.1 0-2.4 0-2.4h-.1s-.2 1.5-.4 2.4l-.9 4.1h-3.2l-.9-4.1c-.2-.9-.4-2.4-.4-2.4h-.1s.1 1.3 0 2.4l-.4 6.4h-3l1.2-14.3zm15 0H38c2.6 0 4.4 2 4.4 4.9 0 2.9-1.7 5-4.4 5h-1.2v4.4h-3.3V6.4zm3.9 7c1 0 1.6-.9 1.6-2.1s-.7-2-1.6-2h-.7v4.1h.7z" fill="#fff"/><path class="st0" d="M45.8 65c.4.4 1.1.4 1.5-.1.4-.4.4-1 .1-1.5l-2.8-3.3c-.1-.1-.2-.3-.2-.5l-.4-6.2c0-.6-.5-1-1.1-1-.6 0-1 .4-1.1 1v.1l-.4 6.8v.1c0 .4.1.8.5 1.1l.2.2 3.7 3.3z"/><path class="st0" d="M43 47.3c-5.7 0-10.5 3.7-12.3 8.8 1.1.1 2.2.4 3.3.7 1.4-3.6 4.9-6.2 9-6.2 5.3 0 9.6 4.3 9.6 9.6 0 4.8-3.5 8.8-8.1 9.5.1.6.1 1.3.1 1.9 0 .5 0 1-.1 1.5C51 72.4 56 66.9 56 60.3c0-7.1-5.8-13-13-13z"/><path class="st0" d="M40.8 69.8h-1.7c-.3-1.4-.8-2.7-1.6-3.9l1.2-1.2c.4-.4.4-1.1 0-1.5L37.5 62c-.4-.4-1.1-.4-1.5 0l-1.2 1.2c-1.2-.8-2.5-1.4-3.9-1.6v-1.7c0-.6-.5-1.1-1.1-1.1h-1.7c-.6 0-1.1.5-1.1 1.1v1.7c-1.4.3-2.7.8-3.9 1.6L22 61.9c-.4-.4-1.1-.4-1.5 0l-1.2 1.2c-.4.4-.4 1.1 0 1.5l1.1 1.2c-.8 1.2-1.4 2.5-1.6 3.9h-1.6c-.6 0-1.1.5-1.1 1.1v1.7c0 .6.5 1.1 1.1 1.1h1.6c.3 1.4.8 2.7 1.6 3.9l-1.1 1.1c-.4.4-.4 1.1 0 1.5l1.2 1.2c.4.4 1.1.4 1.5 0l1.2-1.1c1.2.8 2.5 1.4 3.9 1.6v1.6c0 .6.5 1.1 1.1 1.1h1.7c.6 0 1.1-.5 1.1-1.1v-1.6c1.4-.3 2.7-.8 3.9-1.6l1.1 1.2c.4.4 1.1.4 1.5 0l1.2-1.2c.4-.4.4-1.1 0-1.5l-1.2-1.2c.8-1.2 1.4-2.5 1.6-3.9h1.7c.6 0 1.1-.5 1.1-1.1v-1.7c0-.5-.5-1-1.1-1zm-7.9 5.9c-2.2 2.2-5.8 2.2-8 0s-2.2-5.8 0-8 5.8-2.2 8 0c2.3 2.2 2.2 5.8 0 8z"/></svg>