<svg id="Layer_1" xmlns="http://www.w3.org/2000/svg" viewBox="0 0 72 96"><style>.st0{fill:#fff}.st2{fill:#bababa}</style><path class="st0" d="M0 2v92c0 1.1.9 2 2 2h68c1.1 0 2-.9 2-2V28H50c-1.1 0-2-.9-2-2V0H2C.9 0 0 .9 0 2z"/><path class="st0" d="M71.9 24c-.1-.4-.2-.7-.4-1L52 1.2V24h19.9z"/><path d="M10.2 73.3H7.9v-2.9h7.2v2.9h-2.4v11.4h-2.4V73.3h-.1zm9.4-3.1c2.8 0 4.4 3.1 4.4 7.3 0 4.2-1.6 7.5-4.4 7.5s-4.4-3.2-4.4-7.5c0-4.2 1.6-7.3 4.4-7.3zm0 11.6c1.3 0 1.8-1.8 1.8-4.3s-.6-4.2-1.8-4.2-1.9 1.7-1.9 4.2c.1 2.5.6 4.3 1.9 4.3zm5.8-11.4h3.4c.4 0 1 .1 1.4.4 1.1.6 1.8 2.1 1.8 4 0 1.7-.6 3.3-1.5 4 0 0 .1.2.4.9l1.7 5h-2.7l-1.5-4.8h-.6v4.8h-2.5V70.4h.1zm2.9 6.6c.6 0 1.2-.7 1.2-1.9 0-.7-.2-1.2-.4-1.5-.2-.2-.5-.3-.6-.3h-.6V77h.4zm5.3-6.6H37c.4 0 1 .1 1.4.4 1.1.6 1.8 2.1 1.8 4 0 1.7-.6 3.3-1.5 4 0 0 .1.2.4.9l1.7 5h-2.7l-1.5-4.8H36v4.8h-2.5l.1-14.3zm2.9 6.6c.6 0 1.2-.7 1.2-1.9 0-.7-.2-1.2-.4-1.5-.2-.2-.5-.3-.6-.3H36V77h.5zm5.3-6.6h5.4v2.9h-2.9V76h2.3v2.9h-2.3v2.9h3.1v2.9h-5.5l-.1-14.3zm6.8 0h2.6L53 77c.3 1 .5 2.4.5 2.4h.1s-.1-1.5-.1-2.4v-6.6h2.3v14.3h-2.6l-1.8-6.6c-.3-1-.5-2.4-.5-2.4h-.1s.1 1.5.1 2.4v6.6h-2.3V70.4zm10.7 2.9h-2.4v-2.9h7.2v2.9h-2.4v11.4h-2.4V73.3z" fill="#666"/><path class="st2" d="M0 94V2C0 .9.9 0 2 0h48c.6 0 1.1.2 1.5.7l20 22.3c.3.4.5.8.5 1.3V94c0 1.1-.9 2-2 2H2c-1.1 0-2-.9-2-2zm68-68.9L49.1 4H4v88h64V25.1z"/><path class="st2" d="M48 26V4c0-1.1.9-2 2-2s2 .9 2 2v20h16c1.1 0 2 .9 2 2s-.9 2-2 2H50c-1.1 0-2-.9-2-2zm6 30.8c-.2.9-.8 1.5-1.5 2.2-9.2 9.6-25.1 7.8-31.8-3.7-1.8-3.1-2.8-6.3-2.7-9.9.2-4.5 1.7-8.4 4.5-11.9 3.3-4.2 7.5-7 12.9-7.9 1.3-.2 2.6-.3 3.9-.5v3.7l-2.7.3c-7.6 1.1-14 7.5-14.5 14.9-.3 4.6.9 8.8 4 12.3 1.2 1.5 2.6 2.8 4.3 3.6.5.2 1.1.3 1.6.4-4.8-2.8-7.6-7-8.5-12.4-.6-3.6.1-7.1 2.1-10.2 5.1-7.9 14-9.2 20.1-6.6-.5 1.1-1 2.2-1.5 3.2-1.2-.2-2.4-.6-3.6-.6-3.5-.2-6.6.6-9.2 3.1-6.6 6.1-4.9 15.5 1.5 19.7 2 1.4 4.2 2.4 6.6 2.9.6.2 1.2 0 1.9-.1-.1-.1-.2-.1-.3-.1-3-.6-5.8-1.6-8.2-3.7-2.4-2.1-4.2-4.7-4.5-8-.3-4.7 1.5-8.5 5.5-10.9 3.5-2.2 7.2-2.2 10.9-.4 2.1 1 3.6 2.6 4.8 4.6-1.1.6-2.1 1.1-3.1 1.6-.9-.9-1.7-1.9-2.7-2.5-4.7-3.2-11.3-.2-11.8 5.7-.2 2.9 1 5.1 3 7.1 2.4 2.2 5.3 3 8.5 3.4 3.1.4 6.2.3 9.3-.1.6-.1.9.3 1.2.8 0-.1 0 0 0 0z"/></svg>