<svg id="Layer_1" xmlns="http://www.w3.org/2000/svg" viewBox="0 0 72 96"><style>.st0{fill:#999}</style><path class="st0" d="M0 2v92c0 1.1.9 2 2 2h68c1.1 0 2-.9 2-2V28H50c-1.1 0-2-.9-2-2V0H2C.9 0 0 .9 0 2z"/><path class="st0" d="M71.9 24c-.1-.4-.2-.7-.4-1L52 1.2V24h19.9z"/><path d="M6 41h60v49H6zM8.9 9.3H5.7V6.4h9.6v2.9h-3.2v11.4H8.9V9.3zm9.2-2.9h4.5c2.6 0 4.4 2 4.4 4.9 0 2.9-1.7 5-4.4 5h-1.2v4.4h-3.3V6.4zm3.9 7c1 0 1.6-.9 1.6-2.1s-.7-2-1.6-2h-.7v4.1h.7zm7.8-7h3.3v11.4h4.3v2.9h-7.6V6.4z" fill="#fff"/><path class="st0" d="M51.8 48.5H24.5c-.4 0-.7.3-.7.7v2.1c0 .4.4.7.7.7H50v25.6c0 .3.4.7.7.7h2.1c.4 0 .7-.3.7-.7V50.2c0-1-.7-1.7-1.7-1.7z"/><path class="st0" d="M45.8 55.5H19.2c-.4 0-.7.3-.7.7v26.6c0 .3.4.7.7.7h26.6c.3 0 .7-.3.7-.7V56.2c0-.4-.3-.7-.7-.7zm-15 23.8c0 .3-.4.7-.7.7h-7.3c-.4 0-.7-.3-.7-.7v-2.1c0-.3.4-.7.7-.7H30c.4 0 .7.3.7.7v2.1zm0-7c0 .3-.4.7-.7.7h-7.3c-.4 0-.7-.3-.7-.7v-2.1c0-.4.4-.7.7-.7H30c.4 0 .7.3.7.7v2.1zm12.2 7c0 .3-.3.7-.7.7H35c-.4 0-.7-.3-.7-.7v-2.1c0-.3.3-.7.7-.7h7.3c.3 0 .7.3.7.7v2.1zm0-7c0 .3-.3.7-.7.7H35c-.4 0-.7-.3-.7-.7v-2.1c0-.4.3-.7.7-.7h7.3c.3 0 .7.3.7.7v2.1zm0-7c0 .3-.3.7-.7.7H22.7c-.4 0-.7-.3-.7-.7v-5.6c0-.4.4-.7.7-.7h19.6c.4 0 .7.3.7.7v5.6z"/></svg>