<svg id="Layer_1" xmlns="http://www.w3.org/2000/svg" viewBox="0 0 72 96"><style>.st0{fill:#999}</style><path class="st0" d="M0 2v92c0 1.1.9 2 2 2h68c1.1 0 2-.9 2-2V28H50c-1.1 0-2-.9-2-2V0H2C.9 0 0 .9 0 2z"/><path class="st0" d="M71.9 24c-.1-.4-.2-.7-.4-1L52 1.2V24h19.9z"/><path d="M6 41h60v49H6zM5.4 6.4H9l1.6 8.1c.2.9.3 2.3.3 2.3h.1s.2-1.4.3-2.3L13 6.4h3.5l-3.9 14.3H9.3L5.4 6.4zm13.5 0h4.2c2.5 0 4.2 1.3 4.2 3.7 0 1.2-.5 2.4-1.7 3 1.6.5 2.1 1.9 2.1 3.2 0 3.1-2 4.3-4.4 4.3h-4.4V6.4zm4.2 5.6c.6 0 .9-.6.9-1.4s-.3-1.3-1-1.3h-.8V12h.9zm.2 5.8c.8 0 1.2-.7 1.2-1.6 0-.9-.3-1.5-1.1-1.5h-1.2v3.1h1.1zm8.3-1.1c.6.6 1.4 1.2 2.3 1.2.9 0 1.3-.6 1.3-1.2 0-2-4.8-2.1-4.8-6.2 0-2.4 1.7-4.3 4.5-4.3 1.2 0 2.4.3 3.4 1l-1.2 2.9c-.5-.4-1.4-.9-2.2-.9-.9 0-1.3.6-1.3 1.2 0 2.1 4.8 2 4.8 6.1 0 2.3-1.5 4.4-4.4 4.4-1.4 0-2.9-.5-4-1.4l1.6-2.8z" fill="#fff"/><path class="st0" d="M15.6 50.9v1.3l-1.6.6v-1.3l1.6-.6zm0 13v1.3l-1.6.7v-1.3l1.6-.7zm0 13.2v1.4l-1.6.6v-1.3l1.6-.7zm-.2-21.9v1.2l-1.3.6v-1.2l1.3-.6zm0 4.4v1.2l-1.3.6v-1.2l1.3-.6zm0 8.8v1.2l-1.3.6V69l1.3-.6zm0 4.4V74l-1.3.6v-1.2l1.3-.6zm4.1-21.2v1.6l-2.1.8v-1.5l2.1-.9zm0 13.2v1.5l-2.1.8v-1.5l2.1-.8zm0 13.3v1.5l-2.1.9V79l2.1-.9zm-.1-21.9v1.4l-1.7.7v-1.4l1.7-.7zm0 4.4V62l-1.7.7v-1.5l1.7-.6zm0 8.8v1.4l-1.7.7V70l1.7-.6zm0 4.4v1.4l-1.7.7v-1.4l1.7-.7zm4.1-21.2v1.9l-2.8 1.1v-1.8l2.8-1.2zm0 13.2v1.9l-2.8 1.1V67l2.8-1.2zm0 13.1v1.9l-2.8 1.1V80l2.8-1.1zm-.1-21.7v1.7l-2.3.9v-1.6l2.3-1zm0 4.4v1.6l-2.3.9v-1.6l2.3-.9zm0 8.8V72l-2.3.9v-1.6l2.3-.9zm0 4.2v1.7l-2.3.9v-1.6l2.3-1zm4.5-22.1V55l-3.4 1.4V54l3.4-1.5zm0 13.2v2.5l-3.4 1.3V67l3.4-1.3zm0 13.1v2.5l-3.4 1.4v-2.4l3.4-1.5zm-.2-21.7v2.3l-2.9 1.2v-2.3l2.9-1.2zm0 4.4v2.2l-2.9 1.2v-2.3l2.9-1.1zm0 8.8v2.3l-2.9 1.1v-2.3l2.9-1.1zm0 4.2v2.3l-2.9 1.1v-2.2l2.9-1.2zm4.7-22.4v3.2l-3.8 1.5v-3.2l3.8-1.5zm0 13.2v3.2L28.6 70v-3.2l3.8-1.5zm0 13.1v3.2l-3.8 1.5v-3.2l3.8-1.5zm-.2-21.5v2.7L29 60.9v-2.7l3.2-1.3zm0 4.2v2.7L29 65.1v-2.7l3.2-1.3zm0 9v2.7L28.9 74v-2.7l3.3-1.2zm0 4.2V77L29 78.3v-2.7l3.2-1.3zM37 50.5v4.4l-4.1 1.7v-4.1c1.4-.9 2.8-1.5 4.1-2zm0 4.8v3.8l-4.1 1.7V57l4.1-1.7zm0 4.3v3.8l-4.1 1.7v-3.8l4.1-1.7zm0 4.3v3.8l-4.1 1.7v-3.8l4.1-1.7zm0 4.3v3.9l-4.1 1.7v-3.9l4.1-1.7zm0 4.4v3.8l-4.1 1.8v-3.9l4.1-1.7zm0 4.3V81c-1.6.6-3 1.2-4.1 1.8v-4.1l4.1-1.8zm21-26.3v30.8c-2.6-1.7-5.9-2.6-9.7-2.6-3.2 0-6.8.7-10.8 2v-4.2c2.1-.8 4.4-1.4 7-1.8v-10c-2.1.3-4.5 1-7 2.2v-2.9c2.2-1 4.5-1.7 7-2.1v-9.8c-2.2.4-4.6 1.2-7 2.3v-4.3c3.5-1.5 7-2.3 10.4-2.3 3.6.1 7 1 10.1 2.7zm-4.1 2.7c-1.7-.9-3.7-1.3-6-1.3h-.8v10h.9c2 0 4 .3 5.9 1v-9.7zm0 12.5c-1.8-.8-3.8-1.2-5.9-1.2h-.9v10h.9c2.2 0 4.1.3 5.9.8v-9.6zm2.7 16.9V82h-.3v-.1h.7v.1h-.3v.7h-.1zm.5 0v-.8h.2l.3.6.3-.6h.1v.8h-.1V82l-.3.6h-.1l-.3-.6v.7h-.1z"/></svg>