<svg id="Layer_1" xmlns="http://www.w3.org/2000/svg" viewBox="0 0 72 96"><style>.st0{fill:#c11e07}</style><path class="st0" d="M0 2v92c0 1.1.9 2 2 2h68c1.1 0 2-.9 2-2V28H50c-1.1 0-2-.9-2-2V0H2C.9 0 0 .9 0 2z"/><path class="st0" d="M71.9 24c-.1-.4-.2-.7-.4-1L52 1.2V24h19.9z"/><path d="M6 41h60v49H6zM5.4 6.4H9l1.6 8.1c.2.9.3 2.3.3 2.3h.1s.2-1.4.3-2.3L13 6.4h3.5l-3.9 14.3H9.3L5.4 6.4zm19.1-.3c1.3 0 2.6.4 3.6 1.2l-1.4 2.8c-.4-.5-1.3-.9-2.1-.9-2.1 0-3.2 1.9-3.2 4.2 0 2.3 1.2 4.4 3.2 4.4 1 0 1.7-.5 2.3-1l1.4 2.8c-.9.7-2 1.3-3.9 1.3-4 0-6.3-3.1-6.3-7.4 0-4.2 2.4-7.4 6.4-7.4zm7.3 10.6c.6.6 1.4 1.2 2.3 1.2.9 0 1.3-.6 1.3-1.2 0-2-4.8-2.1-4.8-6.2 0-2.4 1.7-4.3 4.5-4.3 1.2 0 2.4.3 3.4 1l-1.2 2.9c-.5-.4-1.4-.9-2.2-.9-.9 0-1.3.6-1.3 1.2 0 2.1 4.8 2 4.8 6.1 0 2.3-1.5 4.4-4.4 4.4-1.4 0-2.9-.5-4-1.4l1.6-2.8z" fill="#fff"/><path d="M39.9 53.4v-2c0-2.1-1.8-3.9-3.9-3.9s-3.9 1.8-3.9 3.9v2H16.6v29.1h38.8V53.4H39.9zm11.6 25.2h-31V57.2h11.6v1.9h7.8v-1.9h11.6v21.4z"/><circle cx="28.2" cy="65" r="2"/><path d="M28.2 68.9c-2.1 0-3.9 1.8-3.9 3.9v2h7.8v-2c0-2.2-1.7-3.9-3.9-3.9zM38 63h9.7v3.9H38V63zm0 7.9h9.7v3.9H38v-3.9z"/></svg>