<svg id="Layer_1" xmlns="http://www.w3.org/2000/svg" viewBox="0 0 72 96"><style>.st0{fill:#039}</style><path class="st0" d="M0 2v92c0 1.1.9 2 2 2h68c1.1 0 2-.9 2-2V28H50c-1.1 0-2-.9-2-2V0H2C.9 0 0 .9 0 2z"/><path class="st0" d="M71.9 24c-.1-.4-.2-.7-.4-1L52 1.2V24h19.9z"/><path d="M6 41h60v49H6zM5.4 6.4H9l1.6 8.1c.2.9.3 2.3.3 2.3h.1s.2-1.4.3-2.3L13 6.4h3.5l-3.9 14.3H9.3L5.4 6.4zM24 6.1c3.8 0 5.9 3.1 5.9 7.3 0 4.2-2.1 7.5-5.9 7.5s-5.8-3.2-5.8-7.5c-.1-4.1 2-7.3 5.8-7.3zm0 11.7c1.7 0 2.5-1.8 2.5-4.3s-.8-4.2-2.5-4.2-2.5 1.7-2.5 4.2.8 4.3 2.5 4.3zm11-4.2l-3.4-7.2h3.6l1.1 2.9.6 1.8s.2-.9.6-1.8l1.2-2.9h3.6l-3.4 7.2 3.3 7.1h-3.5l-1.1-3c-.4-.9-.6-1.7-.6-1.7s-.2.8-.6 1.7l-1.1 3h-3.5l3.2-7.1z" fill="#fff"/><path class="st0" d="M33.1 59.6l6.6 4.4V48.5l-6.6 4.4v-2.2c0-1.2-1-2.2-2.2-2.2H17.6c-1.2 0-2.2 1-2.2 2.2v11.1c0 1.2 1 2.2 2.2 2.2h13.3c1.2 0 2.2-1 2.2-2.2v-2.2zm10.2 4v6.6c0 2.4 2 4.4 4.4 4.4 2.4 0 4.4-2 4.4-4.4v-6.6c0-2.4-2-4.4-4.4-4.4-2.4 0-4.4 2-4.4 4.4z"/><path class="st0" d="M54.4 70.2c0 3.7-3 6.6-6.6 6.6-3.7 0-6.6-3-6.6-6.6H39c0 4.1 2.8 7.5 6.6 8.5v4.7H50v-4.7c3.8-1 6.6-4.4 6.6-8.5h-2.2z"/></svg>