<svg xmlns="http://www.w3.org/2000/svg" viewBox="0 0 72 96"><style>.st0{fill:#999}</style><path class="st0" d="M0 2v92c0 1.1.9 2 2 2h68c1.1 0 2-.9 2-2V28H50c-1.1 0-2-.9-2-2V0H2C.9 0 0 .9 0 2z"/><path class="st0" d="M71.9 24c-.1-.4-.2-.7-.4-1L52 1.2V24h19.9z"/><path d="M6 41h60v49H6zM5.6 6.4h3.2l1.2 8.9c.1.7.1 1.6.1 1.6h.1s0-.9.1-1.6l1.3-8.9h3.1l1.3 8.9c.1.7.1 1.6.1 1.6h.1s0-.9.1-1.6l1.2-8.9h3.2l-2.5 14.3h-3.7l-1.1-7.2c-.1-.9-.2-1.7-.2-1.7h-.1s0 .8-.1 1.7l-1.1 7.2H8.1L5.6 6.4zm16.7 0h4.2c2.5 0 4.2 1.3 4.2 3.7 0 1.2-.5 2.4-1.7 3 1.6.5 2.1 1.9 2.1 3.2 0 3.1-2 4.3-4.4 4.3h-4.4V6.4zm4.2 5.6c.6 0 .9-.6.9-1.4s-.3-1.3-1-1.3h-.8V12h.9zm.2 5.8c.8 0 1.2-.7 1.2-1.6 0-.9-.3-1.5-1.1-1.5h-1.2v3.1h1.1zm6.6-11.4h3.3v5.5h.6l2.3-5.5H43l-2.9 6.8 3 7.4h-3.7l-2.3-5.8h-.6v5.8h-3.3V6.4z" fill="#fff"/><path class="st0" d="M19.5 67.1l-4.8-14.8c-.2-.6-.3-.8-.4-.8-.1-.1-.2-.1-.3-.2l-1.7-.5-.1-2.1h9l.2 2.1-1.7.5v.2c0 .2.1.6.3 1l1.8 5.7 3.2-9.5 2.4-.1 2.9 9.5 2-5.7c.1-.4.3-.8.3-1v-.1l-1.5-.4-.1-2.2h7l.2 2.1-1.9.6c-.1 0-.2.1-.3.1 0 .1-.2.2-.3.7l-5.3 14.7-2.5.2-2.7-9.1-3.2 8.9-2.5.2z"/><path d="M42.4 48.6H60v2.8H42.4zm0 7.4H60v2.8H42.4zm0 7.7H60v2.8H42.4zM13 71.5h47v2.8H13zm0 7.6h47v2.8H13z" fill="#999" stroke="#999" stroke-width=".5" stroke-miterlimit="10"/></svg>