<svg id="Layer_1" xmlns="http://www.w3.org/2000/svg" viewBox="0 0 72 96"><style>.st0{fill:#fff}.st2{fill:#bababa}</style><path class="st0" d="M0 2v92c0 1.1.9 2 2 2h68c1.1 0 2-.9 2-2V28H50c-1.1 0-2-.9-2-2V0H2C.9 0 0 .9 0 2z"/><path class="st0" d="M71.9 24c-.1-.4-.2-.7-.4-1L52 1.2V24h19.9z"/><path d="M6.3 70.4h2.6l.9 8.9c.1.7.1 1.6.1 1.6h.1s0-.9.1-1.6l1-8.9h2.4l1 8.9c.1.7.1 1.6.1 1.6h.1s0-.9.1-1.6l.9-8.9h2.6l-2 14.3h-3l-.9-7.2c-.1-.9-.1-1.7-.1-1.7s0 .8-.1 1.7l-.9 7.2h-3l-2-14.3zm13 0H25v2.9h-3.1V76h2.5v2.9h-2.5v2.9h3.3v2.9h-5.9V70.4zm7.2 0h3.3c2 0 3.4 1.3 3.4 3.7 0 1.2-.4 2.4-1.3 3 1.3.5 1.7 1.9 1.7 3.2 0 3.1-1.6 4.3-3.6 4.3h-3.5V70.4zm3.3 5.6c.5 0 .7-.6.7-1.4 0-.7-.2-1.3-.8-1.3h-.6V76h.7zm.2 5.8c.7 0 .9-.7.9-1.6s-.3-1.5-.8-1.5h-.9v3.1h.8zm4.8-11.4h2.6v14.3h-2.6V70.4zm4.4 0H42l2 6.6c.3 1 .6 2.4.6 2.4h.1s-.1-1.5-.1-2.4v-6.6h2.5v14.3h-2.8l-2-6.6c-.3-1-.5-2.4-.5-2.4h-.1s.1 1.5.1 2.4v6.6h-2.5l-.1-14.3zm9.4 0h5.7v2.9h-3.1v3.1h2.5v2.9h-2.5v5.4h-2.6V70.4zm11.1-.2c3 0 4.7 3.1 4.7 7.3 0 4.2-1.7 7.5-4.7 7.5S55 81.7 55 77.5s1.7-7.3 4.7-7.3zm0 11.6c1.4 0 2-1.8 2-4.3s-.6-4.2-2-4.2-2 1.7-2 4.2.6 4.3 2 4.3z" fill="#666"/><path class="st2" d="M26.8 50.3c2.2-.9 4.5-1.5 6.9-1.6v-6.4h-8.4c.1 2.7.6 5.5 1.5 8zm-4.6-24.6c1 1 2.2 1.8 3.3 2.5 1-2.3 2.3-4.5 3.9-6.5-2.7.8-5.1 2.1-7.2 4zm21 6c-2.2.9-4.5 1.5-6.9 1.6v6.4h8.4c-.1-2.7-.6-5.5-1.5-8zm-9.4 1.5c-2.4-.2-4.8-.7-6.9-1.6-.9 2.6-1.4 5.3-1.5 8.1h8.4v-6.5zm-6-3.9c1.9.8 3.9 1.2 6 1.4v-9.8h-.2l-1.1 1.2c-2.1 2.1-3.6 4.6-4.7 7.2zm16.9 12.9h-8.4v6.4c2.4.2 4.8.7 6.9 1.6.9-2.4 1.4-5.2 1.5-8zm-8.5-11.4c2.1-.2 4.1-.6 6-1.4-1.2-2.7-2.8-5.1-4.7-7.3l-.8-1.1h-.4l-.1 9.8zm11.7-5.2c-2.1-1.8-4.6-3.2-7.3-3.9 1.6 2 2.9 4.2 3.9 6.5 1.2-.7 2.3-1.5 3.4-2.6zM33.8 51.2c-2.1.2-4.1.6-6 1.4 1.2 2.6 2.7 5.1 4.6 7.2l1 1.1h.3l.1-9.7zm-11-11.4c.1-3.2.8-6.2 1.7-9.2-1.5-.8-2.8-1.8-4.2-3.1l-.1-.1c-3 3.3-5 7.6-5.2 12.4h7.8zm24.4 2.4c-.1 3.2-.8 6.2-1.7 9.2 1.5.8 2.8 1.8 4.2 3.1l.2.2c3-3.3 5-7.6 5.3-12.4-.2-.1-8-.1-8-.1zm2.4-14.7c-1.2 1.2-2.7 2.2-4.2 3.1 1.1 2.9 1.7 6 1.7 9.2H55c-.3-4.8-2.2-9.1-5.3-12.4l-.1.1zm-1.8 28.8c-1-1-2.2-1.8-3.3-2.5-1 2.3-2.3 4.5-3.9 6.5 2.7-.8 5.2-2.1 7.2-4zm-27.4-1.8c1.2-1.2 2.7-2.2 4.1-3.1-1.1-2.9-1.7-6-1.8-9.2H15c.3 4.8 2.2 9.1 5.2 12.4l.2-.1zm5.1-.7c-1.2.7-2.3 1.6-3.3 2.5 2.1 1.8 4.6 3.2 7.3 3.9-1.7-1.9-3-4-4-6.4zm16.7-1.1c-1.9-.8-3.9-1.2-6-1.4v9.8h.3l1.1-1.2c2-2.1 3.5-4.7 4.6-7.2z"/><path class="st2" d="M0 94V2C0 .9.9 0 2 0h48c.6 0 1.1.2 1.5.7l20 22.3c.3.4.5.8.5 1.3V94c0 1.1-.9 2-2 2H2c-1.1 0-2-.9-2-2zm68-68.9L49.1 4H4v88h64V25.1z"/><path class="st2" d="M48 26V4c0-1.1.9-2 2-2s2 .9 2 2v20h16c1.1 0 2 .9 2 2s-.9 2-2 2H50c-1.1 0-2-.9-2-2z"/></svg>