<svg xmlns="http://www.w3.org/2000/svg" viewBox="0 0 72 96"><style>.st0{fill:#999}</style><path class="st0" d="M0 2v92c0 1.1.9 2 2 2h68c1.1 0 2-.9 2-2V28H50c-1.1 0-2-.9-2-2V0H2C.9 0 0 .9 0 2z"/><path class="st0" d="M71.9 24c-.1-.4-.2-.7-.4-1L52 1.2V24h19.9z"/><path d="M6 41h60v49H6zm2.9-26.2L5.5 6.5H8l1.5 4.2c.3.9.5 1.9.5 1.9s.2-1 .5-1.9L12 6.5h2.5l-3.4 8.3v5.9H8.9v-5.9zm8.4-8.3h2.5l3.5 14.2H21l-.9-3.7h-3.2l-.8 3.7h-2.3l3.5-14.2zm2.4 8.5l-.8-3.8c-.2-.8-.4-2.2-.4-2.2h-.1s-.2 1.4-.4 2.2l-.8 3.8h2.5zm5.2-8.5h2.5l1.8 6.9c.2.9.4 2.2.4 2.2h.1s.2-1.3.4-2.2l1.8-6.9h2.5l.8 14.2h-2.1l-.4-7.9c-.1-.9 0-2.2 0-2.2h-.1s-.2 1.4-.4 2.3l-1.4 5.4h-2.2l-1.4-5.4c-.2-.8-.4-2.3-.4-2.3h-.1s.1 1.3 0 2.2l-.4 7.9h-2.1l.7-14.2zm12.3 0h2.3v12h4.3v2.2h-6.5V6.5z" fill="#fff"/><path class="st0" d="M14 48.9h37v4.3H14zm7 9.6h37v4.3H21zm-7 9.6h37v4.3H14zm7 9.6h37V82H21z"/></svg>