<svg xmlns="http://www.w3.org/2000/svg" viewBox="0 0 72 96"><style>.st0{fill:#999}</style><path class="st0" d="M0 2v92c0 1.1.9 2 2 2h68c1.1 0 2-.9 2-2V28H50c-1.1 0-2-.9-2-2V0H2C.9 0 0 .9 0 2z"/><path class="st0" d="M71.9 24c-.1-.4-.2-.7-.4-1L52 1.2V24h19.9z"/><path d="M6 41h60v49H6zm0-22.5l4.2-7.9c.5-.9.8-1.3.8-1.3s-.3.1-.8.1h-4v-3h8.7v2.2l-4.2 8c-.5.9-.8 1.3-.8 1.3s.3-.1.8-.1H15v2.9H6v-2.2zm12.8-1.8c.6.6 1.4 1.2 2.3 1.2.9 0 1.3-.6 1.3-1.2 0-2-4.8-2.1-4.8-6.2 0-2.4 1.7-4.3 4.5-4.3 1.2 0 2.4.3 3.4 1l-1.2 2.9c-.3-.5-1.3-.9-2-.9-.9 0-1.3.6-1.3 1.2 0 2.1 4.8 2 4.8 6.1 0 2.3-1.5 4.4-4.4 4.4-1.4 0-2.9-.5-4-1.4l1.4-2.8zm10-10.3h3.3v5.8h3.2V6.4h3.3v14.3h-3.3V15h-3.2v5.7h-3.3V6.4z" fill="#fff"/><path d="M30.8 61.4h10.9v2.7H30.8v-2.7zm0 5.4h10.9v2.7H30.8v-2.7zm0 5.5h10.9V75H30.8v-2.7zm19-24.4H28.1c-3 0-5.4 2.4-5.4 5.4v24.4h-5.4c0 3 2.4 5.4 5.4 5.4h21.7c3 0 5.4-2.4 5.4-5.4V56h5.4v-2.7c0-3-2.4-5.4-5.4-5.4zm-2.7 29.3c0 1.8-1.4 3.2-3.2 3.2H24c1.3-.9 1.3-2.7 1.3-2.7V53.3c0-1.5 1.2-2.7 2.7-2.7s2.7 1.2 2.7 2.7V56H47l.1 21.2zM33.5 53.3v-2.7h16.3c2.5 0 2.7 1.6 2.7 2.7h-19z" fill="#999" stroke="#999" stroke-width=".75" stroke-miterlimit="10"/></svg>