<svg id="Layer_1" xmlns="http://www.w3.org/2000/svg" viewBox="0 0 72 100"><style>.st3{fill:#fff}.st4{fill:#f2f2f2}</style><linearGradient id="SVGID_1_" gradientUnits="userSpaceOnUse" x1="36" y1="101" x2="36" y2="3.004" gradientTransform="matrix(1 0 0 -1 0 102)"><stop offset="0" stop-color="#fffeee"/><stop offset=".637" stop-color="#cf9fa0"/><stop offset="1" stop-color="#a03537"/></linearGradient><path d="M45.1 1l27.2 26.7V99H-.2V1h45.3z" fill="url(#SVGID_1_)"/><path d="M45.1 1l27.2 26.7V99H-.2V1h45.3z" fill-opacity="0" stroke="#a03537" stroke-width="2"/><path class="st3" d="M17.5 91.1h-2.9l-1.1-2.9H8.2l-1.1 2.9H4.3l5.1-12.9h2.8l5.3 12.9zM12.6 86l-1.8-4.8L9 86h3.6zm14.7.3l2.6.8c-.4 1.4-1 2.5-2 3.1-.9.7-2.1 1-3.5 1-1.7 0-3.2-.6-4.3-1.8-1.1-1.2-1.7-2.8-1.7-4.8 0-2.1.6-3.8 1.7-5 1.1-1.2 2.6-1.8 4.4-1.8 1.6 0 2.9.5 3.9 1.4.6.6 1 1.3 1.3 2.4l-2.6.6c-.2-.7-.5-1.2-1-1.6S25 80 24.3 80c-1 0-1.8.3-2.4 1s-.9 1.8-.9 3.3c0 1.6.3 2.8.9 3.5.6.7 1.4 1 2.3 1 .7 0 1.3-.2 1.8-.7.7-.1 1.1-.8 1.3-1.8zm13.2 0l2.6.8c-.4 1.4-1 2.5-2 3.1-.9.7-2.1 1-3.5 1-1.7 0-3.2-.6-4.3-1.8-1.1-1.2-1.7-2.8-1.7-4.8 0-2.1.6-3.8 1.7-5 1.1-1.2 2.6-1.8 4.4-1.8 1.6 0 2.9.5 3.9 1.4.6.6 1 1.3 1.3 2.4l-2.6.6c-.2-.7-.5-1.2-1-1.6-.5-.4-1.1-.6-1.8-.6-1 0-1.8.3-2.4 1s-.9 1.8-.9 3.3c0 1.6.3 2.8.9 3.5.6.7 1.4 1 2.3 1 .7 0 1.3-.2 1.8-.7.7-.1 1.1-.8 1.3-1.8zm4.8-8.1h4.8c1.1 0 1.9.1 2.5.2.8.2 1.4.6 2 1.2.5.6 1 1.3 1.3 2.1.3.8.4 1.8.4 3 0 1.1-.1 2-.4 2.7-.3.9-.8 1.7-1.4 2.3-.5.4-1.1.8-1.9 1-.6.2-1.4.3-2.3.3h-5V78.2zm2.7 2.2v8.5h2c.7 0 1.3 0 1.6-.1.4-.1.8-.3 1.1-.5s.5-.7.7-1.2c.2-.6.3-1.4.3-2.4s-.1-1.8-.3-2.3c-.2-.5-.4-.9-.8-1.2-.3-.3-.7-.5-1.2-.6-.4-.1-1.1-.1-2.2-.1H48zm13.5 10.7V80.4h-3.9v-2.2H68v2.2h-3.9v10.7h-2.6z"/><path class="st4" d="M54 48.1c0 2.5-8.1 4.5-18 4.5s-18-2-18-4.5 8.1-4.5 18-4.5 18 2 18 4.5z"/><linearGradient id="SVGID_2_" gradientUnits="userSpaceOnUse" x1="28.972" y1="47.222" x2="43.028" y2="61.278" gradientTransform="matrix(1 0 0 -1 0 102)"><stop offset="0" stop-color="#fffeee"/><stop offset=".637" stop-color="#cf9fa0"/><stop offset="1" stop-color="#a03537"/></linearGradient><path d="M49.5 47.8c0 2.2-6 3.9-13.5 3.9S22.5 50 22.5 47.8s6-3.9 13.5-3.9 13.5 1.7 13.5 3.9z" fill="url(#SVGID_2_)"/><linearGradient id="SVGID_3_" gradientUnits="userSpaceOnUse" x1="18" y1="45.9" x2="54" y2="45.9" gradientTransform="matrix(1 0 0 -1 0 102)"><stop offset="0" stop-color="#fffeee"/><stop offset=".637" stop-color="#cf9fa0"/><stop offset="1" stop-color="#a03537"/></linearGradient><path d="M18 48.3v11.2S22.5 64 36 64s18-4.5 18-4.5V48.3s-2.2 3.9-18 4.2c-15.8.3-18-4.2-18-4.2z" fill="url(#SVGID_3_)"/><path class="st4" d="M54 32.3c0 2.5-8.1 4.5-18 4.5s-18-2-18-4.5 8.1-4.5 18-4.5 18 2 18 4.5z"/><linearGradient id="SVGID_4_" gradientUnits="userSpaceOnUse" x1="28.954" y1="63.004" x2="43.01" y2="77.06" gradientTransform="matrix(1 0 0 -1 0 102)"><stop offset="0" stop-color="#fffeee"/><stop offset=".637" stop-color="#cf9fa0"/><stop offset="1" stop-color="#a03537"/></linearGradient><path d="M49.5 31.9c0 2.2-6 3.9-13.5 3.9s-13.5-1.7-13.5-3.9S28.5 28 36 28c7.5.1 13.5 1.8 13.5 3.9z" fill="url(#SVGID_4_)"/><linearGradient id="SVGID_5_" gradientUnits="userSpaceOnUse" x1="18" y1="61.6" x2="54" y2="61.6" gradientTransform="matrix(1 0 0 -1 0 102)"><stop offset="0" stop-color="#fffeee"/><stop offset=".637" stop-color="#cf9fa0"/><stop offset="1" stop-color="#a03537"/></linearGradient><path d="M18 32.6v11.2s4.5 4.5 18 4.5 18-4.5 18-4.5V32.6s-2.2 3.9-18 4.2c-15.8.3-18-4.2-18-4.2z" fill="url(#SVGID_5_)"/><path class="st3" d="M54 16.6c0 2.5-8.1 4.5-18 4.5s-18-2-18-4.5 8.1-4.5 18-4.5 18 2 18 4.5z"/><linearGradient id="SVGID_6_" gradientUnits="userSpaceOnUse" x1="28.972" y1="78.722" x2="43.028" y2="92.778" gradientTransform="matrix(1 0 0 -1 0 102)"><stop offset="0" stop-color="#fffeee"/><stop offset=".637" stop-color="#cf9fa0"/><stop offset="1" stop-color="#a03537"/></linearGradient><path d="M49.5 16.3c0 2.2-6 3.9-13.5 3.9s-13.5-1.7-13.5-3.9 6-3.9 13.5-3.9 13.5 1.7 13.5 3.9z" fill="url(#SVGID_6_)"/><linearGradient id="SVGID_7_" gradientUnits="userSpaceOnUse" x1="18" y1="77.4" x2="54" y2="77.4" gradientTransform="matrix(1 0 0 -1 0 102)"><stop offset="0" stop-color="#fffeee"/><stop offset=".637" stop-color="#cf9fa0"/><stop offset="1" stop-color="#a03537"/></linearGradient><path d="M18 16.8V28s4.5 4.5 18 4.5S54 28 54 28V16.8s-2.2 3.9-18 4.2c-15.8.3-18-4.2-18-4.2z" fill="url(#SVGID_7_)"/><linearGradient id="SVGID_8_" gradientUnits="userSpaceOnUse" x1="45.178" y1="74.159" x2="58.772" y2="87.753" gradientTransform="matrix(1 0 0 -1 0 102)"><stop offset="0" stop-color="#fffeee"/><stop offset=".637" stop-color="#cf9fa0"/><stop offset="1" stop-color="#a03537"/></linearGradient><path d="M45.1 1l27.2 26.7H45.1V1z" fill="url(#SVGID_8_)"/><path d="M44.1 1l27.2 26.7H44.1V1z" fill-opacity="0" stroke="#a03537" stroke-width="2" stroke-linejoin="bevel"/></svg>