<svg id="Layer_1" xmlns="http://www.w3.org/2000/svg" viewBox="0 0 72 100"><style>.st0{opacity:.99}</style><g class="st0"><linearGradient id="SVGID_1_" gradientUnits="userSpaceOnUse" x1="36.2" y1="3.005" x2="36.2" y2="101" gradientTransform="matrix(1 0 0 -1 0 102)"><stop offset="0" stop-color="#006b69"/><stop offset=".124" stop-color="#00807f"/><stop offset=".262" stop-color="#009393"/><stop offset=".41" stop-color="#00a3a3"/><stop offset=".571" stop-color="#00b0af"/><stop offset=".752" stop-color="#08b8b7"/><stop offset="1" stop-color="#14bbbb"/></linearGradient><path d="M45.2 1l26.9 26.7V99H.3V1h44.9z" fill="url(#SVGID_1_)"/><path d="M45.2 1l26.9 26.7V99H.3V1h44.9z" fill-opacity="0" stroke="#006e6c" stroke-width="2"/></g><path d="M32.2 91.1h-4.4l-1.7-4.5h-8l-1.6 4.5h-4.3L20 71.2h4.3l7.9 19.9zm-7.4-7.9L22 75.9l-2.7 7.4h5.5zm9.6 7.9V71.2h3.9l8.2 13.2V71.2h3.7V91h-4l-8.1-12.9V91h-3.7zm20 0V71.2h4V91h-4z" fill="#fff"/><linearGradient id="SVGID_2_" gradientUnits="userSpaceOnUse" x1="36.458" y1="60.1" x2="36.458" y2="18"><stop offset=".005" stop-color="#008281"/><stop offset=".343" stop-color="#006a69"/><stop offset="1" stop-color="#003836"/></linearGradient><path d="M51.4 18H21.5c-1.5 0-2.6 1.2-2.6 2.6 0 1.5 1.2 2.6 2.6 2.6h.1v2.6c0 5.5 3.3 10.4 8.5 12.4.3.1.5.4.5.7v.2c0 .3-.2.6-.5.7-5.1 2-8.5 6.9-8.5 12.4v2.6h-.1c-1.5 0-2.6 1.2-2.6 2.6 0 1.5 1.2 2.6 2.6 2.6h29.8c1.5 0 2.6-1.2 2.6-2.6 0-1.5-1.2-2.6-2.6-2.6h-.1v-2.6c0-5.5-3.3-10.4-8.5-12.4-.3-.1-.5-.4-.5-.7v-.2c0-.3.2-.6.5-.7 5.1-2 8.5-6.9 8.5-12.4v-2.6h.1c1.5 0 2.6-1.2 2.6-2.6.1-1.4-1.1-2.6-2.5-2.6zm-3.6 7.9c0 4-2.5 7.7-6.2 9.1-1.6.6-2.7 2.2-2.7 3.9v.2c0 1.7 1.1 3.3 2.7 3.9 3.8 1.5 6.2 5.1 6.2 9.1v2.6H25.1v-2.6c0-4 2.5-7.7 6.2-9.1 1.6-.6 2.7-2.2 2.7-3.9v-.2c0-1.7-1.1-3.3-2.7-3.9a9.74 9.74 0 0 1-6.2-9.1v-2.6h22.6v2.6zm-19.1 4.4c-.2-.4-.2-.8.2-1.1.1-.1.3-.1.4-.1h14.1c.4 0 .8.3.8.8 0 .2 0 .3-.1.4-.9 1.2-2 2.1-3.4 2.7-1.5.6-2.7 1.6-3.4 3-.3.5-.9.7-1.4.4-.2-.1-.3-.2-.4-.4-.7-1.4-1.9-2.5-3.4-3-1.3-.5-2.5-1.5-3.4-2.7zm10 15.9c.7.7 1.7 1.1 2.7 1.1 1.9 0 3.5 1.3 3.9 3.1v.2c.1.4.1.8.1 1.2 0 .5-.3.9-.8.9H28.2c-.5 0-.9-.4-.9-.9 0-.4.1-.9.2-1.3v-.2c.5-1.8 2.1-3 3.9-3 1 0 2-.4 2.7-1 .5-.5 1-1.1 1.3-1.7.2-.4.7-.6 1.1-.5.3.1.6.3.7.6.5.5.9 1 1.5 1.5z" fill="url(#SVGID_2_)"/><g class="st0"><linearGradient id="SVGID_3_" gradientUnits="userSpaceOnUse" x1="45.214" y1="74.229" x2="58.667" y2="87.682" gradientTransform="matrix(1 0 0 -1 0 102)"><stop offset="0" stop-color="#d6ede8"/><stop offset=".297" stop-color="#d3ebe6"/><stop offset=".44" stop-color="#c7e3df"/><stop offset=".551" stop-color="#b7d8d5"/><stop offset=".645" stop-color="#a0cbc9"/><stop offset=".729" stop-color="#84bab9"/><stop offset=".804" stop-color="#62a7a7"/><stop offset=".874" stop-color="#349394"/><stop offset=".938" stop-color="#007f7f"/><stop offset=".998" stop-color="#006b6a"/><stop offset="1" stop-color="#006b69"/></linearGradient><path d="M45.2 1l26.9 26.7H45.2V1z" fill="url(#SVGID_3_)"/><path d="M45.2 1l26.9 26.7H45.2V1z" fill-opacity="0" stroke="#006e6c" stroke-width="2" stroke-linejoin="bevel"/></g></svg>