<svg xmlns="http://www.w3.org/2000/svg" viewBox="0 0 72 100"><linearGradient id="a" gradientUnits="userSpaceOnUse" x1="36" y1="97" x2="36" y2="-1" gradientTransform="translate(0 2)"><stop offset="0" stop-color="#c8d4db"/><stop offset=".139" stop-color="#d8e1e6"/><stop offset=".359" stop-color="#ebf0f3"/><stop offset=".617" stop-color="#f9fafb"/><stop offset="1" stop-color="#fff"/></linearGradient><path d="M45 1l27 26.7V99H0V1h45z" fill="url(#a)"/><path d="M45 1l27 26.7V99H0V1h45z" stroke="#7191a1" stroke-width="2" fill="none"/><path d="M26.1 91.1h-4.4l-1.8-4.5h-8l-1.7 4.5H6l7.8-19.8h4.3l8 19.8zm-7.5-7.8l-2.8-7.4-2.7 7.4h5.5zm9.6 7.8V71.3h6.5c2.5 0 4.1.1 4.8.3 1.1.3 2.1.9 2.9 1.9.8 1 1.2 2.3 1.2 3.9 0 1.2-.2 2.2-.7 3.1-.4.8-1 1.5-1.7 2s-1.4.8-2.1.9c-1 .2-2.4.3-4.2.3h-2.6v7.5h-4.1v-.1zm4.1-16.5v5.6h2.2c1.6 0 2.7-.1 3.2-.3.5-.2 1-.5 1.3-1 .3-.4.5-1 .5-1.5 0-.7-.2-1.3-.6-1.8-.4-.5-1-.8-1.6-.9-.5-.1-1.5-.1-2.9-.1h-2.1zM47 91.1V71.3h4v8.8l8.2-8.8h5.4L57.1 79l8 12.1h-5.2l-5.5-9.3-3.4 3.3v6h-4z" fill="#4c6c7b"/><g opacity=".9"><linearGradient id="b" gradientUnits="userSpaceOnUse" x1="35.75" y1="64.1" x2="35.75" y2="14.75"><stop offset="0" stop-color="#adccdc"/><stop offset="1" stop-color="#4c6c7b"/></linearGradient><path d="M23.4 51.7c0 1.2.8 2.1 2.1 2.1h2.1V61c0 1.6 1.4 3.1 3.1 3.1 1.6 0 3.1-1.4 3.1-3.1v-7.2h4.1V61c0 1.6 1.4 3.1 3.1 3.1s3.1-1.4 3.1-3.1v-7.2H46c1.2 0 2.1-.8 2.1-2.1V31.1H23.4v20.6zm-5.1-20.6c-1.6 0-3.1 1.4-3.1 3.1v14.4c0 1.6 1.4 3.1 3.1 3.1 1.6 0 3.1-1.4 3.1-3.1V34.2c0-1.7-1.5-3.1-3.1-3.1zm34.9 0c-1.6 0-3.1 1.4-3.1 3.1v14.4c0 1.6 1.4 3.1 3.1 3.1s3.1-1.4 3.1-3.1V34.2c0-1.7-1.4-3.1-3.1-3.1zM42.9 19.2l2.7-2.7c.4-.4.4-1 0-1.4s-1-.4-1.4 0l-3.1 3.1c-1.4-1-3.3-1.4-5.3-1.4s-3.9.4-5.6 1.2l-2.9-3.1c-.4-.2-1.2-.2-1.6 0-.2.4-.2 1.2 0 1.6l2.7 2.7c-2.9 2.3-4.9 5.8-4.9 9.9h24.7c-.1-4.2-2.2-7.9-5.3-9.9zm-11.3 5.7h-2.1v-2.1h2.1v2.1zm10.3 0h-2.1v-2.1h2.1v2.1z" fill="url(#b)"/></g><linearGradient id="c" gradientUnits="userSpaceOnUse" x1="45.036" y1="25.814" x2="58.536" y2="12.313" gradientTransform="translate(0 2)"><stop offset="0" stop-color="#fff"/><stop offset=".35" stop-color="#fafbfb"/><stop offset=".532" stop-color="#edf1f4"/><stop offset=".675" stop-color="#dde5e9"/><stop offset=".799" stop-color="#c7d3da"/><stop offset=".908" stop-color="#adbdc7"/><stop offset="1" stop-color="#92a5b0"/></linearGradient><path d="M45 1l27 26.7H45V1z" fill="url(#c)"/><path d="M45 1l27 26.7H45V1z" stroke="#7191a1" stroke-width="2" stroke-linejoin="bevel" fill="none"/></svg>