<svg xmlns="http://www.w3.org/2000/svg" viewBox="0 0 72 100"><linearGradient id="a" gradientUnits="userSpaceOnUse" x1="36.108" y1="3.003" x2="36.108" y2="101.001" gradientTransform="matrix(1 0 0 -1 0 102)"><stop offset="0" stop-color="#c8d4db"/><stop offset=".139" stop-color="#d8e1e6"/><stop offset=".359" stop-color="#ebf0f3"/><stop offset=".617" stop-color="#f9fafb"/><stop offset="1" stop-color="#fff"/></linearGradient><path d="M45.1 1L72 27.7V99H.2V1h44.9z" fill="url(#a)"/><path d="M45.1 1L72 27.7V99H.2V1h44.9z" fill-opacity="0" stroke="#7191a1" stroke-width="2"/><path d="M28 91.1h-4.4l-1.7-4.5h-8l-1.6 4.5H8l7.8-19.8H20l8 19.8zm-7.4-7.9l-2.8-7.4-2.7 7.4h5.5zm9.5 7.9V71.2h6.5c2.5 0 4.1.1 4.8.3 1.1.3 2.1.9 2.9 1.9.8 1 1.2 2.3 1.2 3.9 0 1.2-.2 2.2-.7 3.1-.4.8-1 1.5-1.7 2s-1.4.8-2.1.9c-1 .2-2.4.3-4.2.3h-2.6v7.5h-4.1zm4.1-16.5v5.6h2.2c1.6 0 2.7-.1 3.2-.3.5-.2 1-.5 1.3-1 .3-.4.5-1 .5-1.5 0-.7-.2-1.3-.6-1.8-.4-.5-1-.8-1.6-.9-.5-.1-1.4-.1-2.9-.1h-2.1zm14.5 16.5V71.2h6.5c2.5 0 4.1.1 4.8.3 1.1.3 2.1.9 2.9 1.9.8 1 1.2 2.3 1.2 3.9 0 1.2-.2 2.2-.7 3.1-.4.8-1 1.5-1.7 2s-1.4.8-2.1.9c-1 .2-2.4.3-4.2.3h-2.6v7.5h-4.1zm4.1-16.5v5.6H55c1.6 0 2.7-.1 3.2-.3.5-.2 1-.5 1.3-1 .3-.4.5-1 .5-1.5 0-.7-.2-1.3-.6-1.8-.4-.5-1-.8-1.6-.9-.5-.1-1.4-.1-2.9-.1h-2.1z" fill="#4c6c7b"/><linearGradient id="b" gradientUnits="userSpaceOnUse" x1="34.962" y1="37.847" x2="34.962" y2="88.47" gradientTransform="matrix(1 0 0 -1 0 102)"><stop offset="0" stop-color="#adccdc"/><stop offset="1" stop-color="#4c6c7b"/></linearGradient><path d="M55.1 36.3c-.1-1-.3-1.9-.6-2.9l4.7-2.7-5-8.6-4.7 2.7c-1.3-1.4-2.9-2.6-4.6-3.6l1.4-5.1-9.7-2.7-1.4 5.1c-1 0-1.9 0-2.9.1s-1.9.3-2.9.6l-2.7-4.7-8.7 4.9 2.7 4.7c-1.4 1.4-2.6 2.9-3.6 4.6l-5.2-1.4L9.4 37l5.2 1.4c0 1 0 1.9.2 2.9.1 1 .3 1.9.6 2.9l-4.7 2.7 5 8.6 4.7-2.7c1.3 1.4 2.9 2.6 4.6 3.6l-1.4 5.1 9.7 2.7 1.4-5.1c1 0 1.9 0 2.9-.1s1.9-.3 2.9-.6l2.7 4.7 8.7-4.9-2.7-4.7c1.4-1.3 2.6-2.9 3.6-4.6l5.2 1.4 2.7-9.6-5.2-1.4c-.2-1-.2-2-.4-3zM36.1 47c-4.5.6-8.7-2.7-9.3-7.1-.6-4.5 2.7-8.6 7.2-9.2 4.5-.6 8.7 2.7 9.3 7.1.5 4.5-2.7 8.6-7.2 9.2z" fill="url(#b)"/><linearGradient id="c" gradientUnits="userSpaceOnUse" x1="45.122" y1="74.229" x2="58.575" y2="87.683" gradientTransform="matrix(1 0 0 -1 0 102)"><stop offset="0" stop-color="#fff"/><stop offset=".35" stop-color="#fafbfb"/><stop offset=".532" stop-color="#edf1f4"/><stop offset=".675" stop-color="#dde5e9"/><stop offset=".799" stop-color="#c7d3da"/><stop offset=".908" stop-color="#adbdc7"/><stop offset="1" stop-color="#92a5b0"/></linearGradient><path d="M45.1 1L72 27.7H45.1V1z" fill="url(#c)"/><path d="M45.1 1L72 27.7H45.1V1z" fill-opacity="0" stroke="#7191a1" stroke-width="2" stroke-linejoin="bevel"/></svg>