<svg xmlns="http://www.w3.org/2000/svg" viewBox="0 0 72 100"><linearGradient id="a" gradientUnits="userSpaceOnUse" x1="36" y1="97" x2="36" y2="-1" gradientTransform="translate(0 2)"><stop offset="0" stop-color="#c8d4db"/><stop offset=".139" stop-color="#d8e1e6"/><stop offset=".359" stop-color="#ebf0f3"/><stop offset=".617" stop-color="#f9fafb"/><stop offset="1" stop-color="#fff"/></linearGradient><path d="M45 1l27 26.7V99H0V1h45z" fill="url(#a)"/><path d="M45 1l27 26.7V99H0V1h45z" stroke="#7191a1" stroke-width="2" fill="none"/><g opacity=".85"><linearGradient id="b" gradientUnits="userSpaceOnUse" x1="36.294" y1="38.976" x2="36.294" y2="22.783"><stop offset="0" stop-color="#869ba6"/><stop offset=".379" stop-color="#8399a4"/><stop offset=".576" stop-color="#7b929e"/><stop offset=".731" stop-color="#6d8694"/><stop offset=".863" stop-color="#5a7785"/><stop offset=".981" stop-color="#426373"/><stop offset=".99" stop-color="#416271"/></linearGradient><linearGradient id="c" gradientUnits="userSpaceOnUse" x1="36.294" y1="39.476" x2="36.294" y2="22.283"><stop offset="0" stop-color="#869ba6"/><stop offset=".379" stop-color="#8399a4"/><stop offset=".576" stop-color="#7b929e"/><stop offset=".731" stop-color="#6d8694"/><stop offset=".863" stop-color="#5a7785"/><stop offset=".981" stop-color="#426373"/><stop offset=".99" stop-color="#416271"/></linearGradient><path d="M36.3 22.8c-3.8 0-6.9 3.6-6.9 8.1s3.1 8.1 6.9 8.1 6.9-3.6 6.9-8.1-3.1-8.1-6.9-8.1zm0 13.1c-2.1 0-3.9-2.2-3.9-5s1.7-5 3.9-5c2.1 0 3.9 2.2 3.9 5-.1 2.7-1.8 5-3.9 5z" fill="url(#b)" stroke="url(#c)" stroke-miterlimit="10"/><linearGradient id="d" gradientUnits="userSpaceOnUse" x1="20.75" y1="38.976" x2="20.75" y2="22.783"><stop offset="0" stop-color="#869ba6"/><stop offset=".379" stop-color="#8399a4"/><stop offset=".576" stop-color="#7b929e"/><stop offset=".731" stop-color="#6d8694"/><stop offset=".863" stop-color="#5a7785"/><stop offset=".981" stop-color="#426373"/><stop offset=".99" stop-color="#416271"/></linearGradient><linearGradient id="e" gradientUnits="userSpaceOnUse" x1="20.75" y1="39.476" x2="20.75" y2="22.283"><stop offset="0" stop-color="#869ba6"/><stop offset=".379" stop-color="#8399a4"/><stop offset=".576" stop-color="#7b929e"/><stop offset=".731" stop-color="#6d8694"/><stop offset=".863" stop-color="#5a7785"/><stop offset=".981" stop-color="#426373"/><stop offset=".99" stop-color="#416271"/></linearGradient><path d="M22.3 37.4V24.3c0-.9-.7-1.5-1.5-1.5-.9 0-1.5.7-1.5 1.5v13.1c0 .9.7 1.5 1.5 1.5.8.1 1.5-.6 1.5-1.5z" fill="url(#d)" stroke="url(#e)" stroke-miterlimit="10"/><linearGradient id="f" gradientUnits="userSpaceOnUse" x1="20.75" y1="62.649" x2="20.75" y2="46.457"><stop offset="0" stop-color="#869ba6"/><stop offset=".379" stop-color="#8399a4"/><stop offset=".576" stop-color="#7b929e"/><stop offset=".731" stop-color="#6d8694"/><stop offset=".863" stop-color="#5a7785"/><stop offset=".981" stop-color="#426373"/><stop offset=".99" stop-color="#416271"/></linearGradient><linearGradient id="g" gradientUnits="userSpaceOnUse" x1="20.75" y1="63.149" x2="20.75" y2="45.957"><stop offset="0" stop-color="#869ba6"/><stop offset=".379" stop-color="#8399a4"/><stop offset=".576" stop-color="#7b929e"/><stop offset=".731" stop-color="#6d8694"/><stop offset=".863" stop-color="#5a7785"/><stop offset=".981" stop-color="#426373"/><stop offset=".99" stop-color="#416271"/></linearGradient><path d="M20.7 46.5c-3.8 0-6.9 3.6-6.9 8.1s3.1 8.1 6.9 8.1 6.9-3.6 6.9-8.1c.1-4.5-3-8.1-6.9-8.1zm0 13.1c-2.1 0-3.9-2.2-3.9-5s1.7-5 3.9-5 3.9 2.2 3.9 5c0 2.7-1.7 5-3.9 5z" fill="url(#f)" stroke="url(#g)" stroke-miterlimit="10"/><linearGradient id="h" gradientUnits="userSpaceOnUse" x1="36.294" y1="62.649" x2="36.294" y2="46.457"><stop offset="0" stop-color="#869ba6"/><stop offset=".379" stop-color="#8399a4"/><stop offset=".576" stop-color="#7b929e"/><stop offset=".731" stop-color="#6d8694"/><stop offset=".863" stop-color="#5a7785"/><stop offset=".981" stop-color="#426373"/><stop offset=".99" stop-color="#416271"/></linearGradient><linearGradient id="i" gradientUnits="userSpaceOnUse" x1="36.294" y1="63.149" x2="36.294" y2="45.957"><stop offset="0" stop-color="#869ba6"/><stop offset=".379" stop-color="#8399a4"/><stop offset=".576" stop-color="#7b929e"/><stop offset=".731" stop-color="#6d8694"/><stop offset=".863" stop-color="#5a7785"/><stop offset=".981" stop-color="#426373"/><stop offset=".99" stop-color="#416271"/></linearGradient><path d="M37.8 61.1V48c0-.9-.7-1.5-1.5-1.5-.9 0-1.5.7-1.5 1.5v13.1c0 .9.7 1.5 1.5 1.5s1.5-.6 1.5-1.5z" fill="url(#h)" stroke="url(#i)" stroke-miterlimit="10"/><linearGradient id="j" gradientUnits="userSpaceOnUse" x1="52.251" y1="40.11" x2="52.251" y2="23.918"><stop offset="0" stop-color="#869ba6"/><stop offset=".379" stop-color="#8399a4"/><stop offset=".576" stop-color="#7b929e"/><stop offset=".731" stop-color="#6d8694"/><stop offset=".863" stop-color="#5a7785"/><stop offset=".981" stop-color="#426373"/><stop offset=".99" stop-color="#416271"/></linearGradient><linearGradient id="k" gradientUnits="userSpaceOnUse" x1="52.251" y1="40.61" x2="52.251" y2="23.418"><stop offset="0" stop-color="#869ba6"/><stop offset=".379" stop-color="#8399a4"/><stop offset=".576" stop-color="#7b929e"/><stop offset=".731" stop-color="#6d8694"/><stop offset=".863" stop-color="#5a7785"/><stop offset=".981" stop-color="#426373"/><stop offset=".99" stop-color="#416271"/></linearGradient><path d="M53.8 38.6V25.5c0-.9-.7-1.5-1.5-1.5-.9 0-1.5.7-1.5 1.5v13.1c0 .9.7 1.5 1.5 1.5s1.5-.7 1.5-1.5z" fill="url(#j)" stroke="url(#k)" stroke-miterlimit="10"/><linearGradient id="l" gradientUnits="userSpaceOnUse" x1="52.251" y1="63.783" x2="52.251" y2="47.591"><stop offset="0" stop-color="#869ba6"/><stop offset=".379" stop-color="#8399a4"/><stop offset=".576" stop-color="#7b929e"/><stop offset=".731" stop-color="#6d8694"/><stop offset=".863" stop-color="#5a7785"/><stop offset=".981" stop-color="#426373"/><stop offset=".99" stop-color="#416271"/></linearGradient><linearGradient id="m" gradientUnits="userSpaceOnUse" x1="52.251" y1="64.283" x2="52.251" y2="47.091"><stop offset="0" stop-color="#869ba6"/><stop offset=".379" stop-color="#8399a4"/><stop offset=".576" stop-color="#7b929e"/><stop offset=".731" stop-color="#6d8694"/><stop offset=".863" stop-color="#5a7785"/><stop offset=".981" stop-color="#426373"/><stop offset=".99" stop-color="#416271"/></linearGradient><path d="M52.3 47.6c-3.8 0-6.9 3.6-6.9 8.1s3.1 8.1 6.9 8.1 6.9-3.6 6.9-8.1-3.1-8.1-6.9-8.1zm0 13.1c-2.1 0-3.9-2.2-3.9-5s1.7-5 3.9-5 3.9 2.2 3.9 5c-.1 2.8-1.8 5-3.9 5z" fill="url(#l)" stroke="url(#m)" stroke-miterlimit="10"/></g><linearGradient id="n" gradientUnits="userSpaceOnUse" x1="45.037" y1="25.813" x2="58.537" y2="12.313" gradientTransform="translate(0 2)"><stop offset="0" stop-color="#fff"/><stop offset=".35" stop-color="#fafbfb"/><stop offset=".532" stop-color="#edf1f4"/><stop offset=".675" stop-color="#dde5e9"/><stop offset=".799" stop-color="#c7d3da"/><stop offset=".908" stop-color="#adbdc7"/><stop offset="1" stop-color="#92a5b0"/></linearGradient><path d="M45 1l27 26.7H45V1z" fill="url(#n)"/><path d="M45 1l27 26.7H45V1z" stroke="#7191a1" stroke-width="2" stroke-linejoin="bevel" fill="none"/><path d="M14 71.5h8c1.6 0 2.8.1 3.5.2s1.5.4 2.1.8 1.1 1 1.5 1.7.6 1.5.6 2.3c0 .9-.3 1.8-.8 2.6s-1.2 1.4-2.1 1.8c1.2.4 2.2 1 2.8 1.8s1 1.9 1 3c0 .9-.2 1.8-.6 2.7s-1 1.5-1.7 2.1c-.7.5-1.6.8-2.7 1-.7.1-2.3.1-4.9.1H14V71.5zm4.1 3.3v4.6h2.7c1.6 0 2.6 0 2.9-.1.7-.1 1.2-.3 1.6-.7s.6-.9.6-1.6c0-.6-.2-1.1-.5-1.5s-.9-.6-1.5-.7c-.4 0-1.6-.1-3.5-.1h-2.3zm0 8v5.4h3.7c1.5 0 2.4 0 2.8-.1.6-.1 1.1-.4 1.5-.8.4-.4.6-1 .6-1.7 0-.6-.1-1.1-.4-1.5-.3-.4-.7-.7-1.3-.9-.6-.2-1.7-.3-3.6-.3h-3.3zm16 8.7v-20h4v20h-4zm8 0v-20H46l8.2 13.4V71.5H58v20h-4.1l-8.1-13.1v13.1h-3.7z" fill="#4c6c7b"/></svg>