<svg xmlns="http://www.w3.org/2000/svg" viewBox="0 0 72 100"><linearGradient id="a" gradientUnits="userSpaceOnUse" x1="36" y1="97.8" x2="36" y2="-.2" gradientTransform="translate(0 1)"><stop offset="0" stop-color="#c8d4db"/><stop offset=".139" stop-color="#d8e1e6"/><stop offset=".359" stop-color="#ebf0f3"/><stop offset=".617" stop-color="#f9fafb"/><stop offset="1" stop-color="#fff"/></linearGradient><path d="M45 .8l27 26.7v71.3H0V.8h45z" fill="url(#a)"/><path d="M45 .8l27 26.7v71.3H0V.8h45z" stroke="#7191a1" stroke-width="2" fill="none"/><linearGradient id="b" gradientUnits="userSpaceOnUse" x1="45.075" y1="26.575" x2="58.575" y2="13.075" gradientTransform="translate(0 1)"><stop offset="0" stop-color="#fff"/><stop offset=".35" stop-color="#fafbfb"/><stop offset=".532" stop-color="#edf1f4"/><stop offset=".675" stop-color="#dde5e9"/><stop offset=".799" stop-color="#c7d3da"/><stop offset=".908" stop-color="#adbdc7"/><stop offset="1" stop-color="#92a5b0"/></linearGradient><path d="M45 .8l27 26.7H45V.8z" fill="url(#b)"/><path d="M45 .8l27 26.7H45V.8z" stroke="#7191a1" stroke-width="2" stroke-linejoin="bevel" fill="none"/><linearGradient id="c" gradientUnits="userSpaceOnUse" x1="35.722" y1="76.59" x2="35.722" y2="30.81"><stop offset="0" stop-color="#adccdc"/><stop offset="1" stop-color="#4c6c7b"/></linearGradient><path d="M26.4 64.3c2.5-1 5.1-1.7 7.9-1.8v-7.3h-9.6c.1 3.1.7 6.2 1.7 9.1zm-5.3-28.1c1.1 1.1 2.5 2.1 3.8 2.8 1.1-2.7 2.7-5.1 4.5-7.4-3.2 1-5.9 2.5-8.3 4.6zM45 43.1c-2.5 1-5.1 1.7-7.9 1.8v7.3h9.6c-.1-3.1-.6-6.2-1.7-9.1zm-10.7 1.8c-2.8-.2-5.4-.8-7.9-1.8-1 2.9-1.6 6.1-1.7 9.2h9.6v-7.4zm-6.8-4.5c2.2.9 4.5 1.4 6.8 1.6V30.8H34l-1.2 1.3c-2.3 2.5-4 5.4-5.3 8.3zm19.2 14.7h-9.6v7.3c2.8.2 5.4.8 7.9 1.8 1.1-2.8 1.6-5.9 1.7-9.1zM37.1 42c2.4-.2 4.7-.7 6.8-1.6-1.3-3-3.1-5.8-5.3-8.3l-1-1.2h-.5V42zm13.3-5.9C48 34 45.2 32.5 42 31.6c1.8 2.3 3.3 4.7 4.5 7.4 1.4-.7 2.7-1.6 3.9-2.9zM34.3 65.4c-2.4.2-4.7.7-6.8 1.6 1.3 2.9 3.1 5.8 5.2 8.3l1.1 1.2h.4l.1-11.1zM21.8 52.3c.1-3.6.9-7.1 2-10.4-1.7-.9-3.2-2.1-4.7-3.5l-.1-.1c-3.4 3.8-5.7 8.6-6 14.2l8.8-.2zm27.8 2.8c-.1 3.6-.9 7.1-2 10.4 1.7.9 3.2 2.1 4.7 3.5l.2.2c3.4-3.8 5.7-8.6 6-14.2 0 .1-8.9.1-8.9.1zm2.7-16.8c-1.4 1.3-3 2.6-4.7 3.5 1.2 3.3 1.9 6.8 2 10.4h8.9c-.3-5.4-2.6-10.4-6-14.2l-.2.3zm-2 32.9c-1.1-1.1-2.5-2.1-3.8-2.8-1.1 2.7-2.7 5.1-4.5 7.4 3.2-1 6.1-2.5 8.3-4.6zm-31.2-2.1c1.4-1.3 3-2.6 4.7-3.5-1.2-3.3-1.9-6.8-2-10.4H13c.4 5.4 2.6 10.4 6 14.2l.1-.3zm5.8-.8c-1.3.8-2.7 1.8-3.8 2.8 2.4 2.1 5.2 3.6 8.4 4.5-1.9-2.1-3.5-4.6-4.6-7.3zM44 67c-2.2-.9-4.5-1.4-6.8-1.6v11.2h.4l1.2-1.3c2.1-2.5 3.9-5.4 5.2-8.3z" opacity=".85" fill="url(#c)"/></svg>