<svg xmlns="http://www.w3.org/2000/svg" viewBox="0 0 72 100"><linearGradient id="a" gradientUnits="userSpaceOnUse" x1="36.2" y1="3.014" x2="36.2" y2="101.001" gradientTransform="matrix(1 0 0 -1 0 102)"><stop offset="0" stop-color="#c8d4db"/><stop offset=".139" stop-color="#d8e1e6"/><stop offset=".359" stop-color="#ebf0f3"/><stop offset=".617" stop-color="#f9fafb"/><stop offset="1" stop-color="#fff"/></linearGradient><path d="M45.2 1l27.1 26.7V99H.1V1h45.1z" fill="url(#a)"/><path d="M45.2 1l27.1 26.7V99H.1V1h45.1z" fill-opacity="0" stroke="#7191a1" stroke-width="2"/><path d="M16 84.3l3.1 1c-.5 1.7-1.3 3-2.4 3.8-1.1.8-2.5 1.3-4.2 1.3-2.1 0-3.9-.7-5.2-2.1-1.4-1.4-2-3.4-2-5.9 0-2.6.7-4.7 2.1-6.1 1.4-1.4 3.2-2.2 5.4-2.2 2 0 3.5.6 4.8 1.7.7.7 1.3 1.6 1.6 2.9l-3.2.8c-.2-.8-.6-1.5-1.2-1.9s-1.3-.7-2.2-.7c-1.2 0-2.1.4-2.9 1.3s-1.1 2.2-1.1 4.1c0 2 .4 3.4 1.1 4.3s1.7 1.3 2.8 1.3c.9 0 1.6-.3 2.2-.8s1.1-1.7 1.3-2.8zm5.9-10h5.9c1.3 0 2.3.1 3 .3.9.3 1.7.8 2.4 1.5s1.2 1.5 1.5 2.6c.3 1 .5 2.2.5 3.7 0 1.3-.2 2.4-.5 3.4-.4 1.1-1 2.1-1.7 2.8-.6.5-1.3 1-2.3 1.3-.7.2-1.7.3-2.9.3h-6.1V74.3zm3.2 2.7v10.4h2.4c.9 0 1.5 0 1.9-.2.5-.1 1-.3 1.3-.7.3-.3.6-.8.8-1.5.2-.7.3-1.7.3-2.9s-.1-2.2-.3-2.8-.5-1.2-.9-1.5-.9-.6-1.5-.7c-.3-.1-1.2-.1-2.5-.1h-1.5zM38 74.3h5.9c1.3 0 2.3.1 3 .3.9.3 1.7.8 2.4 1.5s1.2 1.5 1.5 2.6c.3 1 .5 2.2.5 3.7 0 1.3-.2 2.4-.5 3.4-.4 1.1-1 2.1-1.7 2.8-.6.5-1.3 1-2.3 1.3-.7.2-1.7.3-2.9.3H38V74.3zm3.2 2.7v10.4h2.4c.9 0 1.5 0 1.9-.2.5-.1 1-.3 1.3-.7s.6-.8.8-1.5c.2-.7.3-1.7.3-2.9s-.1-2.2-.3-2.8-.5-1.2-.9-1.5c-.4-.4-.9-.6-1.5-.7-.3-.1-1.2-.1-2.5-.1h-1.5zm27.3 13.1H65l-1.4-3.6h-6.4l-1.3 3.6h-3.4l6.2-15.7h3.4l6.4 15.7zm-5.9-6.3L60.4 78l-2.2 5.8h4.4z" fill="#4c6c7b"/><linearGradient id="b" gradientUnits="userSpaceOnUse" x1="31.747" y1="69.935" x2="31.747" y2="69.986" gradientTransform="matrix(1 0 0 -1 0 102)"><stop offset="0" stop-color="#adccdc"/><stop offset="1" stop-color="#4c6c7b"/></linearGradient><path d="M31.8 32c-.1.1-.1.1 0 0" fill="url(#b)"/><g opacity=".85"><linearGradient id="c" gradientUnits="userSpaceOnUse" x1="36.25" y1="65.367" x2="36.25" y2="20.819"><stop offset="0" stop-color="#adccdc"/><stop offset=".633" stop-color="#4c6c7b"/></linearGradient><path d="M43.1 58V41.3l9.8-1.6c-1.6-8.3-8.8-14.6-17.6-14.6-9.9 0-17.9 8-17.9 17.9 0 9.9 8 17.9 17.9 17.9 1 0 1.9-.1 2.8-.2.7-1.2 2-2.1 3.6-2.6.5 0 .9-.1 1.4-.1zm-4.5-31.3l-1.9 8.4h-1.9l-1.4-8.4c2-1 5.2 0 5.2 0zm-3.3 23c-3.7 0-6.6-3-6.6-6.6 0-3.7 3-6.6 6.6-6.6s6.6 3 6.6 6.6c0 3.7-2.9 6.6-6.6 6.6zm0-11.7c-2.8 0-5.1 2.3-5.1 5.1s2.3 5.1 5.1 5.1 5.1-2.3 5.1-5.1-2.3-5.1-5.1-5.1zm0 8.7c-2 0-3.6-1.6-3.6-3.6s1.6-3.6 3.6-3.6 3.6 1.6 3.6 3.6-1.6 3.6-3.6 3.6zm2.3 17.2c.1.5.3.9.6 1.3-.9.1-1.9.2-2.8.2C23 65.4 13 55.4 13 43.1s10-22.3 22.3-22.3c10.9 0 20 7.9 21.9 18.2l-2.2.4C53.3 30.1 45.1 23 35.3 23c-11.1 0-20.1 9-20.1 20.1 0 11.1 9 20.1 20.1 20.1.7 0 1.5 0 2.2-.1 0 .2 0 .5.1.8zm21.9-23.6v19.3c0 1.6-1.2 2.9-3.1 3.3-2 .5-4-.3-4.4-1.9-.4-1.6.9-3.2 3-3.8.9-.2 1.8-.2 2.6.1V45.7l-10.4 1.9v14.5c0 1.4-1.2 2.7-3 3.2-2 .5-4.1-.5-4.4-1.9-.4-1.6.9-3.2 3-3.7.9-.2 1.8-.2 2.5.1V42.6l14.2-2.3z" fill="url(#c)"/></g><linearGradient id="d" gradientUnits="userSpaceOnUse" x1="45.324" y1="74.184" x2="58.871" y2="87.731" gradientTransform="matrix(1 0 0 -1 0 102)"><stop offset="0" stop-color="#fff"/><stop offset=".35" stop-color="#fafbfb"/><stop offset=".532" stop-color="#edf1f4"/><stop offset=".675" stop-color="#dde5e9"/><stop offset=".799" stop-color="#c7d3da"/><stop offset=".908" stop-color="#adbdc7"/><stop offset="1" stop-color="#92a5b0"/></linearGradient><path d="M45.2 1l27.1 26.7H45.2V1z" fill="url(#d)"/><path d="M45.2 1l27.1 26.7H45.2V1z" fill-opacity="0" stroke="#7191a1" stroke-width="2" stroke-linejoin="bevel"/></svg>