<svg xmlns="http://www.w3.org/2000/svg" viewBox="0 0 72 100"><linearGradient id="a" gradientUnits="userSpaceOnUse" x1="36" y1="97" x2="36" y2="-1" gradientTransform="translate(0 2)"><stop offset="0" stop-color="#c8d4db"/><stop offset=".139" stop-color="#d8e1e6"/><stop offset=".359" stop-color="#ebf0f3"/><stop offset=".617" stop-color="#f9fafb"/><stop offset="1" stop-color="#fff"/></linearGradient><path d="M45 1l27 26.7V99H0V1h45z" fill="url(#a)"/><path d="M45 1l27 26.7V99H0V1h45z" stroke="#7191a1" stroke-width="2" fill="none"/><linearGradient id="b" gradientUnits="userSpaceOnUse" x1="31.254" y1="65.191" x2="42.722" y2="45.327"><stop offset="0" stop-color="#adccdc"/><stop offset="1" stop-color="#4c6c7b"/></linearGradient><path fill="url(#b)" d="M16.2 55.5L30.9 65v-7H56v-5H30.9v-6.9z"/><linearGradient id="c" gradientUnits="userSpaceOnUse" x1="29.677" y1="49.355" x2="41.146" y2="29.491"><stop offset="0" stop-color="#adccdc"/><stop offset="1" stop-color="#4c6c7b"/></linearGradient><path fill="url(#c)" d="M41.5 36.6H16.4v5.1h25.1v6.9l14.7-9.4-14.7-9.5z"/><linearGradient id="d" gradientUnits="userSpaceOnUse" x1="45.037" y1="25.813" x2="58.537" y2="12.313" gradientTransform="translate(0 2)"><stop offset="0" stop-color="#fff"/><stop offset=".35" stop-color="#fafbfb"/><stop offset=".532" stop-color="#edf1f4"/><stop offset=".675" stop-color="#dde5e9"/><stop offset=".799" stop-color="#c7d3da"/><stop offset=".908" stop-color="#adbdc7"/><stop offset="1" stop-color="#92a5b0"/></linearGradient><path d="M45 1l27 26.7H45V1z" fill="url(#d)"/><path d="M45 1l27 26.7H45V1z" stroke="#7191a1" stroke-width="2" stroke-linejoin="bevel" fill="none"/><path d="M26 84.5l3.9 1.2c-.6 2.2-1.6 3.8-3 4.9-1.4 1.1-3.2 1.6-5.3 1.6-2.7 0-4.8-.9-6.6-2.7-1.7-1.8-2.6-4.3-2.6-7.5 0-3.3.9-5.9 2.6-7.8s4-2.8 6.8-2.8c2.5 0 4.4.7 6 2.2.9.9 1.6 2.1 2.1 3.7l-4 1c-.2-1-.7-1.9-1.5-2.5s-1.7-.8-2.8-.8c-1.5 0-2.7.5-3.6 1.6-.9 1.1-1.4 2.8-1.4 5.2 0 2.5.5 4.3 1.4 5.4.9 1.1 2.1 1.6 3.6 1.6 1.1 0 2-.3 2.8-1 .7-.7 1.2-1.8 1.6-3.3zm16.7 0v-3.4h8.7v8c-.8.8-2.1 1.5-3.7 2.2-1.6.6-3.2.9-4.9.9-2.1 0-3.9-.4-5.5-1.3s-2.7-2.1-3.5-3.8c-.8-1.6-1.2-3.4-1.2-5.3 0-2.1.4-3.9 1.3-5.6s2.2-2.9 3.8-3.7c1.3-.7 2.9-1 4.8-1 2.5 0 4.4.5 5.8 1.6 1.4 1 2.3 2.5 2.7 4.3l-4 .8c-.3-1-.8-1.8-1.6-2.3s-1.6-.9-2.8-.9c-1.8 0-3.2.6-4.2 1.7s-1.6 2.8-1.6 5c0 2.4.5 4.2 1.6 5.4 1.1 1.2 2.4 1.8 4.2 1.8.8 0 1.7-.2 2.5-.5.9-.3 1.6-.7 2.2-1.2v-2.5h-4.6zM55 91.9v-20h4v20h-4z" fill="#4c6c7b"/></svg>