<svg xmlns="http://www.w3.org/2000/svg" viewBox="0 0 72 100"><linearGradient id="a" gradientUnits="userSpaceOnUse" x1="36" y1="97" x2="36" y2="-1" gradientTransform="translate(0 2)"><stop offset="0" stop-color="#c8d4db"/><stop offset=".139" stop-color="#d8e1e6"/><stop offset=".359" stop-color="#ebf0f3"/><stop offset=".617" stop-color="#f9fafb"/><stop offset="1" stop-color="#fff"/></linearGradient><path d="M45 1l27 26.7V99H0V1h45z" fill="url(#a)"/><path d="M45 1l27 26.7V99H0V1h45z" stroke="#7191a1" stroke-width="2" fill="none"/><linearGradient id="b" gradientUnits="userSpaceOnUse" x1="20.514" y1="61.793" x2="20.514" y2="33.603"><stop offset="0" stop-color="#adccdc"/><stop offset=".153" stop-color="#9ab9c9"/><stop offset=".529" stop-color="#708f9f"/><stop offset=".824" stop-color="#567685"/><stop offset="1" stop-color="#4c6c7b"/></linearGradient><linearGradient id="c" gradientUnits="userSpaceOnUse" x1="20.514" y1="63.979" x2="20.514" y2="31.418"><stop offset="0" stop-color="#adccdc"/><stop offset=".153" stop-color="#9ab9c9"/><stop offset=".529" stop-color="#708f9f"/><stop offset=".824" stop-color="#567685"/><stop offset="1" stop-color="#4c6c7b"/></linearGradient><path d="M13.5 45.7l14-12.1v6.1l-9.5 8v.1l9.5 7.9v6.1l-14-12.1v-4z" fill="url(#b)" stroke="url(#c)" stroke-width="2" stroke-miterlimit="10"/><linearGradient id="d" gradientUnits="userSpaceOnUse" x1="52.686" y1="62.052" x2="52.686" y2="33.69"><stop offset="0" stop-color="#adccdc"/><stop offset=".153" stop-color="#9ab9c9"/><stop offset=".529" stop-color="#708f9f"/><stop offset=".824" stop-color="#567685"/><stop offset="1" stop-color="#4c6c7b"/></linearGradient><linearGradient id="e" gradientUnits="userSpaceOnUse" x1="52.686" y1="64.238" x2="52.686" y2="31.504"><stop offset="0" stop-color="#adccdc"/><stop offset=".153" stop-color="#9ab9c9"/><stop offset=".529" stop-color="#708f9f"/><stop offset=".824" stop-color="#567685"/><stop offset="1" stop-color="#4c6c7b"/></linearGradient><path d="M45.7 55.8l9.5-7.9v-.1l-9.5-7.9v-6.1l14 12.1V50l-14 12.1v-6.3z" fill="url(#d)" stroke="url(#e)" stroke-width="2" stroke-miterlimit="10"/><linearGradient id="f" gradientUnits="userSpaceOnUse" x1="45.037" y1="25.813" x2="58.537" y2="12.313" gradientTransform="translate(0 2)"><stop offset="0" stop-color="#fff"/><stop offset=".35" stop-color="#fafbfb"/><stop offset=".532" stop-color="#edf1f4"/><stop offset=".675" stop-color="#dde5e9"/><stop offset=".799" stop-color="#c7d3da"/><stop offset=".908" stop-color="#adbdc7"/><stop offset="1" stop-color="#92a5b0"/></linearGradient><path d="M45 1l27 26.7H45V1z" fill="url(#f)"/><path d="M45 1l27 26.7H45V1z" stroke="#7191a1" stroke-width="2" stroke-linejoin="bevel" fill="none"/><path d="M11.2 86.8l2 .8c-.3 1.4-.8 2.5-1.5 3.1-.7.7-1.6 1-2.7 1-1.4 0-2.5-.6-3.3-1.8-.9-1.2-1.3-2.8-1.3-4.8 0-2.1.4-3.8 1.3-5 .9-1.2 2-1.8 3.5-1.8 1.2 0 2.3.5 3 1.4.5.6.8 1.3 1 2.4l-2 .6c-.1-.7-.4-1.2-.8-1.6s-.8-.6-1.4-.6c-.8 0-1.4.3-1.8 1-.5.7-.7 1.8-.7 3.3 0 1.6.2 2.8.7 3.5s1.1 1 1.8 1c.5 0 1-.2 1.4-.7s.6-.9.8-1.8zm3.3-1.6c0-1.3.2-2.4.5-3.3.2-.7.5-1.2.9-1.8s.8-.9 1.3-1.2c.6-.3 1.4-.5 2.2-.5 1.5 0 2.7.6 3.6 1.8.9 1.2 1.4 2.8 1.4 4.9 0 2.1-.4 3.7-1.3 4.9-.9 1.2-2.1 1.8-3.6 1.8s-2.7-.6-3.6-1.8c-1-1.2-1.4-2.8-1.4-4.8zm2.1-.1c0 1.5.3 2.6.8 3.3s1.2 1.1 2 1.1 1.5-.4 2-1.1c.5-.7.8-1.9.8-3.4s-.3-2.6-.8-3.3c-.5-.7-1.2-1.1-2-1.1s-1.5.4-2 1.1-.8 1.9-.8 3.4zm9.4-6.4h3.8c.8 0 1.5.1 1.9.2.6.2 1.1.6 1.5 1.2.4.6.7 1.3 1 2.1.2.8.3 1.8.3 3 0 1.1-.1 2-.3 2.7-.3.9-.6 1.7-1.1 2.3-.4.4-.8.8-1.4 1-.5.2-1.1.3-1.8.3H26V78.7zm2 2.1v8.5h1.5c.6 0 1 0 1.2-.1.3-.1.6-.3.8-.5s.4-.7.5-1.2c.1-.6.2-1.4.2-2.4s-.1-1.8-.2-2.3-.3-.9-.6-1.2c-.2-.3-.6-.5-1-.6-.3-.1-.8-.1-1.7-.1H28zm8.2 10.7V78.7h7.5v2.2h-5.5v2.9h5.1V86h-5.1v3.5H44v2.2h-7.8zm9.6 0V78.7h2.1v5.7l4.2-5.7h2.8l-3.8 5 4 7.9h-2.7l-2.8-6-1.7 2.2v3.9h-2.1zm10.1 0V78.7H58v12.9h-2.1zm6.3 0V80.8h-3v-2.2h8.1v2.2h-3v10.7h-2.1z" fill="#4c6c7b"/></svg>