<svg xmlns="http://www.w3.org/2000/svg" viewBox="0 0 72 100"><linearGradient id="a" gradientUnits="userSpaceOnUse" x1="36" y1="-27.8" x2="36" y2="70.2" gradientTransform="matrix(1 0 0 -1 0 71)"><stop offset="0" stop-color="#c8d4db"/><stop offset=".139" stop-color="#d8e1e6"/><stop offset=".359" stop-color="#ebf0f3"/><stop offset=".617" stop-color="#f9fafb"/><stop offset="1" stop-color="#fff"/></linearGradient><path d="M45 .8l27 26.7v71.3H0V.8h45z" fill="url(#a)"/><path d="M45 .8l27 26.7v71.3H0V.8h45z" fill-opacity="0" stroke="#7191a1" stroke-width="2"/><linearGradient id="b" gradientUnits="userSpaceOnUse" x1="45.075" y1="43.425" x2="58.575" y2="56.925" gradientTransform="matrix(1 0 0 -1 0 71)"><stop offset="0" stop-color="#fff"/><stop offset=".35" stop-color="#fafbfb"/><stop offset=".532" stop-color="#edf1f4"/><stop offset=".675" stop-color="#dde5e9"/><stop offset=".799" stop-color="#c7d3da"/><stop offset=".908" stop-color="#adbdc7"/><stop offset="1" stop-color="#92a5b0"/></linearGradient><path d="M45 .8l27 26.7H45V.8z" fill="url(#b)"/><path d="M45 .8l27 26.7H45V.8z" fill-opacity="0" stroke="#7191a1" stroke-width="2" stroke-linejoin="bevel"/><path d="M11.4 86.1l2 .6c-.3 1.1-.8 1.9-1.5 2.4s-1.6.8-2.7.8c-1.3 0-2.4-.5-3.3-1.4s-1.3-2.2-1.3-3.7c0-1.7.4-3 1.3-3.9s2-1.4 3.4-1.4c1.2 0 2.2.4 3 1.1.5.4.8 1 1 1.8l-2 .5c-.1-.5-.4-.9-.7-1.2s-.8-.5-1.4-.5c-.7 0-1.3.3-1.8.8s-.7 1.4-.7 2.6c0 1.3.2 2.2.7 2.7s1 .8 1.8.8c.5 0 1-.2 1.4-.5s.6-.8.8-1.5zm3.3-1.2c0-1 .2-1.9.5-2.6.2-.5.5-1 .9-1.4.4-.4.8-.7 1.3-.9.6-.3 1.3-.4 2.2-.4 1.5 0 2.7.5 3.5 1.4s1.3 2.2 1.3 3.8c0 1.6-.4 2.9-1.3 3.8S21 90 19.5 90s-2.7-.5-3.6-1.4c-.8-.9-1.2-2.2-1.2-3.7zm2-.1c0 1.1.3 2 .8 2.6s1.2.9 2 .9 1.5-.3 2-.9.8-1.5.8-2.6-.3-2-.8-2.6-1.2-.8-2-.8-1.5.3-2 .9c-.5.5-.8 1.3-.8 2.5zm9.2 5v-10h3l1.8 6.8 1.8-6.8h3v10h-1.9v-7.9l-2 7.9h-1.9l-2-7.9v7.9h-1.8zm11.7 0v-10h3.2c1.2 0 2 0 2.4.2.6.2 1.1.5 1.4 1 .4.5.6 1.2.6 2 0 .6-.1 1.1-.3 1.6-.2.4-.5.7-.9 1-.3.2-.7.4-1 .5-.4-.1-1.1-.1-2-.1h-1.3v3.8h-2.1zm2-8.3v2.8h1.1c.8 0 1.3-.1 1.6-.2s.5-.3.6-.5c.2-.2.2-.5.2-.8 0-.4-.1-.7-.3-.9-.2-.2-.5-.4-.8-.4-.2 0-.7-.1-1.5-.1l-.9.1zm7.3 8.3v-10h2v10h-2zm4 0v-9.9h2v8.3h5v1.7l-7-.1zm8.5 0v-10h7.4v1.7h-5.4v2.2h5v1.7h-5v2.7H67v1.7h-7.6z" fill="#4c6c7b"/><linearGradient id="c" gradientUnits="userSpaceOnUse" x1="36" y1="69.126" x2="36" y2="40.965"><stop offset="0" stop-color="#adccdc"/><stop offset="1" stop-color="#4c6c7b"/></linearGradient><path d="M52.5 64.4V41h4.7v28.2H14.9V41h4.7v23.4h32.9z" fill="url(#c)"/><linearGradient id="d" gradientUnits="userSpaceOnUse" x1="35.915" y1="40.627" x2="35.915" y2="29.126"><stop offset="0" stop-color="#adccdc"/><stop offset="1" stop-color="#4c6c7b"/></linearGradient><path d="M24.4 29.1h23L35.9 40.6 24.4 29.1z" fill="url(#d)"/><linearGradient id="e" gradientUnits="userSpaceOnUse" x1="31.307" y1="50.268" x2="31.307" y2="45.617"><stop offset="0" stop-color="#adccdc"/><stop offset="1" stop-color="#4c6c7b"/></linearGradient><path d="M29 50.3v-4.7h4.7v4.7H29z" fill="url(#e)"/><linearGradient id="f" gradientUnits="userSpaceOnUse" x1="40.693" y1="50.268" x2="40.693" y2="45.617"><stop offset="0" stop-color="#adccdc"/><stop offset="1" stop-color="#4c6c7b"/></linearGradient><path d="M43 50.3h-4.7v-4.7H43v4.7z" fill="url(#f)"/><linearGradient id="g" gradientUnits="userSpaceOnUse" x1="26.571" y1="59.655" x2="26.571" y2="55.004"><stop offset="0" stop-color="#adccdc"/><stop offset="1" stop-color="#4c6c7b"/></linearGradient><path d="M24.2 55h4.7v4.7h-4.7V55z" fill="url(#g)"/><linearGradient id="h" gradientUnits="userSpaceOnUse" x1="45.429" y1="59.655" x2="45.429" y2="55.004"><stop offset="0" stop-color="#adccdc"/><stop offset="1" stop-color="#4c6c7b"/></linearGradient><path d="M43.1 59.7V55h4.7v4.7h-4.7z" fill="url(#h)"/><linearGradient id="i" gradientUnits="userSpaceOnUse" x1="35.958" y1="59.655" x2="35.958" y2="55.004"><stop offset="0" stop-color="#adccdc"/><stop offset="1" stop-color="#4c6c7b"/></linearGradient><path d="M38.3 55v4.7h-4.7V55h4.7z" fill="url(#i)"/></svg>