<svg xmlns="http://www.w3.org/2000/svg" viewBox="0 0 72 100"><linearGradient id="a" gradientUnits="userSpaceOnUse" x1="36" y1="97" x2="36" y2="-1" gradientTransform="translate(0 2)"><stop offset="0" stop-color="#c8d4db"/><stop offset=".139" stop-color="#d8e1e6"/><stop offset=".359" stop-color="#ebf0f3"/><stop offset=".617" stop-color="#f9fafb"/><stop offset="1" stop-color="#fff"/></linearGradient><path d="M45 1l27 26.7V99H0V1h45z" fill="url(#a)"/><path d="M45 1l27 26.7V99H0V1h45z" stroke="#7191a1" stroke-width="2" fill="none"/><g opacity=".95"><linearGradient id="b" gradientUnits="userSpaceOnUse" x1="36.2" y1="64.717" x2="36.2" y2="23.717"><stop offset="0" stop-color="#adccdc"/><stop offset="1" stop-color="#4c6c7b"/></linearGradient><linearGradient id="c" gradientUnits="userSpaceOnUse" x1="36.2" y1="65.217" x2="36.2" y2="23.217"><stop offset="0" stop-color="#adccdc"/><stop offset="1" stop-color="#4c6c7b"/></linearGradient><path d="M42 38.4c0-2.5-1.5-4.5-3.7-5.4v-7.3c0-1.2-.9-2.1-2.1-2.1s-2.1.9-2.1 2.1V33c-2.2.8-3.7 2.9-3.7 5.4 0 2.5 1.5 4.6 3.7 5.4 0 .1-.1.3-.1.4v18.4c0 1.2.9 2.1 2.1 2.1s2.1-.9 2.1-2.1V44.2c0-.2 0-.3-.1-.4 2.4-.8 3.9-2.9 3.9-5.4zM36.2 40c-.9 0-1.6-.7-1.6-1.6s.7-1.6 1.6-1.6 1.6.7 1.6 1.6-.7 1.6-1.6 1.6z" fill="url(#b)" stroke="url(#c)" stroke-miterlimit="10"/><linearGradient id="d" gradientUnits="userSpaceOnUse" x1="50.918" y1="64.717" x2="50.918" y2="23.717"><stop offset="0" stop-color="#adccdc"/><stop offset="1" stop-color="#4c6c7b"/></linearGradient><linearGradient id="e" gradientUnits="userSpaceOnUse" x1="50.918" y1="65.217" x2="50.918" y2="23.217"><stop offset="0" stop-color="#adccdc"/><stop offset="1" stop-color="#4c6c7b"/></linearGradient><path d="M53 25.8c0-1.2-.9-2.1-2.1-2.1-1.2 0-2.1.9-2.1 2.1V43c-2.2.8-3.7 2.9-3.7 5.4 0 2.5 1.5 4.6 3.7 5.4 0 .1-.1.3-.1.4v8.4c0 1.2.9 2.1 2.1 2.1 1.2 0 2.1-.9 2.1-2.1v-8.4c0-.2 0-.3-.1-.4 2.2-.8 3.7-2.9 3.7-5.4 0-2.5-1.5-4.5-3.7-5.4V25.8zM50.9 50c-.9 0-1.6-.7-1.6-1.6 0-.9.7-1.6 1.6-1.6s1.6.7 1.6 1.6c0 .9-.7 1.6-1.6 1.6z" fill="url(#d)" stroke="url(#e)" stroke-miterlimit="10"/><linearGradient id="f" gradientUnits="userSpaceOnUse" x1="21.482" y1="64.717" x2="21.482" y2="23.717"><stop offset="0" stop-color="#adccdc"/><stop offset="1" stop-color="#4c6c7b"/></linearGradient><linearGradient id="g" gradientUnits="userSpaceOnUse" x1="21.482" y1="65.217" x2="21.482" y2="23.217"><stop offset="0" stop-color="#adccdc"/><stop offset="1" stop-color="#4c6c7b"/></linearGradient><path d="M19.4 62.6c0 1.2.9 2.1 2.1 2.1 1.2 0 2.1-.9 2.1-2.1v-8.4c0-.2 0-.3-.1-.4 2.2-.8 3.7-2.9 3.7-5.4 0-2.5-1.5-4.5-3.7-5.4V25.8c0-1.2-.9-2.1-2.1-2.1-1.2 0-2.1.9-2.1 2.1V43c-2.2.8-3.7 2.9-3.7 5.4 0 2.5 1.5 4.6 3.7 5.4 0 .1-.1.3-.1.4v8.4zm2.1-15.8c.9 0 1.6.7 1.6 1.6 0 .9-.7 1.6-1.6 1.6-.9 0-1.6-.7-1.6-1.6 0-.9.7-1.6 1.6-1.6z" fill="url(#f)" stroke="url(#g)" stroke-miterlimit="10"/></g><linearGradient id="h" gradientUnits="userSpaceOnUse" x1="45.037" y1="25.813" x2="58.537" y2="12.313" gradientTransform="translate(0 2)"><stop offset="0" stop-color="#fff"/><stop offset=".35" stop-color="#fafbfb"/><stop offset=".532" stop-color="#edf1f4"/><stop offset=".675" stop-color="#dde5e9"/><stop offset=".799" stop-color="#c7d3da"/><stop offset=".908" stop-color="#adbdc7"/><stop offset="1" stop-color="#92a5b0"/></linearGradient><path d="M45 1l27 26.7H45V1z" fill="url(#h)"/><path d="M45 1l27 26.7H45V1z" stroke="#7191a1" stroke-width="2" stroke-linejoin="bevel" fill="none"/><path d="M16.5 86.1l3.1 1c-.5 1.7-1.3 3-2.4 3.8-1.1.8-2.5 1.3-4.2 1.3-2.1 0-3.8-.7-5.2-2.1-1.3-1.4-2-3.4-2-5.9 0-2.6.7-4.7 2-6.1 1.4-1.4 3.1-2.2 5.3-2.2 1.9 0 3.5.6 4.7 1.7.7.7 1.3 1.6 1.6 2.9l-3.1.8c-.2-.8-.6-1.5-1.2-1.9s-1.3-.7-2.2-.7c-1.2 0-2.1.4-2.8 1.3-.7.8-1.1 2.2-1.1 4.1 0 2 .4 3.4 1.1 4.3.7.8 1.6 1.3 2.8 1.3.8 0 1.6-.3 2.2-.8.7-.8 1.1-1.7 1.4-2.8zm5.2-2c0-1.6.2-3 .7-4 .4-.8.8-1.5 1.5-2.2.6-.6 1.3-1.1 2-1.4 1-.4 2.1-.6 3.4-.6 2.3 0 4.2.7 5.6 2.2 1.4 1.4 2.1 3.4 2.1 6 0 2.5-.7 4.5-2.1 6-1.4 1.4-3.2 2.2-5.5 2.2s-4.2-.7-5.6-2.1c-1.4-1.6-2.1-3.6-2.1-6.1zM25 84c0 1.8.4 3.1 1.2 4.1.8.9 1.9 1.4 3.1 1.4s2.3-.5 3.1-1.4c.8-.9 1.2-2.3 1.2-4.1 0-1.8-.4-3.2-1.2-4-.8-.9-1.8-1.3-3.2-1.3s-2.2.3-3 1.2c-.8.9-1.2 2.3-1.2 4.1zm14.5 7.9V76.1h3.1L49 86.7V76.1h3v15.7h-3.2l-6.3-10.3v10.3h-3zm15.8 0V76.1h10.8v2.7h-7.6v3.7h6.6v2.7h-6.6v6.7h-3.2z" fill="#4c6c7b"/></svg>