<svg xmlns="http://www.w3.org/2000/svg" viewBox="0 0 72 100"><linearGradient id="a" gradientUnits="userSpaceOnUse" x1="36" y1="97" x2="36" y2="-1" gradientTransform="translate(0 2)"><stop offset="0" stop-color="#c8d4db"/><stop offset=".139" stop-color="#d8e1e6"/><stop offset=".359" stop-color="#ebf0f3"/><stop offset=".617" stop-color="#f9fafb"/><stop offset="1" stop-color="#fff"/></linearGradient><path d="M45 1l27 26.7V99H0V1h45z" fill="url(#a)"/><path d="M45 1l27 26.7V99H0V1h45z" stroke="#7191a1" stroke-width="2" fill="none"/><linearGradient id="b" gradientUnits="userSpaceOnUse" x1="36.632" y1="66.231" x2="36.632" y2="24.231"><stop offset="0" stop-color="#adccdc"/><stop offset="1" stop-color="#4c6c7b"/></linearGradient><linearGradient id="c" gradientUnits="userSpaceOnUse" x1="36.632" y1="66.606" x2="36.632" y2="23.856"><stop offset="0" stop-color="#adccdc"/><stop offset="1" stop-color="#4c6c7b"/></linearGradient><path d="M30.2 40.4h12.9v3.2H30.2v-3.2zm0 6.4h12.9V50H30.2v-3.2zm0 6.5h12.9v3.2H30.2v-3.2zm22.6-29.1H26.9c-3.6 0-6.5 2.9-6.5 6.5v29.1H14c0 3.6 2.9 6.5 6.5 6.5h25.8c3.6 0 6.5-2.9 6.5-6.5V33.9h6.5v-3.2c-.1-3.6-2.9-6.5-6.5-6.5zm-3.2 35c0 2.1-1.7 3.8-3.8 3.8H22.1c1.6-1.1 1.6-3.2 1.6-3.2V30.7c0-1.8 1.4-3.2 3.2-3.2 1.8 0 3.2 1.4 3.2 3.2v3.2h19.4v25.3zM33.4 30.7v-3.2h19.4c2.9 0 3.2 1.8 3.2 3.2H33.4z" fill="url(#b)" stroke="url(#c)" stroke-width=".75" stroke-miterlimit="10"/><linearGradient id="d" gradientUnits="userSpaceOnUse" x1="45.037" y1="25.813" x2="58.537" y2="12.313" gradientTransform="translate(0 2)"><stop offset="0" stop-color="#fff"/><stop offset=".35" stop-color="#fafbfb"/><stop offset=".532" stop-color="#edf1f4"/><stop offset=".675" stop-color="#dde5e9"/><stop offset=".799" stop-color="#c7d3da"/><stop offset=".908" stop-color="#adbdc7"/><stop offset="1" stop-color="#92a5b0"/></linearGradient><path d="M45 1l27 26.7H45V1z" fill="url(#d)"/><path d="M45 1l27 26.7H45V1z" stroke="#7191a1" stroke-width="2" stroke-linejoin="bevel" fill="none"/><path d="M23.4 85.6l3.4 1.1c-.5 1.9-1.4 3.3-2.6 4.2s-2.7 1.4-4.6 1.4c-2.3 0-4.2-.8-5.6-2.3s-2.2-3.7-2.2-6.4c0-2.9.7-5.1 2.2-6.7s3.4-2.4 5.8-2.4c2.1 0 3.8.6 5.1 1.9.8.7 1.4 1.8 1.8 3.2l-3.4.8c-.2-.9-.6-1.6-1.3-2.1s-1.4-.8-2.3-.8c-1.3 0-2.3.5-3.1 1.4s-1.2 2.4-1.2 4.4c0 2.2.4 3.7 1.2 4.6s1.8 1.4 3 1.4c.9 0 1.7-.3 2.4-.9s1.1-1.6 1.4-2.8zm5.5.7l3.4-.3c.2 1.1.6 2 1.2 2.5s1.5.8 2.5.8c1.1 0 2-.2 2.5-.7s.8-1 .8-1.7c0-.4-.1-.8-.4-1s-.7-.5-1.2-.7c-.4-.1-1.3-.4-2.8-.8-1.9-.5-3.2-1-3.9-1.7-1.1-.9-1.6-2.1-1.6-3.5 0-.9.2-1.7.7-2.5s1.2-1.3 2.1-1.7 2.1-.6 3.4-.6c2.2 0 3.8.5 4.9 1.4s1.7 2.2 1.7 3.8l-3.5.2c-.1-.9-.5-1.5-1-1.9s-1.2-.6-2.2-.6c-1 0-1.8.2-2.4.6-.4.3-.6.6-.6 1.1 0 .4.2.8.5 1 .4.4 1.5.8 3.2 1.1s2.9.8 3.7 1.2 1.4 1 1.9 1.7.7 1.7.7 2.7c0 1-.3 1.9-.8 2.8s-1.3 1.5-2.3 1.9-2.2.6-3.7.6c-2.2 0-3.8-.5-5-1.5s-1.6-2.3-1.8-4.2zm16.9 5.6V74.7h3.5v6.8H56v-6.8h3.5v17.2H56v-7.5h-6.8v7.5h-3.4z" fill="#4c6c7b"/></svg>