<svg xmlns="http://www.w3.org/2000/svg" viewBox="0 0 72 100"><linearGradient id="a" gradientUnits="userSpaceOnUse" x1="36.108" y1="3.003" x2="36.108" y2="101.001" gradientTransform="matrix(1 0 0 -1 0 102)"><stop offset="0" stop-color="#c8d4db"/><stop offset=".139" stop-color="#d8e1e6"/><stop offset=".359" stop-color="#ebf0f3"/><stop offset=".617" stop-color="#f9fafb"/><stop offset="1" stop-color="#fff"/></linearGradient><path d="M45.1 1L72 27.7V99H.2V1h44.9z" fill="url(#a)"/><path d="M45.1 1L72 27.7V99H.2V1h44.9z" fill-opacity="0" stroke="#7191a1" stroke-width="2"/><path d="M20.6 83.8l3.9 1.2c-.6 2.2-1.6 3.8-3 4.8-1.4 1.1-3.2 1.6-5.3 1.6-2.7 0-4.8-.9-6.5-2.7-1.7-1.8-2.6-4.3-2.6-7.4 0-3.3.9-5.9 2.6-7.7s4-2.7 6.8-2.7c2.4 0 4.4.7 6 2.2.9.8 1.6 2.1 2 3.7l-4 .9c-.2-1-.7-1.8-1.5-2.4-.8-.6-1.7-.9-2.7-.9-1.5 0-2.7.5-3.6 1.6s-1.4 2.8-1.4 5.1c0 2.5.5 4.3 1.4 5.4s2.1 1.6 3.5 1.6c1.1 0 2-.3 2.8-1 .7-.8 1.2-1.9 1.6-3.3zm7.3-12.6h4V82c0 1.7 0 2.8.2 3.3.2.8.6 1.5 1.2 2 .7.4 1.6.7 2.7.7s2-.2 2.6-.7c.6-.5.9-1 1-1.7.1-.7.2-1.8.2-3.4v-11h4v10.4c0 2.4-.1 4.1-.3 5s-.6 1.8-1.2 2.5-1.3 1.3-2.3 1.7c-1 .4-2.3.6-3.8.6-1.9 0-3.4-.2-4.3-.7s-1.8-1-2.3-1.7-.9-1.4-1.1-2.2c-.3-1.1-.4-2.8-.4-5V71.2zm20.2 19.9V71.2h8.5c2.1 0 3.7.2 4.7.5 1 .4 1.7 1 2.3 1.9.6.9.9 2 .9 3.1 0 1.5-.4 2.7-1.3 3.7s-2.2 1.6-4 1.8c.9.5 1.6 1.1 2.2 1.7.6.6 1.3 1.7 2.3 3.2l2.4 3.9h-4.8l-2.9-4.3c-1-1.5-1.7-2.5-2.1-2.9-.4-.4-.8-.7-1.2-.8-.4-.1-1.1-.2-2-.2h-.8v8.3h-4.2zm4.1-11.5h3c1.9 0 3.1-.1 3.6-.2.5-.2.9-.4 1.1-.8.3-.4.4-.9.4-1.5 0-.7-.2-1.2-.5-1.6-.4-.4-.9-.7-1.5-.8-.3 0-1.3-.1-2.9-.1h-3.1v5z" fill="#4c6c7b"/><linearGradient id="b" gradientUnits="userSpaceOnUse" x1="45.122" y1="74.229" x2="58.575" y2="87.683" gradientTransform="matrix(1 0 0 -1 0 102)"><stop offset="0" stop-color="#fff"/><stop offset=".35" stop-color="#fafbfb"/><stop offset=".532" stop-color="#edf1f4"/><stop offset=".675" stop-color="#dde5e9"/><stop offset=".799" stop-color="#c7d3da"/><stop offset=".908" stop-color="#adbdc7"/><stop offset="1" stop-color="#92a5b0"/></linearGradient><path d="M45.1 1L72 27.7H45.1V1z" fill="url(#b)"/><path d="M45.1 1L72 27.7H45.1V1z" fill-opacity="0" stroke="#7191a1" stroke-width="2" stroke-linejoin="bevel"/><g transform="matrix(-1.52199 1.52234 -1.40668 -1.40636 178.231 24.105)" opacity=".95"><linearGradient id="c" gradientUnits="userSpaceOnUse" x1="47.337" y1="50.605" x2="47.337" y2="13.604"><stop offset="0" stop-color="#7291a1"/><stop offset="1" stop-color="#cad5db"/></linearGradient><path d="M52.4 34l4.3.5-.6 6.6 3.9-.4-7.6 15.5L48 39.3l3.8 1.3.6-6.6z" fill="url(#c)"/></g></svg>