<svg xmlns="http://www.w3.org/2000/svg" viewBox="0 0 72 100"><linearGradient id="a" gradientUnits="userSpaceOnUse" x1="36" y1="97" x2="36" y2="-1" gradientTransform="translate(0 2)"><stop offset="0" stop-color="#c8d4db"/><stop offset=".139" stop-color="#d8e1e6"/><stop offset=".359" stop-color="#ebf0f3"/><stop offset=".617" stop-color="#f9fafb"/><stop offset="1" stop-color="#fff"/></linearGradient><path d="M45 1l27 26.7V99H0V1h45z" fill="url(#a)"/><path d="M45 1l27 26.7V99H0V1h45z" fill-opacity="0" stroke="#7191a1" stroke-width="2"/><g opacity=".85"><linearGradient id="b" gradientUnits="userSpaceOnUse" x1="35.794" y1="38.976" x2="35.794" y2="22.783"><stop offset="0" stop-color="#869ba6"/><stop offset=".379" stop-color="#8399a4"/><stop offset=".576" stop-color="#7b929e"/><stop offset=".731" stop-color="#6d8694"/><stop offset=".863" stop-color="#5a7785"/><stop offset=".981" stop-color="#426373"/><stop offset=".99" stop-color="#416271"/></linearGradient><linearGradient id="c" gradientUnits="userSpaceOnUse" x1="35.794" y1="39.476" x2="35.794" y2="22.283"><stop offset="0" stop-color="#869ba6"/><stop offset=".379" stop-color="#8399a4"/><stop offset=".576" stop-color="#7b929e"/><stop offset=".731" stop-color="#6d8694"/><stop offset=".863" stop-color="#5a7785"/><stop offset=".981" stop-color="#426373"/><stop offset=".99" stop-color="#416271"/></linearGradient><path d="M35.8 22.8c-3.8 0-6.9 3.6-6.9 8.1S32 39 35.8 39s6.9-3.6 6.9-8.1-3.1-8.1-6.9-8.1zm0 13.1c-2.1 0-3.9-2.2-3.9-5s1.7-5 3.9-5c2.1 0 3.9 2.2 3.9 5-.1 2.7-1.8 5-3.9 5z" fill="url(#b)" stroke="url(#c)" stroke-miterlimit="10"/><linearGradient id="d" gradientUnits="userSpaceOnUse" x1="20.25" y1="38.976" x2="20.25" y2="22.783"><stop offset="0" stop-color="#869ba6"/><stop offset=".379" stop-color="#8399a4"/><stop offset=".576" stop-color="#7b929e"/><stop offset=".731" stop-color="#6d8694"/><stop offset=".863" stop-color="#5a7785"/><stop offset=".981" stop-color="#426373"/><stop offset=".99" stop-color="#416271"/></linearGradient><linearGradient id="e" gradientUnits="userSpaceOnUse" x1="20.25" y1="39.476" x2="20.25" y2="22.283"><stop offset="0" stop-color="#869ba6"/><stop offset=".379" stop-color="#8399a4"/><stop offset=".576" stop-color="#7b929e"/><stop offset=".731" stop-color="#6d8694"/><stop offset=".863" stop-color="#5a7785"/><stop offset=".981" stop-color="#426373"/><stop offset=".99" stop-color="#416271"/></linearGradient><path d="M21.8 37.4V24.3c0-.9-.7-1.5-1.5-1.5-.9 0-1.5.7-1.5 1.5v13.1c0 .9.7 1.5 1.5 1.5.8.1 1.5-.6 1.5-1.5z" fill="url(#d)" stroke="url(#e)" stroke-miterlimit="10"/><linearGradient id="f" gradientUnits="userSpaceOnUse" x1="20.25" y1="62.649" x2="20.25" y2="46.457"><stop offset="0" stop-color="#869ba6"/><stop offset=".379" stop-color="#8399a4"/><stop offset=".576" stop-color="#7b929e"/><stop offset=".731" stop-color="#6d8694"/><stop offset=".863" stop-color="#5a7785"/><stop offset=".981" stop-color="#426373"/><stop offset=".99" stop-color="#416271"/></linearGradient><linearGradient id="g" gradientUnits="userSpaceOnUse" x1="20.25" y1="63.149" x2="20.25" y2="45.957"><stop offset="0" stop-color="#869ba6"/><stop offset=".379" stop-color="#8399a4"/><stop offset=".576" stop-color="#7b929e"/><stop offset=".731" stop-color="#6d8694"/><stop offset=".863" stop-color="#5a7785"/><stop offset=".981" stop-color="#426373"/><stop offset=".99" stop-color="#416271"/></linearGradient><path d="M20.2 46.5c-3.8 0-6.9 3.6-6.9 8.1s3.1 8.1 6.9 8.1 6.9-3.6 6.9-8.1c.1-4.5-3-8.1-6.9-8.1zm0 13.1c-2.1 0-3.9-2.2-3.9-5s1.7-5 3.9-5 3.9 2.2 3.9 5c0 2.7-1.7 5-3.9 5z" fill="url(#f)" stroke="url(#g)" stroke-miterlimit="10"/><linearGradient id="h" gradientUnits="userSpaceOnUse" x1="35.794" y1="62.649" x2="35.794" y2="46.457"><stop offset="0" stop-color="#869ba6"/><stop offset=".379" stop-color="#8399a4"/><stop offset=".576" stop-color="#7b929e"/><stop offset=".731" stop-color="#6d8694"/><stop offset=".863" stop-color="#5a7785"/><stop offset=".981" stop-color="#426373"/><stop offset=".99" stop-color="#416271"/></linearGradient><linearGradient id="i" gradientUnits="userSpaceOnUse" x1="35.794" y1="63.149" x2="35.794" y2="45.957"><stop offset="0" stop-color="#869ba6"/><stop offset=".379" stop-color="#8399a4"/><stop offset=".576" stop-color="#7b929e"/><stop offset=".731" stop-color="#6d8694"/><stop offset=".863" stop-color="#5a7785"/><stop offset=".981" stop-color="#426373"/><stop offset=".99" stop-color="#416271"/></linearGradient><path d="M37.3 61.1V48c0-.9-.7-1.5-1.5-1.5-.9 0-1.5.7-1.5 1.5v13.1c0 .9.7 1.5 1.5 1.5s1.5-.6 1.5-1.5z" fill="url(#h)" stroke="url(#i)" stroke-miterlimit="10"/><linearGradient id="j" gradientUnits="userSpaceOnUse" x1="51.751" y1="40.11" x2="51.751" y2="23.918"><stop offset="0" stop-color="#869ba6"/><stop offset=".379" stop-color="#8399a4"/><stop offset=".576" stop-color="#7b929e"/><stop offset=".731" stop-color="#6d8694"/><stop offset=".863" stop-color="#5a7785"/><stop offset=".981" stop-color="#426373"/><stop offset=".99" stop-color="#416271"/></linearGradient><linearGradient id="k" gradientUnits="userSpaceOnUse" x1="51.751" y1="40.61" x2="51.751" y2="23.418"><stop offset="0" stop-color="#869ba6"/><stop offset=".379" stop-color="#8399a4"/><stop offset=".576" stop-color="#7b929e"/><stop offset=".731" stop-color="#6d8694"/><stop offset=".863" stop-color="#5a7785"/><stop offset=".981" stop-color="#426373"/><stop offset=".99" stop-color="#416271"/></linearGradient><path d="M53.3 38.6V25.5c0-.9-.7-1.5-1.5-1.5-.9 0-1.5.7-1.5 1.5v13.1c0 .9.7 1.5 1.5 1.5s1.5-.7 1.5-1.5z" fill="url(#j)" stroke="url(#k)" stroke-miterlimit="10"/><linearGradient id="l" gradientUnits="userSpaceOnUse" x1="51.751" y1="63.783" x2="51.751" y2="47.591"><stop offset="0" stop-color="#869ba6"/><stop offset=".379" stop-color="#8399a4"/><stop offset=".576" stop-color="#7b929e"/><stop offset=".731" stop-color="#6d8694"/><stop offset=".863" stop-color="#5a7785"/><stop offset=".981" stop-color="#426373"/><stop offset=".99" stop-color="#416271"/></linearGradient><linearGradient id="m" gradientUnits="userSpaceOnUse" x1="51.751" y1="64.283" x2="51.751" y2="47.091"><stop offset="0" stop-color="#869ba6"/><stop offset=".379" stop-color="#8399a4"/><stop offset=".576" stop-color="#7b929e"/><stop offset=".731" stop-color="#6d8694"/><stop offset=".863" stop-color="#5a7785"/><stop offset=".981" stop-color="#426373"/><stop offset=".99" stop-color="#416271"/></linearGradient><path d="M51.8 47.6c-3.8 0-6.9 3.6-6.9 8.1s3.1 8.1 6.9 8.1 6.9-3.6 6.9-8.1-3.1-8.1-6.9-8.1zm0 13.1c-2.1 0-3.9-2.2-3.9-5s1.7-5 3.9-5 3.9 2.2 3.9 5c-.1 2.8-1.8 5-3.9 5z" fill="url(#l)" stroke="url(#m)" stroke-miterlimit="10"/></g><linearGradient id="n" gradientUnits="userSpaceOnUse" x1="45.037" y1="25.813" x2="58.537" y2="12.313" gradientTransform="translate(0 2)"><stop offset="0" stop-color="#fff"/><stop offset=".35" stop-color="#fafbfb"/><stop offset=".532" stop-color="#edf1f4"/><stop offset=".675" stop-color="#dde5e9"/><stop offset=".799" stop-color="#c7d3da"/><stop offset=".908" stop-color="#adbdc7"/><stop offset="1" stop-color="#92a5b0"/></linearGradient><path d="M45 1l27 26.7H45V1z" fill="url(#n)"/><path d="M45 1l27 26.7H45V1z" fill-opacity="0" stroke="#7191a1" stroke-width="2" stroke-linejoin="bevel"/><path d="M10.3 71.5h7.4c1.7 0 2.9.1 3.8.4 1.2.3 2.2 1 3 1.8.8.9 1.5 2 1.9 3.2s.7 2.9.7 4.7c0 1.6-.2 3.1-.6 4.3-.5 1.5-1.2 2.6-2.1 3.5-.7.7-1.6 1.2-2.8 1.6-.9.3-2.1.4-3.6.4h-7.6V71.5zm4 3.4v13.3h3c1.1 0 1.9-.1 2.4-.2.7-.2 1.2-.4 1.6-.8.4-.4.8-1 1.1-1.9s.4-2.1.4-3.7-.1-2.7-.4-3.6-.7-1.5-1.1-1.9-1.1-.8-1.9-.9c-.6-.1-1.7-.2-3.3-.2h-1.8zm34.3 16.6h-4.4L42.4 87h-8l-1.7 4.6h-4.3l7.8-20h4.3l8.1 19.9zm-7.5-7.9l-2.8-7.4-2.7 7.4h5.5zm12.1 7.9V74.9h-5.9v-3.4h15.9v3.4h-5.9v16.7h-4.1z" fill="#4c6c7b"/></svg>