<svg xmlns="http://www.w3.org/2000/svg" viewBox="0 0 72 100"><linearGradient id="a" gradientUnits="userSpaceOnUse" x1="36" y1="97" x2="36" y2="-1" gradientTransform="translate(0 2)"><stop offset="0" stop-color="#c8d4db"/><stop offset=".139" stop-color="#d8e1e6"/><stop offset=".359" stop-color="#ebf0f3"/><stop offset=".617" stop-color="#f9fafb"/><stop offset="1" stop-color="#fff"/></linearGradient><path d="M45 1l27 26.7V99H0V1h45z" fill="url(#a)"/><path d="M45 1l27 26.7V99H0V1h45z" stroke="#7191a1" stroke-width="2" fill="none"/><g opacity=".85"><linearGradient id="b" gradientUnits="userSpaceOnUse" x1="35.794" y1="38.976" x2="35.794" y2="22.783"><stop offset="0" stop-color="#869ba6"/><stop offset=".379" stop-color="#8399a4"/><stop offset=".576" stop-color="#7b929e"/><stop offset=".731" stop-color="#6d8694"/><stop offset=".863" stop-color="#5a7785"/><stop offset=".981" stop-color="#426373"/><stop offset=".99" stop-color="#416271"/></linearGradient><linearGradient id="c" gradientUnits="userSpaceOnUse" x1="35.794" y1="39.476" x2="35.794" y2="22.283"><stop offset="0" stop-color="#869ba6"/><stop offset=".379" stop-color="#8399a4"/><stop offset=".576" stop-color="#7b929e"/><stop offset=".731" stop-color="#6d8694"/><stop offset=".863" stop-color="#5a7785"/><stop offset=".981" stop-color="#426373"/><stop offset=".99" stop-color="#416271"/></linearGradient><path d="M35.8 22.8c-3.8 0-6.9 3.6-6.9 8.1S32 39 35.8 39s6.9-3.6 6.9-8.1-3.1-8.1-6.9-8.1zm0 13.1c-2.1 0-3.9-2.2-3.9-5s1.7-5 3.9-5c2.1 0 3.9 2.2 3.9 5-.1 2.7-1.8 5-3.9 5z" fill="url(#b)" stroke="url(#c)" stroke-miterlimit="10"/><linearGradient id="d" gradientUnits="userSpaceOnUse" x1="20.25" y1="38.976" x2="20.25" y2="22.783"><stop offset="0" stop-color="#869ba6"/><stop offset=".379" stop-color="#8399a4"/><stop offset=".576" stop-color="#7b929e"/><stop offset=".731" stop-color="#6d8694"/><stop offset=".863" stop-color="#5a7785"/><stop offset=".981" stop-color="#426373"/><stop offset=".99" stop-color="#416271"/></linearGradient><linearGradient id="e" gradientUnits="userSpaceOnUse" x1="20.25" y1="39.476" x2="20.25" y2="22.283"><stop offset="0" stop-color="#869ba6"/><stop offset=".379" stop-color="#8399a4"/><stop offset=".576" stop-color="#7b929e"/><stop offset=".731" stop-color="#6d8694"/><stop offset=".863" stop-color="#5a7785"/><stop offset=".981" stop-color="#426373"/><stop offset=".99" stop-color="#416271"/></linearGradient><path d="M21.8 37.4V24.3c0-.9-.7-1.5-1.5-1.5-.9 0-1.5.7-1.5 1.5v13.1c0 .9.7 1.5 1.5 1.5.8.1 1.5-.6 1.5-1.5z" fill="url(#d)" stroke="url(#e)" stroke-miterlimit="10"/><linearGradient id="f" gradientUnits="userSpaceOnUse" x1="20.25" y1="62.649" x2="20.25" y2="46.457"><stop offset="0" stop-color="#869ba6"/><stop offset=".379" stop-color="#8399a4"/><stop offset=".576" stop-color="#7b929e"/><stop offset=".731" stop-color="#6d8694"/><stop offset=".863" stop-color="#5a7785"/><stop offset=".981" stop-color="#426373"/><stop offset=".99" stop-color="#416271"/></linearGradient><linearGradient id="g" gradientUnits="userSpaceOnUse" x1="20.25" y1="63.149" x2="20.25" y2="45.957"><stop offset="0" stop-color="#869ba6"/><stop offset=".379" stop-color="#8399a4"/><stop offset=".576" stop-color="#7b929e"/><stop offset=".731" stop-color="#6d8694"/><stop offset=".863" stop-color="#5a7785"/><stop offset=".981" stop-color="#426373"/><stop offset=".99" stop-color="#416271"/></linearGradient><path d="M20.2 46.5c-3.8 0-6.9 3.6-6.9 8.1s3.1 8.1 6.9 8.1 6.9-3.6 6.9-8.1c.1-4.5-3-8.1-6.9-8.1zm0 13.1c-2.1 0-3.9-2.2-3.9-5s1.7-5 3.9-5 3.9 2.2 3.9 5c0 2.7-1.7 5-3.9 5z" fill="url(#f)" stroke="url(#g)" stroke-miterlimit="10"/><linearGradient id="h" gradientUnits="userSpaceOnUse" x1="35.794" y1="62.649" x2="35.794" y2="46.457"><stop offset="0" stop-color="#869ba6"/><stop offset=".379" stop-color="#8399a4"/><stop offset=".576" stop-color="#7b929e"/><stop offset=".731" stop-color="#6d8694"/><stop offset=".863" stop-color="#5a7785"/><stop offset=".981" stop-color="#426373"/><stop offset=".99" stop-color="#416271"/></linearGradient><linearGradient id="i" gradientUnits="userSpaceOnUse" x1="35.794" y1="63.149" x2="35.794" y2="45.957"><stop offset="0" stop-color="#869ba6"/><stop offset=".379" stop-color="#8399a4"/><stop offset=".576" stop-color="#7b929e"/><stop offset=".731" stop-color="#6d8694"/><stop offset=".863" stop-color="#5a7785"/><stop offset=".981" stop-color="#426373"/><stop offset=".99" stop-color="#416271"/></linearGradient><path d="M37.3 61.1V48c0-.9-.7-1.5-1.5-1.5-.9 0-1.5.7-1.5 1.5v13.1c0 .9.7 1.5 1.5 1.5s1.5-.6 1.5-1.5z" fill="url(#h)" stroke="url(#i)" stroke-miterlimit="10"/><linearGradient id="j" gradientUnits="userSpaceOnUse" x1="51.751" y1="40.11" x2="51.751" y2="23.918"><stop offset="0" stop-color="#869ba6"/><stop offset=".379" stop-color="#8399a4"/><stop offset=".576" stop-color="#7b929e"/><stop offset=".731" stop-color="#6d8694"/><stop offset=".863" stop-color="#5a7785"/><stop offset=".981" stop-color="#426373"/><stop offset=".99" stop-color="#416271"/></linearGradient><linearGradient id="k" gradientUnits="userSpaceOnUse" x1="51.751" y1="40.61" x2="51.751" y2="23.418"><stop offset="0" stop-color="#869ba6"/><stop offset=".379" stop-color="#8399a4"/><stop offset=".576" stop-color="#7b929e"/><stop offset=".731" stop-color="#6d8694"/><stop offset=".863" stop-color="#5a7785"/><stop offset=".981" stop-color="#426373"/><stop offset=".99" stop-color="#416271"/></linearGradient><path d="M53.3 38.6V25.5c0-.9-.7-1.5-1.5-1.5-.9 0-1.5.7-1.5 1.5v13.1c0 .9.7 1.5 1.5 1.5s1.5-.7 1.5-1.5z" fill="url(#j)" stroke="url(#k)" stroke-miterlimit="10"/><linearGradient id="l" gradientUnits="userSpaceOnUse" x1="51.751" y1="63.783" x2="51.751" y2="47.591"><stop offset="0" stop-color="#869ba6"/><stop offset=".379" stop-color="#8399a4"/><stop offset=".576" stop-color="#7b929e"/><stop offset=".731" stop-color="#6d8694"/><stop offset=".863" stop-color="#5a7785"/><stop offset=".981" stop-color="#426373"/><stop offset=".99" stop-color="#416271"/></linearGradient><linearGradient id="m" gradientUnits="userSpaceOnUse" x1="51.751" y1="64.283" x2="51.751" y2="47.091"><stop offset="0" stop-color="#869ba6"/><stop offset=".379" stop-color="#8399a4"/><stop offset=".576" stop-color="#7b929e"/><stop offset=".731" stop-color="#6d8694"/><stop offset=".863" stop-color="#5a7785"/><stop offset=".981" stop-color="#426373"/><stop offset=".99" stop-color="#416271"/></linearGradient><path d="M51.8 47.6c-3.8 0-6.9 3.6-6.9 8.1s3.1 8.1 6.9 8.1 6.9-3.6 6.9-8.1-3.1-8.1-6.9-8.1zm0 13.1c-2.1 0-3.9-2.2-3.9-5s1.7-5 3.9-5 3.9 2.2 3.9 5c-.1 2.8-1.8 5-3.9 5z" fill="url(#l)" stroke="url(#m)" stroke-miterlimit="10"/></g><linearGradient id="n" gradientUnits="userSpaceOnUse" x1="45.037" y1="25.813" x2="58.537" y2="12.313" gradientTransform="translate(0 2)"><stop offset="0" stop-color="#fff"/><stop offset=".35" stop-color="#fafbfb"/><stop offset=".532" stop-color="#edf1f4"/><stop offset=".675" stop-color="#dde5e9"/><stop offset=".799" stop-color="#c7d3da"/><stop offset=".908" stop-color="#adbdc7"/><stop offset="1" stop-color="#92a5b0"/></linearGradient><path d="M45 1l27 26.7H45V1z" fill="url(#n)"/><path d="M45 1l27 26.7H45V1z" stroke="#7191a1" stroke-width="2" stroke-linejoin="bevel" fill="none"/><path d="M6.6 74.4H13c1.4 0 2.5.1 3.3.3 1 .3 1.9.8 2.6 1.6s1.3 1.7 1.6 2.8.6 2.5.6 4.1c0 1.4-.2 2.6-.5 3.7-.4 1.2-1 2.3-1.8 3-.6.6-1.4 1-2.4 1.4-.8.2-1.8.4-3.1.4H6.6V74.4zm3.5 2.9v11.4h2.6c1 0 1.7-.1 2.1-.2.6-.1 1-.4 1.4-.7s.7-.9.9-1.7.4-1.8.4-3.1-.1-2.3-.4-3.1-.6-1.3-1-1.7-1-.7-1.6-.8c-.5-.1-1.4-.2-2.8-.2h-1.6zm29.4 14.2h-3.8l-1.5-3.9h-6.9l-1.4 3.9h-3.7l6.7-17.2h3.7l6.9 17.2zm-6.4-6.8l-2.4-6.4-2.3 6.4h4.7zm10.3 6.8V77.3h-5.1v-2.9H52v2.9h-5.1v14.3h-3.5zm24.5 0h-3.8l-1.5-3.9h-6.9l-1.4 3.9h-3.7l6.7-17.2H61l6.9 17.2zm-6.4-6.8l-2.4-6.4-2.3 6.4h4.7z" fill="#4c6c7b"/></svg>