<svg xmlns="http://www.w3.org/2000/svg" viewBox="0 0 72 100"><linearGradient id="a" gradientUnits="userSpaceOnUse" x1="36" y1="97" x2="36" y2="-1" gradientTransform="translate(0 2)"><stop offset="0" stop-color="#c8d4db"/><stop offset=".139" stop-color="#d8e1e6"/><stop offset=".359" stop-color="#ebf0f3"/><stop offset=".617" stop-color="#f9fafb"/><stop offset="1" stop-color="#fff"/></linearGradient><path d="M45 1l27 26.7V99H0V1h45z" fill="url(#a)"/><path d="M45 1l27 26.7V99H0V1h45z" fill-opacity="0" stroke="#7191a1" stroke-width="2"/><linearGradient id="b" gradientUnits="userSpaceOnUse" x1="45.037" y1="25.813" x2="58.537" y2="12.313" gradientTransform="translate(0 2)"><stop offset="0" stop-color="#fff"/><stop offset=".35" stop-color="#fafbfb"/><stop offset=".532" stop-color="#edf1f4"/><stop offset=".675" stop-color="#dde5e9"/><stop offset=".799" stop-color="#c7d3da"/><stop offset=".908" stop-color="#adbdc7"/><stop offset="1" stop-color="#92a5b0"/></linearGradient><path d="M45 1l27 26.7H45V1z" fill="url(#b)"/><path d="M45 1l27 26.7H45V1z" fill-opacity="0" stroke="#7191a1" stroke-width="2" stroke-linejoin="bevel"/><linearGradient id="c" gradientUnits="userSpaceOnUse" x1="36.632" y1="74.231" x2="36.632" y2="32.231"><stop offset="0" stop-color="#adccdc"/><stop offset="1" stop-color="#4c6c7b"/></linearGradient><linearGradient id="d" gradientUnits="userSpaceOnUse" x1="36.632" y1="74.606" x2="36.632" y2="31.856"><stop offset="0" stop-color="#adccdc"/><stop offset="1" stop-color="#4c6c7b"/></linearGradient><path d="M52.7 32.2H26.9c-3.5 0-6.4 2.8-6.4 6.4v29.1H14c0 3.6 2.8 6.5 6.5 6.5h25.9c3.5 0 6.5-2.9 6.5-6.5V41.9h6.5v-3.2c-.2-3.6-3.1-6.5-6.7-6.5zm-3.2 35c0 2.1-1.7 3.8-3.8 3.8H22c1.6-1.1 1.6-3.2 1.6-3.2V38.7c0-1.8 1.4-3.2 3.2-3.2 1.8 0 3.2 1.4 3.2 3.2v3.2h19.4l.1 25.3zM33.4 38.7v-3.2h19.4c2.9 0 3.2 1.9 3.2 3.2H33.4zm3.1 8.9c.1-.2.1-.2.2 0l1.9 6c.1.2.2.3.4.3h6.3c.2 0 .2.1.1.2l-5.1 3.7c-.1.1-.2.3-.2.5l1.9 6c.1.2 0 .2-.2.1l-5.1-3.7c-.2-.1-.4-.1-.5 0l-5.1 3.7c-.1.1-.2.1-.2-.1l1.9-6c0-.2 0-.4-.2-.5l-5.1-3.7c-.1-.1-.1-.2.1-.2h6.3c.2 0 .4-.1.4-.3.2 0 2.2-6 2.2-6z" opacity=".8" fill="url(#c)" stroke="url(#d)" stroke-width=".75" stroke-miterlimit="10"/></svg>