<svg xmlns="http://www.w3.org/2000/svg" viewBox="0 0 72 100"><linearGradient id="a" gradientUnits="userSpaceOnUse" x1="36" y1="3.005" x2="36" y2="101" gradientTransform="matrix(1 0 0 -1 0 102)"><stop offset=".005" stop-color="#002d44"/><stop offset=".056" stop-color="#013852"/><stop offset=".16" stop-color="#0a4d6b"/><stop offset=".274" stop-color="#0f5e82"/><stop offset=".398" stop-color="#0f6d96"/><stop offset=".539" stop-color="#0d77a4"/><stop offset=".711" stop-color="#0a7eae"/><stop offset="1" stop-color="#0881b2"/></linearGradient><path d="M45 1l27 26.7V99H0V1h45z" fill="url(#a)"/><path d="M45 1l27 26.7V99H0V1h45z" fill-opacity="0" stroke="#01415e" stroke-width="2"/><path d="M7.7 76.7H13c1.2 0 2.1.1 2.8.3.8.2 1.6.7 2.2 1.3.6.6 1.1 1.4 1.4 2.3.3.9.5 2 .5 3.4 0 1.2-.1 2.2-.4 3-.4 1-.9 1.9-1.5 2.5-.5.5-1.2.9-2.1 1.1-.6.2-1.5.3-2.6.3H7.7V76.7zm3 2.5v9.5h2.2c.8 0 1.4 0 1.8-.1.5-.1.9-.3 1.2-.6.3-.3.6-.7.8-1.4.2-.6.3-1.5.3-2.6s-.1-2-.3-2.5c-.2-.6-.5-1.1-.8-1.4-.4-.3-.8-.6-1.4-.7-.4-.1-1.2-.1-2.4-.1h-1.4zm11 4.8c0-1.5.2-2.7.7-3.7.3-.7.8-1.4 1.3-2s1.2-1 1.9-1.3c.9-.4 1.9-.6 3.1-.6 2.1 0 3.8.7 5.1 2s1.9 3.1 1.9 5.5c0 2.3-.6 4.1-1.9 5.4s-3 2-5.1 2c-2.2 0-3.9-.6-5.1-1.9-1.2-1.3-1.9-3.1-1.9-5.4zm3.1-.1c0 1.6.4 2.8 1.1 3.7s1.7 1.3 2.9 1.3 2.1-.4 2.9-1.2c.7-.8 1.1-2.1 1.1-3.7s-.4-2.9-1.1-3.7c-.8-.9-1.7-1.3-2.9-1.3s-2.2.4-2.9 1.2c-.8.8-1.1 2-1.1 3.7zm22.5 1.9l2.8.9c-.4 1.6-1.2 2.7-2.2 3.5-1 .8-2.3 1.1-3.8 1.1-1.9 0-3.5-.6-4.7-1.9-1.2-1.3-1.9-3.1-1.9-5.3 0-2.4.6-4.2 1.9-5.6 1.2-1.3 2.9-2 4.9-2 1.8 0 3.2.5 4.3 1.6.7.6 1.2 1.5 1.5 2.6l-2.9.7c-.2-.7-.5-1.3-1.1-1.8s-1.2-.6-2-.6c-1.1 0-1.9.4-2.6 1.1-.7.8-1 2-1 3.7 0 1.8.3 3.1 1 3.9.7.8 1.5 1.2 2.6 1.2.8 0 1.4-.2 2-.7s1-1.4 1.2-2.4zm5.4-9.1h5.8c1.1 0 2 0 2.6.1s1.1.3 1.5.6c.4.3.8.7 1.1 1.2s.4 1.1.4 1.7c0 .7-.2 1.3-.5 1.8-.4.6-.9 1-1.5 1.3.9.3 1.6.7 2 1.3.5.6.7 1.3.7 2.2 0 .7-.2 1.3-.5 1.9s-.7 1.1-1.3 1.5-1.2.6-2 .7c-.5.1-1.7.1-3.5.1h-4.9V76.7zm2.9 2.4v3.3h4c.5-.1.9-.2 1.2-.5.3-.3.4-.7.4-1.1 0-.4-.1-.8-.4-1.1s-.6-.4-1.1-.5h-4.1zm0 5.7v3.8h2.7c1.1 0 1.7 0 2-.1.4-.1.8-.3 1.1-.6s.4-.7.4-1.2c0-.4-.1-.8-.3-1.1s-.5-.5-.9-.7c-.4-.1-1.3-.2-2.6-.2h-2.4z" fill="#fff"/><linearGradient id="b" gradientUnits="userSpaceOnUse" x1="18.121" y1="50.468" x2="55.041" y2="87.389" gradientTransform="matrix(1 0 0 -1 0 102)"><stop offset=".005" stop-color="#006186"/><stop offset=".116" stop-color="#005f83"/><stop offset=".239" stop-color="#005a7d"/><stop offset=".369" stop-color="#005373"/><stop offset=".502" stop-color="#004865"/><stop offset=".639" stop-color="#003953"/><stop offset=".779" stop-color="#00253c"/><stop offset=".918" stop-color="#00031d"/><stop offset="1"/></linearGradient><path d="M64.4 25.7c-.5 0-1 .2-1.4.3-.5.2-1 .4-1.4.6-.7.4-1.2.8-1.5 1.3-.3.5-.6 1.1-.8 1.7-.9 2.4-2.2 6-4 11.3-1.8 5.1-3.6 10.5-5.6 16H45l-8.7-24.4-7.9 24.4h-4.7c-2.6-7.5-4.6-13.3-6-17.2-1.4-4.1-2.5-7.4-3.5-10.2-.3-.8-.6-1.4-1-1.8-.4-.4-.9-.8-1.4-1.2-.4-.3-.9-.5-1.3-.6-.5-.1-1-.2-1.6-.3v-1.8h17.6v1.8c-1 .1-1.8.2-2.3.4-.5.1-.9.2-1.2.4-.3.1-.5.3-.5.4-.1.1-.1.3-.1.4 0 .2 0 .4.1.6.1.2.1.4.2.7.4 1.2 1.1 3.5 2.3 6.8 1.1 3.4 2.5 7.5 4.2 12.5L36.7 24h4.9l8.7 24.5c1.3-4 2.3-7.2 3.1-9.7.8-2.5 1.4-4.7 1.9-6.4.3-1.1.6-2 .7-2.8.2-.7.3-1.4.3-1.9 0-.3-.2-.6-.5-.8-.3-.2-.7-.4-1.2-.6-.4-.1-1-.3-1.7-.3-.7-.1-1.3-.2-1.8-.2v-2h13.3v1.9z" fill="url(#b)"/><linearGradient id="c" gradientUnits="userSpaceOnUse" x1="45.069" y1="74.205" x2="58.569" y2="87.705" gradientTransform="matrix(1 0 0 -1 0 102)"><stop offset=".005" stop-color="#dff1fa"/><stop offset=".3" stop-color="#dceef7"/><stop offset=".443" stop-color="#d3e4ef"/><stop offset=".553" stop-color="#c4d6e3"/><stop offset=".647" stop-color="#b1c5d5"/><stop offset=".73" stop-color="#9ab0c5"/><stop offset=".805" stop-color="#819ab3"/><stop offset=".875" stop-color="#64829f"/><stop offset=".938" stop-color="#426c8c"/><stop offset=".998" stop-color="#06577a"/><stop offset="1" stop-color="#015679"/></linearGradient><path d="M45 1l27 26.7H45V1z" fill="url(#c)"/><path d="M45 1l27 26.7H45V1z" fill-opacity="0" stroke="#01415e" stroke-width="2" stroke-linejoin="bevel"/></svg>