<svg xmlns="http://www.w3.org/2000/svg" viewBox="0 0 72 100"><linearGradient id="a" gradientUnits="userSpaceOnUse" x1="36" y1="97.8" x2="36" y2="-.2" gradientTransform="translate(0 1)"><stop offset="0" stop-color="#c8d4db"/><stop offset=".139" stop-color="#d8e1e6"/><stop offset=".359" stop-color="#ebf0f3"/><stop offset=".617" stop-color="#f9fafb"/><stop offset="1" stop-color="#fff"/></linearGradient><path d="M45 .8l27 26.7v71.3H0V.8h45z" fill="url(#a)"/><path d="M45 .8l27 26.7v71.3H0V.8h45z" fill-opacity="0" stroke="#7191a1" stroke-width="2"/><linearGradient id="b" gradientUnits="userSpaceOnUse" x1="45.075" y1="26.575" x2="58.575" y2="13.075" gradientTransform="translate(0 1)"><stop offset="0" stop-color="#fff"/><stop offset=".35" stop-color="#fafbfb"/><stop offset=".532" stop-color="#edf1f4"/><stop offset=".675" stop-color="#dde5e9"/><stop offset=".799" stop-color="#c7d3da"/><stop offset=".908" stop-color="#adbdc7"/><stop offset="1" stop-color="#92a5b0"/></linearGradient><path d="M45 .8l27 26.7H45V.8z" fill="url(#b)"/><path d="M45 .8l27 26.7H45V.8z" fill-opacity="0" stroke="#7191a1" stroke-width="2" stroke-linejoin="bevel"/><g opacity=".85"><linearGradient id="c" gradientUnits="userSpaceOnUse" x1="13.2" y1="63.966" x2="58.8" y2="63.966"><stop offset="0" stop-color="#adccdc"/><stop offset="1" stop-color="#4c6c7b"/></linearGradient><path d="M58.8 61.7c0-1.8-1.4-3.2-3.2-3.2H16.4c-1.8 0-3.2 1.4-3.2 3.2v4.5c0 1.8 1.4 3.2 3.2 3.2h39.2c1.8 0 3.2-1.4 3.2-3.2v-4.5zm-16.9 4.1c-1 0-1.8-.8-1.8-1.8s.8-1.8 1.8-1.8 1.8.8 1.8 1.8c.1 1-.8 1.8-1.8 1.8zm5.5 0c-1 0-1.8-.8-1.8-1.8s.8-1.8 1.8-1.8 1.8.8 1.8 1.8-.8 1.8-1.8 1.8zm5.5 0c-1 0-1.8-.8-1.8-1.8s.8-1.8 1.8-1.8 1.8.8 1.8 1.8-.8 1.8-1.8 1.8z" fill="url(#c)"/><linearGradient id="d" gradientUnits="userSpaceOnUse" x1="13.968" y1="51.725" x2="58.032" y2="51.725"><stop offset="0" stop-color="#adccdc"/><stop offset="1" stop-color="#4c6c7b"/></linearGradient><path d="M16.4 56.7h39.2c.9 0 1.7.2 2.4.6l-3.8-8c-1-2.3-2.8-3.2-4.6-3.2h-4.3l-6.2 6.3c-.4.4-.9.8-1.5 1-.6.2-1.2.4-1.8.4-.6 0-1.2-.1-1.8-.4h-.2c-.5-.3-.9-.6-1.3-.9l-6.1-6.3h-4.2c-1.8 0-3.4 1-4.6 3.2l-3.8 8c.9-.5 1.7-.7 2.6-.7z" fill="url(#d)"/><linearGradient id="e" gradientUnits="userSpaceOnUse" x1="26.172" y1="40.752" x2="45.827" y2="40.752"><stop offset="0" stop-color="#adccdc"/><stop offset="1" stop-color="#4c6c7b"/></linearGradient><path d="M45.1 43.2c.2-.2.4-.5.5-.8.1-.3.2-.6.2-.9 0-.3-.1-.6-.2-.9-.1-.3-.3-.5-.5-.8-.2-.2-.5-.4-.8-.5-.3-.1-.6-.2-.9-.2s-.6.1-.9.2c-.3.1-.6.3-.8.5l-3.5 3.5v-11c0-.3-.1-.6-.2-.9-.1-.3-.3-.5-.5-.8-.2-.2-.5-.4-.8-.5-.1-.1-.4-.1-.7-.1-.3 0-.6.1-.9.2-.3.1-.6.3-.8.5-.2.2-.4.5-.5.8-.1.3-.2.6-.2.9v11l-3.5-3.5c-.2-.2-.5-.4-.8-.5-.3-.1-.6-.2-.9-.2-.3 0-.6.1-.9.2-.3.1-.5.3-.8.5-.2.2-.4.5-.5.8-.1.3-.2.6-.2.9 0 .3.1.6.2.9.1.3.3.6.5.8l7.5 7.7c.2.2.5.4.8.5.3.1.6.2.9.2.3 0 .6-.1.9-.2.3-.1.5-.3.8-.5l7.5-7.8z" fill="url(#e)"/></g></svg>