<svg xmlns="http://www.w3.org/2000/svg" viewBox="0 0 72 100"><linearGradient id="a" gradientUnits="userSpaceOnUse" x1="36" y1="71" x2="36" y2="169" gradientTransform="matrix(1 0 0 -1 0 170)"><stop offset="0" stop-color="#c8d4db"/><stop offset=".139" stop-color="#d8e1e6"/><stop offset=".359" stop-color="#ebf0f3"/><stop offset=".617" stop-color="#f9fafb"/><stop offset="1" stop-color="#fff"/></linearGradient><path d="M45 1l27 26.7V99H0V1h45z" fill="url(#a)"/><path d="M45 1l27 26.7V99H0V1h45z" stroke="#7191a1" stroke-width="2" fill="none"/><linearGradient id="b" gradientUnits="userSpaceOnUse" x1="45.062" y1="142.21" x2="58.56" y2="155.71" gradientTransform="matrix(1 0 0 -1 0 170)"><stop offset="0" stop-color="#fff"/><stop offset=".35" stop-color="#fafbfb"/><stop offset=".532" stop-color="#edf1f4"/><stop offset=".675" stop-color="#dde5e9"/><stop offset=".799" stop-color="#c7d3da"/><stop offset=".908" stop-color="#adbdc7"/><stop offset="1" stop-color="#92a5b0"/></linearGradient><path d="M45 1l27 26.7H45V1z" fill="url(#b)"/><path d="M45 1l27 26.7H45V1z" stroke="#7191a1" stroke-width="2" stroke-linejoin="bevel" fill="none"/><path d="M29.9 66.4h13.2v5.7H29.9v-5.7z" fill="#edf0f3"/><linearGradient id="c" gradientUnits="userSpaceOnUse" x1="36.65" y1="5.753" x2="36.65" y2="-37.581" gradientTransform="translate(0 70)"><stop offset="0" stop-color="#adccdc"/><stop offset="1" stop-color="#4c6c7b"/></linearGradient><path d="M60.3 33.6c-.8-.8-1.8-1.2-2.9-1.2H15.7c-1.1 0-2.1.4-2.9 1.2-.8.8-1.2 1.8-1.2 2.9v28.3c0 1.1.4 2.1 1.2 2.9s1.8 1.2 2.9 1.2h14.2c0 .7-.1 1.3-.4 2s-.6 1.3-.8 1.8c-.3.5-.4.9-.4 1.1 0 .5.2.8.5 1.2.3.3.7.5 1.2.5h13.3c.5 0 .8-.2 1.2-.5.3-.3.5-.7.5-1.2 0-.2-.1-.6-.4-1.1-.3-.5-.6-1.1-.8-1.8-.3-.7-.4-1.4-.4-2h14.2c1.1 0 2.1-.4 2.9-1.2.8-.8 1.2-1.8 1.2-2.9V36.6c-.2-1.2-.6-2.1-1.4-3zm-2.1 24.7c0 .2-.1.4-.2.6-.2.2-.4.2-.6.2H15.7c-.2 0-.4-.1-.6-.2-.2-.2-.2-.4-.2-.6V36.6c0-.2.1-.4.2-.6.2-.2.4-.2.6-.2h41.7c.2 0 .4.1.6.2.2.2.2.4.2.6v21.7z" opacity=".85" fill="url(#c)"/><linearGradient id="d" gradientUnits="userSpaceOnUse" x1="36.369" y1="43" x2="36.369" y2="62" gradientTransform="matrix(1 0 0 -1 0 100)"><stop offset="0" stop-color="#adccdc"/><stop offset="1" stop-color="#4c6c7b"/></linearGradient><path d="M45.6 46.1l-1.8-.5c-.2-.8-.5-1.5-.9-2.1l.9-1.6c.1-.2.1-.4-.1-.5l-1.3-1.3c-.2-.2-.4-.2-.5-.1l-1.5 1c-.6-.4-1.4-.7-2.1-.9l-.5-1.8c-.1-.2-.2-.3-.4-.3h-1.8c-.2 0-.4.2-.4.3l-.5 1.7c-.8.2-1.5.5-2.1.9L31 40c-.2-.1-.4-.1-.5.1L29 41.4c-.2.2-.2.4-.1.5l.9 1.6c-.4.6-.7 1.4-.9 2.1l-1.8.5c-.2.1-.3.2-.3.4v1.8c0 .2.2.4.3.4l1.8.5c.2.8.5 1.5.9 2.1L29 53c-.1.2-.1.4.1.5l1.3 1.3c.2.2.4.2.5.1l1.6-.9c.6.4 1.4.7 2.1.9l.5 1.8c.1.2.2.3.4.3h1.8c.2 0 .4-.2.4-.3l.5-1.8c.8-.2 1.5-.5 2.1-.9l1.6.9c.2.1.4.1.5-.1l1.3-1.3c.2-.2.2-.4.1-.5l-.9-1.6c.4-.6.7-1.4.9-2.1l1.8-.5c.2-.1.3-.2.3-.4v-1.9c.1-.1 0-.3-.3-.4zm-9.2 4.8c-1.9 0-3.4-1.5-3.4-3.4s1.5-3.4 3.4-3.4 3.4 1.5 3.4 3.4-1.5 3.4-3.4 3.4z" opacity=".85" fill="url(#d)"/></svg>