<svg xmlns="http://www.w3.org/2000/svg" viewBox="0 0 72 100"><linearGradient id="a" gradientUnits="userSpaceOnUse" x1="36.108" y1="3.003" x2="36.108" y2="101.001" gradientTransform="matrix(1 0 0 -1 0 102)"><stop offset="0" stop-color="#c8d4db"/><stop offset=".139" stop-color="#d8e1e6"/><stop offset=".359" stop-color="#ebf0f3"/><stop offset=".617" stop-color="#f9fafb"/><stop offset="1" stop-color="#fff"/></linearGradient><path d="M45.1 1L72 27.7V99H.2V1h44.9z" fill="url(#a)"/><path d="M45.1 1L72 27.7V99H.2V1h44.9z" stroke="#7191a1" stroke-width="2" fill="none"/><path d="M20.3 91.1V71h15v3.4H24.4v4.4h10.1v3.4H24.4v5.5h11.3v3.4H20.3zm18.9 0V71.2h4.1v16.5h10.1v3.4H39.2z" fill="#4c6c7b"/><linearGradient id="b" gradientUnits="userSpaceOnUse" x1="45.122" y1="74.229" x2="58.575" y2="87.683" gradientTransform="matrix(1 0 0 -1 0 102)"><stop offset="0" stop-color="#fff"/><stop offset=".35" stop-color="#fafbfb"/><stop offset=".532" stop-color="#edf1f4"/><stop offset=".675" stop-color="#dde5e9"/><stop offset=".799" stop-color="#c7d3da"/><stop offset=".908" stop-color="#adbdc7"/><stop offset="1" stop-color="#92a5b0"/></linearGradient><path d="M45.1 1L72 27.7H45.1V1z" fill="url(#b)"/><path d="M45.1 1L72 27.7H45.1V1z" stroke="#7191a1" stroke-width="2" stroke-linejoin="bevel" fill="none"/><linearGradient id="c" gradientUnits="userSpaceOnUse" x1="37" y1="62.414" x2="37" y2="23.586"><stop offset="0" stop-color="#adccdc"/><stop offset="1" stop-color="#4c6c7b"/></linearGradient><linearGradient id="d" gradientUnits="userSpaceOnUse" x1="36.788" y1="63.164" x2="36.788" y2="22.836"><stop offset="0" stop-color="#adccdc"/><stop offset="1" stop-color="#4c6c7b"/></linearGradient><path d="M49.3 54.2h1c0 2.9-.5 4.9-1.4 6.2s-2.1 2-3.5 2c-1.1 0-2.2-.4-3.3-1.3-1-.8-2-3.2-2.8-6.9L37 43.7 28.9 62h-5.1l11.6-25c-.6-3.2-1.4-5.6-2.2-7.2s-1.9-2.3-3.2-2.3c-1 0-1.9.4-2.7 1.2-.8.8-1.2 2-1.3 3.7h-1c.1-2.7.6-4.8 1.6-6.4 1-1.6 2.3-2.4 3.8-2.4 1 0 1.9.4 2.8 1.2s1.6 2.2 2.3 4.1 1.7 6 3 12.1l1.9 8.6c.8 3.6 1.6 5.9 2.4 7.1s1.9 1.8 3.1 1.8c2 0 3.1-1.4 3.4-4.3z" opacity=".9" fill="url(#c)" stroke="url(#d)" stroke-width="1.5" stroke-miterlimit="10"/></svg>