<svg xmlns="http://www.w3.org/2000/svg" viewBox="0 0 72 100"><linearGradient id="a" gradientUnits="userSpaceOnUse" x1="36.2" y1="3.014" x2="36.2" y2="101.001" gradientTransform="matrix(1 0 0 -1 0 102)"><stop offset="0" stop-color="#c8d4db"/><stop offset=".139" stop-color="#d8e1e6"/><stop offset=".359" stop-color="#ebf0f3"/><stop offset=".617" stop-color="#f9fafb"/><stop offset="1" stop-color="#fff"/></linearGradient><path d="M45.2 1l27.1 26.7V99H.1V1h45.1z" fill="url(#a)"/><path d="M45.2 1l27.1 26.7V99H.1V1h45.1z" fill-opacity="0" stroke="#7191a1" stroke-width="2"/><path d="M9.8 90.1V70.7h14.5V74H13.8v4.3h9.8v3.3h-9.8v5.3h10.9v3.3H9.8zm18.3 0V70.7H34l3.6 13.2L41 70.7h6V90h-3.7V74.9l-3.9 15.2h-3.8l-3.9-15.2v15.2h-3.6zm22.9 0V70.9h4v15.9h9.8v3.3H51z" fill="#4c6c7b"/><linearGradient id="b" gradientUnits="userSpaceOnUse" x1="31.747" y1="69.935" x2="31.747" y2="69.986" gradientTransform="matrix(1 0 0 -1 0 102)"><stop offset="0" stop-color="#adccdc"/><stop offset="1" stop-color="#4c6c7b"/></linearGradient><path d="M31.8 32c-.1.1-.1.1 0 0" fill="url(#b)"/><g opacity=".9"><linearGradient id="c" gradientUnits="userSpaceOnUse" x1="36.452" y1="60.5" x2="36.452" y2="27.5"><stop offset="0" stop-color="#adccdc"/><stop offset="1" stop-color="#4c6c7b"/></linearGradient><linearGradient id="d" gradientUnits="userSpaceOnUse" x1="36.452" y1="61.5" x2="36.452" y2="26.5"><stop offset="0" stop-color="#adccdc"/><stop offset="1" stop-color="#4c6c7b"/></linearGradient><path d="M55.9 27.5H17.1c-2.3 0-4.1 1.8-4.1 4.1v24.8c0 2.3 1.9 4.1 4.1 4.1h38.7c2.3 0 4.1-1.8 4.1-4.1V31.6c.1-2.3-1.8-4.1-4-4.1zm-.7 2.7c-1.3 1.3-17 17.1-17.7 17.7-.5.5-1.6.5-2.1 0L17.8 30.2h37.4zM15.8 55.9V32.1L27.6 44 15.8 55.9zm2 1.9L29.5 46l3.9 3.9c1.6 1.6 4.4 1.6 6 0l3.9-3.9 11.8 11.8H17.8zm39.4-1.9L45.4 44l11.8-11.9v23.8z" fill="url(#c)" stroke="url(#d)" stroke-width="2" stroke-miterlimit="10"/></g><linearGradient id="e" gradientUnits="userSpaceOnUse" x1="45.324" y1="74.184" x2="58.871" y2="87.731" gradientTransform="matrix(1 0 0 -1 0 102)"><stop offset="0" stop-color="#fff"/><stop offset=".35" stop-color="#fafbfb"/><stop offset=".532" stop-color="#edf1f4"/><stop offset=".675" stop-color="#dde5e9"/><stop offset=".799" stop-color="#c7d3da"/><stop offset=".908" stop-color="#adbdc7"/><stop offset="1" stop-color="#92a5b0"/></linearGradient><path d="M45.2 1l27.1 26.7H45.2V1z" fill="url(#e)"/><path d="M45.2 1l27.1 26.7H45.2V1z" fill-opacity="0" stroke="#7191a1" stroke-width="2" stroke-linejoin="bevel"/></svg>