<svg xmlns="http://www.w3.org/2000/svg" viewBox="0 0 72 100"><linearGradient id="a" gradientUnits="userSpaceOnUse" x1="36.108" y1="3.003" x2="36.108" y2="101.001" gradientTransform="matrix(1 0 0 -1 0 102)"><stop offset="0" stop-color="#c8d4db"/><stop offset=".139" stop-color="#d8e1e6"/><stop offset=".359" stop-color="#ebf0f3"/><stop offset=".617" stop-color="#f9fafb"/><stop offset="1" stop-color="#fff"/></linearGradient><path d="M45.1 1L72 27.7V99H.2V1h44.9z" fill="url(#a)"/><path d="M45.1 1L72 27.7V99H.2V1h44.9z" fill-opacity="0" stroke="#7191a1" stroke-width="2"/><path d="M9.8 91.1V71.2h14.8v3.4H13.9V79h10v3.3h-10v5.4H25V91H9.8zm16.6 0l6.8-10.4-6.2-9.5h4.7l4 6.4 3.9-6.4h4.7l-6.2 9.6L45 91.1h-4.9l-4.4-6.9-4.4 6.9h-4.9zm20.7 0V71.2h14.8v3.4H51.1V79h10v3.3h-10v5.4h11.2V91H47.1z" fill="#4c6c7b"/><linearGradient id="b" gradientUnits="userSpaceOnUse" x1="34.962" y1="37.847" x2="34.962" y2="88.47" gradientTransform="matrix(1 0 0 -1 0 102)"><stop offset="0" stop-color="#adccdc"/><stop offset="1" stop-color="#4c6c7b"/></linearGradient><path d="M55.1 36.3c-.1-1-.3-1.9-.6-2.9l4.7-2.7-5-8.6-4.7 2.7c-1.3-1.4-2.9-2.6-4.6-3.6l1.4-5.1-9.7-2.7-1.4 5.1c-1 0-1.9 0-2.9.1s-1.9.3-2.9.6l-2.7-4.7-8.7 4.9 2.7 4.7c-1.4 1.4-2.6 2.9-3.6 4.6l-5.2-1.4L9.4 37l5.2 1.4c0 1 0 1.9.2 2.9.1 1 .3 1.9.6 2.9l-4.7 2.7 5 8.6 4.7-2.7c1.3 1.4 2.9 2.6 4.6 3.6l-1.4 5.1 9.7 2.7 1.4-5.1c1 0 1.9 0 2.9-.1s1.9-.3 2.9-.6l2.7 4.7 8.7-4.9-2.7-4.7c1.4-1.3 2.6-2.9 3.6-4.6l5.2 1.4 2.7-9.6-5.2-1.4c-.2-1-.2-2-.4-3zM36.1 47c-4.5.6-8.7-2.7-9.3-7.1-.6-4.5 2.7-8.6 7.2-9.2 4.5-.6 8.7 2.7 9.3 7.1.5 4.5-2.7 8.6-7.2 9.2z" fill="url(#b)"/><linearGradient id="c" gradientUnits="userSpaceOnUse" x1="45.122" y1="74.229" x2="58.575" y2="87.683" gradientTransform="matrix(1 0 0 -1 0 102)"><stop offset="0" stop-color="#fff"/><stop offset=".35" stop-color="#fafbfb"/><stop offset=".532" stop-color="#edf1f4"/><stop offset=".675" stop-color="#dde5e9"/><stop offset=".799" stop-color="#c7d3da"/><stop offset=".908" stop-color="#adbdc7"/><stop offset="1" stop-color="#92a5b0"/></linearGradient><path d="M45.1 1L72 27.7H45.1V1z" fill="url(#c)"/><path d="M45.1 1L72 27.7H45.1V1z" fill-opacity="0" stroke="#7191a1" stroke-width="2" stroke-linejoin="bevel"/></svg>