<svg id="Layer_1" xmlns="http://www.w3.org/2000/svg" viewBox="0 0 72 55"><style>.st0{fill:url(#SVGID_1_)}.st0,.st1,.st2{stroke:#434242;stroke-width:1.25;stroke-miterlimit:10}.st1{fill:url(#SVGID_2_)}.st2{fill:#434242}</style><linearGradient id="SVGID_1_" gradientUnits="userSpaceOnUse" x1="35.943" y1="56.21" x2="35.943" y2="38.664" gradientTransform="matrix(1 0 0 -1 0 57)"><stop offset="0" stop-color="#fcfcfd"/><stop offset="1" stop-color="#fff"/></linearGradient><path class="st0" d="M2.6 18.3V2.5c0-.9.7-1.7 1.7-1.7h23.3l6.7 5h33.3c.9 0 1.7.8 1.7 1.7v10.9H2.6z"/><linearGradient id="SVGID_2_" gradientUnits="userSpaceOnUse" x1="35.943" y1="54.263" x2="35.943" y2="9.981"><stop offset=".109" stop-color="#debe00"/><stop offset=".532" stop-color="#cfad04"/><stop offset="1" stop-color="#a07802"/></linearGradient><path class="st1" d="M4.3 54.3h63.3c.9 0 1.6-.8 1.7-1.7L71 11.7c0-.9-.7-1.7-1.7-1.7h-25l-6.7 5h-35c-.9 0-1.7.8-1.7 1.7l1.7 35.9c.1.9.8 1.7 1.7 1.7z"/><path class="st2" d="M7.6 4.1h18.3c.9 0 1.7.8 1.7 1.7s-.7 1.7-1.7 1.7H7.6c-.9 0-1.7-.8-1.7-1.7s.8-1.7 1.7-1.7z"/></svg>