<svg xmlns="http://www.w3.org/2000/svg" viewBox="0 0 72 100"><linearGradient id="a" gradientUnits="userSpaceOnUse" x1="36.108" y1="3.003" x2="36.108" y2="101.001" gradientTransform="matrix(1 0 0 -1 0 102)"><stop offset="0" stop-color="#c8d4db"/><stop offset=".139" stop-color="#d8e1e6"/><stop offset=".359" stop-color="#ebf0f3"/><stop offset=".617" stop-color="#f9fafb"/><stop offset="1" stop-color="#fff"/></linearGradient><path d="M45.1 1L72 27.7V99H.2V1h44.9z" fill="url(#a)"/><path d="M45.1 1L72 27.7V99H.2V1h44.9z" stroke="#7191a1" stroke-width="2" fill="none"/><linearGradient id="b" gradientUnits="userSpaceOnUse" x1="28.635" y1="36.961" x2="28.635" y2="61.539"><stop offset="0" stop-color="#7291a1"/><stop offset="1" stop-color="#cad5db"/></linearGradient><path d="M42.6 59H21.4c-2.3 0-4.2-1.9-4.2-4.2s1.9-4.2 4.2-4.2h8.2c3.7 0 6.8-3 6.8-6.8s-3-6.8-6.8-6.8h-4.5c.1.4.1.8.1 1.3s0 .9-.1 1.3h4.5c2.3 0 4.2 1.9 4.2 4.2S32 48 29.7 48h-8.2c-3.7 0-6.8 3-6.8 6.8s3 6.8 6.8 6.8h21.2c-.1-.4-.1-.8-.1-1.3s-.1-.9 0-1.3z" fill="url(#b)"/><linearGradient id="c" gradientUnits="userSpaceOnUse" x1="49.111" y1="56.211" x2="49.111" y2="64.289"><stop offset="0" stop-color="#7291a1"/><stop offset="1" stop-color="#cad5db"/></linearGradient><path d="M49.1 56.2c-2.2 0-4 1.8-4 4s1.8 4 4 4 4-1.8 4-4-1.8-4-4-4z" fill="url(#c)"/><linearGradient id="d" gradientUnits="userSpaceOnUse" x1="21.439" y1="23.211" x2="21.439" y2="42.289"><stop offset="0" stop-color="#7291a1"/><stop offset="1" stop-color="#cad5db"/></linearGradient><path d="M26.9 23.2h-8.2c-.7 0-1.3.6-1.3 1.3v9.9c-1.6.5-2.8 2.1-2.8 3.8 0 2.2 1.8 4 4 4s4-1.8 4-4c0-1.8-1.2-3.3-2.8-3.8v-3.1h7c.7 0 1.3-.6 1.3-1.3v-5.5c.1-.7-.4-1.3-1.2-1.3z" fill="url(#d)"/><linearGradient id="e" gradientUnits="userSpaceOnUse" x1="49.111" y1="25.961" x2="49.111" y2="53.288"><stop offset="0" stop-color="#7291a1"/><stop offset="1" stop-color="#cad5db"/></linearGradient><path d="M49.1 26c-5.3 0-9.5 4.3-9.5 9.5 0 2.8 1.2 5.5 3.4 7.3l5 9.8c.5.9 1.8.9 2.3 0l5-9.8c2.2-1.8 3.4-4.5 3.4-7.3 0-5.3-4.3-9.5-9.6-9.5zm0 13.5c-2.2 0-4-1.8-4-4s1.8-4 4-4 4 1.8 4 4-1.8 4-4 4z" fill="url(#e)"/><path d="M17.1 83.8v-3.3h8.7v7.9c-.8.8-2.1 1.5-3.7 2.1s-3.2.9-4.9.9c-2.1 0-3.9-.4-5.5-1.3-1.5-.9-2.7-2.1-3.4-3.7-.8-1.6-1.2-3.4-1.2-5.3 0-2.1.4-3.9 1.3-5.5s2.1-2.8 3.8-3.7c1.3-.7 2.9-1 4.8-1 2.5 0 4.4.5 5.8 1.5s2.3 2.5 2.7 4.3l-4 .7c-.3-1-.8-1.7-1.6-2.3-.8-.6-1.7-.8-2.9-.8-1.8 0-3.2.6-4.2 1.7s-1.6 2.8-1.6 4.9c0 2.4.5 4.1 1.6 5.3 1.1 1.2 2.4 1.8 4.1 1.8.8 0 1.7-.2 2.5-.5s1.6-.7 2.2-1.2v-2.5h-4.5zm12.4-12.6h7.4c1.7 0 2.9.1 3.8.4 1.2.3 2.2 1 3 1.8s1.5 1.9 1.9 3.2c.4 1.3.7 2.8.7 4.7 0 1.6-.2 3-.6 4.2-.5 1.4-1.2 2.6-2.1 3.5-.7.7-1.6 1.2-2.8 1.6-.9.3-2.1.4-3.6.4h-7.6V71.2zm4 3.4v13.1h3c1.1 0 1.9-.1 2.4-.2.7-.2 1.2-.4 1.6-.8s.8-1 1.1-1.9c.3-.9.4-2.1.4-3.6s-.1-2.7-.4-3.5c-.3-.8-.7-1.5-1.1-1.9-.5-.5-1.1-.8-1.9-.9-.6-.1-1.7-.2-3.3-.2h-1.8zm16.1 16.5V71.2h6.5c2.5 0 4.1.1 4.8.3 1.1.3 2.1.9 2.9 1.9.8 1 1.2 2.3 1.2 3.9 0 1.2-.2 2.2-.7 3.1-.4.8-1 1.5-1.7 2s-1.4.8-2.1.9c-1 .2-2.4.3-4.2.3h-2.6v7.5h-4.1zm4.1-16.5v5.6h2.2c1.6 0 2.7-.1 3.2-.3.5-.2 1-.5 1.3-1 .3-.4.5-1 .5-1.5 0-.7-.2-1.3-.6-1.8-.4-.5-1-.8-1.6-.9-.5-.1-1.4-.1-2.9-.1h-2.1z" fill="#4c6c7b"/><linearGradient id="f" gradientUnits="userSpaceOnUse" x1="45.122" y1="74.229" x2="58.575" y2="87.683" gradientTransform="matrix(1 0 0 -1 0 102)"><stop offset="0" stop-color="#fff"/><stop offset=".35" stop-color="#fafbfb"/><stop offset=".532" stop-color="#edf1f4"/><stop offset=".675" stop-color="#dde5e9"/><stop offset=".799" stop-color="#c7d3da"/><stop offset=".908" stop-color="#adbdc7"/><stop offset="1" stop-color="#92a5b0"/></linearGradient><path d="M45.1 1L72 27.7H45.1V1z" fill="url(#f)"/><path d="M45.1 1L72 27.7H45.1V1z" stroke="#7191a1" stroke-width="2" stroke-linejoin="bevel" fill="none"/></svg>