<svg xmlns="http://www.w3.org/2000/svg" viewBox="0 0 72 100"><linearGradient id="a" gradientUnits="userSpaceOnUse" x1="36.108" y1="3.003" x2="36.108" y2="101.001" gradientTransform="matrix(1 0 0 -1 0 102)"><stop offset="0" stop-color="#c8d4db"/><stop offset=".139" stop-color="#d8e1e6"/><stop offset=".359" stop-color="#ebf0f3"/><stop offset=".617" stop-color="#f9fafb"/><stop offset="1" stop-color="#fff"/></linearGradient><path d="M45.1 1L72 27.7V99H.2V1h44.9z" fill="url(#a)"/><path d="M45.1 1L72 27.7V99H.2V1h44.9z" stroke="#7191a1" stroke-width="2" fill="none"/><path d="M10.2 87.1v-1.8H15v4.3c-.5.4-1.1.8-2 1.2-.9.3-1.7.5-2.6.5-1.1 0-2.1-.2-3-.7-.8-.5-1.5-1.1-1.9-2-.4-.9-.6-1.8-.6-2.9 0-1.1.2-2.1.7-3 .5-.9 1.2-1.5 2.1-2 .7-.4 1.6-.5 2.6-.5 1.3 0 2.4.3 3.1.8.8.6 1.2 1.3 1.5 2.3l-2.2.4c-.2-.5-.4-.9-.9-1.2-.4-.3-.9-.5-1.6-.5-1 0-1.7.3-2.3.9-.6.6-.8 1.5-.8 2.7 0 1.3.3 2.2.9 2.9.6.6 1.3 1 2.2 1 .5 0 .9-.1 1.4-.3.5-.2.9-.4 1.2-.6v-1.4h-2.6zm6.8 4V80.3h4.6c1.2 0 2 .1 2.5.3.5.2.9.5 1.3 1s.5 1.1.5 1.7c0 .8-.2 1.5-.7 2-.5.5-1.2.9-2.1 1 .5.3.9.6 1.2.9.3.3.7.9 1.2 1.7l1.3 2.1h-2.6l-1.6-2.3c-.6-.8-.9-1.4-1.2-1.6-.2-.2-.4-.4-.7-.4-.2-.1-.6-.1-1.1-.1h-.4v4.5H17zm2.2-6.2h1.6c1 0 1.7 0 2-.1s.5-.2.6-.5.2-.5.2-.8c0-.4-.1-.7-.3-.9-.2-.2-.5-.4-.8-.4h-3.3v2.7zm18.4 6.2h-2.4l-.9-2.4H30l-.9 2.4h-2.3L31 80.3h2.3l4.3 10.8zm-4-4.3l-1.5-4-1.5 4h3zm5.2-6.5h4c.9 0 1.6.1 2.1.2.6.2 1.2.5 1.6 1s.8 1.1 1 1.7c.2.7.4 1.5.4 2.5 0 .9-.1 1.6-.3 2.3-.3.8-.7 1.4-1.2 1.9-.4.4-.9.7-1.5.9-.5.2-1.1.2-1.9.2h-4.1V80.3zm2.2 1.8v7.1h1.6c.6 0 1 0 1.3-.1.4-.1.6-.2.9-.4.2-.2.4-.6.6-1 .1-.5.2-1.1.2-2s-.1-1.5-.2-1.9c-.1-.4-.4-.8-.6-1-.3-.2-.6-.4-1-.5-.3-.1-.9-.1-1.8-.1h-1zm8.7 9V80.4h2.2v8.8h5.4V91h-7.6zm9.2 0V80.3h8v1.8h-5.8v2.4h5.4v1.8h-5.4v2.9h6V91h-8.2z" fill="#4c6c7b"/><linearGradient id="b" gradientUnits="userSpaceOnUse" x1="37.5" y1="69.969" x2="37.5" y2="32.031"><stop offset="0" stop-color="#adccdc"/><stop offset="1" stop-color="#4c6c7b"/></linearGradient><path d="M60.1 36.1c-1.7-3.1-4.7-4-6.9-4-2.6 0-4.8 1.4-4.4 2.4.1.2.6 1.3.9 1.7.5.7 1.3.1 1.5 0 .8-.5 1.7-.6 2.6-.5.9.1 2.2.7 3.1 2.3 2 3.8-4.1 11.7-11.8 6.2-7.8-5.4-15.3-3.7-18.7-2.5-3.4 1.1-4.9 2.2-3.6 4.7 1.8 3.4 1.3 2.4 3 5.3 2.8 4.6 9-2.1 9-2.1-4.6 6.8-8.5 5.2-10 2.8-1.4-2.1-2.4-4.6-2.4-4.6C10.8 51.9 13.9 70 13.9 70h5.7c1.5-6.7 6.7-6.4 7.6 0h4.4c3.9-13 13.7 0 13.7 0H51c-1.6-8.9 3.2-11.6 6.2-16.8 3.2-5.3 6.1-11.6 2.9-17.1zM45.3 53.2c-3-1-2-4-2-4s2.6.8 6.2 2.1c-.1.7-1.9 2.6-4.2 1.9z" fill="url(#b)"/><linearGradient id="c" gradientUnits="userSpaceOnUse" x1="45.122" y1="74.229" x2="58.575" y2="87.683" gradientTransform="matrix(1 0 0 -1 0 102)"><stop offset="0" stop-color="#fff"/><stop offset=".35" stop-color="#fafbfb"/><stop offset=".532" stop-color="#edf1f4"/><stop offset=".675" stop-color="#dde5e9"/><stop offset=".799" stop-color="#c7d3da"/><stop offset=".908" stop-color="#adbdc7"/><stop offset="1" stop-color="#92a5b0"/></linearGradient><path d="M45.1 1L72 27.7H45.1V1z" fill="url(#c)"/><path d="M45.1 1L72 27.7H45.1V1z" stroke="#7191a1" stroke-width="2" stroke-linejoin="bevel" fill="none"/></svg>