<svg xmlns="http://www.w3.org/2000/svg" viewBox="0 0 72 100"><linearGradient id="a" gradientUnits="userSpaceOnUse" x1="36.108" y1="3.003" x2="36.108" y2="101.001" gradientTransform="matrix(1 0 0 -1 0 102)"><stop offset="0" stop-color="#c8d4db"/><stop offset=".139" stop-color="#d8e1e6"/><stop offset=".359" stop-color="#ebf0f3"/><stop offset=".617" stop-color="#f9fafb"/><stop offset="1" stop-color="#fff"/></linearGradient><path d="M45.1 1L72 27.7V99H.2V1h44.9z" fill="url(#a)"/><path d="M45.1 1L72 27.7V99H.2V1h44.9z" stroke="#7191a1" stroke-width="2" fill="none"/><path d="M27.7 91.1V71.2h4V79h7.9v-7.8h4V91h-4v-8.7h-7.9V91h-4z" fill="#4c6c7b"/><g opacity=".85"><linearGradient id="b" gradientUnits="userSpaceOnUse" x1="60.15" y1="42" x2="13.15" y2="42"><stop offset="0" stop-color="#adccdc"/><stop offset=".082" stop-color="#a0c0cf"/><stop offset=".35" stop-color="#7c9bab"/><stop offset=".602" stop-color="#628191"/><stop offset=".826" stop-color="#527281"/><stop offset="1" stop-color="#4c6c7b"/></linearGradient><linearGradient id="c" gradientUnits="userSpaceOnUse" x1="60.525" y1="42" x2="12.775" y2="42"><stop offset="0" stop-color="#adccdc"/><stop offset=".082" stop-color="#a0c0cf"/><stop offset=".35" stop-color="#7c9bab"/><stop offset=".602" stop-color="#628191"/><stop offset=".826" stop-color="#527281"/><stop offset="1" stop-color="#4c6c7b"/></linearGradient><path d="M60.1 18.5h-47v47h47v-47zm-2.6 44.3H15.8V27.6h41.6v35.2z" fill="url(#b)" stroke="url(#c)" stroke-width=".75" stroke-miterlimit="10"/><linearGradient id="d" gradientUnits="userSpaceOnUse" x1="53.436" y1="34.128" x2="19.864" y2="34.128"><stop offset="0" stop-color="#adccdc"/><stop offset=".082" stop-color="#a0c0cf"/><stop offset=".35" stop-color="#7c9bab"/><stop offset=".602" stop-color="#628191"/><stop offset=".826" stop-color="#527281"/><stop offset="1" stop-color="#4c6c7b"/></linearGradient><linearGradient id="e" gradientUnits="userSpaceOnUse" x1="53.936" y1="34.128" x2="19.364" y2="34.128"><stop offset="0" stop-color="#adccdc"/><stop offset=".082" stop-color="#a0c0cf"/><stop offset=".35" stop-color="#7c9bab"/><stop offset=".602" stop-color="#628191"/><stop offset=".826" stop-color="#527281"/><stop offset="1" stop-color="#4c6c7b"/></linearGradient><path fill="url(#d)" stroke="url(#e)" stroke-miterlimit="10" d="M19.9 31.8h33.6v4.7H19.9z"/><linearGradient id="f" gradientUnits="userSpaceOnUse" x1="45.75" y1="40.386" x2="25.25" y2="40.386"><stop offset="0" stop-color="#adccdc"/><stop offset=".082" stop-color="#a0c0cf"/><stop offset=".35" stop-color="#7c9bab"/><stop offset=".602" stop-color="#628191"/><stop offset=".826" stop-color="#527281"/><stop offset="1" stop-color="#4c6c7b"/></linearGradient><path d="M25.2 39.4h20.5v2H25.2v-2z" fill="url(#f)"/><linearGradient id="g" gradientUnits="userSpaceOnUse" x1="48.75" y1="46.261" x2="28.25" y2="46.261"><stop offset="0" stop-color="#adccdc"/><stop offset=".082" stop-color="#a0c0cf"/><stop offset=".35" stop-color="#7c9bab"/><stop offset=".602" stop-color="#628191"/><stop offset=".826" stop-color="#527281"/><stop offset="1" stop-color="#4c6c7b"/></linearGradient><path d="M28.2 45.2h20.5v2H28.2v-2z" fill="url(#g)"/><linearGradient id="h" gradientUnits="userSpaceOnUse" x1="45.75" y1="52.261" x2="25.25" y2="52.261"><stop offset="0" stop-color="#adccdc"/><stop offset=".082" stop-color="#a0c0cf"/><stop offset=".35" stop-color="#7c9bab"/><stop offset=".602" stop-color="#628191"/><stop offset=".826" stop-color="#527281"/><stop offset="1" stop-color="#4c6c7b"/></linearGradient><path d="M25.2 51.2h20.5v2H25.2v-2z" fill="url(#h)"/><linearGradient id="i" gradientUnits="userSpaceOnUse" x1="48.75" y1="58.386" x2="28.25" y2="58.386"><stop offset="0" stop-color="#adccdc"/><stop offset=".082" stop-color="#a0c0cf"/><stop offset=".35" stop-color="#7c9bab"/><stop offset=".602" stop-color="#628191"/><stop offset=".826" stop-color="#527281"/><stop offset="1" stop-color="#4c6c7b"/></linearGradient><path d="M28.2 57.4h20.5v2H28.2v-2z" fill="url(#i)"/></g><linearGradient id="j" gradientUnits="userSpaceOnUse" x1="45.122" y1="74.229" x2="58.575" y2="87.683" gradientTransform="matrix(1 0 0 -1 0 102)"><stop offset="0" stop-color="#fff"/><stop offset=".35" stop-color="#fafbfb"/><stop offset=".532" stop-color="#edf1f4"/><stop offset=".675" stop-color="#dde5e9"/><stop offset=".799" stop-color="#c7d3da"/><stop offset=".908" stop-color="#adbdc7"/><stop offset="1" stop-color="#92a5b0"/></linearGradient><path d="M45.1 1L72 27.7H45.1V1z" fill="url(#j)"/><path d="M45.1 1L72 27.7H45.1V1z" stroke="#7191a1" stroke-width="2" stroke-linejoin="bevel" fill="none"/></svg>