<svg id="Layer_1" xmlns="http://www.w3.org/2000/svg" viewBox="0 0 72 100"><style>.st0{opacity:.99}</style><g class="st0"><linearGradient id="SVGID_1_" gradientUnits="userSpaceOnUse" x1="36.2" y1="3.005" x2="36.2" y2="101" gradientTransform="matrix(1 0 0 -1 0 102)"><stop offset="0" stop-color="#006b69"/><stop offset=".124" stop-color="#00807f"/><stop offset=".262" stop-color="#009393"/><stop offset=".41" stop-color="#00a3a3"/><stop offset=".571" stop-color="#00b0af"/><stop offset=".752" stop-color="#08b8b7"/><stop offset="1" stop-color="#14bbbb"/></linearGradient><path d="M45.2 1l26.9 26.7V99H.3V1h44.9z" fill="url(#SVGID_1_)"/><path d="M45.2 1l26.9 26.7V99H.3V1h44.9z" fill-opacity="0" stroke="#006e6c" stroke-width="2"/></g><path d="M9 91.1V73.9h3.5v17.2H9zm17.9-6.3l3.4 1.1c-.5 1.9-1.4 3.3-2.6 4.2-1.2.9-2.7 1.4-4.6 1.4-2.3 0-4.2-.8-5.7-2.3s-2.2-3.7-2.2-6.4c0-2.9.7-5.1 2.2-6.7 1.5-1.6 3.4-2.4 5.9-2.4 2.1 0 3.8.6 5.2 1.9.8.7 1.4 1.8 1.8 3.2l-3.5.8c-.2-.9-.6-1.6-1.3-2.1s-1.4-.8-2.4-.8c-1.3 0-2.3.5-3.1 1.4-.8.9-1.2 2.4-1.2 4.4 0 2.2.4 3.7 1.2 4.6s1.8 1.4 3.1 1.4c.9 0 1.7-.3 2.4-.9s1.1-1.6 1.4-2.8zm6.4 6.3V73.9h3.4l7.1 11.5V73.9H47v17.2h-3.5l-7-11.2v11.2h-3.2zm16.5-5.6l3.4-.3c.2 1.1.6 2 1.2 2.5s1.5.8 2.5.8c1.1 0 2-.2 2.5-.7s.9-1 .9-1.7c0-.4-.1-.8-.4-1s-.7-.5-1.3-.7c-.4-.1-1.3-.4-2.8-.8-1.9-.5-3.2-1-3.9-1.7-1.1-.9-1.6-2.1-1.6-3.5 0-.9.2-1.7.8-2.5.5-.8 1.2-1.3 2.2-1.7s2.1-.6 3.4-.6c2.2 0 3.8.5 4.9 1.4 1.1.9 1.7 2.2 1.7 3.8l-3.5.2c-.1-.9-.5-1.5-1-1.9-.5-.4-1.2-.6-2.2-.6-1 0-1.8.2-2.4.6-.4.3-.6.6-.6 1.1 0 .4.2.8.5 1 .4.4 1.5.8 3.2 1.1 1.7.4 3 .8 3.8 1.2.8.4 1.5 1 1.9 1.7s.7 1.7.7 2.7c0 1-.3 1.9-.8 2.8s-1.3 1.5-2.3 1.9-2.3.6-3.8.6c-2.2 0-3.9-.5-5-1.5s-1.8-2.3-2-4.2z" fill="#fff"/><g class="st0"><linearGradient id="SVGID_2_" gradientUnits="userSpaceOnUse" x1="45.214" y1="74.229" x2="58.667" y2="87.682" gradientTransform="matrix(1 0 0 -1 0 102)"><stop offset="0" stop-color="#d6ede8"/><stop offset=".297" stop-color="#d3ebe6"/><stop offset=".44" stop-color="#c7e3df"/><stop offset=".551" stop-color="#b7d8d5"/><stop offset=".645" stop-color="#a0cbc9"/><stop offset=".729" stop-color="#84bab9"/><stop offset=".804" stop-color="#62a7a7"/><stop offset=".874" stop-color="#349394"/><stop offset=".938" stop-color="#007f7f"/><stop offset=".998" stop-color="#006b6a"/><stop offset="1" stop-color="#006b69"/></linearGradient><path d="M45.2 1l26.9 26.7H45.2V1z" fill="url(#SVGID_2_)"/><path d="M45.2 1l26.9 26.7H45.2V1z" fill-opacity="0" stroke="#006e6c" stroke-width="2" stroke-linejoin="bevel"/></g><linearGradient id="SVGID_3_" gradientUnits="userSpaceOnUse" x1="36.118" y1="63.158" x2="36.118" y2="15.82"><stop offset=".005" stop-color="#008281"/><stop offset=".343" stop-color="#006a69"/><stop offset="1" stop-color="#003836"/></linearGradient><path d="M35.8 16.2c.2-.5.4-.5.6 0l5.4 16.7c.2.5.6.9 1.2.9h17.6c.5 0 .6.2.2.5L46.5 44.6c-.4.3-.6.9-.4 1.4l5.4 16.7c.2.5-.1.6-.4.3L36.8 52.7c-.4-.3-1-.3-1.5 0L21.2 63c-.4.3-.6.1-.4-.3L26.2 46c.1-.5 0-1.1-.4-1.4L11.5 34.3c-.4-.3-.3-.5.2-.5h17.6c.5 0 1-.4 1.2-.9l5.3-16.7z" fill="url(#SVGID_3_)"/></svg>