<svg id="Layer_1" xmlns="http://www.w3.org/2000/svg" viewBox="0 0 72 100"><style>.st5{fill:#4c6c7b;opacity:.95;enable-background:new}</style><linearGradient id="SVGID_1_" gradientUnits="userSpaceOnUse" x1="36.108" y1="3.003" x2="36.108" y2="101.001" gradientTransform="matrix(1 0 0 -1 0 102)"><stop offset="0" stop-color="#c8d4db"/><stop offset=".139" stop-color="#d8e1e6"/><stop offset=".359" stop-color="#ebf0f3"/><stop offset=".617" stop-color="#f9fafb"/><stop offset="1" stop-color="#fff"/></linearGradient><path d="M45.1 1L72 27.7V99H.2V1h44.9z" fill="url(#SVGID_1_)"/><path d="M45.1 1L72 27.7V99H.2V1h44.9z" fill-opacity="0" stroke="#7191a1" stroke-width="2"/><path d="M16.4 90.2V70.3h4v19.8h-4zm7.9 0V70.3H38v3.4h-9.7v4.7h8.3v3.4h-8.3v8.4h-4zm16.2-9.8c0-2 .3-3.7.9-5.1.5-1 1.1-1.9 1.9-2.7.8-.8 1.6-1.4 2.6-1.8 1.2-.5 2.7-.8 4.3-.8 2.9 0 5.3.9 7.1 2.7S60 77 60 80.3c0 3.2-.9 5.7-2.6 7.5s-4.1 2.7-7 2.7c-3 0-5.3-.9-7.1-2.7-1.9-1.8-2.8-4.3-2.8-7.4zm4.1-.2c0 2.2.5 3.9 1.6 5.1 1 1.2 2.4 1.7 4 1.7s2.9-.6 4-1.7c1-1.2 1.5-2.9 1.5-5.2 0-2.3-.5-4-1.5-5.1-1-1.1-2.3-1.7-4-1.7s-3 .6-4 1.7c-1 1.2-1.6 3-1.6 5.2z" fill="#4c6c7b"/><linearGradient id="SVGID_2_" gradientUnits="userSpaceOnUse" x1="36.75" y1="20.706" x2="36.75" y2="61.294"><stop offset="0" stop-color="#adccdc"/><stop offset="1" stop-color="#4c6c7b"/></linearGradient><path d="M36.8 20.7c-11.3 0-20.5 9.1-20.5 20.3s9.2 20.3 20.5 20.3S57.3 52.2 57.3 41 48 20.7 36.8 20.7zm0 27.2c-3.9 0-7-3.2-7-6.9 0-3.9 3.2-6.9 7-6.9 3.9 0 7 3.2 7 6.9 0 3.9-3.1 6.9-7 6.9z" opacity=".95" fill="url(#SVGID_2_)"/><path class="st5" d="M36.8 38.5c-1.5 0-2.6 1.2-2.6 2.5 0 1.4 1.2 2.5 2.6 2.5 1.5 0 2.6-1.2 2.6-2.5-.1-1.4-1.2-2.5-2.6-2.5zm0 3.4c-.5 0-.9-.4-.9-.9s.4-.9.9-.9.9.4.9.9-.5.9-.9.9z"/><path class="st5" d="M36.8 33.4c-4.3 0-7.7 3.4-7.7 7.6 0 4.2 3.5 7.6 7.7 7.6 4.3 0 7.7-3.4 7.7-7.6 0-4.2-3.5-7.6-7.7-7.6zm0 13.9c-3.6 0-6.4-2.8-6.4-6.3s2.8-6.3 6.4-6.3c3.6 0 6.4 2.8 6.4 6.3s-2.9 6.3-6.4 6.3z"/><linearGradient id="SVGID_3_" gradientUnits="userSpaceOnUse" x1="45.122" y1="74.229" x2="58.575" y2="87.683" gradientTransform="matrix(1 0 0 -1 0 102)"><stop offset="0" stop-color="#fff"/><stop offset=".35" stop-color="#fafbfb"/><stop offset=".532" stop-color="#edf1f4"/><stop offset=".675" stop-color="#dde5e9"/><stop offset=".799" stop-color="#c7d3da"/><stop offset=".908" stop-color="#adbdc7"/><stop offset="1" stop-color="#92a5b0"/></linearGradient><path d="M45.1 1L72 27.7H45.1V1z" fill="url(#SVGID_3_)"/><path d="M45.1 1L72 27.7H45.1V1z" fill-opacity="0" stroke="#7191a1" stroke-width="2" stroke-linejoin="bevel"/></svg>