<svg xmlns="http://www.w3.org/2000/svg" viewBox="0 0 72 100"><linearGradient id="a" gradientUnits="userSpaceOnUse" x1="36" y1="97" x2="36" y2="-1" gradientTransform="translate(0 2)"><stop offset="0" stop-color="#c8d4db"/><stop offset=".139" stop-color="#d8e1e6"/><stop offset=".359" stop-color="#ebf0f3"/><stop offset=".617" stop-color="#f9fafb"/><stop offset="1" stop-color="#fff"/></linearGradient><path d="M45 1l27 26.7V99H0V1h45z" fill="url(#a)"/><path d="M45 1l27 26.7V99H0V1h45z" fill-opacity="0" stroke="#7191a1" stroke-width="2"/><linearGradient id="b" gradientUnits="userSpaceOnUse" x1="38" y1="65" x2="38" y2="24"><stop offset="0" stop-color="#adccdc"/><stop offset="1" stop-color="#4c6c7b"/></linearGradient><path d="M59.4 24s-8.4 4-15.2 4.9c-6.8.9-19.8 1.8-22.4 1.1-2.6-.6-4.4-1.4-4.4-1.4l.5 1.8-1.7 1.5.3.5.7.1 2.1.3.3.9 1.2.1.6 2s2.5.2 3.2.2c.7 0 2.2-.1 2.2-.1v.8l.5.1v.9l-1.2 1 .3.1v.4s-2.6.2-3.7.1c-.9-.3-1.1-.3-1.1-.3l-.1.1v.5h.2l.1 2 5.4-.2-.4 7v.9l-4.6-.3v-1.9h1l.1-.7.9-.2.1-.2-3.5-.8-2.6.8.4.4h.4v.6l.9.1v1.8l-1 .3.2.4.2.2v1.4h.6v6.5l-1 .2.1 1.9.6.1-.1 4.3 2.8.1-.3-4.5 4.2-.1-.3 2.3-.4 1.6 4.2.1v-4.2l2.9-.3-.1 2.6-.1 1.6h2.5l-.1-4.3.3.1.1-2h-.4l-.1-.8-.2-2.4.1-2.8h.5v-1.7l-.7.1.1-2 .8-.1v-.6l.4-.1.5-.4-2.8-.6-2.8.6.4.6h.6l.1.8h.8v1.7l-3.3-.1.1-1.9.1-1.7v-2.2l.1-2.3 6.6-.3 7.9-.5V42l-.3 3.6-.1 3.3-2.9-.1v-2.3h1.1v-.7l.4-.1v-.1h.4l.2-.3-3.3-.8-3.3.7.2.4h.4v.2h.4v.7h1v2.1h-1v.5h.3v1.8h.7l-.1 7.1-.9.2v.3h.3v1.8h.5l-.1 2.5.1 2.1 3.5.1-.1-1.9-.4-1.5v-1.4l2.9-.1-.1 2.1v2.2l1.7.1 2.3-.1.7-.2-.4-1.2-.1-1.7-.2-1.3 2.8-.1-.1 1.6V64l1.1.1h1.1l.5-.2-.3-2.4-.1-1.8.5-.1V58h.1v-.4h-.5l-.1-1.2v-5.2h.4v-1.7h.2v-.3l-.6-.1v-2l1-.1-.1-.7h.4v-.1l.6-.3-3-.6-3.2.7.2.4h.5v.2h.4v.8h1l.1 1.9h-3.5l-.4-2.9-.3-1.5-.3-2.9.2-1.6 7-.5v-2.4l.4-.1V37l-.3-.2s-3.8.6-5.1.7c-.3 0-.3 0-.6.1v-.4l-1.5-.8v-.9h.5v-1.2s3-.2 4.1-.5c1.1-.3 2.7-.5 2.7-.5l.7-2 1.5-.4.1-.3 3.3-.9.4-.3-1.3-2.8.1-.6.6-.3.5-1.4-.1-.3zm-16 10.5v1h.8v1l-1.5 1-.1.3h.6v.2l-4.5.2v-.7l.2-.3v-.7l.1-.3v-.4l.2-.8 4.2-.5zm-9.4.9l-.1.7.4.4v.7l.3.5-.1.6.2.4-4.6.2v-.2l.5-.1v-.2l-1.2-.6-.1-1h.6v-1.1l4.1-.3zM40.8 51l2.8.2-.1 3.8.4 3.1-3-.1-.1-7zm-18.7.1l4.5.2-.5 2.7v2.2l.3 1.2-4.4.2.1-6.5zm28.6.1v6.4l-2.8.2-.1-3.4-.3-3.2h3.2zm-21.5.1h3.3v6l-3.1.1-.2-1.9v-4.2z" fill="url(#b)"/><linearGradient id="c" gradientUnits="userSpaceOnUse" x1="45.037" y1="25.813" x2="58.537" y2="12.313" gradientTransform="translate(0 2)"><stop offset="0" stop-color="#fff"/><stop offset=".35" stop-color="#fafbfb"/><stop offset=".532" stop-color="#edf1f4"/><stop offset=".675" stop-color="#dde5e9"/><stop offset=".799" stop-color="#c7d3da"/><stop offset=".908" stop-color="#adbdc7"/><stop offset="1" stop-color="#92a5b0"/></linearGradient><path d="M45 1l27 26.7H45V1z" fill="url(#c)"/><path d="M45 1l27 26.7H45V1z" fill-opacity="0" stroke="#7191a1" stroke-width="2" stroke-linejoin="bevel"/><path d="M29.2 71.8h4v12.7c0 1.7-.1 2.9-.4 3.8-.4 1.2-1.1 2.1-2.1 2.8-1 .7-2.4 1.1-4.1 1.1-2 0-3.5-.6-4.6-1.7s-1.6-2.7-1.6-4.9l3.8-.4c0 1.1.2 2 .5 2.4.4.7 1.1 1.1 2 1.1.9 0 1.5-.3 1.9-.8.4-.5.6-1.6.6-3.2V71.8zm20.4 16.5v3.6H36.2c.1-1.3.6-2.6 1.3-3.8.7-1.2 2.2-2.8 4.3-4.8 1.7-1.6 2.8-2.7 3.2-3.3.5-.8.8-1.6.8-2.4 0-.9-.2-1.5-.7-2-.5-.5-1.1-.7-1.9-.7-.8 0-1.4.2-1.9.7-.5.5-.7 1.3-.8 2.4l-3.8-.4c.2-2.1.9-3.6 2.1-4.6s2.7-1.4 4.5-1.4c2 0 3.5.5 4.7 1.6 1.1 1.1 1.7 2.4 1.7 4 0 .9-.2 1.8-.5 2.6s-.8 1.7-1.5 2.6c-.5.6-1.3 1.4-2.5 2.6-1.2 1.1-2 1.9-2.3 2.2-.3.4-.6.7-.8 1.1h7.5z" fill="#4c6c7b"/></svg>