<svg xmlns="http://www.w3.org/2000/svg" viewBox="0 0 72 100"><linearGradient id="a" gradientUnits="userSpaceOnUse" x1="36" y1="3.125" x2="36" y2="100.875" gradientTransform="matrix(1 0 0 -1 0 102)"><stop offset="0" stop-color="#c8d4db"/><stop offset=".139" stop-color="#d8e1e6"/><stop offset=".359" stop-color="#ebf0f3"/><stop offset=".617" stop-color="#f9fafb"/><stop offset="1" stop-color="#fff"/></linearGradient><path d="M45 1.1l27 26.7v71.1H0V1.1h45z" fill="url(#a)"/><path d="M45 1.1l27 26.7v71.1H0V1.1h45z" fill-opacity="0" stroke="#7191a1" stroke-width="2"/><g opacity=".9"><linearGradient id="b" gradientUnits="userSpaceOnUse" x1="29.387" y1="28.043" x2="43.019" y2="28.043"><stop offset="0" stop-color="#adccdc"/><stop offset="1" stop-color="#4c6c7b"/></linearGradient><path d="M36.3 23.7c-2.3 1.6-5 3.5-6.4 6.6-2.5 5.3 5 11.2 5.3 11.4.1.1.2.1.3.1.1 0 .2 0 .3-.1.1-.1.2-.3.1-.5 0-.1-2.7-5.3-2.6-9 0-1.3 1.9-2.8 3.8-4.3 1.8-1.4 3.8-3.1 4.9-5 2.6-4.2-.3-8.3-.3-8.3-.1-.2-.3-.2-.5-.1s-.3.3-.2.5c0 0 .6 2.7-1 5.5-.7 1-2.1 2-3.7 3.2z" fill="url(#b)"/><linearGradient id="c" gradientUnits="userSpaceOnUse" x1="35.979" y1="34.176" x2="46.207" y2="34.176"><stop offset="0" stop-color="#adccdc"/><stop offset="1" stop-color="#4c6c7b"/></linearGradient><path d="M46 25.5c.2-.1.2-.3.1-.5s-.3-.3-.5-.2c-.4.2-9.7 3.7-9.7 8 0 3 1.3 4.6 2.2 5.7.4.5.7.8.8 1.2.3 1-.4 2.7-.7 3.3-.1.2 0 .4.1.5.1.1.2.1.3.1.1 0 .2 0 .2-.1.2-.1 3.9-2.8 3.2-5.9-.2-1.2-.8-2.1-1.4-2.9-.8-1.2-1.4-2.1-.5-3.7 1.2-1.9 5.9-5.5 5.9-5.5z" fill="url(#c)"/><linearGradient id="d" gradientUnits="userSpaceOnUse" x1="21.821" y1="44.351" x2="46.715" y2="44.351"><stop offset="0" stop-color="#adccdc"/><stop offset="1" stop-color="#4c6c7b"/></linearGradient><path d="M21.9 43.6c-.2.5-.1.9.2 1.4 1 1.4 4.6 2.2 10 2.2h2.3c8.7-.3 12-3 12.1-3.1.1-.1.2-.3.1-.5s-.3-.3-.5-.2c-3.1.8-8.8 1.1-12.8 1.1-4.5 0-6.7-.3-7.3-.6.3-.4 2-1.1 4.2-1.5.2 0 .4-.2.3-.4 0-.2-.2-.4-.4-.4-1.1-.1-7.5 0-8.2 2z" fill="url(#d)"/><linearGradient id="e" gradientUnits="userSpaceOnUse" x1="46.606" y1="46.149" x2="55.151" y2="46.149"><stop offset="0" stop-color="#adccdc"/><stop offset="1" stop-color="#4c6c7b"/></linearGradient><path d="M51.1 40.8c-1.8 0-3.5.9-3.6.9-.2.1-.3.3-.2.5 0 .2.2.3.4.3 0 0 3.8 0 4.2 2.2.3 1.9-3.6 4.9-5.1 5.9-.2.1-.2.3-.2.5.1.2.2.3.4.3h.1c.4-.1 8.9-2 8-6.9-.6-3-2.5-3.7-4-3.7z" fill="url(#e)"/><linearGradient id="f" gradientUnits="userSpaceOnUse" x1="25.341" y1="49.675" x2="45.284" y2="49.675"><stop offset="0" stop-color="#adccdc"/><stop offset="1" stop-color="#4c6c7b"/></linearGradient><path d="M45.3 50.1c0-.2 0-.3-.2-.4l-2-1.4c-.1-.1-.2-.1-.3-.1 0 0-2.2.6-5.3.9-1.2.1-2.6.2-4 .2-3.1 0-5.1-.4-5.4-.6v-.1c.1-.1.3-.3.5-.4.2-.1.3-.3.3-.5-.1-.2-.3-.3-.5-.3-2 .5-3.1 1.2-3 2.1.1 1.5 3.7 2.3 6.7 2.5h1.4c5 0 11.5-1.6 11.5-1.6.1 0 .2-.2.3-.3z" fill="url(#f)"/><linearGradient id="g" gradientUnits="userSpaceOnUse" x1="26.776" y1="55.039" x2="44.496" y2="55.039"><stop offset="0" stop-color="#adccdc"/><stop offset="1" stop-color="#4c6c7b"/></linearGradient><path d="M29.9 53.4c.2-.1.2-.3.2-.5-.1-.2-.2-.3-.4-.3-.3 0-2.7.1-2.9 1.7-.1.5.1.9.4 1.2.9 1 3.2 1.6 7.1 1.9h1.4c5 0 8.4-1.6 8.5-1.6.1-.1.2-.2.2-.4s-.1-.3-.2-.4l-2.6-1.6c-.1-.1-.2-.1-.3-.1 0 0-1.7.3-4.1.7-.5.1-1.1.1-1.7.1-2.5 0-5.2-.4-5.7-.7 0 .1 0 0 .1 0z" fill="url(#g)"/><linearGradient id="h" gradientUnits="userSpaceOnUse" x1="17.847" y1="59.175" x2="52.664" y2="59.175"><stop offset="0" stop-color="#adccdc"/><stop offset="1" stop-color="#4c6c7b"/></linearGradient><path d="M33.4 62.2c11.5 0 17.6-2.1 18.8-3.3.4-.5.5-.9.4-1.2-.1-.7-.7-1.1-.8-1.2-.2-.1-.4-.1-.5.1-.1.2-.1.4 0 .5.1.1.1.2-.1.5-.4.4-5.2 1.8-13.2 2.2-1.1.1-2.2.1-3.4.1-7.1 0-12.4-1-13-1.5.3-.4 2.1-1 4.1-1.3.2 0 .4-.2.3-.5 0-.2-.2-.4-.5-.3H25c-3.2.2-7 .6-7.2 2.3-.1.5.1 1 .4 1.4 1 .9 3.5 2.2 15.2 2.2z" fill="url(#h)"/><linearGradient id="i" gradientUnits="userSpaceOnUse" x1="25.011" y1="61.909" x2="54.718" y2="61.909"><stop offset="0" stop-color="#adccdc"/><stop offset="1" stop-color="#4c6c7b"/></linearGradient><path d="M54.5 59.2c-.2-.1-.4 0-.5.1 0 0-1.7 1.8-6.9 2.9-2 .4-5.7.6-11.1.6-5.4 0-10.5-.2-10.5-.2-.2 0-.4.1-.4.4 0 .2.1.4.3.5.1 0 5.4 1.3 12.7 1.3 3.5 0 6.9-.3 10.2-.8 6-1.1 6.5-4 6.5-4.2-.1-.3-.2-.5-.3-.6z" fill="url(#i)"/></g><path d="M13.3 73.8h3.5v10.9c0 1.4-.1 2.5-.4 3.3-.3 1-1 1.8-1.9 2.4s-2.1.9-3.5.9c-1.7 0-3-.5-4-1.4s-1.4-2.3-1.4-4.2l3.4-.4c0 1 .2 1.7.4 2.1.4.6 1 .9 1.7.9.8 0 1.3-.2 1.7-.7.3-.4.5-1.4.5-2.7V73.8zM36.2 91h-3.8l-1.5-3.9h-7L22.5 91h-3.7l6.8-17.2h3.7L36.2 91zm-6.5-6.8l-2.4-6.4-2.3 6.4h4.7zm11 6.8l-6.2-17.2h3.8l4.4 12.7L47 73.8h3.7L44.5 91h-3.8zm25.7 0h-3.8L61 87.1h-7L52.6 91h-3.7l6.8-17.2h3.7l7 17.2zm-6.5-6.8l-2.4-6.4-2.4 6.4h4.8z" fill="#4c6c7b"/><linearGradient id="j" gradientUnits="userSpaceOnUse" x1="45.085" y1="74.131" x2="58.585" y2="87.631" gradientTransform="matrix(1 0 0 -1 0 102)"><stop offset="0" stop-color="#fff"/><stop offset=".35" stop-color="#fafbfb"/><stop offset=".532" stop-color="#edf1f4"/><stop offset=".675" stop-color="#dde5e9"/><stop offset=".799" stop-color="#c7d3da"/><stop offset=".908" stop-color="#adbdc7"/><stop offset="1" stop-color="#92a5b0"/></linearGradient><path d="M45 1.1l27 26.7H45V1.1z" fill="url(#j)"/><path d="M45 1.1l27 26.7H45V1.1z" fill-opacity="0" stroke="#7191a1" stroke-width="2" stroke-linejoin="bevel"/></svg>