<svg xmlns="http://www.w3.org/2000/svg" viewBox="0 0 72 100"><linearGradient id="a" gradientUnits="userSpaceOnUse" x1="36" y1="97" x2="36" y2="-1" gradientTransform="translate(0 2)"><stop offset="0" stop-color="#c8d4db"/><stop offset=".139" stop-color="#d8e1e6"/><stop offset=".359" stop-color="#ebf0f3"/><stop offset=".617" stop-color="#f9fafb"/><stop offset="1" stop-color="#fff"/></linearGradient><path d="M45 1l27 26.7V99H0V1h45z" fill="url(#a)"/><path d="M45 1l27 26.7V99H0V1h45z" fill-opacity="0" stroke="#7191a1" stroke-width="2"/><linearGradient id="b" gradientUnits="userSpaceOnUse" x1="36.5" y1="63.25" x2="36.5" y2="23.65"><stop offset="0" stop-color="#869ba6"/><stop offset=".379" stop-color="#8399a4"/><stop offset=".576" stop-color="#7b929e"/><stop offset=".731" stop-color="#6d8694"/><stop offset=".863" stop-color="#5a7785"/><stop offset=".981" stop-color="#426373"/><stop offset=".99" stop-color="#416271"/></linearGradient><path d="M58.7 43.5c0-2.9-3.7-5.7-9.3-7.4 1.3-5.7.7-10.3-1.8-11.8-.6-.3-1.3-.5-2.1-.5v2.1c.4 0 .8.1 1 .3 1.2.7 1.8 3.4 1.4 6.8-.1.9-.3 1.7-.4 2.7-1.8-.4-3.7-.8-5.7-1-1.2-1.7-2.5-3.2-3.8-4.5 3-2.7 5.7-4.3 7.6-4.3v-2.1c-2.5 0-5.7 1.8-9.1 4.9-3.3-3.1-6.6-4.8-9.1-4.8V26c1.9 0 4.6 1.5 7.6 4.2-1.3 1.4-2.6 2.8-3.8 4.5-2.1.3-4 .5-5.7 1-.2-.9-.3-1.8-.5-2.7-.4-3.4.1-6.2 1.3-6.8.3-.2 1.2-.3 1.2-.3v-2.1h-.2c-.8 0-1.5.2-2.1.5-2.6 1.5-3.1 6.1-1.8 11.8-5.6 1.7-9.3 4.5-9.3 7.4s3.7 5.7 9.3 7.4c-1.3 5.7-.7 10.3 1.8 11.8.6.3 1.3.5 2.1.5 2.5 0 5.7-1.8 9.1-4.9 3.3 3.1 6.6 4.8 9.1 4.8.8 0 1.5-.2 2.1-.5 2.6-1.5 3.1-6.1 1.8-11.8 5.7-1.6 9.3-4.4 9.3-7.3zm-11.8-6.1c-.3 1.2-.8 2.4-1.2 3.6-.3-.7-.8-1.5-1.2-2.1-.4-.7-.9-1.5-1.3-2.1 1.3.1 2.5.4 3.7.6zm-4.2 9.7c-.7 1.2-1.5 2.4-2.2 3.4-1.3.2-2.7.3-4 .3s-2.7-.1-4.1-.2c-.8-1.1-1.5-2.2-2.2-3.4-.7-1.2-1.3-2.4-1.9-3.6.6-1.2 1.2-2.4 1.9-3.6.7-1.2 1.5-2.4 2.2-3.4 1.4-.1 2.7-.2 4.1-.2s2.7.1 4.1.2c.8 1.1 1.5 2.2 2.2 3.4.7 1.2 1.3 2.4 1.9 3.6-.6 1.1-1.3 2.3-2 3.5zm3-1.2c.5 1.2.9 2.4 1.3 3.6-1.2.3-2.5.5-3.8.7.4-.7.9-1.5 1.3-2.1.5-.7.8-1.4 1.2-2.2zm-9.2 9.7c-.9-.9-1.7-1.9-2.5-2.9.9 0 1.6.1 2.5.1.9 0 1.7 0 2.5-.1-.8 1.1-1.6 2-2.5 2.9zm-6.8-5.4c-1.3-.2-2.6-.4-3.7-.7.3-1.2.8-2.4 1.2-3.6.3.7.8 1.5 1.2 2.1.5.9.9 1.6 1.3 2.2zm6.8-18.8c.9.9 1.7 1.9 2.5 2.9-.9 0-1.6-.1-2.5-.1-.9 0-1.7 0-2.5.1.8-1.1 1.6-2 2.5-2.9zm-6.8 5.3c-.4.7-.9 1.5-1.3 2.1-.4.7-.8 1.5-1.2 2.1-.5-1.2-.9-2.4-1.3-3.6 1.3-.1 2.6-.4 3.8-.6zm-8.2 11.4c-3.3-1.4-5.3-3.2-5.3-4.6 0-1.5 2.1-3.3 5.3-4.6.8-.3 1.6-.6 2.5-.9.5 1.8 1.2 3.6 2.1 5.6-.9 1.9-1.5 3.8-2.1 5.5-.8-.4-1.6-.6-2.5-1zM26.4 61c-1.2-.7-1.8-3.4-1.4-6.8.1-.9.3-1.7.4-2.7 1.8.4 3.7.8 5.7 1 1.2 1.7 2.5 3.2 3.8 4.5-3 2.7-5.7 4.3-7.6 4.3-.2 0-.6-.1-.9-.3zM48 54.1c.4 3.4-.1 6.2-1.3 6.8-.3.2-.6.3-1 .3-1.9 0-4.6-1.5-7.6-4.2 1.3-1.4 2.6-2.8 3.8-4.5 2.1-.3 4-.5 5.7-1 .1.9.3 1.8.4 2.6zm3.5-6c-.8.3-1.6.6-2.5.9-.5-1.8-1.2-3.6-2.1-5.6.9-1.9 1.5-3.8 2.1-5.5.9.3 1.7.6 2.6.9 3.3 1.4 5.3 3.2 5.3 4.6-.2 1.5-2.3 3.3-5.4 4.7z" fill="url(#b)"/><linearGradient id="c" gradientUnits="userSpaceOnUse" x1="36.5" y1="47.598" x2="36.5" y2="39.387"><stop offset="0" stop-color="#869ba6"/><stop offset=".379" stop-color="#8399a4"/><stop offset=".576" stop-color="#7b929e"/><stop offset=".731" stop-color="#6d8694"/><stop offset=".863" stop-color="#5a7785"/><stop offset=".981" stop-color="#426373"/><stop offset=".99" stop-color="#416271"/></linearGradient><circle cx="36.5" cy="43.5" r="4.1" fill="url(#c)"/><linearGradient id="d" gradientUnits="userSpaceOnUse" x1="45.037" y1="25.813" x2="58.537" y2="12.313" gradientTransform="translate(0 2)"><stop offset="0" stop-color="#fff"/><stop offset=".35" stop-color="#fafbfb"/><stop offset=".532" stop-color="#edf1f4"/><stop offset=".675" stop-color="#dde5e9"/><stop offset=".799" stop-color="#c7d3da"/><stop offset=".908" stop-color="#adbdc7"/><stop offset="1" stop-color="#92a5b0"/></linearGradient><path d="M45 1l27 26.7H45V1z" fill="url(#d)"/><path d="M45 1l27 26.7H45V1z" fill-opacity="0" stroke="#7191a1" stroke-width="2" stroke-linejoin="bevel"/><path d="M19.6 71.8h4v12.7c0 1.7-.1 2.9-.4 3.8-.4 1.2-1.1 2.1-2.1 2.8-1 .7-2.4 1.1-4.1 1.1-2 0-3.5-.6-4.6-1.7s-1.6-2.7-1.6-4.9l3.8-.4c0 1.1.2 2 .5 2.4.4.7 1.1 1.1 2 1.1.9 0 1.5-.3 1.9-.8.4-.5.6-1.6.6-3.2V71.8zm7.3 13.5l3.9-.4c.2 1.3.7 2.3 1.4 2.9s1.7.9 2.9.9c1.3 0 2.3-.3 2.9-.8s1-1.2 1-1.9c0-.5-.1-.9-.4-1.2s-.8-.6-1.5-.9c-.5-.2-1.6-.5-3.2-.9-2.2-.5-3.7-1.2-4.6-2-1.2-1.1-1.8-2.4-1.8-4 0-1 .3-2 .9-2.9.6-.9 1.4-1.6 2.5-2 1.1-.5 2.4-.7 3.9-.7 2.5 0 4.4.6 5.7 1.7s1.9 2.6 2 4.4l-4 .2c-.2-1-.5-1.8-1.1-2.2s-1.4-.7-2.6-.7c-1.2 0-2.1.2-2.8.7-.4.3-.6.7-.6 1.2s.2.9.6 1.2c.5.4 1.8.9 3.7 1.3 2 .5 3.4.9 4.4 1.4s1.7 1.2 2.2 2 .8 1.9.8 3.2c0 1.1-.3 2.2-1 3.2s-1.5 1.7-2.7 2.2-2.6.7-4.4.7c-2.5 0-4.5-.6-5.8-1.8-1.2-.9-2-2.6-2.3-4.8zm17.7 6.5l6.8-10.5-6.2-9.6H50l4 6.4 3.9-6.4h4.7l-6.2 9.7 6.8 10.3h-4.9l-4.4-6.9-4.5 6.9h-4.8z" fill="#4c6c7b"/></svg>