<svg xmlns="http://www.w3.org/2000/svg" viewBox="0 0 72 100"><linearGradient id="a" gradientUnits="userSpaceOnUse" x1="36" y1="97" x2="36" y2="-1" gradientTransform="translate(0 2)"><stop offset="0" stop-color="#c8d4db"/><stop offset=".139" stop-color="#d8e1e6"/><stop offset=".359" stop-color="#ebf0f3"/><stop offset=".617" stop-color="#f9fafb"/><stop offset="1" stop-color="#fff"/></linearGradient><path d="M45 1l27 26.7V99H0V1h45z" fill="url(#a)"/><path d="M45 1l27 26.7V99H0V1h45z" fill-opacity="0" stroke="#7191a1" stroke-width="2"/><linearGradient id="b" gradientUnits="userSpaceOnUse" x1="45.037" y1="25.813" x2="58.537" y2="12.313" gradientTransform="translate(0 2)"><stop offset="0" stop-color="#fff"/><stop offset=".35" stop-color="#fafbfb"/><stop offset=".532" stop-color="#edf1f4"/><stop offset=".675" stop-color="#dde5e9"/><stop offset=".799" stop-color="#c7d3da"/><stop offset=".908" stop-color="#adbdc7"/><stop offset="1" stop-color="#92a5b0"/></linearGradient><path d="M45 1l27 26.7H45V1z" fill="url(#b)"/><path d="M45 1l27 26.7H45V1z" fill-opacity="0" stroke="#7191a1" stroke-width="2" stroke-linejoin="bevel"/><path d="M9.8 91.9v-20h4v8.9l8.2-8.9h5.4l-7.5 7.8 8 12.2h-5.2l-5.5-9.4-3.3 3.3v6.1H9.8zm20.2 0v-20h14.9v3.4H34v4.4h10.1v3.4H34v5.5h11.2V92H30zm23.9 0v-8.4l-7.3-11.6h4.7l4.7 7.9 4.6-7.9h4.7l-7.4 11.6v8.4h-4z" fill="#4c6c7b"/><g transform="translate(0 -952.362)" opacity=".9"><linearGradient id="c" gradientUnits="userSpaceOnUse" x1="35.444" y1="1014.327" x2="35.444" y2="975.551"><stop offset="0" stop-color="#adccdc"/><stop offset="1" stop-color="#4c6c7b"/></linearGradient><path d="M35.4 978.9c3.1 3.1 4.1 7.5 2.9 11.5l16.5 16.5.4 7.4-9.3-.8v-4.7h-4.7v-4.7h-4.7l-6-6c-3.9 1.2-8.4.2-11.5-2.9-4.5-4.5-4.5-11.8 0-16.3 4.6-4.5 11.9-4.5 16.4 0zm-8.6 3.1a3.32 3.32 0 0 0-4.7 0 3.32 3.32 0 0 0 0 4.7c1.3 1.3 3.4 1.3 4.7 0 1.3-1.3 1.3-3.4 0-4.7z" fill="url(#c)"/></g></svg>