<svg id="Layer_1" xmlns="http://www.w3.org/2000/svg" viewBox="0 0 72 100"><style>.st0{opacity:.95}</style><g class="st0"><linearGradient id="SVGID_1_" gradientUnits="userSpaceOnUse" x1="35.75" y1="2.995" x2="35.75" y2="101.001" gradientTransform="matrix(1 0 0 -1 0 102)"><stop offset="0" stop-color="#efc402"/><stop offset=".038" stop-color="#f1c829"/><stop offset=".147" stop-color="#f4d264"/><stop offset=".258" stop-color="#f7dc8b"/><stop offset=".372" stop-color="#f9e5ac"/><stop offset=".488" stop-color="#fbecc7"/><stop offset=".606" stop-color="#fcf3dd"/><stop offset=".728" stop-color="#fef9ee"/><stop offset=".856" stop-color="#fffdf9"/><stop offset="1" stop-color="#fff"/></linearGradient><path d="M44.8 1l27 26.7V99h-72V1h45z" fill="url(#SVGID_1_)"/><path d="M44.8 1l27 26.7V99h-72V1h45z" fill-opacity="0" stroke="#ba9c02" stroke-width="2"/></g><path d="M5.8 92.1V72.2h4V81l8.2-8.8h5.4L16 80l8 12.1h-5.2l-5.5-9.3-3.3 3.3v6H5.8zm20.2 0V72.2h6l3.6 13.5 3.6-13.5h6.1V92h-3.8V76.4l-4 15.6h-3.9l-4-15.6V92H26zm23.4 0V72.2h4V81l8.2-8.8H67L59.5 80l8 12.1h-5.2l-5.5-9.3-3.3 3.3v6h-4.1z" fill="#a07802"/><g class="st0"><linearGradient id="SVGID_2_" gradientUnits="userSpaceOnUse" x1="45.344" y1="74.23" x2="58.844" y2="87.73" gradientTransform="matrix(1 0 0 -1 0 102)"><stop offset=".005" stop-color="#fff"/><stop offset=".234" stop-color="#fffefb"/><stop offset=".369" stop-color="#fefaf1"/><stop offset=".481" stop-color="#fdf5e4"/><stop offset=".579" stop-color="#fcf0d2"/><stop offset=".669" stop-color="#fae9bc"/><stop offset=".752" stop-color="#f9e2a2"/><stop offset=".831" stop-color="#f7da83"/><stop offset=".905" stop-color="#f4d15d"/><stop offset=".975" stop-color="#f1c827"/><stop offset="1" stop-color="#efc402"/></linearGradient><path d="M45.2 1l27 26.7h-27V1z" fill="url(#SVGID_2_)"/><path d="M45.2 1l27 26.7h-27V1z" fill-opacity="0" stroke="#ba9c02" stroke-width="2" stroke-linejoin="bevel"/></g><linearGradient id="SVGID_3_" gradientUnits="userSpaceOnUse" x1="35.716" y1="62" x2="35.716" y2="49.771"><stop offset="0" stop-color="#debe00"/><stop offset=".164" stop-color="#cfad04"/><stop offset="1" stop-color="#a07802"/></linearGradient><path d="M61.2 53.4c0-2-1.6-3.6-3.6-3.6H13.8c-2 0-3.6 1.6-3.6 3.6v5c0 2 1.6 3.6 3.6 3.6h43.8c2 0 3.6-1.6 3.6-3.6v-5zm-18.8 4.5c-1.1 0-2-.9-2-2s.9-2 2-2 2 .9 2 2-.9 2-2 2zm6.1 0c-1.1 0-2-.9-2-2s.9-2 2-2 2 .9 2 2-.9 2-2 2zm6.1 0c-1.1 0-2-.9-2-2s.9-2 2-2 2 .9 2 2-.9 2-2 2z" fill="url(#SVGID_3_)"/><linearGradient id="SVGID_4_" gradientUnits="userSpaceOnUse" x1="35.716" y1="48.456" x2="35.716" y2="35.93"><stop offset="0" stop-color="#debe00"/><stop offset=".164" stop-color="#cfad04"/><stop offset="1" stop-color="#a07802"/></linearGradient><path d="M13.8 47.7h43.8c1 0 1.9.3 2.7.7l-4.2-8.9C55 36.9 53 35.9 51 35.9h-4.8l-6.9 7c-.5.5-1 .9-1.7 1.2-.6.3-1.3.4-2 .4s-1.4-.1-2-.4h-.2c-.5-.3-1-.6-1.5-1l-6.9-7h-4.8c-2 0-3.8 1.1-5.1 3.6l-4.2 8.9c1-.6 1.9-.9 2.9-.9z" fill="url(#SVGID_4_)"/><linearGradient id="SVGID_5_" gradientUnits="userSpaceOnUse" x1="35.715" y1="41.982" x2="35.715" y2="17.855"><stop offset="0" stop-color="#debe00"/><stop offset=".164" stop-color="#cfad04"/><stop offset="1" stop-color="#a07802"/></linearGradient><path d="M45.9 32.6c.2-.2.4-.5.6-.9.1-.3.2-.7.2-1 0-.4-.1-.7-.2-1-.1-.3-.3-.6-.6-.8-.3-.3-.5-.5-.9-.6-.3-.1-.6-.2-1-.2s-.7.1-1 .2l-.9.6-3.9 4V20.5c0-.4-.1-.7-.2-1-.1-.3-.3-.6-.6-.9-.2-.3-.5-.5-.9-.6-.3-.1-.6-.2-1-.2s-.7.1-1 .2l-.9.6c-.2.3-.4.5-.6.9-.1.3-.2.7-.2 1v12.3l-3.9-4c-.2-.2-.5-.4-.9-.6-.3-.1-.6-.2-1-.2s-.7.1-1 .2c-.3.1-.6.3-.9.6-.2.2-.4.5-.6.8-.1.3-.2.7-.2 1 0 .4.1.7.2 1 .1.3.3.6.6.9l8.4 8.6c.2.2.5.4.9.6.3.1.6.2 1 .2s.7-.1 1-.2c.3-.1.6-.3.9-.6l8.6-8.5z" fill="url(#SVGID_5_)"/></svg>