<svg xmlns="http://www.w3.org/2000/svg" viewBox="0 0 72 100"><linearGradient id="a" gradientUnits="userSpaceOnUse" x1="36.2" y1="97" x2="36.2" y2="-1" gradientTransform="translate(0 2)"><stop offset="0" stop-color="#c8d4db"/><stop offset=".139" stop-color="#d8e1e6"/><stop offset=".359" stop-color="#ebf0f3"/><stop offset=".617" stop-color="#f9fafb"/><stop offset="1" stop-color="#fff"/></linearGradient><path d="M45.2 1l27.1 26.7V99H.1V1h45.1z" fill="url(#a)"/><path d="M45.2 1l27.1 26.7V99H.1V1h45.1z" fill-opacity="0" stroke="#7191a1" stroke-width="2"/><path d="M10.5 90.1V70.2h4.1V79l8.2-8.8h5.5L20.7 78l8 12.1h-5.3l-5.5-9.3-3.3 3.3v6h-4.1zm24.8 0V73.6h-6v-3.4h16v3.4h-6v16.5h-4zm11.6-6.5l4-.4c.2 1.3.7 2.3 1.4 2.9s1.7.9 2.9.9c1.3 0 2.3-.3 3-.8s1-1.2 1-1.9c0-.5-.1-.9-.4-1.2-.3-.3-.8-.6-1.5-.9-.5-.2-1.6-.5-3.3-.9-2.2-.5-3.7-1.2-4.6-2-1.2-1.1-1.9-2.4-1.9-4 0-1 .3-2 .9-2.8s1.4-1.5 2.5-2 2.4-.7 4-.7c2.5 0 4.4.5 5.7 1.6s1.9 2.5 2 4.4l-4.1.2c-.2-1-.5-1.8-1.1-2.2-.6-.4-1.4-.7-2.6-.7-1.2 0-2.1.2-2.8.7-.4.3-.6.7-.6 1.2s.2.9.6 1.2c.5.4 1.8.9 3.7 1.3s3.4.9 4.4 1.4c.9.5 1.7 1.2 2.2 2s.8 1.9.8 3.2c0 1.1-.3 2.2-1 3.2-.6 1-1.5 1.7-2.7 2.2s-2.6.7-4.4.7c-2.5 0-4.5-.6-5.9-1.7-1.1-1-2-2.7-2.2-4.9z" fill="#4c6c7b"/><linearGradient id="b" gradientUnits="userSpaceOnUse" x1="31.762" y1="30.065" x2="31.762" y2="30.014" gradientTransform="translate(0 2)"><stop offset="0" stop-color="#adccdc"/><stop offset="1" stop-color="#4c6c7b"/></linearGradient><path d="M31.8 32c-.1.1-.1.1 0 0" fill="url(#b)"/><linearGradient id="c" gradientUnits="userSpaceOnUse" x1="37.5" y1="38" x2="37.5" y2="78" gradientTransform="matrix(1 0 0 -1 0 100)"><stop offset="0" stop-color="#adccdc"/><stop offset="1" stop-color="#4c6c7b"/></linearGradient><path d="M18.5 52.2V40.1c0-.8.2-1.2 1-1.6 9.1-5 18.2-10.1 27.2-15.1 1.3-.7 2.6-1.4 4.1-1.4 2.6.1 4.7 1.6 5.4 4 .8 2.4 0 5.2-2.1 6.6-2.3 1.4-4.9 2.8-7.3 4.2-9.1 5-18.2 10.1-27.4 15.1-.2.1-.5.2-.9.3zm14.4-4.5c.3-.2.6-.3.8-.6 3-1.7 6-3.2 8.9-4.9.7-.3 1.1-.3 1.7.1 3.4 3.1 6.9 6.1 10.2 9.2 1.9 1.7 2.4 3.9 1.7 6.2s-2.3 3.7-4.8 4c-1.6.2-3.1-.2-4.3-1.2-4.7-4.2-9.3-8.4-14.2-12.8.2.2.2.1 0 0zM18.5 35.8c0-3-.2-5.9.1-8.8.3-3.2 3.6-5.2 7-4.9 2.9.3 5.3 3.3 5.1 6.3 0 .3-.2.8-.6.9l-11.4 6.3c.1.2 0 .1-.2.2zm12.2 13.1c0 2.8.1 5.2 0 7.8-.2 3-3 5.3-6 5.3-2.9 0-5.7-2.2-6.2-5.1-.1-.9 0-1.4.9-1.9 3.4-1.9 6.9-3.8 10.3-5.7.2-.1.6-.2 1-.4z" fill="url(#c)"/><linearGradient id="d" gradientUnits="userSpaceOnUse" x1="45.3" y1="25.8" x2="58.85" y2="12.25" gradientTransform="translate(0 2)"><stop offset="0" stop-color="#fff"/><stop offset=".35" stop-color="#fafbfb"/><stop offset=".532" stop-color="#edf1f4"/><stop offset=".675" stop-color="#dde5e9"/><stop offset=".799" stop-color="#c7d3da"/><stop offset=".908" stop-color="#adbdc7"/><stop offset="1" stop-color="#92a5b0"/></linearGradient><path d="M45.2 1l27.1 26.7H45.2V1z" fill="url(#d)"/><path d="M45.2 1l27.1 26.7H45.2V1z" fill-opacity="0" stroke="#7191a1" stroke-width="2" stroke-linejoin="bevel"/></svg>