<svg id="Layer_1" xmlns="http://www.w3.org/2000/svg" viewBox="0 0 72 100"><style>.st0{opacity:.99}</style><g class="st0"><linearGradient id="SVGID_1_" gradientUnits="userSpaceOnUse" x1="36.15" y1="2.887" x2="36.15" y2="101.126" gradientTransform="matrix(1 0 0 -1 0 102)"><stop offset="0" stop-color="#595593"/><stop offset=".012" stop-color="#5b5794"/><stop offset=".182" stop-color="#7b77aa"/><stop offset=".352" stop-color="#9896bf"/><stop offset=".521" stop-color="#b2b2d2"/><stop offset=".687" stop-color="#c7c9e2"/><stop offset=".848" stop-color="#d6d9ec"/><stop offset="1" stop-color="#dbdff0"/></linearGradient><path d="M45.2.9l27.1 26.8v71.4H0V.9h45.2z" fill="url(#SVGID_1_)"/><path d="M45.2.9l27.1 26.8v71.4H0V.9h45.2z" fill-opacity="0" stroke="#2d3293" stroke-width="2"/></g><path d="M8.7 91.2V71.3h4.1v8.8l8.2-8.8h5.5L18.8 79l8 12.1h-5.3L16 81.8l-3.3 3.3v6h-4zm20.2-19.9H33V82c0 1.7.1 2.8.2 3.3.2.8.6 1.5 1.2 2 .7.5 1.5.7 2.7.7 1.2 0 2-.2 2.6-.7s.9-1 1.1-1.7c.1-.7.2-1.8.2-3.4v-11h4.1v10.4c0 2.4-.1 4.1-.3 5.1-.2 1-.6 1.8-1.2 2.5S42 90.5 41 90.9c-1 .4-2.3.6-3.9.6-1.9 0-3.4-.2-4.4-.7-1-.4-1.8-1-2.4-1.7s-1-1.4-1.1-2.2c-.3-1.1-.4-2.8-.4-5V71.3zm20.3 19.9V71.3h6.5c2.5 0 4.1.1 4.8.3 1.2.3 2.1.9 2.9 1.9s1.2 2.3 1.2 3.9c0 1.2-.2 2.2-.7 3.1s-1 1.5-1.7 2-1.4.8-2.1.9c-1 .2-2.4.3-4.2.3h-2.6v7.5h-4.1zm4.1-16.6v5.6h2.2c1.6 0 2.7-.1 3.2-.3.5-.2 1-.5 1.3-1 .3-.4.5-1 .5-1.5 0-.7-.2-1.3-.6-1.8-.4-.5-1-.8-1.6-.9-.5-.1-1.5-.1-2.9-.1h-2.1z" fill="#fff"/><g class="st0"><linearGradient id="SVGID_2_" gradientUnits="userSpaceOnUse" x1="58.321" y1="87.273" x2="50.783" y2="78.839" gradientTransform="matrix(1 0 0 -1 0 102)"><stop offset="0" stop-color="#595593"/><stop offset=".07" stop-color="#706ca2"/><stop offset=".159" stop-color="#8988b5"/><stop offset=".255" stop-color="#a3a5c8"/><stop offset=".359" stop-color="#babfd9"/><stop offset=".471" stop-color="#ced5e7"/><stop offset=".598" stop-color="#dee6f2"/><stop offset=".751" stop-color="#e9f3fa"/><stop offset="1" stop-color="#ecf8fe"/></linearGradient><path d="M45.2.9l27.1 26.8H45.2V.9z" fill="url(#SVGID_2_)"/><path d="M45.2.9l27.1 26.8H45.2V.9z" fill-opacity="0" stroke="#2d3293" stroke-width="2" stroke-linejoin="bevel"/></g><linearGradient id="SVGID_3_" gradientUnits="userSpaceOnUse" x1="23.533" y1="52.461" x2="43.605" y2="52.461"><stop offset="0" stop-color="#352c7f"/><stop offset=".074" stop-color="#3e3786"/><stop offset=".266" stop-color="#544f96"/><stop offset=".457" stop-color="#6763a5"/><stop offset=".645" stop-color="#7572b1"/><stop offset=".827" stop-color="#7e7cba"/><stop offset="1" stop-color="#8180bd"/></linearGradient><path d="M41.1 57.9c-2.3-2.3-5.1.2-7.6 2.4-3.1 2.8-5.3 4.5-7.3 2.5-1.4-1.4-1.4-3.2 0-4.9l1.3 1.3c.3.3.9.3 1.2 0l14.8-13.7-6.1-6.1-13.6 14.8c-.3.3-.3.9 0 1.2l1.3 1.3c-2.5 3-1.6 5.8 0 7.4 3.2 3.2 6.8.1 9.6-2.5 2.5-2.2 4.1-3.5 5.2-2.5.4.3.9.3 1.2-.1.3-.2.3-.7 0-1.1zm-4.3-10.5c-.3.3-.9.3-1.2 0-.3-.3-.3-.9 0-1.2l1.2-1.2c.3-.3.9-.3 1.2 0 .3.3.3.9 0 1.2l-1.2 1.2z" fill="url(#SVGID_3_)"/><linearGradient id="SVGID_4_" gradientUnits="userSpaceOnUse" x1="38.468" y1="39.248" x2="48.996" y2="39.248"><stop offset="0" stop-color="#352c7f"/><stop offset=".074" stop-color="#3e3786"/><stop offset=".266" stop-color="#544f96"/><stop offset=".457" stop-color="#6763a5"/><stop offset=".645" stop-color="#7572b1"/><stop offset=".827" stop-color="#7e7cba"/><stop offset="1" stop-color="#8180bd"/></linearGradient><path d="M44.8 44.2c.2.2.4.3.6.3 1.3 0 2.5-.3 3.6-1L39.4 34c-.7 1.1-1 2.3-1 3.6 0 .2.1.4.3.6l6.1 6z" fill="url(#SVGID_4_)"/><linearGradient id="SVGID_5_" gradientUnits="userSpaceOnUse" x1="40.508" y1="36.48" x2="52.467" y2="36.48"><stop offset="0" stop-color="#352c7f"/><stop offset=".074" stop-color="#3e3786"/><stop offset=".266" stop-color="#544f96"/><stop offset=".457" stop-color="#6763a5"/><stop offset=".645" stop-color="#7572b1"/><stop offset=".827" stop-color="#7e7cba"/><stop offset="1" stop-color="#8180bd"/></linearGradient><path d="M50.4 32.6c-2.7-2.7-7.2-2.7-9.9 0l9.9 9.9c2.7-2.8 2.8-7.2 0-9.9z" fill="url(#SVGID_5_)"/></svg>