<svg xmlns="http://www.w3.org/2000/svg" viewBox="0 0 72 100"><linearGradient id="a" gradientUnits="userSpaceOnUse" x1="36.2" y1="27" x2="36.2" y2="-71" gradientTransform="translate(0 72)"><stop offset="0" stop-color="#c8d4db"/><stop offset=".139" stop-color="#d8e1e6"/><stop offset=".359" stop-color="#ebf0f3"/><stop offset=".617" stop-color="#f9fafb"/><stop offset="1" stop-color="#fff"/></linearGradient><path d="M45.2 1l27.1 26.7V99H.1V1h45.1z" fill="url(#a)"/><path d="M45.2 1l27.1 26.7V99H.1V1h45.1z" fill-opacity="0" stroke="#7191a1" stroke-width="2"/><path d="M9.8 90.1V70.4h4.1v16.3H24V90H9.8zm17.1 0V70.2h4l8.2 13.2V70.2h3.8V90h-4.1l-8.1-12.9V90h-3.8zm20.3 0V70.2h4.1V79l8.2-8.8H65L57.3 78l8 12.1H60l-5.5-9.3-3.3 3.3v6h-4z" fill="#4c6c7b"/><linearGradient id="b" gradientUnits="userSpaceOnUse" x1="31.762" y1="-39.935" x2="31.762" y2="-39.986" gradientTransform="translate(0 72)"><stop offset="0" stop-color="#adccdc"/><stop offset="1" stop-color="#4c6c7b"/></linearGradient><path d="M31.8 32c-.1.1-.1.1 0 0" fill="url(#b)"/><linearGradient id="c" gradientUnits="userSpaceOnUse" x1="45.3" y1="-44.2" x2="58.85" y2="-57.75" gradientTransform="translate(0 72)"><stop offset="0" stop-color="#fff"/><stop offset=".35" stop-color="#fafbfb"/><stop offset=".532" stop-color="#edf1f4"/><stop offset=".675" stop-color="#dde5e9"/><stop offset=".799" stop-color="#c7d3da"/><stop offset=".908" stop-color="#adbdc7"/><stop offset="1" stop-color="#92a5b0"/></linearGradient><path d="M45.2 1l27.1 26.7H45.2V1z" fill="url(#c)"/><path d="M45.2 1l27.1 26.7H45.2V1z" fill-opacity="0" stroke="#7191a1" stroke-width="2" stroke-linejoin="bevel"/><linearGradient id="d" gradientUnits="userSpaceOnUse" x1="-60.996" y1="81.537" x2="-100.968" y2="81.537" gradientTransform="matrix(0 1 1 0 -45 125)"><stop offset="0" stop-color="#adccdc"/><stop offset="1" stop-color="#4c6c7b"/></linearGradient><path d="M26.1 48.1l-6.3-6.3c-4.2-4.2-4.4-10.9-.5-14.9s10.7-3.8 14.9.5l7.1 7.1c4.2 4.2 4.4 10.8.6 14.8l-.1.1v.1c-1.2 1.1-3.1 1.1-4.3-.1-1.2-1.2-1.2-3.2 0-4.4 1.8-1.8 1.7-4.9-.3-6.8l-6.6-6.6c-2-2-5.2-2.1-7-.2-1.8 1.8-1.7 5 .2 7l2.5 2.5s-.4 1.1-.7 3.3c-.1 1.8.5 3.9.5 3.9zm27.6 13.1c4-4 3.8-10.7-.5-14.9L46.9 40s.6 2 .4 4.2c-.2 2.2-.7 3.3-.7 3.3l2.5 2.5c2 2 2.1 5.2.2 7-1.8 1.8-5 1.7-7-.2L35.7 50c-2-2-2.1-5-.3-6.8 1.2-1.2 1.2-3.2 0-4.4s-3.1-1.2-4.3-.1v.1l-.1.1c-3.8 4-3.5 10.6.6 14.8l7.1 7.1c4.3 4.1 11 4.3 15 .4z" opacity=".9" fill="url(#d)"/></svg>