<svg xmlns="http://www.w3.org/2000/svg" viewBox="0 0 72 100"><linearGradient id="a" gradientUnits="userSpaceOnUse" x1="36" y1="97" x2="36" y2="-1" gradientTransform="translate(0 2)"><stop offset="0" stop-color="#c8d4db"/><stop offset=".139" stop-color="#d8e1e6"/><stop offset=".359" stop-color="#ebf0f3"/><stop offset=".617" stop-color="#f9fafb"/><stop offset="1" stop-color="#fff"/></linearGradient><path d="M45 1l27 26.7V99H0V1h45z" fill="url(#a)"/><path d="M45 1l27 26.7V99H0V1h45z" fill-opacity="0" stroke="#7191a1" stroke-width="2"/><linearGradient id="b" gradientUnits="userSpaceOnUse" x1="11.8" y1="33.75" x2="60.4" y2="33.75" gradientTransform="translate(0 2)"><stop offset="0" stop-color="#7291a1"/><stop offset="1" stop-color="#cad5db"/></linearGradient><path d="M11.8 33.7h48.6v4.1H11.8v-4.1z" fill="url(#b)"/><linearGradient id="c" gradientUnits="userSpaceOnUse" x1="11.8" y1="57.85" x2="60.4" y2="57.85" gradientTransform="translate(0 2)"><stop offset="0" stop-color="#7291a1"/><stop offset="1" stop-color="#cad5db"/></linearGradient><path d="M11.8 57.8h48.6v4.1H11.8v-4.1z" fill="url(#c)"/><linearGradient id="d" gradientUnits="userSpaceOnUse" x1="11.8" y1="46.05" x2="60.4" y2="46.05" gradientTransform="translate(0 2)"><stop offset="0" stop-color="#7291a1"/><stop offset="1" stop-color="#cad5db"/></linearGradient><path d="M11.8 46h48.6v4.1H11.8V46z" fill="url(#d)"/><linearGradient id="e" gradientUnits="userSpaceOnUse" x1="11.8" y1="21.65" x2="60.4" y2="21.65" gradientTransform="translate(0 2)"><stop offset="0" stop-color="#7291a1"/><stop offset="1" stop-color="#cad5db"/></linearGradient><path d="M11.8 21.6h48.6v4.1H11.8v-4.1z" fill="url(#e)"/><linearGradient id="f" gradientUnits="userSpaceOnUse" x1="45.037" y1="25.813" x2="58.537" y2="12.313" gradientTransform="translate(0 2)"><stop offset="0" stop-color="#fff"/><stop offset=".35" stop-color="#fafbfb"/><stop offset=".532" stop-color="#edf1f4"/><stop offset=".675" stop-color="#dde5e9"/><stop offset=".799" stop-color="#c7d3da"/><stop offset=".908" stop-color="#adbdc7"/><stop offset="1" stop-color="#92a5b0"/></linearGradient><path d="M45 1l27 26.7H45V1z" fill="url(#f)"/><path d="M45 1l27 26.7H45V1z" fill-opacity="0" stroke="#7191a1" stroke-width="2" stroke-linejoin="bevel"/><path d="M7.6 91.2V71.3h4v16.5h10.1v3.4H7.6zm16.2-9.9c0-2 .3-3.8.9-5.1.5-1 1.1-1.9 1.9-2.7.8-.8 1.7-1.4 2.6-1.8 1.2-.5 2.7-.8 4.3-.8 3 0 5.3.9 7.1 2.7 1.8 1.8 2.7 4.4 2.7 7.6 0 3.2-.9 5.8-2.6 7.6-1.8 1.8-4.1 2.7-7.1 2.7s-5.4-.9-7.1-2.7c-1.9-1.8-2.7-4.3-2.7-7.5zm4.1-.1c0 2.3.5 4 1.6 5.2 1 1.2 2.4 1.8 4 1.8s2.9-.6 4-1.7c1-1.2 1.6-2.9 1.6-5.2 0-2.3-.5-4-1.5-5.1-1-1.1-2.3-1.7-4-1.7s-3 .6-4 1.7c-1.2.9-1.7 2.7-1.7 5zm27.8 2.6v-3.4h8.7v8c-.8.8-2.1 1.5-3.7 2.2-1.6.6-3.2.9-4.9.9-2.1 0-3.9-.4-5.5-1.3s-2.7-2.1-3.5-3.8c-.8-1.6-1.2-3.4-1.2-5.3 0-2.1.4-3.9 1.3-5.6s2.2-2.9 3.8-3.7c1.3-.7 2.9-1 4.8-1 2.5 0 4.4.5 5.8 1.6 1.4 1 2.3 2.5 2.7 4.3l-4 .8c-.3-1-.8-1.8-1.6-2.3s-1.8-.9-2.9-.9c-1.8 0-3.2.6-4.2 1.7s-1.6 2.8-1.6 5c0 2.4.5 4.2 1.6 5.4 1.1 1.2 2.4 1.8 4.2 1.8.8 0 1.7-.2 2.5-.5.9-.3 1.6-.7 2.2-1.2V84h-4.5z" fill="#4c6c7b"/></svg>