<svg xmlns="http://www.w3.org/2000/svg" viewBox="0 0 72 100"><linearGradient id="a" gradientUnits="userSpaceOnUse" x1="36.2" y1="3.014" x2="36.2" y2="101.001" gradientTransform="matrix(1 0 0 -1 0 102)"><stop offset="0" stop-color="#c8d4db"/><stop offset=".139" stop-color="#d8e1e6"/><stop offset=".359" stop-color="#ebf0f3"/><stop offset=".617" stop-color="#f9fafb"/><stop offset="1" stop-color="#fff"/></linearGradient><path d="M45.2 1l27.1 26.7V99H.1V1h45.1z" fill="url(#a)"/><path d="M45.2 1l27.1 26.7V99H.1V1h45.1z" fill-opacity="0" stroke="#7191a1" stroke-width="2"/><path d="M18.5 90.1V70.2h6.1l3.6 13.5 3.6-13.5h6.1V90h-3.8V74.5l-4 15.6h-3.9l-4-15.6v15.6h-3.7zm30.1 0v-4h-8.2v-3.3l8.7-12.6h3.2v12.6h2.5v3.3h-2.5v4h-3.7zm0-7.4V76L44 82.7h4.6z" fill="#4c6c7b"/><linearGradient id="b" gradientUnits="userSpaceOnUse" x1="31.747" y1="69.935" x2="31.747" y2="69.986" gradientTransform="matrix(1 0 0 -1 0 102)"><stop offset="0" stop-color="#adccdc"/><stop offset="1" stop-color="#4c6c7b"/></linearGradient><path d="M31.8 32c-.1.1-.1.1 0 0" fill="url(#b)"/><linearGradient id="c" gradientUnits="userSpaceOnUse" x1="37" y1="64" x2="37" y2="25"><stop offset="0" stop-color="#adccdc"/><stop offset="1" stop-color="#4c6c7b"/></linearGradient><linearGradient id="d" gradientUnits="userSpaceOnUse" x1="37" y1="64.25" x2="37" y2="24.75"><stop offset="0" stop-color="#adccdc"/><stop offset="1" stop-color="#4c6c7b"/></linearGradient><path d="M54.4 49.8l-.2-.2-.2-.2c0-3.4-2-6.3-4.8-7.7-.3-1.2-.1-1.6-.1-1.6.1-.1.2-.3.2-.4h2.9c.6 0 1.3-.3 1.7-.7 1.6-1.6 2.4-3.6 2.4-5.8 0-4.1-3-7.5-7-8 0-.2-.2-.2-.4-.2H25.6c-4.5 0-8.1 3.6-8.1 8.1 0 .3 0 .7.1 1.1.2 7.5 5.9 13.7 8.9 16.4h-5.8c-.9 0-1.7.5-2.1 1.2-.7 1.2-1 2.6-1 3.9 0 4.5 3.6 8.1 8.1 8.1.9 0 23.3.1 23.3.1h.2c4.1-.4 7.4-4 7.4-8.2-.1-1.9-.9-4.2-2.2-5.9m-5.5-22.4c2.9.3 5.2 2.7 5.2 5.7 0 1.6-.7 3.1-1.7 4.1H31.2c.8-1.2 1.4-2.6 1.4-4.1 0-2.4-1.2-4.4-3-5.7h19.3zm-29 28.4c0-1 .3-1.9.7-2.8h9.9c.5.8.7 1.8.7 2.8 0 3.1-2.5 5.7-5.7 5.7-3 0-5.6-2.5-5.6-5.7m29 5.8H29.5c1.8-1.3 3-3.4 3-5.7 0-2.4-1.2-4.4-3-5.7h.1S20 43 19.9 34.1c0-.3-.1-.6-.1-.9 0-3.1 2.5-5.7 5.7-5.7s5.7 2.5 5.7 5.7v.4c0 .5-.1 1-.3 1.5-.2.6-.6 1.2-1 1.7l-1.3 1.7h18.6c-.1.1-.1.2-.2.4-.4.6-.5 1.3-.4 2.1-.4 0-.8-.1-1.1-.1-4.7 0-8.5 3.8-8.5 8.5s3.8 8.5 8.5 8.5c3.5 0 6.5-2.1 7.8-5.1.4 1 .7 2 .7 3 .1 3-2.2 5.5-5.1 5.8m.3-12.3l-5.6 4.3v-8.5l5.6 4.2z" fill="url(#c)" stroke="url(#d)" stroke-width=".5" stroke-miterlimit="10"/><linearGradient id="e" gradientUnits="userSpaceOnUse" x1="45.324" y1="74.184" x2="58.871" y2="87.731" gradientTransform="matrix(1 0 0 -1 0 102)"><stop offset="0" stop-color="#fff"/><stop offset=".35" stop-color="#fafbfb"/><stop offset=".532" stop-color="#edf1f4"/><stop offset=".675" stop-color="#dde5e9"/><stop offset=".799" stop-color="#c7d3da"/><stop offset=".908" stop-color="#adbdc7"/><stop offset="1" stop-color="#92a5b0"/></linearGradient><path d="M45.2 1l27.1 26.7H45.2V1z" fill="url(#e)"/><path d="M45.2 1l27.1 26.7H45.2V1z" fill-opacity="0" stroke="#7191a1" stroke-width="2" stroke-linejoin="bevel"/></svg>