<svg xmlns="http://www.w3.org/2000/svg" viewBox="0 0 72 100"><linearGradient id="a" gradientUnits="userSpaceOnUse" x1="36.108" y1="3.003" x2="36.108" y2="101.001" gradientTransform="matrix(1 0 0 -1 0 102)"><stop offset="0" stop-color="#c8d4db"/><stop offset=".139" stop-color="#d8e1e6"/><stop offset=".359" stop-color="#ebf0f3"/><stop offset=".617" stop-color="#f9fafb"/><stop offset="1" stop-color="#fff"/></linearGradient><path d="M45.1 1L72 27.7V99H.2V1h44.9z" fill="url(#a)"/><path d="M45.1 1L72 27.7V99H.2V1h44.9z" fill-opacity="0" stroke="#7191a1" stroke-width="2"/><linearGradient id="b" gradientUnits="userSpaceOnUse" x1="26.861" y1="55.391" x2="26.861" y2="21.5"><stop offset="0" stop-color="#adccdc"/><stop offset="1" stop-color="#4c6c7b"/></linearGradient><path d="M38.7 45.4l3.2.9 1.9-7-3.2-.9c0-1.1-.1-2.3-.4-3.4l2.9-1.7-3.7-6.3-2.9 1.7c-.8-.8-1.7-1.5-2.7-2.1l.9-3.2-7-1.9-.9 3.2c-1.1 0-2.3.1-3.4.4l-1.7-2.9-6.3 3.6 1.7 2.9c-.8.8-1.5 1.7-2.1 2.7l-3.2-.9-1.9 7 3.2.9c0 1.1.1 2.3.4 3.4l-2.9 1.7 3.6 6.3 2.9-1.7c.8.8 1.7 1.5 2.7 2.1l-.9 3.2 7 1.9.9-3.2c1.1 0 2.3-.2 3.4-.4l1.7 2.9 6.3-3.6-1.7-2.9c.9-.8 1.6-1.7 2.2-2.7zm-17.4-3.7c-1.8-3.1-.7-7.1 2.4-8.8 3.1-1.8 7.1-.7 8.8 2.4 1.8 3.1.7 7.1-2.4 8.8-3.1 1.7-7.1.7-8.8-2.4z" fill="url(#b)"/><linearGradient id="c" gradientUnits="userSpaceOnUse" x1="52.002" y1="64.5" x2="52.002" y2="42.336"><stop offset="0" stop-color="#adccdc"/><stop offset="1" stop-color="#4c6c7b"/></linearGradient><path d="M55.4 64l4.1-2.4-1.1-1.9c.5-.5 1-1.1 1.4-1.8l2.1.6 1.2-4.6-2.1-.5c0-.7-.1-1.5-.3-2.2l1.9-1.1-2.4-4.1-1.9 1c-.5-.5-1.1-1-1.8-1.4l.6-2.1-4.6-1.2-.6 2.1c-.7 0-1.5.1-2.2.3l-1.1-1.9-4.1 2.4 1.1 1.9c-.5.5-1 1.1-1.4 1.8l-2.1-.6-1.2 4.6 2.1.6c0 .7.1 1.5.3 2.2l-1.9 1.1 2.4 4.1 1.9-1.1c.5.5 1.1 1 1.8 1.4l-.6 2.1 4.6 1.2.6-2.1c.7 0 1.5-.1 2.2-.3l1.1 1.9zm-7.1-8.5c-1.2-2-.5-4.6 1.6-5.8 2-1.2 4.6-.5 5.8 1.5 1.2 2 .5 4.6-1.5 5.8-2.1 1.2-4.7.6-5.9-1.5z" fill="url(#c)"/><path d="M16.3 91.1V71.2h6l3.6 13.5 3.6-13.5h6V91h-3.7V75.4l-4 15.6H24l-4-15.6V91h-3.7zm23.3 0V71.2h4V80l8.1-8.8h5.4L49.7 79l7.9 12.1h-5.2l-5.5-9.3-3.3 3.3v6h-4z" fill="#4c6c7b"/><linearGradient id="d" gradientUnits="userSpaceOnUse" x1="45.122" y1="74.229" x2="58.575" y2="87.683" gradientTransform="matrix(1 0 0 -1 0 102)"><stop offset="0" stop-color="#fff"/><stop offset=".35" stop-color="#fafbfb"/><stop offset=".532" stop-color="#edf1f4"/><stop offset=".675" stop-color="#dde5e9"/><stop offset=".799" stop-color="#c7d3da"/><stop offset=".908" stop-color="#adbdc7"/><stop offset="1" stop-color="#92a5b0"/></linearGradient><path d="M45.1 1L72 27.7H45.1V1z" fill="url(#d)"/><path d="M45.1 1L72 27.7H45.1V1z" fill-opacity="0" stroke="#7191a1" stroke-width="2" stroke-linejoin="bevel"/></svg>