<svg id="Layer_2" xmlns="http://www.w3.org/2000/svg" viewBox="0 0 72 100"><style/><linearGradient id="SVGID_1_" gradientUnits="userSpaceOnUse" x1="36.2" y1="101" x2="36.2" y2="3.005" gradientTransform="matrix(1 0 0 -1 0 102)"><stop offset="0" stop-color="#e2cde4"/><stop offset=".17" stop-color="#e0cae2"/><stop offset=".313" stop-color="#dbc0dd"/><stop offset=".447" stop-color="#d2b1d4"/><stop offset=".575" stop-color="#c79dc7"/><stop offset=".698" stop-color="#ba84b9"/><stop offset=".819" stop-color="#ab68a9"/><stop offset=".934" stop-color="#9c4598"/><stop offset="1" stop-color="#932a8e"/></linearGradient><path d="M45.2 1l27 26.7V99H.2V1h45z" fill="url(#SVGID_1_)"/><path d="M45.2 1l27 26.7V99H.2V1h45z" fill-opacity="0" stroke="#882383" stroke-width="2"/><path d="M7.5 91.1V71.2h6.1l3.6 13.5 3.6-13.5h6.1V91h-3.8V75.4l-4 15.6h-3.9l-4-15.6V91H7.5zm23.5 0V71.2h4V80l8.2-8.8h5.4L41.1 79l8 12.1h-5.2l-5.5-9.3-3.4 3.3v6h-4zm25.2 0L49 71.3h4.4L58.5 86l4.9-14.7h4.3l-7.2 19.8h-4.3z" fill="#fff"/><linearGradient id="SVGID_2_" gradientUnits="userSpaceOnUse" x1="18.2" y1="50.023" x2="18.2" y2="50.023" gradientTransform="matrix(1 0 0 -1 0 102)"><stop offset=".005" stop-color="#963491"/><stop offset="1" stop-color="#70136b"/></linearGradient><linearGradient id="SVGID_3_" gradientUnits="userSpaceOnUse" x1="11.511" y1="51.716" x2="65.211" y2="51.716" gradientTransform="matrix(1 0 0 -1 0 102)"><stop offset=".005" stop-color="#963491"/><stop offset="1" stop-color="#70136b"/></linearGradient><path d="M64.3 55.5c-1.7-.2-3.4-.3-5.1-.3-7.3-.1-13.3 1.6-18.8 3.7S29.6 63.6 23.3 64c-3.4.2-7.3-.6-8.5-2.4-.8-1.3-.8-3.5-1-5.7-.6-5.7-1.6-11.7-2.4-17.3.8-.9 2.1-1.3 3.4-1.7.4 1.1.2 2.7.6 3.8 7.1.7 13.6-.4 20-1.5 6.3-1.1 12.4-2.2 19.4-2.6 3.4-.2 6.9-.2 10.3 0m-9.9 15.3c.5-.2 1.1-.3 1.9-.2.2-3.7.3-7.3.3-11.2-6.2.2-11.9.9-17 2.2.2 4 .4 7.8.3 12 4-1.1 7.7-2.5 12.6-2.7m2-12.1h1.1c.4-.4.2-1.2.2-1.9-1.5-.6-1.8 1-1.3 1.9zm3.9-.2h1.5V38h-1.3c0 .7-.4.9-.2 1.7zm4 0c.5-.1.8 0 1.1.2.4-.3.2-1.2.2-1.9h-1.3v1.7zm-11.5.3h.9c.4-.3.2-1.2.2-1.9-1.4-.4-1.6 1.2-1.1 1.9zm-4 .4c.7.2.8-.3 1.5-.2v-1.7c-1.5-.4-1.7.6-1.5 1.9zm-3.6-1.1c0 .6-.1 1.4.2 1.7.5.1.5-.4 1.1-.2-.2-.6.5-2-.4-1.9-.1.4-.8.1-.9.4zm-31.5.8c.4-.1 1.1.6 1.3 0-.5 0-.1-.8-.2-1.1-.7.2-1.3.3-1.1 1.1zm28.3-.4c-.3.3.2 1.1 0 1.9.6.2.6-.3 1.1-.2-.2-.6.5-2-.4-1.9-.1.3-.4.2-.7.2zm-3.5 2.8c.5-.1.9-.2 1.3-.4.2-.8-.4-.9-.2-1.7h-.9c-.3.3-.1 1.3-.2 2.1zm26.9-1.8c-2.1-.1-3.3-.2-5.5-.2-.5 3.4 0 7.8-.5 11.2 2.4 0 3.6.1 5.8.3M33.4 41.6c.5.2.1 1.2.2 1.7.5-.1 1.1-.2 1.5-.4.6-1.9-.9-2.4-1.7-1.3zm-4.7.6v1.9c.9.2 1.2-.2 1.9-.2-.1-.7.2-1.7-.2-2.1-.5.2-1.3.1-1.7.4zm-5.3.6c.3.5 0 1.6.4 2.1.7.1.8-.4 1.5-.2-.1-.7-.3-1.2-.2-2.1-.8-.2-.9.3-1.7.2zm-7.5 2H17c.2-.9-.4-1.2-.2-2.1-.4.1-1.2-.3-1.3.2.6.2-.1 1.7.4 1.9zm3.4 1c.1 4.1.9 9.3 1.4 13.7 8 .1 13.1-2.7 19.2-4.5-.5-3.9.1-8.7-.7-12.2-6.2 1.6-12.1 3.2-19.9 3zm.5-.8h1.1c.4-.5-.2-1.2 0-2.1h-1.5c.1.7.1 1.6.4 2.1zm-5.4 7.8c.2 0 .3.2.4.4-.4-.7-.7.5-.2.6.1-.2 0-.4.2-.4.3.5-.8.7-.2.8.7-.5 1.3-1.2 2.4-1.5-.1 1.5.4 2.4.4 3.8-.7.5-1.7.7-1.9 1.7 1.2.7 2.5 1.2 4.2 1.3-.7-4.9-1.1-8.8-1.6-13.7-2.2.3-4-.8-5.1-.9.9.8.6 2.5.8 3.6 0-.2 0-.4.2-.4-.1.7.1 1.7-.2 2.1.7.3.5-.2.4.9m44.6 3.2h1.1c.3-.3.2-1.1.2-1.7h-1.3v1.7zm-4-1.4v1.3c.4.4.7-.2 1.5 0v-1.5c-.6 0-1.2 0-1.5.2zm7.6 1.4h1.3v-1.5h-1.3c.1.5 0 1 0 1.5zm-11-1v1.3h1.1c.3-.3.4-1.7-.2-1.7-.1.4-.8.1-.9.4zm-3.6.4c.1.6-.3 1.7.4 1.7 0-.3.5-.2.9-.2-.2-.5.4-1.8-.4-1.7-.1.3-.6.2-.9.2zm-3.4 1v1.5c.7.2.6-.4 1.3-.2-.2-.5.4-1.8-.4-1.7-.1.3-.8.2-.9.4zM15 57c.7-.5 1.3-1.7.2-2.3-.7.4-.8 1.6-.2 2.3zm26.1-1.3c-.1.7.4.8.2 1.5.9 0 1.2-.6 1.1-1.7-.4-.5-.8.1-1.3.2zm-3 2.7c1 0 1.2-.8 1.1-1.9h-.9c-.3.4-.1 1.3-.2 1.9zm-3.6-.4v1.7c.6-.1 1.3-.2 1.5-.8-.6 0 .3-1.6-.6-1.3 0 .4-.7.1-.9.4zM16 60.8c-.4-.7-.2-2-1.3-1.9.2.7.2 2.7 1.3 1.9zm13.8-.9c.5 0 .1.9.2 1.3.8.1 1.2-.2 1.7-.4v-1.7c-.9-.1-1.6.1-1.9.8zm-4.7.6c0 .8-.1 1.7.4 1.9 0-.5.8-.1 1.1-.2.3-.3-.2-1.1 0-1.9-.7-.2-1 .1-1.5.2zM19 62.3v-1.7c-.5 0-.6-.4-1.3-.2-.1 1.1 0 2.1 1.3 1.9zm2.5.2h1.3c.2-.9-.3-1.1-.2-1.9h-1.3c-.1.9.2 1.2.2 1.9z" fill="url(#SVGID_3_)"/><linearGradient id="SVGID_4_" gradientUnits="userSpaceOnUse" x1="45.269" y1="74.206" x2="58.769" y2="87.706" gradientTransform="matrix(1 0 0 -1 0 102)"><stop offset="0" stop-color="#f9eff6"/><stop offset=".378" stop-color="#f8edf5"/><stop offset=".515" stop-color="#f3e6f1"/><stop offset=".612" stop-color="#ecdbeb"/><stop offset=".69" stop-color="#e3cce2"/><stop offset=".757" stop-color="#d7b8d7"/><stop offset=".817" stop-color="#caa1c9"/><stop offset=".871" stop-color="#bc88bb"/><stop offset=".921" stop-color="#ae6cab"/><stop offset=".965" stop-color="#9f4d9b"/><stop offset="1" stop-color="#932a8e"/></linearGradient><path d="M45.2 1l27 26.7h-27V1z" fill="url(#SVGID_4_)"/><path d="M45.2 1l27 26.7h-27V1z" fill-opacity="0" stroke="#882383" stroke-width="2" stroke-linejoin="bevel"/></svg>