<svg xmlns="http://www.w3.org/2000/svg" viewBox="0 0 72 100"><linearGradient id="a" gradientUnits="userSpaceOnUse" x1="486.311" y1="644.112" x2="486.31" y2="742.085" gradientTransform="matrix(1 0 0 -1 -450.061 743.109)"><stop offset="0" stop-color="#742d2d"/><stop offset=".005" stop-color="#827100"/><stop offset="1" stop-color="#ffee91"/></linearGradient><path d="M45.3 1l27.1 26.7V99H.1V1h45.2z" fill="url(#a)"/><path d="M45.3 1l27.1 26.7V99H.1V1h45.2z" fill-opacity="0" stroke="#827100" stroke-width="2"/><path d="M9.8 91.6V76h4.8l2.9 10.6L20.3 76h4.8v15.6h-3V79.3L19 91.6h-3.1l-3.1-12.3v12.3h-3zm17.8-7.7c0-1.6.2-2.9.7-4 .4-.8.8-1.5 1.5-2.1s1.3-1.1 2-1.4c1-.4 2.1-.6 3.4-.6 2.3 0 4.2.7 5.6 2.1 1.4 1.4 2.1 3.4 2.1 5.9 0 2.5-.7 4.5-2.1 5.9s-3.2 2.1-5.6 2.1c-2.4 0-4.2-.7-5.6-2.1-1.3-1.4-2-3.3-2-5.8zm3.3-.1c0 1.8.4 3.1 1.2 4 .8.9 1.9 1.4 3.1 1.4s2.3-.5 3.1-1.4 1.2-2.3 1.2-4.1c0-1.8-.4-3.1-1.2-4-.8-.9-1.8-1.3-3.2-1.3s-2.4.4-3.2 1.3c-.6.9-1 2.3-1 4.1zM45.4 76h6.3c1.2 0 2.2.1 2.8.2.6.1 1.2.3 1.6.6s.9.8 1.2 1.3c.3.5.5 1.2.5 1.8 0 .7-.2 1.4-.6 2s-.9 1.1-1.6 1.4c1 .3 1.7.7 2.2 1.4s.8 1.4.8 2.3c0 .7-.2 1.4-.5 2.1s-.8 1.2-1.4 1.6c-.6.4-1.3.6-2.1.7-.5.1-1.8.1-3.8.1h-5.4V76zm3.2 2.6v3.6h2.1c1.2 0 2 0 2.3-.1.5-.1 1-.2 1.3-.6.3-.3.5-.7.5-1.2s-.1-.9-.4-1.2c-.3-.3-.7-.5-1.2-.5-.3 0-1.2-.1-2.7-.1h-1.9zm0 6.2V89h3c1.2 0 1.9 0 2.2-.1.5-.1.9-.3 1.2-.6.3-.3.4-.8.4-1.3s-.1-.9-.3-1.2c-.2-.3-.6-.6-1-.7-.4-.1-1.4-.2-2.8-.2h-2.7zm12.6 6.8V76h3.2v15.6h-3.2z" fill="#fefefe"/><linearGradient id="b" gradientUnits="userSpaceOnUse" x1="305.171" y1="859.444" x2="305.171" y2="814.684" gradientTransform="scale(1 -1) rotate(-15.79 -2993.474 1367.872)"><stop offset="0" stop-color="#aa9400"/><stop offset="1" stop-color="#564a00"/></linearGradient><path d="M62.7 34.5c-.3-.7-.7-1.2-1.3-1.7-.1.5-.3 1.1-.6 1.6L44.4 59.6c-.6.9-2 1.2-3 .9l-26.1-7.3c-1.6-.4-3.4-1.3-3.5-3.1-.1-.7 0-.9.4-1.2.4-.3.8-.2 1.2-.1L38 55.6c3.6 1 4.6.3 7.2-3.7l15-23.1c.8-1.2 1-2.6.5-3.8-.4-1.2-1.4-2.1-2.8-2.5l-21.5-6c-.5-.1-1-.1-1.5-.2l.1-.1c-3.3-2-4.6 1.8-6.3 3.2-.6.5-1.5.9-1.7 1.4-.2.5-.1 1-.3 1.5-.6 1.4-2.5 3.8-3.4 4.5-.6.4-1.3.5-1.7 1.1-.3.4-.2 1.1-.4 1.7-.5 1.3-2.2 3.5-3.4 4.6-.4.4-1.1.7-1.4 1.2-.3.4-.2 1.1-.5 1.6-.7 1.4-2.3 3.4-3.6 4.5-.7.6-1.4.9-1.7 1.6-.2.3 0 .8-.2 1.2-.3.7-.6 1.2-.8 1.7-.7 1-1.1 2.2-1 3.6.2 3.2 2.7 6.3 5.5 7.1L40.3 64c2.4.7 5.5-.5 6.8-2.6l15-23.1c.8-1.3 1-2.6.6-3.8zm-30.2-8.3l1.1-1.6c.3-.5 1-.7 1.4-.6l17.2 4.8c.5.1.7.6.4 1.1l-1.1 1.6c-.3.5-1 .7-1.4.6l-17.2-4.8c-.5-.2-.7-.7-.4-1.1zm-4.4 6.4l1.1-1.6c.3-.5 1-.7 1.4-.6l17.2 4.8c.5.1.7.6.4 1.1l-1.1 1.6c-.3.5-1 .7-1.4.6l-17.2-4.8c-.5-.1-.7-.6-.4-1.1z" fill="url(#b)"/><linearGradient id="c" gradientUnits="userSpaceOnUse" x1="495.437" y1="715.271" x2="508.982" y2="728.818" gradientTransform="matrix(1 0 0 -1 -450.061 743.109)"><stop offset="0" stop-color="#feea86"/><stop offset="1" stop-color="#867200"/></linearGradient><path d="M45.3 1l27.1 26.7H45.3V1z" fill="url(#c)"/><path d="M45.3 1l27.1 26.7H45.3V1z" fill-opacity="0" stroke="#827100" stroke-width="2" stroke-linejoin="round"/></svg>