<svg xmlns="http://www.w3.org/2000/svg" viewBox="0 0 72 100"><linearGradient id="a" gradientUnits="userSpaceOnUse" x1="36.2" y1="97" x2="36.2" y2="-1" gradientTransform="translate(0 2)"><stop offset=".029" stop-color="#235427"/><stop offset=".462" stop-color="#4eb056"/><stop offset=".998" stop-color="#64d66d"/></linearGradient><path d="M45.2 1l26.9 26.7V99H.3V1h44.9z" fill="url(#a)"/><linearGradient id="b" gradientUnits="userSpaceOnUse" x1=".3" y1="50" x2="72.1" y2="50" gradientTransform="matrix(1 0 0 -1 0 100)"><stop offset=".005" stop-color="#077265"/><stop offset=".343" stop-color="#006a69"/><stop offset="1" stop-color="#003836"/></linearGradient><path d="M45.2 1l26.9 26.7V99H.3V1h44.9z" fill="url(#b)" fill-opacity="0" stroke="#235427" stroke-width="2"/><path d="M7.2 81.3c0-2 .3-3.7.9-5.1.5-1 1.1-1.9 1.9-2.7.8-.8 1.6-1.4 2.6-1.8 1.2-.5 2.7-.8 4.3-.8 2.9 0 5.3.9 7.1 2.7s2.6 4.3 2.6 7.6c0 3.2-.9 5.7-2.6 7.5s-4.1 2.7-7 2.7c-3 0-5.3-.9-7.1-2.7-1.8-1.8-2.7-4.3-2.7-7.4zm4.1-.2c0 2.2.5 4 1.6 5.1 1 1.2 2.4 1.7 4 1.7s2.9-.6 4-1.7c1-1.2 1.5-2.9 1.5-5.2 0-2.3-.5-4-1.5-5.1s-2.3-1.7-4-1.7-3 .6-4 1.7c-1.1 1.2-1.6 3-1.6 5.2zm18.4-9.9h7.4c1.7 0 2.9.1 3.8.4 1.2.3 2.2 1 3 1.8.8.9 1.5 1.9 1.9 3.2.4 1.3.7 2.8.7 4.7 0 1.6-.2 3-.6 4.2-.5 1.4-1.2 2.6-2.1 3.5-.7.7-1.6 1.2-2.8 1.6-.9.3-2.1.4-3.6.4h-7.6V71.2h-.1zm4 3.4v13.1h3c1.1 0 1.9-.1 2.4-.2.7-.2 1.2-.4 1.6-.8.4-.4.8-1 1.1-1.9s.4-2.1.4-3.6-.1-2.7-.4-3.5c-.3-.8-.7-1.5-1.1-1.9-.5-.5-1.1-.8-1.9-.9-.6-.1-1.7-.2-3.3-.2l-1.8-.1zm15.1 10l3.9-.4c.2 1.3.7 2.3 1.4 2.9s1.7.9 2.9.9c1.3 0 2.3-.3 2.9-.8.7-.5 1-1.2 1-1.9 0-.5-.1-.9-.4-1.2s-.8-.6-1.5-.9c-.5-.2-1.5-.5-3.2-.9-2.2-.5-3.7-1.2-4.6-2-1.2-1.1-1.8-2.4-1.8-4 0-1 .3-2 .9-2.8.6-.9 1.4-1.5 2.5-2s2.4-.7 3.9-.7c2.5 0 4.4.5 5.7 1.6s1.9 2.5 2 4.4l-4 .2c-.2-1-.5-1.8-1.1-2.2s-1.4-.7-2.6-.7c-1.2 0-2.1.2-2.8.7-.4.3-.6.7-.6 1.2s.2.9.6 1.2c.5.4 1.7.9 3.7 1.3 2 .5 3.4.9 4.4 1.4.9.5 1.7 1.2 2.2 2 .5.8.8 1.9.8 3.2 0 1.1-.3 2.2-1 3.2-.6 1-1.5 1.7-2.7 2.2s-2.6.7-4.3.7c-2.5 0-4.5-.6-5.8-1.7-1.3-1-2.1-2.7-2.4-4.9z" fill="#fff"/><linearGradient id="c" gradientUnits="userSpaceOnUse" x1="45.221" y1="25.779" x2="58.672" y2="12.329" gradientTransform="translate(0 2)"><stop offset=".484" stop-color="#ccf8d2"/><stop offset=".931" stop-color="#429b4e"/><stop offset=".998" stop-color="#2d7136"/></linearGradient><path d="M45.2 1l26.9 26.7H45.2V1z" fill="url(#c)"/><path d="M45.2 1l26.9 26.7H45.2V1z" fill-opacity="0" stroke="#235427" stroke-width="2" stroke-linejoin="bevel"/><linearGradient id="d" gradientUnits="userSpaceOnUse" x1="53.28" y1="41.06" x2="53.28" y2="48.656"><stop offset="0" stop-color="#235427"/><stop offset="1" stop-color="#44984b"/></linearGradient><path d="M47.6 41.1H59v7.6H47.6z" fill="url(#d)"/><linearGradient id="e" gradientUnits="userSpaceOnUse" x1="53.28" y1="52.782" x2="53.28" y2="60.378"><stop offset="0" stop-color="#235427"/><stop offset="1" stop-color="#44984b"/></linearGradient><path d="M47.6 52.8H59v7.6H47.6z" fill="url(#e)"/><linearGradient id="f" gradientUnits="userSpaceOnUse" x1="43.855" y1="36.036" x2="43.855" y2="39.975"><stop offset="0" stop-color="#235427"/><stop offset="1" stop-color="#44984b"/></linearGradient><path d="M36.6 36h1.6c2.4.2 4.3.8 6.2 1.5 3.6-1.6 8.6-.4 11.8.8-4-.4-8.8 0-11.6 1.6-2.8-2.3-8.1-2.9-13-2.3 1.3-.8 3-1.4 5-1.6z" fill="url(#f)"/><linearGradient id="g" gradientUnits="userSpaceOnUse" x1="28.139" y1="42.105" x2="28.139" y2="48.602"><stop offset="0" stop-color="#235427"/><stop offset="1" stop-color="#44984b"/></linearGradient><path d="M35.5 42.1c-2.9.2-5.3 1.1-6.8 2.4-4.8-2.2-13-1.2-16.1 1.7-.3.2-.6.4-.5.7 2.7-.8 6-1.5 9.4-1.2 3.4.3 5.9 1.4 7.8 2.9 3.5-3.1 8.6-4.9 15.1-4.8-2.4-1-5.7-1.9-8.9-1.7z" fill="url(#g)"/><linearGradient id="h" gradientUnits="userSpaceOnUse" x1="37.908" y1="52.867" x2="37.908" y2="60.462"><stop offset="0" stop-color="#235427"/><stop offset="1" stop-color="#44984b"/></linearGradient><path d="M32.2 52.9h11.4v7.6H32.2z" fill="url(#h)"/><linearGradient id="i" gradientUnits="userSpaceOnUse" x1="22.435" y1="52.867" x2="22.435" y2="60.462"><stop offset="0" stop-color="#235427"/><stop offset="1" stop-color="#44984b"/></linearGradient><path d="M16.7 52.9h11.4v7.6H16.7z" fill="url(#i)"/></svg>