<svg xmlns="http://www.w3.org/2000/svg" viewBox="0 0 72 100"><linearGradient id="a" gradientUnits="userSpaceOnUse" x1="36.2" y1="3.014" x2="36.2" y2="101.001" gradientTransform="matrix(1 0 0 -1 0 102)"><stop offset="0" stop-color="#c8d4db"/><stop offset=".139" stop-color="#d8e1e6"/><stop offset=".359" stop-color="#ebf0f3"/><stop offset=".617" stop-color="#f9fafb"/><stop offset="1" stop-color="#fff"/></linearGradient><path d="M45.2 1l27.1 26.7V99H.1V1h45.1z" fill="url(#a)"/><path d="M45.2 1l27.1 26.7V99H.1V1h45.1z" fill-opacity="0" stroke="#7191a1" stroke-width="2"/><path d="M6 90.1V74.3h5.2c2 0 3.2.1 3.8.2.9.2 1.7.8 2.3 1.5.6.8.9 1.8.9 3.1 0 1-.2 1.8-.5 2.4s-.8 1.2-1.4 1.6c-.5.4-1.1.6-1.7.7-.8.2-1.9.2-3.3.2H9.2v5.9H6zM9.2 77v4.5H11c1.3 0 2.1-.1 2.5-.2.4-.2.8-.4 1-.8s.4-.8.4-1.2c0-.6-.2-1-.5-1.4-.3-.4-.8-.6-1.3-.7-.4-.2-1.1-.2-2.3-.2H9.2zm11.7 13.1V74.3h3.2v6.2h6.3v-6.2h3.2V90h-3.2v-6.9h-6.3V90h-3.2zm30.5 0h-3.5l-1.4-3.6h-6.4l-1.3 3.6h-3.4l6.2-15.7H45l6.4 15.7zm-5.9-6.3L43.3 78l-2.2 5.8h4.4zm7.6 6.3V74.3h6.8c1.7 0 2.9.1 3.7.4.8.3 1.4.8 1.9 1.5s.7 1.6.7 2.5c0 1.2-.4 2.2-1.1 2.9-.7.8-1.8 1.3-3.2 1.5.7.4 1.3.8 1.7 1.3s1.1 1.3 1.8 2.6l2 3.1h-3.9l-2.3-3.4c-.8-1.2-1.4-2-1.7-2.3-.3-.3-.6-.5-1-.7-.3-.1-.9-.2-1.6-.2h-.7v6.6h-3.1zm3.3-9.1h2.4c1.5 0 2.5-.1 2.9-.2.4-.1.7-.4.9-.7s.3-.7.3-1.2-.1-1-.4-1.3c-.3-.3-.7-.5-1.2-.6-.3 0-1-.1-2.4-.1h-2.5V81z" fill="#4c6c7b"/><linearGradient id="b" gradientUnits="userSpaceOnUse" x1="31.747" y1="69.935" x2="31.747" y2="69.986" gradientTransform="matrix(1 0 0 -1 0 102)"><stop offset="0" stop-color="#adccdc"/><stop offset="1" stop-color="#4c6c7b"/></linearGradient><path d="M31.8 32c-.1.1-.1.1 0 0" fill="url(#b)"/><linearGradient id="c" gradientUnits="userSpaceOnUse" x1="42.17" y1="38.37" x2="42.17" y2="27"><stop offset="0" stop-color="#adccdc"/><stop offset="1" stop-color="#4c6c7b"/></linearGradient><path fill="url(#c)" d="M56.4 35.2L36 27l-8 3.2 20.3 8.2z"/><linearGradient id="d" gradientUnits="userSpaceOnUse" x1="29.435" y1="43.304" x2="29.435" y2="32.25"><stop offset="0" stop-color="#adccdc"/><stop offset="1" stop-color="#4c6c7b"/></linearGradient><path fill="url(#d)" d="M22.9 32.2l-7.3 3L36 43.3l7.2-2.9z"/><linearGradient id="e" gradientUnits="userSpaceOnUse" x1="25.114" y1="67" x2="25.114" y2="36.11"><stop offset="0" stop-color="#adccdc"/><stop offset="1" stop-color="#4c6c7b"/></linearGradient><path fill="url(#e)" d="M14.8 58.8L35.4 67V44.3l-20.6-8.2z"/><linearGradient id="f" gradientUnits="userSpaceOnUse" x1="46.886" y1="67" x2="46.886" y2="36.11"><stop offset="0" stop-color="#adccdc"/><stop offset="1" stop-color="#4c6c7b"/></linearGradient><path fill="url(#f)" d="M49.1 39.3v6.4l-.8-.5-.9 1.2-.8-.5-.9 1.2-.8-.5-.9 1.2v-6.4l-7.4 2.9V67l20.6-8.2V36.1z"/><path d="M19.5 49.6c.4.2.8.2 1.1.1s.5-.3.7-.7c.2-.3.3-.6.2-.8-.1-.2-.3-.4-.7-.5l-.7-.3-1.2 1.9c0 .1.6.3.6.3zm-3.3 1.6s-.1 0 0 0c-.1-.1-.1-.1 0-.2l3.1-5.1.1-.1 2.3.9c.7.3 1.2.7 1.3 1.2s.1 1.1-.3 1.7c-.2.3-.4.5-.6.7-.2.2-.5.3-.7.4-.3.1-.7.2-1 .2-.3 0-.7-.1-1.2-.3l-.9-.3-.8 1.3-.1.1-1.2-.5zm9 1.8c-.1-.1-.1-.1 0-.2l1.4-2.2c.1-.2.2-.4.2-.5 0-.1-.1-.2-.4-.3l-.8-.3-1.7 2.8-.1.1-1.2-.4-.1-.1v-.1l3.1-5.1.1-.1 1.2.4.1.1v.1l-.8 1.2.9.3c.7.3 1.1.6 1.3.9s.1.8-.2 1.3l-1.4 2.3-.1.1-1.5-.3zm4.9.7c.5.2.8.2 1.1.2.3-.1.5-.3.8-.7.2-.3.3-.6.2-.8-.1-.2-.3-.4-.7-.5l-.7-.3-1.2 1.9.5.2zm-3.4 1.6s-.1-.1 0 0c-.1-.1-.1-.1-.1-.2l3.2-5s.1-.1.2-.1l2.3.9c.7.3 1.2.7 1.4 1.2.2.5.1 1.1-.3 1.7-.2.3-.4.5-.6.7-.2.2-.5.3-.8.4-.3.1-.7.2-1 .2-.3 0-.7-.1-1.2-.3l-.9-.4-.8 1.3s-.1.1-.2.1l-1.2-.5z" fill="#eaedef"/><linearGradient id="g" gradientUnits="userSpaceOnUse" x1="45.324" y1="74.184" x2="58.871" y2="87.731" gradientTransform="matrix(1 0 0 -1 0 102)"><stop offset="0" stop-color="#fff"/><stop offset=".35" stop-color="#fafbfb"/><stop offset=".532" stop-color="#edf1f4"/><stop offset=".675" stop-color="#dde5e9"/><stop offset=".799" stop-color="#c7d3da"/><stop offset=".908" stop-color="#adbdc7"/><stop offset="1" stop-color="#92a5b0"/></linearGradient><path d="M45.2 1l27.1 26.7H45.2V1z" fill="url(#g)"/><path d="M45.2 1l27.1 26.7H45.2V1z" fill-opacity="0" stroke="#7191a1" stroke-width="2" stroke-linejoin="bevel"/></svg>