<svg xmlns="http://www.w3.org/2000/svg" viewBox="0 0 72 100"><linearGradient id="a" gradientUnits="userSpaceOnUse" x1="36.2" y1="3.014" x2="36.2" y2="101.001" gradientTransform="matrix(1 0 0 -1 0 102)"><stop offset="0" stop-color="#c8d4db"/><stop offset=".139" stop-color="#d8e1e6"/><stop offset=".359" stop-color="#ebf0f3"/><stop offset=".617" stop-color="#f9fafb"/><stop offset="1" stop-color="#fff"/></linearGradient><path d="M45.2 1l27.1 26.7V99H.1V1h45.1z" fill="url(#a)"/><path d="M45.2 1l27.1 26.7V99H.1V1h45.1z" fill-opacity="0" stroke="#7191a1" stroke-width="2"/><path d="M9.3 90.1V70.2h6.5c2.5 0 4.1.1 4.8.3 1.2.3 2.1.9 2.9 1.9.8 1 1.2 2.3 1.2 3.9 0 1.2-.2 2.2-.7 3.1-.4.8-1 1.5-1.7 2s-1.4.8-2.1.9c-1 .2-2.4.3-4.2.3h-2.6v7.5H9.3zm4.1-16.5v5.6h2.2c1.6 0 2.7-.1 3.2-.3.5-.2 1-.5 1.3-1 .3-.4.5-1 .5-1.5 0-.7-.2-1.3-.6-1.8-.4-.5-1-.8-1.6-.9-.5-.1-1.5-.1-2.9-.1h-2.1zm14.7 16.5V70.2h4.1V78h8v-7.8h4.1V90h-4.1v-8.7h-8V90h-4.1zm20.2 0V70.2h6.5c2.5 0 4.1.1 4.8.3 1.2.3 2.1.9 2.9 1.9.8 1 1.2 2.3 1.2 3.9 0 1.2-.2 2.2-.7 3.1s-1 1.5-1.7 2-1.4.8-2.1.9c-1 .2-2.4.3-4.2.3h-2.6v7.5h-4.1zm4.1-16.5v5.6h2.2c1.6 0 2.7-.1 3.2-.3.5-.2 1-.5 1.3-1 .3-.4.5-1 .5-1.5 0-.7-.2-1.3-.6-1.8-.4-.5-1-.8-1.6-.9-.5-.1-1.5-.1-2.9-.1h-2.1z" fill="#4c6c7b"/><linearGradient id="b" gradientUnits="userSpaceOnUse" x1="37.462" y1="43.229" x2="37.462" y2="74.265" gradientTransform="matrix(1 0 0 -1 0 102)"><stop offset="0" stop-color="#adccdc"/><stop offset="1" stop-color="#4c6c7b"/></linearGradient><path d="M34.1 50.9c2 .7 5.3.6 7.7.3.4 1-.2 2.2.2 3.3.2.5.9 1 1.9 1.5.2.1.5.1.7.2l.2.2c.4.3 1.3.8 1.5.9.3.1.6.1.9.1h1.1c1.5-.1 3-.5 3.4-1.1.7-1 .3-3.1.2-4.9-.1-1.6-.3-3.7 0-4.9.1-.4.5-.9.7-1.4.9-1.8 1.7-4.8 1.4-7.6-.2-1.3-.8-2.4-1-3.4 2 .2 3.9-.2 5.7 0 1.1.1 1.9.8 2.9.7.2-.5.8-.8.9-1.5.1-.7-.2-1.6-.5-2.1-1.4-.2-2.5 1.1-3.8 1.2-.4 0-1-.1-1.5-.2-1.6-.1-3.8.3-5.2 0-1-.2-1.8-1.3-2.8-1.7-.2-.1-.6 0-.9-.2-.3-.1-.5-.3-.7-.3-1.1-.4-2.2-.8-3.3-1-2-.5-4.8-.5-7.4-.3-.8.1-1.6.5-2.4.3-.6-.1-.7-.5-1.2-.7-1.8-.8-3.6.1-4.8.7-.9.4-1.9 1.1-2.8 1.2-.9.2-2.1 0-2.9 0-1 0-2.2.2-3.3.3-1 .2-2.3.3-2.9.7-1.5.9-1.9 4.8-2.4 7-.2.9-.5 1.7-.7 2.6-.3 1.9-.5 3.9-.5 5.7-.1 3.7-.5 8.9 1.4 10.2.4.3 1.8.7 2.2.5.1 0 .6-.5.7-.7.1-.3-.2-.7-.2-1.2 0-.8-.2-1.9-.2-2.8 0-2.2.4-4.7 1-5.6 0-.1.3-.1.3-.2.1-.2 0-.4.2-.5.4-.4 1.1-.9 1.5-1 1.3-.5 2 .1 2.6.9 1.1 1.4 1.3 3.7 1.4 5.9v1.4c0 .5-.2 1.1-.2 1.4.3.9 1.8 1.3 2.4 1.7 0 .3.1.7.3 1 .3.5.8.9 1.2 1.1 1.6.9 5.6.3 6.4-.7.1-.1.2-.2.2-.4.1-.3.3-.6.3-.8.5-2.2-.2-3.8.1-5.8z" fill="url(#b)"/><linearGradient id="c" gradientUnits="userSpaceOnUse" x1="31.747" y1="69.935" x2="31.747" y2="69.986" gradientTransform="matrix(1 0 0 -1 0 102)"><stop offset="0" stop-color="#adccdc"/><stop offset="1" stop-color="#4c6c7b"/></linearGradient><path d="M31.8 32c-.1.1-.1.1 0 0" fill="url(#c)"/><linearGradient id="d" gradientUnits="userSpaceOnUse" x1="45.324" y1="74.184" x2="58.871" y2="87.731" gradientTransform="matrix(1 0 0 -1 0 102)"><stop offset="0" stop-color="#fff"/><stop offset=".35" stop-color="#fafbfb"/><stop offset=".532" stop-color="#edf1f4"/><stop offset=".675" stop-color="#dde5e9"/><stop offset=".799" stop-color="#c7d3da"/><stop offset=".908" stop-color="#adbdc7"/><stop offset="1" stop-color="#92a5b0"/></linearGradient><path d="M45.2 1l27.1 26.7H45.2V1z" fill="url(#d)"/><path d="M45.2 1l27.1 26.7H45.2V1z" fill-opacity="0" stroke="#7191a1" stroke-width="2" stroke-linejoin="bevel"/></svg>