<svg xmlns="http://www.w3.org/2000/svg" viewBox="0 0 72 100"><linearGradient id="a" gradientUnits="userSpaceOnUse" x1="36.2" y1="3.014" x2="36.2" y2="101.001" gradientTransform="matrix(1 0 0 -1 0 102)"><stop offset="0" stop-color="#c8d4db"/><stop offset=".139" stop-color="#d8e1e6"/><stop offset=".359" stop-color="#ebf0f3"/><stop offset=".617" stop-color="#f9fafb"/><stop offset="1" stop-color="#fff"/></linearGradient><path d="M45.2 1l27.1 26.7V99H.1V1h45.1z" fill="url(#a)"/><path d="M45.2 1l27.1 26.7V99H.1V1h45.1z" fill-opacity="0" stroke="#7191a1" stroke-width="2"/><path d="M17 90.1V70.2h6.5c2.5 0 4.1.1 4.8.3 1.2.3 2.1.9 2.9 1.9.8 1 1.2 2.3 1.2 3.9 0 1.2-.2 2.2-.7 3.1-.4.8-1 1.5-1.7 2s-1.4.8-2.1.9c-1 .2-2.4.3-4.2.3H21v7.5h-4zm4-16.5v5.6h2.2c1.6 0 2.7-.1 3.2-.3.5-.2 1-.5 1.3-1 .3-.4.5-1 .5-1.5 0-.7-.2-1.3-.6-1.8-.4-.5-1-.8-1.6-.9-.5-.1-1.5-.1-2.9-.1H21zm14.7 16.5V70.2h6.1l3.7 13.5L49 70.2h6.1V90h-3.8V74.5l-4 15.6h-3.9l-4-15.6v15.6h-3.7z" fill="#4c6c7b"/><linearGradient id="b" gradientUnits="userSpaceOnUse" x1="31.747" y1="69.935" x2="31.747" y2="69.986" gradientTransform="matrix(1 0 0 -1 0 102)"><stop offset="0" stop-color="#adccdc"/><stop offset="1" stop-color="#4c6c7b"/></linearGradient><path d="M31.8 32c-.1.1-.1.1 0 0" fill="url(#b)"/><linearGradient id="c" gradientUnits="userSpaceOnUse" x1="45.324" y1="74.184" x2="58.871" y2="87.731" gradientTransform="matrix(1 0 0 -1 0 102)"><stop offset="0" stop-color="#fff"/><stop offset=".35" stop-color="#fafbfb"/><stop offset=".532" stop-color="#edf1f4"/><stop offset=".675" stop-color="#dde5e9"/><stop offset=".799" stop-color="#c7d3da"/><stop offset=".908" stop-color="#adbdc7"/><stop offset="1" stop-color="#92a5b0"/></linearGradient><path d="M45.2 1l27.1 26.7H45.2V1z" fill="url(#c)"/><path d="M45.2 1l27.1 26.7H45.2V1z" fill-opacity="0" stroke="#7191a1" stroke-width="2" stroke-linejoin="bevel"/><linearGradient id="d" gradientUnits="userSpaceOnUse" x1="43.678" y1="61.724" x2="43.678" y2="23.771"><stop offset="0" stop-color="#adccdc"/><stop offset=".024" stop-color="#a9c8d8"/><stop offset=".323" stop-color="#81a1b0"/><stop offset=".595" stop-color="#648493"/><stop offset=".83" stop-color="#527281"/><stop offset="1" stop-color="#4c6c7b"/></linearGradient><path d="M53.5 45c-.8-5.3-6.4-8.8-10.6-11.4-1.8-1.1-4.8-2.6-5.1-5-.2-1-.2-2-.2-3 0-.4 0-.8-.1-1.2 0-.5-.6.1-.8-.3-.7-1.1-.4.3-.4.9.2 1.3.3 2.7.3 4 0 2.6-.4 5.1-1.1 7.6-1.5 5.8-2.7 11.8-1.2 17.8.3 1.2.7 2.5 1.2 3.6.2.4.5 1.3.9 1.5 1.6.4 2.8.5 4.1 1.7.8.7 1.4.3 2.3 0 2.8-1.1 5.3-2.6 7.3-4.9 2.9-3.2 4.1-7 3.4-11.3m-3 5.4c-.3 2.2-1.6 4.1-3 5.8-1 1.2-2.4 2.7-3.9 3.2-.5.2.1-.9.2-1 .5-.7 1-1.3 1.6-2 .8-1 1.5-2 1.9-3.1 1.5-3.9 1.2-8.5-1.1-12-1.2-1.9-2.9-3.5-4.6-4.9-.8-.7-1.7-1.4-2.4-2.2-.2-.2-1.6-2.1-1.1-2.3.1-.1 3.2 3.2 3.6 3.4 1.3 1 2.6 1.9 3.8 3 1.6 1.5 3.3 3.1 4.2 5.1.9 2.1 1.1 4.6.8 7" fill="url(#d)"/><linearGradient id="e" gradientUnits="userSpaceOnUse" x1="31.019" y1="60.16" x2="31.019" y2="18.821"><stop offset="0" stop-color="#adccdc"/><stop offset=".024" stop-color="#a9c8d8"/><stop offset=".323" stop-color="#81a1b0"/><stop offset=".595" stop-color="#648493"/><stop offset=".83" stop-color="#527281"/><stop offset="1" stop-color="#4c6c7b"/></linearGradient><path d="M35.1 18.8c.5.3.6 2.1.6 3.8 0 1.7.2 8.8-.4 10.7-.5 1.9-1.7 4-3 5.9-1.3 1.9-2.8 5.8-2.7 8.2.1 2.4 1.4 6.4 2.5 8.1 1.1 1.7 2.9 4 2.5 4.5-.7.9-3.7-2.3-5.2-4.1-1.6-1.9-3.1-5.6-3.2-8.6-.1-2.9 1.6-5.7 2.8-7.3 1.2-1.7 3.5-4.5 4.1-5.8.6-1.3 1.3-2.7 1.5-4.5.2-1.8 0-8.3 0-8.3s.1-2.9.5-2.6" fill="url(#e)"/><linearGradient id="f" gradientUnits="userSpaceOnUse" x1="26.379" y1="61.542" x2="26.379" y2="21.868"><stop offset="0" stop-color="#adccdc"/><stop offset=".024" stop-color="#a9c8d8"/><stop offset=".323" stop-color="#81a1b0"/><stop offset=".595" stop-color="#648493"/><stop offset=".83" stop-color="#527281"/><stop offset="1" stop-color="#4c6c7b"/></linearGradient><path d="M33.9 21.9c.5.2.5.8.5 1.3 0 .6-.2 2.9-.3 5.2-.2 2.3-2 4.2-3.3 5.5-1.3 1.3-5.2 5.5-6.7 7.6-1.4 2.1-2.2 4.8-2 7.1.2 2.3.7 4.6 2.9 7 2.2 2.4 3.7 3.6 4.8 4.1 1.1.6 2.3 1 2 1.5-.3.5-1.3.2-2.5-.3-1.2-.4-5.2-2.1-7.5-4.7s-3.5-6.2-3.4-9.5c.1-3.4 1-4.8 2.6-6.9 1.6-2.2 5.8-5.4 7.2-6.2 1.3-.8 3.2-2.2 4-3.4.9-1.1 1.3-2.1 1.3-3.6-.1-1.6.1-2.9.1-3.5-.2-.4-.2-1.4.3-1.2" fill="url(#f)"/><linearGradient id="g" gradientUnits="userSpaceOnUse" x1="33.389" y1="64.37" x2="33.389" y2="62.416"><stop offset="0" stop-color="#adccdc"/><stop offset=".024" stop-color="#a9c8d8"/><stop offset=".323" stop-color="#81a1b0"/><stop offset=".595" stop-color="#648493"/><stop offset=".83" stop-color="#527281"/><stop offset="1" stop-color="#4c6c7b"/></linearGradient><path d="M34 62.4c.2 0 .1.9-.3 1.4-.4.5-1 .7-1.1.5-.1-.2.5-.3.9-.7.4-.4.3-1.2.5-1.2" fill="url(#g)"/><linearGradient id="h" gradientUnits="userSpaceOnUse" x1="38.861" y1="64.346" x2="38.861" y2="62.392"><stop offset="0" stop-color="#adccdc"/><stop offset=".024" stop-color="#a9c8d8"/><stop offset=".323" stop-color="#81a1b0"/><stop offset=".595" stop-color="#648493"/><stop offset=".83" stop-color="#527281"/><stop offset="1" stop-color="#4c6c7b"/></linearGradient><path d="M38.2 62.4c-.2 0-.1.9.3 1.4.4.5 1 .7 1.1.5.1-.2-.5-.3-.9-.7-.3-.4-.2-1.2-.5-1.2" fill="url(#h)"/><linearGradient id="i" gradientUnits="userSpaceOnUse" x1="36.221" y1="64.821" x2="36.221" y2="61.94"><stop offset="0" stop-color="#adccdc"/><stop offset=".024" stop-color="#a9c8d8"/><stop offset=".323" stop-color="#81a1b0"/><stop offset=".595" stop-color="#648493"/><stop offset=".83" stop-color="#527281"/><stop offset="1" stop-color="#4c6c7b"/></linearGradient><path d="M36.4 63.4c0 .8 0 1.4-.1 1.4-.2 0-.1-.6-.1-1.4 0-.8-.1-1.4.1-1.4.1-.1.1.6.1 1.4" fill="url(#i)"/><linearGradient id="j" gradientUnits="userSpaceOnUse" x1="43.678" y1="61.724" x2="43.678" y2="23.771"><stop offset="0" stop-color="#adccdc"/><stop offset=".024" stop-color="#a9c8d8"/><stop offset=".323" stop-color="#81a1b0"/><stop offset=".595" stop-color="#648493"/><stop offset=".83" stop-color="#527281"/><stop offset="1" stop-color="#4c6c7b"/></linearGradient><path d="M53.5 45c-.8-5.3-6.4-8.8-10.6-11.4-1.8-1.1-4.8-2.6-5.1-5-.2-1-.2-2-.2-3 0-.4 0-.8-.1-1.2 0-.5-.6.1-.8-.3-.7-1.1-.4.3-.4.9.2 1.3.3 2.7.3 4 0 2.6-.4 5.1-1.1 7.6-1.5 5.8-2.7 11.8-1.2 17.8.3 1.2.7 2.5 1.2 3.6.2.4.5 1.3.9 1.5 1.6.4 2.8.5 4.1 1.7.8.7 1.4.3 2.3 0 2.8-1.1 5.3-2.6 7.3-4.9 2.9-3.2 4.1-7 3.4-11.3m-3 5.4c-.3 2.2-1.6 4.1-3 5.8-1 1.2-2.4 2.7-3.9 3.2-.5.2.1-.9.2-1 .5-.7 1-1.3 1.6-2 .8-1 1.5-2 1.9-3.1 1.5-3.9 1.2-8.5-1.1-12-1.2-1.9-2.9-3.5-4.6-4.9-.8-.7-1.7-1.4-2.4-2.2-.2-.2-1.6-2.1-1.1-2.3.1-.1 3.2 3.2 3.6 3.4 1.3 1 2.6 1.9 3.8 3 1.6 1.5 3.3 3.1 4.2 5.1.9 2.1 1.1 4.6.8 7" fill="url(#j)"/><linearGradient id="k" gradientUnits="userSpaceOnUse" x1="31.019" y1="60.16" x2="31.019" y2="18.821"><stop offset="0" stop-color="#adccdc"/><stop offset=".024" stop-color="#a9c8d8"/><stop offset=".323" stop-color="#81a1b0"/><stop offset=".595" stop-color="#648493"/><stop offset=".83" stop-color="#527281"/><stop offset="1" stop-color="#4c6c7b"/></linearGradient><path d="M35.1 18.8c.5.3.6 2.1.6 3.8 0 1.7.2 8.8-.4 10.7-.5 1.9-1.7 4-3 5.9-1.3 1.9-2.8 5.8-2.7 8.2.1 2.4 1.4 6.4 2.5 8.1 1.1 1.7 2.9 4 2.5 4.5-.7.9-3.7-2.3-5.2-4.1-1.6-1.9-3.1-5.6-3.2-8.6-.1-2.9 1.6-5.7 2.8-7.3 1.2-1.7 3.5-4.5 4.1-5.8.6-1.3 1.3-2.7 1.5-4.5.2-1.8 0-8.3 0-8.3s.1-2.9.5-2.6" fill="url(#k)"/><linearGradient id="l" gradientUnits="userSpaceOnUse" x1="26.379" y1="61.542" x2="26.379" y2="21.868"><stop offset="0" stop-color="#adccdc"/><stop offset=".024" stop-color="#a9c8d8"/><stop offset=".323" stop-color="#81a1b0"/><stop offset=".595" stop-color="#648493"/><stop offset=".83" stop-color="#527281"/><stop offset="1" stop-color="#4c6c7b"/></linearGradient><path d="M33.9 21.9c.5.2.5.8.5 1.3 0 .6-.2 2.9-.3 5.2-.2 2.3-2 4.2-3.3 5.5-1.3 1.3-5.2 5.5-6.7 7.6-1.4 2.1-2.2 4.8-2 7.1.2 2.3.7 4.6 2.9 7 2.2 2.4 3.7 3.6 4.8 4.1 1.1.6 2.3 1 2 1.5-.3.5-1.3.2-2.5-.3-1.2-.4-5.2-2.1-7.5-4.7s-3.5-6.2-3.4-9.5c.1-3.4 1-4.8 2.6-6.9 1.6-2.2 5.8-5.4 7.2-6.2 1.3-.8 3.2-2.2 4-3.4.9-1.1 1.3-2.1 1.3-3.6-.1-1.6.1-2.9.1-3.5-.2-.4-.2-1.4.3-1.2" fill="url(#l)"/><linearGradient id="m" gradientUnits="userSpaceOnUse" x1="33.389" y1="64.37" x2="33.389" y2="62.416"><stop offset="0" stop-color="#adccdc"/><stop offset=".024" stop-color="#a9c8d8"/><stop offset=".323" stop-color="#81a1b0"/><stop offset=".595" stop-color="#648493"/><stop offset=".83" stop-color="#527281"/><stop offset="1" stop-color="#4c6c7b"/></linearGradient><path d="M34 62.4c.2 0 .1.9-.3 1.4-.4.5-1 .7-1.1.5-.1-.2.5-.3.9-.7.4-.4.3-1.2.5-1.2" fill="url(#m)"/><linearGradient id="n" gradientUnits="userSpaceOnUse" x1="38.861" y1="64.346" x2="38.861" y2="62.392"><stop offset="0" stop-color="#adccdc"/><stop offset=".024" stop-color="#a9c8d8"/><stop offset=".323" stop-color="#81a1b0"/><stop offset=".595" stop-color="#648493"/><stop offset=".83" stop-color="#527281"/><stop offset="1" stop-color="#4c6c7b"/></linearGradient><path d="M38.2 62.4c-.2 0-.1.9.3 1.4.4.5 1 .7 1.1.5.1-.2-.5-.3-.9-.7-.3-.4-.2-1.2-.5-1.2" fill="url(#n)"/><linearGradient id="o" gradientUnits="userSpaceOnUse" x1="36.221" y1="64.821" x2="36.221" y2="61.94"><stop offset="0" stop-color="#adccdc"/><stop offset=".024" stop-color="#a9c8d8"/><stop offset=".323" stop-color="#81a1b0"/><stop offset=".595" stop-color="#648493"/><stop offset=".83" stop-color="#527281"/><stop offset="1" stop-color="#4c6c7b"/></linearGradient><path d="M36.4 63.4c0 .8 0 1.4-.1 1.4-.2 0-.1-.6-.1-1.4 0-.8-.1-1.4.1-1.4.1-.1.1.6.1 1.4" fill="url(#o)"/><linearGradient id="p" gradientUnits="userSpaceOnUse" x1="43.678" y1="61.724" x2="43.678" y2="23.771"><stop offset="0" stop-color="#adccdc"/><stop offset=".024" stop-color="#a9c8d8"/><stop offset=".323" stop-color="#81a1b0"/><stop offset=".595" stop-color="#648493"/><stop offset=".83" stop-color="#527281"/><stop offset="1" stop-color="#4c6c7b"/></linearGradient><path d="M53.5 45c-.8-5.3-6.4-8.8-10.6-11.4-1.8-1.1-4.8-2.6-5.1-5-.2-1-.2-2-.2-3 0-.4 0-.8-.1-1.2 0-.5-.6.1-.8-.3-.7-1.1-.4.3-.4.9.2 1.3.3 2.7.3 4 0 2.6-.4 5.1-1.1 7.6-1.5 5.8-2.7 11.8-1.2 17.8.3 1.2.7 2.5 1.2 3.6.2.4.5 1.3.9 1.5 1.6.4 2.8.5 4.1 1.7.8.7 1.4.3 2.3 0 2.8-1.1 5.3-2.6 7.3-4.9 2.9-3.2 4.1-7 3.4-11.3m-3 5.4c-.3 2.2-1.6 4.1-3 5.8-1 1.2-2.4 2.7-3.9 3.2-.5.2.1-.9.2-1 .5-.7 1-1.3 1.6-2 .8-1 1.5-2 1.9-3.1 1.5-3.9 1.2-8.5-1.1-12-1.2-1.9-2.9-3.5-4.6-4.9-.8-.7-1.7-1.4-2.4-2.2-.2-.2-1.6-2.1-1.1-2.3.1-.1 3.2 3.2 3.6 3.4 1.3 1 2.6 1.9 3.8 3 1.6 1.5 3.3 3.1 4.2 5.1.9 2.1 1.1 4.6.8 7" fill="url(#p)"/><linearGradient id="q" gradientUnits="userSpaceOnUse" x1="31.019" y1="60.16" x2="31.019" y2="18.821"><stop offset="0" stop-color="#adccdc"/><stop offset=".024" stop-color="#a9c8d8"/><stop offset=".323" stop-color="#81a1b0"/><stop offset=".595" stop-color="#648493"/><stop offset=".83" stop-color="#527281"/><stop offset="1" stop-color="#4c6c7b"/></linearGradient><path d="M35.1 18.8c.5.3.6 2.1.6 3.8 0 1.7.2 8.8-.4 10.7-.5 1.9-1.7 4-3 5.9-1.3 1.9-2.8 5.8-2.7 8.2.1 2.4 1.4 6.4 2.5 8.1 1.1 1.7 2.9 4 2.5 4.5-.7.9-3.7-2.3-5.2-4.1-1.6-1.9-3.1-5.6-3.2-8.6-.1-2.9 1.6-5.7 2.8-7.3 1.2-1.7 3.5-4.5 4.1-5.8.6-1.3 1.3-2.7 1.5-4.5.2-1.8 0-8.3 0-8.3s.1-2.9.5-2.6" fill="url(#q)"/><linearGradient id="r" gradientUnits="userSpaceOnUse" x1="26.379" y1="61.542" x2="26.379" y2="21.868"><stop offset="0" stop-color="#adccdc"/><stop offset=".024" stop-color="#a9c8d8"/><stop offset=".323" stop-color="#81a1b0"/><stop offset=".595" stop-color="#648493"/><stop offset=".83" stop-color="#527281"/><stop offset="1" stop-color="#4c6c7b"/></linearGradient><path d="M33.9 21.9c.5.2.5.8.5 1.3 0 .6-.2 2.9-.3 5.2-.2 2.3-2 4.2-3.3 5.5-1.3 1.3-5.2 5.5-6.7 7.6-1.4 2.1-2.2 4.8-2 7.1.2 2.3.7 4.6 2.9 7 2.2 2.4 3.7 3.6 4.8 4.1 1.1.6 2.3 1 2 1.5-.3.5-1.3.2-2.5-.3-1.2-.4-5.2-2.1-7.5-4.7s-3.5-6.2-3.4-9.5c.1-3.4 1-4.8 2.6-6.9 1.6-2.2 5.8-5.4 7.2-6.2 1.3-.8 3.2-2.2 4-3.4.9-1.1 1.3-2.1 1.3-3.6-.1-1.6.1-2.9.1-3.5-.2-.4-.2-1.4.3-1.2" fill="url(#r)"/><linearGradient id="s" gradientUnits="userSpaceOnUse" x1="33.389" y1="64.37" x2="33.389" y2="62.416"><stop offset="0" stop-color="#adccdc"/><stop offset=".024" stop-color="#a9c8d8"/><stop offset=".323" stop-color="#81a1b0"/><stop offset=".595" stop-color="#648493"/><stop offset=".83" stop-color="#527281"/><stop offset="1" stop-color="#4c6c7b"/></linearGradient><path d="M34 62.4c.2 0 .1.9-.3 1.4-.4.5-1 .7-1.1.5-.1-.2.5-.3.9-.7.4-.4.3-1.2.5-1.2" fill="url(#s)"/><linearGradient id="t" gradientUnits="userSpaceOnUse" x1="38.861" y1="64.346" x2="38.861" y2="62.392"><stop offset="0" stop-color="#adccdc"/><stop offset=".024" stop-color="#a9c8d8"/><stop offset=".323" stop-color="#81a1b0"/><stop offset=".595" stop-color="#648493"/><stop offset=".83" stop-color="#527281"/><stop offset="1" stop-color="#4c6c7b"/></linearGradient><path d="M38.2 62.4c-.2 0-.1.9.3 1.4.4.5 1 .7 1.1.5.1-.2-.5-.3-.9-.7-.3-.4-.2-1.2-.5-1.2" fill="url(#t)"/><linearGradient id="u" gradientUnits="userSpaceOnUse" x1="36.221" y1="64.821" x2="36.221" y2="61.94"><stop offset="0" stop-color="#adccdc"/><stop offset=".024" stop-color="#a9c8d8"/><stop offset=".323" stop-color="#81a1b0"/><stop offset=".595" stop-color="#648493"/><stop offset=".83" stop-color="#527281"/><stop offset="1" stop-color="#4c6c7b"/></linearGradient><path d="M36.4 63.4c0 .8 0 1.4-.1 1.4-.2 0-.1-.6-.1-1.4 0-.8-.1-1.4.1-1.4.1-.1.1.6.1 1.4" fill="url(#u)"/></svg>