<svg xmlns="http://www.w3.org/2000/svg" viewBox="0 0 72 100"><linearGradient id="a" gradientUnits="userSpaceOnUse" x1="36" y1="97" x2="36" y2="-1" gradientTransform="translate(0 2)"><stop offset="0" stop-color="#c8d4db"/><stop offset=".139" stop-color="#d8e1e6"/><stop offset=".359" stop-color="#ebf0f3"/><stop offset=".617" stop-color="#f9fafb"/><stop offset="1" stop-color="#fff"/></linearGradient><path d="M45 1l27 26.7V99H0V1h45z" fill="url(#a)"/><path d="M45 1l27 26.7V99H0V1h45z" fill-opacity="0" stroke="#7191a1" stroke-width="2"/><path d="M6.3 90.9V75.1h5.2c2 0 3.2.1 3.8.2.9.2 1.7.8 2.3 1.5.6.8.9 1.8.9 3.1 0 1-.2 1.8-.5 2.4s-.8 1.2-1.4 1.6c-.5.4-1.1.6-1.7.7-.8.2-1.9.2-3.3.2H9.5v5.9H6.3v.2zm3.2-13.1v4.5h1.8c1.3 0 2.1-.1 2.5-.2s.8-.4 1-.8.4-.8.4-1.2c0-.6-.2-1-.5-1.4s-.8-.6-1.3-.7c-.4-.1-1.2-.1-2.3-.1H9.5v-.1zm11.7 13.1V75.1H28c1.7 0 2.9.1 3.7.4.8.3 1.4.8 1.9 1.5s.7 1.6.7 2.5c0 1.2-.4 2.2-1.1 2.9-.7.8-1.8 1.3-3.1 1.5.7.4 1.3.8 1.7 1.3.4.5 1.1 1.3 1.8 2.6l1.9 3.1h-3.8l-2.3-3.4c-.8-1.2-1.4-2-1.7-2.3-.3-.3-.6-.5-1-.7-.3-.1-.9-.2-1.6-.2h-.7v6.6h-3.2zm3.2-9.1h2.4c1.5 0 2.5-.1 2.9-.2s.7-.4.9-.7c.2-.3.3-.7.3-1.2s-.1-1-.4-1.3-.7-.5-1.2-.6c-.3 0-1-.1-2.3-.1h-2.5l-.1 4.1zm12.1 1.3c0-1.6.2-3 .7-4 .4-.8.9-1.5 1.5-2.2.6-.6 1.3-1.1 2.1-1.4 1-.4 2.1-.6 3.4-.6 2.3 0 4.2.7 5.6 2.2 1.4 1.4 2.1 3.4 2.1 6 0 2.5-.7 4.5-2.1 6-1.4 1.4-3.3 2.2-5.6 2.2-2.4 0-4.2-.7-5.6-2.1-1.4-1.6-2.1-3.6-2.1-6.1zm3.4-.1c0 1.8.4 3.1 1.2 4.1.8.9 1.9 1.4 3.2 1.4s2.3-.5 3.2-1.4c.8-.9 1.2-2.3 1.2-4.1 0-1.8-.4-3.2-1.2-4s-1.9-1.3-3.2-1.3-2.4.4-3.2 1.3c-.8.8-1.2 2.2-1.2 4zm14.6 7.9V75.1h5.2c2 0 3.2.1 3.8.2.9.2 1.7.8 2.3 1.5.6.8.9 1.8.9 3.1 0 1-.2 1.8-.5 2.4s-.8 1.2-1.4 1.6c-.5.4-1.1.6-1.7.7-.8.2-1.9.2-3.3.2h-2.1v5.9h-3.2v.2zm3.2-13.1v4.5h1.8c1.3 0 2.1-.1 2.5-.2.4-.2.8-.4 1-.8s.4-.8.4-1.2c0-.6-.2-1-.5-1.4s-.8-.6-1.3-.7c-.4-.1-1.2-.1-2.3-.1h-1.6v-.1z" fill="#4c6c7b"/><g opacity=".9"><linearGradient id="b" gradientUnits="userSpaceOnUse" x1="35.75" y1="34.9" x2="35.75" y2="84.25" gradientTransform="matrix(1 0 0 -1 0 100)"><stop offset="0" stop-color="#adccdc"/><stop offset="1" stop-color="#4c6c7b"/></linearGradient><path d="M23.4 52.7c0 1.2.8 2.1 2.1 2.1h2.1V62c0 1.6 1.4 3.1 3.1 3.1 1.6 0 3.1-1.4 3.1-3.1v-7.2h4.1V62c0 1.6 1.4 3.1 3.1 3.1s3.1-1.4 3.1-3.1v-7.2H46c1.2 0 2.1-.8 2.1-2.1V32.1H23.4v20.6zm-5.1-20.6c-1.6 0-3.1 1.4-3.1 3.1v14.4c0 1.6 1.4 3.1 3.1 3.1 1.6 0 3.1-1.4 3.1-3.1V35.2c0-1.7-1.5-3.1-3.1-3.1zm34.9 0c-1.6 0-3.1 1.4-3.1 3.1v14.4c0 1.6 1.4 3.1 3.1 3.1s3.1-1.4 3.1-3.1V35.2c0-1.7-1.4-3.1-3.1-3.1zM42.9 20.2l2.7-2.7c.4-.4.4-1 0-1.4s-1-.4-1.4 0l-3.1 3.1c-1.4-1-3.3-1.4-5.3-1.4s-3.9.4-5.6 1.2l-2.9-3.1c-.4-.2-1.2-.2-1.6 0-.2.4-.2 1.2 0 1.6l2.7 2.7c-2.9 2.3-4.9 5.8-4.9 9.9h24.7c-.1-4.2-2.2-7.9-5.3-9.9zm-11.3 5.7h-2.1v-2.1h2.1v2.1zm10.3 0h-2.1v-2.1h2.1v2.1z" fill="url(#b)"/></g><linearGradient id="c" gradientUnits="userSpaceOnUse" x1="45.036" y1="25.814" x2="58.536" y2="12.313" gradientTransform="translate(0 2)"><stop offset="0" stop-color="#fff"/><stop offset=".35" stop-color="#fafbfb"/><stop offset=".532" stop-color="#edf1f4"/><stop offset=".675" stop-color="#dde5e9"/><stop offset=".799" stop-color="#c7d3da"/><stop offset=".908" stop-color="#adbdc7"/><stop offset="1" stop-color="#92a5b0"/></linearGradient><path d="M45 1l27 26.7H45V1z" fill="url(#c)"/><path d="M45 1l27 26.7H45V1z" fill-opacity="0" stroke="#7191a1" stroke-width="2" stroke-linejoin="bevel"/></svg>