<svg xmlns="http://www.w3.org/2000/svg" viewBox="0 0 72 100"><linearGradient id="a" gradientUnits="userSpaceOnUse" x1="36" y1="101.001" x2="36" y2="2.517" gradientTransform="matrix(1 0 0 -1 0 102)"><stop offset="0" stop-color="#b5d8e9"/><stop offset=".264" stop-color="#b2d6e8"/><stop offset=".412" stop-color="#a7d0e3"/><stop offset=".53" stop-color="#96c6dc"/><stop offset=".633" stop-color="#7db8d2"/><stop offset=".726" stop-color="#5da7c5"/><stop offset=".812" stop-color="#3094b5"/><stop offset=".892" stop-color="#007fa3"/><stop offset=".966" stop-color="#006a90"/><stop offset="1" stop-color="#006086"/></linearGradient><path d="M45.1 1l27.3 26.9v71.6H-.4V1h45.5z" fill="url(#a)"/><path d="M45.1 1l27.3 26.9v71.6H-.4V1h45.5z" fill-opacity="0" stroke="#366c81" stroke-width="2"/><path d="M9 91.5V71.6h6.6c2.5 0 4.1.1 4.9.3 1.2.3 2.1 1 2.9 2s1.2 2.3 1.2 3.9c0 1.2-.2 2.3-.7 3.1-.5.8-1 1.5-1.7 2s-1.4.8-2.1.9c-1 .2-2.4.3-4.2.3h-2.7v7.5H9zm4.1-16.6v5.7h2.2c1.6 0 2.7-.1 3.2-.3.5-.2 1-.5 1.3-1s.5-1 .5-1.6c0-.7-.2-1.3-.6-1.8-.4-.5-1-.8-1.6-.9-.5-.1-1.5-.1-2.9-.1h-2.1zM26.8 85l4-.4c.2 1.3.7 2.3 1.5 2.9.7.6 1.7.9 3 .9s2.3-.3 3-.8 1-1.2 1-1.9c0-.5-.1-.9-.4-1.2s-.8-.6-1.5-.9c-.5-.2-1.6-.5-3.3-.9-2.2-.5-3.7-1.2-4.6-2-1.2-1.1-1.9-2.4-1.9-4 0-1 .3-2 .9-2.8.6-.9 1.4-1.6 2.5-2 1.1-.5 2.4-.7 4-.7 2.5 0 4.5.5 5.7 1.6 1.3 1.1 2 2.6 2 4.4l-4.1.2c-.2-1-.5-1.8-1.1-2.2-.6-.4-1.4-.7-2.6-.7-1.2 0-2.1.2-2.8.7-.4.3-.6.7-.6 1.2s.2.9.6 1.2c.5.4 1.8.9 3.8 1.3 2 .5 3.5.9 4.4 1.4 1 .5 1.7 1.2 2.2 2 .5.9.8 1.9.8 3.2 0 1.1-.3 2.2-1 3.2s-1.6 1.7-2.7 2.2c-1.2.5-2.6.7-4.4.7-2.6 0-4.5-.6-5.9-1.7-1.4-.9-2.2-2.6-2.5-4.9zm19.9-13.4h7.5c1.7 0 3 .1 3.9.4 1.2.3 2.2 1 3.1 1.8.8.9 1.5 2 1.9 3.2.4 1.3.7 2.8.7 4.7 0 1.6-.2 3.1-.6 4.2-.5 1.5-1.2 2.6-2.2 3.5-.7.7-1.7 1.2-2.9 1.6-.9.3-2.1.4-3.6.4h-7.7V71.6zm4.1 3.3v13.2h3.1c1.1 0 2-.1 2.5-.2.7-.2 1.2-.4 1.7-.8.4-.4.8-1 1.1-1.9.3-.9.4-2.1.4-3.7 0-1.5-.1-2.7-.4-3.5s-.7-1.5-1.2-1.9c-.5-.5-1.1-.8-1.9-.9-.6-.1-1.7-.2-3.4-.2h-1.9z" fill="#fff"/><linearGradient id="b" gradientUnits="userSpaceOnUse" x1="45.199" y1="74.036" x2="58.84" y2="87.677" gradientTransform="matrix(1 0 0 -1 0 102)"><stop offset="0" stop-color="#ebf3f8"/><stop offset=".357" stop-color="#e8f2f7"/><stop offset=".494" stop-color="#dfedf4"/><stop offset=".593" stop-color="#d0e5f0"/><stop offset=".673" stop-color="#bbdae9"/><stop offset=".743" stop-color="#a0cce1"/><stop offset=".805" stop-color="#7fbcd8"/><stop offset=".861" stop-color="#57abcc"/><stop offset=".913" stop-color="#0b99bf"/><stop offset=".959" stop-color="#0087b1"/><stop offset="1" stop-color="#0076a3"/></linearGradient><path d="M45.1 1l27.3 26.9H45.1V1z" fill="url(#b)"/><path d="M45.1 1l27.3 26.9H45.1V1z" fill-opacity="0" stroke="#346a80" stroke-width="2" stroke-linejoin="bevel"/><linearGradient id="c" gradientUnits="userSpaceOnUse" x1="517.303" y1="63.152" x2="562.93" y2="63.152" gradientTransform="rotate(180 285.824 51)"><stop offset="0" stop-color="#449ec0"/><stop offset=".188" stop-color="#3e9cbd"/><stop offset=".377" stop-color="#2894b7"/><stop offset=".567" stop-color="#0089ad"/><stop offset=".758" stop-color="#007a9f"/><stop offset=".947" stop-color="#00688f"/><stop offset="1" stop-color="#00638a"/></linearGradient><path d="M48.9 58.2c.8.4-.6.4 0 0zm1.4 2.9c1.1 2.4 2.6 4.3 3.7 6.7.8-.9-1.4-2-.7-3.4-1-.8-1-3.7-3-3.3zM31.7 34.5c-1.6 1.5-4.7 2.2-7.6 2-.1.7.6 1 1 1.5 2.7 3.4 5.6 7.5 8.2 11 4.5-.3 6.9 1.6 9.7 2.9-2.3-.6-5.3-2-8.9-1.8 1.5 1.6 2.2 3.7 4.1 5.1 2.2 1.6 5.6.7 8.7 1.6.6.1.6.9 1.1 1 .5-.2-.2-.9-.5-1.3-9.2-14.6-18.6-30.6-31.3-42 14.7 10.1 22.7 26.8 32.4 41.8.1-1.5.9-3.1.8-4.7-.1-1.5-.9-2.8-1.6-4.1-.7-1.3-1.3-2.7-2.3-3.4-.1 2.4.2 4.4.7 6.2-1-2-2.1-4.8-1.3-7.7-4.7-7-9.5-15-15.2-20.8.2 1.5.6 2.8.5 4.6-.7-1.6-.7-3.8-1.3-5.5-2.4-2.4-5.1-4.4-7.9-6.4-.4.5-.3 1.4-.5 2.1-.3-.8-.3-1.9-.5-2.8-1.6-.9-3.3-1.8-5.3-2.6-1.8-.7-3.8-2-6.1-1.1-.1 1.6.5 2.5.7 3.9 1.1 1.1 3 1.3 5.3 1.1-1.3.5-3.4.4-4.6-.2.2 2.1 1.5 3.8 2.4 5.5 2.9 5.1 6.4 10 10.2 14.4 2.9 1 6.7.8 9.1-.3z" fill="url(#c)"/></svg>