<svg xmlns="http://www.w3.org/2000/svg" viewBox="0 0 72 100"><linearGradient id="a" gradientUnits="userSpaceOnUse" x1="36" y1="97" x2="36" y2="-1" gradientTransform="translate(0 2)"><stop offset="0" stop-color="#c8d4db"/><stop offset=".139" stop-color="#d8e1e6"/><stop offset=".359" stop-color="#ebf0f3"/><stop offset=".617" stop-color="#f9fafb"/><stop offset="1" stop-color="#fff"/></linearGradient><path d="M45 1l27 26.7V99H0V1h45z" fill="url(#a)"/><path d="M45 1l27 26.7V99H0V1h45z" fill-opacity="0" stroke="#7191a1" stroke-width="2"/><linearGradient id="b" gradientUnits="userSpaceOnUse" x1="36" y1="64" x2="36" y2="18"><stop offset="0" stop-color="#adccdc"/><stop offset="1" stop-color="#4c6c7b"/></linearGradient><linearGradient id="c" gradientUnits="userSpaceOnUse" x1="36" y1="64.5" x2="36" y2="17.5"><stop offset="0" stop-color="#adccdc"/><stop offset="1" stop-color="#4c6c7b"/></linearGradient><path d="M31.9 18c-.5 0-1 .4-1.2.8l-1.2 2.3H21c-.8 0-1.6.7-1.6 1.5-.1 13.2.2 26.4 0 39.6 0 .9.7 1.7 1.6 1.7h30.1c.8 0 1.6-.8 1.6-1.6V22.7c0-.8-.8-1.6-1.6-1.6h-8.5l-1.2-2.3c-.3-.5-.8-.8-1.4-.8h-8.1z" fill="url(#b)" stroke="url(#c)" stroke-miterlimit="10"/><path d="M22.5 24.4h5.6c0 1.6.2 3.1 1.6 3.1h12.7c1.6 0 1.6-1.6 1.6-3.1h5.6v36.4h-27c0-12.1 0-24.3-.1-36.4z" fill="#f7f8fa"/><linearGradient id="d" gradientUnits="userSpaceOnUse" x1="26.501" y1="34.649" x2="45.525" y2="34.649"><stop offset="0" stop-color="#adccdc"/><stop offset="1" stop-color="#4c6c7b"/></linearGradient><path fill="url(#d)" d="M26.5 33.1h19v3.2h-19z"/><linearGradient id="e" gradientUnits="userSpaceOnUse" x1="26.501" y1="41" x2="45.525" y2="41"><stop offset="0" stop-color="#adccdc"/><stop offset="1" stop-color="#4c6c7b"/></linearGradient><path fill="url(#e)" d="M26.5 39.4h19v3.2h-19z"/><linearGradient id="f" gradientUnits="userSpaceOnUse" x1="26.501" y1="47.337" x2="45.525" y2="47.337"><stop offset="0" stop-color="#adccdc"/><stop offset="1" stop-color="#4c6c7b"/></linearGradient><path fill="url(#f)" d="M26.5 45.8h19v3.1h-19z"/><linearGradient id="g" gradientUnits="userSpaceOnUse" x1="26.501" y1="53.673" x2="39.202" y2="53.673"><stop offset="0" stop-color="#adccdc"/><stop offset="1" stop-color="#4c6c7b"/></linearGradient><path fill="url(#g)" d="M26.5 52.1h12.7v3.2H26.5z"/><linearGradient id="h" gradientUnits="userSpaceOnUse" x1="45.037" y1="25.813" x2="58.537" y2="12.313" gradientTransform="translate(0 2)"><stop offset="0" stop-color="#fff"/><stop offset=".35" stop-color="#fafbfb"/><stop offset=".532" stop-color="#edf1f4"/><stop offset=".675" stop-color="#dde5e9"/><stop offset=".799" stop-color="#c7d3da"/><stop offset=".908" stop-color="#adbdc7"/><stop offset="1" stop-color="#92a5b0"/></linearGradient><path d="M45 1l27 26.7H45V1z" fill="url(#h)"/><path d="M45 1l27 26.7H45V1z" fill-opacity="0" stroke="#7191a1" stroke-width="2" stroke-linejoin="bevel"/><path d="M10.1 91.9v-20h8.5c2.1 0 3.7.2 4.7.5s1.7 1 2.3 1.9c.6.9.9 2 .9 3.2 0 1.5-.4 2.7-1.3 3.7s-2.2 1.6-4 1.9c.9.5 1.6 1.1 2.2 1.7.6.6 1.3 1.7 2.3 3.3l2.4 3.9h-4.8l-2.9-4.4c-1-1.6-1.8-2.5-2.1-2.9s-.8-.7-1.2-.8c-.4-.2-1.1-.2-2-.2h-.8v8.4h-4.2zm4-11.6h3c1.9 0 3.2-.1 3.6-.2.5-.2.9-.4 1.1-.8s.4-.9.4-1.5c0-.7-.2-1.2-.5-1.6-.4-.4-.9-.7-1.5-.8-.3 0-1.3-.1-3-.1H14v5zm16.2 11.6v-20h6.5c2.5 0 4.1.1 4.8.3 1.1.3 2.1 1 2.9 2 .8 1 1.2 2.3 1.2 3.9 0 1.2-.2 2.3-.7 3.1-.4.8-1 1.5-1.7 2s-1.4.8-2.1 1c-1 .2-2.4.3-4.2.3h-2.6v7.6h-4.1zm4-16.7v5.7h2.2c1.6 0 2.7-.1 3.2-.3.5-.2 1-.5 1.3-1 .3-.4.5-1 .5-1.6 0-.7-.2-1.3-.6-1.8-.4-.5-1-.8-1.6-.9-.5-.1-1.5-.1-2.9-.1h-2.1zm19.1 16.7V75.2h-5.9v-3.4h15.9v3.4h-5.9v16.7h-4.1z" fill="#4c6c7b"/></svg>