<svg xmlns="http://www.w3.org/2000/svg" viewBox="0 0 72 100"><linearGradient id="a" gradientUnits="userSpaceOnUse" x1="36.108" y1="3.003" x2="36.108" y2="101.001" gradientTransform="matrix(1 0 0 -1 0 102)"><stop offset="0" stop-color="#c8d4db"/><stop offset=".139" stop-color="#d8e1e6"/><stop offset=".359" stop-color="#ebf0f3"/><stop offset=".617" stop-color="#f9fafb"/><stop offset="1" stop-color="#fff"/></linearGradient><path d="M45.1 1L72 27.7V99H.2V1h44.9z" fill="url(#a)"/><path d="M45.1 1L72 27.7V99H.2V1h44.9z" fill-opacity="0" stroke="#7191a1" stroke-width="2"/><path d="M9.9 91.1V71.2h8.5c2.1 0 3.7.2 4.7.5s1.7 1 2.3 1.9c.6.9.9 2 .9 3.1 0 1.5-.4 2.7-1.3 3.7s-2.2 1.6-4 1.8c.9.5 1.6 1.1 2.2 1.7.6.6 1.3 1.7 2.3 3.2l2.4 3.9H23l-2.9-4.3c-1-1.5-1.7-2.5-2.1-2.9-.4-.4-.8-.7-1.2-.8-.4-.1-1.1-.2-2-.2H14v8.3H9.9zm4-11.5h3c1.9 0 3.1-.1 3.6-.2.5-.2.9-.4 1.1-.8.3-.4.4-.9.4-1.5 0-.7-.2-1.2-.5-1.6s-.9-.7-1.5-.8c-.3 0-1.3-.1-2.9-.1H14v5zm15.1 5l3.9-.4c.2 1.3.7 2.3 1.4 2.9.7.6 1.7.9 2.9.9 1.3 0 2.3-.3 2.9-.8s1-1.2 1-1.9c0-.5-.1-.9-.4-1.2s-.8-.6-1.5-.9c-.5-.2-1.5-.5-3.2-.9-2.2-.5-3.7-1.2-4.6-2-1.2-1.1-1.8-2.4-1.8-4 0-1 .3-2 .9-2.8.6-.9 1.4-1.5 2.5-2s2.4-.7 3.9-.7c2.5 0 4.4.5 5.7 1.6 1.3 1.1 1.9 2.5 2 4.4l-4 .2c-.2-1-.5-1.8-1.1-2.2-.6-.4-1.4-.7-2.6-.7-1.2 0-2.1.2-2.8.7-.4.3-.6.7-.6 1.2s.2.9.6 1.2c.5.4 1.7.9 3.7 1.3 2 .5 3.4.9 4.4 1.4.9.5 1.7 1.2 2.2 2 .5.9.8 1.9.8 3.2 0 1.1-.3 2.2-1 3.2s-1.5 1.7-2.7 2.2c-1.2.5-2.6.7-4.3.7-2.5 0-4.5-.6-5.8-1.7-1.3-1-2.1-2.7-2.4-4.9zm24.1 6.5V74.6h-5.9v-3.4h15.9v3.4h-5.9v16.5h-4.1z" fill="#4c6c7b"/><linearGradient id="b" gradientUnits="userSpaceOnUse" x1="12.35" y1="33.75" x2="60.95" y2="33.75" gradientTransform="translate(0 2)"><stop offset="0" stop-color="#7291a1"/><stop offset="1" stop-color="#cad5db"/></linearGradient><path d="M12.4 33.7H61v4.1H12.4v-4.1z" fill="url(#b)"/><linearGradient id="c" gradientUnits="userSpaceOnUse" x1="12.35" y1="57.85" x2="60.95" y2="57.85" gradientTransform="translate(0 2)"><stop offset="0" stop-color="#7291a1"/><stop offset="1" stop-color="#cad5db"/></linearGradient><path d="M12.4 57.8H61v4.1H12.4v-4.1z" fill="url(#c)"/><linearGradient id="d" gradientUnits="userSpaceOnUse" x1="12.35" y1="46.05" x2="60.95" y2="46.05" gradientTransform="translate(0 2)"><stop offset="0" stop-color="#7291a1"/><stop offset="1" stop-color="#cad5db"/></linearGradient><path d="M12.4 46H61v4.1H12.4V46z" fill="url(#d)"/><linearGradient id="e" gradientUnits="userSpaceOnUse" x1="12.35" y1="21.65" x2="60.95" y2="21.65" gradientTransform="translate(0 2)"><stop offset="0" stop-color="#7291a1"/><stop offset="1" stop-color="#cad5db"/></linearGradient><path d="M12.4 21.6H61v4.1H12.4v-4.1z" fill="url(#e)"/><linearGradient id="f" gradientUnits="userSpaceOnUse" x1="45.122" y1="74.229" x2="58.575" y2="87.683" gradientTransform="matrix(1 0 0 -1 0 102)"><stop offset="0" stop-color="#fff"/><stop offset=".35" stop-color="#fafbfb"/><stop offset=".532" stop-color="#edf1f4"/><stop offset=".675" stop-color="#dde5e9"/><stop offset=".799" stop-color="#c7d3da"/><stop offset=".908" stop-color="#adbdc7"/><stop offset="1" stop-color="#92a5b0"/></linearGradient><path d="M45.1 1L72 27.7H45.1V1z" fill="url(#f)"/><path d="M45.1 1L72 27.7H45.1V1z" fill-opacity="0" stroke="#7191a1" stroke-width="2" stroke-linejoin="bevel"/></svg>