<svg xmlns="http://www.w3.org/2000/svg" viewBox="0 0 72 100"><linearGradient id="a" gradientUnits="userSpaceOnUse" x1="36.108" y1="3.003" x2="36.108" y2="101.001" gradientTransform="matrix(1 0 0 -1 0 102)"><stop offset="0" stop-color="#c8d4db"/><stop offset=".139" stop-color="#d8e1e6"/><stop offset=".359" stop-color="#ebf0f3"/><stop offset=".617" stop-color="#f9fafb"/><stop offset="1" stop-color="#fff"/></linearGradient><path d="M45.1 1L72 27.7V99H.2V1h44.9z" fill="url(#a)"/><path d="M45.1 1L72 27.7V99H.2V1h44.9z" fill-opacity="0" stroke="#7191a1" stroke-width="2"/><linearGradient id="b" gradientUnits="userSpaceOnUse" x1="26.861" y1="55.391" x2="26.861" y2="21.5"><stop offset="0" stop-color="#adccdc"/><stop offset="1" stop-color="#4c6c7b"/></linearGradient><path d="M38.7 45.4l3.2.9 1.9-7-3.2-.9c0-1.1-.1-2.3-.4-3.4l2.9-1.7-3.7-6.3-2.9 1.7c-.8-.8-1.7-1.5-2.7-2.1l.9-3.2-7-1.9-.9 3.2c-1.1 0-2.3.1-3.4.4l-1.7-2.9-6.3 3.6 1.7 2.9c-.8.8-1.5 1.7-2.1 2.7l-3.2-.9-1.9 7 3.2.9c0 1.1.1 2.3.4 3.4l-2.9 1.7 3.6 6.3 2.9-1.7c.8.8 1.7 1.5 2.7 2.1l-.9 3.2 7 1.9.9-3.2c1.1 0 2.3-.2 3.4-.4l1.7 2.9 6.3-3.6-1.7-2.9c.9-.8 1.6-1.7 2.2-2.7zm-17.4-3.7c-1.8-3.1-.7-7.1 2.4-8.8 3.1-1.8 7.1-.7 8.8 2.4 1.8 3.1.7 7.1-2.4 8.8-3.1 1.7-7.1.7-8.8-2.4z" fill="url(#b)"/><linearGradient id="c" gradientUnits="userSpaceOnUse" x1="52.002" y1="64.5" x2="52.002" y2="42.336"><stop offset="0" stop-color="#adccdc"/><stop offset="1" stop-color="#4c6c7b"/></linearGradient><path d="M55.4 64l4.1-2.4-1.1-1.9c.5-.5 1-1.1 1.4-1.8l2.1.6 1.2-4.6-2.1-.5c0-.7-.1-1.5-.3-2.2l1.9-1.1-2.4-4.1-1.9 1c-.5-.5-1.1-1-1.8-1.4l.6-2.1-4.6-1.2-.6 2.1c-.7 0-1.5.1-2.2.3l-1.1-1.9-4.1 2.4 1.1 1.9c-.5.5-1 1.1-1.4 1.8l-2.1-.6-1.2 4.6 2.1.6c0 .7.1 1.5.3 2.2l-1.9 1.1 2.4 4.1 1.9-1.1c.5.5 1.1 1 1.8 1.4l-.6 2.1 4.6 1.2.6-2.1c.7 0 1.5-.1 2.2-.3l1.1 1.9zm-7.1-8.5c-1.2-2-.5-4.6 1.6-5.8 2-1.2 4.6-.5 5.8 1.5 1.2 2 .5 4.6-1.5 5.8-2.1 1.2-4.7.6-5.9-1.5z" fill="url(#c)"/><path d="M8.3 84.6l3.9-.4c.2 1.3.7 2.3 1.4 2.9.7.6 1.7.9 2.9.9 1.3 0 2.3-.3 2.9-.8.7-.5 1-1.2 1-1.9 0-.5-.1-.9-.4-1.2-.3-.3-.8-.6-1.5-.9-.5-.2-1.5-.5-3.2-.9-2.2-.5-3.7-1.2-4.6-2-1-1-1.7-2.3-1.7-3.9 0-1 .3-2 .9-2.8.6-.9 1.4-1.5 2.5-2s2.4-.7 3.9-.7c2.5 0 4.4.5 5.7 1.6s1.9 2.5 2 4.4l-4 .2c-.2-1-.5-1.8-1.1-2.2-.6-.4-1.4-.7-2.6-.7-1.2 0-2.1.2-2.8.7-.4.3-.6.7-.6 1.2s.2.9.6 1.2c.5.4 1.7.9 3.7 1.3s3.4.9 4.4 1.4c.9.5 1.7 1.2 2.2 2 .5.9.8 1.9.8 3.2 0 1.1-.3 2.2-1 3.2-.6 1-1.5 1.7-2.7 2.2s-2.6.7-4.3.7c-2.5 0-4.5-.6-5.8-1.7-1.4-1.1-2.2-2.8-2.5-5zM28 91.1V71.2h14.8v3.4H32V79h10v3.3H32v5.4h11.2V91H28zm18.6-19.9H54c1.7 0 2.9.1 3.8.4 1.2.3 2.2 1 3 1.8s1.5 1.9 1.9 3.2c.4 1.3.7 2.8.7 4.7 0 1.6-.2 3-.6 4.2-.5 1.4-1.2 2.6-2.1 3.5-.7.7-1.6 1.2-2.8 1.6-.9.3-2.1.4-3.6.4h-7.6V71.2zm4 3.4v13.1h3c1.1 0 1.9-.1 2.4-.2.7-.2 1.2-.4 1.6-.8s.8-1 1.1-1.9.4-2.1.4-3.6-.1-2.7-.4-3.5-.7-1.5-1.1-1.9c-.5-.5-1.1-.8-1.9-.9-.6-.1-1.7-.2-3.3-.2h-1.8z" fill="#4c6c7b"/><linearGradient id="d" gradientUnits="userSpaceOnUse" x1="45.122" y1="74.229" x2="58.575" y2="87.683" gradientTransform="matrix(1 0 0 -1 0 102)"><stop offset="0" stop-color="#fff"/><stop offset=".35" stop-color="#fafbfb"/><stop offset=".532" stop-color="#edf1f4"/><stop offset=".675" stop-color="#dde5e9"/><stop offset=".799" stop-color="#c7d3da"/><stop offset=".908" stop-color="#adbdc7"/><stop offset="1" stop-color="#92a5b0"/></linearGradient><path d="M45.1 1L72 27.7H45.1V1z" fill="url(#d)"/><path d="M45.1 1L72 27.7H45.1V1z" fill-opacity="0" stroke="#7191a1" stroke-width="2" stroke-linejoin="bevel"/></svg>