<svg xmlns="http://www.w3.org/2000/svg" viewBox="0 0 72 100"><linearGradient id="a" gradientUnits="userSpaceOnUse" x1="36.2" y1="3.018" x2="36.2" y2="101.052" gradientTransform="matrix(1 0 0 -1 0 102)"><stop offset="0" stop-color="#00a6e9"/><stop offset=".002" stop-color="#00a7e9"/><stop offset=".092" stop-color="#00b2ec"/><stop offset=".186" stop-color="#23bdef"/><stop offset=".286" stop-color="#66c8f2"/><stop offset=".393" stop-color="#89d3f5"/><stop offset=".507" stop-color="#a1dbf8"/><stop offset=".633" stop-color="#b2e2f9"/><stop offset=".781" stop-color="#bce6fb"/><stop offset="1" stop-color="#bfe7fb"/></linearGradient><path d="M45.2.9l27.1 26.7V99H.1V1h45.1z" fill="url(#a)"/><path d="M45.2.9l27.1 26.7V99H.1V1h45.1z" fill-opacity="0" stroke="#0096db" stroke-width="2"/><linearGradient id="b" gradientUnits="userSpaceOnUse" x1="58.773" y1="87.876" x2="49.741" y2="78.845" gradientTransform="matrix(1 0 0 -1 0 102)"><stop offset="0" stop-color="#009de1"/><stop offset=".03" stop-color="#00a3e3"/><stop offset=".095" stop-color="#00b1e7"/><stop offset=".166" stop-color="#67c0ec"/><stop offset=".241" stop-color="#92cef0"/><stop offset=".321" stop-color="#b4dbf4"/><stop offset=".407" stop-color="#cee7f8"/><stop offset=".503" stop-color="#e3f0fb"/><stop offset=".614" stop-color="#f1f8fd"/><stop offset=".751" stop-color="#fbfdfe"/><stop offset="1" stop-color="#fff"/></linearGradient><path d="M45.2.8l27.1 26.7H45.2V.8z" fill="url(#b)"/><path d="M45.2.8l27.1 26.7H45.2V.8z" fill-opacity="0" stroke="#0096db" stroke-width="2" stroke-linejoin="bevel"/><path d="M7.9 84.9l3.1-.3c.2 1 .6 1.8 1.1 2.3.6.5 1.4.7 2.3.7 1 0 1.8-.2 2.3-.7.5-.4.8-.9.8-1.5 0-.4-.1-.7-.3-1-.2-.3-.6-.5-1.2-.7-.4-.1-1.2-.4-2.6-.7-1.7-.4-2.9-.9-3.6-1.6-1-.9-1.5-1.9-1.5-3.2 0-.8.2-1.6.7-2.2.5-.7 1.1-1.2 2-1.6s1.9-.5 3.1-.5c2 0 3.5.4 4.5 1.3s1.5 2 1.6 3.5l-3 .3c-.1-.8-.4-1.4-.9-1.7-.5-.4-1.1-.5-2-.5-.9 0-1.7.2-2.2.6-.3.2-.5.6-.5 1s.2.7.5 1c.4.3 1.4.7 3 1.1 1.6.4 2.7.7 3.5 1.1.8.4 1.3.9 1.8 1.6.4.7.6 1.5.6 2.5 0 .9-.3 1.7-.8 2.5S19 89.6 18 90c-.9.4-2.1.6-3.5.6-2 0-3.6-.5-4.6-1.4-1.1-1.2-1.8-2.5-2-4.3zm19.3 5.2V77h-4.7v-2.7h12.7V77h-4.7v13.1h-3.3zm10 0V74.3H49V77h-8.6v3.5h8v2.7h-8v4.3h8.9v2.7H37.2zm14.9 0V74.3h5.2c2 0 3.2.1 3.8.2.9.2 1.7.8 2.3 1.5.6.8.9 1.8.9 3.1 0 1-.2 1.8-.5 2.4-.4.7-.8 1.2-1.4 1.6-.5.4-1.1.6-1.7.7-.8.2-1.9.2-3.3.2h-2.1v5.9h-3.2zM55.3 77v4.5h1.8c1.3 0 2.1-.1 2.5-.2.4-.2.8-.4 1-.8.2-.4.4-.8.4-1.2 0-.6-.2-1-.5-1.4s-.8-.6-1.3-.7c-.4-.2-1.2-.2-2.3-.2h-1.6z" fill="#fff"/><linearGradient id="c" gradientUnits="userSpaceOnUse" x1="36.1" y1="97.426" x2="36.1" y2="37.782" gradientTransform="matrix(1 0 0 -1 0 102)"><stop offset="0" stop-color="#009ade"/><stop offset="1" stop-color="#00bdf2"/></linearGradient><path d="M1.7 9.5l17.3 13 1.8-2.4L1 5.3V9l.7.5zm36 23.3l5.5-7.1-1.2-.9-6.6-5.1.7.5 8.2-10.7v-5l-10.7 14-7.1-5.5-12.9 16.6 7.1 5.4L1.1 59.9 1 64.2l22.1-27.4-.9-.7 8.1 6.1 5.5-7.1 35.4 26.6V58L37.7 32.8zm-8 5.5l-11.9-9 9.1-11.8 11.9 9-9.1 11.8z" fill="url(#c)"/></svg>