<svg id="Layer_2" xmlns="http://www.w3.org/2000/svg" viewBox="0 0 72 100"><style>.st2{fill:#fa2a22}</style><linearGradient id="SVGID_1_" gradientUnits="userSpaceOnUse" x1="36" y1="-3.2" x2="36" y2="95.3" gradientTransform="translate(0 4)"><stop offset=".005" stop-color="#fcae3f"/><stop offset="1" stop-color="#fe522e"/></linearGradient><path d="M45 .8l27 26.9v71.6H0V.8h45z" fill="url(#SVGID_1_)"/><linearGradient id="SVGID_2_" gradientUnits="userSpaceOnUse" y1="50" x2="72" y2="50"><stop offset=".005" stop-color="#fcae3f"/><stop offset="1" stop-color="#fc7032"/></linearGradient><path d="M45 .8l27 26.9v71.6H0V.8h45z" fill="url(#SVGID_2_)" fill-opacity="0" stroke="#c15127" stroke-width="2"/><path class="st2" d="M15.4 24.5c.2-.1.8-.2 1.5-.2h.9c1.2.1 2.3.3 3.6 1.3.3.2.7.6 1 .9.1.1.2.3.4.1.3-.4.8-1.4 1.6-2.1.5-.5 1.8-1.2 3.9-1.2h1c2.7.3 6.9 1.4 10 2.3 2.7.8 14.2 4.6 14.3 4.7 0 0 1 .3.8.8-.1.3-.8.3-1 .2C52 31 39.8 29.7 37 29.6c-1.9-.1-2.8.5-3 1.5-.1.7.9 4.5 2 5.9.6.3 5.2 2.6 7.2 3.5.4.2 1.2.5 2.4 1 5.1 2.1 15.3 6.6 16.4 7.1.7.4.8 1.4.5 1.3-.6-.2-1.3-.5-1.5-.6-1-.5-12.1-4.8-15-5.5-1.9-.5-3.3-.8-4.2-.8-.2 0-.7 0-.8.4-.2.7.6 1.8 1.3 2.8.1.1.2.2.2.4.8 1.2 3.1 4.5 4.2 5.8 1.1 1.3 8.5 9.9 8.6 10.1.1.3-.7.1-.7.1-.2-.1-1-.3-1.5-.9-.6-.7-16.8-17.4-18.2-18.6-.6-.5-2.1-1.5-3.5-1.3-1.6.2-3.1 1.7-3.1 3.5 0 1 .2 2.5.5 4.4.4 2.4.6 3.3 1.3 5.9.1.5.3 1.1.4 1.7.2.7.4 1.5.6 2.3 1.2 4.6 1.2 5.1.9 5.3-.2.1-.4 0-1.2-.9-.4-.5-1-1.2-1.8-2.2-1.3-1.7-3.3-4.3-5.2-7-2.3-3.4-6.4-12.3-6.9-14.1-.1-.5-1.1-3.4-.3-4.5.1-.1 1.1-1.3 1.1-1.9-.1-.6-.5-1.4-1-2.2-.5-.8-1-1.6-1.4-2.6-.7-1.6-.7-2.9-.8-3.4l-.5-1.9 1.4.3z"/><path class="st2" d="M15.3 26s.7 2.7 1.8 4.1c1.1 1.4 4.6 4.8 2.8 6-1.8 1.2-2.7 1-1.6 4.9 1.1 3.9 4.9 10.8 5.6 11.9 1.7 2.7 5.2 5.1 5 1.7-.1-1.8-.4-2.8-.8-4.7-.4-2-.5-3.5-.5-4.5 0-1.6 1.8-4.4 2-4.7.2-.3.5-.7 1.1-.7 1.6-.1 4.1 2.2 4.7 2.7.3.3 1.4 1.3 2.8 2.7 1.4 1.2 3.5 2.9 4 3.3.8.6 1.5 1.6.2-.9-.1-.2-.6-1-.7-1.1-.8-1.2-1.6-2.5-1.3-3.6.2-.5.7-.8 1.5-.8 1 0 2.5.3 4.4.8.9.2 4.8 1.6 4.8 1.4 0-.3-4.3-1.9-5.6-2.5-1.1-.5-2-.8-2.4-1-2.1-.9-7.2-3.5-7.3-3.5h-.1l-.1-.1c-1.5-1.9-2.4-5.9-2.2-6.5.2-.9.9-2.1 3.3-2.1h.4c.8 0 2.3.1 4.1.3 2.6.1 5.8.2 6.1-.2 0 0 0-.2-.2-.2-3.2-1-6.6-2.2-8-2.6-1.8-.5-4-1.1-6-1.6-3.3-.7-5.3-.6-6.3-.3-2.6.8-2.4 3.1-2.9 3.7-.7.8-1.6-.6-2.2-1.1-.5-.5-1-.9-1.3-1.1-1.2-.8-3.1-.8-3.3-.8-.8 0-1.4.2-1.4.2h-.1l-.5-.1.2 1z"/><linearGradient id="SVGID_3_" gradientUnits="userSpaceOnUse" x1="45.07" y1="23.68" x2="58.57" y2="10.18" gradientTransform="translate(0 4)"><stop offset="0" stop-color="#fffce3"/><stop offset=".383" stop-color="#fffae0"/><stop offset=".521" stop-color="#fdf3d8"/><stop offset=".62" stop-color="#fbebcc"/><stop offset=".699" stop-color="#f8dfbb"/><stop offset=".767" stop-color="#f5d0a6"/><stop offset=".828" stop-color="#f1bf8d"/><stop offset=".882" stop-color="#ecaa72"/><stop offset=".933" stop-color="#e79354"/><stop offset=".977" stop-color="#e27c34"/><stop offset="1" stop-color="#df6f26"/></linearGradient><path d="M45 .8l27 26.9H45V.8z" fill="url(#SVGID_3_)"/><path d="M45 .8l27 26.9H45V.8z" fill-opacity="0" stroke="#c15127" stroke-width="2" stroke-linejoin="bevel"/><path d="M5 86.6l2.8-.3c.2.9.5 1.6 1 2.1s1.2.7 2.1.7c.9 0 1.6-.2 2.1-.6s.7-.9.7-1.4c0-.3-.1-.6-.3-.9-.2-.2-.5-.4-1-.6-.3-.1-1.1-.3-2.3-.6-1.6-.4-2.7-.9-3.3-1.4-.9-.8-1.3-1.7-1.3-2.9 0-.7.2-1.4.6-2 .4-.6 1-1.1 1.8-1.5s1.7-.5 2.8-.5c1.8 0 3.2.4 4.1 1.2.9.8 1.4 1.8 1.4 3.2l-2.9.1c-.1-.7-.4-1.3-.8-1.6s-1-.5-1.8-.5-1.5.2-2 .5c-.3.2-.5.5-.5.9 0 .3.1.6.4.9.4.3 1.3.6 2.7 1s2.5.7 3.1 1 1.2.8 1.6 1.5.6 1.4.6 2.3c0 .8-.2 1.6-.7 2.3-.5.7-1.1 1.2-1.9 1.6-.8.3-1.9.5-3.1.5-1.8 0-3.2-.4-4.2-1.3S5.2 88.2 5 86.6zm16.2 4.7L17.8 77h3l2.2 9.8 2.6-9.8H29l2.5 10 2.2-10h2.9l-3.5 14.3H30l-2.9-10.7-2.9 10.7h-3zm16.9 0V77H41v14.3h-2.9zm5.7 0V77h9.9v2.4h-7v3.4h6v2.4h-6v6.1h-2.9zm15.5 0V79.4H55V77h11.5v2.4h-4.3v11.9h-2.9z" fill="#fff"/></svg>