<svg xmlns="http://www.w3.org/2000/svg" viewBox="0 0 72 100"><linearGradient id="a" gradientUnits="userSpaceOnUse" x1="36" y1="97" x2="36" y2="-1" gradientTransform="translate(0 2)"><stop offset="0" stop-color="#c8d4db"/><stop offset=".139" stop-color="#d8e1e6"/><stop offset=".359" stop-color="#ebf0f3"/><stop offset=".617" stop-color="#f9fafb"/><stop offset="1" stop-color="#fff"/></linearGradient><path d="M45 1l27 26.7V99H0V1h45z" fill="url(#a)"/><path d="M45 1l27 26.7V99H0V1h45z" fill-opacity="0" stroke="#7191a1" stroke-width="2"/><g opacity=".9"><linearGradient id="b" gradientUnits="userSpaceOnUse" x1="10.495" y1="55.885" x2="61.505" y2="55.885"><stop offset="0" stop-color="#adccdc"/><stop offset="1" stop-color="#4c6c7b"/></linearGradient><path d="M61.5 53.4c0-2-1.6-3.6-3.6-3.6H14.1c-2 0-3.6 1.6-3.6 3.6v5c0 2 1.6 3.6 3.6 3.6h43.8c2 0 3.6-1.6 3.6-3.6v-5zm-18.9 4.5c-1.1 0-2-.9-2-2s.9-2 2-2 2 .9 2 2c.1 1.1-.8 2-2 2zm6.2 0c-1.1 0-2-.9-2-2s.9-2 2-2 2 .9 2 2-.9 2-2 2zm6.1 0c-1.1 0-2-.9-2-2s.9-2 2-2 2 .9 2 2-.9 2-2 2z" fill="url(#b)"/><linearGradient id="c" gradientUnits="userSpaceOnUse" x1="11.354" y1="42.192" x2="60.646" y2="42.192"><stop offset="0" stop-color="#adccdc"/><stop offset="1" stop-color="#4c6c7b"/></linearGradient><path d="M14.1 47.7h43.8c1 0 1.9.3 2.7.7l-4.2-8.9c-1.2-2.6-3.1-3.6-5.1-3.6h-4.8l-6.9 7c-.5.5-1 .9-1.7 1.2-.6.3-1.3.4-2 .4s-1.4-.1-2-.4h-.2c-.5-.3-1-.6-1.5-1l-6.9-7h-4.8c-2 0-3.8 1.1-5.1 3.6l-4.2 8.9c1-.6 1.9-.9 2.9-.9z" fill="url(#c)"/><linearGradient id="d" gradientUnits="userSpaceOnUse" x1="25.006" y1="29.918" x2="46.992" y2="29.918"><stop offset="0" stop-color="#adccdc"/><stop offset="1" stop-color="#4c6c7b"/></linearGradient><path d="M46.2 32.6c.2-.2.4-.5.6-.9.1-.3.2-.7.2-1 0-.4-.1-.7-.2-1-.1-.3-.3-.6-.6-.8-.3-.3-.5-.5-.9-.6-.3-.1-.6-.2-1-.2s-.7.1-1 .2l-.9.6-3.9 4V20.5c0-.4-.1-.7-.2-1-.1-.3-.3-.6-.6-.9-.2-.3-.5-.5-.9-.6-.3-.1-.6-.2-1-.2s-.7.1-1 .2l-.9.6c-.2.3-.4.5-.6.9-.1.3-.2.7-.2 1v12.3l-3.9-4c-.2-.2-.5-.4-.9-.6-.3-.1-.6-.2-1-.2s-.7.1-1 .2c-.3.1-.6.3-.9.6-.2.2-.4.5-.6.8-.1.3-.2.7-.2 1 0 .4.1.7.2 1 .1.3.3.6.6.9l8.4 8.6c.2.2.5.4.9.6.3.1.6.2 1 .2s.7-.1 1-.2c.3-.1.6-.3.9-.6l8.6-8.5z" fill="url(#d)"/></g><linearGradient id="e" gradientUnits="userSpaceOnUse" x1="45.037" y1="25.813" x2="58.537" y2="12.313" gradientTransform="translate(0 2)"><stop offset="0" stop-color="#fff"/><stop offset=".35" stop-color="#fafbfb"/><stop offset=".532" stop-color="#edf1f4"/><stop offset=".675" stop-color="#dde5e9"/><stop offset=".799" stop-color="#c7d3da"/><stop offset=".908" stop-color="#adbdc7"/><stop offset="1" stop-color="#92a5b0"/></linearGradient><path d="M45 1l27 26.7H45V1z" fill="url(#e)"/><path d="M45 1l27 26.7H45V1z" fill-opacity="0" stroke="#7191a1" stroke-width="2" stroke-linejoin="bevel"/><path d="M5.6 85.4l3.9-.4c.2 1.3.7 2.3 1.4 2.9s1.7.9 2.9.9c1.3 0 2.3-.3 2.9-.8.7-.6 1-1.2 1-1.9 0-.5-.1-.9-.4-1.2-.3-.3-.8-.6-1.5-.9-.5-.2-1.6-.5-3.2-.9-2.2-.5-3.7-1.2-4.6-2-1.2-1.1-1.8-2.4-1.8-4 0-1 .3-2 .9-2.9.6-.9 1.4-1.6 2.5-2 1.1-.5 2.4-.7 3.9-.7 2.5 0 4.4.6 5.7 1.7s1.9 2.6 2 4.4l-4 .2c-.2-1-.5-1.8-1.1-2.2-.6-.5-1.4-.7-2.6-.7-1.2 0-2.1.2-2.8.7-.4.3-.6.7-.6 1.2s.2.9.6 1.2c.5.4 1.8.9 3.7 1.3s3.4.9 4.4 1.4 1.7 1.2 2.2 2 .8 1.9.8 3.2c0 1.1-.3 2.2-1 3.2-.6 1-1.5 1.7-2.7 2.2-1.2.5-2.6.7-4.4.7-2.5 0-4.5-.6-5.8-1.8-1.3-.9-2.1-2.6-2.3-4.8zm22.5 6.5l-4.8-20h4.1l3 13.8 3.7-13.8H39l3.5 14 3.1-14h4.1l-4.9 20h-4.3l-4-15-4 15h-4.4zm23.6 0v-20h6.5c2.5 0 4.1.1 4.8.3 1.1.3 2.1 1 2.9 2 .8 1 1.2 2.3 1.2 3.9 0 1.2-.2 2.3-.7 3.1-.4.8-1 1.5-1.7 2s-1.4.8-2.1 1c-1 .2-2.4.3-4.2.3h-2.6v7.6h-4.1zm4.1-16.7v5.7H58c1.6 0 2.7-.1 3.2-.3.5-.2 1-.5 1.3-1 .3-.4.5-1 .5-1.6 0-.7-.2-1.3-.6-1.8-.4-.5-1-.8-1.6-.9-.5-.1-1.5-.1-2.9-.1h-2.1z" fill="#4c6c7b"/></svg>