<svg xmlns="http://www.w3.org/2000/svg" viewBox="0 0 72 100"><linearGradient id="a" gradientUnits="userSpaceOnUse" x1="36.108" y1="3.003" x2="36.108" y2="101.001" gradientTransform="matrix(1 0 0 -1 0 102)"><stop offset="0" stop-color="#c8d4db"/><stop offset=".139" stop-color="#d8e1e6"/><stop offset=".359" stop-color="#ebf0f3"/><stop offset=".617" stop-color="#f9fafb"/><stop offset="1" stop-color="#fff"/></linearGradient><path d="M45.1 1L72 27.7V99H.2V1h44.9z" fill="url(#a)"/><path d="M45.1 1L72 27.7V99H.2V1h44.9z" fill-opacity="0" stroke="#7191a1" stroke-width="2"/><path d="M15.1 91.1V74.6H9.2v-3.4h15.9v3.4h-5.9v16.5h-4.1zm12.6 0V71.2h14.8v3.4H31.7V79h10v3.3h-10v5.4h11.2V91H27.7zm16.5 0L51 80.7l-6.2-9.5h4.7l4 6.4 3.9-6.4h4.7L56 80.9l6.8 10.2H58l-4.4-6.9-4.4 6.9h-5z" fill="#4c6c7b"/><linearGradient id="b" gradientUnits="userSpaceOnUse" x1="12.35" y1="33.75" x2="60.95" y2="33.75" gradientTransform="translate(0 2)"><stop offset="0" stop-color="#7291a1"/><stop offset="1" stop-color="#cad5db"/></linearGradient><path d="M12.4 33.7H61v4.1H12.4v-4.1z" fill="url(#b)"/><linearGradient id="c" gradientUnits="userSpaceOnUse" x1="12.35" y1="57.85" x2="60.95" y2="57.85" gradientTransform="translate(0 2)"><stop offset="0" stop-color="#7291a1"/><stop offset="1" stop-color="#cad5db"/></linearGradient><path d="M12.4 57.8H61v4.1H12.4v-4.1z" fill="url(#c)"/><linearGradient id="d" gradientUnits="userSpaceOnUse" x1="12.35" y1="46.05" x2="60.95" y2="46.05" gradientTransform="translate(0 2)"><stop offset="0" stop-color="#7291a1"/><stop offset="1" stop-color="#cad5db"/></linearGradient><path d="M12.4 46H61v4.1H12.4V46z" fill="url(#d)"/><linearGradient id="e" gradientUnits="userSpaceOnUse" x1="12.35" y1="21.65" x2="60.95" y2="21.65" gradientTransform="translate(0 2)"><stop offset="0" stop-color="#7291a1"/><stop offset="1" stop-color="#cad5db"/></linearGradient><path d="M12.4 21.6H61v4.1H12.4v-4.1z" fill="url(#e)"/><linearGradient id="f" gradientUnits="userSpaceOnUse" x1="45.122" y1="74.229" x2="58.575" y2="87.683" gradientTransform="matrix(1 0 0 -1 0 102)"><stop offset="0" stop-color="#fff"/><stop offset=".35" stop-color="#fafbfb"/><stop offset=".532" stop-color="#edf1f4"/><stop offset=".675" stop-color="#dde5e9"/><stop offset=".799" stop-color="#c7d3da"/><stop offset=".908" stop-color="#adbdc7"/><stop offset="1" stop-color="#92a5b0"/></linearGradient><path d="M45.1 1L72 27.7H45.1V1z" fill="url(#f)"/><path d="M45.1 1L72 27.7H45.1V1z" fill-opacity="0" stroke="#7191a1" stroke-width="2" stroke-linejoin="bevel"/></svg>