<svg xmlns="http://www.w3.org/2000/svg" viewBox="0 0 72 100"><linearGradient id="a" gradientUnits="userSpaceOnUse" x1="486.311" y1="-614.109" x2="486.31" y2="-712.109" gradientTransform="translate(-450.061 713.109)"><stop offset="0" stop-color="#742d2d"/><stop offset=".005" stop-color="#827100"/><stop offset="1" stop-color="#ffee91"/></linearGradient><path d="M45.3 1l27.1 26.7V99H.1V1h45.2z" fill="url(#a)"/><path d="M45.3 1l27.1 26.7V99H.1V1h45.2z" fill-opacity="0" stroke="#827100" stroke-width="2"/><path d="M18.1 91.6v-13h-4.7V76H26v2.6h-4.7v12.9l-3.2.1zm9.9 0V76h4.8l2.9 10.6L38.5 76h4.8v15.6h-3V79.3l-3.1 12.3h-3.1L31 79.3v12.3h-3zm16.8 0l5.4-8.1-4.9-7.5H49l3.2 5 3.1-5H59l-4.9 7.6 5.4 8h-3.8l-3.5-5.4-3.5 5.4h-3.9z" fill="#fefefe"/><linearGradient id="b" gradientUnits="userSpaceOnUse" x1="495.431" y1="-685.277" x2="508.979" y2="-698.827" gradientTransform="translate(-450.061 713.109)"><stop offset="0" stop-color="#feea86"/><stop offset="1" stop-color="#867200"/></linearGradient><path d="M45.3 1l27.1 26.7H45.3V1z" fill="url(#b)"/><path d="M45.3 1l27.1 26.7H45.3V1z" fill-opacity="0" stroke="#827100" stroke-width="2" stroke-linejoin="round"/><linearGradient id="c" gradientUnits="userSpaceOnUse" x1="24.65" y1="42.3" x2="24.65" y2="76.9" gradientTransform="matrix(1 0 0 -1 0 100)"><stop offset="0" stop-color="#aa9400"/><stop offset="1" stop-color="#564a00"/></linearGradient><linearGradient id="d" gradientUnits="userSpaceOnUse" x1="24.606" y1="41.761" x2="24.606" y2="77.275" gradientTransform="matrix(1 0 0 -1 0 100)"><stop offset="0" stop-color="#aa9400"/><stop offset="1" stop-color="#564a00"/></linearGradient><path d="M35.7 48.6c-3.5-3.4-6.6-6.5-8.4-13.4h12.3V30H27.4v-6.9h-5.3v7H9.8v5.2h12.6s-.1 1-.3 1.8c-1.7 6.8-3.8 11.2-12.3 15.4l1.8 5.2c8-4.3 12.2-9.6 14.1-15.6 1.8 4.5 4.8 8.2 8.2 11.6l1.8-5.1z" fill="url(#c)" stroke="url(#d)" stroke-width=".75" stroke-miterlimit="10"/><linearGradient id="e" gradientUnits="userSpaceOnUse" x1="48.4" y1="33.635" x2="48.4" y2="68.264" gradientTransform="matrix(1 0 0 -1 0 100)"><stop offset="0" stop-color="#aa9400"/><stop offset="1" stop-color="#564a00"/></linearGradient><linearGradient id="f" gradientUnits="userSpaceOnUse" x1="48.399" y1="33.225" x2="48.399" y2="68.604" gradientTransform="matrix(1 0 0 -1 0 100)"><stop offset="0" stop-color="#aa9400"/><stop offset="1" stop-color="#564a00"/></linearGradient><path d="M52 31.7h-7L32.6 66.4h5.3L41.3 56h14.1l3.5 10.4h5.3L52 31.7zm-8.8 19.1L48.5 37l5.3 13.9-10.6-.1z" fill="url(#e)" stroke="url(#f)" stroke-width=".75" stroke-miterlimit="10"/></svg>