<svg xmlns="http://www.w3.org/2000/svg" viewBox="0 0 72 100"><linearGradient id="a" gradientUnits="userSpaceOnUse" x1="36" y1="3" x2="36" y2="101" gradientTransform="matrix(1 0 0 -1 0 102)"><stop offset="0" stop-color="#c8d4db"/><stop offset=".139" stop-color="#d8e1e6"/><stop offset=".359" stop-color="#ebf0f3"/><stop offset=".617" stop-color="#f9fafb"/><stop offset="1" stop-color="#fff"/></linearGradient><path d="M45 1l27 26.7V99H0V1h45z" fill="url(#a)"/><path d="M45 1l27 26.7V99H0V1h45z" fill-opacity="0" stroke="#7191a1" stroke-width="2"/><g opacity=".85"><linearGradient id="b" gradientUnits="userSpaceOnUse" x1="81.1" y1="43.557" x2="81.1" y2="78.407" gradientTransform="rotate(180 57 50)"><stop offset="0" stop-color="#adccdc"/><stop offset="1" stop-color="#4c6c7b"/></linearGradient><path d="M15.5 23.6v32c0 .4.4.8.8.8h2.5c.4 0 .8-.4.8-.8V25.7h29.9c.4 0 .8-.4.8-.8v-2.5c0-.4-.4-.8-.8-.8h-32c-1.2 0-2 .8-2 2z" fill="url(#b)"/><linearGradient id="c" gradientUnits="userSpaceOnUse" x1="73.9" y1="37.4" x2="73.9" y2="70.2" gradientTransform="rotate(180 57 50)"><stop offset="0" stop-color="#adccdc"/><stop offset="1" stop-color="#4c6c7b"/></linearGradient><path d="M23.7 30.6v31.2c0 .4.4.8.8.8h31.2c.4 0 .8-.4.8-.8V30.6c0-.4-.4-.8-.8-.8H24.5c-.4 0-.8.4-.8.8zm18.5 24.6c0-.4.4-.8.8-.8h8.6c.4 0 .8.4.8.8v2.5c0 .4-.4.8-.8.8H43c-.4 0-.8-.4-.8-.8v-2.5zm0-8.2c0-.4.4-.8.8-.8h8.6c.4 0 .8.4.8.8v2.5c0 .4-.4.8-.8.8H43c-.4 0-.8-.4-.8-.8V47zm-14.4 8.2c0-.4.4-.8.8-.8h8.6c.4 0 .8.4.8.8v2.5c0 .4-.4.8-.8.8h-8.6c-.4 0-.8-.4-.8-.8v-2.5zm0-8.2c0-.4.4-.8.8-.8h8.6c.4 0 .8.4.8.8v2.5c0 .4-.4.8-.8.8h-8.6c-.4 0-.8-.4-.8-.8V47zm0-12.3c0-.4.4-.8.8-.8h23c.4 0 .8.4.8.8v6.6c0 .4-.4.8-.8.8h-23c-.4 0-.8-.4-.8-.8v-6.6z" fill="url(#c)"/></g><linearGradient id="d" gradientUnits="userSpaceOnUse" x1="45.037" y1="74.187" x2="58.537" y2="87.687" gradientTransform="matrix(1 0 0 -1 0 102)"><stop offset="0" stop-color="#fff"/><stop offset=".35" stop-color="#fafbfb"/><stop offset=".532" stop-color="#edf1f4"/><stop offset=".675" stop-color="#dde5e9"/><stop offset=".799" stop-color="#c7d3da"/><stop offset=".908" stop-color="#adbdc7"/><stop offset="1" stop-color="#92a5b0"/></linearGradient><path d="M45 1l27 26.7H45V1z" fill="url(#d)"/><path d="M45 1l27 26.7H45V1z" fill-opacity="0" stroke="#7191a1" stroke-width="2" stroke-linejoin="bevel"/><path d="M16.2 91.9V75.2h-5.9v-3.4h15.9v3.4h-5.9v16.7h-4.1zm12.6 0v-20h6.5c2.5 0 4.1.1 4.8.3 1.1.3 2.1 1 2.9 2 .8 1 1.2 2.3 1.2 3.9 0 1.2-.2 2.3-.7 3.1-.4.8-1 1.5-1.7 2s-1.4.8-2.1 1c-1 .2-2.4.3-4.2.3h-2.6v7.6h-4.1v-.2zm4.1-16.7v5.7h2.2c1.6 0 2.7-.1 3.2-.3.5-.2 1-.5 1.3-1 .3-.4.5-1 .5-1.6 0-.7-.2-1.3-.6-1.8-.4-.5-1-.8-1.6-.9-.5-.1-1.5-.1-2.9-.1h-2.1zm14.7 16.7V72h4v16.5h10.1v3.4H47.6z" fill="#4c6c7b"/></svg>