<svg id="Layer_1" xmlns="http://www.w3.org/2000/svg" viewBox="0 0 72 100"><style/><linearGradient id="SVGID_1_" gradientUnits="userSpaceOnUse" x1="36" y1="3.005" x2="36" y2="101" gradientTransform="matrix(1 0 0 -1 0 102)"><stop offset="0" stop-color="#bec0db"/><stop offset=".139" stop-color="#cecde6"/><stop offset=".359" stop-color="#e1dcf3"/><stop offset=".617" stop-color="#efe6fb"/><stop offset="1" stop-color="#f5f5ff"/></linearGradient><path d="M45 1l26.9 26.7V99H.1V1H45z" fill="url(#SVGID_1_)"/><path d="M45 1l26.9 26.7V99H.1V1H45z" fill-opacity="0" stroke="#7187a1" stroke-width="2"/><linearGradient id="SVGID_2_" gradientUnits="userSpaceOnUse" x1="44.754" y1="74.234" x2="58.198" y2="87.677" gradientTransform="matrix(1 0 0 -1 0 102)"><stop offset="0" stop-color="#fff5ff"/><stop offset=".35" stop-color="#faf1fb"/><stop offset=".532" stop-color="#ede7f4"/><stop offset=".675" stop-color="#dddbe9"/><stop offset=".799" stop-color="#c7c9da"/><stop offset=".908" stop-color="#adb3c7"/><stop offset="1" stop-color="#9291b0"/></linearGradient><path d="M44.7 1l26.9 26.7H44.7V1z" fill="url(#SVGID_2_)"/><path d="M44.7 1l26.9 26.7H44.7V1z" fill-opacity="0" stroke="#7191a1" stroke-width="2" stroke-linejoin="bevel"/><path d="M41 22.2V30h-.8c-.5-1.8-1-3.1-1.5-3.9-.6-.8-1.3-1.4-2.3-1.9-.5-.3-1.5-.4-2.8-.4h-2.2V46c0 1.5.1 2.4.2 2.8s.5.7 1 1c.5.3 1.1.4 2 .4h1v.8H20.4v-.8h1c.8 0 1.5-.1 2-.4.4-.2.7-.5.9-1 .2-.3.2-1.2.2-2.7V23.9h-2.1c-2 0-3.4.4-4.3 1.2-1.2 1.1-2 2.8-2.4 4.9h-.8v-7.8H41z" fill="#7291a1"/><path d="M54.1 30.8v7.8h-.8c-.5-1.8-1-3.1-1.5-3.9-.6-.8-1.3-1.4-2.3-1.9-.5-.3-1.5-.4-2.8-.4h-2.2v22.2c0 1.5.1 2.4.2 2.8.2.4.5.7 1 1 .5.3 1.1.4 2 .4h1v.8H33.5v-.8h1c.8 0 1.5-.1 2-.4.4-.2.7-.5.9-1 .2-.3.2-1.2.2-2.7V32.4h-2.1c-2 0-3.4.4-4.3 1.2-1.2 1.1-2 2.8-2.4 4.9H28v-7.8h26.1z" fill="#36454d"/><path d="M16.9 92.1V75.6H11v-3.4h15.9v3.4H21v16.5h-4.1zm17 0V75.6H28v-3.4h15.9v3.4H38v16.5h-4.1zm12.6 0V72.2h13.7v3.4h-9.7v4.7h8.3v3.4h-8.3v8.4h-4z" fill="#4c627b"/></svg>