<svg xmlns="http://www.w3.org/2000/svg" viewBox="0 0 72 100"><linearGradient id="a" gradientUnits="userSpaceOnUse" x1="36" y1="2.265" x2="36" y2="100.25" gradientTransform="matrix(1 0 0 -1 0 101)"><stop offset="0" stop-color="#c8d4db"/><stop offset=".139" stop-color="#d8e1e6"/><stop offset=".359" stop-color="#ebf0f3"/><stop offset=".617" stop-color="#f9fafb"/><stop offset="1" stop-color="#fff"/></linearGradient><path d="M45 .8l27 26.7v71.3H0V.8h45z" fill="url(#a)"/><path d="M45 .8l27 26.7v71.3H0V.8h45z" fill-opacity="0" stroke="#7191a1" stroke-width="2"/><path d="M24.5 89.8l-7.2-20h4.4l5.1 14.8 5-14.8h4.3l-7.3 20h-4.3zm13.7-20h8.1c1.6 0 2.8.1 3.6.2s1.5.4 2.1.8c.6.4 1.1 1 1.6 1.7s.6 1.5.6 2.3c0 .9-.3 1.8-.8 2.6s-1.2 1.4-2.1 1.8c1.2.4 2.2 1 2.8 1.8.7.9 1 1.9 1 3 0 .9-.2 1.8-.6 2.7s-1 1.5-1.8 2.1c-.7.5-1.7.8-2.7 1-.7.1-2.3.1-4.9.1h-6.9V69.8zm4.1 3.3v4.6H45c1.6 0 2.6 0 3-.1.7-.1 1.2-.3 1.7-.7.4-.4.6-.9.6-1.6 0-.6-.2-1.1-.5-1.5s-.9-.6-1.5-.7c-.4 0-1.6-.1-3.5-.1h-2.5zm0 8v5.4h3.8c1.5 0 2.4 0 2.8-.1.6-.1 1.1-.4 1.5-.8.4-.4.6-1 .6-1.7 0-.6-.1-1.1-.4-1.5s-.7-.7-1.3-.9c-.6-.2-1.8-.3-3.6-.3h-3.4z" fill="#4c6c7b"/><linearGradient id="b" gradientUnits="userSpaceOnUse" x1="35.619" y1="64.5" x2="35.619" y2="18.906"><stop offset="0" stop-color="#adccdc"/><stop offset="1" stop-color="#4c6c7b"/></linearGradient><path d="M28.2 44.6c-1.4 1-2.7 2.1-4 3.1-2.7 2-5.3 4.1-8 6.1-.4.3-.6.3-1 .1-.5-.3-1.1-.6-1.7-.9-.3-.2-.4-.4-.4-.7V31.1c0-.2.2-.6.4-.7.6-.4 1.3-.7 1.9-1 .3-.2.6 0 .9.2 2.2 1.7 4.4 3.4 6.6 5 1.8 1.4 3.6 2.8 5.4 4.1.1-.1.3-.2.4-.3 6.6-6.4 13.2-12.8 19.7-19.2.3-.3.6-.4 1-.2 2.8 1.1 5.6 2.2 8.4 3.4.2.1.4.4.5.6.1.1 0 .3 0 .5V60c0 .9 0 .9-.9 1.2-2.7 1.1-5.3 2.1-7.9 3.2-.5.2-.8.1-1.1-.2-6.5-6.4-13-12.7-19.6-19l-.6-.6zm19 5.8V33c-3.9 2.9-7.7 5.8-11.6 8.7 3.9 2.9 7.7 5.8 11.6 8.7zm-24.3-8.7c-1.9-1.7-3.8-3.4-5.8-5.2v10.4c1.9-1.7 3.8-3.5 5.8-5.2z" fill="url(#b)"/><linearGradient id="c" gradientUnits="userSpaceOnUse" x1="45.069" y1="73.457" x2="58.569" y2="86.957" gradientTransform="matrix(1 0 0 -1 0 101)"><stop offset="0" stop-color="#fff"/><stop offset=".35" stop-color="#fafbfb"/><stop offset=".532" stop-color="#edf1f4"/><stop offset=".675" stop-color="#dde5e9"/><stop offset=".799" stop-color="#c7d3da"/><stop offset=".908" stop-color="#adbdc7"/><stop offset="1" stop-color="#92a5b0"/></linearGradient><path d="M45 .8l27 26.7H45V.8z" fill="url(#c)"/><path d="M45 .8l27 26.7H45V.8z" fill-opacity="0" stroke="#7191a1" stroke-width="2" stroke-linejoin="bevel"/></svg>