<svg xmlns="http://www.w3.org/2000/svg" viewBox="0 0 72 100"><linearGradient id="a" gradientUnits="userSpaceOnUse" x1="36" y1="99.2" x2="36" y2=".7"><stop offset="0" stop-color="#51842a"/><stop offset=".102" stop-color="#609631"/><stop offset=".222" stop-color="#6da737"/><stop offset=".355" stop-color="#77b33b"/><stop offset=".506" stop-color="#7ebb3e"/><stop offset=".69" stop-color="#83c140"/><stop offset="1" stop-color="#85c441"/></linearGradient><path d="M45 .7l27 26.9v71.6H0V.7h45z" fill="url(#a)"/><path d="M45 .7l27 26.9v71.6H0V.7h45z" fill-opacity="0" stroke="#528228" stroke-width="2"/><linearGradient id="b" gradientUnits="userSpaceOnUse" x1="16.325" y1="62.925" x2="55.441" y2="23.809"><stop offset=".005" stop-color="#619530"/><stop offset=".267" stop-color="#60942f"/><stop offset=".443" stop-color="#5b8e2d"/><stop offset=".594" stop-color="#538429"/><stop offset=".731" stop-color="#487723"/><stop offset=".858" stop-color="#3a671b"/><stop offset=".976" stop-color="#29520f"/><stop offset="1" stop-color="#244d0b"/></linearGradient><path d="M57.8 61.4H35.2v-2c2.2-.1 3.5-.3 4.2-.6.6-.3.9-.6.9-1 0-.2-.1-.6-.3-1.1s-.5-1.1-.9-1.7c-.6-1-1.4-2.3-2.4-3.8s-2.1-3.1-3.2-4.8c-3.6 4.2-6 7-6.9 8.4-1 1.4-1.5 2.3-1.5 2.8 0 .2 0 .4.1.6.1.2.3.3.6.5.2.1.7.3 1.3.4.6.1 1.3.2 2.1.3v2H14.8v-2c.7-.1 1.3-.1 1.8-.2.4-.1.9-.2 1.3-.4 1-.5 1.9-1.1 2.7-1.8.8-.7 1.6-1.6 2.4-2.5 1.2-1.4 2.6-2.9 4.1-4.7 1.5-1.7 3.1-3.6 4.8-5.6-1.6-2.4-3.2-4.8-4.8-7-1.6-2.3-3-4.2-4.1-5.8-.6-.8-1.2-1.6-2.1-2.4-.8-.8-1.7-1.4-2.6-1.7-.5-.2-1-.4-1.5-.5-.6-.1-1.2-.2-2-.3v-2h22.6v2c-1.8.1-3.1.2-3.9.5-.8.2-1.3.6-1.3 1.1 0 .2.1.6.2.9.2.4.5 1 1 1.8.4.7 1.1 1.7 1.9 3 .9 1.3 1.9 2.9 3 4.6 3.3-3.9 5.3-6.5 6.2-7.6.8-1.2 1.3-2 1.3-2.4 0-.5-.2-.9-.7-1.1-.5-.3-1.6-.5-3.4-.6v-2h14.4v2c-.7 0-1.2.1-1.6.2-.4.1-.9.3-1.5.5-1.1.5-2 1.1-2.7 1.8-.7.7-1.5 1.5-2.4 2.5-1.3 1.4-2.5 2.8-3.7 4.2-1.2 1.3-2.6 3-4.3 4.9 2.1 3.2 3.9 5.8 5.4 7.9 1.5 2.1 2.9 4.1 4.3 6 .5.8 1.2 1.6 2 2.4.8.8 1.7 1.4 2.6 1.7.4.2.9.3 1.4.4.5.1 1.3.2 2.1.3l.1 1.9z" fill="url(#b)"/><linearGradient id="c" gradientUnits="userSpaceOnUse" x1="45.025" y1="27.625" x2="58.525" y2="14.125"><stop offset="0" stop-color="#f2f5d5"/><stop offset=".312" stop-color="#f0f4d2"/><stop offset=".458" stop-color="#e8eeca"/><stop offset=".569" stop-color="#dde7bd"/><stop offset=".663" stop-color="#cfddad"/><stop offset=".745" stop-color="#bed298"/><stop offset=".82" stop-color="#a9c481"/><stop offset=".889" stop-color="#91b566"/><stop offset=".951" stop-color="#78a647"/><stop offset="1" stop-color="#619932"/></linearGradient><path d="M45 .7l27 26.9H45V.7z" fill="url(#c)"/><path d="M45 .7l27 26.9H45V.7z" fill-opacity="0" stroke="#528228" stroke-width="2" stroke-linejoin="bevel"/><path d="M5.1 91.3l5.4-8.2-4.9-7.5h3.8l3.2 5.1 3.1-5.1h3.7l-4.9 7.6 5.4 8.1H16l-3.5-5.4L9 91.3H5.1zm16.6 0V75.7h3.2v13h8v2.7H21.7zm12.6-5.1l3.1-.3c.2 1 .6 1.8 1.1 2.3s1.4.7 2.3.7c1 0 1.8-.2 2.3-.7.5-.4.8-.9.8-1.5 0-.4-.1-.7-.3-1-.2-.3-.6-.5-1.2-.7-.4-.1-1.2-.4-2.6-.7-1.7-.4-2.9-.9-3.6-1.6-1-.9-1.5-1.9-1.5-3.2 0-.8.2-1.6.7-2.2.5-.7 1.1-1.2 2-1.6.9-.4 1.9-.5 3.1-.5 2 0 3.5.4 4.5 1.3s1.5 2 1.6 3.5l-3.2.1c-.1-.8-.4-1.4-.9-1.7-.5-.4-1.1-.5-2-.5-.9 0-1.7.2-2.2.6-.3.2-.5.6-.5 1s.2.7.5 1c.4.3 1.4.7 3 1.1s2.7.7 3.5 1.1c.7.4 1.3.9 1.8 1.6.4.7.6 1.5.6 2.5 0 .9-.3 1.7-.8 2.5s-1.2 1.4-2.1 1.8c-.9.4-2.1.6-3.5.6-2 0-3.6-.5-4.6-1.4-1-1-1.7-2.3-1.9-4.1zm15.6 5.1V75.6h4.8l2.9 10.7 2.9-10.7h4.8v15.7h-3V78.9l-3.2 12.4H56l-3.1-12.4v12.4h-3z" fill="#fff"/></svg>