<svg xmlns="http://www.w3.org/2000/svg" viewBox="0 0 72 100"><linearGradient id="a" gradientUnits="userSpaceOnUse" x1="36.2" y1="3.004" x2="36.2" y2="100.999" gradientTransform="matrix(1 0 0 -1 0 102)"><stop offset="0" stop-color="#c8d4db"/><stop offset=".139" stop-color="#d8e1e6"/><stop offset=".359" stop-color="#ebf0f3"/><stop offset=".617" stop-color="#f9fafb"/><stop offset="1" stop-color="#fff"/></linearGradient><path d="M45.1 1L72 27.7V99H.4V1h44.7z" fill="url(#a)"/><path d="M45.1 1L72 27.7V99H.4V1h44.7z" fill-opacity="0" stroke="#7191a1" stroke-width="2"/><path d="M13.8 91.1l6.8-10.4-6.2-9.5h4.7l4 6.4 3.9-6.4h4.7l-6.2 9.6L32.3 91h-4.9L23 84.2l-4.4 6.9h-4.8zm20.6 0V71.2h6.5c2.4 0 4 .1 4.8.3 1.1.3 2.1.9 2.9 1.9.8 1 1.2 2.3 1.2 3.9 0 1.2-.2 2.2-.7 3.1s-1 1.5-1.7 2-1.4.8-2.1.9c-1 .2-2.4.3-4.2.3h-2.6v7.5h-4.1zm4-16.5v5.6h2.2c1.6 0 2.6-.1 3.2-.3.5-.2 1-.5 1.3-1 .3-.4.5-1 .5-1.5 0-.7-.2-1.3-.6-1.8-.4-.5-1-.8-1.6-.9-.5-.1-1.4-.1-2.9-.1h-2.1zm14.4 16.5V71.2h4V91h-4z" fill="#4c6c7b"/><linearGradient id="b" gradientUnits="userSpaceOnUse" x1="32.205" y1="37.549" x2="32.205" y2="82.095" gradientTransform="matrix(1 0 0 -1 0 102)"><stop offset="0" stop-color="#4cec00"/><stop offset="1" stop-color="#247f00"/></linearGradient><path d="M30.6 19.9l-2.3 1.8.2 3.6 2.7 2.4v1.9l-.6.8-8 .3-1.8 1.9v7.6l-.7 1.7h-2l-1.5-1.2-.4-2.4-4.3-.1-2.1 1.5v11.2l1.4 2.5h4.5l2-2.3.8-2.4 1.7-.1.7 1.7v12l1.8 2.1h6.8l1.3-2.1-.8-1.4-1.4-.8v-2.8l2.2-1.9h10.7l2.3 1.9v2.6L42.5 61l-1 1.3 1.2 2.1 10.2-.1 2-2v-9.6l-.5-1.7-1.5-.1-1.4 1.1-1 1.2-2.5-.1-2.1-1.8V40.9l1.7-2.8H52l1 1.8 2-.3v-6.7l-2-2.1-11.8-.3-1.3-1.1.2-2 3.3-1.7.4-3.7-2.3-2.1H30.6z" fill="url(#b)"/><path d="M30.6 19.9l-2.3 1.8.2 3.6 2.7 2.4v1.9l-.6.8-8 .3-1.8 1.9v7.6l-.7 1.7h-2l-1.5-1.2-.4-2.4-4.3-.1-2.1 1.5v11.2l1.4 2.5h4.5l2-2.3.8-2.4 1.7-.1.7 1.7v12l1.8 2.1h6.8l1.3-2.1-.8-1.4-1.4-.8v-2.8l2.2-1.9h10.7l2.3 1.9v2.6L42.5 61l-1 1.3 1.2 2.1 10.2-.1 2-2v-9.6l-.5-1.7-1.5-.1-1.4 1.1-1 1.2-2.5-.1-2.1-1.8V40.9l1.7-2.8H52l1 1.8 2-.3v-6.7l-2-2.1-11.8-.3-1.3-1.1.2-2 3.3-1.7.4-3.7-2.3-2.1H30.6z" fill-opacity="0" stroke="#247f00" stroke-width="2" stroke-linecap="round" stroke-linejoin="round"/><linearGradient id="c" gradientUnits="userSpaceOnUse" x1="45.181" y1="74.242" x2="58.606" y2="87.667" gradientTransform="matrix(1 0 0 -1 0 102)"><stop offset="0" stop-color="#fff"/><stop offset=".35" stop-color="#fafbfb"/><stop offset=".532" stop-color="#edf1f4"/><stop offset=".675" stop-color="#dde5e9"/><stop offset=".799" stop-color="#c7d3da"/><stop offset=".908" stop-color="#adbdc7"/><stop offset="1" stop-color="#92a5b0"/></linearGradient><path d="M45.1 1L72 27.7H45.1V1z" fill="url(#c)"/><path d="M45.1 1L72 27.7H45.1V1z" fill-opacity="0" stroke="#7191a1" stroke-width="2" stroke-linejoin="bevel"/></svg>