<svg xmlns="http://www.w3.org/2000/svg" viewBox="0 0 72 100"><linearGradient id="a" gradientUnits="userSpaceOnUse" x1="36.108" y1="3.003" x2="36.108" y2="101.001" gradientTransform="matrix(1 0 0 -1 0 102)"><stop offset="0" stop-color="#c8d4db"/><stop offset=".139" stop-color="#d8e1e6"/><stop offset=".359" stop-color="#ebf0f3"/><stop offset=".617" stop-color="#f9fafb"/><stop offset="1" stop-color="#fff"/></linearGradient><path d="M45.1 1L72 27.7V99H.2V1h44.9z" fill="url(#a)"/><path d="M45.1 1L72 27.7V99H.2V1h44.9z" fill-opacity="0" stroke="#7191a1" stroke-width="2"/><path d="M14.1 91.1v-8.4L6.8 71.2h4.7l4.7 7.8 4.6-7.8h4.6l-7.3 11.5V91h-4zm13.3 0V71.2h6L37 84.7l3.6-13.5h6V91H43V75.4L39 91h-3.9l-4-15.6V91h-3.7zm23.4 0V71.4h4v16.3h10V91h-14z" fill="#4c6c7b"/><linearGradient id="b" gradientUnits="userSpaceOnUse" x1="13.15" y1="22" x2="54.15" y2="22" gradientTransform="translate(0 2)"><stop offset="0" stop-color="#7291a1"/><stop offset="1" stop-color="#cad5db"/></linearGradient><path d="M13.1 22h41v4h-41v-4z" fill="url(#b)"/><linearGradient id="c" gradientUnits="userSpaceOnUse" x1="19.15" y1="33.75" x2="60.15" y2="33.75" gradientTransform="translate(0 2)"><stop offset="0" stop-color="#7291a1"/><stop offset="1" stop-color="#cad5db"/></linearGradient><path d="M19.1 33.7h41v4.1h-41v-4.1z" fill="url(#c)"/><linearGradient id="d" gradientUnits="userSpaceOnUse" x1="13.15" y1="45.75" x2="54.15" y2="45.75" gradientTransform="translate(0 2)"><stop offset="0" stop-color="#7291a1"/><stop offset="1" stop-color="#cad5db"/></linearGradient><path d="M13.1 45.7h41v4.1h-41v-4.1z" fill="url(#d)"/><linearGradient id="e" gradientUnits="userSpaceOnUse" x1="19.15" y1="58" x2="60.15" y2="58" gradientTransform="translate(0 2)"><stop offset="0" stop-color="#7291a1"/><stop offset="1" stop-color="#cad5db"/></linearGradient><path d="M19.1 58h41v4h-41v-4z" fill="url(#e)"/><linearGradient id="f" gradientUnits="userSpaceOnUse" x1="45.122" y1="74.229" x2="58.575" y2="87.683" gradientTransform="matrix(1 0 0 -1 0 102)"><stop offset="0" stop-color="#fff"/><stop offset=".35" stop-color="#fafbfb"/><stop offset=".532" stop-color="#edf1f4"/><stop offset=".675" stop-color="#dde5e9"/><stop offset=".799" stop-color="#c7d3da"/><stop offset=".908" stop-color="#adbdc7"/><stop offset="1" stop-color="#92a5b0"/></linearGradient><path d="M45.1 1L72 27.7H45.1V1z" fill="url(#f)"/><path d="M45.1 1L72 27.7H45.1V1z" fill-opacity="0" stroke="#7191a1" stroke-width="2" stroke-linejoin="bevel"/></svg>