<svg xmlns="http://www.w3.org/2000/svg" viewBox="0 0 100 100"><path d="M33.9 56.2C31 58.5 28.1 60.7 25 63L7.5 76.5c-.8.6-1.4.6-2.3.2-1.2-.8-2.5-1.4-3.7-1.9-.6-.4-1-.8-1-1.6V26.7c0-.6.4-1.2 1-1.6 1.4-.8 2.7-1.4 4.1-2.1.8-.4 1.4 0 1.9.4 4.9 3.7 9.7 7.4 14.4 11.1 3.9 3.1 8 6 11.9 9.1l.8-.8C49 28.8 63.4 14.6 78 .6c.8-.8 1.4-.8 2.3-.4 6 2.5 12.2 4.9 18.3 7.4.4.2.8.8 1 1.4.2.4 0 .8 0 1.2v79.9c0 1.9 0 1.9-1.9 2.7l-17.5 7c-1 .4-1.7.2-2.5-.4-13.8-14.2-28-28.2-42.4-42-.6-.4-.8-.8-1.4-1.2zm41.6 12.7V30.8c-8.5 6.4-16.9 12.6-25.4 19 8.5 6.4 16.9 12.7 25.4 19.1zM22.3 49.8c-4.3-3.9-8.4-7.6-12.6-11.3v22.7c4.2-3.8 8.3-7.5 12.6-11.4z" fill="#f09"/></svg>