<svg xmlns="http://www.w3.org/2000/svg" viewBox="0 0 100 100"><path d="M35.7 39.3h28.4v7H35.7v-7zm0 14.2h28.4v7H35.7v-7zm0 14.2h28.4v7H35.7v-7zM85.3 4H28.7C21 4 14.6 10.2 14.6 18.1v63.7H.4C.4 89.6 6.6 96 14.6 96h56.7c7.7 0 14.2-6.3 14.2-14.2V25.1h14.2v-7C99.4 10.2 93.2 4 85.3 4zm-7 76.6c0 4.6-3.7 8.3-8.3 8.3H18.1c3.5-2.4 3.5-7 3.5-7V18.1c0-3.9 3.1-7 7-7s7 3.1 7 7v7h42.5v55.4h.2zM42.9 18.1v-7h42.5c6.4 0 7 4.1 7 7H42.9z" fill="#bababa" stroke="#bababa" stroke-width=".75" stroke-miterlimit="10"/></svg>