<svg xmlns="http://www.w3.org/2000/svg" viewBox="0 0 100 100"><path d="M87.8 64.3c3.6 0 6.7 1.5 9.2 3.6l-8-57.1c-.6-4.6-4.6-8-9.2-8H20.2c-4.6 0-8.6 3.2-9.4 8l-8 57.1c2.5-2.1 5.7-3.6 9.4-3.6h75.6zm0 4.6H12.2c-5.2 0-9.4 4.2-9.4 9.4v9.5c0 5.2 4.2 9.4 9.4 9.4h75.6c5.2 0 9.4-4.2 9.4-9.4v-9.5c0-5.2-4.1-9.4-9.4-9.4zM79.6 87h-5.9c-1.7 0-2.9-1.3-2.9-2.9 0-1.7 1.3-2.9 2.9-2.9h5.9c1.7 0 2.9 1.3 2.9 2.9.1 1.6-1.2 2.9-2.9 2.9zm7.8 0c-1.7 0-2.9-1.3-2.9-2.9 0-1.7 1.3-2.9 2.9-2.9s2.9 1.3 2.9 2.9c0 1.6-1.2 2.9-2.9 2.9z" fill="#75abbc"/></svg>