<svg xmlns="http://www.w3.org/2000/svg" viewBox="0 0 100 100"><path d="M92.8 82.4H51.5c-1.6 0-2.9-1.3-2.9-2.9V20.6c0-1.6 1.3-2.9 2.9-2.9h41.3c1.6 0 2.9 1.3 2.9 2.9v58.9c0 1.6-1.3 2.9-2.9 2.9z" fill="#e8e8e8"/><path d="M81 35.3H51.5c-1.6 0-2.9-1.3-2.9-2.9s1.3-2.9 2.9-2.9H81c1.6 0 2.9 1.3 2.9 2.9 0 1.5-1.3 2.9-2.9 2.9zm0 11.8H51.5c-1.6 0-2.9-1.3-2.9-2.9s1.3-2.9 2.9-2.9H81c1.6 0 2.9 1.3 2.9 2.9s-1.3 2.9-2.9 2.9zm0 11.7H51.5c-1.6 0-2.9-1.3-2.9-2.9s1.3-2.9 2.9-2.9H81c1.6 0 2.9 1.3 2.9 2.9s-1.3 2.9-2.9 2.9zm0 11.8H51.5c-1.6 0-2.9-1.3-2.9-2.9s1.3-2.9 2.9-2.9H81c1.6 0 2.9 1.3 2.9 2.9s-1.3 2.9-2.9 2.9z" fill="#b2b2b2"/><path d="M59.3 97.2l-55-10.5V13.2l55-10.5v94.5z" fill="#0d47a1"/><path d="M43.7 68h-7l-4.6-23.1c-.3-1.3-.4-2.7-.4-4h-.1c-.1 1.6-.3 3-.5 4L26.3 68H19l-7.3-36h6.9l3.9 24c.2 1 .3 2.4.4 4.1h.1c0-1.3.3-2.7.6-4.2l5-23.9h6.7l4.6 24.2c.2.9.3 2.2.4 3.9h.1c.1-1.3.2-2.6.4-4l3.9-24H51L43.7 68z" fill="#fff"/></svg>