<svg xmlns="http://www.w3.org/2000/svg" viewBox="0 0 100 100"><path d="M91.3 57.5c3.7 3.6 6 8.6 6 14.2 0 10.8-8.8 19.6-19.6 19.6-10.9 0-19.7-8.8-19.7-19.7 0-.8 0-1.5.1-2.3C59.3 59.6 67.6 52 77.7 52c5.2 0 10 2.1 13.6 5.5z" fill="#f78b7f"/><path d="M92.8 50c0 1.6-.2 3.1-.5 4.5-4.1-3.5-9.2-5.4-14.6-5.4-11.4 0-21 8.5-22.3 19.9v.3H18.2c-8.6 0-15.5-6.9-15.5-15.5 0-6.7 4.2-12.3 10.1-14.5v-1c0-7.9 6.4-14.4 14.4-14.4 2.5 0 4.9.7 7 1.8 2.2-9.8 11-17.1 21.5-17.1 12.2 0 22 9.9 22 22v.4c8.6 2 15.1 9.8 15.1 19z" fill="#29d1ed"/><path fill="#fff" d="M87.9 71.9l-10 10-9.9-10h5.9v-14H82v14z"/></svg>