<svg id="Layer_1" xmlns="http://www.w3.org/2000/svg" viewBox="0 0 100 100"><style>.st0{fill:#f8cebf}.st1{fill:#f1906d}</style><path class="st0" d="M87.5 78l-.6-3.2h-.3C84 78 79.5 80.1 74 80.1c-8.5 0-13.4-6.3-13.4-12.7 0-10.6 8.9-16.3 25-16.1v-.6c0-2.7-1.1-7.4-8.5-7.4-4.2 0-8.5 1.3-11.3 3.1l-2.1-6.9c3.1-1.9 8.9-3.7 15.5-3.7 13.5 0 17.7 8.5 17.7 17.7v15.3c0 3.9-.3 7.9.2 9.5h-9.5l-.1-.3zm-1.8-20c-6.4-.2-14.5 1.4-14.5 7.9 0 4.2 2.7 6.1 6.1 6.1 4.2 0 7.3-2.7 8.2-5.8.3-.8.2-1.6.2-2.4V58z"/><path class="st1" d="M97 68.5V53.1c0-3.7-.6-7.7-2.6-10.6-.8 6.1-3.9 11.8-8.7 15.8v5.3c0 .6.2 1.6-.2 2.4-1 3.1-4 5.8-8.2 5.8-3.4 0-6.1-1.9-6.1-6.1v-.6c-1 .2-1.8.2-2.9.2-2.6 0-5-.3-7.3-1.1-.2.8-.2 1.8-.2 2.6 0 6.4 4.8 12.9 13.2 12.9 5.5 0 9.8-2.1 12.6-5.3h.4l.6 3.2h9.7c-.6-1.3-.3-5.3-.3-9.1z"/><path class="st0" d="M18.7 61.8l-5 16.1h-11l18.7-58h13.7l19 58H42.7l-5.3-16.1H18.7zm16.7-8l-4.7-14.7c-1.1-3.5-2.1-6.3-2.9-11.1h-.2c-.8 4.8-1.8 7.7-2.7 11.1l-4.5 14.7h15z"/><path class="st1" d="M42.5 42.8c-1.6 4-4 7.7-7.1 10.6v.2h-.2c-4 4.8-9 6.4-14.8 8.1h16.8l5.3 16.1h11.4l-11.4-35z"/></svg>