<svg id="Layer_1" xmlns="http://www.w3.org/2000/svg" viewBox="0 0 100 100"><style>.st0{fill:#5dd4fa;stroke:#5dd4fa;stroke-width:.75;stroke-miterlimit:10}</style><path class="st0" d="M99.5 50.2c0-6.5-8.1-12.8-20.7-16.6 2.9-12.8 1.6-23-4.1-26.3-1.4-.7-2.9-1.1-4.6-1.1v4.6c.9 0 1.8.2 2.3.5 2.7 1.6 4.1 7.6 3 15.2-.2 2-.5 3.9-.9 5.8-4.1-.9-8.1-1.8-12.8-2.3-2.7-3.9-5.4-7-8.3-10.1 6.7-6 12.8-9.5 16.9-9.5V5.8c-5.4 0-12.8 4.1-20.2 10.8C43 9.7 35.6 5.9 30.2 5.9v4.6c4.3 0 10.3 3.2 16.9 9.4-2.9 3-5.6 6.3-8.3 10.1-4.6.5-9 1.1-12.8 2.3-.4-2.1-.7-4.1-1.1-5.8-.9-7.6.2-13.8 2.9-15.2.5-.4 1.4-.5 2.3-.5V6.1c-1.8 0-3.2.4-4.6 1.1-5.6 3.2-6.9 13.5-4.1 26.3C8.5 37.4.4 43.6.4 50.1s8.1 12.7 20.7 16.6c-2.9 12.7-1.6 23 4.1 26.3 1.4.7 2.9 1.1 4.6 1.1 5.4 0 12.8-4.1 20.2-10.8 7.4 6.9 14.7 10.6 20.2 10.6 1.8 0 3.2-.4 4.6-1.1 5.6-3.2 6.9-13.5 4.1-26.3 12.5-3.6 20.6-9.8 20.6-16.3zM73.2 36.7c-.7 2.7-1.8 5.3-2.7 7.9-.7-1.6-1.8-3.2-2.7-4.8-.9-1.6-2-3.2-2.9-4.8 2.9.5 5.6 1 8.3 1.7zM64 58.1c-1.6 2.7-3.2 5.3-5 7.6-2.9.4-5.8.5-9 .5s-6-.2-9.2-.4c-1.8-2.5-3.2-5-4.9-7.6-1.6-2.7-2.9-5.3-4.3-7.9 1.4-2.7 2.7-5.3 4.3-7.9 1.6-2.7 3.2-5.3 4.9-7.6 3-.2 6-.4 9.2-.4s6 .2 9.2.4c1.8 2.5 3.2 5 5 7.6 1.6 2.7 2.9 5.3 4.3 7.9-1.6 2.6-3.2 5.1-4.5 7.8zm6.5-2.7c1.1 2.7 2.1 5.3 2.9 7.9-2.7.5-5.4 1.1-8.3 1.6.9-1.6 2-3.2 2.9-4.8.9-1.1 1.6-2.9 2.5-4.7zM50 77.2c-2-2-3.9-4.3-5.4-6.5 2 0 3.6.2 5.4.2s3.9 0 5.4-.2C53.9 73 52 75.1 50 77.2zm-15-12c-2.9-.4-5.6-.9-8.1-1.6.7-2.7 1.8-5.3 2.7-7.9.7 1.6 1.8 3.2 2.7 4.8.8 1.7 1.8 3.1 2.7 4.7zm15-41.9c2 2 3.9 4.3 5.4 6.5-2 0-3.6-.2-5.4-.2s-3.9 0-5.4.2c1.5-2.5 3.4-4.5 5.4-6.5zM35 35.2c-.9 1.6-2 3.2-2.9 4.8l-2.7 4.8c-1.1-2.7-2.1-5.3-2.9-7.9 2.8-.9 5.7-1.4 8.5-1.7zM16.7 60.4c-7.2-3-11.9-7-11.9-10.3 0-3.2 4.6-7.2 11.9-10.3l5.4-2.1c1.1 4.1 2.7 7.9 4.6 12.4-2 4.3-3.4 8.3-4.6 12.2-1.6-.4-3.6-1-5.4-1.9zm10.8 28.8c-2.7-1.6-4.1-7.6-3-15.2.2-2 .5-3.9.9-5.8 4.1.9 8.1 1.8 12.8 2.3 2.7 3.9 5.4 7 8.3 10.1-6.7 6-12.8 9.5-16.9 9.5-.5-.3-1.4-.5-2.1-.9zm47.9-15.3c.9 7.6-.2 13.8-2.9 15.2-.5.4-1.4.5-2.3.5-4.3 0-10.3-3.2-16.9-9.4 2.9-3 5.6-6.3 8.3-10.1 4.6-.5 9-1.1 12.8-2.3.5 2.2.8 4.3 1 6.1zm7.9-13.5c-1.8.7-3.6 1.5-5.5 2.2-1.1-4.1-2.7-7.9-4.6-12.4 2-4.3 3.4-8.3 4.6-12.2 2 .5 3.9 1.4 5.6 2.1 7.2 3 11.9 7 11.9 10.3-.4 3-5 7-12 10z"/><circle class="st0" cx="50" cy="50.2" r="9.3"/></svg>