<svg xmlns="http://www.w3.org/2000/svg" viewBox="0 0 100 100"><path d="M3 54.9V45c2.2-.2 3.9-.3 4.9-1 1-.3 1.8-1.3 2.7-2.3.8-1.2 1.3-2.5 1.7-4.4.2-1.3.5-3.5.5-6.7 0-5.4.2-9 .8-11.2.5-2 1.5-3.9 2.7-5 1.3-1.2 3.4-2.2 5.9-3 1.7-.3 4.4-.8 8.2-.8h2.3v9.7c-3.2 0-5.4.2-6.2.7-.8.3-1.5.8-2.2 1.7-.5.7-.7 1.8-.7 3.5s-.2 5-.5 9.7c-.2 2.8-.5 5-1 6.5-.7 1.7-1.5 3-2.3 4.2-.8 1-2.3 2.2-4.2 3.4 1.7 1 3.2 2 4.2 3.2 1 1.2 1.8 2.8 2.5 4.5.7 1.8 1 4.2 1 7.2.2 4.5.2 7.4.2 8.7 0 1.8.2 3 .7 3.9.5.8 1.3 1.2 2.2 1.7.8.3 3 .7 6.2.7v9.7h-2.3c-3.9 0-7-.2-8.9-.8-2.2-.7-3.9-1.7-5.4-3-1.5-1.3-2.3-3-3-5-.5-2-.7-5.2-.7-9.6 0-5-.2-8.4-.7-9.7-.7-2.2-1.7-3.9-3-4.9-.9-1-2.9-1.7-5.6-1.7zm93.7 0c-2.2.2-3.9.3-4.9 1-1 .3-1.8 1.3-2.7 2.3-.8 1.2-1.3 2.5-1.7 4.4-.2 1.3-.5 3.5-.5 6.7 0 5.4-.2 9-.8 11.2-.5 2.2-1.5 3.9-2.7 5-1.3 1.2-3.4 2.2-5.9 3-1.7.3-4.4.8-8.2.8H67v-9.7c3.2 0 5-.2 6.2-.7 1-.3 1.7-1 2.2-1.7s.7-1.8.7-3.5.2-4.9.5-9.6c.2-2.8.7-5.2 1.3-6.7.7-1.8 1.5-3.2 2.5-4.4 1-1.2 2.3-2.2 4-3.2-2.7-1.7-4.4-2.8-5.2-4-1.3-1.8-2.3-4.2-2.7-6.7-.5-2-.7-6.2-.7-12.6 0-2-.2-3.4-.7-4.2-.5-.7-1-1.2-1.8-1.7-.8-.3-3-.7-6.4-.7v-9.7h2.3c3.9 0 7 .2 8.9.8 2.2.7 3.9 1.7 5.4 3 1.5 1.3 2.3 3 3 5 .5 2 .8 5.2.8 9.6 0 5 .2 8.2.7 9.7.7 2.2 1.7 3.9 3 4.5 1.3 1 3.4 1.3 5.9 1.7v9.9l-.2.5z" fill="#7058c6" stroke="#6249a5" stroke-width=".75" stroke-miterlimit="10"/></svg>