<svg xmlns="http://www.w3.org/2000/svg" viewBox="0 0 100 100"><path d="M21.4 62.1c0 1.8 0 3.3.2 4.5 0 1.3.4 2.2.7 3.1.4.7 1.1 1.4 2.2 1.8.9.4 2.3.7 4 .9.4 0 .7.4.9.5.2.4.4.7.4 1.1s-.2.7-.4 1.1c-.2.4-.5.5-.9.5-1.4 0-3.3-.2-5.4-.4s-4.3-.4-6.5-.4c-2.3 0-4.5.2-6.7.4s-4.2.4-6 .4c-.4 0-.7-.2-.9-.5 0-.2-.2-.5-.2-.9s.2-.9.4-1.1c.2-.4.5-.5.9-.5 1.8-.2 3.3-.5 4.2-.9s1.6-1.1 2.2-1.8c.4-.7.7-1.6.7-2.9 0-1.1.2-2.5.2-4.2V46.7c0-3.4 0-6.1-.2-8.1 0-2-.4-3.6-.7-4.7-.4-1.1-1.1-1.8-2-2.2-.9-.4-2.2-.5-4-.7-.4 0-.7-.2-.9-.4-.2-.4-.4-.5-.4-.9s0-.7.2-1.1.5-.5.9-.5c1.3-.2 3.1-.4 5.4-.9 2.3-.4 4.9-1.1 7.6-1.8.2 0 .4-.2.9-.2h.8c.7 0 1.3.4 1.8.9s.7 1.3.7 2l-.2 5.2c0 .4.2.4.4.2.4-.5.9-1.3 1.8-2.3.9-1.1 2-2 3.3-3.1s2.9-2 4.9-2.7 4.2-1.1 6.5-1.1c4.5 0 8 .9 10.7 2.7 2.5 1.8 4.7 4.3 6.1 7.8.4-.7 1.1-1.8 2-2.9 1.1-1.3 2.3-2.3 4-3.4 1.6-1.1 3.4-2 5.4-2.9 2-.7 4.2-1.3 6.7-1.3 3.4 0 6.3.5 8.5 1.6s3.8 2.5 5.1 4.3c1.3 1.8 2 4 2.5 6.5.4 2.5.7 5.2.7 8.1V62c0 1.8 0 3.3.2 4.5 0 1.3.4 2.2.7 3.1.4.7.9 1.4 1.8 1.8.7.4 2 .7 3.4.9.4 0 .7.4.9.5.2.2.4.7.4 1.1s-.2.7-.4 1.1c-.2.4-.5.5-.9.5-.9 0-2.3-.2-4.5-.4-2-.2-4.2-.4-6.3-.4-2.3 0-4.5.2-6.7.4s-4 .4-5.6.4c-.4 0-.7-.2-.9-.5-.2-.4-.4-.7-.4-1.1s.2-.9.4-1.1c.2-.4.5-.5.9-.5 1.8-.2 3.1-.5 4-.9s1.6-1.1 2-1.8c.4-.7.7-1.6.7-2.9 0-1.1.2-2.5.2-4.2V48.7c0-2 0-4-.2-6.1-.2-2.2-.5-4-1.1-5.8-.5-1.8-1.4-3.1-2.7-4.3-1.3-1.1-2.9-1.6-5.2-1.6-2 0-4 .5-5.6 1.4-1.8.9-3.3 2.2-4.5 3.6-1.3 1.4-2.3 3.1-3.1 4.7-.7 1.6-1.1 3.3-1.1 4.9v16.4c0 2.2 0 3.8.2 5.1 0 1.3.4 2.2.7 2.9.4.7.9 1.3 1.8 1.6.7.4 2 .5 3.4.9.4 0 .7.4.9.5.2.4.4.7.4 1.1s-.2.7-.4 1.1-.5.5-.9.5c-.9 0-2.3-.2-4.5-.4-2-.2-4.2-.4-6.3-.4-2.3 0-4.5.2-6.7.4s-4 .4-5.4.4c-.4 0-.7-.2-.9-.5-.2-.4-.4-.7-.4-1.1s.2-.9.4-1.1c.2-.4.5-.5.9-.5 1.6-.2 2.9-.5 3.8-.9.9-.4 1.6-.9 2-1.4.4-.7.5-1.6.7-2.7 0-1.1.2-2.7.2-4.7v-14c0-2-.2-4-.2-6.1-.2-2.2-.5-4-1.3-5.8-.7-1.8-1.6-3.1-2.9-4.3-1.3-1.1-3.1-1.6-5.4-1.6-2.5 0-4.5.4-6.3 1.3s-3.3 2-4.3 3.4c-1.1 1.4-1.9 3.3-2.5 4.9-.7 1.8-1 3.2-1.5 6.1l-.4 15.5z" fill="#b388ff" stroke="#b388ff" stroke-width="2" stroke-miterlimit="10"/></svg>