<svg xmlns="http://www.w3.org/2000/svg" viewBox="0 0 100 100"><path d="M92.3 62.9l-.4-.5c-.2-.2-.2-.4-.4-.5 0-8.2-4.7-15.3-11.7-18.6-.7-2.7-.2-3.8-.2-4l.5-1.1h7.1c1.6 0 3.1-.5 4.2-1.6 3.8-3.8 5.8-8.8 5.8-14.2 0-10-7.3-18.2-17-19.5-.5-.2-.9-.2-1.5-.2H22.5c-10.9 0-19.7 8.9-19.7 19.7 0 .9 0 1.6.2 2.6.2 18.4 14.2 33.5 21.5 40.1h-14c-2.2 0-4.2 1.1-5.1 3.1-1.8 2.9-2.7 6.2-2.7 9.5 0 10.9 8.9 19.7 19.7 19.7 2.2 0 56.5.2 56.5.2h.5c10.2-.9 18-9.7 18-19.9 0-5.3-2-10.7-5.1-14.8M79 8.6c7.1.7 12.6 6.6 12.6 13.9 0 3.8-1.6 7.5-4.2 10H36c2-2.7 3.3-6.2 3.3-10 0-5.7-2.9-10.8-7.3-13.9h47zM8.4 77.5c0-2.4.7-4.7 1.8-6.7h24.1c1.1 2 1.8 4.2 1.8 6.7 0 7.7-6.2 13.9-13.9 13.9-7.6 0-13.8-6.2-13.8-13.9M79 91.4H32c4.4-3.1 7.3-8.2 7.3-14 0-5.7-2.9-10.8-7.3-13.9h.2S8.9 46.2 8.7 24.3c-.2-.7-.2-1.5-.2-2.2 0-7.7 6.2-13.9 13.9-13.9s13.9 6.2 13.9 13.9v1.1c-.2 1.3-.4 2.6-.7 3.6-.5 1.5-1.3 2.9-2.4 4l-3.1 4.6h45.2c-.2.4-.4.5-.5.9-.9 1.5-1.1 3.1-1.1 5.1-.9-.2-1.8-.2-2.7-.2-11.7-.1-21 9.2-21 20.7s9.3 20.8 20.8 20.8c8.6 0 15.9-5.1 19-12.4 1.1 2.4 1.8 4.9 1.8 7.3 0 7-5.7 13.2-12.6 13.8m.7-29.7L66 72.1V51.5l13.7 10.2z" fill="#bababa" stroke="#bababa" stroke-width=".5" stroke-miterlimit="10"/></svg>