<svg xmlns="http://www.w3.org/2000/svg" viewBox="0 0 100 100"><path d="M91.5 69.4c-.4-.7-1.1-1.1-2-1.1H65.1c-.9 1.6-1.8 3.4-2.7 5.4-2.2 4.1-4.3 8.4-6.5 12.2l-.2.2c-1.3 2.2-3.4 3.6-5.9 3.6S45 88.3 44 86.1c-.7-1.4-3.2-6.1-6.5-12.4l-2.7-5.4h-13c-.9 0-1.6.5-2 1.3L8.5 93.3c-.4.7-.4 1.4.2 2.2.4.7 1.1 1.1 2 1.1h67.7c.9 0 1.6-.5 2-1.3l11.3-23.7c.1-.7.1-1.4-.2-2.2zM50.1 3.5C36.3 3.5 25 14.8 25 28.6c0 8.4 9.1 28.1 16.7 43.2 3.6 7.2 6.5 12.2 6.5 12.4.4.7 1.1 1.3 2 1.3s1.6-.5 2-1.3c0 0 2.9-5.2 6.5-12.4C66 56.7 75.2 37 75.2 28.6c0-13.8-11.3-25.1-25.1-25.1zm0 40.3c-6.3 0-11.5-4.8-12.2-11.1v-1.3c0-6.8 5.6-12.2 12.2-12.2 6.3 0 11.6 4.8 12.2 10.9v1.3c0 6.9-5.4 12.4-12.2 12.4z" fill="#bababa"/></svg>