<svg xmlns="http://www.w3.org/2000/svg" viewBox="0 0 100 100"><path d="M50 13.938c-3.1 0-5.6 2.5-5.6 5.6 0 3.1 2.5 5.6 5.6 5.6 3.1 0 5.6-2.5 5.6-5.6 0-3-2.5-5.6-5.6-5.6zm-2.2 13.2l-17 24-20-7.6c-.7.7-1.6 1.3-2.6 1.6l10.2 29.7h63l10.2-29.7c-1-.3-1.9-.9-2.6-1.6l-20 7.6-17-24c-.7.2-1.4.3-2.2.3-.6.1-1.3-.1-2-.3zm-41.7 7.1c-2.5 0-4.5 2-4.5 4.5s2 4.5 4.5 4.5 4.5-2 4.5-4.5-2-4.5-4.5-4.5zm87.8 0c-2.5 0-4.5 2-4.5 4.5s2 4.5 4.5 4.5 4.5-2 4.5-4.5-2-4.5-4.5-4.5zm-75.4 42.8v9h63v-9h-63z" fill="#bababa"/></svg>