<svg id="Layer_1" xmlns="http://www.w3.org/2000/svg" viewBox="0 0 100 100"><style>.st0{fill:#bababa}</style><path class="st0" d="M88 56.9c-1.8-11.6-13.9-19-23-24.7-3.9-2.5-10.3-5.7-11.2-10.9-.3-2.1-.3-4.4-.4-6.5 0-.8 0-1.7-.1-2.6-.1-1.1-1.2.3-1.8-.7-1.5-2.4-.9.7-.8 2 .3 2.9.8 5.8.7 8.8 0 5.6-1 11-2.4 16.5-3.3 12.7-5.9 25.7-2.6 38.7.7 2.7 1.6 5.4 2.7 7.9.3.8 1 2.9 2 3.2 3.5.9 6.1 1.2 8.8 3.8 1.7 1.6 3 .7 5-.1 6.1-2.5 11.5-5.5 15.8-10.6 6.2-7.1 8.8-15.5 7.3-24.8m-6.5 11.7c-.5 4.8-3.5 9-6.6 12.5-2.2 2.6-5.2 5.9-8.5 7-1.2.4.2-1.9.4-2.2 1-1.5 2.3-2.9 3.4-4.3 1.7-2.1 3.2-4.3 4.2-6.8 3.3-8.4 2.6-18.5-2.4-26.1-2.7-4.1-6.4-7.6-10.1-10.7-1.8-1.5-3.6-3-5.1-4.8-.3-.4-3.4-4.5-2.5-5.1.3-.2 7 6.9 7.8 7.4 2.8 2.1 5.7 4 8.2 6.4 3.5 3.2 7.1 6.8 9.1 11.2 2.3 4.9 2.7 10.3 2.1 15.5"/><path class="st0" d="M48.1.1c1 .7 1.2 4.6 1.2 8.2s.3 19.1-.8 23.3-3.7 8.8-6.5 12.8-6.1 12.6-6 17.9c.1 5.3 3.1 13.9 5.5 17.5s6.4 8.6 5.5 9.8c-1.6 2-8-4.9-11.4-9-3.4-4-6.7-12.3-6.9-18.7-.1-6.4 3.5-12.4 6.1-16 2.6-3.6 7.6-9.8 9-12.6s2.8-5.8 3.3-9.8c.4-3.9 0-18 0-18s0-6.1 1-5.4"/><path class="st0" d="M45.4 6.7c1 .4 1.1 1.7 1.1 2.9s-.3 6.3-.7 11.2c-.3 4.9-4.3 9.1-7.2 12s-11.4 12-14.5 16.5-4.7 10.4-4.4 15.4c.3 5.1 1.6 10 6.3 15.3s8 7.8 10.5 9 4.9 2.1 4.4 3.3c-.6 1.1-2.9.3-5.5-.6S24 87.2 19 81.5c-5.1-5.7-7.6-13.4-7.4-20.7.2-7.3 2.2-10.3 5.6-15.1C20.6 41 29.9 34 32.8 32.2s6.9-4.8 8.8-7.3c1.9-2.5 2.9-4.5 2.8-7.9-.1-3.4.2-6.4.1-7.5-.1-1-.1-3.3.9-2.8m.3 88.1c.5 0 .2 2-.6 2.9-.8 1-2.2 1.6-2.4 1.2s1-.6 1.9-1.6c.8-.9.6-2.5 1.1-2.5m9.1-.1c-.5 0-.2 2 .6 2.9.8 1 2.2 1.6 2.4 1.2s-1-.6-1.9-1.6c-.7-.8-.5-2.5-1.1-2.5m-4 2.2c0 1.7.1 3.1-.3 3.1-.5 0-.3-1.4-.3-3.1s-.2-3.1.3-3.1c.4-.1.3 1.3.3 3.1"/></svg>