<svg xmlns="http://www.w3.org/2000/svg" viewBox="0 0 100 100"><path d="M64.6 38.3h31.7v5.1H64.6v-5.1zM2.8 52h93.7v5.5H2.8V52zm0 13.7h93.7v5.5H2.8v-5.5zm52.5-50.4h3.4C64 15.7 68 17 72 18.6c7.7-3.4 18.4-.8 25.3 1.8-8.6-.8-18.9 0-24.8 3.4-6.2-4.7-17.5-6.2-28.1-4.7 3.1-2.1 6.7-3.3 10.9-3.8zm-2.4 13.1c-6.2.3-11.3 2.4-14.7 5.2C27.9 29 10.3 31 3.8 37.2c-.7.3-1.1.8-1 1.5 5.9-1.8 12.9-3.3 20.1-2.6s12.6 2.9 16.6 6.2c7.3-6.7 18.4-10.4 32.3-10.3-4.9-2.1-11.9-3.9-18.9-3.6zM2.8 79.1h93.7v5.5H2.8v-5.5z" fill="#34a6f4" stroke="#34a6f4" stroke-width=".5" stroke-miterlimit="10"/></svg>