<svg xmlns="http://www.w3.org/2000/svg" viewBox="0 0 100 100"><path d="M96.7 59.3C92.5 58 90 54.2 90 49.9s2.8-8 6.7-9.5c1.2-.4 1.9-1.7 1.5-3-1.2-4.5-3-8.7-5.3-12.8-.6-1.2-2.1-1.5-3.4-1-1.4.8-3.2 1.2-4.7 1.2-5.5 0-9.9-4.5-9.9-9.9 0-1.5.4-3.4 1.2-4.7.6-1.2.2-2.5-1-3.4-3.8-2.2-8.1-4-12.7-5.1-1.2-.4-2.5.4-3 1.5-1.4 4.2-5.1 6.7-9.5 6.7s-8-2.8-9.5-6.7c-.4-1.2-1.7-1.9-3-1.5-4.5 1.2-8.7 3-12.8 5.3-1.2.6-1.5 2.1-1 3.4.8 1.4 1.2 3.2 1.2 4.7 0 5.5-4.5 9.9-9.9 9.9-1.5 0-3.4-.4-4.7-1.2-1.2-.6-2.5-.2-3.4 1-2.3 4-4.2 8.3-5.3 12.8-.4 1.2.4 2.5 1.5 3 4.2 1.4 6.7 5.1 6.7 9.5s-2.8 8-6.7 9.5c-1.2.4-1.9 1.7-1.5 3 1.2 4.5 3 8.7 5.3 12.8.6 1.2 2.1 1.5 3.4 1 1.4-.8 3.2-1.2 4.7-1.2 5.5 0 9.9 4.5 9.9 9.9 0 1.5-.4 3.4-1.2 4.7-.6 1.2-.2 2.5 1 3.4 4 2.3 8.3 4.2 12.8 5.3h.6c1 0 1.9-.6 2.3-1.7 1.4-4.2 5.1-6.7 9.5-6.7s8 2.8 9.5 6.7c.4 1.2 1.7 1.9 3 1.5 4.5-1.2 8.7-3 12.8-5.3 1.2-.6 1.5-2.1 1-3.4-.8-1.4-1.2-3.2-1.2-4.7 0-5.5 4.5-9.9 9.9-9.9 1.5 0 3.4.4 4.7 1.2 1.2.6 2.5.2 3.4-1 2.3-4 4.2-8.3 5.3-12.8.5-1.2-.1-2.7-1.5-3.1zm-46.4 5.5c-8.3 0-15-6.7-15-15s6.7-15 15-15 15 6.7 15 15-6.8 15-15 15z" fill="#bababa"/></svg>