<svg xmlns="http://www.w3.org/2000/svg" viewBox="0 0 100 100"><path d="M91.9 8.8H8.3c-3.2 0-5.6 2.6-5.6 5.6v57.9c0 3.2 2.6 5.6 5.6 5.6h83.4c3.2 0 5.6-2.6 5.6-5.6V14.6c.4-3.3-2.2-5.8-5.4-5.8z" fill="#bababa"/><path d="M8.3 22.8h83.6v49.5H8.3V22.8z" fill="#f2f2f2"/><circle cx="23.6" cy="16.3" r="1.9" fill="#54b845"/><circle cx="16.9" cy="16.3" r="1.9" fill="#fbd303"/><circle cx="10.7" cy="16.3" r="1.9" fill="#f0582f"/><path d="M38 90.1c-1.2-.8-2.2-1.7-3-2.8-.9-1.1-1.8-2.3-2.6-3.5-1.9-2.7-3.3-5.7-4.3-8.9-1.2-3.7-1.8-7.2-1.8-10.6 0-3.8.8-7.2 2.4-10 1.2-2.2 3-4 5.1-5.3s4.5-2 6.9-2c.9 0 1.8.1 2.8.4.7.2 1.6.5 2.6.9 1.3.5 2.1.8 2.3.9.8.3 1.4.4 2 .4.4 0 1-.1 1.6-.3.4-.1 1-.3 2-.8.9-.3 1.7-.6 2.3-.9.9-.3 1.8-.5 2.6-.6 1-.1 1.9-.2 2.8-.1 1.7.1 3.3.5 4.7 1 2.5 1 4.5 2.6 6 4.8-.6.4-1.2.8-1.8 1.3-1.2 1-2.2 2.3-3 3.7-1 1.9-1.6 4-1.6 6.1 0 2.6.7 5 2 7 .9 1.5 2.2 2.7 3.7 3.7.8.5 1.4.9 2 1.1-.3.9-.6 1.8-1 2.7-.8 2-1.9 3.9-3 5.6-1.1 1.5-1.9 2.7-2.5 3.4-1 1.2-1.9 2-2.9 2.7s-2.3 1.1-3.5 1.1c-.9 0-1.7-.1-2.5-.3-.7-.2-1.4-.5-2.1-.8-.7-.3-1.5-.6-2.2-.8-.9-.2-1.9-.4-2.8-.4-1 0-1.9.1-2.8.4-.8.2-1.5.5-2.2.8-1 .4-1.7.7-2.1.8-.8.2-1.6.4-2.4.4-1.3 0-2.5-.3-3.7-1.1zm16.7-45c-1.7.8-3.2 1.2-4.8 1.1-.2-1.6 0-3.2.7-5 .6-1.5 1.4-2.9 2.4-4.1 1.1-1.3 2.5-2.3 4-3.1 1.6-.8 3.1-1.3 4.6-1.3.2 1.7 0 3.3-.6 5-.6 1.6-1.4 3-2.4 4.3-1.1 1.3-2.4 2.3-3.9 3.1z" fill="#ae96cc"/></svg>