<svg id="Layer_1" xmlns="http://www.w3.org/2000/svg" viewBox="0 0 100 100"><style>.st0{fill:#737373}.st1{fill:#fff}.st3{fill:#517889}</style><path class="st0" d="M54 3.5L21.5 22.3V60L54 78.9 86.8 60V22.3L54 3.5z"/><path class="st0" d="M21.5 22.3L54 41.2l32.7-18.9L54 3.5 21.5 22.3zm0 37.7L54 78.9 86.8 60 54 41.2 21.5 60z"/><path class="st1" d="M20.5 61.8l32.6 18.7c.3.2.6.3 1 .3.3 0 .6-.2 1-.3l32.7-18.9c.6-.3 1-1 1-1.8V22.3c0-.6-.3-1.3-1-1.8L55 1.8c-.6-.3-1.3-.3-1.9 0L20.5 20.7c-.6.3-1 1-1 1.8v37.7c0 .5.4 1.1 1 1.6zM54 5.7l28.7 16.6L54 39.2 25.3 22.3 54 5.7m4.1 35.5l26.8-15.5v33.2L56 75.5V42.3M23.4 56.6v-31l26.8 15.5 1.9 1.1v33.2L23.4 58.9"/><path class="st1" d="M29.4 55.8l-17.1 9.8v19.7l17.1 10 17.1-10V65.7l-17.1-9.9z"/><path class="st1" d="M12.3 65.7l17.1 9.8 17.1-9.8-17.1-9.8-17.1 9.8zm0 19.6l17.1 10 17.1-10-17.1-9.8-17.1 9.8z"/><path d="M11.8 86.3l17.1 9.8c.2.2.3.2.5.2s.3 0 .5-.2L47 86.3c.3-.2.5-.5.5-.8V65.7c0-.3-.2-.6-.5-.8L29.9 55c-.3-.2-.6-.2-1 0l-17.1 9.8c-.3.2-.5.5-.5.8v19.7c0 .4.2.8.5 1zM29.4 57l15 8.7-15 8.9-15-8.9 15-8.7m2.1 18.5l14-8.1v17.4l-15 8.5V76.2m-17.1 7.4V67.4l14 8.1 1 .6v17.2l-15-8.7" fill="#444"/><path class="st3" d="M48.4 72l-11.1 6.4v12.7l11.1 6.4 11.1-6.4V78.4L48.4 72z"/><path class="st3" d="M37.3 78.4l11.1 6.3 11.1-6.3L48.4 72l-11.1 6.4z"/><path class="st3" d="M37.3 91.1l11.1 6.4 11.1-6.4-11.1-6.4-11.1 6.4z"/><path class="st1" d="M36.9 91.8L48 98.2c.2 0 .2.2.3.2.2 0 .2 0 .3-.2l11.1-6.4c.2-.2.3-.3.3-.6V78.3c0-.2-.2-.5-.3-.6l-11.1-6.4c-.2-.2-.5-.2-.6 0l-11.1 6.4c-.2.2-.3.3-.3.6v12.9c0 .3.2.4.3.6zm11.5-19l9.8 5.6-9.8 5.6-9.8-5.8 9.8-5.4m1.3 11.9l9-5.3v11.3l-9.8 5.6V85m-11 5V79.5l9 5.3.6.3v11.3l-9.8-5.6"/></svg>