<svg id="Layer_1" xmlns="http://www.w3.org/2000/svg" viewBox="0 0 100 100"><style>.st0{fill:#4b9ee2}</style><path class="st0" d="M65.8 23L44.6 44c-3 3-3.2 8 0 11 1.6 1.6 3.6 2.4 5.6 2.4s4-.8 5.6-2.2l21-21.2c-2.6-4.4-6.4-8.4-11-11z"/><path class="st0" d="M100 50c0-27.6-22.4-50-50-50S0 22.4 0 50s22.4 50 50 50c10.4 0 20-3.2 28.2-8.6l8.6 8.6H100V86.8l-8.6-8.6C96.8 70 100 60.4 100 50zm-18.8 0c0 17.2-14 31.2-31.2 31.2S18.8 67.2 18.8 50s14-31.2 31.2-31.2c5.8 0 11.2 1.6 15.8 4.4 0 0 7.8-7.4 8.4-7.6 4.2 2.8 7.6 6.4 10.6 10.6-.4.6-7.8 8.2-7.8 8.2 2.6 4.2 4.2 9.8 4.2 15.6z"/></svg>