<svg xmlns="http://www.w3.org/2000/svg" viewBox="0 0 100 100"><path d="M82.9 55.4c-3.2 0-6.1.7-8.4 1.9-.9-1.7-1.7-3.2-1.9-4.4-.1-1.3-.4-2-.1-3.6.1-1.6 1.2-3.8 1.2-3.9 0-.1-.1-1-2-1s-3.5.3-3.6.9c-.1.4-.6 1.6-.7 2.8-.3 1.7-3.8 7.7-5.7 10.9-.6-1.3-1.2-2.3-1.3-3.2-.1-1.3-.4-2-.1-3.6.1-1.6 1.2-3.8 1.2-3.9 0-.1-.1-1-2-1s-3.5.3-3.6.9-.4 1.6-.7 2.8c-.4 1.2-4.9 11.2-6.1 13.8-.6 1.3-1.2 2.5-1.5 3.2v.1c-.3.6-.6 1-.6 1-.3.4-.6.9-.7.9s-.3-1.2 0-2.9c.7-3.5 2.3-9 2.3-9.1s.3-1-1-1.6c-1.3-.4-1.7.3-1.9.3s-.1.3-.1.3 1.5-6.1-2.8-6.1c-2.6 0-6.4 2.9-8.3 5.5-1.2.6-3.6 2-6.2 3.3-1 .6-2 1.2-3 1.6 0 0-.1-.1-.1-.3-5.2-5.5-14.8-9.4-14.4-17 .1-2.8 1-9.9 18.4-18.4 14.2-7.1 25.7-5.1 27.6-.7 2.8 6.2-6.1 17.7-20.9 19.3-5.7.6-8.6-1.6-9.3-2.3-.7-.9-.9-.9-1.2-.7-.4.3-.1 1 0 1.5.4 1.2 2.3 3.2 5.4 4.2 2.8.9 9.3 1.3 17.3-1.7 9-3.5 16-13.1 13.9-21.2s-16-11.3-28.8-6.7c-7.7 2.8-16 7-21.9 12.6-7.1 6.7-8.1 12.3-7.7 14.8C5.2 53.3 17.1 58.8 21.7 63c-.3.1-.4.3-.6.3-2.3 1.2-11.3 5.8-13.6 10.9-2.6 5.7.4 9.8 2.3 10.2 6.1 1.7 12.3-1.3 15.7-6.4 3.3-4.9 2.9-11.5 1.5-14.4v-.1c.6-.3 1.3-.7 1.9-1 1.2-.7 2.3-1.3 3.3-1.9-.6 1.6-1 3.5-1.2 6.2-.3 3.2 1 7.4 2.8 9 .7.7 1.6.7 2.2.7 2 0 2.9-1.6 3.9-3.6 1.2-2.5 2.3-5.2 2.3-5.2s-1.3 7.5 2.3 7.5c1.3 0 2.8-1.7 3.3-2.6.6-.9 0 0 .1-.1.1-.3.3-.3.3-.3.6-1 1.7-3 3.6-6.7 2.3-4.6 4.6-10.5 4.6-10.5s.1 1.5.9 3.8c.4 1.3 1.3 2.9 1.9 4.4-.6.7-.9 1.2-.9 1.2-.3.6-.7 1.1-1.3 1.9-1.9 2.2-4.1 4.8-4.4 5.5-.3.9-.3 1.5.4 2 .4.4 1.3.4 2.3.4 1.6-.1 2.9-.6 3.3-.7.9-.3 1.9-.9 2.9-1.6 1.9-1.3 2.9-3.2 2.8-5.8 0-1.5-.6-2.8-1-4.1.1-.3.3-.4.4-.7 2.9-4.2 5.1-8.9 5.1-8.9s.1 1.5.9 3.8c.3 1.2 1 2.5 1.6 3.8-2.8 2.2-4.4 4.8-4.9 6.4-1 3-.3 4.5 1.3 4.8.7.1 1.7-.1 2.5-.6 1-.3 2-.9 3.2-1.6 1.9-1.3 3.6-3.2 3.5-5.8 0-1.2-.3-2.3-.7-3.3 2.3-1 5.2-1.5 9-1 8.1 1 9.7 6 9.4 8.1-.3 2.2-2 3.3-2.6 3.6s-.7.4-.7.7c0 .4.3.3.9.3.7-.1 4.2-1.7 4.4-5.7-.7-5.1-5.5-10.5-13.7-10.5zm-62.5 21c-2.6 2.9-6.4 4.1-8 3-1.7-1-1-5.4 2.2-8.4 2-1.9 4.6-3.6 6.2-4.6.4-.3 1-.6 1.6-1 .1 0 .1-.1.1-.1.1-.1.3-.1.4-.3 1.6 4.5.4 8.2-2.5 11.4zM40 63.1c-.9 2.3-2.9 8.1-4.1 7.8-1-.3-1.6-4.6-.1-9 .7-2.2 2.3-4.8 3.2-5.8 1.5-1.6 3-2.2 3.5-1.5.3.8-1.9 7-2.5 8.5zm16.1 7.7c-.4.1-.7.3-.9.3s.1-.3.1-.3 2-2.2 2.8-3.2c.4-.6 1-1.3 1.6-2v.3c.1 2.4-2.5 4.1-3.6 4.9zM68.5 68c-.3-.1-.3-.9.7-3 .4-.9 1.3-2.2 2.8-3.6.1.6.3 1 .3 1.6 0 3.3-2.4 4.4-3.8 5z" fill="#ff83c4" stroke="#ff83c4" stroke-width=".25" stroke-miterlimit="10"/></svg>