<svg id="Layer_1" xmlns="http://www.w3.org/2000/svg" viewBox="0 0 100 100"><style>.st0{fill:#ffae00}.st3{fill:#fed305}</style><g id="Page-1"><g id="Sketch-Flat-Logo" transform="translate(-9 -28)"><g id="Group" transform="translate(9 28)"><g id="Base"><path id="Polygon" class="st0" d="M50 92.8L2.8 37.9l20.4-27.8L50 7.2l26.8 2.9 20.4 27.8z"/></g><g id="Bottom-Back" transform="translate(0 160)"><path id="Polygon_1_" fill="#ec6c00" d="M50-67.2L2.8-122.1h94.4z"/></g><g id="Bottom-Mid" transform="translate(100 160)"><path id="Polygon_2_" class="st0" d="M-50-67.2l-28.1-54.9h56.2z"/></g><g id="Top-Mid" transform="translate(100)"><path id="Polygon_3_" fill="#ffefb4" d="M-50 7.2l-28.1 30.7h56.2z"/></g><g id="Top-Side-Left" transform="translate(0 15)"><path id="Polygon_4_" class="st0" d="M23.2-4.9l-10.5 14-9.9 13.8h19.3z"/></g><g id="Top-Side-Right" transform="matrix(-1 0 0 1 494 15)"><path id="Polygon_5_" class="st0" d="M417.2-4.9l-10.5 14-9.9 13.8h19.3z"/></g><g id="Top-Left" transform="translate(100)"><path id="Polygon_6_" class="st3" d="M-76.8 10.1l-1.3 27.8L-50 7.2z"/></g><g id="Top-Right" transform="translate(247)"><path id="Polygon_7_" class="st3" d="M-170.2 10.1l1.3 27.8L-197 7.2z"/></g></g></g></g></svg>