<svg id="Layer_1" xmlns="http://www.w3.org/2000/svg" viewBox="0 0 100 100"><style>.st0{fill:#bababa}</style><path class="st0" d="M48.3 1.7H54v3.9h-5.7zM96 41c.3-3.1.1-6.2-.8-9.1H81.6v-5.7h10.9c-.9-1.3-1.9-2.6-3.1-3.8L76.1 9 74 30.1c-.5 5.4-3 10.4-6.9 14.2v9.3h7.4c4.2 0 8 1.5 11 4.1 4.2-2.6 7.4-6.5 9.1-11.1h-13V41H96zM54 5.6v6.7h-5.7V5.6H31.8l2.4 24c.4 4.3 2.4 8.2 5.6 11 3.2 2.9 7.3 4.5 11.5 4.5 4.3 0 8.4-1.6 11.5-4.5 3.2-2.9 5.1-6.8 5.6-11l2.4-24H54zm7.7 18.5h-7.6v9.3h-5.7v-9.3h-7.6v-5.7h20.9v5.7z"/><path class="st0" d="M74.6 59.3H61.5v-11c-3.1 1.6-6.6 2.4-10.2 2.4-3.6 0-7.1-.8-10.2-2.4v11H28c-6.1 0-11 5-11 11v7.1c8.7 1.4 15.3 8.9 15.3 17.9v2.9h35.5v-2.9c0-9.9 8-18 17.9-18.1v-6.9c-.1-6-5-11-11.1-11z"/><path class="st0" d="M85.9 82.9c-6.9 0-12.5 5.6-12.5 12.5v2.9H83v-7.7h5.7v7.7h9.6v-2.9c.1-6.9-5.5-12.5-12.4-12.5zM28.5 30.1L26.5 9 13.1 22.4c-1.2 1.2-2.2 2.4-3.1 3.8h10.9v5.7H7.4c-.9 2.9-1.2 6-.8 9.1H21v5.7H8c1.7 4.6 4.9 8.5 9.1 11.1 2.9-2.6 6.8-4.1 11-4.1h7.4v-9.3c-4-3.8-6.4-8.8-7-14.3zM14.1 82.9c-6.9 0-12.5 5.6-12.5 12.5v2.9h9.6v-7.7h5.7v7.7h9.6v-2.9c.1-6.9-5.5-12.5-12.4-12.5z"/></svg>