<svg xmlns="http://www.w3.org/2000/svg" viewBox="0 0 100 100"><path d="M92.5 90.1c0 1.3-1.1 2.4-2.4 2.4H9.9c-1.3 0-2.4-1.1-2.4-2.4V9.9c0-1.3 1.1-2.4 2.4-2.4h80.3c1.3 0 2.4 1.1 2.4 2.4v80.2h-.1z" fill="#bababa"/><path d="M83.1 59.4c0-1.3-1.1-2.4-2.4-2.4H19.3c-1.3 0-2.4 1.1-2.4 2.4V76c0 1.3 1.1 2.4 2.4 2.4h44.9l9.4 9.4v-9.4h7.1c1.3 0 2.4-1.1 2.4-2.4V59.4z" fill="#7c7c7c"/><path d="M28.8 64.2h7.1v7.1h-7.1v-7.1zm11.8 0h7.1v7.1h-7.1v-7.1zm11.8 0h7.1v7.1h-7.1v-7.1zm11.8 0h7.1v7.1h-7.1v-7.1z" fill="#fafafa"/></svg>