<svg xmlns="http://www.w3.org/2000/svg" viewBox="0 0 100 100"><path d="M73.3 47.6c1.1 1 2.6.8 3.5-.2 1-1 1-2.4.2-3.4v-.2l-6.6-7.7c-.3-.3-.5-.8-.5-1.1l-1-14.6c-.2-1.3-1.3-2.4-2.6-2.4s-2.4 1-2.6 2.2v.2l-1.1 16v.3c0 1 .3 1.9 1.1 2.7l.5.5c.2.2 9.1 7.7 9.1 7.7zM66.8 5.7c-13.5 0-24.9 8.7-29 20.7 2.7.3 5.3 1 7.7 1.8 3.2-8.5 11.6-14.6 21.2-14.6 12.5 0 22.8 10.3 22.8 22.8 0 11.4-8.3 20.7-19.3 22.5.2 1.4.3 3 .3 4.5 0 1.1 0 2.2-.2 3.4 15.2-1.8 27-14.8 27-30.5.1-16.9-13.7-30.6-30.5-30.6zm-5.3 53.1h-4c-.6-3.2-1.9-6.4-3.9-9.1l2.9-2.7c1-1 1-2.7 0-3.7l-2.7-3c-1-1-2.7-1-3.7 0L47.2 43c-2.9-1.9-5.9-3.2-9.1-3.9v-4c0-1.4-1.1-2.6-2.6-2.6h-4c-1.4 0-2.6 1.1-2.6 2.6v4c-3.2.6-6.4 1.9-9.3 3.9l-2.7-2.7c-1-1-2.7-1-3.7 0l-2.9 2.9c-1 1-1 2.7 0 3.7l2.7 2.7c-1.9 2.9-3.2 5.9-3.9 9.3H5.3c-1.4 0-2.6 1.1-2.6 2.6v4c0 1.4 1.1 2.6 2.6 2.6h3.9c.6 3.2 1.9 6.4 3.9 9.3L10.3 80c-1 1-1 2.7 0 3.7l2.9 2.9c1 1 2.7 1 3.7 0l2.7-2.6c2.9 1.9 6.1 3.2 9.3 3.9v3.9c0 1.4 1.1 2.6 2.6 2.6h4c1.4 0 2.6-1.1 2.6-2.6v-3.9c3.2-.6 6.4-1.9 9.3-3.9l2.7 2.7c1 1 2.7 1 3.7 0l2.9-2.9c1-1 1-2.7 0-3.7L54 77.4c1.9-2.9 3.2-5.9 3.9-9.3h4c1.4 0 2.6-1.1 2.6-2.6v-4c-.5-1.6-1.6-2.7-3-2.7zm-18.6 14c-5.3 5.1-13.6 5.1-18.9 0-5.3-5.1-5.1-13.6 0-18.9 5.3-5.1 13.6-5.1 18.9 0 5.3 5.2 5.1 13.7 0 18.9z" fill="#bababa"/></svg>