<svg xmlns="http://www.w3.org/2000/svg" viewBox="0 0 100 100"><path d="M1 44.8l27.9-29.3v14.9l-19 19.2v.2l18.9 19.3v15L1 54.7zm70.1 24.4L90 50v-.2L71.1 30.6V15.7L99 45v10.3L71.1 84.6z" fill="#0090e0" stroke="#0090e0" stroke-width=".25" stroke-miterlimit="10"/><path d="M38.1 43.1h-7.9v-3.8h20.3v3.8h-8v20.4h-4.4V43.1zm17.8 14.2s2.6 2.6 6 2.6c1.8 0 3.5-1 3.5-2.9 0-4.3-11.4-3.6-11.4-11 0-4 3.5-7 8.1-7 4.8 0 7.2 2.6 7.2 2.6l-1.9 3.6s-2.3-2.1-5.3-2.1c-2.1 0-3.6 1.2-3.6 2.9 0 4.3 11.4 3.2 11.4 10.9 0 3.9-2.9 7.1-8 7.1-5.4 0-8.3-3.3-8.3-3.3l2.3-3.4z" fill="#0090e0" stroke="#0090e0" stroke-width="2" stroke-miterlimit="10"/></svg>