<svg id="Layer_1" xmlns="http://www.w3.org/2000/svg" viewBox="0 0 100 100"><style>.st4{fill:#7984eb}.st5{fill:#979fef}</style><path d="M89.9 30.3H10.1c-4.7 0-8.5 3.8-8.5 8.5v51c0 4.7 3.8 8.5 8.5 8.5h79.8c4.7 0 8.5-3.8 8.5-8.5v-51c0-4.7-3.8-8.5-8.5-8.5z" fill="#ff4b00"/><path d="M98.4 38.8v51c0 4.7-3.8 8.5-8.5 8.5H50v-68h39.9c4.7 0 8.5 3.8 8.5 8.5z" fill="#dd3400"/><path d="M10.1 92.7c-1.6 0-2.8-1.3-2.8-2.8v-51c0-1.6 1.3-2.8 2.8-2.8h79.8c1.6 0 2.8 1.3 2.8 2.8v51c0 1.6-1.3 2.8-2.8 2.8H10.1z" fill="#ede9e8"/><path d="M89.9 36H50v56.7h39.9c1.6 0 2.8-1.3 2.8-2.8v-51c0-1.6-1.2-2.9-2.8-2.9z" fill="#dfd7d5"/><path class="st4" d="M44.3 87.1H16c-1.6 0-2.8-1.3-2.8-2.8v-2.8c0-9.4 7.6-17 17-17s17 7.6 17 17v2.8c0 1.5-1.3 2.8-2.9 2.8zM30.1 64.4c-6.3 0-11.3-5.1-11.3-11.3s5.1-11.3 11.3-11.3 11.4 5 11.4 11.2-5.1 11.4-11.4 11.4z"/><path class="st5" d="M84.2 81.4H55.7c-1.6 0-2.8-1.3-2.8-2.8 0-1.6 1.3-2.8 2.8-2.8h28.5c1.6 0 2.8 1.3 2.8 2.8.1 1.5-1.2 2.8-2.8 2.8zm0-11.4H55.7c-1.6 0-2.8-1.3-2.8-2.8 0-1.6 1.3-2.8 2.8-2.8h28.5c1.6 0 2.8 1.3 2.8 2.8.1 1.6-1.2 2.8-2.8 2.8zm-5.7-11.3H61.3c-1.6 0-2.8-1.3-2.8-2.8 0-1.6 1.3-2.8 2.8-2.8h17.2c1.6 0 2.8 1.3 2.8 2.8.1 1.5-1.2 2.8-2.8 2.8z"/><path d="M38.7 24.3c-.7 0-1.5-.3-2-.8l-17-17c-1.1-1.1-1.1-2.9 0-4s2.9-1.1 4 0l17 17c1.1 1.1 1.1 2.9 0 4-.6.5-1.3.8-2 .8z" fill="#00607f"/><path d="M61.3 24.3c-.7 0-1.5-.3-2-.8-1.1-1.1-1.1-2.9 0-4l17-17c1.1-1.1 2.9-1.1 4 0s1.1 2.9 0 4l-17 17c-.5.5-1.2.8-2 .8z" fill="#00465f"/><path class="st5" d="M63.7 19.8c-.6-.7-1.4-1.2-2.3-1.2H38.7c-.9 0-1.8.5-2.3 1.2-.5.7-.7 1.7-.3 2.6l5.7 17.4c.3 1.1 1.4 1.9 2.7 1.9h11.3c1.2 0 2.3-.8 2.7-1.9L64 22.4c.4-.9.2-1.9-.3-2.6z"/><path class="st4" d="M64 22.4l-5.7 17.4c-.3 1.1-1.4 1.9-2.7 1.9H50V18.6h11.3c.9 0 1.8.5 2.3 1.2.6.7.8 1.7.4 2.6z"/></svg>