<svg xmlns="http://www.w3.org/2000/svg" viewBox="0 0 100 100"><path d="M94.6 13.2h-42v73.5h42c1.4 0 2.6-1.2 2.6-2.6V15.9c0-1.5-1.1-2.7-2.6-2.7z" fill="#7986cb"/><path d="M55.2 34.2H71M50 57.9h15.8v15.8H50V57.9zm36.8-23.7l-7.9 7.9-7.9-7.9 7.9-7.9 7.9 7.9zM67 65.8h11.9V42.1" fill="none" stroke="#e8eaf6" stroke-width="3.75" stroke-miterlimit="10"/><path d="M57.9 97.2L2.8 86.8V13.2L57.9 2.8v94.4z" fill="#3949ab"/><path d="M24.5 67.3l-9-33 6.2-.5 6.4 25.7h.4l6.7-26.9 7.3-.6-10.6 36-7.4-.7z" fill="#fff"/></svg>