<svg xmlns="http://www.w3.org/2000/svg" viewBox="0 0 100 100"><path d="M61.7 7.1h34.8v5.5H61.7V7.1zm0 19.8h34.8v5.4H61.7v-5.4zm0 20.1h34.8v5.5H61.7V47zM3.5 67.4h93v5.5h-93v-5.5zm0 20h93v5.5h-93v-5.5z" fill="#4c97f7" stroke="#4c97f7" stroke-width="3" stroke-miterlimit="10"/><path d="M19.3 25.2L7.7 49.7 9.9 52l14.4-14.4c-.5-1.2-.3-2.6.6-3.6 1.2-1.2 3.2-1.2 4.4 0 1.2 1.2 1.2 3.2 0 4.4-1 1-2.4 1.1-3.5.6L11.4 53.4l2.2 2.2L38.2 44l5.2-14.7-9.4-9.4-14.7 5.3zM53 22.3l-12-12c-1-1-2.6-1-3.5 0l-2.8 2.8c-1 1-1 2.6 0 3.5l11.9 11.9c1 1 2.6 1 3.5 0l2.8-2.8c1-.9 1-2.5.1-3.4z" fill="#4c97f7"/></svg>