<svg xmlns="http://www.w3.org/2000/svg" viewBox="0 0 72 100"><linearGradient id="a" gradientUnits="userSpaceOnUse" x1="36" y1="97" x2="36" y2="-1" gradientTransform="translate(0 2)"><stop offset="0" stop-color="#c8d4db"/><stop offset=".139" stop-color="#d8e1e6"/><stop offset=".359" stop-color="#ebf0f3"/><stop offset=".617" stop-color="#f9fafb"/><stop offset="1" stop-color="#fff"/></linearGradient><path d="M45 1l27 26.7V99H0V1h45z" fill="url(#a)"/><path d="M45 1l27 26.7V99H0V1h45z" fill-opacity="0" stroke="#7191a1" stroke-width="2"/><linearGradient id="b" gradientUnits="userSpaceOnUse" x1="36.8" y1="63.461" x2="36.8" y2="30.461"><stop offset="0" stop-color="#adccdc"/><stop offset="1" stop-color="#4c6c7b"/></linearGradient><path d="M51.3 53.7v9.4c0 .2-.2.4-.4.4H22.7c-.2 0-.4-.2-.4-.4v-.8c0-.2.2-.4.4-.4H24l14.6-14.6-15.2-15.2c-.1-.1-.1-.2-.1-.3v-1c0-.2.2-.4.4-.4h27.2c.2 0 .4.2.4.4v9.4c0 .2-.2.4-.4.4h-1.1c-.2 0-.4-.2-.4-.4 0-4-2.3-7.3-6.5-7.3H32l12.4 12.4c.1.1.1.4 0 .5L32.3 58H43c2.8 0 5.3-1.8 6.2-4.4.1-.2.2-.3.4-.3H51c.1 0 .3.2.3.4z" fill="url(#b)"/><linearGradient id="c" gradientUnits="userSpaceOnUse" x1="45.037" y1="25.813" x2="58.537" y2="12.313" gradientTransform="translate(0 2)"><stop offset="0" stop-color="#fff"/><stop offset=".35" stop-color="#fafbfb"/><stop offset=".532" stop-color="#edf1f4"/><stop offset=".675" stop-color="#dde5e9"/><stop offset=".799" stop-color="#c7d3da"/><stop offset=".908" stop-color="#adbdc7"/><stop offset="1" stop-color="#92a5b0"/></linearGradient><path d="M45 1l27 26.7H45V1z" fill="url(#c)"/><path d="M45 1l27 26.7H45V1z" fill-opacity="0" stroke="#7191a1" stroke-width="2" stroke-linejoin="bevel"/><path d="M36.5 91.9h-4.4l-1.8-4.6h-8l-1.7 4.6h-4.3l7.8-20h4.3l8.1 20zM29.1 84l-2.8-7.4-2.7 7.4h5.5zm22.4.5l3.9 1.2c-.6 2.2-1.6 3.8-3 4.9-1.4 1.1-3.2 1.6-5.3 1.6-2.7 0-4.8-.9-6.6-2.7-1.7-1.8-2.5-4.3-2.5-7.5 0-3.3.9-5.9 2.6-7.8s4-2.8 6.8-2.8c2.5 0 4.4.7 6 2.2.9.9 1.6 2.1 2.1 3.7l-4 1c-.2-1-.7-1.9-1.5-2.5s-1.8-.8-2.9-.8c-1.5 0-2.7.5-3.6 1.6-.9 1.1-1.4 2.8-1.4 5.2 0 2.5.5 4.3 1.4 5.4.9 1.1 2.1 1.6 3.6 1.6 1.1 0 2-.3 2.8-1 .7-.7 1.3-1.8 1.6-3.3z" fill="#4c6c7b"/></svg>