<svg id="Layer_1" xmlns="http://www.w3.org/2000/svg" viewBox="0 0 72 100"><style>.st3{fill:#fff}.st4{fill:#f2f2f2}</style><linearGradient id="SVGID_1_" gradientUnits="userSpaceOnUse" x1="36" y1="101" x2="36" y2="3.004" gradientTransform="matrix(1 0 0 -1 0 102)"><stop offset="0" stop-color="#fffeee"/><stop offset=".637" stop-color="#cf9fa0"/><stop offset="1" stop-color="#a03537"/></linearGradient><path d="M45.1 1l27.2 26.7V99H-.2V1h45.3z" fill="url(#SVGID_1_)"/><path d="M45.1 1l27.2 26.7V99H-.2V1h45.3z" fill-opacity="0" stroke="#a03537" stroke-width="2"/><path class="st3" d="M26.1 91.1h-4.4l-1.8-4.5h-8.1l-1.7 4.5H5.8l7.9-19.8H18l8.1 19.8zm-7.5-7.9l-2.8-7.4-2.7 7.4h5.5zm9.6-12h7.4c1.7 0 3 .1 3.8.4 1.2.3 2.2 1 3 1.8s1.5 1.9 1.9 3.2c.4 1.3.7 2.8.7 4.7 0 1.6-.2 3-.6 4.2-.5 1.4-1.2 2.6-2.2 3.5-.7.7-1.7 1.2-2.9 1.6-.9.3-2.1.4-3.6.4H28V71.2zm4.1 3.4v13.1h3c1.1 0 2-.1 2.5-.2.7-.2 1.2-.4 1.6-.8s.8-1 1.1-1.9.4-2.1.4-3.6-.1-2.7-.4-3.5-.7-1.5-1.2-1.9c-.5-.5-1.1-.8-1.9-.9-.6-.1-1.7-.2-3.3-.2h-1.8zm16.3 16.5V71.2h4l8.3 13.2V71.2h3.8V91h-4.1l-8.1-12.9V91h-3.9z"/><path class="st4" d="M54 48.1c0 2.5-8.1 4.5-18 4.5s-18-2-18-4.5 8.1-4.5 18-4.5 18 2 18 4.5z"/><linearGradient id="SVGID_2_" gradientUnits="userSpaceOnUse" x1="28.972" y1="47.222" x2="43.028" y2="61.278" gradientTransform="matrix(1 0 0 -1 0 102)"><stop offset="0" stop-color="#fffeee"/><stop offset=".637" stop-color="#cf9fa0"/><stop offset="1" stop-color="#a03537"/></linearGradient><path d="M49.5 47.8c0 2.2-6 3.9-13.5 3.9S22.5 50 22.5 47.8s6-3.9 13.5-3.9 13.5 1.7 13.5 3.9z" fill="url(#SVGID_2_)"/><linearGradient id="SVGID_3_" gradientUnits="userSpaceOnUse" x1="18" y1="45.9" x2="54" y2="45.9" gradientTransform="matrix(1 0 0 -1 0 102)"><stop offset="0" stop-color="#fffeee"/><stop offset=".637" stop-color="#cf9fa0"/><stop offset="1" stop-color="#a03537"/></linearGradient><path d="M18 48.3v11.2S22.5 64 36 64s18-4.5 18-4.5V48.3s-2.2 3.9-18 4.2c-15.8.3-18-4.2-18-4.2z" fill="url(#SVGID_3_)"/><path class="st4" d="M54 32.3c0 2.5-8.1 4.5-18 4.5s-18-2-18-4.5 8.1-4.5 18-4.5 18 2 18 4.5z"/><linearGradient id="SVGID_4_" gradientUnits="userSpaceOnUse" x1="28.954" y1="63.004" x2="43.01" y2="77.06" gradientTransform="matrix(1 0 0 -1 0 102)"><stop offset="0" stop-color="#fffeee"/><stop offset=".637" stop-color="#cf9fa0"/><stop offset="1" stop-color="#a03537"/></linearGradient><path d="M49.5 31.9c0 2.2-6 3.9-13.5 3.9s-13.5-1.7-13.5-3.9S28.5 28 36 28c7.5.1 13.5 1.8 13.5 3.9z" fill="url(#SVGID_4_)"/><linearGradient id="SVGID_5_" gradientUnits="userSpaceOnUse" x1="18" y1="61.6" x2="54" y2="61.6" gradientTransform="matrix(1 0 0 -1 0 102)"><stop offset="0" stop-color="#fffeee"/><stop offset=".637" stop-color="#cf9fa0"/><stop offset="1" stop-color="#a03537"/></linearGradient><path d="M18 32.6v11.2s4.5 4.5 18 4.5 18-4.5 18-4.5V32.6s-2.2 3.9-18 4.2c-15.8.3-18-4.2-18-4.2z" fill="url(#SVGID_5_)"/><path class="st3" d="M54 16.6c0 2.5-8.1 4.5-18 4.5s-18-2-18-4.5 8.1-4.5 18-4.5 18 2 18 4.5z"/><linearGradient id="SVGID_6_" gradientUnits="userSpaceOnUse" x1="28.972" y1="78.722" x2="43.028" y2="92.778" gradientTransform="matrix(1 0 0 -1 0 102)"><stop offset="0" stop-color="#fffeee"/><stop offset=".637" stop-color="#cf9fa0"/><stop offset="1" stop-color="#a03537"/></linearGradient><path d="M49.5 16.3c0 2.2-6 3.9-13.5 3.9s-13.5-1.7-13.5-3.9 6-3.9 13.5-3.9 13.5 1.7 13.5 3.9z" fill="url(#SVGID_6_)"/><linearGradient id="SVGID_7_" gradientUnits="userSpaceOnUse" x1="18" y1="77.4" x2="54" y2="77.4" gradientTransform="matrix(1 0 0 -1 0 102)"><stop offset="0" stop-color="#fffeee"/><stop offset=".637" stop-color="#cf9fa0"/><stop offset="1" stop-color="#a03537"/></linearGradient><path d="M18 16.8V28s4.5 4.5 18 4.5S54 28 54 28V16.8s-2.2 3.9-18 4.2c-15.8.3-18-4.2-18-4.2z" fill="url(#SVGID_7_)"/><linearGradient id="SVGID_8_" gradientUnits="userSpaceOnUse" x1="45.178" y1="74.159" x2="58.772" y2="87.753" gradientTransform="matrix(1 0 0 -1 0 102)"><stop offset="0" stop-color="#fffeee"/><stop offset=".637" stop-color="#cf9fa0"/><stop offset="1" stop-color="#a03537"/></linearGradient><path d="M45.1 1l27.2 26.7H45.1V1z" fill="url(#SVGID_8_)"/><path d="M44.1 1l27.2 26.7H44.1V1z" fill-opacity="0" stroke="#a03537" stroke-width="2" stroke-linejoin="bevel"/></svg>