<svg xmlns="http://www.w3.org/2000/svg" viewBox="0 0 72 100"><linearGradient id="a" gradientUnits="userSpaceOnUse" x1="36" y1="97.8" x2="36" y2="-.2" gradientTransform="translate(0 1)"><stop offset="0" stop-color="#c8d4db"/><stop offset=".139" stop-color="#d8e1e6"/><stop offset=".359" stop-color="#ebf0f3"/><stop offset=".617" stop-color="#f9fafb"/><stop offset="1" stop-color="#fff"/></linearGradient><path d="M45 .8l27 26.7v71.3H0V.8h45z" fill="url(#a)"/><path d="M45 .8l27 26.7v71.3H0V.8h45z" fill-opacity="0" stroke="#7191a1" stroke-width="2"/><linearGradient id="b" gradientUnits="userSpaceOnUse" x1="45.075" y1="26.575" x2="58.575" y2="13.075" gradientTransform="translate(0 1)"><stop offset="0" stop-color="#fff"/><stop offset=".35" stop-color="#fafbfb"/><stop offset=".532" stop-color="#edf1f4"/><stop offset=".675" stop-color="#dde5e9"/><stop offset=".799" stop-color="#c7d3da"/><stop offset=".908" stop-color="#adbdc7"/><stop offset="1" stop-color="#92a5b0"/></linearGradient><path d="M45 .8l27 26.7H45V.8z" fill="url(#b)"/><path d="M45 .8l27 26.7H45V.8z" fill-opacity="0" stroke="#7191a1" stroke-width="2" stroke-linejoin="bevel"/><g opacity=".8"><linearGradient id="c" gradientUnits="userSpaceOnUse" x1="18.426" y1="41.139" x2="56.026" y2="41.139"><stop offset="0" stop-color="#adccdc"/><stop offset="1" stop-color="#4c6c7b"/></linearGradient><path d="M18.4 38.8C29 26.5 48.7 28.9 56 43.4H38.3c-3.2 0-5.2-.1-7.5 1.1-2.6 1.4-4.6 3.9-5.3 6.9l-7.1-12.6z" fill="url(#c)"/><linearGradient id="d" gradientUnits="userSpaceOnUse" x1="28.137" y1="53.702" x2="43.294" y2="53.702"><stop offset="0" stop-color="#adccdc"/><stop offset="1" stop-color="#4c6c7b"/></linearGradient><path d="M28.1 53.7c0 4.2 3.4 7.6 7.6 7.6s7.6-3.4 7.6-7.6-3.4-7.6-7.6-7.6c-4.2 0-7.6 3.4-7.6 7.6z" fill="url(#d)"/><linearGradient id="e" gradientUnits="userSpaceOnUse" x1="12.92" y1="58.664" x2="38.654" y2="58.664"><stop offset="0" stop-color="#adccdc"/><stop offset="1" stop-color="#4c6c7b"/></linearGradient><path d="M38.7 63.6c-4.3 1.3-9.2-.1-12-4.8-2.1-3.6-7.6-13.2-10.1-17.5C7.9 54.7 15.4 73 31.3 76.1l7.4-12.5z" fill="url(#e)"/><linearGradient id="f" gradientUnits="userSpaceOnUse" x1="34.293" y1="61.307" x2="58.524" y2="61.307"><stop offset="0" stop-color="#adccdc"/><stop offset="1" stop-color="#4c6c7b"/></linearGradient><path d="M42.8 46.1c3.5 3.3 4.3 8.6 1.9 12.8-1.8 3.1-7.6 12.9-10.4 17.6 16.4 1 28.3-15 22.9-30.3l-14.4-.1z" fill="url(#f)"/></g></svg>