<svg xmlns="http://www.w3.org/2000/svg" viewBox="0 0 72 100"><linearGradient id="a" gradientUnits="userSpaceOnUse" x1="36" y1="97" x2="36" y2="-1" gradientTransform="translate(0 2)"><stop offset="0" stop-color="#c8d4db"/><stop offset=".139" stop-color="#d8e1e6"/><stop offset=".359" stop-color="#ebf0f3"/><stop offset=".617" stop-color="#f9fafb"/><stop offset="1" stop-color="#fff"/></linearGradient><path d="M45 1l27 26.7V99H0V1h45z" fill="url(#a)"/><path d="M45 1l27 26.7V99H0V1h45z" fill-opacity="0" stroke="#7191a1" stroke-width="2"/><linearGradient id="b" gradientUnits="userSpaceOnUse" x1="36.8" y1="61.589" x2="36.8" y2="20.333"><stop offset="0" stop-color="#adccdc"/><stop offset="1" stop-color="#4c6c7b"/></linearGradient><path d="M51.4 37.7h-2.9V32c0-6.4-5.2-11.7-11.7-11.7S25.1 25.6 25.1 32v5.7h-2.9c-1.1 0-2 .9-2 2v19.8c0 1.1.9 2 2 2h29.1c1.1 0 2-.9 2-2V39.8c.1-1.2-.8-2.1-1.9-2.1zM39.3 54.2c.2.7-.3 1.3-1 1.3h-3c-.7 0-1.2-.7-1-1.3l1-3.7c-1.1-.6-1.9-1.7-1.9-3.1 0-2 1.6-3.5 3.5-3.5s3.5 1.6 3.5 3.5c0 1.4-.8 2.6-1.9 3.1l.8 3.7zm3.3-16.5H31V32c0-3.2 2.6-5.8 5.8-5.8s5.8 2.6 5.8 5.8v5.7z" fill="url(#b)"/><linearGradient id="c" gradientUnits="userSpaceOnUse" x1="45.037" y1="25.813" x2="58.537" y2="12.313" gradientTransform="translate(0 2)"><stop offset="0" stop-color="#fff"/><stop offset=".35" stop-color="#fafbfb"/><stop offset=".532" stop-color="#edf1f4"/><stop offset=".675" stop-color="#dde5e9"/><stop offset=".799" stop-color="#c7d3da"/><stop offset=".908" stop-color="#adbdc7"/><stop offset="1" stop-color="#92a5b0"/></linearGradient><path d="M45 1l27 26.7H45V1z" fill="url(#c)"/><path d="M45 1l27 26.7H45V1z" fill-opacity="0" stroke="#7191a1" stroke-width="2" stroke-linejoin="bevel"/><path d="M14.5 86.9l2.7.8c-.4 1.5-1.1 2.6-2 3.3-.9.7-2.2 1.1-3.6 1.1-1.8 0-3.3-.6-4.5-1.9-1.2-1.2-1.7-2.9-1.7-5.1 0-2.3.6-4 1.8-5.3 1.2-1.3 2.7-1.9 4.6-1.9 1.7 0 3 .5 4.1 1.5.6.6 1.1 1.4 1.4 2.5l-2.7.6c-.2-.7-.5-1.3-1-1.7-.5-.4-1.1-.6-1.9-.6-1 0-1.8.4-2.5 1.1-.6.7-.9 1.9-.9 3.5 0 1.7.3 2.9.9 3.7.6.7 1.4 1.1 2.4 1.1.7 0 1.4-.2 1.9-.7.4-.3.8-1 1-2zm5 5V78.3h5.8c1.5 0 2.5.1 3.2.4.7.2 1.2.7 1.6 1.3.4.6.6 1.3.6 2.1 0 1-.3 1.9-.9 2.5-.6.7-1.5 1.1-2.7 1.3.6.3 1.1.7 1.5 1.1.4.4.9 1.2 1.6 2.2l1.7 2.7h-3.3l-2-3c-.7-1.1-1.2-1.7-1.4-2-.3-.3-.5-.5-.8-.6-.3-.1-.8-.2-1.4-.2h-.6v5.7h-2.9zm2.8-7.9h2c1.3 0 2.1-.1 2.5-.2.3-.1.6-.3.8-.6s.3-.6.3-1c0-.5-.1-.8-.4-1.1-.2-.3-.6-.5-1-.5h-4.1V84zm13.8 7.9v-5.7l-5-7.9h3.2l3.2 5.4 3.1-5.4h3.2l-5 7.9v5.7h-2.7zm9.1 0V78.3h4.4c1.7 0 2.8.1 3.3.2.8.2 1.4.6 2 1.3.5.7.8 1.6.8 2.6 0 .8-.2 1.5-.5 2.1s-.7 1-1.2 1.3c-.5.3-.9.5-1.4.6-.7.1-1.6.2-2.8.2H48v5.1h-2.8zm2.7-11.3v3.9h1.5c1.1 0 1.8-.1 2.2-.2.4-.1.7-.4.9-.7.2-.3.3-.7.3-1.1 0-.5-.1-.9-.4-1.2-.3-.3-.7-.5-1.1-.6-.3-.1-1-.1-2-.1h-1.4zm13 11.3V80.6h-4v-2.3h10.8v2.3h-4v11.3h-2.8z" fill="#4c6c7b"/></svg>