<svg xmlns="http://www.w3.org/2000/svg" viewBox="0 0 72 100"><linearGradient id="a" gradientUnits="userSpaceOnUse" x1="36.2" y1="3.018" x2="36.2" y2="101.052" gradientTransform="matrix(1 0 0 -1 0 102)"><stop offset="0" stop-color="#00a6e9"/><stop offset=".002" stop-color="#00a7e9"/><stop offset=".092" stop-color="#00b2ec"/><stop offset=".186" stop-color="#23bdef"/><stop offset=".286" stop-color="#66c8f2"/><stop offset=".393" stop-color="#89d3f5"/><stop offset=".507" stop-color="#a1dbf8"/><stop offset=".633" stop-color="#b2e2f9"/><stop offset=".781" stop-color="#bce6fb"/><stop offset="1" stop-color="#bfe7fb"/></linearGradient><path d="M45.2.9l27.1 26.7V99H.1V1h45.1z" fill="url(#a)"/><path d="M45.2.9l27.1 26.7V99H.1V1h45.1z" fill-opacity="0" stroke="#0096db" stroke-width="2"/><linearGradient id="b" gradientUnits="userSpaceOnUse" x1="58.773" y1="87.876" x2="49.741" y2="78.845" gradientTransform="matrix(1 0 0 -1 0 102)"><stop offset="0" stop-color="#009de1"/><stop offset=".03" stop-color="#00a3e3"/><stop offset=".095" stop-color="#00b1e7"/><stop offset=".166" stop-color="#67c0ec"/><stop offset=".241" stop-color="#92cef0"/><stop offset=".321" stop-color="#b4dbf4"/><stop offset=".407" stop-color="#cee7f8"/><stop offset=".503" stop-color="#e3f0fb"/><stop offset=".614" stop-color="#f1f8fd"/><stop offset=".751" stop-color="#fbfdfe"/><stop offset="1" stop-color="#fff"/></linearGradient><path d="M45.2.8l27.1 26.7H45.2V.8z" fill="url(#b)"/><path d="M45.2.8l27.1 26.7H45.2V.8z" fill-opacity="0" stroke="#0096db" stroke-width="2" stroke-linejoin="bevel"/><path d="M8.9 71.6h6.9c1.6 0 2.7.1 3.6.4 1.1.3 2 .9 2.8 1.7.8.8 1.4 1.8 1.8 3s.6 2.6.6 4.4c0 1.5-.2 2.8-.6 3.9-.5 1.3-1.1 2.4-2 3.3-.7.6-1.5 1.1-2.6 1.5-.8.3-1.9.4-3.3.4H8.9V71.6zm3.8 3.1V87h2.8c1.1 0 1.8-.1 2.3-.2.6-.2 1.1-.4 1.5-.8s.7-1 1-1.8c.3-.8.4-2 .4-3.4s-.1-2.5-.4-3.3-.6-1.4-1.1-1.8c-.5-.4-1-.7-1.7-.9-.5-.1-1.6-.2-3.1-.2h-1.7zm23.8 8.6v-3.1h8.1v7.3c-.8.8-1.9 1.4-3.4 2-1.5.6-3 .9-4.6.9-2 0-3.7-.4-5.1-1.2-1.5-.8-2.5-2-3.3-3.5-.7-1.5-1.1-3.1-1.1-4.9 0-1.9.4-3.6 1.2-5.1.8-1.5 2-2.6 3.6-3.4 1.2-.6 2.7-.9 4.5-.9 2.3 0 4.1.5 5.4 1.4 1.3 1 2.1 2.3 2.5 4l-3.7.7c-.3-.9-.8-1.6-1.5-2.1s-1.6-.8-2.7-.8c-1.6 0-3 .5-3.9 1.5-1 1-1.5 2.6-1.5 4.6 0 2.2.5 3.8 1.5 4.9 1 1.1 2.3 1.6 3.9 1.6.8 0 1.6-.2 2.4-.5s1.5-.7 2-1.1v-2.3h-4.3zm11.6 6.8V71.6h3.7l7.6 12.3V71.6h3.5V90h-3.8l-7.5-12v12h-3.5z" fill="#fff"/><linearGradient id="c" gradientUnits="userSpaceOnUse" x1="36.1" y1="97.426" x2="36.1" y2="37.782" gradientTransform="matrix(1 0 0 -1 0 102)"><stop offset="0" stop-color="#009ade"/><stop offset="1" stop-color="#00bdf2"/></linearGradient><path d="M1.7 9.5l17.3 13 1.8-2.4L1 5.3V9l.7.5zm36 23.3l5.5-7.1-1.2-.9-6.6-5.1.7.5 8.2-10.7v-5l-10.7 14-7.1-5.5-12.9 16.6 7.1 5.4L1.1 59.9 1 64.2l22.1-27.4-.9-.7 8.1 6.1 5.5-7.1 35.4 26.6V58L37.7 32.8zm-8 5.5l-11.9-9 9.1-11.8 11.9 9-9.1 11.8z" fill="url(#c)"/></svg>