<svg xmlns="http://www.w3.org/2000/svg" viewBox="0 0 72 100"><linearGradient id="a" gradientUnits="userSpaceOnUse" x1="36.108" y1="3.003" x2="36.108" y2="101.001" gradientTransform="matrix(1 0 0 -1 0 102)"><stop offset="0" stop-color="#c8d4db"/><stop offset=".139" stop-color="#d8e1e6"/><stop offset=".359" stop-color="#ebf0f3"/><stop offset=".617" stop-color="#f9fafb"/><stop offset="1" stop-color="#fff"/></linearGradient><path d="M45.1 1L72 27.7V99H.2V1h44.9z" fill="url(#a)"/><path d="M45.1 1L72 27.7V99H.2V1h44.9z" fill-opacity="0" stroke="#7191a1" stroke-width="2"/><g transform="translate(0 -952.362)"><linearGradient id="b" gradientUnits="userSpaceOnUse" x1="37.25" y1="1015.563" x2="37.25" y2="979.162"><stop offset="0" stop-color="#adccdc"/><stop offset="1" stop-color="#4c6c7b"/></linearGradient><path d="M56.2 979.2c-3 0-2.2 3-2.8 4.4-.2.6-.6 1.4-.9 2.2l.2-.5c-.2.4-.3.6-.9.9l-4 2.4c-2.2-3.8-6.2-6.1-10.7-6.2-4.4 0-8.5 2.4-10.6 6.2l-4-2.4c-.5-.3-.7-.5-.9-.9l.2.5c-.3-.8-.7-1.6-.9-2.2-.5-1.4.3-4.4-2.8-4.4-3 0-2.5 4.1-3.4 5.7-.6 1-2.4 2-3.2 3.3-.1.1-.1.2-.1.3-.3.6-.4 1.4.1 2.2 1.5 2.6 3.7.4 5.1.2.6-.1 1.5-.1 2.4-.3l-.6.1c.4-.1.7 0 1.2.3 0 0 2.3 1.2 5.2 2.9v.7c0 2.3.7 4.5 1.9 6.5-4 2.4-7.4 4.5-7.4 4.5-.5.3-.8.4-1.2.4h.5-2.2c-1.3 0-3.2-1.7-4.9.7-1.7 2.3 1.8 3.3 2.5 4.5.7 1.2-.2 4.7 2.7 4.5 2.9-.3 2.4-2.7 3-3.9.3-.5.7-1.2 1.1-1.9l-.3.5c.2-.4.4-.5.9-.8 0 0 3.3-1.8 7.1-3.9v5.4c1 .4 2 .7 3.1.9v-2.9l1.5.3v2.9c1 .2 2.1.3 3.1.3v-2.9h1.6v2.9c1 0 2.1-.1 3.1-.3v-2.9c.5-.1 1.1-.2 1.5-.3v2.9c1.1-.2 2.1-.6 3.1-.9v-5.4c3.8 2.1 7.1 3.9 7.1 3.9.5.3.7.5.9.8.3.6.6 1.1.8 1.4.6 1.2.2 3.6 3 3.9 2.9.3 2-3.2 2.7-4.5.7-1.2 4.2-2.2 2.5-4.5-1.7-2.3-3.5-.7-4.9-.7h-2.2.5c-.4 0-.7-.1-1.2-.4 0 0-3.5-2.1-7.4-4.5 1.2-1.9 1.9-4.2 1.9-6.5v-.7c2.9-1.6 5.2-2.9 5.2-2.9.5-.3.8-.3 1.2-.3l-.6-.1c.9.1 1.8.2 2.4.3 1.4.2 3.6 2.4 5.1-.2 1.5-2.6-2.3-4.2-3.2-5.8-.6-1-.6-3.1-1.3-4.4 0-.1-.1-.2-.2-.3 0-.6-.6-1-1.6-1zm-23.5 14.2c.3 0 .5 0 .8.1 1.7.5 2.1 2 1.7 3.7-.4 1.7-2.2 2.7-3.9 2.2-1.7-.5-2.2-2-1.7-3.7.3-1.4 1.7-2.3 3.1-2.3zm9.1 0c1.4 0 2.8.9 3.1 2.3.4 1.7 0 3.3-1.7 3.7-1.7.5-3.4-.5-3.9-2.2-.4-1.7 0-3.2 1.7-3.7.3-.1.6-.1.8-.1zm-4.6 7.8c.5 0 2.5 2.6 2.3 2.9-.2.3-4.3.3-4.5 0-.2-.2 1.8-2.9 2.2-2.9z" fill="url(#b)"/></g><path d="M16.3 71.2h7.4c1.7 0 2.9.1 3.8.4 1.2.3 2.2 1 3 1.8.8.9 1.5 1.9 1.9 3.2s.7 2.8.7 4.7c0 1.6-.2 3-.6 4.2-.5 1.4-1.2 2.6-2.1 3.5-.7.7-1.6 1.2-2.8 1.6-.9.3-2.1.4-3.6.4h-7.6V71.2zm4 3.4v13.1h3c1.1 0 1.9-.1 2.4-.2.7-.2 1.2-.4 1.6-.8.4-.4.8-1 1.1-1.9s.4-2.1.4-3.6-.1-2.7-.4-3.5-.7-1.5-1.1-1.9c-.5-.5-1.1-.8-1.9-.9-.6-.1-1.7-.2-3.3-.2h-1.8zm16 16.5V71.2h4V91h-4zm6.2 0v-3.6L53 74.6h-9.3v-3.4h14.6v3.1l-11 13.4h11.4V91H42.5z" fill="#4c6c7b"/><linearGradient id="c" gradientUnits="userSpaceOnUse" x1="45.122" y1="74.229" x2="58.575" y2="87.683" gradientTransform="matrix(1 0 0 -1 0 102)"><stop offset="0" stop-color="#fff"/><stop offset=".35" stop-color="#fafbfb"/><stop offset=".532" stop-color="#edf1f4"/><stop offset=".675" stop-color="#dde5e9"/><stop offset=".799" stop-color="#c7d3da"/><stop offset=".908" stop-color="#adbdc7"/><stop offset="1" stop-color="#92a5b0"/></linearGradient><path d="M45.1 1L72 27.7H45.1V1z" fill="url(#c)"/><path d="M45.1 1L72 27.7H45.1V1z" fill-opacity="0" stroke="#7191a1" stroke-width="2" stroke-linejoin="bevel"/></svg>