<svg xmlns="http://www.w3.org/2000/svg" viewBox="0 0 72 100"><linearGradient id="a" gradientUnits="userSpaceOnUse" x1="36" y1="97" x2="36" y2="-1" gradientTransform="translate(0 2)"><stop offset="0" stop-color="#c8d4db"/><stop offset=".139" stop-color="#d8e1e6"/><stop offset=".359" stop-color="#ebf0f3"/><stop offset=".617" stop-color="#f9fafb"/><stop offset="1" stop-color="#fff"/></linearGradient><path d="M45 1l27 26.7V99H0V1h45z" fill="url(#a)"/><path d="M45 1l27 26.7V99H0V1h45z" fill-opacity="0" stroke="#7191a1" stroke-width="2"/><g transform="translate(0 -1036.362)" opacity=".9"><linearGradient id="b" gradientUnits="userSpaceOnUse" x1="36.15" y1="39.962" x2="36.15" y2="79.262" gradientTransform="matrix(1 0 0 -1 0 1136.362)"><stop offset="0" stop-color="#adccdc"/><stop offset="1" stop-color="#4c6c7b"/></linearGradient><path d="M57.2 1057.1l-19.3 2.6v15.3h19.3v-17.9zm-22.8 3l-19.3 2.6v12.3h19.3v-14.9zm-19.2 18.4v12.3l19.3 2.6v-14.8l-19.3-.1zm22.7 0v15.3l19.3 2.6v-17.9H37.9z" fill="url(#b)"/></g><linearGradient id="c" gradientUnits="userSpaceOnUse" x1="45.037" y1="25.813" x2="58.537" y2="12.313" gradientTransform="translate(0 2)"><stop offset="0" stop-color="#fff"/><stop offset=".35" stop-color="#fafbfb"/><stop offset=".532" stop-color="#edf1f4"/><stop offset=".675" stop-color="#dde5e9"/><stop offset=".799" stop-color="#c7d3da"/><stop offset=".908" stop-color="#adbdc7"/><stop offset="1" stop-color="#92a5b0"/></linearGradient><path d="M45 1l27 26.7H45V1z" fill="url(#c)"/><path d="M45 1l27 26.7H45V1z" fill-opacity="0" stroke="#7191a1" stroke-width="2" stroke-linejoin="bevel"/><path d="M11.7 71.8h7.4c1.7 0 2.9.1 3.8.4 1.2.3 2.2 1 3 1.8.8.9 1.5 2 1.9 3.2s.7 2.9.7 4.7c0 1.6-.2 3.1-.6 4.3-.5 1.5-1.2 2.6-2.1 3.5-.7.7-1.6 1.2-2.8 1.6-.9.3-2.1.4-3.6.4h-7.6l-.1-19.9zm4 3.4v13.3h3c1.1 0 1.9-.1 2.4-.2.7-.2 1.2-.4 1.6-.8s.8-1 1.1-1.9.4-2.1.4-3.7-.1-2.7-.4-3.6-.7-1.5-1.1-1.9-1.1-.8-1.9-.9c-.6-.1-1.7-.2-3.3-.2h-1.8v-.1zM32 91.9V72h4v16.5h10.1v3.4H32zm17.1 0V72h4v16.5h10.1v3.4H49.1z" fill="#4c6c7b"/></svg>