<svg xmlns="http://www.w3.org/2000/svg" viewBox="0 0 72 100"><linearGradient id="a" gradientUnits="userSpaceOnUse" x1="36" y1="97" x2="36" y2="-1" gradientTransform="translate(0 2)"><stop offset="0" stop-color="#c8d4db"/><stop offset=".139" stop-color="#d8e1e6"/><stop offset=".359" stop-color="#ebf0f3"/><stop offset=".617" stop-color="#f9fafb"/><stop offset="1" stop-color="#fff"/></linearGradient><path d="M45 1l27 26.7V99H0V1h45z" fill="url(#a)"/><path d="M45 1l27 26.7V99H0V1h45z" fill-opacity="0" stroke="#7191a1" stroke-width="2"/><linearGradient id="b" gradientUnits="userSpaceOnUse" x1="36.8" y1="61.589" x2="36.8" y2="20.333"><stop offset="0" stop-color="#adccdc"/><stop offset="1" stop-color="#4c6c7b"/></linearGradient><path d="M51.4 37.7h-2.9V32c0-6.4-5.2-11.7-11.7-11.7S25.1 25.6 25.1 32v5.7h-2.9c-1.1 0-2 .9-2 2v19.8c0 1.1.9 2 2 2h29.1c1.1 0 2-.9 2-2V39.8c.1-1.2-.8-2.1-1.9-2.1zM39.3 54.2c.2.7-.3 1.3-1 1.3h-3c-.7 0-1.2-.7-1-1.3l1-3.7c-1.1-.6-1.9-1.7-1.9-3.1 0-2 1.6-3.5 3.5-3.5s3.5 1.6 3.5 3.5c0 1.4-.8 2.6-1.9 3.1l.8 3.7zm3.3-16.5H31V32c0-3.2 2.6-5.8 5.8-5.8s5.8 2.6 5.8 5.8v5.7z" fill="url(#b)"/><linearGradient id="c" gradientUnits="userSpaceOnUse" x1="45.037" y1="25.813" x2="58.537" y2="12.313" gradientTransform="translate(0 2)"><stop offset="0" stop-color="#fff"/><stop offset=".35" stop-color="#fafbfb"/><stop offset=".532" stop-color="#edf1f4"/><stop offset=".675" stop-color="#dde5e9"/><stop offset=".799" stop-color="#c7d3da"/><stop offset=".908" stop-color="#adbdc7"/><stop offset="1" stop-color="#92a5b0"/></linearGradient><path d="M45 1l27 26.7H45V1z" fill="url(#c)"/><path d="M45 1l27 26.7H45V1z" fill-opacity="0" stroke="#7191a1" stroke-width="2" stroke-linejoin="bevel"/><path d="M9 91.9v-20h14.9v3.4H13v4.4h10.1v3.4H13v5.5h11.2V92H9zm18.7 0v-20h3.9l8.2 13.4V71.8h3.8v20h-4.1l-8.1-13.1v13.1h-3.7zm33-7.4l3.9 1.2c-.6 2.2-1.6 3.8-3 4.9-1.4 1.1-3.2 1.6-5.3 1.6-2.7 0-4.8-.9-6.6-2.7-1.7-1.8-2.6-4.3-2.6-7.5 0-3.3.9-5.9 2.6-7.8s4-2.8 6.8-2.8c2.5 0 4.4.7 6 2.2.9.9 1.6 2.1 2.1 3.7l-4 1c-.2-1-.7-1.9-1.5-2.5s-1.7-.8-2.8-.8c-1.5 0-2.7.5-3.6 1.6-.9 1.1-1.4 2.8-1.4 5.2 0 2.5.5 4.3 1.4 5.4.9 1.1 2.1 1.6 3.6 1.6 1.1 0 2-.3 2.8-1 .7-.7 1.3-1.8 1.6-3.3z" fill="#4c6c7b"/></svg>