<svg xmlns="http://www.w3.org/2000/svg" viewBox="0 0 72 100"><linearGradient id="a" gradientUnits="userSpaceOnUse" x1="36" y1="97" x2="36" y2="-1" gradientTransform="translate(0 2)"><stop offset="0" stop-color="#c8d4db"/><stop offset=".139" stop-color="#d8e1e6"/><stop offset=".359" stop-color="#ebf0f3"/><stop offset=".617" stop-color="#f9fafb"/><stop offset="1" stop-color="#fff"/></linearGradient><path d="M45 1l27 26.7V99H0V1h45z" fill="url(#a)"/><path d="M45 1l27 26.7V99H0V1h45z" stroke="#7191a1" stroke-width="2" fill="none"/><linearGradient id="b" gradientUnits="userSpaceOnUse" x1="45.037" y1="25.813" x2="58.537" y2="12.313" gradientTransform="translate(0 2)"><stop offset="0" stop-color="#fff"/><stop offset=".35" stop-color="#fafbfb"/><stop offset=".532" stop-color="#edf1f4"/><stop offset=".675" stop-color="#dde5e9"/><stop offset=".799" stop-color="#c7d3da"/><stop offset=".908" stop-color="#adbdc7"/><stop offset="1" stop-color="#92a5b0"/></linearGradient><path d="M45 1l27 26.7H45V1z" fill="url(#b)"/><path d="M45 1l27 26.7H45V1z" stroke="#7191a1" stroke-width="2" stroke-linejoin="bevel" fill="none"/><linearGradient id="c" gradientUnits="userSpaceOnUse" x1="36.2" y1="75.712" x2="36.2" y2="30.722"><stop offset="0" stop-color="#adccdc"/><stop offset="1" stop-color="#4c6c7b"/></linearGradient><path d="M57.9 51.2L38.2 31.6c-1.1-1.1-3-1.1-4.1 0l-4.1 4 5.2 5.2c1.2-.4 2.6-.1 3.5.8 1 1 1.2 2.4.8 3.6l5 5c1.2-.4 2.6-.1 3.6.8 1.3 1.3 1.3 3.5 0 4.9-1.3 1.3-3.5 1.3-4.9 0-1-1-1.3-2.5-.8-3.7l-4.7-4.7v12.2c.3.2.6.4.9.7 1.3 1.3 1.3 3.5 0 4.9-1.3 1.3-3.5 1.3-4.9 0-1.3-1.3-1.5-3.5-.1-4.9.3-.3.7-.6 1-.8V47.3c-.4-.2-.7-.4-1-.8-1-1-1.2-2.5-.7-3.8l-4.9-5-13.5 13.4c-1.1 1.1-1.1 3 0 4.1l19.6 19.6c1.1 1.1 3 1.1 4.1 0l19.6-19.6c1.2-1 1.2-2.9.1-4z" opacity=".85" fill="url(#c)"/></svg>