<svg xmlns="http://www.w3.org/2000/svg" viewBox="0 0 72 100"><linearGradient id="a" gradientUnits="userSpaceOnUse" x1="-63" y1="145.111" x2="-63" y2="243.111" gradientTransform="matrix(1 0 0 -1 99 244.111)"><stop offset="0" stop-color="#4ba0d8"/><stop offset="1" stop-color="#fefefe"/></linearGradient><path d="M0 1v98h72V27.7L45 1H0z" fill="url(#a)"/><path d="M45 1l27 26.7V99H0V1h45z" fill-opacity="0" stroke="#0099db" stroke-width="2"/><linearGradient id="b" gradientUnits="userSpaceOnUse" x1="-41.251" y1="228.997" x2="-47.006" y2="223.242" gradientTransform="matrix(1 0 0 -1 99 244.111)"><stop offset="0" stop-color="#0085c9"/><stop offset="1" stop-color="#dce9f7"/></linearGradient><path d="M45 27.7h27L45 1v26.7z" fill="url(#b)"/><path d="M45 1l27 26.7H45V1z" fill-opacity="0" stroke="#0099db" stroke-width="2" stroke-linejoin="bevel"/><linearGradient id="c" gradientUnits="userSpaceOnUse" x1="-76.5" y1="207.475" x2="-76.5" y2="234.202" gradientTransform="matrix(1 0 0 -1 99 244.111)"><stop offset="0" stop-color="#e6ebf6"/><stop offset=".005" stop-color="#e6ebf6"/><stop offset="1" stop-color="#00afee"/></linearGradient><path d="M9 36.6h27V9.9H9v26.7z" fill="url(#c)"/><linearGradient id="d" gradientUnits="userSpaceOnUse" x1="-74.935" y1="207.475" x2="-74.935" y2="231.384" gradientTransform="matrix(1 0 0 -1 99 244.111)"><stop offset="0" stop-color="#0096d8"/><stop offset=".005" stop-color="#0096d8"/><stop offset="1" stop-color="#005f8e"/></linearGradient><path d="M18.4 15.5c-4.3-2.3-6.4 1.7-6.4 1.7l4.4.3c-5 1.5-3.7 6.4-3.7 6.4l4.4-4c-1 2.2 1.2 3.8 1.2 3.8l1.3-5.4s4.7 5.3 6.1 10.7c-1.9.9-4.7 2.5-7 2.8-3.1.4-6.8 2.5-6.8 2.5v2.5h24l.1-6.5-2-1.1c-2-.2-4.5-.9-6-1-1.8-2.9-4.8-7.5-7.3-10l6.9.4c-1.9-4.4-6.6-2.8-6.6-2.8l3.2-2.7c-.7-.3-1.3-.4-1.9-.4-2.7 0-3.9 2.8-3.9 2.8" fill="url(#d)"/><linearGradient id="e" gradientUnits="userSpaceOnUse" x1="-77.513" y1="211.052" x2="-48.487" y2="182.024" gradientTransform="matrix(1 0 0 -1 99 244.111)"><stop offset="0" stop-color="#0095d6"/><stop offset="1" stop-color="#83bee7"/></linearGradient><path d="M9 49.6h54v-4.1H9v4.1z" fill="url(#e)"/><linearGradient id="f" gradientUnits="userSpaceOnUse" x1="-77.514" y1="200.526" x2="-48.486" y2="171.498" gradientTransform="matrix(1 0 0 -1 99 244.111)"><stop offset="0" stop-color="#0095d6"/><stop offset="1" stop-color="#83bee7"/></linearGradient><path d="M9 60.1h54V56H9v4.1z" fill="url(#f)"/><linearGradient id="g" gradientUnits="userSpaceOnUse" x1="-77.514" y1="189.999" x2="-48.486" y2="160.971" gradientTransform="matrix(1 0 0 -1 99 244.111)"><stop offset="0" stop-color="#0095d6"/><stop offset="1" stop-color="#83bee7"/></linearGradient><path d="M9 70.7h54v-4.1H9v4.1z" fill="url(#g)"/><linearGradient id="h" gradientUnits="userSpaceOnUse" x1="-77.514" y1="179.472" x2="-48.486" y2="150.443" gradientTransform="matrix(1 0 0 -1 99 244.111)"><stop offset="0" stop-color="#0093d6"/><stop offset="1" stop-color="#66b4e3"/></linearGradient><path d="M9 81.2h54v-4.1H9v4.1z" fill="url(#h)"/><linearGradient id="i" gradientUnits="userSpaceOnUse" x1="-77.513" y1="168.945" x2="-48.487" y2="139.917" gradientTransform="matrix(1 0 0 -1 99 244.111)"><stop offset="0" stop-color="#0087cb"/><stop offset="1" stop-color="#4aa6dc"/></linearGradient><path d="M9 91.7h54v-4.1H9v4.1z" fill="url(#i)"/></svg>