<svg id="Layer_1" xmlns="http://www.w3.org/2000/svg" viewBox="0 0 72 100"><style>.st0{opacity:.98}</style><g class="st0"><linearGradient id="SVGID_1_" gradientUnits="userSpaceOnUse" x1="36" y1="2.88" x2="36" y2="101.125" gradientTransform="matrix(1 0 0 -1 0 102)"><stop offset="0" stop-color="#efc402"/><stop offset=".038" stop-color="#f1c829"/><stop offset=".147" stop-color="#f4d264"/><stop offset=".258" stop-color="#f7dc8b"/><stop offset=".372" stop-color="#f9e5ac"/><stop offset=".488" stop-color="#fbecc7"/><stop offset=".606" stop-color="#fcf3dd"/><stop offset=".728" stop-color="#fef9ee"/><stop offset=".856" stop-color="#fffdf9"/><stop offset="1" stop-color="#fff"/></linearGradient><path d="M44.9.9l26.8 26.8v71.5H.2V.9h44.7z" fill="url(#SVGID_1_)"/><path d="M44.9.9l26.8 26.8v71.5H.2V.9h44.7z" fill-opacity="0" stroke="#ba9c02" stroke-width="2"/></g><path d="M17.2 72.3h4v12.6c0 1.6-.1 2.9-.4 3.8-.4 1.2-1.1 2.1-2.1 2.8-1 .7-2.4 1.1-4 1.1-2 0-3.5-.5-4.5-1.6-1.2-1.2-1.7-2.9-1.7-5l3.8-.4c0 1.1.2 1.9.5 2.4.4.7 1.1 1.1 2 1.1.9 0 1.5-.3 1.9-.8.4-.5.6-1.6.6-3.2V72.3zm26.3 19.9h-4.4l-1.7-4.5h-8l-1.6 4.5h-4.3l7.8-19.9h4.2l8 19.9zm-7.4-7.9l-2.7-7.4-2.7 7.4h5.4zm9.5 7.9V72.3h8.5c2.1 0 3.7.2 4.6.5s1.7 1 2.3 1.9c.6.9.9 2 .9 3.1 0 1.5-.4 2.7-1.3 3.7s-2.2 1.6-3.9 1.8c.9.5 1.6 1.1 2.2 1.7.6.6 1.3 1.7 2.3 3.2l2.4 3.9h-4.8l-2.9-4.3c-1-1.5-1.7-2.5-2.1-2.9s-.8-.7-1.2-.8c-.4-.1-1.1-.2-2-.2h-.8v8.3h-4.2zm4-11.5h3c1.9 0 3.1-.1 3.6-.2s.9-.4 1.1-.8c.3-.4.4-.9.4-1.5 0-.7-.2-1.2-.5-1.6-.4-.4-.9-.7-1.5-.8-.3 0-1.3-.1-2.9-.1h-3.1v5z" fill="#a07802"/><g class="st0"><linearGradient id="SVGID_2_" gradientUnits="userSpaceOnUse" x1="44.942" y1="74.326" x2="58.348" y2="87.733" gradientTransform="matrix(1 0 0 -1 0 102)"><stop offset=".005" stop-color="#fff"/><stop offset=".234" stop-color="#fffefb"/><stop offset=".369" stop-color="#fefaf1"/><stop offset=".481" stop-color="#fdf5e4"/><stop offset=".579" stop-color="#fcf0d2"/><stop offset=".669" stop-color="#fae9bc"/><stop offset=".752" stop-color="#f9e2a2"/><stop offset=".831" stop-color="#f7da83"/><stop offset=".905" stop-color="#f4d15d"/><stop offset=".975" stop-color="#f1c827"/><stop offset="1" stop-color="#efc402"/></linearGradient><path d="M44.9.9l26.8 26.8H44.9V.9z" fill="url(#SVGID_2_)"/><path d="M44.9.9l26.8 26.8H44.9V.9z" fill-opacity="0" stroke="#ba9c02" stroke-width="2" stroke-linejoin="bevel"/></g><linearGradient id="SVGID_3_" gradientUnits="userSpaceOnUse" x1="33.617" y1="40.689" x2="33.617" y2="98.148" gradientTransform="matrix(1 0 0 -1 0 102)"><stop offset=".005" stop-color="#a47d03"/><stop offset=".533" stop-color="#debe00"/><stop offset=".639" stop-color="#cfad04"/><stop offset="1" stop-color="#a07802"/></linearGradient><path d="M38 15.8h-8.4v-5H38v5zm0 8.9h-8.4v5H38v-5zm0-20.8h-8.4v5H38v-5zm0 13.8h-8.4v5H38v-5zm0 13.9h-8.4v5H38v-5zm.7 24.6c0 2.8-2.3 5.1-5.1 5.1s-5.1-2.3-5.1-5.1v-.5l1.7-14.6c0-1.9 1.5-3.4 3.4-3.4 1.8 0 3.3 1.5 3.4 3.3l1.6 14.4c.1.4.1.6.1.8zm-1.6-.1c0-1.9-1.6-3.5-3.5-3.5s-3.5 1.6-3.5 3.5 1.6 3.5 3.5 3.5c2-.1 3.5-1.7 3.5-3.5z" opacity=".98" fill="url(#SVGID_3_)"/><path d="M32.5 41.6l-2.3-4.5v-2.3l2.3-2.2h2.2l2.3 2.2v2.3l-2.3 4.5h-2.2z" fill="#fff" opacity=".98"/></svg>