<svg xmlns="http://www.w3.org/2000/svg" viewBox="0 0 72 100"><linearGradient id="a" gradientUnits="userSpaceOnUse" x1="486.311" y1="644.112" x2="486.31" y2="742.085" gradientTransform="matrix(1 0 0 -1 -450.061 743.109)"><stop offset="0" stop-color="#742d2d"/><stop offset=".005" stop-color="#827100"/><stop offset="1" stop-color="#ffee91"/></linearGradient><path d="M45.3 1l27.1 26.7V99H.1V1h45.2z" fill="url(#a)"/><path d="M45.3 1l27.1 26.7V99H.1V1h45.2z" fill-opacity="0" stroke="#827100" stroke-width="2"/><path d="M16.5 91.6V76.1h3.2V89h7.9v2.6H16.5zm13.4 0V76h11.7v2.6h-8.5v3.5H41v2.6h-7.9V89h8.8v2.6h-12zm13.1 0l5.4-8.1-4.9-7.5h3.7l3.2 5 3.1-5h3.7l-4.9 7.6 5.4 8h-3.8l-3.5-5.4-3.5 5.4H43z" fill="#fefefe"/><linearGradient id="b" gradientUnits="userSpaceOnUse" x1="495.437" y1="715.271" x2="508.982" y2="728.818" gradientTransform="matrix(1 0 0 -1 -450.061 743.109)"><stop offset="0" stop-color="#feea86"/><stop offset="1" stop-color="#867200"/></linearGradient><path d="M45.3 1l27.1 26.7H45.3V1z" fill="url(#b)"/><path d="M45.3 1l27.1 26.7H45.3V1z" fill-opacity="0" stroke="#827100" stroke-width="2" stroke-linejoin="round"/><linearGradient id="c" gradientUnits="userSpaceOnUse" x1="23.925" y1="57.728" x2="23.925" y2="23.1"><stop offset="0" stop-color="#aa9400"/><stop offset="1" stop-color="#564a00"/></linearGradient><linearGradient id="d" gradientUnits="userSpaceOnUse" x1="23.882" y1="58.267" x2="23.882" y2="22.725"><stop offset="0" stop-color="#aa9400"/><stop offset="1" stop-color="#564a00"/></linearGradient><path d="M34.9 48.6c-3.5-3.4-6.6-6.5-8.4-13.4h12.3V30H26.6v-6.9h-5.3v7H9v5.2h12.6s-.1 1-.3 1.8C19.6 43.9 17.5 48.3 9 52.5l1.8 5.2c8-4.3 12.2-9.6 14.1-15.6 1.8 4.5 4.8 8.2 8.2 11.6l1.8-5.1z" fill="url(#c)" stroke="url(#d)" stroke-width=".75" stroke-miterlimit="10"/><linearGradient id="e" gradientUnits="userSpaceOnUse" x1="47.653" y1="66.365" x2="47.653" y2="31.736"><stop offset="0" stop-color="#aa9400"/><stop offset="1" stop-color="#564a00"/></linearGradient><linearGradient id="f" gradientUnits="userSpaceOnUse" x1="47.653" y1="66.74" x2="47.653" y2="31.361"><stop offset="0" stop-color="#aa9400"/><stop offset="1" stop-color="#564a00"/></linearGradient><path d="M51.2 31.7h-7L31.8 66.4h5.3L40.6 56h14.1l3.5 10.4h5.3L51.2 31.7zm-8.8 19.1L47.7 37 53 50.9l-10.6-.1z" fill="url(#e)" stroke="url(#f)" stroke-width=".75" stroke-miterlimit="10"/></svg>