<svg id="Layer_1" xmlns="http://www.w3.org/2000/svg" viewBox="0 0 72 100"><style>.st3{fill:#fff}</style><linearGradient id="SVGID_1_" gradientUnits="userSpaceOnUse" x1="36.2" y1="3.005" x2="36.2" y2="101" gradientTransform="matrix(1 0 0 -1 0 102)"><stop offset=".029" stop-color="#235427"/><stop offset=".462" stop-color="#4eb056"/><stop offset=".998" stop-color="#64d66d"/></linearGradient><path d="M45.2 1l26.9 26.7V99H.3V1h44.9z" fill="url(#SVGID_1_)"/><linearGradient id="SVGID_2_" gradientUnits="userSpaceOnUse" x1=".325" y1="49.997" x2="72.075" y2="49.997"><stop offset=".005" stop-color="#077265"/><stop offset=".343" stop-color="#006a69"/><stop offset="1" stop-color="#003836"/></linearGradient><path d="M45.2 1l26.9 26.7V99H.3V1h44.9z" fill="url(#SVGID_2_)" fill-opacity="0" stroke="#235427" stroke-width="2"/><path class="st3" d="M7.2 91.1V71.2h6l3.6 13.5 3.6-13.5h6V91h-3.7V75.4l-4 15.6h-3.9l-4-15.6V91H7.2zm23.3 0V71.2H37c2.5 0 4.1.1 4.8.3 1.1.3 2.1.9 2.9 1.9.8 1 1.2 2.3 1.2 3.9 0 1.2-.2 2.2-.7 3.1-.4.8-1 1.5-1.7 2s-1.4.8-2.1.9c-1 .2-2.4.3-4.2.3h-2.6v7.5h-4.1zm4-16.5v5.6h2.2c1.6 0 2.7-.1 3.2-.3.5-.2 1-.5 1.3-1 .3-.4.5-1 .5-1.5 0-.7-.2-1.3-.6-1.8-.4-.5-1-.8-1.6-.9-.5-.1-1.4-.1-2.9-.1h-2.1zm14.6-3.4h7.4c1.7 0 2.9.1 3.8.4 1.2.3 2.2 1 3 1.8s1.5 1.9 1.9 3.2c.4 1.3.7 2.8.7 4.7 0 1.6-.2 3-.6 4.2-.5 1.4-1.2 2.6-2.1 3.5-.7.7-1.6 1.2-2.8 1.6-.9.3-2.1.4-3.6.4h-7.6V71.2zm4 3.4v13.1h3c1.1 0 1.9-.1 2.4-.2.7-.2 1.2-.4 1.6-.8.4-.4.8-1 1.1-1.9.3-.9.4-2.1.4-3.6s-.1-2.7-.4-3.5c-.3-.8-.7-1.5-1.1-1.9-.5-.5-1.1-.8-1.9-.9-.6-.1-1.7-.2-3.3-.2h-1.8z"/><linearGradient id="SVGID_3_" gradientUnits="userSpaceOnUse" x1="27.846" y1="19.2" x2="27.846" y2="62"><stop offset="0" stop-color="#235427"/><stop offset="1" stop-color="#44984b"/></linearGradient><path d="M15.1 24l25.5-4.8V62l-25.5-4.7z" fill="url(#SVGID_3_)"/><linearGradient id="SVGID_4_" gradientUnits="userSpaceOnUse" x1="47.578" y1="23.543" x2="47.578" y2="57.846"><stop offset="0" stop-color="#235427"/><stop offset="1" stop-color="#44984b"/></linearGradient><path d="M58.4 57.8H36.8c-1.1 0-1.9-.9-1.9-1.9V25.4c0-1.1.9-1.9 1.9-1.9h21.7c1.1 0 1.9.9 1.9 1.9V56c-.1 1-.9 1.8-2 1.8zM36.8 25.2c-.1 0-.2.1-.2.2V56c0 .1.1.2.2.2h21.7c.1 0 .2-.1.2-.2V25.4c0-.1-.1-.2-.2-.2H36.8z" fill="url(#SVGID_4_)"/><linearGradient id="SVGID_5_" gradientUnits="userSpaceOnUse" x1="47.169" y1="29.271" x2="47.169" y2="42.173"><stop offset="0" stop-color="#235427"/><stop offset="1" stop-color="#44984b"/></linearGradient><path d="M55.3 42.2h-2.9v-10H39.1v-2.9h16.2z" fill="url(#SVGID_5_)"/><linearGradient id="SVGID_6_" gradientUnits="userSpaceOnUse" x1="53.651" y1="39.026" x2="53.651" y2="44.691"><stop offset="0" stop-color="#235427"/><stop offset="1" stop-color="#44984b"/></linearGradient><path d="M53.7 44.7L48.6 39h10.1z" fill="url(#SVGID_6_)"/><linearGradient id="SVGID_7_" gradientUnits="userSpaceOnUse" x1="45.975" y1="42.182" x2="45.975" y2="53.131"><stop offset="0" stop-color="#235427"/><stop offset="1" stop-color="#44984b"/></linearGradient><path d="M40.5 47.7l5.5-5.5 5.4 5.5-5.4 5.4z" fill="url(#SVGID_7_)"/><path class="st3" d="M31 34.1c-.4-.4-1-.8-1.7-.9-.6-.2-1.4-.2-2.1-.2-1.4.1-4 .3-4 .3l-.1 13.9 2.6.2v-4.9s1.5.2 2.9-.1c.8-.2 1.4-.6 1.8-.9.4-.4.8-1 1.1-1.4.4-.7.5-1.4.5-2.5.2-1.5-.2-2.7-1-3.5zM28.9 39c-.5 1.1-1.8 1.1-1.8 1.1h-1.3v-4.4s.9-.1 1.7 0c.4.1.8.2.9.3.7.5 1 2 .5 3z"/><linearGradient id="SVGID_8_" gradientUnits="userSpaceOnUse" x1="45.214" y1="74.229" x2="58.667" y2="87.682" gradientTransform="matrix(1 0 0 -1 0 102)"><stop offset=".484" stop-color="#ccf8d2"/><stop offset=".931" stop-color="#429b4e"/><stop offset=".998" stop-color="#2d7136"/></linearGradient><path d="M45.2 1l26.9 26.7H45.2V1z" fill="url(#SVGID_8_)"/><path d="M45.2 1l26.9 26.7H45.2V1z" fill-opacity="0" stroke="#235427" stroke-width="2" stroke-linejoin="bevel"/></svg>