<svg xmlns="http://www.w3.org/2000/svg" viewBox="0 0 72 100"><linearGradient id="a" gradientUnits="userSpaceOnUse" x1="36" y1="3.005" x2="36" y2="101" gradientTransform="matrix(1 0 0 -1 0 102)"><stop offset=".005" stop-color="#002d44"/><stop offset=".056" stop-color="#013852"/><stop offset=".16" stop-color="#0a4d6b"/><stop offset=".274" stop-color="#0f5e82"/><stop offset=".398" stop-color="#0f6d96"/><stop offset=".539" stop-color="#0d77a4"/><stop offset=".711" stop-color="#0a7eae"/><stop offset="1" stop-color="#0881b2"/></linearGradient><path d="M45 1l27 26.7V99H0V1h45z" fill="url(#a)"/><path d="M45 1l27 26.7V99H0V1h45z" fill-opacity="0" stroke="#01415e" stroke-width="2"/><path d="M8.8 81.3c0-2 .3-3.7.9-5.1.5-1 1.1-1.9 1.9-2.7.8-.8 1.7-1.4 2.6-1.8 1.2-.5 2.7-.8 4.3-.8 3 0 5.3.9 7.1 2.7 1.8 1.8 2.7 4.3 2.7 7.6 0 3.2-.9 5.7-2.6 7.5-1.8 1.8-4.1 2.7-7.1 2.7s-5.4-.9-7.1-2.7c-1.8-1.8-2.7-4.3-2.7-7.4zm4.2-.2c0 2.2.5 4 1.6 5.1 1 1.2 2.4 1.7 4 1.7s2.9-.6 4-1.7c1-1.2 1.6-2.9 1.6-5.2 0-2.3-.5-4-1.5-5.1-1-1.1-2.3-1.7-4-1.7s-3 .6-4 1.7c-1.2 1.2-1.7 2.9-1.7 5.2zm22.9 10V74.6H30v-3.4h15.9v3.4H40v16.5h-4.1zm17.1 0V74.6h-5.9v-3.4H63v3.4h-5.9v16.5H53z" fill="#fff"/><linearGradient id="b" gradientUnits="userSpaceOnUse" x1="45.069" y1="74.205" x2="58.569" y2="87.705" gradientTransform="matrix(1 0 0 -1 0 102)"><stop offset=".005" stop-color="#dff1fa"/><stop offset=".3" stop-color="#dceef7"/><stop offset=".443" stop-color="#d3e4ef"/><stop offset=".553" stop-color="#c4d6e3"/><stop offset=".647" stop-color="#b1c5d5"/><stop offset=".73" stop-color="#9ab0c5"/><stop offset=".805" stop-color="#819ab3"/><stop offset=".875" stop-color="#64829f"/><stop offset=".938" stop-color="#426c8c"/><stop offset=".998" stop-color="#06577a"/><stop offset="1" stop-color="#015679"/></linearGradient><path d="M45 1l27 26.7H45V1z" fill="url(#b)"/><path d="M45 1l27 26.7H45V1z" fill-opacity="0" stroke="#01415e" stroke-width="2" stroke-linejoin="bevel"/><path d="M39.2 34h1.9c2.8.2 5.1.9 7.3 1.8 4.2-1.9 10.3-.4 14 1-4.8-.5-10.5 0-13.8 1.9C45.3 36 39 35.3 33.1 36c1.7-1.1 3.7-1.8 6.1-2zm-1.4 7.3c-3.4.2-6.2 1.3-8.1 2.9-5.7-2.6-15.5-1.5-19.2 2-.3.2-.7.5-.6.8 3.2-1 7.1-1.8 11.2-1.5 4 .3 7 1.7 9.3 3.5 4.1-3.7 10.2-5.8 17.9-5.7-2.7-1.3-6.6-2.3-10.5-2z"/></svg>