<svg xmlns="http://www.w3.org/2000/svg" viewBox="0 0 72 100"><linearGradient id="a" gradientUnits="userSpaceOnUse" x1="36.1" y1="97" x2="36.1" y2="-1" gradientTransform="translate(0 2)"><stop offset="0" stop-color="#c8d4db"/><stop offset=".139" stop-color="#d8e1e6"/><stop offset=".359" stop-color="#ebf0f3"/><stop offset=".617" stop-color="#f9fafb"/><stop offset="1" stop-color="#fff"/></linearGradient><path d="M45.1 1L72 27.7V99H.2V1h44.9z" fill="url(#a)"/><path d="M45.1 1L72 27.7V99H.2V1h44.9z" fill-opacity="0" stroke="#7191a1" stroke-width="2"/><path d="M13.1 91.1V71.2h6.5c2.5 0 4.1.1 4.8.3 1.1.3 2.1.9 2.9 1.9s1.2 2.3 1.2 3.9c0 1.2-.2 2.2-.7 3.1-.4.8-1 1.5-1.7 2s-1.4.8-2.1.9c-1 .2-2.4.3-4.2.3h-2.6v7.5h-4.1zm4-16.5v5.6h2.2c1.6 0 2.7-.1 3.2-.3.5-.2 1-.5 1.3-1 .3-.4.5-1 .5-1.5 0-.7-.2-1.3-.6-1.8s-1-.8-1.6-.9c-.5-.1-1.4-.1-2.9-.1h-2.1zm13.6 10l3.9-.4c.2 1.3.7 2.3 1.4 2.9s1.7.9 2.9.9c1.3 0 2.3-.3 2.9-.8.7-.5 1-1.2 1-1.9 0-.5-.1-.9-.4-1.2-.3-.3-.8-.6-1.5-.9-.5-.2-1.5-.5-3.2-.9-2.2-.5-3.7-1.2-4.6-2-1.2-1.1-1.8-2.4-1.8-4 0-1 .3-2 .9-2.8.6-.9 1.4-1.5 2.5-2s2.4-.7 3.9-.7c2.5 0 4.4.5 5.7 1.6s1.9 2.5 2 4.4l-4 .2c-.2-1-.5-1.8-1.1-2.2-.6-.4-1.4-.7-2.6-.7-1.2 0-2.1.2-2.8.7-.4.3-.6.7-.6 1.2s.2.9.6 1.2c.5.4 1.7.9 3.7 1.3 2 .5 3.4.9 4.4 1.4.9.5 1.7 1.2 2.2 2s.8 1.9.8 3.2c0 1.1-.3 2.2-1 3.2-.6 1-1.5 1.7-2.7 2.2s-2.6.7-4.3.7c-2.5 0-4.5-.6-5.8-1.7-1.3-1-2.1-2.7-2.4-4.9zm28.6 6.5h-3.8V76.7c-1.4 1.3-3 2.3-4.9 2.9v-3.5c1-.3 2.1-.9 3.3-1.8s2-2 2.4-3.2h3.1l-.1 20z" fill="#4c6c7b"/><linearGradient id="b" gradientUnits="userSpaceOnUse" x1="10.211" y1="59.05" x2="63.211" y2="59.05" gradientTransform="matrix(1 0 0 -1 0 100)"><stop offset="0" stop-color="#adccdc"/><stop offset="1" stop-color="#4c6c7b"/></linearGradient><path d="M40.9 23.1H57c3.3 0 4.1 1.1 3.5 4.2-2 9.1-4.1 18.4-6.2 27.5-.7 2.9-2.1 4.1-5.3 4.1H16.7c-3.5 0-4.5-1.2-3.6-4.5 2.1-9 4.1-17.9 6.2-27.1.8-3.5 2-4.4 5.5-4.4 5.4.2 10.7.2 16.1.2z" fill="none" stroke="url(#b)" stroke-width="5" stroke-miterlimit="10"/><linearGradient id="c" gradientUnits="userSpaceOnUse" x1="22.314" y1="59.053" x2="39.897" y2="59.053" gradientTransform="matrix(1 0 0 -1 0 100)"><stop offset="0" stop-color="#adccdc"/><stop offset="1" stop-color="#4c6c7b"/></linearGradient><path d="M34.9 40.9c-.6-.6-.9-1.1-1.2-1.4-2.1-2.2-3.8-4.4-5.9-6.5-.9-1-1.2-2-.1-3 1.1-1 2.1-.9 3.2.3 2.8 3.2 5.6 6.2 8.4 9.2 1.1 1.2.8 1.9-.4 2.8-4.5 3.3-8.9 6.5-13.3 9.8-1 .7-2 .9-2.8-.2-.9-1.2-.1-1.9.9-2.6 3.4-2.4 6.5-4.9 9.9-7.3.3-.3 1-.8 1.3-1.1z" fill="url(#c)"/><linearGradient id="d" gradientUnits="userSpaceOnUse" x1="36.72" y1="49.886" x2="47.492" y2="49.886" gradientTransform="matrix(1 0 0 -1 0 100)"><stop offset="0" stop-color="#adccdc"/><stop offset="1" stop-color="#4c6c7b"/></linearGradient><path d="M38.1 51.8c-.9 0-1.4-.8-1.4-1.7 0-.8.6-1.7 1.4-1.7H46c.9 0 1.4.8 1.4 1.7 0 .8-.6 1.7-1.4 1.7h-7.9z" fill="url(#d)"/><linearGradient id="e" gradientUnits="userSpaceOnUse" x1="45.126" y1="25.774" x2="58.575" y2="12.325" gradientTransform="translate(0 2)"><stop offset="0" stop-color="#fff"/><stop offset=".35" stop-color="#fafbfb"/><stop offset=".532" stop-color="#edf1f4"/><stop offset=".675" stop-color="#dde5e9"/><stop offset=".799" stop-color="#c7d3da"/><stop offset=".908" stop-color="#adbdc7"/><stop offset="1" stop-color="#92a5b0"/></linearGradient><path d="M45.1 1L72 27.7H45.1V1z" fill="url(#e)"/><path d="M45.1 1L72 27.7H45.1V1z" fill-opacity="0" stroke="#7191a1" stroke-width="2" stroke-linejoin="bevel"/></svg>