<svg id="Layer_1" xmlns="http://www.w3.org/2000/svg" viewBox="0 0 72 100"><style>.st0{opacity:.99}</style><g class="st0"><linearGradient id="SVGID_1_" gradientUnits="userSpaceOnUse" x1="36.2" y1="3.005" x2="36.2" y2="101" gradientTransform="matrix(1 0 0 -1 0 102)"><stop offset="0" stop-color="#006b69"/><stop offset=".124" stop-color="#00807f"/><stop offset=".262" stop-color="#009393"/><stop offset=".41" stop-color="#00a3a3"/><stop offset=".571" stop-color="#00b0af"/><stop offset=".752" stop-color="#08b8b7"/><stop offset="1" stop-color="#14bbbb"/></linearGradient><path d="M45.2 1l26.9 26.7V99H.3V1h44.9z" fill="url(#SVGID_1_)"/><path d="M45.2 1l26.9 26.7V99H.3V1h44.9z" fill-opacity="0" stroke="#006e6c" stroke-width="2"/></g><path d="M10.6 91.1V71.2H17c2.5 0 4.1.1 4.8.3 1.1.3 2.1.9 2.9 1.9.8 1 1.2 2.3 1.2 3.9 0 1.2-.2 2.2-.7 3.1-.4.8-1 1.5-1.7 2s-1.4.8-2.1.9c-1 .2-2.4.3-4.2.3h-2.6v7.5h-4zm4-16.5v5.6h2.2c1.6 0 2.7-.1 3.2-.3.5-.2 1-.5 1.3-1 .3-.4.5-1 .5-1.5 0-.7-.2-1.3-.6-1.8-.4-.5-1-.8-1.6-.9-.5-.1-1.4-.1-2.9-.1h-2.1zm13.6 10l3.9-.4c.2 1.3.7 2.3 1.4 2.9.7.6 1.7.9 2.9.9 1.3 0 2.3-.3 2.9-.8.7-.5 1-1.2 1-1.9 0-.5-.1-.9-.4-1.2-.3-.3-.8-.6-1.5-.9-.5-.2-1.5-.5-3.2-.9-2.2-.5-3.7-1.2-4.6-2-1.2-1.1-1.8-2.4-1.8-4 0-1 .3-2 .9-2.8.6-.9 1.4-1.5 2.5-2s2.4-.7 3.9-.7c2.5 0 4.4.5 5.7 1.6s1.9 2.5 2 4.4l-4 .2c-.2-1-.5-1.8-1.1-2.2-.6-.4-1.4-.7-2.6-.7-1.2 0-2.1.2-2.8.7-.4.3-.6.7-.6 1.2s.2.9.6 1.2c.5.4 1.7.9 3.7 1.3s3.4.9 4.4 1.4c.9.5 1.7 1.2 2.2 2s.8 1.9.8 3.2c0 1.1-.3 2.2-1 3.2-.6 1-1.5 1.7-2.7 2.2s-2.6.7-4.3.7c-2.5 0-4.5-.6-5.8-1.7-1.4-1-2.2-2.7-2.4-4.9zm19.6 6.5V71.2h6.5c2.5 0 4.1.1 4.8.3 1.1.3 2.1.9 2.9 1.9s1.2 2.3 1.2 3.9c0 1.2-.2 2.2-.7 3.1-.4.8-1 1.5-1.7 2s-1.4.8-2.1.9c-1 .2-2.4.3-4.2.3h-2.6v7.5h-4.1zm4-16.5v5.6H54c1.6 0 2.7-.1 3.2-.3.5-.2 1-.5 1.3-1 .3-.4.5-1 .5-1.5 0-.7-.2-1.3-.6-1.8-.4-.5-1-.8-1.6-.9-.5-.1-1.4-.1-2.9-.1h-2.1z" fill="#fff"/><g class="st0"><linearGradient id="SVGID_2_" gradientUnits="userSpaceOnUse" x1="45.214" y1="74.229" x2="58.667" y2="87.682" gradientTransform="matrix(1 0 0 -1 0 102)"><stop offset="0" stop-color="#d6ede8"/><stop offset=".297" stop-color="#d3ebe6"/><stop offset=".44" stop-color="#c7e3df"/><stop offset=".551" stop-color="#b7d8d5"/><stop offset=".645" stop-color="#a0cbc9"/><stop offset=".729" stop-color="#84bab9"/><stop offset=".804" stop-color="#62a7a7"/><stop offset=".874" stop-color="#349394"/><stop offset=".938" stop-color="#007f7f"/><stop offset=".998" stop-color="#006b6a"/><stop offset="1" stop-color="#006b69"/></linearGradient><path d="M45.2 1l26.9 26.7H45.2V1z" fill="url(#SVGID_2_)"/><path d="M45.2 1l26.9 26.7H45.2V1z" fill-opacity="0" stroke="#006e6c" stroke-width="2" stroke-linejoin="bevel"/></g><linearGradient id="SVGID_3_" gradientUnits="userSpaceOnUse" x1="36.25" y1="37.353" x2="36.25" y2="85.161" gradientTransform="matrix(1 0 0 -1 0 102)"><stop offset=".005" stop-color="#008281"/><stop offset=".343" stop-color="#006a69"/><stop offset="1" stop-color="#003836"/></linearGradient><path d="M62.7 56.8c-1.6-.8-4.6-6.6-9.2-7-4-.3-9.1-1.8-11.9-2-3.5-5.8-9.5-15-14.5-19.9l13.8.7C37.2 19.8 27.7 23 27.7 23l6.4-5.3c-8.2-3.3-11.6 4.7-11.6 4.7-8.5-4.7-12.9 3.3-12.9 3.3l8.8.6C8.4 29.1 11.2 39 11.2 39l8.9-8c-1.9 4.4 2.3 7.5 2.3 7.5L25 27.7s9.3 10.6 12.2 21.4c-3.7 1.9-9.5 5-14 5.6-6.2.8-13.5 5-13.5 5v4.9h53.1l-.1-7.8z" opacity=".99" fill="url(#SVGID_3_)"/></svg>