<svg xmlns="http://www.w3.org/2000/svg" viewBox="0 0 72 100"><linearGradient id="a" gradientUnits="userSpaceOnUse" x1="36.2" y1="3.005" x2="36.2" y2="101" gradientTransform="matrix(1 0 0 -1 0 102)"><stop offset="0" stop-color="#006b69"/><stop offset=".124" stop-color="#00807f"/><stop offset=".262" stop-color="#009393"/><stop offset=".41" stop-color="#00a3a3"/><stop offset=".571" stop-color="#00b0af"/><stop offset=".752" stop-color="#08b8b7"/><stop offset="1" stop-color="#14bbbb"/></linearGradient><path d="M45.2 1l26.9 26.7V99H.3V1h44.9z" fill="url(#a)"/><linearGradient id="b" gradientUnits="userSpaceOnUse" x1=".325" y1="49.997" x2="72.075" y2="49.997"><stop offset=".005" stop-color="#077265"/><stop offset=".343" stop-color="#006a69"/><stop offset="1" stop-color="#003836"/></linearGradient><path d="M45.2 1l26.9 26.7V99H.3V1h44.9z" fill="url(#b)" fill-opacity="0" stroke="#006e6c" stroke-width="2"/><path d="M8.8 91.1V71.2h6.5c2.5 0 4.1.1 4.8.3 1.1.3 2.1.9 2.9 1.9.8 1 1.2 2.3 1.2 3.9 0 1.2-.2 2.2-.7 3.1-.4.8-1 1.5-1.7 2s-1.4.8-2.1.9c-1 .2-2.4.3-4.2.3h-2.6v7.5H8.8zm4-16.5v5.6H15c1.6 0 2.7-.1 3.2-.3.5-.2 1-.5 1.3-1 .3-.4.5-1 .5-1.5 0-.7-.2-1.3-.6-1.8-.4-.5-1-.8-1.6-.9-.5-.1-1.4-.1-2.9-.1h-2.1zm14.6-3.4h4V82c0 1.7 0 2.8.1 3.3.2.8.6 1.5 1.2 2s1.5.7 2.7.7c1.1 0 2-.2 2.6-.7.6-.5.9-1 1-1.7s.2-1.8.2-3.4v-11h4v10.4c0 2.4-.1 4.1-.3 5-.2 1-.6 1.8-1.2 2.5s-1.4 1.2-2.4 1.6-2.3.6-3.8.6c-1.9 0-3.4-.2-4.3-.7s-1.8-1-2.3-1.7-.9-1.4-1.1-2.2c-.3-1.1-.4-2.8-.4-5V71.2zm20.1 0h8c1.6 0 2.8.1 3.5.2.8.1 1.5.4 2.1.8s1.1 1 1.5 1.7c.4.7.6 1.5.6 2.3 0 .9-.3 1.8-.8 2.6s-1.2 1.4-2 1.7c1.2.4 2.2 1 2.8 1.8.7.8 1 1.8 1 3 0 .9-.2 1.8-.6 2.6-.4.9-1 1.5-1.7 2s-1.6.8-2.7.9c-.7.1-2.3.1-4.9.1h-6.8V71.2zm4.1 3.3v4.6h2.6c1.6 0 2.5 0 2.9-.1.7-.1 1.2-.3 1.6-.7.4-.4.6-.9.6-1.5s-.2-1.1-.5-1.5c-.3-.4-.8-.6-1.5-.7-.4 0-1.5-.1-3.4-.1h-2.3zm0 7.9v5.3h3.7c1.5 0 2.4 0 2.8-.1.6-.1 1.1-.4 1.5-.8.4-.4.6-1 .6-1.7 0-.6-.1-1.1-.4-1.5-.3-.4-.7-.7-1.3-.9-.5-.2-1.7-.3-3.6-.3h-3.3z" fill="#fff"/><linearGradient id="c" gradientUnits="userSpaceOnUse" x1="28.032" y1="41.413" x2="28.032" y2="31.378"><stop offset=".005" stop-color="#008281"/><stop offset=".343" stop-color="#006a69"/><stop offset="1" stop-color="#003836"/></linearGradient><path d="M31.1 36.2c0-3.2-1.6-4.8-4-4.8-1 0-1.7.1-2.1.3v9.5c.5.2 1.1.3 1.8.3 2.7-.1 4.3-1.9 4.3-5.3z" fill="url(#c)"/><linearGradient id="d" gradientUnits="userSpaceOnUse" x1="28.03" y1="62" x2="28.03" y2="19.292"><stop offset=".005" stop-color="#008281"/><stop offset=".343" stop-color="#006a69"/><stop offset="1" stop-color="#003836"/></linearGradient><path d="M15 55.3L41.1 62V19.3L15 26v29.3zm7.8-26c1.1-.3 2.5-.5 4.2-.5 2.2 0 3.8.7 4.8 2 .9 1.2 1.5 2.9 1.5 5.1 0 2.2-.5 4-1.3 5.2-1.2 1.8-3.1 2.7-5.2 2.7-.7 0-1.3 0-1.8-.2v9.8h-2.2V29.3z" fill="url(#d)"/><linearGradient id="e" gradientUnits="userSpaceOnUse" x1="50.739" y1="58.152" x2="50.739" y2="24.681"><stop offset=".005" stop-color="#008281"/><stop offset=".343" stop-color="#006a69"/><stop offset="1" stop-color="#003836"/></linearGradient><path d="M43.3 24.7v2.6h8.8v7.3h-8.8v2.8h8.8v3.2h-8.8v2.6h8.8v3.3h-8.8v2.9h8.8v3.3h-8.8v5.5h14.9V24.7z" fill="url(#e)"/><g opacity=".99"><linearGradient id="f" gradientUnits="userSpaceOnUse" x1="45.214" y1="74.229" x2="58.667" y2="87.682" gradientTransform="matrix(1 0 0 -1 0 102)"><stop offset="0" stop-color="#d6ede8"/><stop offset=".297" stop-color="#d3ebe6"/><stop offset=".44" stop-color="#c7e3df"/><stop offset=".551" stop-color="#b7d8d5"/><stop offset=".645" stop-color="#a0cbc9"/><stop offset=".729" stop-color="#84bab9"/><stop offset=".804" stop-color="#62a7a7"/><stop offset=".874" stop-color="#349394"/><stop offset=".938" stop-color="#007f7f"/><stop offset=".998" stop-color="#006b6a"/><stop offset="1" stop-color="#006b69"/></linearGradient><path d="M45.2 1l26.9 26.7H45.2V1z" fill="url(#f)"/><path d="M45.2 1l26.9 26.7H45.2V1z" fill-opacity="0" stroke="#006e6c" stroke-width="2" stroke-linejoin="bevel"/></g></svg>