<svg xmlns="http://www.w3.org/2000/svg" viewBox="0 0 72 100"><linearGradient id="a" gradientUnits="userSpaceOnUse" x1="36" y1="2.265" x2="36" y2="100.25" gradientTransform="matrix(1 0 0 -1 0 101)"><stop offset="0" stop-color="#c8d4db"/><stop offset=".139" stop-color="#d8e1e6"/><stop offset=".359" stop-color="#ebf0f3"/><stop offset=".617" stop-color="#f9fafb"/><stop offset="1" stop-color="#fff"/></linearGradient><path d="M45 .8l27 26.7v71.3H0V.8h45z" fill="url(#a)"/><path d="M45 .8l27 26.7v71.3H0V.8h45z" fill-opacity="0" stroke="#7191a1" stroke-width="2"/><path d="M6.7 84l3.6-.3c.2 1.2.6 2 1.3 2.6.7.6 1.5.8 2.6.8 1.2 0 2.1-.2 2.7-.7.6-.5.9-1.1.9-1.7 0-.4-.1-.8-.4-1.1-.3-.3-.7-.6-1.3-.8-.4-.1-1.4-.4-2.9-.8-2-.5-3.3-1.1-4.1-1.8-1.1-1-1.7-2.2-1.7-3.6 0-.9.3-1.8.8-2.6s1.3-1.4 2.3-1.8 2.2-.6 3.6-.6c2.3 0 4 .5 5.1 1.5s1.7 2.3 1.8 3.9l-3.7.2c-.2-.9-.5-1.6-1-2-.5-.4-1.3-.6-2.3-.6-1.1 0-1.9.2-2.5.6-.4.3-.6.6-.6 1.1 0 .4.2.8.5 1.1.5.4 1.6.8 3.4 1.2 1.8.4 3.1.8 3.9 1.3.9.4 1.5 1 2 1.8s.7 1.7.7 2.8c0 1-.3 2-.9 2.9-.6.9-1.4 1.6-2.4 2-1.1.4-2.4.7-3.9.7-2.3 0-4-.5-5.3-1.6S6.9 86 6.7 84zm17.8 5.8V71.9h3.7v7.9l7.4-7.9h4.9l-6.8 7 7.2 10.9h-4.7l-5-8.4-3 3v5.4h-3.7zm18.1 0V71.9h3.7v17.9h-3.7zm7.1 0V71.9h3.6l7.4 12v-12h3.4v17.9h-3.7l-7.3-11.7v11.7h-3.4z" fill="#4c6c7b"/><linearGradient id="b" gradientUnits="userSpaceOnUse" x1="45.069" y1="73.457" x2="58.569" y2="86.957" gradientTransform="matrix(1 0 0 -1 0 101)"><stop offset="0" stop-color="#fff"/><stop offset=".35" stop-color="#fafbfb"/><stop offset=".532" stop-color="#edf1f4"/><stop offset=".675" stop-color="#dde5e9"/><stop offset=".799" stop-color="#c7d3da"/><stop offset=".908" stop-color="#adbdc7"/><stop offset="1" stop-color="#92a5b0"/></linearGradient><path d="M45 .8l27 26.7H45V.8z" fill="url(#b)"/><path d="M45 .8l27 26.7H45V.8z" fill-opacity="0" stroke="#7191a1" stroke-width="2" stroke-linejoin="bevel"/><linearGradient id="c" gradientUnits="userSpaceOnUse" x1="37" y1="56.5" x2="37" y2="36.5"><stop offset="0" stop-color="#adccdc"/><stop offset="1" stop-color="#4c6c7b"/></linearGradient><path d="M44.2 52.2l.6-1.5c.9-2.8 1.8-5.7 2.7-8.5.3-1.1.7-2.2 1.4-3.1 1.1-1.5 2.6-2.3 4.3-2.5.7-.1 1.4-.2 2.1-.2H62c-.1.1-.1.2-.1.3-.8 1.4-1.5 2.8-2.3 4.2l-4.2 7.2c-.9 1.5-1.9 3-3.1 4.4-.8 1-1.7 2-2.8 2.7-.8.5-1.6.8-2.5.8h-9.9c-1 0-1.8-.4-2.5-1-1-.9-1.6-2.2-2.1-3.4-.9-2.3-1.4-4.8-2-7.2-.3-1.1-.6-2.3-.9-3.4 0-.1-.1-.1-.1-.2l-.2.2c-1.3 1.3-2.4 2.7-3.4 4.2-.3.4-.4.9-.5 1.4-.6 1.8-1.1 3.6-1.7 5.3-.6 1.7-1.6 3-3.3 3.8-1 .5-2 .7-3.1.7-1.6 0-3.2 0-4.8.1-.4 0-.4 0-.3-.4.7-2.5 1.5-5 2.6-7.4 1.1-2.5 2.4-4.8 4.1-6.9 1.1-1.5 2.4-2.8 3.9-3.8.8-.5 1.6-.9 2.6-1H36c1.8 0 3.1.7 4.1 2.2.6.9 1 1.9 1.4 2.9.7 2.1 1.2 4.2 1.7 6.3l.9 3.6c0 .1 0 .2.1.2z" fill="url(#c)"/></svg>