<svg xmlns="http://www.w3.org/2000/svg" viewBox="0 0 72 100"><linearGradient id="a" gradientUnits="userSpaceOnUse" x1="36" y1="3" x2="36" y2="101" gradientTransform="matrix(1 0 0 -1 0 102)"><stop offset="0" stop-color="#c8d4db"/><stop offset=".139" stop-color="#d8e1e6"/><stop offset=".359" stop-color="#ebf0f3"/><stop offset=".617" stop-color="#f9fafb"/><stop offset="1" stop-color="#fff"/></linearGradient><path d="M45 1l27 26.7V99H0V1h45z" fill="url(#a)"/><path d="M45 1l27 26.7V99H0V1h45z" fill-opacity="0" stroke="#7191a1" stroke-width="2"/><linearGradient id="b" gradientUnits="userSpaceOnUse" x1="45.037" y1="74.187" x2="58.537" y2="87.687" gradientTransform="matrix(1 0 0 -1 0 102)"><stop offset="0" stop-color="#fff"/><stop offset=".35" stop-color="#fafbfb"/><stop offset=".532" stop-color="#edf1f4"/><stop offset=".675" stop-color="#dde5e9"/><stop offset=".799" stop-color="#c7d3da"/><stop offset=".908" stop-color="#adbdc7"/><stop offset="1" stop-color="#92a5b0"/></linearGradient><path d="M45 1l27 26.7H45V1z" fill="url(#b)"/><path d="M45 1l27 26.7H45V1z" fill-opacity="0" stroke="#7191a1" stroke-width="2" stroke-linejoin="bevel"/><path d="M8.9 85.4l3.9-.4c.2 1.3.7 2.3 1.4 2.9s1.7.9 2.9.9c1.3 0 2.3-.3 2.9-.8.7-.6 1-1.2 1-1.9 0-.5-.1-.9-.4-1.2-.3-.3-.8-.6-1.5-.9-.5-.2-1.6-.5-3.2-.9-2.2-.5-3.7-1.2-4.6-2-1.2-1.1-1.8-2.4-1.8-4 0-1 .3-2 .9-2.9.6-.9 1.4-1.6 2.5-2 1.1-.5 2.4-.7 3.9-.7 2.5 0 4.4.6 5.7 1.7s1.9 2.6 2 4.4l-4 .2c-.2-1-.5-1.8-1.1-2.2-.6-.5-1.4-.7-2.6-.7-1.2 0-2.1.2-2.8.7-.4.3-.6.7-.6 1.2s.2.9.6 1.2c.5.4 1.8.9 3.7 1.3s3.4.9 4.4 1.4 1.7 1.2 2.2 2 .8 1.9.8 3.2c0 1.1-.3 2.2-1 3.2-.6 1-1.5 1.7-2.7 2.2-1.2.5-2.6.7-4.4.7-2.5 0-4.5-.6-5.8-1.8-1.3-.9-2.1-2.6-2.3-4.8zM27.7 82c0-2 .3-3.8.9-5.1.5-1 1.1-1.9 1.9-2.7.8-.8 1.7-1.4 2.6-1.8 1.2-.5 2.7-.8 4.3-.8 3 0 5.3.9 7.1 2.7 1.8 1.8 2.7 4.4 2.7 7.6 0 3.2-.9 5.8-2.6 7.6-1.8 1.8-4.1 2.7-7.1 2.7s-5.4-.9-7.1-2.7c-1.8-1.8-2.7-4.3-2.7-7.5zm4.2-.2c0 2.3.5 4 1.6 5.2 1 1.2 2.4 1.8 4 1.8s2.9-.6 4-1.7c1-1.2 1.6-2.9 1.6-5.2 0-2.3-.5-4-1.5-5.1-1-1.1-2.3-1.7-4-1.7s-3 .6-4 1.7c-1.2 1-1.7 2.7-1.7 5zm18.6 10.1V72h4v16.5h10.1v3.4H50.5z" fill="#4c6c7b"/><linearGradient id="c" gradientUnits="userSpaceOnUse" x1="24.767" y1="54" x2="47.233" y2="54" gradientTransform="matrix(1 0 0 -1 0 100)"><stop offset="0" stop-color="#adccdc"/><stop offset="1" stop-color="#4c6c7b"/></linearGradient><circle cx="36" cy="46" r="11.2" fill="url(#c)"/><linearGradient id="d" gradientUnits="userSpaceOnUse" x1="34.288" y1="70.3" x2="37.712" y2="70.3" gradientTransform="matrix(1 0 0 -1 0 100)"><stop offset="0" stop-color="#adccdc"/><stop offset="1" stop-color="#4c6c7b"/></linearGradient><path d="M35.2 33.4h1.6c.5 0 .9-.4.9-.9v-5.6c0-.5-.4-.9-.9-.9h-1.6c-.5 0-.9.4-.9.9v5.6c0 .5.4.9.9.9z" fill="url(#d)"/><linearGradient id="e" gradientUnits="userSpaceOnUse" x1="48.557" y1="54" x2="56" y2="54" gradientTransform="matrix(1 0 0 -1 0 100)"><stop offset="0" stop-color="#adccdc"/><stop offset="1" stop-color="#4c6c7b"/></linearGradient><path d="M48.6 45.2v1.6c0 .5.4.9.9.9h5.6c.5 0 .9-.4.9-.9v-1.6c0-.5-.4-.9-.9-.9h-5.6c-.5 0-.9.4-.9.9z" fill="url(#e)"/><linearGradient id="f" gradientUnits="userSpaceOnUse" x1="34.288" y1="37.7" x2="37.712" y2="37.7" gradientTransform="matrix(1 0 0 -1 0 100)"><stop offset="0" stop-color="#adccdc"/><stop offset="1" stop-color="#4c6c7b"/></linearGradient><path d="M36.8 66c.5 0 .9-.4.9-.9v-5.6c0-.5-.4-.9-.9-.9h-1.6c-.5 0-.9.4-.9.9v5.6c0 .5.4.9.9.9h1.6z" fill="url(#f)"/><linearGradient id="g" gradientUnits="userSpaceOnUse" x1="16" y1="54" x2="23.443" y2="54" gradientTransform="matrix(1 0 0 -1 0 100)"><stop offset="0" stop-color="#adccdc"/><stop offset="1" stop-color="#4c6c7b"/></linearGradient><path d="M16.9 47.7h5.6c.5 0 .9-.4.9-.9v-1.6c0-.5-.4-.9-.9-.9h-5.6c-.5 0-.9.4-.9.9v1.6c0 .5.4.9.9.9z" fill="url(#g)"/><linearGradient id="h" gradientUnits="userSpaceOnUse" x1="44.047" y1="65.5" x2="50.975" y2="65.5" gradientTransform="matrix(1 0 0 -1 0 100)"><stop offset="0" stop-color="#adccdc"/><stop offset="1" stop-color="#4c6c7b"/></linearGradient><path d="M45.4 37.7c.4.4.9.4 1.3 0l4-4c.4-.4.4-.9 0-1.3l-1.1-1.1c-.4-.4-.9-.4-1.3 0l-4 4c-.4.4-.4.9 0 1.3l1.1 1.1z" fill="url(#h)"/><linearGradient id="i" gradientUnits="userSpaceOnUse" x1="44.047" y1="42.5" x2="50.975" y2="42.5" gradientTransform="matrix(1 0 0 -1 0 100)"><stop offset="0" stop-color="#adccdc"/><stop offset="1" stop-color="#4c6c7b"/></linearGradient><path d="M49.6 60.7l1.1-1.1c.4-.4.4-.9 0-1.3l-4-4c-.4-.4-.9-.4-1.3 0l-1.1 1.1c-.4.4-.4.9 0 1.3l4 4c.3.4.9.4 1.3 0z" fill="url(#i)"/><linearGradient id="j" gradientUnits="userSpaceOnUse" x1="21.025" y1="42.5" x2="27.953" y2="42.5" gradientTransform="matrix(1 0 0 -1 0 100)"><stop offset="0" stop-color="#adccdc"/><stop offset="1" stop-color="#4c6c7b"/></linearGradient><path d="M23.7 60.7l4-4c.4-.4.4-.9 0-1.3l-1.1-1.1c-.4-.4-.9-.4-1.3 0l-4 4c-.4.4-.4.9 0 1.3l1.1 1.1c.4.4 1 .4 1.3 0z" fill="url(#j)"/><linearGradient id="k" gradientUnits="userSpaceOnUse" x1="21.025" y1="65.5" x2="27.953" y2="65.5" gradientTransform="matrix(1 0 0 -1 0 100)"><stop offset="0" stop-color="#adccdc"/><stop offset="1" stop-color="#4c6c7b"/></linearGradient><path d="M25.3 37.7c.4.4.9.4 1.3 0l1.1-1.1c.4-.4.4-.9 0-1.3l-4-4c-.4-.4-.9-.4-1.3 0l-1.1 1.1c-.4.4-.4.9 0 1.3l4 4z" fill="url(#k)"/></svg>