<svg xmlns="http://www.w3.org/2000/svg" viewBox="0 0 72 100"><linearGradient id="a" gradientUnits="userSpaceOnUse" x1="36" y1="97" x2="36" y2="-1" gradientTransform="translate(0 2)"><stop offset="0" stop-color="#c8d4db"/><stop offset=".139" stop-color="#d8e1e6"/><stop offset=".359" stop-color="#ebf0f3"/><stop offset=".617" stop-color="#f9fafb"/><stop offset="1" stop-color="#fff"/></linearGradient><path d="M45 1l27 26.7V99H0V1h45z" fill="url(#a)"/><path d="M45 1l27 26.7V99H0V1h45z" fill-opacity="0" stroke="#7191a1" stroke-width="2"/><linearGradient id="b" gradientUnits="userSpaceOnUse" x1="45.037" y1="25.813" x2="58.537" y2="12.313" gradientTransform="translate(0 2)"><stop offset="0" stop-color="#fff"/><stop offset=".35" stop-color="#fafbfb"/><stop offset=".532" stop-color="#edf1f4"/><stop offset=".675" stop-color="#dde5e9"/><stop offset=".799" stop-color="#c7d3da"/><stop offset=".908" stop-color="#adbdc7"/><stop offset="1" stop-color="#92a5b0"/></linearGradient><path d="M45 1l27 26.7H45V1z" fill="url(#b)"/><path d="M45 1l27 26.7H45V1z" fill-opacity="0" stroke="#7191a1" stroke-width="2" stroke-linejoin="bevel"/><path d="M9 85.4l3.9-.4c.2 1.3.7 2.3 1.4 2.9s1.7.9 2.9.9c1.3 0 2.3-.3 2.9-.8.7-.6 1-1.2 1-1.9 0-.5-.1-.9-.4-1.2-.3-.3-.8-.6-1.5-.9-.5-.2-1.6-.5-3.2-.9-2.2-.5-3.7-1.2-4.6-2-1.2-1.1-1.8-2.4-1.8-4 0-1 .3-2 .9-2.9.6-.9 1.4-1.6 2.5-2 1.1-.5 2.4-.7 3.9-.7 2.5 0 4.4.6 5.7 1.7s1.9 2.6 2 4.4l-4 .2c-.2-1-.5-1.8-1.1-2.2-.6-.5-1.4-.7-2.6-.7-1.2 0-2.1.2-2.8.7-.4.3-.6.7-.6 1.2s.2.9.6 1.2c.5.4 1.8.9 3.7 1.3s3.4.9 4.4 1.4 1.7 1.2 2.2 2 .8 1.9.8 3.2c0 1.1-.3 2.2-1 3.2-.6 1-1.5 1.7-2.7 2.2-1.2.5-2.6.7-4.4.7-2.5 0-4.5-.6-5.8-1.8-1.2-.9-2-2.6-2.3-4.8zm25 6.5v-8.4l-7.3-11.6h4.7l4.7 7.9 4.6-7.9h4.7L38 83.5v8.4h-4zm12.3-6.5l3.9-.4c.2 1.3.7 2.3 1.4 2.9s1.7.9 2.9.9c1.3 0 2.3-.3 2.9-.8.7-.6 1-1.2 1-1.9 0-.5-.1-.9-.4-1.2-.3-.3-.8-.6-1.5-.9-.5-.2-1.6-.5-3.2-.9-2.2-.5-3.7-1.2-4.6-2-1.2-1.1-1.8-2.4-1.8-4 0-1 .3-2 .9-2.9.6-.9 1.4-1.6 2.5-2 1.1-.5 2.4-.7 3.9-.7 2.5 0 4.4.6 5.7 1.7s1.9 2.6 2 4.4l-4 .2c-.2-1-.5-1.8-1.1-2.2-.6-.5-1.4-.7-2.6-.7-1.2 0-2.1.2-2.8.7-.4.3-.6.7-.6 1.2s.2.9.6 1.2c.5.4 1.8.9 3.7 1.3s3.4.9 4.4 1.4 1.7 1.2 2.2 2 .8 1.9.8 3.2c0 1.1-.3 2.2-1 3.2-.6 1-1.5 1.7-2.7 2.2-1.2.5-2.6.7-4.4.7-2.5 0-4.5-.6-5.8-1.8-1.2-.9-2-2.6-2.3-4.8z" fill="#4c6c7b"/><g opacity=".9"><linearGradient id="c" gradientUnits="userSpaceOnUse" x1="36" y1="65.808" x2="36" y2="28.808"><stop offset="0" stop-color="#adccdc"/><stop offset="1" stop-color="#4c6c7b"/></linearGradient><path d="M52.3 60L40.4 48c-.1-.1-.2-.2-.4-.3l2.1-2.2.3-.3c2.8 1.1 6.1.5 8.3-1.8 1.6-1.6 2.5-3.9 2.3-6.2 0-.3-.2-.5-.4-.6-.2-.1-.5 0-.7.2l-3.8 3.8-3.9-1-1.1-4 3.8-3.8c.2-.2.2-.5.2-.7-.1-.2-.3-.4-.6-.4-2.3-.2-4.6.6-6.2 2.3-2.3 2.3-2.8 5.5-1.8 8.3l-.3.3-3.1 3-5.7-5.7-.2-.2c.1-.1.1-.2.2-.4 1.2.2 3.4-2.1 5.3-4l-5.5-5.5c-2.4 2.4-4.2 4.1-4 5.3-.6.3-1.1.6-1.4 1l-.8.7c-.5.5-.8 1.1-.9 1.8-.1.1-.2.2-.2.3l-.3.4v.1l-.3.4c-.2.2-.3.5-.4.7-.1.1-.1.2-.2.3l-.1.2c-.1.3-.3.5-.4.8-.1.3-.3.7-.4 1.1l-.1.2c0 .1-.1.3-.1.4l-.1.5c-.1.3-.1.7-.1.9v1.8l.1.4v.2c0 .2.1.4.1.5l.3 1c.1.3.4.5.7.5.2 0 .3-.1.4-.2.1-.1.2-.2.2-.4l.1-1c0-.1 0-.2.1-.3 0-.1 0-.2.1-.2l.1-.4s0-.1.1-.1c0 0 0-.1.1-.1 0-.1.1-.2.1-.2.1-.2.1-.3.2-.4 0-.1.1-.1.1-.2.1-.2.2-.3.3-.5l.2-.3c0-.1.1-.1.2-.2l.1-.1c.1-.2.3-.3.5-.5l.1-.1c.1-.1.3-.2.4-.3.1 0 .1-.1.2-.1s.1-.1.2-.1c.1-.1.2-.2.4-.2l.3-.2.3-.1c.1-.1.2-.1.3-.1.1 0 .1 0 .2-.1.1 0 .1 0 .1-.1.1 0 .1 0 .2-.1h.1c.1.1.2.3.3.4l5.6 5.6-12.3 11.4c-1.5 1.5-1.7 3.7-.2 5.2s3.6 1.1 5.1-.4l10.6-11.2.2.2 11.9 11.9c1.3 1.3 3.5 1.3 4.8 0 1.4-1.3 1.4-3.5 0-4.8zm-29.1 2.6c-.6.6-1.4.6-2 0-.6-.6-.6-1.4 0-2 .6-.6 1.4-.6 2 0 .5.6.5 1.5 0 2z" fill="url(#c)"/></g></svg>