<svg xmlns="http://www.w3.org/2000/svg" viewBox="0 0 72 100"><linearGradient id="a" gradientUnits="userSpaceOnUse" x1="36" y1="3" x2="36" y2="101" gradientTransform="matrix(1 0 0 -1 0 102)"><stop offset="0" stop-color="#c8d4db"/><stop offset=".139" stop-color="#d8e1e6"/><stop offset=".359" stop-color="#ebf0f3"/><stop offset=".617" stop-color="#f9fafb"/><stop offset="1" stop-color="#fff"/></linearGradient><path d="M45 1l27 26.7V99H0V1h45z" fill="url(#a)"/><path d="M45 1l27 26.7V99H0V1h45z" stroke="#7191a1" stroke-width="2" fill="none"/><linearGradient id="b" gradientUnits="userSpaceOnUse" x1="45.037" y1="74.187" x2="58.537" y2="87.687" gradientTransform="matrix(1 0 0 -1 0 102)"><stop offset="0" stop-color="#fff"/><stop offset=".35" stop-color="#fafbfb"/><stop offset=".532" stop-color="#edf1f4"/><stop offset=".675" stop-color="#dde5e9"/><stop offset=".799" stop-color="#c7d3da"/><stop offset=".908" stop-color="#adbdc7"/><stop offset="1" stop-color="#92a5b0"/></linearGradient><path d="M45 1l27 26.7H45V1z" fill="url(#b)"/><path d="M45 1l27 26.7H45V1z" stroke="#7191a1" stroke-width="2" stroke-linejoin="bevel" fill="none"/><path d="M18 91.9l-6.1-17.2h3.8L20 87.4l4.2-12.7h3.7l-6.2 17.2H18zm11.7-17.2h6.9c1.4 0 2.4.1 3 .2s1.3.3 1.8.7 1 .8 1.3 1.4.5 1.3.5 2c0 .8-.2 1.5-.7 2.2s-1 1.2-1.8 1.5c1 .3 1.9.8 2.4 1.6s.8 1.6.8 2.6c0 .8-.2 1.5-.5 2.3s-.7 1.3-1.4 1.8-1.4.7-2.3.8c-.6.1-2 .1-4.2.1h-5.8V74.7zm3.5 2.9v4h2.3c1.4 0 2.2 0 2.5-.1.6-.1 1.1-.3 1.4-.6s.5-.8.5-1.3-.1-1-.4-1.3-.7-.5-1.3-.6c-.3 0-1.3-.1-3-.1h-2zm0 6.8V89h3.2c1.2 0 2 0 2.4-.1.5-.1.9-.3 1.3-.7s.5-.8.5-1.5c0-.5-.1-1-.4-1.3s-.6-.6-1.1-.8-1.5-.2-3.1-.2h-2.8zm12.9 1.9l3.4-.3c.2 1.1.6 2 1.2 2.5s1.5.8 2.5.8c1.1 0 2-.2 2.5-.7s.8-1 .8-1.7c0-.4-.1-.8-.4-1s-.7-.5-1.2-.7c-.4-.1-1.3-.4-2.8-.8-1.9-.5-3.2-1-3.9-1.7-1.1-.9-1.6-2.1-1.6-3.5 0-.9.2-1.7.7-2.5s1.2-1.3 2.1-1.7 2.1-.6 3.4-.6c2.2 0 3.8.5 4.9 1.4s1.7 2.2 1.7 3.8l-3.5.2c-.1-.9-.5-1.5-1-1.9s-.9-.6-1.9-.6-1.8.2-2.4.6c-.4.3-.6.6-.6 1.1 0 .4.2.8.5 1 .4.4 1.5.8 3.2 1.1s2.9.8 3.7 1.2 1.4 1 1.9 1.7.7 1.7.7 2.7-.3 1.9-.8 2.8-1.2 1.6-2.2 2.1-2.2.6-3.7.6c-2.2 0-3.8-.5-5-1.5s-1.9-2.5-2.2-4.4z" fill="#4c6c7b"/><linearGradient id="c" gradientUnits="userSpaceOnUse" x1="36.05" y1="33.596" x2="36.05" y2="69.379" gradientTransform="matrix(1 0 0 -1 0 100)"><stop offset="0" stop-color="#adccdc"/><stop offset="1" stop-color="#4c6c7b"/></linearGradient><path d="M15.1 33.6V35l-1.6.6v-1.4l1.6-.6zm0 13.2v1.4l-1.6.6v-1.4l1.6-.6zm0 13.5v1.4l-1.6.6v-1.4l1.6-.6zM15 38v1.3l-1.3.6v-1.3L15 38zm0 4.4v1.3l-1.3.6V43l1.3-.6zm0 9v1.1l-1.4.6v-1.3c.1.1 1.4-.4 1.4-.4zm0 4.5v1.3l-1.3.6v-1.1l1.3-.8zm4.2-21.6v1.6l-2.2.8v-1.6l2.2-.8zm0 13.5v1.6l-2.2.8v-1.6l2.2-.8zm0 13.4v1.6l-2.2.8V62l2.2-.8zm-.1-22.3v1.5l-1.8.6v-1.4l1.8-.7zm0 4.5v1.5l-1.8.6V44l1.8-.6zm0 9v1.5l-1.8.7v-1.5l1.8-.7zm0 4.6v1.5l-1.8.7v-1.5l1.8-.7zm4.2-21.7v1.9l-2.8 1v-1.9l2.8-1zm0 13.4v1.9l-2.8 1v-1.9l2.8-1zm0 13.4V64l-2.8 1.1v-1.9l2.8-1.1zm-.1-22.2v1.7l-2.4.9v-1.7l2.4-.9zm0 4.5v1.7l-2.4.9v-1.7l2.4-.9zm0 9v1.7l-2.4.9v-1.7l2.4-.9zm0 4.4v1.7l-2.4.9v-1.7l2.4-.9zm4.4-22.7v2.5L24.2 39v-2.5l3.4-1.4zm0 13.5v2.5l-3.4 1.4v-2.4l3.4-1.5zm0 13.4v2.5l-3.4 1.4v-2.5l3.4-1.4zm-.1-22.2v2.3l-2.9 1.1V41l2.9-1.2zm0 4.5v2.3l-2.9 1.1v-2.3l2.9-1.1zm0 9v2.3l-2.9 1.1v-2.3l2.9-1.1zm0 4.4V60l-2.9 1.1v-2.3l2.9-1.1zm4.7-23V38l-3.9 1.7v-3.2c.1-.1 3.9-1.8 3.9-1.8zm0 13.5v3.2L28.4 53v-3.2l3.8-1.6zm0 13.4v3.2l-3.9 1.6v-3.2c.1-.1 3.9-1.6 3.9-1.6zm-.1-21.9v2.7l-3.3 1.4v-2.7l3.3-1.4zm0 4.3v2.7L28.8 48v-2.7l3.3-1.3zm0 9.1v2.8l-3.3 1.3v-2.7l3.3-1.4zm0 4.4v2.7l-3.3 1.4v-2.7c0-.1 3.3-1.4 3.3-1.4zM37 33.2v4.5l-4.2 1.7v-4.2c1.5-.9 2.9-1.5 4.2-2zm0 4.9V42l-4.2 1.8v-3.9l4.2-1.8zm0 4.3v4l-4.2 1.8v-4l4.2-1.8zm0 4.4v3.9l-4.2 1.8v-3.9l4.2-1.8zm0 4.4v4L32.9 57v-4l4.1-1.8zm0 4.5v3.9l-4.2 1.8v-4l4.2-1.7zm0 4.4v4.2c-1.7.6-3 1.3-4.2 1.8v-4.2l4.2-1.8zm21.4-26.8v31.4c-2.6-1.8-6-2.6-9.9-2.6-3.3 0-7 .6-11.1 2v-4.3c2.2-.8 4.5-1.5 7.1-1.8V47.8c-2.2.3-4.6 1-7.1 2.3v-2.9c2.2-1 4.6-1.8 7.1-2.1V35c-2.3.4-4.7 1.3-7.1 2.3v-4.4c3.7-1.6 7.2-2.3 10.6-2.3 3.9 0 7.3.9 10.4 2.7zM54.3 36c-1.7-.8-3.8-1.3-6.2-1.3h-.8v10.1h.9c2.1 0 4.1.3 6.1.9V36zm0 12.7c-1.8-.8-3.9-1.3-6.1-1.3h-.8v10.2h.9c2.2 0 4.3.3 6.1.8v-9.8l-.1.1zM57 65.9v-.6h-.3v-.1h.6v.1H57v.6zm.5 0v-.8h.2l.3.6.3-.6h.2v.8h-.1v-.6l-.3.6h-.2l-.3-.6v.6h-.1z" opacity=".9" fill="url(#c)"/></svg>