<svg xmlns="http://www.w3.org/2000/svg" viewBox="0 0 72 100"><linearGradient id="a" gradientUnits="userSpaceOnUse" x1="35.75" y1="3.096" x2="35.75" y2="101" gradientTransform="matrix(1 0 0 -1 0 102)"><stop offset="0" stop-color="#c8d4db"/><stop offset=".139" stop-color="#d8e1e6"/><stop offset=".359" stop-color="#ebf0f3"/><stop offset=".617" stop-color="#f9fafb"/><stop offset="1" stop-color="#fff"/></linearGradient><path d="M44.8 1l27 26.7v71.2h-72V1h45z" fill="url(#a)"/><path d="M44.8 1l27 26.7v71.2h-72V1h45z" fill-opacity="0" stroke="#7191a1" stroke-width="2"/><linearGradient id="b" gradientUnits="userSpaceOnUse" x1="35.85" y1="4.085" x2="35.85" y2="38.441" gradientTransform="matrix(1 0 0 -1 0 102)"><stop offset="0" stop-color="#ef4136"/><stop offset="1" stop-color="#be1e2d"/></linearGradient><path d="M.7 63.6h70.2v34.3H.7V63.6z" fill="url(#b)"/><path d="M14.6 90.1L7.4 70.3h4.4L16.9 85l4.9-14.7h4.3l-7.2 19.8h-4.3zm26.3-7.3l3.9 1.2c-.6 2.2-1.6 3.8-3 4.8-1.4 1.1-3.2 1.6-5.3 1.6-2.7 0-4.8-.9-6.6-2.7-1.7-1.8-2.6-4.3-2.6-7.4 0-3.3.9-5.9 2.6-7.7s4-2.7 6.8-2.7c2.5 0 4.4.7 6 2.1.9.8 1.6 2.1 2.1 3.7l-4 .9c-.2-1-.7-1.8-1.5-2.4-.8-.6-1.7-.9-2.7-.9-1.5 0-2.7.5-3.6 1.6-1 1.1-1.4 2.8-1.4 5.1 0 2.5.5 4.3 1.4 5.4.9 1.1 2.1 1.6 3.6 1.6 1.1 0 2-.3 2.8-1 .6-.7 1.2-1.8 1.5-3.2zm6.4.8l3.9-.4c.2 1.3.7 2.3 1.4 2.9.7.6 1.7.9 2.9.9 1.3 0 2.3-.3 2.9-.8.7-.5 1-1.2 1-1.9 0-.5-.1-.9-.4-1.2-.3-.3-.8-.6-1.5-.9-.5-.2-1.6-.5-3.2-.9-2.2-.5-3.7-1.2-4.6-2-1.2-1.1-1.8-2.4-1.8-4 0-1 .3-2 .9-2.8.6-.9 1.4-1.5 2.5-2s2.4-.7 3.9-.7c2.5 0 4.4.5 5.7 1.6 1.3 1.1 1.9 2.5 2 4.4l-4 .2c-.2-1-.5-1.8-1.1-2.2-.6-.4-1.4-.7-2.6-.7-1.2 0-2.1.2-2.8.7-.4.3-.6.7-.6 1.2s.2.9.6 1.2c.5.4 1.8.9 3.7 1.3s3.4.9 4.4 1.4c.9.5 1.7 1.2 2.2 2 .5.9.8 1.9.8 3.2 0 1.1-.3 2.2-1 3.2-.6 1-1.5 1.7-2.7 2.2-1.2.5-2.6.7-4.4.7-2.5 0-4.5-.6-5.8-1.7-1.2-1-2-2.7-2.3-4.9z" fill="#fff"/><linearGradient id="c" gradientUnits="userSpaceOnUse" x1="1025.8" y1="947.945" x2="1025.8" y2="986.7" gradientTransform="matrix(1 0 0 -1 -990 1005.111)"><stop offset="0" stop-color="#879ca8"/><stop offset="1" stop-color="#4d6a78"/></linearGradient><path d="M18.2 54.4v-6.2h7.2v6.2h-7.2zm8.8 0v-6.2h8v6.2h-8zm-8.8-7.6v-6.9h7.2v6.9h-7.2zm8.8 0v-6.9h8v6.9h-8zm-8.8-8.3v-6.2h7.2v6.2h-7.2zm18.4 15.9v-6.2h8v6.2h-8zM27 38.5v-6.2h8v6.2h-8zm19.2 15.9v-6.2h7.2v6.2h-7.2zm-9.6-7.6v-6.9h8v6.9h-8zm-8.8-18.7c0 .4-.4.7-.8.7h-1.6c-.4 0-.8-.3-.8-.7v-6.2c0-.4.4-.7.8-.7H27c.4 0 .8.3.8.7v6.2zm18.4 18.7v-6.9h7.2v6.9h-7.2zm-9.6-8.3v-6.2h8v6.2h-8zm9.6 0v-6.2h7.2v6.2h-7.2zm.8-10.4c0 .4-.4.7-.8.7h-1.6c-.4 0-.8-.3-.8-.7v-6.2c0-.4.4-.7.8-.7h1.6c.4 0 .8.3.8.7v6.2zm9.6-1.4c0-1.5-1.4-2.8-3.2-2.8h-3.2v-2.1c0-1.9-1.8-3.5-4-3.5h-1.6c-2.2 0-4 1.6-4 3.5v2.1H31v-2.1c0-1.9-1.8-3.5-4-3.5h-1.6c-2.2 0-4 1.6-4 3.5v2.1h-3.2c-1.7 0-3.2 1.3-3.2 2.8v27.7c0 1.5 1.4 2.8 3.2 2.8h35.1c1.7 0 3.2-1.3 3.2-2.8V26.7z" fill="url(#c)"/><linearGradient id="d" gradientUnits="userSpaceOnUse" x1="44.825" y1="74.224" x2="58.325" y2="87.724" gradientTransform="matrix(1 0 0 -1 0 102)"><stop offset="0" stop-color="#fff"/><stop offset=".35" stop-color="#fafbfb"/><stop offset=".532" stop-color="#edf1f4"/><stop offset=".675" stop-color="#dde5e9"/><stop offset=".799" stop-color="#c7d3da"/><stop offset=".908" stop-color="#adbdc7"/><stop offset="1" stop-color="#92a5b0"/></linearGradient><path d="M44.8 1l27 26.7h-27V1z" fill="url(#d)"/><path d="M44.8 1l27 26.7h-27V1z" fill-opacity="0" stroke="#7191a1" stroke-width="2" stroke-linejoin="bevel"/></svg>