<?xml version="1.0" encoding="UTF-8" standalone="no"?>
<!DOCTYPE svg PUBLIC "-//W3C//DTD SVG 1.1//EN" "http://www.w3.org/Graphics/SVG/1.1/DTD/svg11.dtd">
<svg width="16px" height="16px" version="1.1" xmlns="http://www.w3.org/2000/svg">
	<path id="paper" d="M15,15c0.552,0 1,-0.448 1,-1l0,-12c0,-0.552 -0.448,-1 -1,-1l-14,0c-0.552,0 -1,0.448 -1,1l0,12c0,0.552 0.448,1 1,1l14,0Z" style="fill: #304050;" />
	<path d="M2,4.232l0.772,-0.5l0,-0.204l-0.772,-0.5l0,0.266l0.53,0.332l0,0.008l-0.53,0.332l0,0.266Z" style="fill: #fff;" />
	<path d="M4.804,4.318c0.294,0 0.488,-0.234 0.488,-0.664c0,-0.432 -0.194,-0.654 -0.488,-0.654c-0.294,0 -0.488,0.222 -0.488,0.654c0,0.43 0.194,0.664 0.488,0.664Zm0,-0.228c-0.126,0 -0.226,-0.106 -0.226,-0.436c0,-0.33 0.1,-0.426 0.226,-0.426c0.126,0 0.226,0.096 0.226,0.426c0,0.33 -0.1,0.436 -0.226,0.436Zm0,-0.288c0.084,0 0.15,-0.06 0.15,-0.152c0,-0.092 -0.066,-0.152 -0.15,-0.152c-0.084,0 -0.15,0.06 -0.15,0.152c0,0.092 0.066,0.152 0.15,0.152Z" style="fill: #fff;" />
	<path d="M5.568,4.294l0.908,0l0,-0.238l-0.288,0l0,-1.032l-0.216,0c-0.094,0.054 -0.194,0.09 -0.342,0.116l0,0.182l0.264,0l0,0.734l-0.326,0l0,0.238Z" style="fill: #fff;" />
	<path d="M7.204,4.318c0.294,0 0.488,-0.234 0.488,-0.664c0,-0.432 -0.194,-0.654 -0.488,-0.654c-0.294,0 -0.488,0.222 -0.488,0.654c0,0.43 0.194,0.664 0.488,0.664Zm0,-0.228c-0.126,0 -0.226,-0.106 -0.226,-0.436c0,-0.33 0.1,-0.426 0.226,-0.426c0.126,0 0.226,0.096 0.226,0.426c0,0.33 -0.1,0.436 -0.226,0.436Zm0,-0.288c0.084,0 0.15,-0.06 0.15,-0.152c0,-0.092 -0.066,-0.152 -0.15,-0.152c-0.084,0 -0.15,0.06 -0.15,0.152c0,0.092 0.066,0.152 0.15,0.152Z" style="fill: #fff;" />
	<path d="M7.968,4.294l0.908,0l0,-0.238l-0.288,0l0,-1.032l-0.216,0c-0.094,0.054 -0.194,0.09 -0.342,0.116l0,0.182l0.264,0l0,0.734l-0.326,0l0,0.238Z" style="fill: #fff;" />
</svg>
