<?xml version="1.0" encoding="UTF-8" standalone="no"?>
<!DOCTYPE svg PUBLIC "-//W3C//DTD SVG 1.1//EN" "http://www.w3.org/Graphics/SVG/1.1/DTD/svg11.dtd">
<svg width="16px" height="16px" version="1.1" xmlns="http://www.w3.org/2000/svg">
	<path id="paper" d="M14.667,1.333c0,-0.552 -0.448,-1 -1,-1l-11.334,0c-0.552,0 -1,0.448 -1,1l0,13.334c0,0.552 0.448,1 1,1l11.334,0c0.552,0 1,-0.448 1,-1l0,-13.334Z" style="fill: #fff; stroke: #cfd0d1; stroke-width: 0.67px;" />
	<path d="M11.5,3l0,7c0.012,0.586 -0.343,1.202 -0.961,1.559c-0.848,0.49 -1.873,0.305 -2.287,-0.412c-0.414,-0.717 -0.061,-1.696 0.787,-2.186c0.478,-0.276 1.012,-0.338 1.461,-0.212l0,-3.499l-4,1l0,5.25c0.015,0.583 -0.332,1.195 -0.941,1.546c-0.837,0.483 -1.852,0.293 -2.266,-0.424c-0.414,-0.717 -0.071,-1.691 0.766,-2.174c0.47,-0.271 0.996,-0.33 1.441,-0.202l0,-5.746l6,-1.5Z" style="fill: #00a040;" />
</svg>
