<?xml version="1.0" encoding="UTF-8" standalone="no"?>
<!DOCTYPE svg PUBLIC "-//W3C//DTD SVG 1.1//EN" "http://www.w3.org/Graphics/SVG/1.1/DTD/svg11.dtd">
<svg width="16px" height="16px" version="1.1" xmlns="http://www.w3.org/2000/svg">
	<path id="paper" d="M14.667,1.333c0,-0.552 -0.448,-1 -1,-1l-11.334,0c-0.552,0 -1,0.448 -1,1l0,13.334c0,0.552 0.448,1 1,1l11.334,0c0.552,0 1,-0.448 1,-1l0,-13.334Z" style="fill: #fff; stroke: #cfd0d1; stroke-width: 0.67px;" />
	<path d="M13,3c0,-0.276 -0.224,-0.5 -0.5,-0.5l-9,0c-0.276,0 -0.5,0.224 -0.5,0.5l0,2c0,0.276 0.224,0.5 0.5,0.5l9,0c0.276,0 0.5,-0.224 0.5,-0.5l0,-2Z" style="fill: #98a0a8;" />
	<path d="M13,11c0,-0.276 -0.224,-0.5 -0.5,-0.5l-9,0c-0.276,0 -0.5,0.224 -0.5,0.5l0,2c0,0.276 0.224,0.5 0.5,0.5l9,0c0.276,0 0.5,-0.224 0.5,-0.5l0,-2Z" style="fill: #98a0a8;" />
	<path d="M13,7c0,-0.276 -0.224,-0.5 -0.5,-0.5l-9,0c-0.276,0 -0.5,0.224 -0.5,0.5l0,2c0,0.276 0.224,0.5 0.5,0.5l9,0c0.276,0 0.5,-0.224 0.5,-0.5l0,-2Z" style="fill: #98a0a8;" />
	<path d="M12,3.75c0,-0.138 -0.112,-0.25 -0.25,-0.25l-1.5,0c-0.138,0 -0.25,0.112 -0.25,0.25l0,0.5c0,0.138 0.112,0.25 0.25,0.25l1.5,0c0.138,0 0.25,-0.112 0.25,-0.25l0,-0.5Z" style="fill: #fff;" />
	<path d="M12,7.75c0,-0.138 -0.112,-0.25 -0.25,-0.25l-1.5,0c-0.138,0 -0.25,0.112 -0.25,0.25l0,0.5c0,0.138 0.112,0.25 0.25,0.25l1.5,0c0.138,0 0.25,-0.112 0.25,-0.25l0,-0.5Z" style="fill: #fff;" />
	<path d="M12,11.75c0,-0.138 -0.112,-0.25 -0.25,-0.25l-1.5,0c-0.138,0 -0.25,0.112 -0.25,0.25l0,0.5c0,0.138 0.112,0.25 0.25,0.25l1.5,0c0.138,0 0.25,-0.112 0.25,-0.25l0,-0.5Z" style="fill: #fff;" />
</svg>
