<?xml version="1.0" encoding="UTF-8" standalone="no"?>
<!DOCTYPE svg PUBLIC "-//W3C//DTD SVG 1.1//EN" "http://www.w3.org/Graphics/SVG/1.1/DTD/svg11.dtd">
<svg width="16px" height="16px" version="1.1" xmlns="http://www.w3.org/2000/svg">
	<path id="paper" d="M14.667,1.333c0,-0.552 -0.448,-1 -1,-1l-11.334,0c-0.552,0 -1,0.448 -1,1l0,13.334c0,0.552 0.448,1 1,1l11.334,0c0.552,0 1,-0.448 1,-1l0,-13.334Z" style="fill: #fff; stroke: #cfd0d1; stroke-width: 0.67px;" />
	<path d="M6.68,12.73l0.759,0l0,-0.693l-0.506,0c-1.023,0 -1.243,-0.22 -1.243,-0.88c0,-0.638 0.055,-1.188 0.055,-1.892c0,-0.77 -0.275,-1.111 -1.045,-1.243l0,-0.044c0.77,-0.132 1.045,-0.473 1.045,-1.243c0,-0.671 -0.055,-1.287 -0.055,-1.892c0,-0.66 0.22,-0.88 1.243,-0.88l0.506,0l0,-0.693l-0.759,0c-1.397,0 -2.046,0.352 -2.046,1.518c0,0.759 0.11,1.309 0.11,2.002c0,0.396 -0.308,0.814 -1.551,0.825l0,0.77c1.243,0.011 1.551,0.429 1.551,0.825c0,0.726 -0.11,1.21 -0.11,2.002c0,1.166 0.649,1.518 2.046,1.518Z" style="fill: #00a040;" />
	<path d="M8.572,12.73l0.759,0c1.397,0 2.035,-0.352 2.035,-1.518c0,-0.792 -0.11,-1.276 -0.11,-2.002c0,-0.396 0.308,-0.814 1.551,-0.825l0,-0.77c-1.243,-0.011 -1.551,-0.429 -1.551,-0.825c0,-0.693 0.11,-1.243 0.11,-2.002c0,-1.166 -0.638,-1.518 -2.035,-1.518l-0.759,0l0,0.693l0.506,0c1.012,0 1.243,0.22 1.243,0.88c0,0.605 -0.055,1.221 -0.055,1.892c0,0.77 0.264,1.111 1.045,1.243l0,0.044c-0.781,0.132 -1.045,0.473 -1.045,1.243c0,0.704 0.055,1.254 0.055,1.892c0,0.66 -0.231,0.88 -1.243,0.88l-0.506,0l0,0.693Z" style="fill: #00a040;" />
</svg>
