<?xml version="1.0" encoding="UTF-8" standalone="no"?>
<!DOCTYPE svg PUBLIC "-//W3C//DTD SVG 1.1//EN" "http://www.w3.org/Graphics/SVG/1.1/DTD/svg11.dtd">
<svg width="16px" height="16px" version="1.1" xmlns="http://www.w3.org/2000/svg">
	<path id="paper" d="M14.667,1.333c0,-0.552 -0.448,-1 -1,-1l-11.334,0c-0.552,0 -1,0.448 -1,1l0,13.334c0,0.552 0.448,1 1,1l11.334,0c0.552,0 1,-0.448 1,-1l0,-13.334Z" style="fill: #fff; stroke: #cfd0d1; stroke-width: 0.67px;" />
	<path d="M4.92,11.834l1.188,0l0.308,-1.606l0.176,-1.1l0.022,0c0.33,0.418 0.902,0.704 1.529,0.704c1.749,-0.001 2.937,-1.573 2.937,-3.543c0,-1.364 -0.704,-2.123 -1.804,-2.123c-0.715,0 -1.342,0.396 -1.892,0.936l-0.033,0l0.055,-0.803l-0.968,0l-1.518,7.535Zm3.113,-2.97c-0.44,0 -0.902,-0.176 -1.199,-0.638l0.44,-2.134c0.495,-0.627 1.078,-0.957 1.551,-0.957c0.616,0 1.034,0.418 1.034,1.309c0,1.342 -0.792,2.42 -1.826,2.42Z" style="fill: #0060d0;" />
</svg>
