<?xml version="1.0" encoding="UTF-8" standalone="no"?>
<!DOCTYPE svg PUBLIC "-//W3C//DTD SVG 1.1//EN" "http://www.w3.org/Graphics/SVG/1.1/DTD/svg11.dtd">
<svg width="16px" height="16px" version="1.1" xmlns="http://www.w3.org/2000/svg">
	<path id="paper" d="M14.667,1.333c0,-0.552 -0.448,-1 -1,-1l-11.334,0c-0.552,0 -1,0.448 -1,1l0,13.334c0,0.552 0.448,1 1,1l11.334,0c0.552,0 1,-0.448 1,-1l0,-13.334Z" style="fill: #fff; stroke: #cfd0d1; stroke-width: 0.67px;" />
	<path d="M3.55,11.21l1.16,0l0,-2.4l0.94,0c1.41,0 2.49,-0.67 2.49,-2.12c0,-1.52 -1.08,-2.02 -2.53,-2.02l-2.06,0l0,6.54Zm1.16,-3.33l0,-2.28l0.81,0c0.97,0 1.48,0.27 1.48,1.09c0,0.8 -0.47,1.19 -1.44,1.19l-0.85,0Z" style="fill: #0060d0;" />
	<path d="M10.54,11.33c1.24,0 1.91,-0.68 1.91,-1.52c0,-0.92 -0.74,-1.24 -1.41,-1.49c-0.53,-0.19 -1.02,-0.34 -1.02,-0.73c0,-0.31 0.23,-0.54 0.72,-0.54c0.39,0 0.74,0.17 1.08,0.42l0.53,-0.7c-0.4,-0.31 -0.95,-0.59 -1.63,-0.59c-1.1,0 -1.79,0.61 -1.79,1.47c0,0.82 0.73,1.19 1.38,1.43c0.52,0.2 1.05,0.38 1.05,0.79c0,0.34 -0.25,0.59 -0.78,0.59c-0.5,0 -0.92,-0.21 -1.36,-0.55l-0.54,0.74c0.48,0.39 1.19,0.68 1.86,0.68Z" style="fill: #0060d0;" />
</svg>
