<svg id="Layer_1" xmlns="http://www.w3.org/2000/svg" viewBox="0 0 100 100"><style>.st1{fill:#999}</style><path d="M0 0h100v100H0V0z" fill="#fff"/><path class="st1" d="M100 100H0V0h100v100zM9.7 90h80.7V10H9.7"/><path class="st1" d="M72.3 60.6v14.8c0 .3-.3.6-.6.6H27.3c-.3 0-.6-.3-.6-.6v-1.3c0-.3.3-.6.6-.6h2l23.1-23.1-24-23.8c-.1-.1-.2-.3-.2-.4v-1.5c0-.3.3-.6.6-.6h42.9c.3 0 .6.3.6.6v14.8c0 .3-.3.6-.6.6H70c-.3 0-.6-.3-.6-.6 0-6.2-3.6-11.4-10.3-11.4H41.9l19.5 19.5c.2.2.2.6 0 .8l-19.1 19h16.8c4.4 0 8.3-2.9 9.7-7 .1-.2.3-.4.6-.4h2.3c.3 0 .6.3.6.6z"/></svg>