<svg xmlns="http://www.w3.org/2000/svg" viewBox="0 0 100 100"><path fill="#fff" d="M0 0h100v100H0z"/><path d="M100 100H0V0h100v100zM9.7 90h80.7V10H9.7"/><path d="M37.2 62.7c0 1.3.9 2.1 2.1 2.1h2.1v7.4c0 1.7 1.5 3.2 3.2 3.2 1.7 0 3.2-1.5 3.2-3.2v-7.4h4.3v7.4c0 1.7 1.5 3.2 3.2 3.2s3.2-1.5 3.2-3.2v-7.4h2.1c1.3 0 2.1-.9 2.1-2.1V41.5H37.2v21.2zm-5.3-21.2c-1.7 0-3.2 1.5-3.2 3.2v14.9c0 1.7 1.5 3.2 3.2 3.2s3.2-1.5 3.2-3.2V44.7c0-1.7-1.5-3.2-3.2-3.2zm36.2 0c-1.7 0-3.2 1.5-3.2 3.2v14.9c0 1.7 1.5 3.2 3.2 3.2 1.7 0 3.2-1.5 3.2-3.2V44.7c0-1.7-1.5-3.2-3.2-3.2zM57.4 29.1l2.8-2.8c.4-.4.4-1.1 0-1.5-.4-.4-1.1-.4-1.5 0L55.5 28c-1.5-1-3.4-1.4-5.5-1.4s-4 .4-5.7 1.3l-3-3.2c-.4-.2-1.3-.2-1.7 0-.2.4-.2 1.3 0 1.7l2.8 2.8c-3 2.3-5.1 6-5.1 10.2h25.5c0-4.3-2.2-8.1-5.4-10.3zm-11.7 6h-2.1V33h2.1v2.1zm10.7 0h-2.1V33h2.1v2.1z" fill="#a4ca39"/></svg>