<svg xmlns="http://www.w3.org/2000/svg" viewBox="0 0 100 100"><style>.st1{fill:#696}</style><path fill="#fff" d="M0 0h100v100H0z"/><path class="st1" d="M100 100H0V0h100v100zM9.7 90h80.7V10H9.7"/><path class="st1" d="M67.7 46.1h-3.5v-7C64.1 31.3 57.8 25 50 25s-14.1 6.3-14.1 14.1v7h-3.5c-1.4 0-2.5 1.1-2.5 2.5v24c0 1.4 1.1 2.5 2.5 2.5h35.3c1.4 0 2.5-1.1 2.5-2.5v-24c-.1-1.4-1.2-2.5-2.5-2.5zM53.1 66c.2.8-.4 1.6-1.2 1.6h-3.7c-.8 0-1.4-.8-1.2-1.6l1.2-4.5c-1.4-.7-2.3-2.1-2.3-3.8 0-2.4 1.9-4.3 4.3-4.3s4.3 1.9 4.3 4.3c0 1.7-.9 3.1-2.3 3.8l.9 4.5zm4-19.9H42.9v-7c0-3.9 3.2-7.1 7.1-7.1s7.1 3.2 7.1 7.1v7z"/></svg>