<svg xmlns="http://www.w3.org/2000/svg" viewBox="0 0 100 100"><style>.st2{fill:#2dbcaf}</style><path fill="#fff" d="M0 0h100v100H0z"/><path d="M100 100H0V0h100v100zM9.7 90h80.7V10H9.7" fill="#666"/><path class="st2" d="M49.8 43.4c-2.6.6-4.4 1.1-7.1 1.9-.6.1-.6.3-1.3-.4-.6-.8-1.1-1.1-2-1.6-2.6-1.3-5.2-.9-7.6.6-2.9 1.9-4.3 4.5-4.3 7.9 0 3.3 2.4 6.1 5.7 6.6 2.9.4 5.2-.6 7.1-2.8.4-.5.8-1 1.1-1.5h-8.1c-.9 0-1.1-.5-.8-1.3.5-1.3 1.5-3.4 2.1-4.5.1-.3.4-.6 1-.6h15.3c.1 1.2.1 2.3-.1 3.4-.5 3-1.6 5.8-3.4 8.2-3 3.9-6.9 6.4-11.9 7.1-4 .5-7.9-.3-11.2-2.8-3.2-2.4-4.8-5.4-5.3-9.3-.5-4.5.8-8.7 3.5-12.2 3-3.9 6.9-6.3 11.7-7.2 3.9-.8 7.7-.3 11.1 2 2.3 1.5 3.8 3.4 4.8 5.9.4.3.2.5-.3.6z"/><path class="st2" d="M63.7 66.5c-3.8-.1-7.3-1.1-10.2-3.7-2.5-2.1-4-4.8-4.5-8.1-.8-4.7.5-9 3.4-12.6 3-4 6.7-6.1 11.7-6.9 4.3-.8 8.3-.4 11.9 2.1 3.3 2.3 5.3 5.3 5.9 9.3.8 5.7-.9 10.2-4.8 14.1-2.8 2.8-6.2 4.5-10 5.3-1.3.4-2.4.4-3.4.5zm9.8-16.9c0-.5 0-1-.1-1.4-.8-4.2-4.5-6.4-8.6-5.5-3.9.9-6.4 3.3-7.3 7.3-.8 3.3.9 6.6 3.8 7.9 2.3 1 4.5.9 6.8-.3 3.5-1.7 5.3-4.3 5.4-8z"/></svg>