<svg xmlns="http://www.w3.org/2000/svg" viewBox="0 0 100 100"><path d="M0 0h100v100H0V0z" fill="#fff"/><path d="M100 100H0V0h100v100zM9.7 90h80.7V10H9.7" fill="#666"/><path d="M26.2 63.3V48.2c0-1 .3-1.5 1.2-2 11.4-6.3 22.7-12.6 34.1-18.9 1.6-.9 3.1-1.8 5.1-1.8 3.2.1 5.9 1.9 6.9 5 1 3 0 6.6-2.7 8.2-3 1.9-6.1 3.5-9.2 5.2-11.4 6.3-22.8 12.6-34.3 18.9-.3.2-.5.3-1.1.5z" fill="#e88e3d"/><path d="M44.3 57.5c.3-.2.7-.4 1-.6 3.7-2.1 7.4-4.1 11.1-6.2.8-.5 1.4-.5 2.1.2 4.2 3.9 8.6 7.7 12.8 11.6 2.3 2.1 3 4.8 2.1 7.8-.9 2.9-3 4.6-6 5.1-2 .3-3.9-.2-5.4-1.5-5.9-5.3-11.7-10.6-17.6-15.9.1-.1 0-.3-.1-.5zm-18-14.8c0-3.7-.3-7.4.1-11 .4-4.1 4.4-6.6 8.8-6.1 3.7.4 6.7 4.1 6.4 8 0 .4-.3 1-.6 1.2-4.7 2.7-9.5 5.3-14.3 7.9-.1 0-.2-.1-.4 0zm15.3 16.4c0 3.4.2 6.6-.1 9.7-.3 3.7-3.8 6.6-7.5 6.7-3.6.1-7.1-2.8-7.7-6.4-.2-1.1 0-1.8 1.1-2.4 4.3-2.3 8.6-4.7 12.9-7.1.3-.1.7-.3 1.3-.5z" fill="#5171a5"/></svg>