<svg xmlns="http://www.w3.org/2000/svg" viewBox="0 0 100 100"><path fill="#fff" d="M0 0h100v100H0z"/><path d="M100 100H0V0h100v100zM9.7 90h80.7V10H9.7" fill="#666"/><path d="M34.3 57.1c0 1 0 1.8.1 2.5 0 .7.2 1.2.4 1.7.2.4.6.8 1.2 1 .5.2 1.3.4 2.2.5.2 0 .4.2.5.3.1.2.2.4.2.6 0 .2-.1.4-.2.6-.1.2-.3.3-.5.3-.8 0-1.8-.1-3-.2s-2.4-.2-3.6-.2c-1.3 0-2.5.1-3.7.2-1.2.1-2.3.2-3.3.2-.2 0-.4-.1-.5-.3 0-.1-.1-.3-.1-.5s.1-.5.2-.6c.1-.2.3-.3.5-.3 1-.1 1.8-.3 2.3-.5.5-.2.9-.6 1.2-1 .2-.4.4-.9.4-1.6 0-.6.1-1.4.1-2.3v-8.9c0-1.9 0-3.4-.1-4.5 0-1.1-.2-2-.4-2.6-.2-.6-.6-1-1.1-1.2-.5-.2-1.2-.3-2.2-.4-.2 0-.4-.1-.5-.2-.1-.2-.2-.3-.2-.5s0-.4.1-.6c.1-.2.3-.3.5-.3.7-.1 1.7-.2 3-.5 1.3-.2 2.7-.6 4.2-1 .1 0 .2-.1.5-.1h.5c.4 0 .7.2 1 .5.3.3.4.7.4 1.1l-.1 2.9c0 .2.1.2.2.1.2-.3.5-.7 1-1.3.5-.6 1.1-1.1 1.8-1.7.7-.6 1.6-1.1 2.7-1.5 1.1-.4 2.3-.6 3.6-.6 2.5 0 4.4.5 5.9 1.5 1.4 1 2.6 2.4 3.4 4.3.2-.4.6-1 1.1-1.6.6-.7 1.3-1.3 2.2-1.9.9-.6 1.9-1.1 3-1.6 1.1-.4 2.3-.7 3.7-.7 1.9 0 3.5.3 4.7.9 1.2.6 2.1 1.4 2.8 2.4.7 1 1.1 2.2 1.4 3.6.2 1.4.4 2.9.4 4.5v9.5c0 1 0 1.8.1 2.5 0 .7.2 1.2.4 1.7.2.4.5.8 1 1 .4.2 1.1.4 1.9.5.2 0 .4.2.5.3s.2.4.2.6c0 .2-.1.4-.2.6s-.3.3-.5.3c-.5 0-1.3-.1-2.5-.2-1.1-.1-2.3-.2-3.5-.2-1.3 0-2.5.1-3.7.2-1.2.1-2.2.2-3.1.2-.2 0-.4-.1-.5-.3-.1-.2-.2-.4-.2-.6 0-.2.1-.5.2-.6.1-.2.3-.3.5-.3 1-.1 1.7-.3 2.2-.5.5-.2.9-.6 1.1-1 .2-.4.4-.9.4-1.6 0-.6.1-1.4.1-2.3v-7.7c0-1.1 0-2.2-.1-3.4-.1-1.2-.3-2.2-.6-3.2s-.8-1.7-1.5-2.4c-.7-.6-1.6-.9-2.9-.9-1.1 0-2.2.3-3.1.8-1 .5-1.8 1.2-2.5 2s-1.3 1.7-1.7 2.6c-.4.9-.6 1.8-.6 2.7V57c0 1.2 0 2.1.1 2.8 0 .7.2 1.2.4 1.6.2.4.5.7 1 .9.4.2 1.1.3 1.9.5.2 0 .4.2.5.3.1.2.2.4.2.6 0 .2-.1.4-.2.6-.1.2-.3.3-.5.3-.5 0-1.3-.1-2.5-.2-1.1-.1-2.3-.2-3.5-.2-1.3 0-2.5.1-3.7.2-1.2.1-2.2.2-3 .2-.2 0-.4-.1-.5-.3-.1-.2-.2-.4-.2-.6 0-.2.1-.5.2-.6.1-.2.3-.3.5-.3.9-.1 1.6-.3 2.1-.5s.9-.5 1.1-.8c.2-.4.3-.9.4-1.5 0-.6.1-1.5.1-2.6v-7.7c0-1.1-.1-2.2-.1-3.4-.1-1.2-.3-2.2-.7-3.2-.4-1-.9-1.7-1.6-2.4-.7-.6-1.7-.9-3-.9-1.4 0-2.5.2-3.5.7-1 .5-1.8 1.1-2.4 1.9-.6.8-1.1 1.7-1.4 2.7-.3 1-.4 1.9-.4 2.9v9.1z" fill="#609" stroke="#609" stroke-width="2" stroke-miterlimit="10"/></svg>