<svg xmlns="http://www.w3.org/2000/svg" viewBox="0 0 100 100"><style>.st0{fill:#fff}.st1{fill:#999}</style><path class="st0" d="M0 0h100v100H0z"/><path class="st1" d="M100 100H0V0h100v100zM9.7 90h80.7V10H9.7"/><path class="st1" d="M23.5 31.2L54 25.3v51.2L23.5 71V31.2z"/><path class="st1" d="M75.3 71.6H49.4c-1.3 0-2.3-1-2.3-2.3V32.8c0-1.3 1-2.3 2.3-2.3h25.9c1.3 0 2.3 1 2.3 2.3v36.5c0 1.3-1.1 2.3-2.3 2.3zM49.4 32.7c-.1 0-.3.1-.3.3v36.5c0 .1.1.3.3.3h25.9c.1 0 .3-.1.3-.3V32.8c0-.1-.1-.3-.3-.3 0 .2-25.9.2-25.9.2z"/><path class="st1" d="M71.5 52.9h-3.4v-12H52.2v-3.4h19.3v15.4zm-17.6 6.6l6.6-6.6 6.6 6.6-6.6 6.5-6.6-6.5z"/><path class="st0" d="M42.5 43.3c-.6-.6-1.1-.9-2-1.1-.7-.3-1.7-.1-2.6-.1-1.7 0-4.7.3-4.7.3L33 58.9l3.1.3v-5.9s1.9.3 3.4-.1c.9-.3 1.7-.7 2.1-1.1.6-.6 1-1.1 1.3-1.7.4-.9.6-1.7.6-3 .4-1.7 0-3.1-1-4.1zM40.1 49c-.6 1.3-2.1 1.3-2.1 1.3h-1.7V45s1.1-.1 2 0c.4.1.9.3 1.1.4.8.7 1.2 2.5.7 3.6z"/></svg>