<svg xmlns="http://www.w3.org/2000/svg" viewBox="0 0 100 100"><style>.st1{fill:#a87d45}</style><path fill="#fff" d="M0 0h100v100H0z"/><path class="st1" d="M100 100H0V0h100v100zM9.7 90h80.7V10H9.7"/><path class="st1" d="M78.4 64.6c0-2.2-1.8-3.9-3.9-3.9H25.6c-2.2 0-3.9 1.8-3.9 3.9v5.6c0 2.2 1.8 3.9 3.9 3.9h48.9c2.2 0 3.9-1.8 3.9-3.9v-5.6zm-21.1 5.1c-1.2 0-2.3-1-2.3-2.3 0-1.4 1.1-2.3 2.3-2.3s2.3 1 2.3 2.3c0 1.4-1 2.3-2.3 2.3zm6.9 0c-1.2 0-2.3-1-2.3-2.3 0-1.4 1-2.3 2.3-2.3 1.2 0 2.3 1 2.3 2.3 0 1.4-1.1 2.3-2.3 2.3zm6.8 0c-1.2 0-2.3-1-2.3-2.3 0-1.4 1-2.3 2.3-2.3 1.2 0 2.3 1 2.3 2.3 0 1.4-1 2.3-2.3 2.3zM25.6 58.3h48.9c1.1 0 2.2.3 3 .8l-4.8-9.9c-1.4-2.9-3.5-3.9-5.7-3.9h-5.3L54 53.1c-.5.5-1.2 1-1.9 1.2-.7.3-1.5.4-2.2.4-.8 0-1.5-.1-2.2-.4h-.3c-.5-.3-1.1-.7-1.6-1.1L38.2 45h-5.3c-2.2 0-4.2 1.2-5.7 3.9L22.4 59c1-.4 1.9-.7 3.2-.7z"/><path class="st1" d="M61.4 41.4c.3-.3.4-.5.7-1 .1-.4.3-.7.3-1.2 0-.4-.1-.8-.3-1.1-.1-.4-.4-.7-.7-1-.3-.3-.7-.5-1-.7-.3-.1-.7-.3-1.1-.3s-.8.1-1.1.3c-.4.1-.7.4-1 .7l-4.4 4.4V28c0-.4-.1-.8-.3-1.1-.1-.4-.4-.7-.7-1-.3-.3-.5-.5-1-.7-.3-.1-.7-.1-1.1-.1s-.8 0-1.1.1c-.4.1-.7.4-1 .7-.3.3-.5.5-.7 1s-.3.7-.3 1.1v13.7l-4.4-4.4c-.3-.3-.5-.5-1-.7-.3-.1-.7-.3-1.1-.3-.4 0-.8.1-1.1.3-.3.1-.7.4-1 .7-.3.3-.5.5-.7 1-.1.4-.3.7-.3 1.1s.1.8.3 1.2c.1.4.4.7.7 1l9.4 9.5c.3.3.5.5 1 .7.3.1.7.3 1.1.3s.8-.1 1.1-.3c.4-.1.7-.4 1-.7l9.8-9.7z"/></svg>