<svg id="Layer_1" xmlns="http://www.w3.org/2000/svg" viewBox="0 0 100 100"><style>.st1{fill:#999}</style><path d="M0 0h100v100H0V0z" fill="#fff"/><path class="st1" d="M100 100H0V0h100v100zM9.7 90h80.7V10H9.7"/><path class="st1" d="M73.6 54.8c-2.1-.7-3.4-2.6-3.4-4.8s1.4-4.1 3.4-4.8c.6-.2 1-.9.8-1.5-.6-2.3-1.5-4.4-2.7-6.5-.3-.6-1.1-.8-1.7-.5-.7.4-1.6.6-2.4.6-2.8 0-5-2.3-5-5 0-.8.2-1.7.6-2.4.3-.6.1-1.3-.5-1.7-2-1.2-4.2-2.1-6.5-2.7-.6-.2-1.3.2-1.5.8-.7 2.1-2.6 3.4-4.8 3.4s-4.1-1.4-4.8-3.4c-.2-.6-.9-1-1.5-.8-2.3.6-4.4 1.5-6.5 2.7-.6.3-.8 1.1-.5 1.7.4.7.6 1.6.6 2.4 0 2.8-2.3 5-5 5-.8 0-1.7-.2-2.4-.6-.6-.3-1.3-.1-1.7.5-1.2 2-2.1 4.2-2.7 6.5-.2.6.2 1.3.8 1.5 2.1.7 3.4 2.6 3.4 4.8s-1.4 4.1-3.4 4.8c-.6.2-1 .9-.8 1.5.6 2.3 1.5 4.4 2.7 6.5.3.6 1.1.8 1.7.5.7-.4 1.6-.6 2.4-.6 2.8 0 5 2.3 5 5 0 .8-.2 1.7-.6 2.4-.3.6-.1 1.3.5 1.7 2 1.2 4.2 2.1 6.5 2.7h.3c.5 0 1-.3 1.2-.9.7-2.1 2.6-3.4 4.8-3.4s4.1 1.4 4.8 3.4c.2.6.9 1 1.5.8 2.3-.6 4.4-1.5 6.5-2.7.6-.3.8-1.1.5-1.7-.4-.7-.6-1.6-.6-2.4 0-2.8 2.3-5 5-5 .8 0 1.7.2 2.4.6.6.3 1.3.1 1.7-.5 1.2-2 2.1-4.2 2.7-6.5.2-.5-.1-1.2-.8-1.4zM50 57.6c-4.2 0-7.6-3.4-7.6-7.6s3.4-7.6 7.6-7.6 7.6 3.4 7.6 7.6-3.4 7.6-7.6 7.6z"/></svg>