<svg xmlns="http://www.w3.org/2000/svg" viewBox="0 0 100 100"><style>.st1{fill:#fea500}</style><path fill="#fff" d="M0 0h100v100H0z"/><path class="st1" d="M100 100H0V0h100v100zM9.7 90h80.7V10H9.7"/><circle class="st1" cx="50" cy="50.5" r="15.2"/><path class="st1" d="M48.9 33.5h2.2c.7 0 1.2-.6 1.2-1.2v-7.6c0-.7-.6-1.2-1.2-1.2h-2.2c-.7 0-1.2.6-1.2 1.2v7.6c0 .7.5 1.2 1.2 1.2zM67 49.4v2.2c0 .7.6 1.2 1.2 1.2h7.6c.7 0 1.2-.6 1.2-1.2v-2.2c0-.7-.6-1.2-1.2-1.2h-7.6c-.7 0-1.2.5-1.2 1.2zM51.1 77.5c.7 0 1.2-.6 1.2-1.2v-7.6c0-.7-.6-1.2-1.2-1.2h-2.2c-.7 0-1.2.6-1.2 1.2v7.6c0 .7.6 1.2 1.2 1.2h2.2zM24.2 52.8h7.6c.7 0 1.2-.6 1.2-1.2v-2.2c0-.7-.6-1.2-1.2-1.2h-7.6c-.7 0-1.2.6-1.2 1.2v2.2c0 .7.6 1.2 1.2 1.2zm38.5-13.5c.5.5 1.3.5 1.7 0l5.4-5.4c.5-.5.5-1.3 0-1.7l-1.5-1.5c-.5-.5-1.3-.5-1.7 0L61.2 36c-.5.5-.5 1.3 0 1.7l1.5 1.6zm5.6 31.1l1.5-1.5c.5-.5.5-1.3 0-1.7l-5.4-5.4c-.5-.5-1.3-.5-1.7 0l-1.5 1.5c-.5.5-.5 1.3 0 1.7l5.4 5.4c.5.4 1.2.4 1.7 0zm-34.9 0l5.4-5.4c.5-.5.5-1.3 0-1.7l-1.5-1.5c-.5-.5-1.3-.5-1.7 0l-5.4 5.4c-.5.5-.5 1.3 0 1.7l1.5 1.5c.5.4 1.2.4 1.7 0zm2.1-31.1c.5.5 1.3.5 1.7 0l1.5-1.5c.5-.5.5-1.3 0-1.7l-5.4-5.4c-.5-.5-1.3-.5-1.7 0l-1.5 1.5c-.5.5-.5 1.3 0 1.7l5.4 5.4z"/></svg>