<svg xmlns="http://www.w3.org/2000/svg" viewBox="0 0 100 100"><path fill="#fff" d="M0 0h100v100H0z"/><path d="M100 100H0V0h100v100zM9.7 90h80.7V10H9.7" fill="#f63"/><linearGradient id="a" gradientUnits="userSpaceOnUse" x1="1.249" y1="99.324" x2="1.249" y2="97.916" gradientTransform="matrix(39.6201 0 0 -35.5033 0 3550.329)"><stop offset="0" stop-color="#f88a36"/><stop offset="1" stop-color="#fd2020"/></linearGradient><path d="M63.7 70.5c-6.6 3.8-15.6 4.2-24.7.3-7.4-3.1-13.5-8.6-17.4-14.9 1.9 1.6 4.1 2.8 6.4 3.9 9.4 4.4 18.8 4.1 25.4 0C44 52.7 36 43.3 30.1 35.6c-1.3-1.3-2.2-2.8-3.1-4.2 7.2 6.6 18.6 14.9 22.7 17.2-8.6-9.1-16.3-20.4-16-20C47.3 42.3 60 50.2 60 50.2c.4.2.7.4 1 .6.3-.7.5-1.4.7-2.2 2.2-8-.3-17.1-5.8-24.6C68.6 31.7 76.1 46.1 73 58.1c-.1.3-.2.6-.3 1l.1.1c6.3 7.8 4.5 16.1 3.8 14.6-3.4-6.6-9.7-4.6-12.9-3.3z" fill="url(#a)"/></svg>