<svg xmlns="http://www.w3.org/2000/svg" viewBox="0 0 100 100"><path d="M0 0h100v100H0V0z" fill="#fff"/><path d="M100 100H0V0h100v100zM9.7 90h80.7V10H9.7" fill="#83ad51"/><path d="M40.5 23.1c-4.1 0-7.4 3.3-7.4 7.4s3.3 7.4 7.4 7.4c1.3 0 2.4-.4 3.5-.9l3 3-8.5 8.5c-1.5 1.5-1.5 3.8 0 5.3l.3.3L56 36.9c1 .6 2.2.9 3.5.9 4.1 0 7.4-3.3 7.4-7.4S63.6 23 59.5 23s-7.4 3.3-7.4 7.4c0 1.3.4 2.4.9 3.5l-3 3-3-3c.6-1 .9-2.2.9-3.5 0-4-3.4-7.3-7.4-7.3zm0 4.2c1.8 0 3.2 1.4 3.2 3.2s-1.4 3.2-3.2 3.2c-1.8 0-3.2-1.4-3.2-3.2s1.4-3.2 3.2-3.2zm19 0c1.8 0 3.2 1.4 3.2 3.2s-1.4 3.2-3.2 3.2-3.2-1.4-3.2-3.2 1.4-3.2 3.2-3.2zM26.7 42.1c-.3 0-.6 0-.9.1-.3.1-.5.1-.8.2-.2.1-.5.2-.7.4-.2.1-.4.3-.6.5-.2.2-.3.4-.5.6-.1.2-.3.4-.4.7v.1c-.1.2-.2.5-.2.7v.1c-.1.3-.1.5-.1.8v25.4c0 .3 0 .6.1.9.1.3.1.5.2.8.1.2.2.5.4.7.1.2.3.4.5.6.2.2.4.3.6.5.2.1.4.3.7.4h.1c.2.1.5.2.7.2h.1c.3.1.5.1.8.1h46.5c.3 0 .6 0 .9-.1.3-.1.5-.1.8-.2.2-.1.5-.2.7-.4.2-.1.4-.3.6-.5.2-.2.3-.4.5-.6.1-.2.3-.4.4-.7v-.1c.1-.2.2-.5.2-.7v-.1c.1-.3.1-.5.1-.8V46.3c0-.3 0-.6-.1-.9-.1-.3-.1-.5-.2-.8-.1-.2-.2-.5-.4-.7-.1-.2-.3-.4-.5-.6-.2-.2-.4-.3-.6-.5-.2-.1-.4-.3-.7-.4h-.1c-.2-.1-.5-.2-.7-.2H74c-.3-.1-.5-.1-.8-.1H56.3l-4.2 4.2H69c0 2.3 1.9 4.2 4.2 4.2v16.9c-2.3 0-4.2 1.9-4.2 4.2H31c0-2.3-1.9-4.2-4.2-4.2V50.6c2.3 0 4.2-1.9 4.2-4.2h4.9l4.2-4.2H26.7zM50 50.6c-4.7 0-8.5 4.3-8.5 9.5 0 3 1.3 5.7 3.2 7.4h10.5c1.9-1.7 3.2-4.4 3.2-7.4.1-5.3-3.7-9.5-8.4-9.5zm-16.9 6.3c-1.2 0-2.1.9-2.1 2.1s.9 2.1 2.1 2.1c1.2 0 2.1-.9 2.1-2.1s-1-2.1-2.1-2.1zm33.8 0c-1.2 0-2.1.9-2.1 2.1s.9 2.1 2.1 2.1c1.2 0 2.1-.9 2.1-2.1s-.9-2.1-2.1-2.1z" opacity=".9" fill="#83ad51" stroke="#83ad51" stroke-width=".5" stroke-miterlimit="10"/></svg>