<svg id="Layer_1" xmlns="http://www.w3.org/2000/svg" viewBox="0 0 100 100"><style>.st1{fill:#bababa}</style><path d="M0 0h100v100H0V0z" fill="#fff"/><path class="st1" d="M100 100H0V0h100v100zM9.7 90h80.7V10H9.7"/><path class="st1" d="M64.5 49.6c.7.6 1.6.5 2.2-.1.6-.6.6-1.5.1-2.1v-.1l-4.1-4.8c-.2-.2-.3-.5-.3-.7l-.6-9.1c-.1-.8-.8-1.5-1.6-1.5s-1.5.6-1.6 1.4v.1l-.7 10v.2c0 .6.2 1.2.7 1.7l.3.3 5.6 4.7z"/><path class="st1" d="M60.4 23.5c-8.4 0-15.5 5.4-18.1 12.9 1.7.2 3.3.6 4.8 1.1 2-5.3 7.2-9.1 13.2-9.1 7.8 0 14.2 6.4 14.2 14.2 0 7.1-5.2 12.9-12 14 .1.9.2 1.9.2 2.8 0 .7 0 1.4-.1 2.1 9.5-1.1 16.8-9.2 16.8-19 .1-10.5-8.5-19-19-19z"/><path class="st1" d="M57.1 56.6h-2.5c-.4-2-1.2-4-2.4-5.7l1.8-1.7c.6-.6.6-1.7 0-2.3L52.3 45c-.6-.6-1.7-.6-2.3 0l-1.8 1.7c-1.8-1.2-3.7-2-5.7-2.4v-2.5c0-.9-.7-1.6-1.6-1.6h-2.5c-.9 0-1.6.7-1.6 1.6v2.5c-2 .4-4 1.2-5.8 2.4L29.3 45c-.6-.6-1.7-.6-2.3 0l-1.8 1.8c-.6.6-.6 1.7 0 2.3l1.7 1.7c-1.2 1.8-2 3.7-2.4 5.8h-2.4c-.9 0-1.6.7-1.6 1.6v2.5c0 .9.7 1.6 1.6 1.6h2.4c.4 2 1.2 4 2.4 5.8l-1.7 1.7c-.6.6-.6 1.7 0 2.3l1.8 1.8c.6.6 1.7.6 2.3 0l1.7-1.6c1.8 1.2 3.8 2 5.8 2.4v2.4c0 .9.7 1.6 1.6 1.6h2.5c.9 0 1.6-.7 1.6-1.6v-2.4c2-.4 4-1.2 5.8-2.4L50 74c.6.6 1.7.6 2.3 0l1.8-1.8c.6-.6.6-1.7 0-2.3l-1.7-1.7c1.2-1.8 2-3.7 2.4-5.8h2.5c.9 0 1.6-.7 1.6-1.6v-2.5c-.2-1-.9-1.7-1.8-1.7zm-11.6 8.7c-3.3 3.2-8.5 3.2-11.8 0s-3.2-8.5 0-11.8c3.3-3.2 8.5-3.2 11.8 0 3.3 3.3 3.2 8.6 0 11.8z"/></svg>