<svg id="Layer_1" xmlns="http://www.w3.org/2000/svg" viewBox="0 0 100 100"><style>.st1{fill:#999}</style><path d="M0 0h100v100H0V0z" fill="#fff"/><path class="st1" d="M100 100H0V0h100v100zM9.7 90h80.7V10H9.7"/><path class="st1" d="M24.5 31.2V33l-2 .8V32c0 .1 2-.8 2-.8zm0 16.6v1.8l-2 .8v-1.7l2-.9zm0 16.8v1.8l-2 .8v-1.7c0 .1 2-.9 2-.9zm-.2-27.8v1.6l-1.7.7v-1.6c0 .1 1.7-.7 1.7-.7zm0 5.6V44l-1.6.6V43l1.6-.6zm0 11.2v1.6l-1.7.7v-1.7c0 .1 1.7-.6 1.7-.6zm0 5.6v1.6l-1.7.7V60l1.7-.8zm5.1-26.9v2.1l-2.7.9v-2l2.7-1zm0 16.8v2l-2.7 1v-2l2.7-1zm0 16.9v2l-2.7 1v-2l2.7-1zm-.1-27.9V40l-2.2.8v-1.9l2.2-.8zm0 5.6v1.9l-2.2.8v-1.9l2.2-.8zm0 11.2v1.9l-2.2.8v-1.9l2.2-.8zm0 5.6v1.9l-2.2.8v-1.9l2.2-.8zm5.3-27v2.4l-3.5 1.3v-2.4l3.5-1.3zm0 16.8v2.4L31.1 54v-2.4l3.5-1.3zm0 16.6v2.5l-3.5 1.3v-2.5l3.5-1.3zm-.2-27.6v2.2l-2.9 1.1v-2.1c0 .1 2.9-1.2 2.9-1.2zm0 5.6V47l-2.9 1.1V46l2.9-1.1zm0 11.2v2.1l-2.9 1.1v-2.1l2.9-1.1zm0 5.4v2.2l-2.9 1.1v-2.1l2.9-1.2zm5.7-28.1v3.1l-4.4 1.8v-3.1l4.4-1.8zm0 16.8v3.1l-4.4 1.8V52l4.4-1.8zm0 16.6v3.1l-4.4 1.8v-3.1l4.4-1.8zm-.2-27.6v2.9l-3.6 1.3v-2.8l3.6-1.4zm0 5.6v2.8l-3.6 1.6v-2.9l3.6-1.5zm0 11.2v2.9l-3.6 1.5v-2.9l3.6-1.5zm0 5.4v2.9l-3.6 1.3v-2.8c0 .1 3.6-1.4 3.6-1.4zm5.9-28.5v4l-4.9 2v-4l4.9-2zm0 16.8v4l-4.9 2v-4l4.9-2zm0 16.6v4l-4.9 2v-4l4.9-2zM45.6 39v3.4l-4 1.7v-3.4l4-1.7zm0 5.3v3.4l-4 1.7V46l4-1.7zm0 11.4v3.4l-4.3 1.7v-3.4l4.3-1.7zm0 5.5v3.4l-4 1.7v-3.4l4-1.7zm6.1-30.4v5.6l-5.2 2.2v-5.2c1.8-1 3.6-2 5.2-2.6zm0 6.1v4.9L46.6 44v-4.9l5.1-2.2zm0 5.5v4.9l-5.2 2.2v-4.9l5.2-2.2zm0 5.5v4.9L46.6 55v-4.9l5.1-2.2zm0 5.4v5l-5.2 2.2v-5.1l5.2-2.1zm0 5.6v4.9l-5.2 2.3v-5c.1 0 5.2-2.2 5.2-2.2zm0 5.5v5.2c-2.1.7-3.7 1.6-5.2 2.3v-5.3c.1 0 5.2-2.2 5.2-2.2zm26.8-33.5v39.2c-3.3-2.2-7.5-3.2-12.3-3.2-4 0-8.7.8-13.8 2.5v-5.3c2.7-1 5.7-1.9 8.9-2.3V49.2c-2.7.3-5.7 1.2-8.9 2.8v-3.6c2.8-1.2 5.7-2.2 8.9-2.6V33.3c-2.8.5-5.8 1.6-8.9 2.9v-5.5c4.6-2 8.9-2.9 13.3-2.9 4.6-.1 8.9.9 12.8 3.1zm-5.3 3.4c-2.2-1-4.7-1.7-7.7-1.7-.3 0-.6 0-1 .1v12.7h1.1c2.6 0 5.1.4 7.6 1.1V34.3zm0 16c-2.3-.9-4.9-1.6-7.6-1.6-.3 0-.7 0-1 .1v12.8h1.1c2.8 0 5.3.3 7.6 1V50.3h-.1zm3.4 21.5V71h-.3v-.2h.8v.1h-.3v.9h-.2zm.8 0v-1h.2l.3.7.3-.7h.2v1h-.1V71l-.3.8h-.2l-.3-.7v.8h-.1v-.1z"/></svg>