<svg xmlns="http://www.w3.org/2000/svg" viewBox="0 0 100 100"><path fill="#fff" d="M0 0h100v100H0z"/><path d="M100 100H0V0h100v100zM9.7 90h80.7V10H9.7" fill="#fea500"/><path d="M54.6 75l-4.4-14.1H34.1L29.7 75h-5.9l15.7-46.5h5.9L61.2 75h-6.6zM43.7 39.6c-.6-1.6-1.1-4.3-1.4-6h-.1c-.3 1.6-.8 4.1-1.5 6l-5.5 17.5H49l-5.3-17.5zm26.9-8c-1.9 0-3.6-1.5-3.6-3.3s1.6-3.3 3.6-3.3c1.9 0 3.6 1.5 3.6 3.3s-1.7 3.3-3.6 3.3zm-3 43.4V38.6h5.9V75h-5.9z" fill="#fea500" stroke="#fea500" stroke-width="3" stroke-miterlimit="10"/></svg>