<svg xmlns="http://www.w3.org/2000/svg" viewBox="0 0 100 100"><style>.st2{fill:#8ed200;stroke:#8ed200;stroke-width:.75;stroke-miterlimit:10}</style><path fill="#fff" d="M0 0h100v100H0z"/><path d="M100 100H0V0h100v100zM9.7 90h80.7V10H9.7" fill="#8ed200"/><path class="st2" d="M69.2 25H30.7v5.1h4.5c-.3 2.4-.6 5.1-.1 7.9.7 3.9 2.7 7.2 5.5 9.1.6.3 1.1.7 1.6.9 1.2.7 2.3 1.2 2.8 2.1.7 1.3-.3 3.2-1.6 4.3-.7.7-1.6 1.2-2.3 1.8-1 .7-2.1 1.4-3.1 2.3-3.2 3.2-3.9 7.6-4.3 12.4h-3V76h38.7v-5.1h-3c-.3-4.8-1.1-9.2-4.3-12.4-1-1-2.1-1.7-3.1-2.4-.9-.6-1.7-1.1-2.3-1.8-1.2-1.1-2.2-3-1.6-4.3.4-.9 1.6-1.6 2.8-2.1.6-.2 1.1-.6 1.6-.9 2.9-1.8 4.9-5.1 5.5-9.1.4-2.7.2-5.4-.1-7.9h4.5v-5h-.2zm-7.1 12.5c-.6 3.1-2.1 5.8-4.3 7.2-.4.3-.9.6-1.3.8-1.4.8-3.1 1.7-4 3.3-1.3 2.7.2 5.8 2.2 7.7.9.8 1.8 1.3 2.7 2 1 .7 1.9 1.3 2.7 2 2.5 2.5 3.1 6.3 3.4 10.4H36.4c.3-4.1 1-8 3.4-10.4.8-.8 1.7-1.3 2.7-2 .9-.6 1.8-1.2 2.7-2 2-1.9 3.5-4.9 2.2-7.6-.9-1.8-2.4-2.7-4-3.3-.4-.2-1-.4-1.3-.8-2.2-1.4-3.8-4-4.3-7.2-.4-2.6-.2-5.1.2-7.4h23.8c.5 2.2.7 4.8.3 7.3z"/><path class="st2" d="M59.5 68.9H40.4l9.1-7.1zm0-31.4H40.4l9.1 7.1z"/></svg>