<svg id="Layer_1" xmlns="http://www.w3.org/2000/svg" viewBox="0 0 100 100"><style>.st0{fill:#fff}.st3{fill:#543828}</style><path class="st0" d="M0 0h100v100H0V0z"/><path d="M100 100H0V0h100v100zM9.7 90h80.7V10H9.7" fill="#b4bdcc"/><g opacity=".65"><path class="st3" d="M43.3 27.7h3.2c.1 0 .1.1.2.1 1 .3 2.1.4 3.1.8 3.3 1.4 5.3 4 6.5 7.3.1.2.2.4.3.4.7.2 1.4.4 2.2.6l.1-.1c2-3.9 5.2-6.1 9.5-6.9 1.1-.2 2.2-.2 3.4.2-.1.1-.2.2-.2.3-1.4 1.6-2.6 3.3-2.9 5.4-.1.7-.2 1.4-.4 2.1-.4 1.9-1 3.7-2.5 5-1.9 1.7-4.1 2.1-6.6 2.1-.1 0-.3-.2-.4-.3-.2-.4-.4-.8-.5-1.2-1.6.3-2.1.8-2.3 2.1.5.1 1 .1 1.5.2 4.2.5 8.4 1.1 12.5 2 1.9.4 3.9.9 5.7 1.9 1 .5 1.5 1.3 1.8 2.3.1.2.1.4.2.7v1.5c-.1.2-.1.3-.2.5-.2.7-.6 1.4-1.2 1.9-.7.6-1.6.8-2.6.9.2 1.2-.4 2-1.4 2.5-.6.3-1.2.6-1.9.7-.9.1-1.9 0-2.8 0-.7 1.3-2 1.6-3.3 1.7-1.3.1-2.6-.3-3.6-1-.4.7-1 1-1.8 1-1.4.1-2.7-.2-3.9-.8l-.2-.1.1.1c.8 1.5 1.7 3.1 2.5 4.7.3.5.3 1.2.3 1.8 0 1.1-.6 1.8-1.5 2.1-.1.9-.6 1.6-1.3 2.1-.9.6-1.9.8-2.9.7-.2 0-.5-.1-.5 0-.5.7-1.3 1-2.1 1.3h-1.2c-.7-.2-1.4-.9-2.2-.3-.1.1-.3.1-.5.1-.9.1-2.4-.5-2.8-1.8-.4-1.3-1-2.5-1.5-3.8l-.1.2c-1.2 2.3-3.6 3.1-5.9 1.9-1.2-.6-2.3-1.5-3.2-2.5-5.9-6.8-8.3-14.6-6.7-23.5 1.5-8.3 8-14.8 16.2-16.5.4-.2 1.1-.3 1.8-.4zm10 13.9c1.3.1 2.6.1 3.8-.4 1.1-.5 2.3-.5 3.5-.3.8.2 1.6.3 2.4.5-.4-.4-.8-.7-1.2-1-2-1.5-4.2-2.5-6.7-2.7-.2 0-.6 0-.7.1-.8 1.1-1.3 2.2-1.2 3.6-.1.9.1 1.7.5 2.5 1.4-.6 2.8-1.3 4.2-1.9v-.4c-.7.2-1.4.4-2.1.5-1 .1-1.8.1-2.5-.5zm12.9-8.4c-1.6 1.7-2.7 3.7-3.8 5.7l2.8 2.3c.8-1.1 1.2-2.3 1.4-3.6.5-2.2.6-4.5 2.3-6.3-3.2-.1-7.8 3.2-8.9 6.2l1.6.9c.1-.2.2-.3.3-.5.5-.8 1-1.7 1.6-2.5.8-.8 1.6-1.7 2.7-2.2zm-5.8 18.1c1 .1 1.9.2 2.9.3l9.2.9c.4 0 .9.1 1.4.1-.3-.8-.6-1.4-1.3-1.6-.7-.2-1.3-.4-2-.6-2.7-.5-5.3-1.1-8-1.6-2.6-.4-5.2-.7-7.9-1-.2 0-.4 0-.5.2-.5.5-1 1-1.4 1.5-2.7 1.9-5.7 2.4-8.9 2.5.8-.3 1.6-.5 2.4-.8 2.5-1 4.8-2.3 6.4-4.6.2-.3.3-.6.1-1-.7-1.3-1.1-2.8-1.1-4.3 0-1.8.7-3.5 1.9-4.8.2-.2.3-.4.1-.7-.9-1.9-2.2-3.4-4-4.5-2.2-1.3-4.6-1.4-7.1-1.1-5.5.8-9.8 3.6-12.7 8.3-2.7 4.3-3.6 9-2.9 14 .2 1.5.6 3.1 1.3 4.5.2.4.3.8.5 1.1 3.4 6.1 8.5 9.5 15.4 10 4.1.3 7.6-2 8.9-5.8.3-.9.6-1.7.1-2.6.9.8 2 1.1 3.2 1.2 1.2.1 2.2-.3 2.7-1.2.1 0 .3.1.4.2 1 .4 2 .6 3 .5 1.4-.1 2-.7 2.1-2 .7.1 1.4.2 2 .2 1.9-.1 2.9-1.1 2.5-2.7.8 0 1.6 0 2.3-.1.8-.1 1.4-.6 2-1.3L66 52.8c-2.5-.5-4.9-.9-7.4-1.4v-.1h1.8zm-1.3-10c.2.7.3 1.3.5 1.9.1.3.3.4.6.4 1.2-.1 2.3-.3 3.4-.9.1-.1.3-.2.6-.3l-2.9-.8-.4.7h-.1v-.8l-1.7-.2z"/><path d="M28.3 57c-.7-1.4-1.1-2.9-1.3-4.5-.7-5 .2-9.8 2.9-14 3-4.7 7.2-7.5 12.7-8.3 2.5-.4 4.9-.3 7.1 1.1 1.8 1.1 3.1 2.6 4 4.5.1.3.1.5-.1.7-1.3 1.4-1.9 3-1.9 4.8 0 1.5.4 3 1.1 4.3.2.4.2.6-.1 1-1.6 2.3-3.8 3.6-6.4 4.6-.8.3-1.6.5-2.4.8 3.2 0 6.2-.5 8.9-2.5-.6.9-1 2-1.7 2.8-3.2 4.2-7.4 6.1-12.8 4.6-.5-.2-1-.2-1.5.2-.2.2-.5.2-.8.3-2.6.8-5.2.7-7.7-.4zM45 35c-2.6 0-4.6 2-4.6 4.7 0 2.5 2.1 4.6 4.6 4.6 2.6 0 4.6-2.1 4.6-4.7 0-2.5-2.1-4.6-4.6-4.6z" fill="#e95927"/><path d="M28.3 57c2.5 1.1 5 1.3 7.6.5.3-.1.6-.2.8-.3.5-.4.9-.3 1.5-.2 5.4 1.5 9.7-.4 12.8-4.6.7-.9 1.1-1.9 1.7-2.8.5-.5.9-1 1.4-1.5.1-.1.3-.2.5-.2 2.6.3 5.3.6 7.9 1 2.7.4 5.3 1 8 1.6-.1 0-.2.1-.3.1-3.3.3-6.6.5-9.9.8h-1.7v.1c2.5.5 4.9.9 7.4 1.4-.1.3-.1.7-.3.9-.4.4-.9.7-1.4.8-.6.1-1.3 0-1.9 0 .1.6 0 1.2-.5 1.7-.4.3-.8.6-1.2.7-1.1.4-2.2.5-3.3-.2-.3 1.2-1.2 1.5-2.1 1.6-1 .2-1.9 0-2.7-.7l-.1.1.8 1.8c.4.9.2 1.8-.1 2.6-1.3 3.8-4.8 6.1-8.9 5.8-6.9-.5-12.1-3.9-15.4-10-.3-.3-.4-.7-.6-1zm24.2.6c0 .1 0 0 0 0z" fill="#fbcd00"/><path d="M62.4 54.5c.6 0 1.3.1 1.9 0 .5-.1 1-.5 1.4-.8.2-.2.2-.6.3-.9l7.4 1.5c-.5.8-1.2 1.2-2 1.3s-1.6.1-2.3.1c.4 1.6-.5 2.7-2.5 2.7-.7 0-1.3-.1-2-.2-.1 1.3-.8 1.9-2.1 2-1 .1-2.1-.1-3-.5-.1-.1-.3-.1-.4-.2-.5.9-1.5 1.4-2.7 1.2-1.2-.1-2.3-.4-3.2-1.2l-.8-1.8.1-.1c.8.7 1.7.8 2.7.7 1-.2 1.9-.5 2.1-1.6 1.1.6 2.2.6 3.3.2.4-.2.8-.4 1.2-.7.7-.4.8-1 .6-1.7.1 0 0 0 0 0z" fill="#3daf00"/><path d="M66.2 33.2c-1.1.5-2 1.3-2.7 2.3-.5.8-1 1.7-1.5 2.5-.1.1-.2.3-.3.5l-1.6-.9c1-3 5.7-6.3 8.9-6.2-1.7 1.8-1.8 4.1-2.3 6.3-.3 1.3-.6 2.5-1.4 3.6L62.5 39c1-2.1 2.1-4 3.7-5.8l.2-.1c0 .1-.2.1-.2.1z" fill="#25a7f0"/><path d="M53.2 41.4c-.1-1.4.4-2.5 1.2-3.6.1-.1.4-.2.7-.1 2.5.2 4.7 1.2 6.7 2.7.4.3.8.6 1.2 1-.8-.2-1.6-.4-2.4-.5-1.2-.2-2.4-.2-3.5.3-1.2.5-2.5.5-3.8.4l-.1-.2z" fill="#cbcbca"/><path d="M60.4 51.3c3.3-.3 6.6-.5 9.9-.8.1 0 .2-.1.3-.1.7.2 1.4.4 2 .6.7.2 1 .8 1.3 1.6-.5-.1-1-.1-1.4-.1l-9.2-.9c-1-.1-2-.2-2.9-.3z" fill="#3eae00"/><path d="M59.1 41.3l1.6.2v.8h.1l.4-.7 2.9.8c-.3.2-.4.3-.6.3-1.1.6-2.2.8-3.4.9-.3 0-.5-.1-.6-.4 0-.6-.2-1.2-.4-1.9z" fill="#25a5ec"/><path d="M53.2 41.4l.1.2c.7.6 1.5.6 2.4.5.7-.1 1.4-.3 2.1-.5v.4l-4.2 1.9c-.3-.8-.6-1.6-.4-2.5z" fill="#c9c8c7"/><path d="M45 35c2.6 0 4.6 2 4.6 4.6s-2.1 4.7-4.6 4.7-4.6-2.1-4.6-4.6c-.1-2.6 1.9-4.7 4.6-4.7zm2.7 4.7c0-1.6-1.2-2.8-2.8-2.8-1.5 0-2.8 1.2-2.8 2.8 0 1.5 1.2 2.8 2.8 2.8 1.6-.1 2.8-1.3 2.8-2.8z" fill="#fbcb00"/><path class="st3" d="M66.2 33.2l.2-.1-.2.1c.1.1 0 0 0 0z"/><path d="M47.7 39.7c0 1.6-1.2 2.8-2.8 2.8-1.5 0-2.8-1.2-2.8-2.8 0-1.5 1.3-2.8 2.8-2.8 1.6 0 2.8 1.2 2.8 2.8zm-2.8-.1c.5-.2.9-.3 1.3-.5.5-.3.4-.9 0-1.2-.6-.5-1.9-.5-2.6 0-.4.4-.5.9 0 1.2.4.2.9.3 1.3.5z" fill="#553928"/><path class="st0" d="M44.9 39.6c-.5-.2-.9-.3-1.3-.5-.5-.3-.4-.9 0-1.2.6-.5 1.9-.5 2.6 0 .4.4.5.9 0 1.2-.3.2-.8.3-1.3.5z"/></g></svg>