<svg xmlns="http://www.w3.org/2000/svg" viewBox="0 0 100 100"><path fill="#fff" d="M0 0h100v100H0z"/><path d="M100 100H0V0h100v100zM9.7 90h80.7V10H9.7" fill="#c11e07"/><path fill="none" d="M63 34.3h-4.6v-2.5H42.6v2.5H38v-2.5h-6.7v6.8h38.4v-6.8H63z"/><path d="M62.5 23.5h-4.3v3.8H42.9v-3.8h-4.4v3.8H26.8v49.2h34.3l13.1-13V27.3H62.5v-3.8zM69 62.3H58.7v8.9H32V43.1h37v19.2zm0-29.8V39H32v-6.5h6.5v2.3h4.3v-2.3h15.3v2.3h4.4v-2.3H69z"/><path d="M36.8 52.8H42c.1 0 .2-.1.2-.2v-5.2c0-.1-.1-.2-.2-.2h-5.2c-.1 0-.2.1-.2.2v5.2c0 .1.1.2.2.2zm7.4 0h5.2c.1 0 .2-.1.2-.2v-5.2c0-.1-.1-.2-.2-.2h-5.2c-.1 0-.2.1-.2.2v5.2c0 .1.1.2.2.2zm7.4 0h5.2c.1 0 .2-.1.2-.2v-5.2c0-.1-.1-.2-.2-.2h-5.2c-.1 0-.2.1-.2.2v5.2c0 .1.1.2.2.2zm7.4 0h5.2c.1 0 .2-.1.2-.2v-5.2c0-.1-.1-.2-.2-.2H59c-.1 0-.2.1-.2.2v5.2c0 .1.1.2.2.2zm-22.2 7.4H42c.1 0 .2-.1.2-.2v-5.2c0-.1-.1-.2-.2-.2h-5.2c-.1 0-.2.1-.2.2V60c0 .1.1.2.2.2zm7.4 0h5.2c.1 0 .2-.1.2-.2v-5.2c0-.1-.1-.2-.2-.2h-5.2c-.1 0-.2.1-.2.2V60c0 .1.1.2.2.2zm7.4 0h5.2c.1 0 .2-.1.2-.2v-5.2c0-.1-.1-.2-.2-.2h-5.2c-.1 0-.2.1-.2.2V60c0 .1.1.2.2.2zm7.4 0h5.2c.1 0 .2-.1.2-.2v-5.2c0-.1-.1-.2-.2-.2H59c-.1 0-.2.1-.2.2V60c0 .1.1.2.2.2zm-22.2 7.4H42c.1 0 .2-.1.2-.2v-5.2c0-.1-.1-.2-.2-.2h-5.2c-.1 0-.2.1-.2.2v5.2c0 .1.1.2.2.2zm7.4 0h5.2c.1 0 .2-.1.2-.2v-5.2c0-.1-.1-.2-.2-.2h-5.2c-.1 0-.2.1-.2.2v5.2c0 .1.1.2.2.2zm7.4 0h5.2c.1 0 .2-.1.2-.2v-5.2c0-.1-.1-.2-.2-.2h-5.2c-.1 0-.2.1-.2.2v5.2c0 .1.1.2.2.2z"/></svg>