<svg xmlns="http://www.w3.org/2000/svg" viewBox="0 0 100 100"><path d="M0 0h100v100H0V0z" fill="#fff"/><path d="M100 100H0V0h100v100zM9.7 90h80.7V10H9.7" fill="#666"/><path d="M43.5 35.9c5.1-.4 6.6-3.7 12.6-4.3 2.9-.3 4.8.4 5 1.4.2 1-1.3 1.6-3.1 1.8-2.5.3-3.5-.7-3.7-1.5-1.8.2-2.1 1-2 1.5.2 1.1 2.4 2.1 6.2 1.7 4.3-.4 5.7-2 5.3-3.7-.4-2.2-3.7-4-9.6-3.5-7.6.7-7.5 4.2-12.7 4.6-2.1.2-3.3-.3-3.5-1.1-.1-.8.9-1.2 2.1-1.3 1.1-.1 2.5.1 3.2.4.5-.3.7-.5.6-.8-.2-.8-1.8-1.1-3.7-1-3.8.4-3.8 2.1-3.7 2.8.5 2 3.4 3.3 7 3zm25.7 8.6c-4.7 1.1-10.8 1.8-18.1 1.8-7.4 0-13.5-.8-18.2-1.8-4.2-1.1-6.5-2.3-7.3-3.5.4 2.8 1.1 5.4 2 8-1.1.7-2.1 1.5-2.9 2.6-1.7 2.1-2.4 4.6-2.3 7s1.3 4.4 3.2 5.9c2 1.5 4.1 2 6.5 1.5.9-.1 2-.7 2.9-.9-2 0-3.6-.7-5.3-2-1.8-1.3-3.1-3.2-3.3-5.4-.4-2.1 0-4.1 1.2-5.8.3-.4.5-.6.8-.9.7 1.7 1.4 3.2 2.3 4.8 1.8 2.8 3.6 5.2 5.4 7.8.8 1.5 1.3 3.1 1.7 4.6 1.2 1.7 2.9 2.8 5 3.5 2.6.9 5.3 1.3 8.1 1.3h.3c2.8 0 5.7-.4 8.3-1.3 2-.7 3.6-1.8 4.9-3.5h.1c.3-1.3.8-3 1.5-4.5 1.8-2.6 3.6-5 5.4-7.8 2.4-4.4 4.1-9.4 5-14.7-.8 1.2-3.1 2.4-7.2 3.3zM33 40.7c4.7 1.2 10.8 1.8 18.1 1.8 7.4 0 13.3-.7 18.1-1.8 5-1.2 7.4-2.8 7.4-4.2 0-1.1-1.1-2.1-3.1-2.9.4.3.8.8.8 1.3 0 1.5-2.3 2.8-6.8 3.8-4.2.9-9.6 1.6-16.2 1.6-6.4 0-12-.7-16.1-1.5-4.4-1.1-6.7-2.3-6.7-3.8 0-.7.3-1.2 1.2-1.8-2.8 1.1-4.2 2-4.2 3.3 0 1.6 2.4 3.1 7.5 4.2z" fill="#28334c"/></svg>