<svg xmlns="http://www.w3.org/2000/svg" viewBox="0 0 100 100"><path fill="#fff" d="M0 0h100v100H0z"/><path d="M100 100H0V0h100v100zM9.7 90h80.7V10H9.7" fill="#b4bdcc"/><path d="M31 33.7c11.6-13.5 33.2-10.9 41.2 4.9H52.8c-3.5 0-5.7-.1-8.2 1.2-2.9 1.5-5 4.3-5.8 7.6L31 33.7z" opacity=".55" fill="#f44336"/><path d="M41.7 50c0 4.6 3.7 8.3 8.3 8.3s8.3-3.7 8.3-8.3-3.7-8.3-8.3-8.3c-4.6 0-8.3 3.7-8.3 8.3z" opacity=".55" fill="#2196f3"/><path d="M53.2 60.9c-4.7 1.4-10.1-.2-13.1-5.3-2.3-3.9-8.3-14.4-11.1-19.2-9.6 14.7-1.3 34.8 16.1 38.2l8.1-13.7z" opacity=".55" fill="#4caf50"/><path d="M57.7 41.7c3.9 3.6 4.7 9.5 2.1 14-2 3.4-8.3 14.1-11.4 19.3 18 1.1 31-16.5 25.1-33.3H57.7z" opacity=".55" fill="#ffc107"/></svg>