<svg xmlns="http://www.w3.org/2000/svg" viewBox="0 0 100 100"><path fill="#fff" d="M0 0h100v100H0z"/><path d="M100 100H0V0h100v100zM9.7 90h80.7V10H9.7" fill="#999"/><path d="M49.8 26.5c-4.4 0-7.9 4.2-7.9 9.3 0 5.1 3.6 9.3 7.9 9.3s7.9-4.2 7.9-9.3c0-5.1-3.6-9.3-7.9-9.3zm0 15c-2.4 0-4.4-2.6-4.4-5.7 0-3.2 2-5.7 4.4-5.7s4.4 2.6 4.4 5.7c0 3.2-2 5.7-4.4 5.7zm-16.1 1.8v-15c0-1-.8-1.8-1.8-1.8s-1.8.8-1.8 1.8v15c0 1 .8 1.8 1.8 1.8s1.8-.8 1.8-1.8zm-1.8 10.3c-4.4 0-7.9 4.2-7.9 9.3 0 5.1 3.6 9.3 7.9 9.3s7.9-4.2 7.9-9.3c.1-5.1-3.5-9.3-7.9-9.3zm0 15.1c-2.4 0-4.4-2.6-4.4-5.7 0-3.2 2-5.7 4.4-5.7s4.4 2.6 4.4 5.7c.1 3.1-1.9 5.7-4.4 5.7zm19.6 1.7v-15c0-1-.8-1.8-1.8-1.8s-1.8.8-1.8 1.8v15c0 1 .8 1.8 1.8 1.8s1.8-.8 1.8-1.8zm18.3-25.8v-15c0-1-.8-1.8-1.8-1.8s-1.8.8-1.8 1.8v15c0 1 .8 1.8 1.8 1.8s1.8-.8 1.8-1.8zm-1.7 10.3c-4.4 0-7.9 4.2-7.9 9.3 0 5.1 3.6 9.3 7.9 9.3s7.9-4.2 7.9-9.3c0-5.1-3.6-9.3-7.9-9.3zm0 15.1c-2.4 0-4.4-2.6-4.4-5.7 0-3.2 2-5.7 4.4-5.7s4.4 2.6 4.4 5.7-2 5.7-4.4 5.7z" fill="#999" stroke="#999" stroke-width="2" stroke-miterlimit="10"/></svg>