<svg xmlns="http://www.w3.org/2000/svg" viewBox="0 0 100 100"><path fill="#fff" d="M0 0h100v100H0z"/><path d="M100 100H0V0h100v100zM9.7 90h80.7V10H9.7" fill="#999"/><path d="M41.9 48.5l-15.4-7.7v-.1L41.9 33v-5.3L21.4 38.6v4.2l20.5 10.8v-5.1zM52.4 44l1-18h-6.7l1 18h4.7zM50 55.2c2.2 0 3.8-2 3.8-4.4 0-2.7-1.5-4.4-3.8-4.4s-3.8 1.8-3.8 4.4c-.1 2.4 1.4 4.4 3.8 4.4zm8.1-27.5V33l15.7 7.6v.1l-15.7 7.7v5.2l20.5-10.8v-4.4L58.1 27.7zM24.5 60.5h51.2V64H24.5v-3.5zm0 10h51.2V74H24.5v-3.5z" fill="#999" stroke="#999" stroke-width=".75" stroke-miterlimit="10"/></svg>