<svg xmlns="http://www.w3.org/2000/svg" viewBox="0 0 100 100"><path fill="#fff" d="M0 0h100v100H0z"/><path d="M100 100H0V0h100v100zM9.7 90h80.7V10H9.7" fill="#369"/><path d="M71.9 50.5c-.7-.3-1.5 0-1.8.7-1.5 3.4-3.9 6.4-6.9 8.7l-9.1-18.5c1.4-1.1 2.2-2.7 2.2-4.6 0-2.9-2-5.3-4.8-5.8v-4.6c0-.7-.5-1.4-1.4-1.4-.7 0-1.4.5-1.4 1.4V31c-2.7.5-4.8 3-4.8 5.8 0 1.9.8 3.5 2.2 4.6L37 59.9c-3-2.3-5.4-5.2-6.9-8.7-.3-.7-1.1-1-1.8-.7-.7.3-1 1.1-.7 1.8 1.8 4.1 4.6 7.3 8.2 9.9l-5.4 10.9c-.3.7 0 1.5.5 1.8.1 0 .4.1.5.1.4 0 1-.3 1.2-.7l5.2-10.6c3.7 2 7.6 3 11.8 3s8.2-1.1 11.8-3l5.2 10.6c.1.4.7.7 1.2.7.1 0 .4 0 .5-.1.7-.3 1-1.1.5-1.8l-5.3-10.9c3.5-2.4 6.4-6 8.2-9.9 1-.7.7-1.5.2-1.8zM50.1 33.4c1.9 0 3.4 1.5 3.4 3.4s-1.5 3.4-3.4 3.4-3.4-1.5-3.4-3.4 1.7-3.4 3.4-3.4zm0 30.7c-3.8 0-7.3-1-10.6-2.7l9.2-18.6c.4.1 1 .1 1.5.1s1 0 1.5-.1L61 61.4c-3.4 1.8-7.1 2.7-10.9 2.7z" fill="#369" stroke="#369" stroke-width="3" stroke-miterlimit="10"/></svg>