<svg xmlns="http://www.w3.org/2000/svg" viewBox="0 0 100 100"><style>.st1{fill:#fea500}</style><path fill="#fff" d="M0 0h100v100H0z"/><path class="st1" d="M100 100H0V0h100v100zM9.7 90h80.7V10H9.7"/><path class="st1" d="M42.8 41.9V26.3c0-1.6 1.3-2.8 2.8-2.8h17.7l9.1 9.1v9.2c0 .3-.3.6-.6.6h-3.1c-.3 0-.6-.3-.6-.6v-6.2h-5.8c-1.2 0-2.1-.9-2.1-2.1v-5.6H47.1v14c0 .3-.3.6-.6.6h-3.1c-.3 0-.6-.3-.6-.6zm0 33.6V47.8c0-.6.4-1 1-1h30.6c.6 0 1 .4 1 1V71c0 3-2.5 5.5-5.5 5.5H44c-.8 0-1.2-.4-1.2-1zm21.5-21.4c0 1.3 1 2.2 2.2 2.2s2.2-1 2.2-2.2c0-1.3-1-2.2-2.2-2.2-1.1-.2-2.2.8-2.2 2.2zm0 7.6c0 1.3 1 2.2 2.2 2.2 1.3 0 2.2-1 2.2-2.2s-1-2.2-2.2-2.4c-1.1 0-2.2 1-2.2 2.4zm-7.5-7.6c0 1.2 1 2.2 2.2 2.2 1.2 0 2.2-1 2.2-2.2 0-1.2-1-2.2-2.2-2.2-1.2-.2-2.2.8-2.2 2.2zm0 7.6c0 1.2 1 2.2 2.2 2.2 1.3 0 2.2-1 2.2-2.2 0-1.3-1-2.2-2.2-2.4-1.2 0-2.2 1-2.2 2.4zm0 7.5c0 1.2 1 2.2 2.2 2.2 1.3 0 2.2-1 2.2-2.2 0-1.2-1-2.2-2.2-2.2-1.2 0-2.2 1-2.2 2.2zm-7.6-15.1c0 1.3 1 2.2 2.2 2.2 1.2 0 2.2-1 2.2-2.2 0-1.3-1-2.2-2.2-2.2-1.3-.2-2.2.8-2.2 2.2zm0 7.6c0 1.3 1 2.2 2.2 2.2 1.3 0 2.2-1 2.2-2.2 0-1.3-1-2.2-2.2-2.4-1.2 0-2.2 1-2.2 2.4zm0 7.5c0 1.2 1 2.2 2.2 2.2 1.3 0 2.2-1 2.2-2.2 0-1.2-1-2.2-2.2-2.2-1.3 0-2.2 1-2.2 2.2zM30 76.5h7.3c.6 0 1-.4 1-1V40.9c0-.6-.4-1-1-1h-5.8c-3.9 0-7 3.1-7 7v24.3c0 2.8 2.4 5.3 5.5 5.3z"/></svg>