<svg xmlns="http://www.w3.org/2000/svg" viewBox="0 0 100 100"><path d="M0 0h100v100H0V0z" fill="#fff"/><path d="M100 100H0V0h100v100zM9.7 90h80.7V10H9.7" fill="#033"/><path d="M77.4 31.2c-2-3.6-5.6-4.8-8.1-4.8-3.2-.1-5.7 1.7-5.2 2.9.1.2.7 1.5 1.1 2 .5.7 1.5.2 1.8 0 1-.5 2-.7 3.2-.5 1.2.1 2.6.8 3.6 2.7 2.3 4.5-5 14-14.2 7.4s-18.1-4.3-22.1-3.1c-4 1.3-5.9 2.6-4.3 5.7 2.2 4.1 1.5 2.9 3.6 6.3 3.4 5.4 10.7-2.5 10.7-2.5-5.5 8-10.1 6.1-11.9 3.3-1.6-2.5-2.9-5.5-2.9-5.5-13.7 4.9-10 26.3-10 26.3h6.9c1.8-7.9 8-7.6 9.1 0h5.2c4.7-15.4 16.4 0 16.4 0h6.8c-1.9-10.6 3.8-13.9 7.4-20 3.3-6 6.7-13.6 2.9-20.2zM59.8 51.5c-3.6-1.2-2.3-4.8-2.3-4.8s3.2 1.1 7.4 2.4c-.3 1.2-2.5 3.3-5.1 2.4z" fill="#02303a"/><path d="M61.8 49.8c.1.9-.6 1.8-1.6 1.9-1 .1-1.9-.6-2-1.5s.6-1.8 1.6-1.9c1-.1 1.9.6 2 1.5" fill="#00303a"/></svg>