<svg xmlns="http://www.w3.org/2000/svg" viewBox="0 0 100 100"><path fill="#fff" d="M0 0h100v100H0z"/><path d="M100 100H0V0h100v100zM9.7 90h80.7V10H9.7" fill="#c11e07"/><path d="M31.7 71.7h27.2v-9.1h10.5V42.9H31.7v28.8zm10-21.1l6.5 6.1 11-11 4.1 4.1-15 15-10.6-10 4-4.2zm21.1-16h-4.5v-2.4H42.7v2.4h-4.5v-2.4h-6.5v6.6h37.6v-6.6h-6.5z" fill="none"/><path d="M63.3 49.9l-4.1-4.1-11 11-6.5-6.2-4 4.3 10.6 10z"/><path d="M62.3 24H58v3.8H43V24h-4.3v3.8H27.3V76H61l12.8-12.8V27.8H62.3V24zm6.3 38.1H58.5v8.8H32.4V43.2h36.3l-.1 18.9zm0-29.2v6.4H32.4v-6.4h6.4v2.3h4.3v-2.3h15v2.3h4.3v-2.3h6.2z"/></svg>