<svg xmlns="http://www.w3.org/2000/svg" viewBox="0 0 100 100"><path fill="#fff" d="M0 0h100v100H0z"/><path d="M100 100H0V0h100v100zM9.7 90h80.7V10H9.7" fill="#db007b"/><path d="M29.1 73.7V26.9h6.3v46.8h-6.3zm31.2.6c-10.5 0-16-6.5-16-16.1 0-9.5 5.4-17.1 16-17.1 1.8 0 3.7.2 5.6.7v-15h5.9V72c-2.4 1.3-6.7 2.3-11.5 2.3zm5.6-29.5c-1.4-.4-3.1-.6-4.6-.6-8.3 0-11.1 6.4-11.1 13.5 0 7.6 2.9 13.2 10.4 13.2 2.4 0 4.1-.3 5.3-.9V44.8z" fill="#db007b" stroke="#db007b" stroke-width="3" stroke-miterlimit="10"/></svg>