<svg xmlns="http://www.w3.org/2000/svg" viewBox="0 0 100 100"><path fill="#fff" d="M0 0h100v100H0z"/><path d="M100 100H0V0h100v100zM9.7 90h80.7V10H9.7" fill="#666"/><path d="M78.2 22.5s-11 5.3-20 6.4c-9 1.2-26.1 2.3-29.5 1.5-3.4-.8-5.8-1.8-5.8-1.8l.7 2.4-2.2 2 .4.7.9.1 2.8.3.4 1.2 1.5.1.8 2.6s3.3.3 4.2.3 2.9-.1 2.9-.1l.1 1 .7.1v1.2l-1.5 1.4.4.1v.5s-3.5.3-4.9.1c-1.4-.2-1.7-.2-1.7-.2l-.1.1-.1.5h.3l.1 2.7 7.1-.3-.5 9.2-.1 1.2-6-.3V53h1.3l.1-1 1.2-.3.2-.3-4.6-1.1-3.5 1 .6.5h.6l.1.8 1.2.1v2.4l-1.3.4.3.5.3.2V58h.8v8.6l-1.3.2.2 2.5.8.1-.1 5.7 3.7.1-.8-5.5 5.5-.1-.4 3-.5 2.1 5.6.1.1-5.5L43 69l-.2 3.5-.1 2.1H46l-.1-5.6.5.1.1-2.7H46l-.2-1.1-.5-3.3.1-3.6h.7v-2.2l-.9.1.1-2.6 1-.1v-.8l.6-.1.6-.5-3.5-.8-3.6.8.4.6h.8l.1 1.1h1v2.3l-4.3-.1.1-2.4.1-2.2v-2.9l.1-3.1 8.7-.4 10.4-.6.1 2-.4 4.7-.2 4.4-3.8-.1v-3.1l1.4-.1.1-.9.6-.1v-.2h.6l.3-.4-4.3-1-4.3.9.3.5h.5v.2h.6v1h1.3V55h-1.3v.6l.5.1V58l.9.1-.1 9.3-1.3.3v.4h.4v2.4h.7l-.2 3.3-.2 2.8 4.6.1-.2-2.7-.4-2-.1-1.8 3.9-.1-.1 2.8v2.9l2.2.2 3-.1.9-.3-.6-1.6-.1-2.4-.2-1.7 3.7-.1-.2 2.1v3.4l1.5.1h1.5l.7-.2-.4-3.2-.1-2.4.6-.1v-2.1h.2v-.5h-.7l-.1-1.6-.1-6.8h.5v-2.2h.2v-.4l-.8-.1v-2.6l1.3-.1-.1-.9.6-.1v-.2l.8-.4-4-.8-4.1.8.3.5.6-.1v.2h.5v1h1.3l.1 2.5h-4.6l-.5-3.8-.4-2-.4-3.6.2-2.1 9.3-.7v-3.1l.5-.1v-.5l-.4-.2s-5.1.8-6.7.9c-.5 0-.4 0-.8.1v-.6l-1.9-1v-1.2h.7v-1.6s3.9-.3 5.4-.6l3.5-.7 1-2.7 1.9-.6.2-.4 4.4-1.2.5-.4-1.7-3.6.2-.8.8-.4.6-1.9-.3-.3zM57.1 36.4v1.3h1L58 39l-1.9 1.3-.1.4h.8v.3l-6 .3v-.9l.3-.4v-.9l.2-.4.1-.3v-.2l.3-1 5.4-.8zm-12.4 1.1l-.1.9.4.6v1l.4.7-.1.8.3.5-6.1.2V42l.7-.1v-.3l-1.5-.8-.1-1.3h.7l.1-1.4 5.3-.6zm9 20.5l3.7.2-.1 5 .5 4.1-3.9-.1-.2-9.2zm-24.7.3l5.9.3-.5 3.4v2.9l.4 1.6-5.8.2v-8.4zm37.8 0v8.5L63 67l-.1-4.5-.4-4.2h4.3zm-28.4.2h4.4v7.9l-4.1.1-.2-2.6v-2.5l-.1-2.9z" fill="#b41717" stroke="#b41717" stroke-width=".25" stroke-miterlimit="10"/></svg>