<svg xmlns="http://www.w3.org/2000/svg" viewBox="0 0 100 100"><style>.st1{fill:#963}</style><path fill="#fff" d="M0 0h100v100H0z"/><path class="st1" d="M100 100H0V0h100v100zM9.7 90h80.7V10H9.7"/><path class="st1" d="M75.8 45.7c-.3-.6-.7-1.2-1.3-1.6-.1.5-.3 1-.6 1.5L58.3 69.8c-.6.9-1.9 1.1-2.9.8l-25-7c-1.5-.4-3.3-1.3-3.4-3 0-.6 0-.9.4-1.1.3-.3.8-.2 1.1-.1L52 66c3.4 1 4.4.2 6.9-3.5l14.4-22.2c.7-1.2.9-2.5.5-3.6s-1.4-2-2.7-2.4l-20.6-5.7c-.5-.1-1-.1-1.5-.1v-.1c-3.2-1.9-4.4 1.7-6 3-.6.5-1.4.8-1.7 1.3-.2.5-.1 1-.3 1.4-.6 1.4-2.4 3.6-3.3 4.3-.6.4-1.2.5-1.6 1.1-.3.4-.2 1.1-.4 1.6-.5 1.2-2.1 3.3-3.2 4.4-.4.4-1 .6-1.3 1.1-.3.4-.2 1.1-.4 1.6-.7 1.3-2.2 3.2-3.4 4.3-.6.6-1.3.9-1.6 1.5-.1.3 0 .7-.2 1.1-.2.6-.5 1.1-.7 1.7-.7.9-1 2.1-.9 3.4.2 3.1 2.5 6 5.3 6.8l25 7c2.3.6 5.2-.5 6.6-2.5l14.4-22.2c.7-1.1.9-2.4.5-3.6zm-28.9-7.9l1.1-1.6c.3-.4.9-.7 1.4-.5l16.5 4.6c.5.1.7.6.4 1l-1.1 1.6c-.3.4-.9.7-1.4.5l-16.5-4.6c-.5-.2-.7-.6-.4-1zM42.7 44l1.1-1.6c.3-.4.9-.7 1.4-.5l16.5 4.6c.5.1.7.6.4 1L60.9 49c-.3.4-.9.7-1.4.5L43.1 45c-.5-.1-.7-.6-.4-1z"/></svg>