<svg xmlns="http://www.w3.org/2000/svg" viewBox="0 0 100 100"><path fill="#fff" d="M0 0h100v100H0z"/><path d="M100 100H0V0h100v100zM9.7 90h80.7V10H9.7" fill="#999"/><path d="M73.2 57.6l-.2-.3c-.1-.1-.1-.2-.2-.3 0-4.5-2.6-8.4-6.4-10.2-.4-1.5-.1-2.1-.1-2.2l.3-.6h3.9c.9 0 1.7-.3 2.3-.9 2.1-2.1 3.2-4.8 3.2-7.8 0-5.5-4-10-9.3-10.7-.3-.1-.5-.1-.8-.1h-31c-6 0-10.8 4.9-10.8 10.8 0 .5 0 .9.1 1.4.1 10.1 7.8 18.4 11.8 22h-7.7c-1.2 0-2.3.6-2.8 1.7-1 1.6-1.5 3.4-1.5 5.2 0 6 4.9 10.8 10.8 10.8 1.2 0 31 .1 31 .1h.3c5.6-.5 9.9-5.3 9.9-10.9 0-2.8-1.1-5.8-2.8-8m-7.3-29.8c3.9.4 6.9 3.6 6.9 7.6 0 2.1-.9 4.1-2.3 5.5H42.3c1.1-1.5 1.8-3.4 1.8-5.5 0-3.1-1.6-5.9-4-7.6h25.8zM27.2 65.6c0-1.3.4-2.6 1-3.7h13.2c.6 1.1 1 2.3 1 3.7 0 4.2-3.4 7.6-7.6 7.6-4.2 0-7.6-3.4-7.6-7.6m38.7 7.6H40.1c2.4-1.7 4-4.5 4-7.7 0-3.1-1.6-5.9-4-7.6h.1s-12.8-9.5-12.9-21.5c-.1-.4-.1-.8-.1-1.2 0-4.2 3.4-7.6 7.6-7.6s7.6 3.4 7.6 7.6v.6c-.1.7-.2 1.4-.4 2-.3.8-.7 1.6-1.3 2.2L39 42.5h24.8c-.1.2-.2.3-.3.5-.5.8-.6 1.7-.6 2.8-.5-.1-1-.1-1.5-.1-6.3-.1-11.4 5-11.4 11.3s5.1 11.4 11.4 11.4c4.7 0 8.7-2.8 10.4-6.8.6 1.3 1 2.7 1 4 0 3.9-3.1 7.3-6.9 7.6m.4-16.3l-7.5 5.7V51.3l7.5 5.6z" fill="#999" stroke="#999" stroke-width=".5" stroke-miterlimit="10"/></svg>