<svg xmlns="http://www.w3.org/2000/svg" viewBox="0 0 100 100"><style>.st1{fill:#1d6fb5}</style><path fill="#fff" d="M0 0h100v100H0z"/><path class="st1" d="M100 100H0V0h100v100zM9.7 90h80.7V10H9.7"/><path class="st1" d="M37.8 46.5c-2.2.3-3.9 2.6-3.9 5s1.7 4.9 3.9 5c2.2.3 3.9-2 3.9-5s-1.8-5.3-3.9-5z"/><path class="st1" d="M22.7 31.8v39.8l31.1 5.6V25.8l-31.1 6zm15.1 27.9c-3.5-.4-6.2-4.2-6.2-8.2 0-4.2 2.7-7.8 6.2-8.2 3.5-.4 6.2 3.3 6.2 8.2 0 5-2.8 8.6-6.2 8.2zm40.5-21.9L61.2 52.1l-4.6-3.7V36.5h21.7v1.3z"/><path class="st1" d="M78.3 40.6L61.2 54.8l-4.6-3.7v16h21.7V40.6z"/></svg>