<svg xmlns="http://www.w3.org/2000/svg" viewBox="0 0 100 100"><style>.st1{fill:#bababa}</style><path fill="#fff" d="M0 0h100v100H0z"/><path class="st1" d="M100 100H0V0h100v100zM9.7 90h80.7V10H9.7"/><path class="st1" d="M75.6 41c-.7-.1-1.2-.3-1.9-.1-1.5.1-3.1.9-4.6 1.2-1.1.1-2-.7-2.1-1.9-.3-3.5-.3-7.1 0-10.6 0-.5-.4-.8-.8-.8-4-.1-7.9.3-12.1 1.2-1.1.3-1.9 1.2-1.9 2.1.1 2.1 1.6 4.6.9 6.8-.5 2-2.1 3.5-4.3 3.9-2 .4-4.2-.5-5.2-2.1-1.3-1.9-.7-4.6-1.2-6.8-.3-1.1-1.3-1.6-2.4-1.5-4 .4-7.9 1.3-11.7 2.8-.5.1-.8.7-.5 1.1 1.5 3.2 2.5 6.6 3.5 10.1.3 1.1-.4 2.1-1.5 2.4-1.5.4-3.2.1-4.7.5-.7.1-1.2.4-1.7.8-1.9 1.2-2.7 3.2-2.4 5.2.3 1.9 1.7 3.5 3.5 4.3 2.3.8 4.3-.7 6.6-.8 1.1-.1 2 .7 2.1 1.9.3 3.5.3 7.1 0 10.6 0 .5.4.8.8.8 4 .3 8-.3 12.1-1.2 1.1-.3 1.9-1.2 1.9-2.1-.1-2.3-1.7-4.6-1.1-7 .5-1.9 2.4-3.5 4.3-3.8 1.9-.3 4.2.5 5.2 2.1 1.5 1.9.7 4.7 1.2 7 .3 1.1 1.3 1.6 2.4 1.5 4-.4 8-1.2 11.7-2.8.5-.1.8-.7.5-1.1-1.5-3.2-2.5-6.6-3.5-10.1-.3-1.1.4-2.1 1.5-2.4 2.1-.5 4.6.1 6.6-1.3 1.5-1.2 2.4-3.2 2-5.1.2-2.5-1.4-4.2-3.2-4.8z"/></svg>