<svg xmlns="http://www.w3.org/2000/svg" viewBox="0 0 100 100"><path d="M0 0h100v100H0V0z" fill="#fff"/><path d="M100 100H0V0h100v100zM9.7 90h80.7V10H9.7" fill="#b4bdcc"/><path d="M75.1 27.6H24.9c-1.9 0-3.4 1.5-3.4 3.4v34.8c0 1.9 1.5 3.4 3.4 3.4H75c1.9 0 3.4-1.5 3.4-3.4V31c.1-1.9-1.4-3.4-3.3-3.4z" fill="#ced2d8"/><path d="M24.9 36h50.2v29.7H24.9V36z" fill="#f2f2f2"/><circle cx="34" cy="32.1" r="1.1" fill="#54b845"/><circle cx="30.1" cy="32.1" r="1.1" fill="#fbd303"/><circle cx="26.3" cy="32.1" r="1.1" fill="#f0582f"/><path d="M42.8 76.6c-.7-.5-1.3-1-1.8-1.7-.6-.7-1.1-1.4-1.6-2.1-1.1-1.6-2-3.4-2.6-5.3-.7-2.2-1.1-4.3-1.1-6.4 0-2.3.5-4.3 1.5-6 .7-1.3 1.8-2.4 3.1-3.2 1.2-.8 2.7-1.2 4.2-1.2.5 0 1.1.1 1.7.2.4.1.9.3 1.6.5.8.3 1.2.5 1.4.5.5.2.9.2 1.2.2.2 0 .6-.1.9-.2.2-.1.6-.2 1.2-.5.6-.2 1-.4 1.4-.5.5-.2 1.1-.3 1.5-.4.6-.1 1.1-.1 1.7-.1 1 .1 2 .3 2.8.6 1.5.6 2.7 1.5 3.6 2.9-.4.2-.7.5-1.1.8-.7.6-1.3 1.4-1.8 2.2-.6 1.1-1 2.4-.9 3.7 0 1.6.4 3 1.2 4.2.6.9 1.3 1.6 2.2 2.2.5.3.9.5 1.2.7-.2.5-.4 1.1-.6 1.6-.5 1.2-1.1 2.3-1.8 3.4-.6.9-1.1 1.6-1.5 2.1-.6.7-1.2 1.2-1.7 1.6-.6.4-1.4.6-2.1.6-.5 0-1 0-1.5-.2-.4-.1-.8-.3-1.3-.5-.4-.2-.9-.4-1.3-.5-.6-.1-1.1-.2-1.7-.2-.6 0-1.2.1-1.7.2s-.9.3-1.3.5c-.6.3-1 .4-1.2.5-.5.1-1 .2-1.4.3-1.1.2-1.8 0-2.4-.5zm10-27c-1 .5-1.9.7-2.9.6-.1-.9 0-1.9.4-3 .4-.9.8-1.7 1.5-2.5s1.5-1.4 2.4-1.8c1-.5 1.9-.8 2.8-.8.1 1 0 2-.4 3-.3.9-.8 1.8-1.5 2.6-.7.9-1.5 1.5-2.3 1.9z" fill="#c6a8e5"/></svg>