<svg id="Layer_1" xmlns="http://www.w3.org/2000/svg" viewBox="0 0 100 100"><style>.st1{fill:#999}</style><path d="M0 0h100v100H0V0z" fill="#fff"/><path class="st1" d="M100 100H0V0h100v100zM9.7 90h80.7V10H9.7"/><path class="st1" d="M52.5 53.7l3.7 1 2.1-8-3.6-1c0-1.3-.2-2.6-.5-3.9l3.3-1.9-4.1-7.2-3.4 2c-.9-.9-2-1.7-3.1-2.4l1-3.7-8-2.1-1 3.7c-1.3 0-2.6.2-3.9.5l-1.9-3.3-7.1 4.2 1.9 3.3c-.9.9-1.7 2-2.4 3.1l-3.6-1-2.1 8 3.6 1c0 1.3.2 2.6.5 3.9l-3.3 1.9 4.1 7.2 3.3-1.9c.9.9 2 1.7 3.1 2.4l-1 3.6 8 2.1 1-3.7c1.3 0 2.6-.2 3.9-.5l1.9 3.3 7.2-4.1-1.9-3.3c.9-1 1.7-2.1 2.3-3.2zm-19.8-4.2c-2-3.5-.8-8 2.7-10.1 3.5-2 8-.8 10.1 2.7 2 3.5.8 8-2.7 10.1-3.6 2-8.1.8-10.1-2.7zm38.8 25.4l4.7-2.7-1.3-2.2c.6-.6 1.1-1.3 1.5-2l2.4.6 1.4-5.2-2.4-.6c0-.8-.1-1.7-.3-2.5l2.1-1.2-2.6-4.8-2.1 1.2c-.6-.6-1.3-1.1-2-1.5l.6-2.4-5.2-1.4-.6 2.4c-.8 0-1.7.1-2.5.3L64 50.8l-4.7 2.7 1.2 2.1c-.6.6-1.1 1.3-1.5 2l-2.6-.6-1.4 5.3 2.4.6c0 .8.1 1.7.3 2.5l-2.1 1.2 2.7 4.7 2.1-1.2c.6.6 1.3 1.1 2 1.5l-.6 2.4 5.2 1.4.6-2.4c.8 0 1.7-.1 2.5-.3.1.1 1.4 2.2 1.4 2.2zm-8-9.6c-1.3-2.3-.5-5.3 1.8-6.6 2.3-1.3 5.3-.5 6.6 1.8 1.3 2.3.5 5.3-1.8 6.6-2.4 1.3-5.3.5-6.6-1.8z"/></svg>