<svg id="Layer_1" xmlns="http://www.w3.org/2000/svg" viewBox="0 0 100 100"><style>.st1{fill:#999}</style><path d="M0 0h100v100H0V0z" fill="#fff"/><path class="st1" d="M100 100H0V0h100v100zM9.7 90h80.7V10H9.7"/><path class="st1" d="M74.5 69L56.6 51.1l-.5-.5 3.2-3.3.5-.5c4.2 1.6 9.1.7 12.5-2.7 2.5-2.5 3.7-5.9 3.4-9.4 0-.4-.3-.7-.7-.9-.4-.1-.8 0-1.1.2l-5.7 5.7-5.8-1.5-1.6-6 5.7-5.7c.3-.3.4-.7.2-1.1-.1-.4-.5-.6-.9-.7-3.5-.3-6.9.9-9.4 3.4-3.4 3.4-4.3 8.3-2.7 12.5-.2.1-.3.3-.5.5l-4.7 4.5-8.5-8.4-.3-.3c.1-.2.2-.4.3-.5 1.8.3 5.1-3.2 7.9-6l-8.2-8.2c-3.7 3.7-6.3 6.1-6 7.9-.8.4-1.6.9-2.1 1.4l-1.2 1.2c-.7.7-1.2 1.7-1.4 2.7-.1.1-.2.3-.3.4l-.4.5s0 .1-.1.1l-.3.6c-.2.3-.5.7-.7 1-.1.1-.2.3-.2.4v.1l-.2.3-.6 1.2v.1c-.2.5-.4 1.1-.6 1.6l-.1.3c-.1.2-.1.4-.2.6l-.2.8c-.1.5-.2 1-.2 1.4v.3c-.1.4 0 .9 0 1.2v1.2l.1.6c0 .1 0 .2.1.4 0 .3.1.5.2.8l.4 1.5c.1.4.5.7 1 .7.2 0 .5-.1.6-.3.1-.1.2-.3.3-.6l.2-1.5c0-.1.1-.3.1-.5 0-.1.1-.3.1-.4l.2-.6c0-.1.1-.1.1-.2s.1-.1.1-.2c.1-.1.1-.2.1-.4.1-.2.2-.5.3-.7.1-.1.1-.2.2-.3.1-.3.3-.5.4-.7l.4-.5c.1-.1.2-.2.2-.3l.2-.2c.2-.3.5-.5.7-.7l.1-.1c.2-.2.4-.3.6-.5.1-.1.2-.1.3-.2.1-.1.2-.1.3-.2.2-.1.4-.2.6-.4l.4-.2.4-.2c.2-.1.3-.1.4-.2.1 0 .2-.1.2-.1.1 0 .2-.1.2-.1.1 0 .2-.1.3-.1h.1c.1.2.3.4.5.6l8.5 8.5-17.9 17.4c-2.2 2.2-2.6 5.5-.4 7.8 2.2 2.2 5.3 1.7 7.6-.6l16-16.8.3.3 17.9 17.9c2 2 5.3 2 7.3 0 1.9-2 1.9-5.2-.1-7.2zm-43.7 4c-.8.8-2.2.8-3 0-.8-.8-.8-2.2 0-3 .8-.8 2.2-.8 3 0 .8.8.8 2.2 0 3z"/></svg>