<svg xmlns="http://www.w3.org/2000/svg" viewBox="0 0 100 100"><path d="M0 0h100v100H0V0z" fill="#fff"/><path d="M100 100H0V0h100v100zM9.7 90h80.7V10H9.7" fill="#999"/><path d="M50.1 54c-3.7-3.6-7-6.8-8.9-14.3h13.1v-5.4h-13V27h-5.7v7.4H22.5V40h13.4s-.1 1-.3 1.9c-1.9 7.3-4 11.9-13.1 16.4l1.9 5.5c8.5-4.5 12.9-10.3 14.9-16.5 1.9 4.8 5.1 8.6 8.6 12.2l2.2-5.5zm17.3-17.8H60L46.8 72.9h5.7l3.7-11h14.9l3.7 11h5.7c-.1 0-13.1-36.7-13.1-36.7zm-9.3 20.2l5.7-14.6 5.7 14.7-11.4-.1z" fill="#999" stroke="#999" stroke-width=".75" stroke-miterlimit="10"/></svg>