<svg xmlns="http://www.w3.org/2000/svg" viewBox="0 0 100 100"><path fill="#fff" d="M0 0h100v100H0z"/><path d="M100 100H0V0h100v100zM9.7 90h80.7V10H9.7" fill="#d5006e"/><path d="M19.7 33.6h6.8l7.6 22.7c.7 2 1.3 5.1 1.3 5.1h.1s.6-3.1 1.3-5.1l7.7-22.7h6.8L38.7 68.4h-6.3L19.7 33.6zm36 0h12.4c6.3 0 10.7 3.2 10.7 9 0 3.2-1.6 6-4.2 7.4v.1c3.8 1.1 5.6 4.7 5.6 8.2 0 7-5.6 10.1-12 10.1H55.7V33.6zm12.5 14.2c2.7 0 4.3-2 4.3-4.5S71 39 68.1 39h-6v8.8h6.1zm.6 15.2c3.2 0 5-2.1 5-5s-1.9-5-5-5H62v10h6.8z" fill="#d5006e" stroke="#d5006e" stroke-miterlimit="10"/></svg>