<svg id="Layer_1" xmlns="http://www.w3.org/2000/svg" viewBox="0 0 100 100"><style>.st1{fill:#d10407}</style><path d="M0 0h100v100H0V0z" fill="#fff"/><path class="st1" d="M100 100H0V0h100v100zM9.7 90h80.7V10H9.7"/><path class="st1" d="M67.7 37.6c1.4-.5 2.9-.7 4.4-.7V27c-6.7-.2-13.1 2.8-17.2 8.1-1.7 2.2-3.2 4.6-4.3 7.2l-3.2 7.9c-.8 2.4-1.8 4.8-2.9 7.1-.8 1.9-1.8 3.6-3 5.3-1 1.4-2.4 2.5-3.9 3.2-1.7.8-3.6 1.2-5.5 1.2v10c6.7.2 13.1-2.8 17.2-8.1 1.3-1.8 2.5-3.7 3.5-5.7l2.7-6.3h11.6V47h-7.6c.6-1.5 1.4-2.9 2.3-4.3.7-1.2 1.6-2.2 2.6-3.1 1-.9 2.1-1.6 3.3-2z"/><path d="M39.2 43.4L36 38.6l-3.1 4.8h-5l5.6-7.8-5.3-7.6h4.9l3.1 4.4 3-4.4h4.7l-5.4 7.4 5.7 8h-5z" fill="#d10407" stroke="#d10407" stroke-width="2.5" stroke-miterlimit="10"/></svg>