<?xml version="1.0" standalone="no"?>
<!DOCTYPE svg PUBLIC "-//W3C//DTD SVG 20010904//EN"
 "http://www.w3.org/TR/2001/REC-SVG-20010904/DTD/svg10.dtd">
<svg version="1.0" xmlns="http://www.w3.org/2000/svg"
 width="460.000000pt" height="460.000000pt" viewBox="0 0 460.000000 460.000000"
 preserveAspectRatio="xMidYMid meet">
<metadata>
Created by potrace 1.11, written by Peter Selinger 2001-2013
</metadata>
<g transform="translate(0.000000,460.000000) scale(0.100000,-0.100000)"
fill="#000000" stroke="none">
<path d="M2030 4484 c-306 -165 -332 -179 -390 -211 -30 -16 -100 -54 -155
-83 -55 -29 -173 -93 -262 -141 -90 -49 -207 -112 -260 -140 -54 -28 -116 -62
-138 -74 -22 -12 -85 -46 -140 -76 -55 -29 -129 -69 -165 -88 -36 -20 -121
-65 -188 -101 -67 -36 -122 -67 -122 -70 0 -3 26 -18 58 -35 58 -30 316 -169
427 -230 33 -18 179 -96 325 -175 146 -78 299 -160 340 -183 41 -22 102 -55
135 -72 33 -18 112 -61 175 -95 63 -35 149 -81 190 -103 41 -21 95 -50 120
-64 168 -92 250 -133 251 -126 4 31 3 2157 -1 2163 -3 5 -93 -39 -200 -96z"/>
<path d="M2380 3500 c0 -600 3 -1090 6 -1090 3 0 24 11 47 24 23 13 188 103
367 198 179 96 334 180 345 186 25 14 318 172 440 237 77 41 204 109 518 279
37 20 95 51 130 70 34 18 88 47 119 64 l58 30 -33 20 c-17 11 -70 40 -117 65
-121 64 -200 107 -405 217 -99 53 -216 116 -260 140 -44 23 -133 72 -199 107
-65 36 -153 83 -195 105 -42 22 -94 50 -116 63 -22 12 -85 46 -140 75 -55 29
-122 65 -150 80 -151 83 -406 220 -410 220 -3 0 -5 -490 -5 -1090z"/>
<path d="M190 2289 l0 -1090 53 29 c28 17 113 64 187 105 74 41 268 149 430
239 162 91 358 200 435 243 77 43 169 95 205 115 36 20 85 48 110 62 25 13
157 87 293 163 l248 138 -48 26 c-26 15 -109 61 -183 103 -74 41 -155 86 -180
100 -25 14 -103 58 -175 98 -71 40 -150 84 -175 98 -25 14 -196 109 -380 212
-184 103 -355 198 -380 212 -25 14 -101 56 -170 95 -189 106 -257 143 -264
143 -3 0 -6 -491 -6 -1091z"/>
<path d="M4375 3362 c-16 -10 -55 -32 -85 -49 -30 -16 -76 -42 -102 -57 -27
-14 -68 -37 -93 -51 -25 -14 -64 -36 -87 -49 -24 -13 -70 -38 -103 -56 -33
-18 -89 -49 -125 -70 -36 -20 -94 -53 -130 -72 -36 -19 -85 -46 -110 -60 -25
-14 -133 -74 -240 -133 -107 -59 -231 -128 -275 -153 -44 -25 -110 -62 -146
-81 -36 -20 -163 -90 -282 -156 l-217 -120 0 -1122 c0 -971 2 -1123 14 -1123
8 0 18 5 21 10 4 6 21 17 38 25 31 13 65 32 247 135 80 45 682 378 800 442 30
17 69 38 85 48 33 19 100 57 185 103 30 16 81 45 113 63 32 19 60 34 62 34 2
0 30 15 62 34 62 36 149 84 305 169 l98 52 0 1128 c0 620 -1 1127 -2 1127 -2
0 -16 -8 -33 -18z"/>
<path d="M2100 2118 c-69 -38 -180 -98 -248 -134 -67 -36 -137 -73 -155 -83
-18 -10 -126 -68 -242 -131 -115 -62 -237 -127 -270 -145 -194 -105 -806 -434
-912 -491 -71 -38 -71 -38 -46 -51 28 -14 135 -72 313 -168 63 -34 156 -84
205 -110 50 -27 108 -58 130 -70 75 -41 170 -93 235 -127 89 -48 462 -248 535
-288 33 -18 87 -47 120 -65 33 -18 96 -52 140 -75 44 -24 127 -69 185 -100 58
-32 114 -62 125 -68 20 -10 20 -7 19 1079 0 599 -2 1090 -5 1092 -2 2 -60 -27
-129 -65z"/>
</g>
</svg>
