<svg id="Layer_1" xmlns="http://www.w3.org/2000/svg" viewBox="0 0 100 100"><style>.st1{fill:#a03537}</style><path id="BG" fill="#fff" d="M0 0h100v100H0z"/><path id="Border" class="st1" d="M100 100H0V0h100v100zM9.7 90h80.7V10H9.7"/><path class="st1" d="M78 57.9c-.1 1.2-1.8 2.2-5 3-3.2.7-7.2 1.1-12 1.1-1.4 0-2.8 0-4.1-.1v7.5c1.3.1 2.7.1 4.1.1 4.8 0 8.8-.5 12-1.3 3.2-.8 4.9-1.8 5-3.1v-7.2zm-17-5.4c-1.4 0-2.7 0-4.1-.1l.1 7.7c1.3 0 2.7.1 4.1.1 4.8 0 8.8-.4 12-1.3 3.2-.8 4.8-1.8 5-3.1v-7.4c-.1 1.2-1.8 2.2-5 3-3.3.7-7.3 1.1-12.1 1.1zm0-9.4c-1.4 0-2.7 0-4.1-.1v7.6c1.3.1 2.7.1 4.1.1 4.8 0 8.8-.5 12-1.3 3.2-.8 4.9-1.8 5-3.1V39c-.1 1.2-1.8 2.2-5 3-3.2.7-7.2 1.1-12 1.1zm0-10.6c-1.4 0-2.7.1-4.1.2v8.5c1.3.1 2.7.1 4.1.1 4.8 0 8.8-.5 12-1.3 3.2-.8 4.9-1.8 5-3.1-.1-1.2-1.8-2.3-5-3.1-3.2-.9-7.2-1.3-12-1.3zM37.9 44.4c-.1.5-.4 1.9-.9 4.3l-1 4.2 4.1.1-1-4.2c-.6-2.4-1-3.9-1-4.3l-.2-.1zM23 30.8v40.6l31 5.4V25.2l-31 5.6zM42 61l-1.2-4.6-5.7-.2-1.1 4.4-3.6-.2L35.9 41l4.2-.2 6 20.6L42 61z"/></svg>