<svg id="Layer_1" xmlns="http://www.w3.org/2000/svg" viewBox="0 0 100 100"><style>.st1{fill:#c33}</style><path fill="#fff" d="M0 0h100v100H0z"/><path class="st1" d="M100 100H0V0h100v100zM9.7 90h80.7V10H9.7"/><path class="st1" d="M26.8 35.6h7.3L41.5 65h-6.7l-1.2-6.2h-6.2L26.2 65h-6.7l7.3-29.4zm5.8 17.6l-1.1-5.8c-.4-1.9-.9-5-.9-5h-.2s-.4 3.2-.8 5l-1.1 5.8h4.1zM45 56.8c1.1 1.3 2.9 2.5 4.8 2.5 1.8 0 2.7-1.1 2.7-2.5 0-4-9.8-4.4-9.8-12.8 0-5 3.4-8.8 9.3-8.8 2.4 0 5 .7 7 2.1l-2.4 5.9c-1-.9-3-1.8-4.4-1.8-1.9 0-2.7 1.1-2.7 2.5 0 4.3 9.8 4.1 9.8 12.6 0 4.8-3 9-9.1 9-2.9 0-5.9-1-8.2-3l3-5.7zm17.4-21.2h9.2c5.4 0 8.9 4.2 8.9 10.1s-3.6 10.2-8.9 10.2h-2.5V65h-6.7V35.6zm8 14.4c2.1 0 3.3-1.8 3.3-4.2s-1.4-4.1-3.2-4.1h-1.4V50h1.3z"/></svg>