<svg id="Layer_1" xmlns="http://www.w3.org/2000/svg" viewBox="0 0 100 100"><style>.st1{fill:#0e3693}</style><path d="M0 0h100v100H0V0z" fill="#fff"/><path class="st1" d="M100 100H0V0h100v100zM9.7 90h80.7V10H9.7"/><path class="st1" d="M58 67.4V48l11.5-1.9c-1.8-9.7-10.3-17-20.5-17-11.6 0-21 9.4-21 20.9 0 11.5 9.4 20.9 20.9 20.9 1.1 0 2.2-.1 3.3-.3.8-1.4 2.3-2.5 4.3-3 .4-.1.9-.2 1.5-.2zm-5.3-36.6l-2.2 9.8h-2.2l-1.6-9.8c2.3-1.2 6 0 6 0zm-3.8 27c-4.3 0-7.8-3.5-7.8-7.8s3.5-7.8 7.8-7.8 7.8 3.5 7.8 7.8c-.1 4.3-3.5 7.8-7.8 7.8zm0-13.7c-3.3 0-5.9 2.7-5.9 5.9 0 3.3 2.7 5.9 5.9 5.9 3.3 0 5.9-2.7 5.9-5.9 0-3.3-2.6-5.9-5.9-5.9zm0 10.1c-2.3 0-4.2-1.9-4.2-4.2 0-2.3 1.9-4.2 4.2-4.2 2.3 0 4.2 1.9 4.2 4.2 0 2.3-1.9 4.2-4.2 4.2zm2.7 20c.1.6.3 1.1.6 1.6-1.1.1-2.2.2-3.3.2-14.3 0-26-11.7-26-26s11.7-26 26-26c12.7 0 23.3 9.2 25.6 21.3l-2.5.4c-2-10.9-11.6-19.1-23-19.1-13 0-23.6 10.5-23.6 23.4 0 12.9 10.5 23.4 23.4 23.4.9 0 1.7-.1 2.6-.1.1.3.1.6.2.9zm25.5-27.5v22.5c0 1.9-1.4 3.4-3.6 3.9-2.4.6-4.7-.4-5.1-2.2-.5-1.8 1.1-3.8 3.5-4.4 1.1-.3 2.1-.2 3 .1V53l-12.2 2.2-.1 16.9c0 1.6-1.5 3.2-3.5 3.7-2.4.6-4.8-.5-5.1-2.2-.5-1.8 1.1-3.8 3.5-4.3 1.1-.3 2.1-.2 3 .1v-20l16.6-2.7z"/></svg>