<svg xmlns="http://www.w3.org/2000/svg" viewBox="0 0 100 100"><path fill="#fff" d="M0 0h100v100H0z"/><path d="M100 100H0V0h100v100zM9.7 90h80.7V10H9.7" fill="#59aa5a"/><path d="M38.4 70c-10.8 0-15.7-10.3-15.7-21.5S27.6 27 38.4 27c3.3 0 6 .9 8.2 2.3l-1.4 3.4c-1.5-1-3.8-1.8-6.1-1.8-7.5 0-10.5 8.8-10.5 17.5s3 17.4 10.5 17.4c2.3 0 4.6-.8 6.1-1.8l1.5 3.7c-2.3 1.4-5 2.3-8.3 2.3zm24.9-.1c-1.9 0-3.9-.4-5.1-.8v13.4h-5.3V38.2C55.7 36.7 59.3 36 63 36c9.4 0 14.5 6.5 14.5 16.4.1 10.9-5.6 17.5-14.2 17.5zm-.5-30.7c-1.6 0-3.4.2-4.7.9v25.7c1 .4 2.4.7 4 .7 6.7 0 10.1-5.1 10.1-13.8 0-8.2-2.5-13.5-9.4-13.5z" fill="#59aa5a" stroke="#59aa5a" stroke-width="3" stroke-miterlimit="10"/></svg>