<svg id="Layer_1" xmlns="http://www.w3.org/2000/svg" viewBox="0 0 100 100"><style>.st2{fill:#01579b}.st5{opacity:.2;fill:#fff;enable-background:new}</style><path d="M0 0h100v100H0V0z" fill="#fff"/><path d="M100 100H0V0h100v100zM9.7 90h80.7V10H9.7" fill="#666"/><path class="st2" d="M35.2 64.8l-8.5-8.5c-1-1-1.6-2.5-1.6-3.9 0-.7.4-1.7.7-2.3l7.9-16.4 1.5 31.1z"/><path d="M64.5 35.2L56 26.7c-.7-.7-2.3-1.6-3.6-1.6-1.1 0-2.2.2-3 .7l-15.8 7.9 30.9 1.5zM45.4 75h20.7v-8.9l-15.4-4.9-14.2 4.9z" fill="#40c4ff"/><path d="M33.6 60.2c0 2.6.3 3.3 1.6 4.6l1.3 1.3h29.6L51.6 49.7l-18-16.1v26.6z" fill="#29b6f6"/><path class="st2" d="M59.9 33.6H33.5l32.6 32.6H75V45.7L64.5 35.2c-1.5-1.5-2.8-1.6-4.6-1.6z"/><path class="st5" d="M35.5 65.1c-1.3-1.3-1.6-2.6-1.6-4.9V33.9l-.3-.3v26.6c0 2.3 0 2.9 1.9 4.9l1 1-1-1z"/><path opacity=".2" fill="#263238" d="M74.7 45.4v20.4h-8.9l.3.3H75V45.7z"/><path class="st5" d="M64.5 35.2c-1.6-1.6-3-1.6-4.9-1.6h-26l.3.3h25.7c.9 0 3.4-.2 4.9 1.3z"/><radialGradient id="SVGID_1_" cx="50.002" cy="312.467" r="24.996" gradientTransform="translate(0 -262.467)" gradientUnits="userSpaceOnUse"><stop offset="0" stop-color="#fff" stop-opacity=".1"/><stop offset="1" stop-color="#fff" stop-opacity="0"/></radialGradient><path d="M74.7 45.4L64.5 35.2 56 26.7c-.7-.7-2.3-1.6-3.6-1.6-1.1 0-2.2.2-3 .7l-15.8 7.9L25.7 50c-.3.6-.7 1.6-.7 2.3 0 1.4.6 2.9 1.6 3.9l7.9 7.8c.2.2.4.5.7.7l.3.3 1 1 8.5 8.5.3.3H66v-8.9h9V45.7l-.3-.3z" opacity=".2" fill="url(#SVGID_1_)"/></svg>