<svg xmlns="http://www.w3.org/2000/svg" viewBox="0 0 100 100"><path d="M0 0h100v100H0V0z" fill="#fff"/><path d="M100 100H0V0h100v100zM9.7 90h80.7V10H9.7" fill="#999"/><path d="M69.7 25H38.9c-4.2 0-7.7 3.4-7.7 7.7v34.6h-7.7c0 4.2 3.4 7.7 7.7 7.7H62c4.2 0 7.7-3.4 7.7-7.7V36.5h7.7v-3.8c-.1-4.3-3.4-7.7-7.7-7.7zm-3.8 41.6c0 2.5-2 4.5-4.5 4.5H33.1c1.9-1.3 1.9-3.8 1.9-3.8V32.7c0-2.1 1.7-3.8 3.8-3.8s3.8 1.7 3.8 3.8v3.8h23.1v30.1h.2zM46.6 32.7v-3.8h23.1c3.5 0 3.8 2.2 3.8 3.8H46.6zm3.7 10.6c.1-.2.2-.2.2 0l2.3 7.1c.1.2.3.4.5.4h7.5c.2 0 .2.1.1.2l-6 4.4c-.2.1-.2.4-.2.6l2.3 7.1c.1.2 0 .3-.2.1l-6-4.4c-.2-.1-.4-.1-.6 0l-6 4.4c-.2.1-.2.1-.2-.1l2.3-7.1c0-.2 0-.4-.2-.6L39.9 51c-.2-.1-.1-.2.1-.2h7.5c.2 0 .4-.2.5-.4l2.3-7.1z" fill="#999" stroke="#999" stroke-width=".75" stroke-miterlimit="10"/></svg>