<svg xmlns="http://www.w3.org/2000/svg" viewBox="0 0 100 100"><style>.st1{fill:#bababa}</style><path fill="#fff" d="M0 0h100v100H0z"/><path class="st1" d="M100 100H0V0h100v100zM9.7 90h80.7V10H9.7"/><path class="st1" d="M72.6 28.8c-3.6 0-2.7 3.6-3.3 5.2-.3.7-.7 1.6-1.1 2.6l.3-.7c-.2.5-.4.7-1 1.1 0 0-2.4 1.5-4.8 2.9-2.6-4.5-7.5-7.3-12.7-7.3-5.2 0-10.1 2.8-12.7 7.3-2.3-1.4-4.8-2.9-4.8-2.9-.6-.4-.8-.6-1-1.1l.3.7c-.4-1-.8-1.9-1.1-2.6-.6-1.6.3-5.2-3.3-5.2-3.6 0-3 4.9-4 6.8-.7 1.2-2.9 2.4-3.8 4-.1.1-.1.2-.2.3-.4.8-.4 1.6.1 2.6 1.8 3.1 4.4.5 6.1.3.7-.1 1.8-.2 2.8-.3l-.7.1c.5-.1.8 0 1.5.3 0 0 2.7 1.5 6.2 3.4v.9c0 2.7.8 5.4 2.2 7.7-4.7 2.8-8.8 5.4-8.8 5.4-.6.4-.9.4-1.4.4h.6-2.6c-1.6-.1-3.8-2-5.8.8s2.2 4 3 5.4c.8 1.5-.2 5.7 3.2 5.3 3.4-.3 2.8-3.2 3.6-4.7.3-.6.8-1.4 1.3-2.3l-.3.6c.2-.4.4-.6 1.1-1 0 0 3.9-2.1 8.5-4.7v6.4c1.2.5 2.4.8 3.7 1.1v-3.5c.6.1 1.2.3 1.8.4V68c1.2.2 2.5.3 3.7.4V65H51v3.4c1.2 0 2.5-.2 3.7-.3v-3.5c.7-.1 1.3-.3 1.8-.4v3.5c1.3-.3 2.5-.7 3.7-1.1v-6.4c4.6 2.5 8.5 4.7 8.5 4.7.6.4.8.6 1.1 1 .4.7.7 1.3 1 1.7.8 1.4.2 4.3 3.6 4.7 3.4.3 2.3-3.9 3.2-5.3.8-1.5 5-2.6 3-5.4-2-2.8-4.2-.8-5.8-.8h-2.6.6c-.5 0-.8-.1-1.4-.4 0 0-4.1-2.5-8.8-5.4 1.5-2.3 2.2-5 2.3-7.7v-.9c3.5-1.9 6.2-3.4 6.2-3.4.6-.4.9-.4 1.5-.3l-.7-.1c1.1.2 2.1.2 2.8.3 1.7.3 4.3 2.9 6.1-.3 1.8-3.1-2.8-5-3.9-6.9-.7-1.2-.7-3.7-1.5-5.3-.1-.1-.1-.2-.2-.3-.7-.9-1.4-1.3-2.6-1.3zm-28 16.9c.3 0 .6 0 .9.1 2 .5 2.5 2.4 2 4.4-.5 2-2.6 3.2-4.6 2.6-2-.5-2.6-2.4-2-4.4.4-1.6 2-2.7 3.7-2.7zm10.8 0c1.7 0 3.3 1.1 3.7 2.8.5 2 0 3.9-2 4.4-2 .5-4.1-.6-4.6-2.6s0-3.9 2-4.4c.3-.1.6-.2.9-.2zM50 55.1c.5 0 3 3.1 2.7 3.5-.3.3-5.1.3-5.4 0-.3-.4 2.2-3.5 2.7-3.5z"/></svg>