<svg xmlns="http://www.w3.org/2000/svg" viewBox="0 0 100 100"><style>.st1{fill:#a87d45}</style><path fill="#fff" d="M0 0h100v100H0z"/><path class="st1" d="M100 100H0V0h100v100zM9.7 90h80.7V10H9.7"/><path class="st1" d="M68 57.3c1.7 0 3.2.7 4.4 1.7l-3.8-27.2c-.3-2.2-2.2-3.8-4.4-3.8H35.8c-2.2 0-4.1 1.5-4.5 3.8L27.5 59c1.2-1 2.7-1.7 4.5-1.7h36zm0 2.2H32c-2.5 0-4.5 2-4.5 4.5v4.5c0 2.5 2 4.5 4.5 4.5h36c2.5 0 4.5-2 4.5-4.5V64c0-2.5-2-4.5-4.5-4.5zm-3.9 8.6h-2.8c-.8 0-1.4-.6-1.4-1.4s.6-1.4 1.4-1.4h2.8c.8 0 1.4.6 1.4 1.4s-.6 1.4-1.4 1.4zm3.7 0c-.8 0-1.4-.6-1.4-1.4s.6-1.4 1.4-1.4 1.4.6 1.4 1.4-.6 1.4-1.4 1.4z"/></svg>