<svg xmlns="http://www.w3.org/2000/svg" viewBox="0 0 100 100"><style>.st0{fill:#fff}</style><path class="st0" d="M0 0h100v100H0z"/><path d="M100 100H0V0h100v100zM9.7 90h80.7V10H9.7" fill="#b4bdcc"/><path d="M74.4 55.4c2.2 2.1 3.6 5.1 3.6 8.4 0 6.4-5.2 11.6-11.6 11.6-6.4 0-11.6-5.2-11.6-11.6 0-.5 0-.9.1-1.3.7-5.8 5.6-10.3 11.5-10.3 3.1 0 5.9 1.2 8 3.2z" opacity=".55" fill="#ef806f"/><path d="M75.3 51c0 .9-.1 1.8-.3 2.7-2.4-2.1-5.4-3.2-8.6-3.2-6.8 0-12.4 5.1-13.2 11.8v.2h-22c-5.1 0-9.2-4.1-9.2-9.2 0-3.9 2.5-7.3 6-8.6v-.6c0-4.7 3.8-8.5 8.5-8.5 1.5 0 2.9.4 4.1 1.1 1.3-5.8 6.5-10.1 12.7-10.1 7.2 0 13 5.8 13 13v.2c5.2 1.2 9 5.7 9 11.2z" opacity=".55" fill="#1ea6c6"/><path class="st0" d="M72.5 65.3l-6 5.9-5.9-5.9h3.6V57h4.7v8.3z"/></svg>