<svg id="Layer_1" xmlns="http://www.w3.org/2000/svg" viewBox="0 0 100 100"><style>.st1{fill:#999}</style><path d="M0 0h100v100H0V0z" fill="#fff"/><path class="st1" d="M100 100H0V0h100v100zM9.7 90h80.7V10H9.7"/><path class="st1" d="M33.2 45.9l23.5-4-.9-3.8L32.4 42l.8 3.9zM36.8 62l.9 4 9.6-1.9V60l-10.5 2zm-1.4-6.1l11.8-2.2v-3.2c0-.3 0-.6.1-.9L34.6 52l.8 3.9zm11.8 14.4l-11.9 2.4L27.5 37l30.6-4.9L60.6 43c.6 0 1.1-.1 1.7-.1l-4.6-20.4-34.1 5L34 75l13.3-2.8V72l-.1-1.7zM63 64c-7.4 0-13.5-2.4-13.5-5.4V64c0 3 6 5.4 13.5 5.4 7.4 0 13.5-2.4 13.5-5.4v-5.4c-.1 3-6.1 5.4-13.5 5.4zm0 8.1c-7.4 0-13.5-2.4-13.5-5.4v5.4c0 3 6 5.4 13.5 5.4 7.4 0 13.5-2.4 13.5-5.4v-5.4c-.1 3-6.1 5.4-13.5 5.4zm0-26.9c-7.4 0-13.5 2.4-13.5 5.4V56c0 3 6 5.4 13.5 5.4 7.4 0 13.5-2.4 13.5-5.4v-5.4c-.1-3-6.1-5.4-13.5-5.4z"/><path class="st1" d="M63 54.6c-7.4 0-12.1-2.4-12.1-4s4.7-4 12.1-4c7.4 0 12.1 2.4 12.1 4s-4.7 4-12.1 4z"/></svg>