<svg xmlns="http://www.w3.org/2000/svg" viewBox="0 0 100 100"><style>.st1{fill:#36454d}</style><path fill="#fff" d="M0 0h100v100H0z"/><path class="st1" d="M100 100H0V0h100v100zM9.7 90h80.7V10H9.7"/><path d="M40.4 56.2H28.7l-1.4 3.1c-.5 1-.7 1.9-.7 2.6 0 .9.4 1.6 1.1 2 .4.3 1.5.4 3.2.6v.9H20v-.9c1.2-.2 2.2-.6 2.9-1.4.8-.8 1.7-2.4 2.8-4.8l11.8-25.6h.5l12 26.2c1.1 2.5 2.1 4.1 2.8 4.7.6.5 1.3.8 2.3.9v.9h-16v-.9h.7c1.3 0 2.2-.2 2.7-.5.4-.3.5-.6.5-1.1 0-.3 0-.6-.1-.9 0-.1-.3-.7-.7-1.8l-1.8-4zm-.8-1.8l-4.9-11-5.1 11h10z" fill="#7291a1"/><path class="st1" d="M80 44.2l-4.7 15.7-.5 1.9c0 .2-.1.4-.1.5 0 .2.1.4.2.5.1.2.3.2.4.2.3 0 .8-.3 1.4-.8.2-.2.8-.9 1.8-2.2l.9.4c-1.2 2-2.4 3.5-3.7 4.5-1.3.9-2.7 1.4-4.2 1.4-.9 0-1.6-.2-2.1-.7-.5-.5-.7-1-.7-1.8 0-.6.3-1.8.8-3.4l.6-1.9c-1.9 3.1-3.7 5.4-5.4 6.7-1 .8-2.1 1.1-3.2 1.1-1.5 0-2.6-.6-3.2-1.8-.7-1.2-1-2.5-1-4 0-2.2.7-4.8 2.1-7.6 1.4-2.9 3.2-5.2 5.5-6.9 1.9-1.4 3.6-2.2 5.3-2.2.9 0 1.6.3 2.2.8.6.5 1 1.4 1.2 2.8l.9-2.9 5.5-.3zm-7.8 4.5c0-1.3-.2-2.2-.6-2.8-.3-.4-.7-.6-1.2-.6s-1 .2-1.6.7c-1.1 1-2.3 3-3.5 5.9-1.3 3-1.9 5.6-1.9 7.7 0 .8.1 1.4.4 1.8.3.4.6.6.9.6.7 0 1.5-.4 2.2-1.2 1.1-1.2 2-2.6 2.9-4.3 1.6-2.9 2.4-5.5 2.4-7.8z"/></svg>