<svg id="Layer_1" xmlns="http://www.w3.org/2000/svg" viewBox="0 0 100 100"><style>.st1{fill:#bababa}</style><path d="M0 0h100v100H0V0z" fill="#fff"/><path class="st1" d="M100 100H0V0h100v100zM9.7 90h80.7V10H9.7"/><path class="st1" d="M75.5 48.2L52.8 25.5a3.32 3.32 0 0 0-4.7 0l-4.7 4.7 6 6c1.4-.5 3-.2 4.1 1 1.1 1.1 1.4 2.7.9 4.1l5.8 5.8c1.4-.5 3-.2 4.1.9 1.6 1.6 1.6 4.1 0 5.6-1.6 1.6-4.1 1.6-5.6 0-1.2-1.2-1.5-2.9-.9-4.3l-5.4-5.4V58c.4.2.7.4 1.1.8 1.6 1.6 1.6 4.1 0 5.6-1.6 1.6-4.1 1.6-5.6 0-1.6-1.6-1.7-4.1-.1-5.6.4-.4.8-.7 1.2-.9V43.6c-.4-.2-.8-.5-1.2-.9-1.2-1.2-1.4-2.9-.8-4.4l-6-5.8-15.5 15.6a3.32 3.32 0 0 0 0 4.7l22.7 22.7c1.3 1.3 3.4 1.3 4.7 0l22.6-22.6c1.3-1.3 1.3-3.4 0-4.7z"/></svg>