<svg id="Layer_1" xmlns="http://www.w3.org/2000/svg" viewBox="0 0 100 100"><style>.st1{fill:#af7931}</style><path d="M0 0h100v100H0V0z" fill="#fff"/><path class="st1" d="M100 100H0V0h100v100zM9.7 90h80.7V10H9.7"/><path class="st1" d="M41.9 73.3c-.1 0-.3 0-.4-.1C32.2 69.7 26 60.7 26 50.7c0-13.2 10.8-24 24-24s24 10.8 24 24c0 9.9-6.2 18.9-15.5 22.5-.3.1-.5.1-.8 0-.3-.1-.4-.3-.5-.6L52 58.9c-.2-.5.1-1.1.6-1.3 2.8-1.1 4.7-3.8 4.7-6.8 0-4-3.3-7.3-7.3-7.3s-7.3 3.3-7.3 7.3c0 3 1.9 5.8 4.7 6.8.5.2.8.8.6 1.3l-5.2 13.7c-.1.3-.3.5-.5.6-.1 0-.3.1-.4.1z" id="surface1"/></svg>