<svg xmlns="http://www.w3.org/2000/svg" viewBox="0 0 100 100"><path fill="#fff" d="M0 0h100v100H0z"/><path d="M100 100H0V0h100v100zM9.7 90h80.7V10H9.7" fill="#666"/><path d="M41.9 54.5c2.1-.1 4.2.6 5.9 2 .8.7 1.5 1.5 2.1 2.5 1-1.7 2.6-3.1 4.4-3.8 2.3-.8 4.8-.8 7.2 0 2 .8 3.8 1.9 5.3 3.4 1.2 1.1 2.4 2.3 3.7 3.3.7.6 1.4 1 2.2 1.3 1.1.4 2.4 0 3.2-.8.7-.8.7-2.1-.1-2.9-.5-.4-1.2-.4-1.7.1 0 0 0 .1-.1.1-.2.5-.2 1.1.1 1.5-.7-.4-1.2-1.2-1.3-2-.1-1 .6-1.9 1.5-2.2 1.8-.7 3.9-.1 5 1.4.9 1.5 1.3 3.3 1 5-.2 1.6-1.1 3.1-2.5 4.1-1.9 1.3-4.2 1.9-6.6 1.7-2.2-.1-4.4-.5-6.4-1.4-3.4-1.4-6.6-3.2-10.1-4.3-1.2-.3-2.5-.6-3.7-.8h-2.8c-1.1.1-2.3.4-3.3.8-3.6 1.1-6.8 3-10.2 4.4-2.9 1.2-6.1 1.6-9.2 1-1.8-.3-3.4-1.2-4.6-2.5-1-1.2-1.5-2.7-1.4-4.2-.1-1.5.3-2.9 1.2-4.1.9-1.1 2.3-1.6 3.7-1.5.9 0 1.7.4 2.3 1.1.4.6.5 1.3.3 2-.3.6-.7 1.1-1.2 1.4.3-.4.4-1 .1-1.5-.4-.5-1.1-.7-1.7-.3-.1 0-.1.1-.2.1-.6.7-.7 1.6-.3 2.4.5.8 1.3 1.3 2.2 1.4 1.3 0 2.6-.6 3.5-1.5 1.9-1.9 4-3.6 6.1-5.2 2-1.2 4.2-1.9 6.4-2zm0-21.8c2.1-.1 4.2.6 5.9 2 .8.7 1.5 1.5 2.1 2.5 1-1.7 2.6-3.1 4.4-3.8 2.3-.8 4.8-.8 7.2 0 2 .8 3.8 1.9 5.3 3.4 1.2 1.1 2.4 2.3 3.7 3.3.7.6 1.4 1 2.2 1.3 1.1.4 2.4 0 3.2-.8.7-.8.7-2.1-.1-2.9-.5-.4-1.2-.4-1.7.1 0 0 0 .1-.1.1-.2.5-.2 1.1.1 1.5-.7-.4-1.2-1.2-1.3-2-.1-1 .6-1.9 1.5-2.2 1.8-.7 3.9-.1 5 1.4.9 1.5 1.3 3.3 1 5-.2 1.6-1.1 3.1-2.5 4.1-1.9 1.3-4.2 1.9-6.6 1.7-2.2-.1-4.4-.5-6.4-1.4-3.4-1.4-6.6-3.2-10.1-4.3-1.2-.3-2.5-.6-3.7-.8h-2.8c-1.1.1-2.3.4-3.3.8-3.6 1.1-6.8 3-10.2 4.4-2.9 1.2-6.1 1.6-9.2 1-1.8-.3-3.4-1.2-4.6-2.5-1-1.2-1.5-2.7-1.4-4.2-.1-1.5.3-2.9 1.2-4.1.9-1.1 2.3-1.6 3.7-1.5.9 0 1.7.4 2.3 1.1.4.6.5 1.3.3 2-.3.6-.7 1.1-1.2 1.4.3-.4.4-1 .1-1.5-.4-.5-1.1-.7-1.7-.3-.1 0-.1.1-.2.1-.6.7-.7 1.6-.3 2.4.5.8 1.3 1.3 2.2 1.4 1.3 0 2.6-.6 3.5-1.5 1.9-1.9 4-3.6 6.1-5.2 2-1.2 4.2-1.9 6.4-2z" fill="#c19770"/></svg>