<svg xmlns="http://www.w3.org/2000/svg" viewBox="0 0 100 100"><path d="M0 0h100v100H0V0z" fill="#fff"/><path d="M100 100H0V0h100v100zM9.7 90h80.7V10H9.7" fill="#999"/><path d="M40.3 49.2L30 59.4c-1.3 1.3-1.9 3-1.9 4.7 0 1.7.6 3.3 1.9 4.6l.1.1c1.3 1.2 2.9 1.9 4.6 1.9 1.7 0 3.4-.6 4.7-1.9L51 57.2l12.5-12.5c.6-.6.8-1.3.8-2.1 0-.7-.3-1.5-.8-2-.6-.6-1.3-.8-2.1-.8-.7 0-1.5.3-2 .8l-17.9 18c-.8.8-2.1.8-2.9 0-.8-.8-.8-2.1 0-2.9l17.9-17.9c1.4-1.3 3.1-2 4.9-2 1.8 0 3.6.7 4.9 2 1.4 1.4 2 3.2 2 4.9 0 1.8-.7 3.6-2 4.9L53.8 60 42.1 71.6c-2.1 2.1-4.8 3.1-7.5 3.1s-5.3-1-7.4-3l-.1-.1C25 69.5 24 66.8 24 64.1c0-2.8 1-5.5 3.1-7.6L38.7 45l.1-.1 14.6-14.6c2.7-2.7 6.3-4.1 9.8-4.1 3.6 0 7.1 1.3 9.8 4.1 2.7 2.7 4.1 6.2 4.1 9.8 0 3.5-1.4 7.1-4.1 9.8L52.9 70c-.8.8-2.1.8-2.9 0-.8-.8-.8-2.1 0-2.9L70.1 47c1.9-1.9 2.9-4.4 2.9-6.9s-1-5-2.9-6.9c-1.9-1.9-4.4-2.8-6.9-2.8s-5 .9-6.9 2.8l-16 16z" fill="#999" stroke="#999" stroke-width=".25" stroke-miterlimit="10"/></svg>