<svg id="Layer_1" xmlns="http://www.w3.org/2000/svg" viewBox="0 0 100 100"><style>.st1{fill:#999}</style><path d="M0 0h100v100H0V0z" fill="#fff"/><path class="st1" d="M100 100H0V0h100v100zM9.7 90h80.7V10H9.7"/><path class="st1" d="M51 23.5c4.6 0 8.4 3.7 8.4 8.4s-3.7 8.4-8.4 8.4-8.4-3.7-8.4-8.4 3.8-8.4 8.4-8.4m11.2 50.6c0 1.3-1.1 2.4-2.4 2.4H42.2c-1.3 0-2.4-1.1-2.4-2.4v-4.8c0-1.3 1.1-2.4 2.4-2.4h2.4V54.2h-2.4c-1.3 0-2.4-1.1-2.4-2.4V47c0-1.3 1.1-2.4 2.4-2.4H55c1.3 0 2.4 1.1 2.4 2.4v19.9h2.4c1.3 0 2.4 1.1 2.4 2.4v4.8z"/></svg>