<svg id="Layer_1" xmlns="http://www.w3.org/2000/svg" viewBox="0 0 100 100"><style>.st1{fill:#938886}</style><path d="M0 0h100v100H0V0z" fill="#fff"/><path class="st1" d="M100 100H0V0h100v100zM9.7 90h80.7V10H9.7"/><path class="st1" d="M63.5 45.6V31.1L49.9 23l-13.4 8v14.6L23 52.9v16.2L36.8 77 50 69.4 63.2 77 77 69.1V53l-13.5-7.4zm-2.6.1L51.2 51V39.9l9.7-5.7v11.5zm-11-19.6l9.6 5.8-9.6 5.6-9.4-5.7 9.4-5.7zM27 53.7L37.8 48l9.5 5.4-10.5 6-9.8-5.7zm11.1 8l10.6-6.1V67l-10.6 6.2V61.7zm14.6-8.4l9.6-5.4L73 53.8l-9.8 5.6-10.5-6.1zm21.7 14.2l-9.9 5.7V61.7l9.9-5.7v11.5z"/></svg>