<svg xmlns="http://www.w3.org/2000/svg" viewBox="0 0 100 100"><style>.st3{stroke-width:.75;stroke-miterlimit:10;fill:#72bed3;stroke:#72bed3}</style><path fill="#fff" d="M0 0h100v100H0z"/><path d="M100 100H0V0h100v100zM9.7 90h80.7V10H9.7" fill="#666"/><path class="st3" d="M78 50.5c0-3.7-4.6-7.2-11.7-9.4 1.6-7.2.9-13-2.3-14.9-.8-.4-1.6-.6-2.6-.6v2.6c.5 0 1 .1 1.3.3 1.5.9 2.3 4.3 1.7 8.6-.1 1.1-.3 2.2-.5 3.3-2.3-.5-4.6-1-7.2-1.3-1.5-2.2-3.1-4-4.7-5.7 3.8-3.4 7.2-5.4 9.6-5.4v-2.6c-3.1 0-7.2 2.3-11.4 6.1-4.2-3.9-8.3-6-11.4-6v2.6c2.4 0 5.8 1.8 9.6 5.3-1.6 1.7-3.2 3.6-4.7 5.7-2.6.3-5.1.6-7.2 1.3-.2-1.2-.4-2.3-.6-3.3-.5-4.3.1-7.8 1.6-8.6.3-.2.8-.3 1.3-.3v-2.6c-1 0-1.8.2-2.6.6-3.2 1.8-3.9 7.6-2.3 14.9-7.3 2.2-11.9 5.7-11.9 9.4s4.6 7.2 11.7 9.4c-1.6 7.2-.9 13 2.3 14.9.8.4 1.6.6 2.6.6 3.1 0 7.2-2.3 11.4-6.1 4.2 3.9 8.3 6 11.4 6 1 0 1.8-.2 2.6-.6 3.2-1.8 3.9-7.6 2.3-14.9 7.1-2.1 11.7-5.6 11.7-9.3zm-14.9-7.6c-.4 1.5-1 3-1.5 4.5-.4-.9-1-1.8-1.5-2.7-.5-.9-1.1-1.8-1.6-2.7 1.6.2 3.1.5 4.6.9zM57.9 55c-.9 1.5-1.8 3-2.8 4.3-1.6.2-3.3.3-5.1.3s-3.4-.1-5.2-.2c-1-1.4-1.8-2.8-2.8-4.3-.9-1.5-1.6-3-2.4-4.5.8-1.5 1.5-3 2.4-4.5.9-1.5 1.8-3 2.8-4.3 1.7-.1 3.4-.2 5.2-.2s3.4.1 5.2.2c1 1.4 1.8 2.8 2.8 4.3.9 1.5 1.6 3 2.4 4.5-.8 1.4-1.7 2.9-2.5 4.4zm3.7-1.5c.6 1.5 1.2 3 1.6 4.5-1.5.3-3.1.6-4.7.9.5-.9 1.1-1.8 1.6-2.7.6-.7 1-1.7 1.5-2.7zM50 65.8c-1.1-1.1-2.2-2.4-3.1-3.7 1.1 0 2 .1 3.1.1s2.2 0 3.1-.1c-.9 1.3-2 2.5-3.1 3.7zM41.5 59c-1.6-.2-3.2-.5-4.6-.9.4-1.5 1-3 1.5-4.5.4.9 1 1.8 1.5 2.7.5 1 1.1 1.8 1.6 2.7zM50 35.3c1.1 1.1 2.2 2.4 3.1 3.7-1.1 0-2-.1-3.1-.1s-2.2 0-3.1.1c.9-1.4 2-2.6 3.1-3.7zM41.5 42c-.5.9-1.1 1.8-1.6 2.7l-1.5 2.7c-.6-1.5-1.2-3-1.6-4.5 1.5-.4 3.1-.7 4.7-.9zM31.2 56.3c-4.1-1.7-6.7-4-6.7-5.8 0-1.8 2.6-4.1 6.7-5.8 1-.4 2-.8 3.1-1.2.6 2.3 1.5 4.5 2.6 7-1.1 2.4-1.9 4.7-2.6 6.9-1-.3-2.1-.6-3.1-1.1zm6.1 16.3c-1.5-.9-2.3-4.3-1.7-8.6.1-1.1.3-2.2.5-3.3 2.3.5 4.6 1 7.2 1.3 1.5 2.2 3.1 4 4.7 5.7-3.8 3.4-7.2 5.4-9.6 5.4-.2-.2-.7-.3-1.1-.5zm27.1-8.7c.5 4.3-.1 7.8-1.6 8.6-.3.2-.8.3-1.3.3-2.4 0-5.8-1.8-9.6-5.3 1.6-1.7 3.2-3.6 4.7-5.7 2.6-.3 5.1-.6 7.2-1.3.3 1.2.5 2.4.6 3.4zm4.4-7.6c-1 .4-2 .8-3.1 1.2-.6-2.3-1.5-4.5-2.6-7 1.1-2.4 1.9-4.7 2.6-6.9 1.1.3 2.2.8 3.2 1.2 4.1 1.7 6.7 4 6.7 5.8-.2 1.7-2.8 4-6.8 5.7z"/><circle class="st3" cx="50" cy="50.5" r="5.2"/></svg>