<svg xmlns="http://www.w3.org/2000/svg" viewBox="0 0 100 100"><path d="M0 0h100v100H0V0z" fill="#fff"/><path d="M100 100H0V0h100v100zM9.7 90h80.7V10H9.7" fill="#0e3693"/><path d="M57 67.9c-3.7-3.7-8.2.3-12.2 3.8-5 4.5-8.5 7.2-11.6 4.1-2.2-2.2-2.2-5.1 0-7.9l2 2c.5.5 1.4.5 1.9 0L61 48.1l-9.8-9.8-22 23.7c-.5.5-.5 1.4 0 1.9l2.1 2.1c-3.9 4.7-2.6 9.3-.1 11.8 5.2 5.2 10.9.1 15.4-4 4-3.6 6.6-5.6 8.3-4 .6.5 1.5.4 2-.2.5-.4.5-1.2.1-1.7zm-6.9-16.8c-.5.5-1.4.5-2 0-.5-.5-.5-1.4 0-2l2-2c.5-.5 1.4-.6 2 0 .5.5.6 1.4 0 2l-2 2zM62.8 46c.3.3.6.4 1 .4 2 0 4-.5 5.8-1.6L54.3 29.6c-1 1.7-1.6 3.7-1.6 5.8 0 .4.1.7.4 1l9.7 9.6zm9.1-18.7c-4.4-4.4-11.5-4.4-15.8 0L72 43.2c4.2-4.4 4.2-11.5-.1-15.9z" fill="#039"/></svg>