<svg id="Layer_1" xmlns="http://www.w3.org/2000/svg" viewBox="0 0 100 100"><style>.st1{fill:#bababa}</style><path id="BG" fill="#fff" d="M0 0h100v100H0z"/><path id="Border" class="st1" d="M100 100H0V0h100v100zM9.7 90h80.7V10H9.7"/><path class="st1" d="M52.5 27.2L43 36.7c2.8-.8 5.8-.8 8.7-.1.4.1.8.3 1.1.4l4.7-4.7c2.8-2.8 7.3-2.8 10.1 0s2.8 7.3 0 10.1l-6.4 6.4-3.7 3.7c-.9.9-2 1.5-3.2 1.8-2.4.6-5 .1-6.9-1.8-1.3-1.3-1.9-2.9-2-4.5-.6.2-1.1.5-1.5 1l-4.4 4.4c.7 1.5 1.6 3 2.9 4.2 1.8 1.8 4.1 3.1 6.4 3.7 3.7 1 7.7.5 11-1.5 1-.6 2-1.3 2.8-2.2l10.1-10.1c5.6-5.6 5.6-14.7 0-20.3-5.5-5.6-14.6-5.6-20.2 0z"/><path class="st1" d="M56.9 63.3c-3.2.9-6.6.8-9.8-.3l-4.7 4.7c-2.8 2.8-7.3 2.8-10.1 0s-2.8-7.3 0-10.1l10.1-10.1c.9-.9 2-1.5 3.2-1.8 2.4-.6 5-.1 6.9 1.8 1.3 1.3 1.9 2.9 2 4.6.5-.2 1-.6 1.5-1l4.4-4.4c-.7-1.5-1.6-3-2.9-4.2-1.9-1.8-4.1-3.1-6.4-3.7-3.7-1-7.7-.5-11 1.5-1 .6-2 1.3-2.8 2.2l-10.1 10c-5.6 5.6-5.6 14.7 0 20.3 5.6 5.6 14.7 5.6 20.3 0l9.4-9.5z"/></svg>