<svg xmlns="http://www.w3.org/2000/svg" viewBox="0 0 100 100"><style>.st1{fill:#0e3693}</style><path fill="#fff" d="M0 0h100v100H0z"/><path class="st1" d="M100 100H0V0h100v100zM9.7 90h80.7V10H9.7"/><path class="st1" d="M26.5 37.5H53c1.4 0 2.5-1.1 2.5-2.5s-1.1-2.5-2.5-2.5H26.5c-1.4 0-2.5 1.1-2.5 2.5s1.1 2.5 2.5 2.5zm0 12.7H53c1.4 0 2.5-1.1 2.5-2.5s-1.1-2.5-2.5-2.5H26.5c-1.4 0-2.5 1.1-2.5 2.5s1.1 2.5 2.5 2.5zm12.7 6.9H26.5c-1.4 0-2.5 1.1-2.5 2.5s1.1 2.5 2.5 2.5h12.8c1.4 0 2.5-1.1 2.5-2.5-.1-1.4-1.2-2.5-2.6-2.5z"/><path class="st1" d="M70.3 36.8c-1.8-.9-4.3-2.3-5.2-4.3 0-1-.9-1.9-1.9-1.9-1 0-1.9.9-1.9 1.9v24.8c-2-1-5.6-.7-8.5.9-4.4 2.4-6.3 7-4.3 10.2 1.9 3.2 7.1 3.8 11.4 1.4 3.1-1.7 5.1-4.6 5.2-7.3V41.1c6.3 0 10 2.5 8.7 8.7-.3 1.1-.6 2.3-1.1 3.3-.2.4-.2.8.1 1.1.3.3.9.3 1.4-.2 2.4-2.3 3.8-5.4 3.9-8.6 0-4.3-4.2-6.9-7.8-8.6z"/></svg>