<svg xmlns="http://www.w3.org/2000/svg" viewBox="0 0 100 100"><path d="M0 0h100v100H0V0z" fill="#fff"/><path d="M100 100H0V0h100v100zM9.7 90h80.7V10H9.7" fill="#5b2d8d"/><path d="M75.2 76.5H24.8c-.7 0-1.3-.6-1.3-1.3V24.8c0-.7.6-1.3 1.3-1.3h50.4c.7 0 1.3.6 1.3 1.3v50.4c0 .7-.6 1.3-1.3 1.3zm-49.1-3.3c0 .4.3.7.7.7h46.4c.4 0 .7-.3.7-.7V61.3c0-.4-.3-.7-.7-.7H26.8c-.4 0-.7.3-.7.7v11.9zm47.1-47.1H26.8c-.4 0-.7.3-.7.7v30.5c0 .1.1.3.1.3L36 45.3l9.9 6 11.3-13.2 16.6 12.7v-24c0-.4-.2-.7-.6-.7zM32.8 63.2c2.2 0 4 1.8 4 4s-1.8 4-4 4-4-1.8-4-4 1.8-4 4-4zm7.3 2.7h30.5c.4 0 .7.3.7.7v1.3c0 .4-.3.7-.7.7H40.1c-.4 0-.7-.3-.7-.7v-1.3c0-.4.3-.7.7-.7z" fill="#5b2d8d" stroke="#5b2d8d" stroke-width=".25" stroke-miterlimit="10"/></svg>