<svg id="Layer_1" xmlns="http://www.w3.org/2000/svg" viewBox="0 0 100 100"><style>.st1{fill:#ff0021}</style><path d="M0 0h100v100H0V0z" fill="#fff"/><path class="st1" d="M100 100H0V0h100v100zM9.7 90h80.7V10H9.7"/><path class="st1" d="M64 25H52.5v51H64c6.3 0 11.5-5.1 11.5-11.5v-28C75.5 30.1 70.4 25 64 25zm0 33.1c-3.3 0-6-2.7-6-6s2.7-6 6-6 6 2.7 6 6-2.7 6-6 6zM49.5 76H36c-6.3 0-11.5-5.1-11.5-11.5v-28C24.5 30.1 29.6 25 36 25h13.5v51zM36 28c-4.7 0-8.5 3.8-8.5 8.5v28.1c0 4.7 3.8 8.5 8.5 8.5h10.6V28H36z"/><path class="st1" d="M37 46c-3.3 0-6-2.7-6-6s2.7-6 6-6 6 2.7 6 6-2.7 6-6 6z"/></svg>