<svg xmlns="http://www.w3.org/2000/svg" viewBox="0 0 100 100"><path fill="#fff" d="M0 0h100v100H0z"/><path d="M100 100H0V0h100v100zM9.7 90h80.7V10H9.7" fill="#999"/><path d="M79.2 26.5v5.6h-58v-5.6m57.6 13.4v5.6h-58v-5.6m58 14v5.6h-58v-5.6m58 14v5.6h-58v-5.6" fill="#999" stroke="#999" stroke-miterlimit="10"/><path d="M41.8 44.6v-2.4c.7-.2 1.6-.6 2.9-.9 1.1-.3 2.4-.6 3.8-.8 1.4-.2 2.6-.5 3.9-.6 1.3-.1 2.4-.2 3.4-.2l1.3.8-6.4 30.3h4.9v2.5c-.6.5-1.4.8-2.2 1.3-.8.3-1.7.7-2.6 1-.9.3-1.8.6-2.7.7-.9.1-1.8.2-2.6.2-1.8 0-3-.3-3.7-1-.7-.7-1-1.5-1-2.3 0-.9.1-1.8.2-2.7.1-.9.3-1.8.6-3l4.8-21.9-4.6-1zm6-15.9c0-1.6.6-2.9 1.6-3.8s2.4-1.4 4.1-1.4c1.8 0 3.2.5 4.2 1.4 1 .9 1.6 2.2 1.6 3.8 0 1.5-.6 2.7-1.6 3.5-1 .9-2.5 1.4-4.2 1.4-1.6 0-3-.5-4.1-1.4-1.1-.8-1.6-1.9-1.6-3.5z" fill="#999" stroke="#fff" stroke-width="3" stroke-miterlimit="10"/></svg>