<svg id="Layer_1" xmlns="http://www.w3.org/2000/svg" viewBox="0 0 100 100"><style>.st1{fill:#999}</style><path d="M0 0h100v100H0V0z" fill="#fff"/><path class="st1" d="M100 100H0V0h100v100zM9.7 90h80.7V10H9.7"/><path class="st1" d="M73.4 40c2.4-5.9 2.6-10.7-.3-13.7-3.3-3.2-11.1-2.2-19.4 1.7h-1c-5.9 0-11.5 2.1-15.8 5.9-3.6 3.3-6.2 7.5-7.3 12.2.8-1 5.4-6.3 10.6-9.3.2 0 1.5-.8 1.5-.8-.2 0-2.6 2.4-3.1 2.9-11.4 11.7-18 29.4-12.8 34.6 3.4 3.4 9.6 2.6 16.7-1.3 3.1 1.5 6.5 2.1 10.2 2.1 4.9 0 9.4-1.3 13.3-3.9 4.1-2.6 7-6.7 8.8-11.4H62.2c-1.6 3.1-5.4 5.2-9.3 5.2-5.5 0-10.1-4.6-10.2-9.8V54h33.1v-.5c0-.8.2-1.8.2-2.4 0-4-1-7.7-2.6-11.1zm-44 32.5c-2.6-2.6-1.8-7.6 1.3-13.6 1.5 4.1 3.9 7.6 7 10.2 1 .8 2.1 1.6 3.3 2.3-5.3 2.7-9.5 3.2-11.6 1.1zm33.3-24.7H42.9v-.2c.3-5 5-9.4 10.6-9.4 5.2 0 9.4 4.1 9.8 9.4v.2h-.6zm9.9-9.1c-1-1.6-2.3-3.3-3.7-4.6-2.3-2.1-4.9-3.8-7.8-4.9 5.2-2.4 9.6-2.8 11.9-.5 1.7 2.2 1.5 5.8-.4 10 0 .2 0 .2 0 0 0 .2 0 .2 0 0z"/></svg>