<svg xmlns="http://www.w3.org/2000/svg" viewBox="0 0 100 100"><style>.st2,.st3{fill:#1a75ce;stroke:#1a75ce;stroke-width:.25;stroke-miterlimit:10}.st3{fill-opacity:0;stroke-linejoin:round;stroke-miterlimit:1}</style><path fill="#fff" d="M0 0h100v100H0z"/><path d="M100 100H0V0h100v100zM9.7 90h80.7V10H9.7" fill="#1a75ce"/><path class="st2" d="M78.9 72l-.1.8-.1 1.1-56.5-.1-.7-.1-.3-.4-.2-.6.1-.4.5-.4h57.2v.1z"/><path class="st3" d="M78.9 72l-.1.8-.1 1.1-56.5-.1-.7-.1-.3-.4-.2-.6.1-.4.5-.4h57.2v.1z"/><path class="st2" d="M25.2 65.7l2.1 2.2-2.7 1.9-1.4.8h-.5l-.3-.5 1-1.4 1.8-3z"/><path class="st3" d="M25.2 65.7l2.1 2.2-2.7 1.9-1.4.8h-.5l-.3-.5 1-1.4 1.8-3z"/><path class="st2" d="M43.4 44.9l4.5 4.7-4 4-4.4 4-4.4 3.8-3.4 3-3.7 2.5-2.2-2.2 2.1-3 2.9-3.4 2.2-2.6 2.9-3 3.6-3.8c-.1-.1 3.9-4 3.9-4z"/><path class="st3" d="M43.4 44.9l4.5 4.7-4 4-4.4 4-4.4 3.8-3.4 3-3.7 2.5-2.2-2.2 2.1-3 2.9-3.4 2.2-2.6 2.9-3 3.6-3.8c-.1-.1 3.9-4 3.9-4z"/><path class="st2" d="M64.2 26.1l1.1.1.7.5.5 1V29l-.4 1.1-.5.8v1l.4.5.1.7-.1 1-9.2 9.9-2.6 2.7-1 1.2-.1.5.1.7-.5.7-1-.4-.3-1 .1-1 .5-.8 6.4-6.8 5.5-6 .1-.7-.5-.1-3.8 4.2-6.3 6.6-4.5 4.7-4.7-4.2 5.2-5.5 5.9-5.7 5.5-5.1 1.4-1 1-.5h1.1l-.1-.4z"/><path class="st3" d="M64.2 26.1l1.1.1.7.5.5 1V29l-.4 1.1-.5.8v1l.4.5.1.7-.1 1-9.2 9.9-2.6 2.7-1 1.2-.1.5.1.7-.5.7-1-.4-.3-1 .1-1 .5-.8 6.4-6.8 5.5-6 .1-.7-.5-.1-3.8 4.2-6.3 6.6-4.5 4.7-4.7-4.2 5.2-5.5 5.9-5.7 5.5-5.1 1.4-1 1-.5h1.1l-.1-.4z"/></svg>