<svg xmlns="http://www.w3.org/2000/svg" viewBox="0 0 100 100"><style>.st0{fill:#fff}.st1{fill:#6781b2}</style><path class="st0" d="M0 0h100v100H0z"/><path class="st1" d="M100 100H0V0h100v100zM9.7 90h80.7V10H9.7"/><path class="st1" d="M77 34.3L50 23.5l-10.7 4.3 27 10.8zm-44.4-3.8L23 34.3l27 10.8 9.6-3.8zM21.9 65.6l27.3 10.9v-30L21.9 35.6zm45.5-25.8v8.5l-1.1-.7-1.1 1.6-1.2-.7-1.1 1.6-1.1-.7-1.1 1.6v-8.5l-9.9 4v30l27.3-10.9v-30z"/><path class="st0" d="M28.1 53.4c.6.2 1.1.3 1.4.2.3-.1.7-.4 1-.9.3-.5.4-.8.3-1-.1-.3-.4-.5-1-.7l-.9-.4-1.6 2.5c0 .1.8.3.8.3zm-4.3 2.2l-.1-.1v-.1l4.1-6.7c0-.1.1-.1.2-.1l3 1.1c.9.4 1.5.9 1.8 1.6.3.7.1 1.5-.4 2.3-.2.3-.5.6-.7.9-.3.2-.6.4-1 .6-.4.2-.9.3-1.3.2s-1-.1-1.6-.4l-1.2-.5-1.1 1.7c0 .1-.1.1-.2.1l-1.5-.6zM35.7 58l-.1-.1v-.1l1.8-3c.2-.3.2-.5.2-.6 0-.1-.1-.2-.6-.4l-1-.5-2.3 3.7c0 .1-.1.1-.2.1l-1.5-.6-.1-.1v-.1l4.1-6.7c0-.1.1-.1.2-.1l1.5.6.1.1v.1l-1 1.6 1.2.4c.9.3 1.4.7 1.7 1.2.2.5.2 1.1-.3 1.8l-1.9 3.1c0 .1-.1.1-.2.1l-1.6-.5zm6.4.8c.6.2 1.1.3 1.5.2.4-.1.7-.4 1-.9.3-.5.4-.8.3-1s-.4-.5-1-.7L43 56l-1.6 2.5.7.3zM37.7 61l-.1-.1v-.1l4.2-6.7c0-.1.1-.1.2-.1l3.1 1.2c1 .4 1.6.9 1.8 1.6.3.7.1 1.5-.4 2.3-.2.3-.5.6-.7.9-.3.2-.6.4-1 .6-.4.2-.9.2-1.4.2-.4 0-1-.2-1.6-.4l-1.2-.5-1.1 1.7c0 .1-.1.1-.2.1l-1.6-.7z"/></svg>