<svg xmlns="http://www.w3.org/2000/svg" viewBox="0 0 100 100"><style>.st1{fill:#3679ba}</style><path fill="#fff" d="M0 0h100v100H0z"/><path class="st1" d="M100 100H0V0h100v100zM9.7 90h80.7V10H9.7"/><path class="st1" d="M57.4 36.5L46.8 47c-1.5 1.5-1.6 4 0 5.5.8.8 1.8 1.2 2.8 1.2s2-.4 2.8-1.1L62.9 42c-1.3-2.2-3.2-4.2-5.5-5.5z"/><path class="st1" d="M74.5 50c0-13.8-11.2-25-25-25s-25 11.2-25 25 11.2 25 25 25c5.2 0 10-1.6 14.1-4.3l4.3 4.3h6.6v-6.6l-4.3-4.3c2.7-4.1 4.3-8.9 4.3-14.1zm-9.4 0c0 8.6-7 15.6-15.6 15.6s-15.6-7-15.6-15.6 7-15.6 15.6-15.6c2.9 0 5.6.8 7.9 2.2 0 0 3.9-3.7 4.2-3.8 2.1 1.4 3.8 3.2 5.3 5.3-.2.3-3.9 4.1-3.9 4.1 1.3 2.1 2.1 4.9 2.1 7.8z"/></svg>