<svg id="Layer_1" xmlns="http://www.w3.org/2000/svg" viewBox="0 0 100 100"><style>.st1{fill:#3a898d}</style><path d="M0 0h100v100H0V0z" fill="#fff"/><path class="st1" d="M100 100H0V0h100v100zM9.7 90h80.7V10H9.7"/><path class="st1" d="M23.5 70.9v-6.6h13.2v13.2H23.5v-6.6zm19.6 0v-6.6h13.2v13.2H43.1v-6.6zm19.7 0v-6.6H76v13.2H62.8v-6.6zm1.9-15l-4.5-4.5 4.5-4.6 4.6-4.5 4.6 4.5 4.5 4.6-4.4 4.5-4.6 4.6s-2.2-2-4.7-4.6zm-41.2-4.5v-6.6h13.2V58H23.5v-6.6zm19.6 0v-6.6h13.2V58H43.1v-6.6zM45 36.3l-4.5-4.6L45 27l4.6-4.5 4.6 4.5 4.5 4.6-4.5 4.5-4.6 4.6s-2-1.9-4.6-4.4zm-21.5-4.6v-6.6h13.2v13.2H23.5v-6.6z"/></svg>