<svg xmlns="http://www.w3.org/2000/svg" viewBox="0 0 100 100"><path fill="#fff" d="M0 0h100v100H0z"/><path d="M100 100H0V0h100v100zM9.7 90h80.7V10H9.7" fill="#999"/><path d="M75.2 54.6c-2.2 0-4.2.5-5.8 1.3-.6-1.2-1.2-2.2-1.3-3-.1-.9-.3-1.4-.1-2.5.1-1.1.8-2.6.8-2.7 0-.1-.1-.7-1.4-.7s-2.4.2-2.5.6c-.1.3-.4 1.1-.5 1.9-.2 1.2-2.6 5.3-3.9 7.5-.4-.9-.8-1.6-.9-2.2-.1-.9-.3-1.4-.1-2.5.1-1.1.8-2.6.8-2.7 0-.1-.1-.7-1.4-.7-1.3 0-2.4.2-2.5.6s-.3 1.1-.5 1.9c-.3.8-3.4 7.7-4.2 9.5-.4.9-.8 1.7-1 2.2v.1c-.2.4-.4.7-.4.7-.2.3-.4.6-.5.6-.1 0-.2-.8 0-2 .5-2.4 1.6-6.2 1.6-6.3 0-.1.2-.7-.7-1.1-.9-.3-1.2.2-1.3.2s-.1.2-.1.2 1-4.2-1.9-4.2c-1.8 0-4.4 2-5.7 3.8-.8.4-2.5 1.4-4.3 2.3-.7.4-1.4.8-2.1 1.1 0 0-.1-.1-.1-.2-3.6-3.8-10.2-6.5-9.9-11.7.1-1.9.7-6.8 12.7-12.7 9.8-4.9 17.7-3.5 19-.5 1.9 4.3-4.2 12.2-14.4 13.3-3.9.4-5.9-1.1-6.4-1.6-.5-.6-.6-.6-.8-.5-.3.2-.1.7 0 1 .3.8 1.6 2.2 3.7 2.9 1.9.6 6.4.9 11.9-1.2 6.2-2.4 11-9 9.6-14.6-1.4-5.6-10.8-7.5-19.6-4.3-5.3 1.9-11 4.8-15.1 8.7-4.9 4.6-5.6 8.5-5.3 10.2 1.1 5.9 9.3 9.7 12.5 12.6-.2.1-.3.2-.4.2-1.6.8-7.8 4-9.4 7.5-1.8 3.9.3 6.7 1.6 7 4.2 1.2 8.5-.9 10.8-4.4 2.3-3.4 2-7.9 1-9.9v-.1c.4-.2.9-.5 1.3-.7.8-.5 1.6-.9 2.3-1.3-.4 1.1-.7 2.4-.8 4.3-.2 2.2.7 5.1 1.9 6.2.5.5 1.1.5 1.5.5 1.4 0 2-1.1 2.7-2.5.8-1.7 1.6-3.6 1.6-3.6s-.9 5.2 1.6 5.2c.9 0 1.9-1.2 2.3-1.8s0 0 .1-.1c.1-.2.2-.2.2-.2.4-.7 1.2-2.1 2.5-4.6 1.6-3.2 3.2-7.2 3.2-7.2s.1 1 .6 2.6c.3.9.9 2 1.3 3-.4.5-.6.8-.6.8-.3.4-.6.8-1 1.3-1.3 1.5-2.8 3.3-3 3.8-.2.6-.2 1 .3 1.4.3.3.9.3 1.6.3 1.1-.1 2-.4 2.3-.5.6-.2 1.3-.6 2-1.1 1.3-.9 2-2.2 1.9-4 0-1-.4-1.9-.7-2.8.1-.2.2-.3.3-.5 2-2.9 3.5-6.1 3.5-6.1s.1 1 .6 2.6c.2.8.7 1.7 1.1 2.6-1.9 1.5-3 3.3-3.4 4.4-.7 2.1-.2 3.1.9 3.3.5.1 1.2-.1 1.7-.4.7-.2 1.4-.6 2.2-1.1 1.3-.9 2.5-2.2 2.4-4 0-.8-.2-1.6-.5-2.3 1.6-.7 3.6-1 6.2-.7 5.6.7 6.7 4.1 6.5 5.6-.2 1.5-1.4 2.3-1.8 2.5-.4.2-.5.3-.5.5 0 .3.2.2.6.2.5-.1 2.9-1.2 3-3.9-.4-3.6-3.7-7.3-9.4-7.3zm-43 14.5c-1.8 2-4.4 2.8-5.5 2.1-1.2-.7-.7-3.7 1.5-5.8 1.4-1.3 3.2-2.5 4.3-3.2.3-.2.7-.4 1.1-.7.1 0 .1-.1.1-.1.1-.1.2-.1.3-.2 1 3.1.2 5.7-1.8 7.9zm13.5-9.2c-.6 1.6-2 5.6-2.8 5.4-.7-.2-1.1-3.2-.1-6.2.5-1.5 1.6-3.3 2.2-4 1-1.1 2.1-1.5 2.4-1 .2.5-1.3 4.8-1.7 5.8zm11.1 5.3c-.3.1-.5.2-.6.2-.1 0 .1-.2.1-.2s1.4-1.5 1.9-2.2c.3-.4.7-.9 1.1-1.4v.2c0 1.7-1.8 2.9-2.5 3.4zm8.5-1.9c-.2-.1-.2-.6.5-2.1.3-.6.9-1.5 1.9-2.5.1.4.2.7.2 1.1 0 2.3-1.6 3.1-2.6 3.5z" fill="#cd6799" stroke="#cd6799" stroke-width=".25" stroke-miterlimit="10"/></svg>