<svg id="Layer_1" xmlns="http://www.w3.org/2000/svg" viewBox="0 0 100 100"><style>.st1{fill:#d5006e}</style><path fill="#fff" d="M0 0h100v100H0z"/><path class="st1" d="M100 100H0V0h100v100zM9.7 90h80.7V10H9.7"/><path class="st1" d="M58.7 57.4c.2-.6.5-1.2.7-1.8l3.3-10.2c.4-1.3.9-2.6 1.7-3.7 1.3-1.8 3.1-2.7 5.2-3 .8-.1 1.7-.2 2.5-.2h8.1c-.1.1-.1.3-.1.3-.9 1.7-1.9 3.3-2.8 5-1.7 2.9-3.4 5.8-5.1 8.6-1.1 1.8-2.3 3.6-3.7 5.2-1 1.2-2.1 2.4-3.4 3.2-.9.6-1.9.9-3 .9H50.2c-1.2 0-2.2-.4-3-1.2-1.2-1.1-2-2.6-2.6-4.1-1.1-2.8-1.7-5.7-2.4-8.6-.3-1.4-.7-2.7-1.1-4.1 0-.1-.1-.2-.1-.3l-.3.3c-1.5 1.5-2.9 3.2-4.1 5-.3.5-.4 1.1-.6 1.7-.7 2.1-1.3 4.3-2 6.4-.7 2-2 3.6-3.9 4.6-1.2.6-2.4.9-3.7.9-1.9 0-3.8 0-5.7.1-.5 0-.5 0-.4-.5.8-3 1.8-6 3.1-8.8 1.3-2.9 2.9-5.8 4.9-8.3 1.3-1.7 2.8-3.4 4.7-4.6.9-.6 2-1.1 3.1-1.2h12.8c2.2 0 3.7.9 4.9 2.6.7 1.1 1.3 2.3 1.7 3.5.9 2.5 1.4 5 2.1 7.6.4 1.5.8 2.9 1.1 4.4-.2.1-.2.2 0 .3z"/></svg>