<svg id="Layer_1" xmlns="http://www.w3.org/2000/svg" viewBox="0 0 100 100"><style>.st1{fill:#999}</style><path d="M0 0h100v100H0V0z" fill="#fff"/><path class="st1" d="M100 100H0V0h100v100zM9.7 90h80.7V10H9.7"/><path class="st1" d="M49.1 25H52v2h-2.9zm24.7 20.3c.2-1.6 0-3.2-.4-4.7h-7v-2.9H72c-.5-.7-1-1.4-1.6-2l-6.9-7-1.1 11c-.3 2.8-1.5 5.4-3.6 7.4v4.8h3.9c2.2 0 4.2.8 5.7 2.1 2.2-1.4 3.8-3.4 4.7-5.8h-6.8v-2.9h7.5zM52.1 27v3.5h-2.9V27h-8.5l1.2 12.4c.2 2.2 1.2 4.2 2.9 5.7 1.6 1.5 3.8 2.3 6 2.3s4.3-.8 6-2.3c1.6-1.5 2.7-3.5 2.9-5.7l1-12.4h-8.6zm4 9.6h-3.9v4.8h-2.9v-4.8h-3.9v-2.9h10.8l-.1 2.9z"/><path class="st1" d="M62.7 54.8h-6.8v-5.7c-1.6.8-3.4 1.2-5.3 1.2s-3.7-.4-5.3-1.2v5.7h-6.8c-3.2 0-5.7 2.6-5.7 5.7v3.7c4.5.7 7.9 4.6 7.9 9.3V75h18.4v-1.5c0-5.1 4.1-9.3 9.2-9.4v-3.6c.1-3.1-2.4-5.7-5.6-5.7z"/><path class="st1" d="M68.6 67.1c-3.6 0-6.5 2.9-6.5 6.5V75h5v-4H70v4h5v-1.5c.1-3.5-2.8-6.4-6.4-6.4zM38.9 39.7l-1.1-11-6.9 7c-.6.6-1.1 1.3-1.6 2H35v2.9h-7c-.5 1.5-.6 3.1-.4 4.7h7.5v2.9h-6.8c.9 2.4 2.5 4.4 4.7 5.8 1.5-1.3 3.5-2.1 5.7-2.1h3.9v-4.8c-2.2-2-3.4-4.6-3.7-7.4zm-7.5 27.4c-3.6 0-6.5 2.9-6.5 6.5V75h5v-4h2.9v4h5v-1.5c.1-3.5-2.8-6.4-6.4-6.4z"/></svg>