<svg xmlns="http://www.w3.org/2000/svg" viewBox="0 0 100 100"><path d="M0 0h100v100H0V0z" fill="#fff"/><path d="M100 100H0V0h100v100zM9.7 90h80.7V10H9.7" fill="#666"/><path d="M68.2 33.5c2 .5 3.5 1.4 4.8 2.8.7.8 1.7 2.1 1.9 2.5 0 .1-3.3 2.3-5.3 3.6-.1.1-.4-.3-.7-.8-1-1.4-2-2.1-3.6-2.2-2.3-.2-3.8 1.1-3.8 3.1 0 .6.1 1 .3 1.4.5 1.1 1.5 1.7 4.4 3 5.5 2.4 7.9 3.9 9.3 6.2 1.7 2.5 2 6.5.9 9.4-1.2 3.2-4.3 5.4-8.6 6.1-1.4.2-4.4.2-5.9-.1-3.1-.5-6-2.1-7.8-4.1-.7-.8-2.1-2.9-2-3 0-.1.4-.2.7-.5.4-.2 1.7-1 2.9-1.7l2.2-1.3.5.7c.7 1 2.1 2.3 2.9 2.8 2.5 1.3 5.9 1.1 7.5-.4.7-.7 1-1.4 1-2.3 0-.9-.1-1.3-.6-2-.6-.8-1.8-1.6-5.3-3.1-4-1.7-5.7-2.8-7.3-4.4-.9-1-1.7-2.6-2.1-3.8-.3-1.1-.4-3.8-.2-4.9.8-3.8 3.8-6.5 7.9-7.3 1.5 0 4.7 0 6 .3zm-18.1 3.3V40h-10v28.6H33V39.9H23v-3.1c0-1.7 0-3.2.1-3.2 0-.1 6.2-.1 13.5-.1H50l.1 3.3z" fill="#72a536"/></svg>