<svg id="Layer_1" xmlns="http://www.w3.org/2000/svg" viewBox="0 0 100 100"><style>.st1{fill:#36454d}</style><path fill="#fff" d="M0 0h100v100H0z"/><path class="st1" d="M100 100H0V0h100v100zM9.7 90h80.7V10H9.7"/><path d="M58.2 26.5v10h-1c-.6-2.3-1.2-4-1.9-5s-1.7-1.8-2.9-2.4c-.7-.3-1.9-.5-3.6-.5H46v28.6c0 1.9.1 3.1.3 3.5.2.5.6.9 1.2 1.2.6.4 1.4.5 2.5.5h1.2v1H31.9v-1h1.2c1.1 0 1.9-.2 2.6-.6.5-.3.8-.7 1.1-1.3.2-.4.3-1.6.3-3.4V28.6h-2.7c-2.5 0-4.3.5-5.4 1.6-1.6 1.5-2.6 3.6-3 6.3h-1v-10h33.2z" fill="#7291a1"/><path class="st1" d="M75 37.5v10h-1c-.6-2.3-1.2-4-1.9-5s-1.7-1.8-2.9-2.4c-.7-.3-1.9-.5-3.6-.5h-2.8v28.6c0 1.9.1 3.1.3 3.5.2.5.6.9 1.2 1.2.6.4 1.4.5 2.5.5H68v1H48.7v-1h1.2c1.1 0 1.9-.2 2.6-.6.5-.3.8-.7 1.1-1.3.2-.4.3-1.6.3-3.4V39.6h-2.7c-2.5 0-4.3.5-5.4 1.6-1.6 1.5-2.6 3.6-3 6.3h-1v-10H75z"/></svg>