<svg width="36pt" height="36pt" version="1.1" viewBox="0 0 36 36" xmlns="http://www.w3.org/2000/svg"><defs><clipPath><rect width="36" height="36"/></clipPath><clipPath><rect width="36" height="36"/></clipPath></defs><path d="m4.7148 3c-0.85938 0-1.7148 0.85547-1.7148 1.7148v26.617c0 0.8125 0.85547 1.668 1.668 1.668h26.664c0.8125 0 1.668-0.85547 1.668-1.668v-26.664c0-0.8125-0.85938-1.668-1.668-1.668z" fill="#bc9676"/><path d="m4.7148 3c-0.85938 0-1.7148 0.85547-1.7148 1.7148v8.2852h30v-8.332c0-0.8125-0.85938-1.668-1.668-1.668z" fill="#fff" fill-opacity=".19608"/><path d="m15.5 6.332v13.336h5v-13.336z" fill="#fff" fill-opacity=".39216"/><g><path d="m11.945 21.767-1.944 5.4615h1.456l0.33046-1.1255h1.9044l0.35429 1.1255h1.5028l-1.8648-5.4615zm4.155 0v5.4615h1.3614v-1.6054h0.44843c1.4795 0 2.4554-0.81045 2.4554-2.0381 0-1.1411-0.83424-1.8179-2.2272-1.8179zm4.9416 0v5.4615h1.401v-2.6994l1.7311 2.6994h1.826l-1.9989-2.943 1.8729-2.5184h-1.6446l-1.7864 2.4631v-2.4631zm-3.5801 1.1962h0.5664c0.55087 0 0.92069 0.29902 0.92069 0.75546 0 0.4407-0.30673 0.70819-0.79465 0.70819h-0.69244zm-4.7375 0.0077 0.59022 1.9048h-1.157z" fill="#fff"/><path transform="scale(.75)" d="m4 39.775v2c0 1.0833 1.1413 2.2246 2.2246 2.2246h35.551c1.0833 0 2.2246-1.1413 2.2246-2.2246v-2c0 1.0833-1.1413 2.2246-2.2246 2.2246h-35.551c-1.0833 0-2.2246-1.1413-2.2246-2.2246z" opacity=".3" stroke-width="1.3333"/><path transform="scale(.75)" d="m6.2871 4c-1.1458 0-2.2871 1.1413-2.2871 2.2871v2c0-1.1458 1.1413-2.2871 2.2871-2.2871h35.488c1.0781 0 2.2246 1.1413 2.2246 2.2246v-2c0-1.0833-1.1465-2.2246-2.2246-2.2246h-35.488z" fill="#fff" opacity=".2" stroke-width="1.3333"/></g></svg>
