<svg width="36pt" height="36pt" version="1.1" viewBox="0 0 36 36" xmlns="http://www.w3.org/2000/svg"><defs><clipPath><rect width="384" height="384"/></clipPath></defs><g transform="matrix(.086885 0 0 .086885 1.323 1.0586)"><path d="m105.05 355.84c-2.2266-2.3906-3.8203-6.7656-3.7969-10.441 8e-3 -1.8945 1.9609-8.3633 5.5781-18.492 3.0625-8.5703 5.6055-16.352 5.6562-17.293 0.0664-1.2461-1.4219-3.082-5.4961-6.7773-3.0742-2.7891-7.5391-7.3672-9.9219-10.176-2.3867-2.8125-4.9961-5.3906-5.8047-5.7305-0.90625-0.38282-7.5625 1.543-17.379 5.0312-8.75 3.1094-17.152 5.7422-18.668 5.8516-3.1172 0.23047-8.9766-2-11.484-4.3711-1.9922-1.8867-16.574-37.184-16.895-40.898-0.31641-3.6836 2.2422-9.2383 5.4727-11.891 1.4727-1.207 9.4375-5.2539 17.699-8.9883 8.8945-4.0234 15.266-7.3711 15.621-8.207 0.32813-0.77734 0.40234-4.4219 0.16406-8.1016-0.23828-3.6758-0.21484-10.055 0.05469-14.176 0.26563-4.1172 0.08594-7.9727-0.40234-8.5625-0.48828-0.58985-7.5742-4.3516-15.742-8.3594-9.5-4.6602-15.754-8.1211-17.363-9.6016-3.0586-2.8203-5.3438-9.0117-4.582-12.434 0.30469-1.3867 4.2539-10.969 8.7656-21.289l8.2109-18.762 3.3203-1.8008c5.8633-3.1758 7.8711-2.8945 26.641 3.7344 10.625 3.7539 17.203 5.7461 17.949 5.4414 0.64844-0.26562 3.7109-3.168 6.8008-6.4453 3.0937-3.2773 7.6055-7.6484 10.027-9.707 2.4219-2.0586 4.6445-4.3203 4.9453-5.0195 0.29687-0.70312-1.7774-7.8672-4.6094-15.918-2.832-8.0469-5.4688-15.914-5.8633-17.477-1.1055-4.3984-0.20703-8.8789 2.5-12.496 2.043-2.7305 4.1211-3.8008 20.57-10.586 10.062-4.1484 19.734-7.6523 21.492-7.7852 4.082-0.30469 9.418 1.9297 12.023 5.0352 1.0976 1.3086 5.0469 9.082 8.7812 17.281 3.7305 8.1953 7.0976 15.312 7.4805 15.816 0.40625 0.52734 4.1836 0.76562 8.9922 0.56641 4.5625-0.1875 11.238-0.11719 14.836 0.15625 4.8789 0.37109 6.9258 0.15234 8.0508-0.85547 0.82422-0.74219 4.793-8.0273 8.8164-16.191 7.7344-15.695 9.3633-18.004 14.148-20.062 5.3242-2.2852 7.5781-1.7031 28.102 7.2695l18.695 8.1758 2.1133 3.1914c3.6367 5.4883 3.3633 7.832-3.0312 26.23-3.0977 8.9102-5.7578 16.937-5.9141 17.844-0.22266 1.2774 0.96484 2.7852 5.25 6.6758 3.0469 2.7656 7.7461 7.6211 10.441 10.793 2.6953 3.168 5.1719 5.8789 5.5078 6.0234 0.33593 0.14062 7.8633-2.3242 16.73-5.4766 8.8672-3.1524 17.562-5.8477 19.328-5.9922 4.168-0.33594 9.2383 1.832 12.203 5.2227 1.4102 1.6094 5.1055 9.6367 9.4258 20.477 7.4219 18.602 7.8086 20.535 5.3008 26.473-1.7695 4.2031-4.8086 6.1641-21.145 13.664-8.8867 4.0781-16.273 7.6953-16.418 8.0391-0.14844 0.34766-0.082 4.5977 0.14062 9.4531 0.22657 4.8516 0.14063 11.48-0.1914 14.727-0.41407 4.0312-0.23438 6.2812 0.55468 7.1016 0.64063 0.66016 8.1562 4.6953 16.703 8.9648 16.961 8.4727 19.465 10.379 20.645 15.727 1.1133 5.0547 0.20313 8.1055-8.082 26.98l-7.9258 18.055-3.418 2.1289c-6.0977 3.7969-7.1797 3.668-27.043-3.2656-9.707-3.3867-17.883-6.0625-18.172-5.9453-0.28907 0.11719-2.7422 2.6367-5.4492 5.6016-2.7109 2.9648-7.5312 7.6055-10.719 10.312-3.1836 2.707-5.8711 5.3906-5.9727 5.957-0.10156 0.57032 2.2969 8.0234 5.332 16.566 3.0352 8.5391 5.6328 17.242 5.7774 19.34 0.30468 4.4531-1.168 8.4102-4.2578 11.43-2.7266 2.6641-35.594 16.273-40.145 16.621-3.8047 0.29296-9.5664-1.9453-12.23-4.75-1.0195-1.0742-5.0703-8.9844-9-17.578-3.9297-8.5938-7.6523-15.844-8.2773-16.109-0.62109-0.26563-4.8516-0.34766-9.3984-0.1836-4.5469 0.16406-11.141 0.0586-14.648-0.23047-4.8476-0.40234-6.6094-0.21093-7.3438 0.80078-0.53515 0.73047-4.4453 8.2148-8.6953 16.633-9.3438 18.52-10.949 20.273-19.008 20.82-2.3359 0.16016-5.5938-1.0234-21.691-7.875-14.25-6.0664-19.371-8.5234-20.664-9.9102zm63.801-72.758c17.859 5.457 35.039 4.6953 52.363-2.3242 13.203-5.3516 23.598-13.23 32.766-24.828 5.7461-7.2734 13.438-25.453 14.699-34.746 3.8281-28.199-6.3789-54.484-28.199-72.621-5.082-4.2227-6.5938-5.0625-17.906-9.9141-10.836-4.6484-13.18-5.4141-19.062-6.2109-29.371-3.9727-58.473 8.6445-75.102 32.562-14.941 21.488-17.918 48.625-8.0352 73.227 5.1758 12.883 14.055 24.488 25.344 33.125 3.2188 2.4648 8.043 5.3555 15.094 9.0508 0.5625 0.29297 4.1797 1.5 8.0391 2.6797zm-4.9688-37.09c-15.961-12.535-22.074-33.234-15.391-52.109 4.6719-13.195 13.426-22.324 26.418-27.551 23.664-9.5195 50.293 1.5898 59.777 24.93 7.8125 19.227 2.9219 39.789-12.613 53.07-13.234 11.312-30 14.191-46.43 7.9727-5.5938-2.1172-8.207-3.5195-11.762-6.3125zm27.738-9.2812c5.7734 0.25 15.914-2.7539 20.57-6.7852 3.2891-2.8438 4.0078-3.9492 6.6836-10.258 2.8438-6.7148 1.1094-7.3516 0.60937-12.57-1.0117-10.535-6.0664-17.801-15.59-22.418-7.6523-3.707-13.035-4.0352-20.867-1.2695-9.9336 3.5078-16.637 11.395-18.141 21.34-1.3047 8.6133 0.67578 15.672 6.2461 22.27 5.1914 6.1562 11.883 9.3242 20.488 9.6914z" fill="#b3b3b3"/><path d="m105.05 335c-2.2266-2.3906-3.8203-6.7656-3.7969-10.441 0.47098-3.3606 4.8343-17.462 5.5781-18.496 3.0625-8.5664 5.6055-16.348 5.6562-17.289 0.0664-1.25-1.4219-3.082-5.4961-6.7813-3.0742-2.7852-7.5391-7.3672-9.9219-10.176-2.3867-2.8086-4.9961-5.3867-5.8047-5.7266-0.90625-0.38672-7.5625 1.543-17.379 5.0273-8.75 3.1094-17.152 5.7461-18.668 5.8555-3.1172 0.22657-8.9766-2.0039-11.484-4.375-1.9922-1.8828-16.574-37.18-16.895-40.895-0.31641-3.6836 2.2422-9.2383 5.4727-11.891 1.4727-1.2109 9.4375-5.2539 17.699-8.9922 8.8945-4.0195 15.266-7.3672 15.621-8.207 0.32812-0.77735 0.40234-4.418 0.16406-8.0977-0.23828-3.6758-0.21484-10.055 0.05469-14.176 0.26562-4.1211 0.08594-7.9727-0.40234-8.5664-0.48828-0.58985-7.5742-4.3516-15.742-8.3555-9.5-4.6602-15.754-8.1211-17.363-9.6016-3.0586-2.8242-5.3438-9.0117-4.582-12.434 0.30469-1.3906 4.2539-10.969 8.7695-21.289l8.207-18.766 3.3203-1.7969c5.8633-3.1758 7.8711-2.8945 26.641 3.7344 10.625 3.7539 17.203 5.7461 17.949 5.4414 0.64844-0.26953 3.7109-3.168 6.8008-6.4453 3.0938-3.2813 7.6055-7.6484 10.027-9.707 2.4219-2.0586 4.6445-4.3203 4.9453-5.0234 0.29687-0.70312-1.7774-7.8633-4.6094-15.914-2.832-8.0508-5.4688-15.914-5.8633-17.477-1.1055-4.3984-0.20703-8.8828 2.5-12.5 2.043-2.7305 4.1211-3.7969 20.57-10.582 10.062-4.1484 19.734-7.6523 21.492-7.7852 4.082-0.30469 9.418 1.9297 12.023 5.0352 1.0977 1.3047 5.0469 9.082 8.7813 17.281 3.7305 8.1953 7.0976 15.312 7.4805 15.812 0.40624 0.53125 4.1836 0.76953 8.9922 0.57031 4.5625-0.1875 11.238-0.12109 14.836 0.15234 4.8789 0.37109 6.9258 0.15625 8.0508-0.85156 0.82422-0.74609 4.793-8.0312 8.8164-16.191 7.7344-15.695 9.3633-18.008 14.148-20.062 5.3242-2.2891 7.5781-1.7031 28.102 7.2695l18.695 8.1719 2.1133 3.1914c3.6367 5.4922 3.3633 7.832-3.0312 26.234-3.0977 8.9062-5.7578 16.937-5.9141 17.844-0.22265 1.2734 0.96485 2.7812 5.25 6.6758 3.0469 2.7617 7.7461 7.6211 10.441 10.789 2.6953 3.1719 5.1719 5.8828 5.5078 6.0234 0.33594 0.14454 7.8633-2.3203 16.73-5.4726 8.8672-3.1524 17.563-5.8477 19.328-5.9922 4.168-0.33594 9.2383 1.832 12.203 5.2187 1.4102 1.6094 5.1055 9.6406 9.4258 20.477 7.4219 18.605 7.8086 20.539 5.3008 26.477-1.7695 4.2031-4.8086 6.1641-21.145 13.664-8.8867 4.0781-16.273 7.6953-16.418 8.0391-0.14844 0.34375-0.082 4.5976 0.14062 9.4531 0.22656 4.8516 0.14063 11.48-0.19141 14.723-0.41406 4.0352-0.23437 6.2852 0.5547 7.1055 0.64062 0.66016 8.1562 4.6914 16.703 8.9648 16.961 8.4727 19.465 10.379 20.645 15.727 1.1133 5.0547 0.20312 8.1016-8.082 26.98l-7.9258 18.055-3.418 2.1289c-6.0977 3.7969-7.1797 3.668-27.043-3.2656-9.707-3.3867-17.883-6.0625-18.172-5.9492-0.28906 0.11719-2.7422 2.6406-5.4492 5.6055-2.7109 2.9648-7.5312 7.6055-10.719 10.312-3.1836 2.707-5.8711 5.3867-5.9727 5.957-0.10156 0.57031 2.2969 8.0234 5.332 16.562 3.0352 8.543 5.6328 17.246 5.7774 19.344 0.30468 4.4531-1.168 8.4102-4.2578 11.43-2.7266 2.6641-35.594 16.273-40.145 16.621-3.8047 0.29297-9.5664-1.9453-12.23-4.75-1.0195-1.0742-5.0703-8.9844-9-17.578-3.9297-8.5938-7.6523-15.844-8.2773-16.109-0.62109-0.26563-4.8516-0.35157-9.3984-0.1875-4.5469 0.16797-11.141 0.0625-14.648-0.22656-4.8476-0.40235-6.6094-0.21094-7.3437 0.79687-0.53517 0.73047-4.4453 8.2188-8.6953 16.637-9.3438 18.516-10.949 20.273-19.008 20.82z" fill="#fff" stroke="#e6e6e6" stroke-width="15"/><path d="m191.95 133.03c-34.963 0-63.469 28.506-63.469 63.469s28.506 63.469 63.469 63.469 63.467-28.506 63.467-63.469-28.504-63.469-63.467-63.469z" color="#000000" color-rendering="auto" dominant-baseline="auto" image-rendering="auto" opacity=".3" shape-rendering="auto" solid-color="#000000" style="font-feature-settings:normal;font-variant-alternates:normal;font-variant-caps:normal;font-variant-ligatures:normal;font-variant-numeric:normal;font-variant-position:normal;isolation:auto;mix-blend-mode:normal;shape-padding:0;text-decoration-color:#000000;text-decoration-line:none;text-decoration-style:solid;text-indent:0;text-orientation:mixed;text-transform:none;white-space:normal"/><path d="m247.77 189c0 30.832-24.992 55.824-55.824 55.824s-55.824-24.992-55.824-55.824 24.992-55.824 55.824-55.824 55.824 24.992 55.824 55.824z" fill="#fff" stroke="#e6e6e6" stroke-width="15.287"/></g></svg>
