<svg width="36pt" height="36pt" version="1.1" viewBox="0 0 36 36" xmlns="http://www.w3.org/2000/svg"><defs><clipPath><rect width="36" height="36"/></clipPath><clipPath><rect width="36" height="36"/></clipPath></defs><g transform="translate(-52.475 14.949)"><g transform="translate(52.475 -14.949)"><path d="m4.7148 3c-0.85938 0-1.7148 0.85547-1.7148 1.7148v26.617c0 0.8125 0.85547 1.668 1.668 1.668h26.664c0.8125 0 1.668-0.85547 1.668-1.668v-26.664c0-0.8125-0.85938-1.668-1.668-1.668z" fill="#bc9676"/><path d="M 4.7148,3 C 3.85542,3 3,3.85547 3,4.7148 V 13 H 33 V 4.668 C 33,3.8555 32.14062,3 31.332,3 Z" fill="#fff" fill-opacity=".19608"/><path d="m15.5 6.332v13.336h5v-13.336z" fill="#fff" fill-opacity=".39216"/><g stroke-width="1.3333"><path transform="scale(.75)" d="m4 39.775v2c0 1.0833 1.1413 2.2246 2.2246 2.2246h35.551c1.0833 0 2.2246-1.1413 2.2246-2.2246v-2c0 1.0833-1.1413 2.2246-2.2246 2.2246h-35.551c-1.0833 0-2.2246-1.1413-2.2246-2.2246z" opacity=".3"/><path transform="scale(.75)" d="M 6.2871,4 C 5.1413,4 4,5.1413 4,6.2871 v 2 C 4,7.1413 5.1413,6 6.2871,6 h 35.488 c 1.0781,0 2.2246,1.1413 2.2246,2.2246 v -2 C 43.9997,5.1413 42.8532,4 41.7751,4 Z" fill="#fff" opacity=".2"/></g></g><path d="m62.956 6.818v5.4615h1.944c1.873 0 3.1083-1.1256 3.1083-2.8412 0-1.6448-1.1174-2.6203-3.0061-2.6203zm5.7793 0v5.4615h3.9191v-1.1962h-2.5576v-0.97602h2.3375v-1.1962h-2.3375v-0.89686h2.5576v-1.1962zm4.7956 0v5.4615h2.1718c1.3772 0 2.2902-0.71616 2.2902-1.7864 0-0.67679-0.34605-1.1649-0.95988-1.401 0.31479-0.23609 0.4957-0.59004 0.4957-0.99139 0-0.84206-0.70048-1.2827-2.0462-1.2827zm1.338 1.0702h0.53489c0.45644 0 0.75546 0.22012 0.75546 0.55064 0 0.19674-0.10221 0.36998-0.29896 0.50377h-0.99139zm-10.575 0.10221h0.62942c1.0467 0 1.6685 0.59812 1.6685 1.6054 0 0.97584-0.54316 1.5109-1.5347 1.5109h-0.76314zm10.575 1.9912h0.93644c0.48792 0 0.77121 0.25169 0.77121 0.64517 0 0.38561-0.236 0.58216-0.69244 0.58216h-1.0152z" fill="#fff"/></g></svg>
