<svg width="36pt" height="36pt" version="1.1" viewBox="0 0 36 36" xmlns="http://www.w3.org/2000/svg" xmlns:xlink="http://www.w3.org/1999/xlink"><path d="m6 0.75c-0.76953 0-1.5 0.73047-1.5 1.5v31.5c0 0.73047 0.76953 1.5 1.5 1.5h24c0.73047 0 1.5-0.76953 1.5-1.5v-23.25l-9.75-9.75z" fill="#bc9676"/><path d="m21.75 9 0.046875 0.046875 0.11719-0.046875zm1.5 1.5 8.25 8.25v-8.25z" fill-opacity=".19608"/><path d="m21.75 0.75 9.75 9.75h-8.25c-0.73047 0-1.5-0.76953-1.5-1.5z" fill="#fff" fill-opacity=".39216"/><path d="m22.615 13.165c-0.31354 1.2112-2.0101 2.0616-3.1569 2.6071-0.11167-0.74734-0.31354-1.4947-0.63138-2.2034-0.36508 0.62279-0.6099 1.31-1.0437 1.8898-0.32213 0.42092-0.67433 0.82895-1.121 1.1511-0.03866 0.01289-0.07731 0.02577-0.11167 0.03866-0.23623 0.08591-0.45958 0.18469-0.65715 0.29636-0.91056 0.5197-1.5763 1.2284-2.0917 2.0531-0.69151 1.1038-0.21046 2.5298-2.1089 3.5907-0.03436 0.03436-0.07302 0.06872-0.11597 0.10308 0.0043-0.0043 0.0043-0.0043 0.0086-0.0043l0.0043 0.0043c-0.46816 0.33072-1.383 0.33931-0.99646 1.0609 0.21046 0.32213 0.36938 0.58413 0.62708 0.83754-0.0043 0.0043-0.0086 0.0043-0.01289 0.0086 0.67433 0.66144 1.6579 1.1124 2.7188 1.2026 0.524 0.05584 1.2628 0.03006 1.5763 0.03006 2.6501-0.0086 5.1756-1.237 6.696-2.9851 0.11167-0.13744 0.55407-0.65715 0.56266-0.75164 0.7001-1.1167 1.4775-2.2635 1.5248-3.5477-0.76023 0.22334-1.5548 0.47676-2.3709 0.55407 0.0086-0.0043 0.01719-0.0043 0.02577-0.0043h0.0086 0.0043c-0.20616 0.0043-0.60131 0.08591-0.6958-0.01289 0.89338-1.0008 1.7395-2.0917 1.9285-3.3459 0.12026-0.8719-0.03006-1.8125-0.57125-2.5728zm2.0788 1.9371c-0.77312 0.13315 0.11597 0.94062-0.06872 1.383 0.67003-0.18469 0.80318-1.1983 0.06872-1.383zm0.32213 1.7094c-0.03866 0-0.07731 0.01289-0.10308 0.03006-0.48105 0.3522-0.15033 1.0995-0.47246 1.5333 0.22764 0.01289 0.45528-0.06013 0.65715-0.14174 0.65285-0.21475 0.41233-1.0995-0.02148-1.4088-0.01718-0.0086-0.03866-0.01289-0.06013-0.01289zm-0.99646 0.03436c-0.23194-0.0043-0.15462 0.6099 0.10308 0.61849 0.21475 0.0086 0.23623-0.35649 0.14603-0.51541-0.03866-0.06872-0.18898-0.10308-0.24912-0.10308zm-2.0573 2.2506h0.0086 0.01289c0.0043 0 0.0086 0.0043 0.01719 0.0043h0.0086c-0.01289 0-0.03006-0.0043-0.04725-0.0043zm-6.623 0.13315c0.54118 0 0.57984 0.84184 0.63997 1.2198 0.0902 0.56266 0.19757 1.1983-0.63997 1.4088-0.05584 0.02577-0.27489 0.16321-0.21046-0.0086 0.23623-0.41233-0.1718-1.4517-0.80748-0.93633-0.06442-0.58843 0.14603-1.2585 0.75594-1.6278 0.09878-0.03866 0.18469-0.05584 0.262-0.05584zm7.4133 2.8519c-0.02577 0-0.09878 0.04725-0.24052 0.16321-0.09878 0.05583-0.1761 0.08161-0.23194 0.0902h0.0086c0.01719-0.0043 0.03006-0.0086 0.04725-0.01289 0.0043 0 0.01289-0.0043 0.02147-0.0086 0.03436-0.01289 0.07302-0.02577 0.11597-0.05154 0.01289-0.0043 0.02147-0.0086 0.03436-0.01719 0.02147-0.01719 0.04295-0.03436 0.06013-0.04725 0.0086-0.0086 0.01719-0.01289 0.02147-0.01719 0.01289-0.0086 0.02147-0.01719 0.03436-0.02577 0.0043-0.0043 0.01289-0.0086 0.01717-0.01289 0.0086-0.0043 0.01719-0.01289 0.02577-0.01719 0.0086-0.0043 0.01289-0.0086 0.02147-0.01289v-0.0043c0.01289-0.0043 0.01719-0.0086 0.02577-0.01289 0.0043 0 0.0043-0.0043 0.0086-0.0043h0.0043c0-0.0043 0.0043-0.0043 0.0086-0.0043 0.0043-0.0043 0.0043-0.0043 0.0086-0.0043h0.0086zm-0.53259 0.25341h0.0043-0.0043zm0.04725 0.0043h-0.02147 0.02147zm-10.703 0.36079c-0.0043 0.0043-0.0086 0.0043-0.01289 0.0086 0.0043-0.0043 0.0086-0.0043 0.01289-0.0086zm-0.37367 1.8855s0.0043 0.0043 0.0086 0.0043c-0.0043 0-0.0086-0.0043-0.0086-0.0043z" fill="#fff" stroke-width="1.0995"/></svg>
